<svg xmlns="http://www.w3.org/2000/svg" width="512" height="512" viewBox="0 0 512 512" version="1.1"><path d="M 64.450 372.407 C 60.322 374.205, 56.224 379.291, 55.410 383.626 C 53.866 391.856, 59.914 400.293, 68.208 401.479 C 70.569 401.816, 110.605 401.959, 157.177 401.796 C 241.298 401.502, 241.873 401.486, 244.677 399.408 C 246.230 398.257, 248.512 395.828, 249.750 394.010 C 254.415 387.156, 251.332 376.791, 243.500 373 C 239.465 371.047, 237.368 371.001, 153.434 371.039 C 84.249 371.071, 66.906 371.337, 64.450 372.407" stroke="none" fill="#f74e09" fill-rule="evenodd"/><path d="M 112.984 307.824 C 108.146 310.357, 104.723 317.079, 105.325 322.864 C 105.816 327.572, 108.013 331.174, 112.385 334.438 C 115.131 336.489, 115.763 336.501, 230.223 336.767 C 344.147 337.030, 345.341 337.013, 349.400 335.002 C 355.089 332.184, 357.331 328.709, 357.756 322.045 C 358.171 315.550, 356 311.190, 350.759 307.995 C 347.557 306.042, 345.487 306.007, 231.984 306.004 C 122.121 306, 116.298 306.089, 112.984 307.824" stroke="none" fill="#ffa115" fill-rule="evenodd"/><path d="M 168 241.163 C 161.400 243.049, 157 248.991, 157 256.016 C 157 263.642, 161.737 269.373, 169.401 271.020 C 172.996 271.792, 214.608 272.024, 310.500 271.808 C 437.345 271.521, 446.713 271.383, 449.671 269.765 C 454.903 266.903, 457.500 262.336, 457.500 256 C 457.500 249.664, 454.903 245.097, 449.671 242.235 C 446.709 240.615, 437.424 240.489, 309 240.331 C 219.802 240.222, 170.270 240.514, 168 241.163" stroke="none" fill="#45ad3c" fill-rule="evenodd"/><path d="M 116.500 175.718 C 110.608 177.149, 105 184.482, 105 190.756 C 105 195.276, 109.078 202.131, 112.984 204.176 C 116.298 205.911, 122.121 206, 231.984 205.996 C 345.487 205.993, 347.557 205.958, 350.759 204.005 C 356.064 200.771, 358.172 196.466, 357.741 189.749 C 357.440 185.049, 356.836 183.428, 354.436 180.876 C 348.591 174.660, 355.592 174.989, 231.782 175.116 C 169.477 175.180, 117.600 175.451, 116.500 175.718" stroke="none" fill="#2c95ca" fill-rule="evenodd"/><path d="M 63.013 112.275 C 52.505 117.832, 52.274 132.811, 62.604 138.734 L 66.500 140.967 153.349 140.984 C 250.130 141.002, 244.621 141.395, 249.561 134.125 C 254.396 127.010, 251.933 116.587, 244.396 112.266 L 240.500 110.033 153.907 110.016 L 67.315 110 63.013 112.275" stroke="none" fill="#6455c4" fill-rule="evenodd"/></svg>