<?xml version="1.0" encoding="UTF-8"?>
<!DOCTYPE svg PUBLIC "-//W3C//DTD SVG 1.1//EN" "http://www.w3.org/Graphics/SVG/1.1/DTD/svg11.dtd">
<svg xmlns="http://www.w3.org/2000/svg" version="1.1" width="400px" height="400px" style="shape-rendering:geometricPrecision; text-rendering:geometricPrecision; image-rendering:optimizeQuality; fill-rule:evenodd; clip-rule:evenodd" xmlns:xlink="http://www.w3.org/1999/xlink">
<g><path style="opacity:1" fill="#fffefe" d="M -0.5,-0.5 C 132.833,-0.5 266.167,-0.5 399.5,-0.5C 399.5,132.833 399.5,266.167 399.5,399.5C 266.167,399.5 132.833,399.5 -0.5,399.5C -0.5,266.167 -0.5,132.833 -0.5,-0.5 Z"/></g>
<g><path style="opacity:1" fill="#ffe8c7" d="M 206.5,44.5 C 210.182,44.3347 213.848,44.5014 217.5,45C 218.416,45.2784 219.082,45.7784 219.5,46.5C 214.99,46.1156 210.657,45.4489 206.5,44.5 Z"/></g>
<g><path style="opacity:1" fill="#ff9804" d="M 206.5,44.5 C 210.657,45.4489 214.99,46.1156 219.5,46.5C 243.848,50.5144 265.515,60.1811 284.5,75.5C 223.832,75.3333 163.166,75.5 102.5,76C 101.756,77.0386 100.756,77.5386 99.5,77.5C 120.906,58.8479 145.906,48.0146 174.5,45C 185.161,44.5002 195.828,44.3335 206.5,44.5 Z"/></g>
<g><path style="opacity:1" fill="#ff9201" d="M 284.5,75.5 C 295.5,83.1667 304.833,92.5 312.5,103.5C 311.078,103.25 310.078,102.417 309.5,101C 232.167,100.333 154.833,100.333 77.5,101C 76.2644,102.085 74.9311,102.918 73.5,103.5C 80.5212,93.1455 89.1879,84.4788 99.5,77.5C 100.756,77.5386 101.756,77.0386 102.5,76C 163.166,75.5 223.832,75.3333 284.5,75.5 Z"/></g>
<g><path style="opacity:1" fill="#ff8d02" d="M 312.5,103.5 C 318.343,110.025 323.01,117.359 326.5,125.5C 293.832,125.333 261.165,125.5 228.5,126C 229.381,126.708 230.047,127.542 230.5,128.5C 214.239,119.927 196.905,117.094 178.5,120C 171.076,121.418 164.076,123.918 157.5,127.5C 125.184,125.507 92.5171,124.84 59.5,125.5C 63.171,117.481 67.8377,110.148 73.5,103.5C 74.9311,102.918 76.2644,102.085 77.5,101C 154.833,100.333 232.167,100.333 309.5,101C 310.078,102.417 311.078,103.25 312.5,103.5 Z"/></g>
<g><path style="opacity:1" fill="#fffefd" d="M 230.5,128.5 C 240.286,134.564 248.619,142.231 255.5,151.5C 258.786,157.075 261.786,162.741 264.5,168.5C 267.16,179.315 268.16,190.315 267.5,201.5C 267.5,203.167 267.5,204.833 267.5,206.5C 265.905,212.951 263.905,219.284 261.5,225.5C 256.376,235.627 249.709,244.627 241.5,252.5C 234.948,257.276 227.948,261.276 220.5,264.5C 204.807,269.905 188.807,270.905 172.5,267.5C 158.602,262.88 146.602,255.213 136.5,244.5C 131.747,238.665 127.747,232.332 124.5,225.5C 122.985,220.435 121.318,215.435 119.5,210.5C 118.24,200.117 118.24,189.784 119.5,179.5C 120.924,177.485 121.59,175.152 121.5,172.5C 121.5,171.5 121.5,170.5 121.5,169.5C 124.947,161.945 128.947,154.612 133.5,147.5C 140.624,139.703 148.624,133.036 157.5,127.5C 164.076,123.918 171.076,121.418 178.5,120C 196.905,117.094 214.239,119.927 230.5,128.5 Z"/></g>
<g><path style="opacity:1" fill="#ff8703" d="M 59.5,125.5 C 92.5171,124.84 125.184,125.507 157.5,127.5C 148.624,133.036 140.624,139.703 133.5,147.5C 120.183,146.167 106.517,145.501 92.5,145.5C 78.8333,145.833 65.1667,146.167 51.5,146.5C 50.907,150.537 49.5737,154.204 47.5,157.5C 49.344,145.961 53.344,135.294 59.5,125.5 Z"/></g>
<g><path style="opacity:1" fill="#ff8602" d="M 326.5,125.5 C 330.559,131.624 333.559,138.29 335.5,145.5C 307.831,145.333 280.165,145.5 252.5,146C 254.16,147.488 255.16,149.321 255.5,151.5C 248.619,142.231 240.286,134.564 230.5,128.5C 230.047,127.542 229.381,126.708 228.5,126C 261.165,125.5 293.832,125.333 326.5,125.5 Z"/></g>
<g><path style="opacity:1" fill="#ff8001" d="M 133.5,147.5 C 128.947,154.612 124.947,161.945 121.5,169.5C 121.5,168.5 121.5,167.5 121.5,166.5C 95.939,165.857 70.6056,166.524 45.5,168.5C 45.6459,164.613 46.3126,160.946 47.5,157.5C 49.5737,154.204 50.907,150.537 51.5,146.5C 65.1667,146.167 78.8333,145.833 92.5,145.5C 106.517,145.501 120.183,146.167 133.5,147.5 Z"/></g>
<g><path style="opacity:1" fill="#ff8001" d="M 335.5,145.5 C 338.261,152.214 339.928,159.214 340.5,166.5C 314.811,165.843 289.478,166.509 264.5,168.5C 261.786,162.741 258.786,157.075 255.5,151.5C 255.16,149.321 254.16,147.488 252.5,146C 280.165,145.5 307.831,145.333 335.5,145.5 Z"/></g>
<g><path style="opacity:1" fill="#ff7a02" d="M 121.5,169.5 C 121.5,170.5 121.5,171.5 121.5,172.5C 120.076,174.515 119.41,176.848 119.5,179.5C 118.24,189.784 118.24,200.117 119.5,210.5C 118.069,209.22 117.402,207.553 117.5,205.5C 116.968,199.848 116.635,194.181 116.5,188.5C 92.5,188.5 68.5,188.5 44.5,188.5C 44.5,194.167 44.5,199.833 44.5,205.5C 44.5865,209.857 44.9198,214.19 45.5,218.5C 44.71,217.391 44.21,216.058 44,214.5C 43.3333,201.167 43.3333,187.833 44,174.5C 44.3153,172.414 44.8153,170.414 45.5,168.5C 70.6056,166.524 95.939,165.857 121.5,166.5C 121.5,167.5 121.5,168.5 121.5,169.5 Z"/></g>
<g><path style="opacity:1" fill="#ff7c10" d="M 340.5,166.5 C 341.895,170.591 342.728,174.924 343,179.5C 343.831,223.335 343.665,267.002 342.5,310.5C 342.5,301.833 342.5,293.167 342.5,284.5C 342.5,277.5 342.5,270.5 342.5,263.5C 342.5,255.833 342.5,248.167 342.5,240.5C 342.5,232.5 342.5,224.5 342.5,216.5C 342.462,207.154 342.129,197.82 341.5,188.5C 317.5,188.5 293.5,188.5 269.5,188.5C 269.665,191.85 269.498,195.183 269,198.5C 268.768,199.737 268.268,200.737 267.5,201.5C 268.16,190.315 267.16,179.315 264.5,168.5C 289.478,166.509 314.811,165.843 340.5,166.5 Z"/></g>
<g><path style="opacity:1" fill="#ffd3ae" d="M 121.5,172.5 C 121.59,175.152 120.924,177.485 119.5,179.5C 119.41,176.848 120.076,174.515 121.5,172.5 Z"/></g>
<g><path style="opacity:1" fill="#ff7300" d="M 117.5,205.5 C 93.1667,205.5 68.8333,205.5 44.5,205.5C 44.5,199.833 44.5,194.167 44.5,188.5C 68.5,188.5 92.5,188.5 116.5,188.5C 116.635,194.181 116.968,199.848 117.5,205.5 Z"/></g>
<g><path style="opacity:1" fill="#ff7300" d="M 342.5,216.5 C 341.518,213.038 341.185,209.371 341.5,205.5C 316.759,205.177 292.092,205.51 267.5,206.5C 267.5,204.833 267.5,203.167 267.5,201.5C 268.268,200.737 268.768,199.737 269,198.5C 269.498,195.183 269.665,191.85 269.5,188.5C 293.5,188.5 317.5,188.5 341.5,188.5C 342.129,197.82 342.462,207.154 342.5,216.5 Z"/></g>
<g><path style="opacity:1" fill="#ff6d01" d="M 44.5,205.5 C 68.8333,205.5 93.1667,205.5 117.5,205.5C 117.402,207.553 118.069,209.22 119.5,210.5C 121.318,215.435 122.985,220.435 124.5,225.5C 98.9925,223.54 73.3258,222.873 47.5,223.5C 47.8333,226.833 48.1667,230.167 48.5,233.5C 46.5486,228.816 45.5486,223.816 45.5,218.5C 44.9198,214.19 44.5865,209.857 44.5,205.5 Z"/></g>
<g><path style="opacity:1" fill="#ff6d01" d="M 342.5,216.5 C 342.5,224.5 342.5,232.5 342.5,240.5C 341.511,235.025 341.178,229.358 341.5,223.5C 314.675,222.872 288.008,223.538 261.5,225.5C 263.905,219.284 265.905,212.951 267.5,206.5C 292.092,205.51 316.759,205.177 341.5,205.5C 341.185,209.371 341.518,213.038 342.5,216.5 Z"/></g>
<g><path style="opacity:1" fill="#ff6701" d="M 124.5,225.5 C 127.747,232.332 131.747,238.665 136.5,244.5C 108.498,244.333 80.498,244.5 52.5,245C 53.3802,246.356 53.7135,247.856 53.5,249.5C 51.057,244.5 49.3904,239.166 48.5,233.5C 48.1667,230.167 47.8333,226.833 47.5,223.5C 73.3258,222.873 98.9925,223.54 124.5,225.5 Z"/></g>
<g><path style="opacity:1" fill="#ff6701" d="M 342.5,240.5 C 342.5,248.167 342.5,255.833 342.5,263.5C 341.51,257.355 341.177,251.022 341.5,244.5C 311.165,244.333 280.832,244.5 250.5,245C 247.899,248.112 244.899,250.612 241.5,252.5C 249.709,244.627 256.376,235.627 261.5,225.5C 288.008,223.538 314.675,222.872 341.5,223.5C 341.178,229.358 341.511,235.025 342.5,240.5 Z"/></g>
<g><path style="opacity:1" fill="#ff6101" d="M 136.5,244.5 C 146.602,255.213 158.602,262.88 172.5,267.5C 169.053,267.186 165.72,266.352 162.5,265C 129.168,264.5 95.835,264.333 62.5,264.5C 62.5,265.833 62.5,267.167 62.5,268.5C 58.7176,262.599 55.7176,256.266 53.5,249.5C 53.7135,247.856 53.3802,246.356 52.5,245C 80.498,244.5 108.498,244.333 136.5,244.5 Z"/></g>
<g><path style="opacity:1" fill="#ff6101" d="M 342.5,263.5 C 342.5,270.5 342.5,277.5 342.5,284.5C 341.509,278.021 341.176,271.354 341.5,264.5C 301.167,264.5 260.833,264.5 220.5,264.5C 227.948,261.276 234.948,257.276 241.5,252.5C 244.899,250.612 247.899,248.112 250.5,245C 280.832,244.5 311.165,244.333 341.5,244.5C 341.177,251.022 341.51,257.355 342.5,263.5 Z"/></g>
<g><path style="opacity:1" fill="#ff5a00" d="M 172.5,267.5 C 188.807,270.905 204.807,269.905 220.5,264.5C 260.833,264.5 301.167,264.5 341.5,264.5C 341.176,271.354 341.509,278.021 342.5,284.5C 342.5,293.167 342.5,301.833 342.5,310.5C 342.784,312.415 342.451,314.081 341.5,315.5C 341.5,313.5 341.5,311.5 341.5,309.5C 341.5,302.833 341.5,296.167 341.5,289.5C 253.827,288.836 166.494,289.503 79.5,291.5C 72.7079,284.702 67.0412,277.035 62.5,268.5C 62.5,267.167 62.5,265.833 62.5,264.5C 95.835,264.333 129.168,264.5 162.5,265C 165.72,266.352 169.053,267.186 172.5,267.5 Z"/></g>
<g><path style="opacity:1" fill="#ff5400" d="M 341.5,309.5 C 261.166,309.333 180.833,309.5 100.5,310C 101.252,310.671 101.586,311.504 101.5,312.5C 92.8757,306.876 85.5424,299.876 79.5,291.5C 166.494,289.503 253.827,288.836 341.5,289.5C 341.5,296.167 341.5,302.833 341.5,309.5 Z"/></g>
<g><path style="opacity:1" fill="#ff4f01" d="M 341.5,309.5 C 341.5,311.5 341.5,313.5 341.5,315.5C 338.381,329.287 330.048,338.287 316.5,342.5C 269.517,343.47 222.517,343.804 175.5,343.5C 147.488,340.818 122.821,330.485 101.5,312.5C 101.586,311.504 101.252,310.671 100.5,310C 180.833,309.5 261.166,309.333 341.5,309.5 Z"/></g>
<g><path style="opacity:1" fill="#ff6526" d="M 316.5,342.5 C 316.5,342.833 316.5,343.167 316.5,343.5C 269.523,344.48 222.523,344.814 175.5,344.5C 175.5,344.167 175.5,343.833 175.5,343.5C 222.517,343.804 269.517,343.47 316.5,342.5 Z"/></g>
<g><path style="opacity:1" fill="#ffe8df" d="M 316.5,343.5 C 315.737,344.268 314.737,344.768 313.5,345C 267.332,345.832 221.332,345.665 175.5,344.5C 222.523,344.814 269.523,344.48 316.5,343.5 Z"/></g>
</svg>
