<svg xmlns="http://www.w3.org/2000/svg" width="280" height="280" viewBox="0 0 280 280" version="1.1"><path d="M 108.500 0.564 C 106.850 0.786, 101.675 1.460, 97 2.062 C 87.072 3.339, 72.425 7.018, 62.500 10.726 C 53.581 14.059, 36.945 22.397, 31.214 26.408 C 28.784 28.108, 26.054 29.950, 25.148 30.500 C 24.241 31.050, 23.275 31.725, 23 32 C 22.725 32.275, 20.250 34.279, 17.500 36.454 C 10.851 41.712, -0.092 52.242, 0.489 52.823 C 0.744 53.077, 1.525 52.811, 2.226 52.232 C 4.425 50.414, 15.537 47.999, 21.644 48.012 C 33.622 48.036, 43.081 52.081, 51.987 60.987 C 58.180 67.180, 62.238 74.513, 63.451 81.701 L 64.159 85.902 68.830 82.654 C 71.398 80.868, 75.941 78.369, 78.923 77.101 C 83.763 75.043, 85.539 74.840, 95.423 75.212 C 109.474 75.741, 115.352 78.281, 125.250 88.098 C 132.581 95.370, 133.138 97.012, 130.545 103.730 C 129.745 105.803, 126.137 115.600, 122.528 125.500 C 118.919 135.400, 115.125 145.750, 114.096 148.500 C 113.068 151.250, 111.237 156.200, 110.028 159.500 C 108.819 162.800, 107.007 167.525, 106 170 C 104.993 172.475, 103.266 176.975, 102.162 180 C 99.606 187.001, 95.305 198.472, 93.538 203 C 92.787 204.925, 90.334 211.338, 88.086 217.250 C 85.839 223.163, 82.146 232.838, 79.881 238.750 C 68.091 269.518, 67.564 271.125, 68.298 274.052 C 69.034 276.985, 73.717 280, 77.536 280 C 80.438 280, 87 274.081, 87 271.463 C 87 270.696, 87.659 268.590, 88.464 266.784 C 89.270 264.978, 91.027 260.575, 92.368 257 C 93.710 253.425, 96.615 245.775, 98.823 240 C 105.390 222.828, 109.015 213.105, 112.992 202 C 119.131 184.856, 126.062 165.887, 136.193 138.500 C 141.075 125.304, 146.073 111.691, 147.207 108.500 C 148.708 104.277, 149.022 104.051, 155.607 102.479 C 171.641 98.649, 186.951 102.892, 198.314 114.316 C 203.245 119.272, 208.998 129.692, 208.999 133.668 C 209.001 138.663, 209.962 139.125, 213.851 136 C 218.949 131.903, 229.040 128.014, 236.346 127.332 C 244.572 126.564, 256 129.467, 263.500 134.230 C 267.259 136.617, 275.897 145.893, 277.906 149.699 L 279.912 153.500 279.956 150.426 C 280.071 142.434, 274.434 116.858, 269.987 105.190 C 264.279 90.216, 253.704 71.571, 244.640 60.500 C 228.222 40.447, 211.454 27.291, 187.411 15.599 C 178.512 11.271, 178.303 11.089, 177.409 6.853 C 176.289 1.543, 174.384 0.965, 170.044 4.617 L 166.821 7.329 158.160 5.190 C 153.397 4.014, 146.125 2.565, 142 1.971 C 133.773 0.785, 113.251 -0.076, 108.500 0.564" stroke="none" fill="#549cbc" fill-rule="evenodd"/></svg>