 <svg  version="1.0" xmlns="http://www.w3.org/2000/svg"  width="300.000000pt" height="300.000000pt" viewBox="0 0 300.000000 300.000000"  preserveAspectRatio="xMidYMid meet">  <g transform="translate(0.000000,300.000000) scale(0.100000,-0.100000)" fill="#cc012b" stroke="none"> <path d="M1363 2990 c-357 -37 -668 -185 -918 -435 -222 -222 -367 -500 -420 -810 -33 -190 -20 -451 31 -636 l16 -57 76 33 c140 61 256 68 389 24 34 -11 121 -56 194 -99 138 -83 204 -106 256 -91 51 15 70 29 87 66 18 36 131 559 211 973 52 267 75 330 134 369 46 31 116 31 162 0 63 -43 76 -81 159 -495 167 -827 180 -878 237 -900 83 -33 128 -21 292 78 190 114 298 144 437 121 39 -7 105 -27 146 -45 l76 -33 16 56 c51 185 64 447 31 636 -53 310 -198 588 -420 810 -272 272 -615 422 -1005 439 -58 2 -142 1 -187 -4z"/> <path d="M1472 1618 c-84 -412 -145 -677 -167 -726 -68 -148 -185 -223 -350 -223 -105 -1 -180 24 -315 106 -180 108 -185 110 -275 110 -66 0 -90 -5 -137 -27 -32 -15 -58 -30 -58 -33 0 -15 48 -98 104 -180 78 -115 255 -293 371 -371 527 -359 1183 -359 1710 -1 116 79 293 257 371 372 56 82 104 165 104 180 0 3 -26 18 -57 33 -48 22 -72 27 -138 27 -90 0 -101 -5 -268 -107 -131 -81 -216 -110 -321 -110 -175 1 -304 91 -364 255 -11 28 -55 222 -98 430 -43 207 -81 377 -84 377 -3 0 -16 -51 -28 -112z"/> </g> </svg> 