<svg xmlns="http://www.w3.org/2000/svg" width="400" height="400" viewBox="0 0 400 400" version="1.1"><path d="M 306.324 48.638 C 301.051 50.506, 293.725 56.906, 290.437 62.518 C 285.855 70.337, 285.501 83.266, 289.650 91.290 C 296.305 104.159, 312.037 110.747, 326.249 106.616 C 333.604 104.478, 341.827 97.110, 345.051 89.770 C 348.242 82.502, 348.242 72.498, 345.051 65.230 C 342.149 58.622, 333.839 50.815, 327.357 48.606 C 321.581 46.638, 311.927 46.652, 306.324 48.638" stroke="none" fill="#fc2c2c" fill-rule="evenodd"/><path d="M 187 31.060 C 126.996 35.467, 73.124 72.474, 46.991 127.241 C 25.551 172.171, 25.229 226.061, 46.132 271.051 C 48.419 275.973, 50.612 280, 51.006 280 C 51.400 280, 54.373 276.521, 57.611 272.269 C 79.532 243.489, 100.845 221.171, 111.347 216.001 C 116.837 213.298, 118 212.275, 118.576 209.640 C 120.161 202.396, 126.534 184.794, 131.014 175.286 C 143.780 148.192, 160.316 130.838, 180 123.877 C 188.608 120.833, 206.170 120.606, 216 123.411 C 224.512 125.840, 239.072 132.656, 247.771 138.283 L 254.715 142.775 273.279 143.143 C 283.490 143.345, 292.168 143.835, 292.564 144.231 C 294.655 146.322, 284.686 152.030, 265.054 159.982 L 253.609 164.619 250.736 171.560 C 246.447 181.921, 241.087 201.198, 239.352 212.500 C 237.374 225.389, 238.036 237.675, 241.392 250.359 C 244.440 261.884, 244.728 270.939, 242.431 283.049 C 237.165 310.811, 217.597 341.581, 191.816 362.642 L 184.645 368.500 191.572 369.099 C 201.357 369.945, 221.963 368.453, 233.790 366.043 C 300.331 352.483, 352.492 300.283, 366.068 233.668 C 374.044 194.527, 366.896 149.513, 347.427 116.286 L 344.957 112.071 340.229 115.076 C 331.888 120.376, 319.856 122.814, 310.544 121.093 C 287.471 116.827, 272.782 97.999, 274.244 74.563 C 274.737 66.665, 276.453 61.477, 281.734 51.914 C 282.271 50.941, 262.956 42.253, 253.077 39.025 C 232.289 32.232, 209.102 29.437, 187 31.060" stroke="none" fill="#3bd47c" fill-rule="evenodd"/></svg>