<svg xmlns="http://www.w3.org/2000/svg" width="192" height="167" viewBox="0 0 192 167" version="1.1"><path d="" stroke="none" fill="#33242c" fill-rule="evenodd"/><path d="M 89.941 32.250 C 79.041 47.713, 72.438 60.959, 67.383 77.500 C 64.903 85.616, 64.628 88.023, 64.582 102 C 64.537 115.949, 64.764 118.079, 66.850 123.282 C 71.511 134.910, 78.929 141.742, 89.961 144.569 C 96.913 146.350, 101.982 145.892, 109 142.851 C 132.226 132.787, 135.668 93.063, 116.595 55.189 C 109.820 41.735, 98.614 25, 96.381 25 C 95.650 25, 92.752 28.262, 89.941 32.250 M 24.509 46.985 C 24.174 47.527, 24.397 51.689, 25.003 56.235 C 28.071 79.241, 35.922 101.176, 46.933 117.500 C 50.869 123.335, 64.619 138, 66.155 138 C 66.575 138, 65.399 134.963, 63.540 131.250 C 58.995 122.168, 57.559 114.709, 57.718 101 C 57.865 88.254, 60.402 76.292, 65.791 62.936 C 67.441 58.846, 68.500 55.204, 68.145 54.843 C 67.092 53.772, 54.241 50.253, 43.343 48.051 C 32.309 45.823, 25.467 45.436, 24.509 46.985 M 147.500 48.450 C 132.162 51.745, 124.462 54.314, 124.670 56.066 C 124.764 56.855, 126.417 61.810, 128.344 67.078 C 133.191 80.328, 135.003 90.047, 134.985 102.708 C 134.968 115.198, 133.191 123.908, 128.963 132.228 C 126.535 137.008, 126.326 137.896, 127.819 137.097 C 130.384 135.724, 142.145 123.105, 145.739 117.869 C 156.658 101.962, 167.189 71.088, 168.207 52 L 168.500 46.500 163.500 46.293 C 160.750 46.179, 153.550 47.150, 147.500 48.450" stroke="none" fill="#c42ceb" fill-rule="evenodd"/></svg>