<svg xmlns="http://www.w3.org/2000/svg" width="225" height="225" viewBox="0 0 225 225" version="1.1"><path d="M 0 112.500 L 0 225 56.250 224.970 C 98.851 224.947, 112.015 224.663, 110.500 223.800 C 109.400 223.173, 99.378 217.388, 88.230 210.943 L 67.960 199.225 74.730 197.639 C 98.642 192.035, 122.052 191.690, 145.795 196.592 C 150.033 197.467, 154.109 198.523, 154.853 198.938 C 155.746 199.438, 148.894 203.902, 134.653 212.097 L 113.101 224.500 168.300 224.760 C 198.660 224.903, 224.063 224.804, 224.750 224.541 C 225.740 224.162, 226 200.735, 226 112.031 L 226 0 169.250 0.028 L 112.500 0.057 120.645 4.743 L 128.790 9.429 129.452 15.465 C 132.074 39.376, 142.439 69.049, 156.030 91.550 C 167.495 110.530, 184.859 130.365, 201.750 143.774 L 210 150.323 210 159.555 L 210 168.787 201.902 173.375 L 193.804 177.963 186.652 174.918 C 142.240 156.009, 85.609 155.976, 38.816 174.831 L 31.132 177.927 23.066 173.357 L 15 168.787 15 159.514 L 15 150.240 20.676 145.955 C 48.389 125.032, 72.639 92.015, 85.276 58 C 89.549 46.501, 93.567 30.665, 95.301 18.500 L 96.583 9.500 104.541 4.754 L 112.500 0.008 56.250 0.004 L 0 0 0 112.500 M 0.483 113 C 0.483 174.875, 0.603 200.188, 0.750 169.250 C 0.897 138.313, 0.897 87.688, 0.750 56.750 C 0.603 25.813, 0.483 51.125, 0.483 113 M 36.750 43.719 L 15 56.227 15 81.822 L 15 107.416 19.592 102.958 C 27.380 95.398, 39.560 78.303, 45.840 66.117 C 51.681 54.784, 59.356 34.800, 58.785 32.408 C 58.619 31.712, 49.407 36.441, 36.750 43.719 M 166.485 34.055 C 167.653 39.572, 173.924 55.847, 178.062 64.102 C 183.672 75.291, 194.838 91.454, 202.863 100 L 209.905 107.500 209.953 81.886 L 210 56.272 190.250 44.950 C 179.387 38.722, 169.432 32.948, 168.128 32.118 C 165.765 30.616, 165.758 30.624, 166.485 34.055 M 108.559 86.433 C 104.111 96.415, 94.211 113.306, 87.082 123.078 L 81.997 130.047 90.248 129.274 C 100.860 128.279, 124.152 128.280, 134.780 129.276 L 143.060 130.052 138.153 123.276 C 130.975 113.364, 125.458 104.024, 118.825 90.554 C 115.589 83.984, 112.802 78.469, 112.632 78.298 C 112.461 78.128, 110.628 81.788, 108.559 86.433" stroke="none" fill="#fbfafa" fill-rule="evenodd"/><path d="M 104.489 4.790 L 96.583 9.500 95.301 18.500 C 88.276 67.806, 59.826 116.396, 20.676 145.955 L 15 150.240 15 159.514 L 15 168.787 23.066 173.357 L 31.132 177.927 38.816 174.831 C 85.609 155.976, 142.240 156.009, 186.652 174.918 L 193.804 177.963 201.902 173.375 L 210 168.787 210 159.555 L 210 150.323 201.750 143.774 C 184.859 130.365, 167.495 110.530, 156.030 91.550 C 142.437 69.046, 132.074 39.377, 129.451 15.458 C 128.888 10.320, 128.393 9.190, 126.144 7.911 C 124.690 7.083, 121.002 4.983, 117.948 3.243 L 112.396 0.080 104.489 4.790 M 36.750 43.719 L 15 56.227 15 81.822 L 15 107.416 19.592 102.958 C 27.380 95.398, 39.560 78.303, 45.840 66.117 C 51.681 54.784, 59.356 34.800, 58.785 32.408 C 58.619 31.712, 49.407 36.441, 36.750 43.719 M 166.485 34.055 C 167.653 39.572, 173.924 55.847, 178.062 64.102 C 183.672 75.291, 194.838 91.454, 202.863 100 L 209.905 107.500 209.953 81.886 L 210 56.272 190.250 44.950 C 179.387 38.722, 169.432 32.948, 168.128 32.118 C 165.765 30.616, 165.758 30.624, 166.485 34.055 M 108.559 86.433 C 104.111 96.415, 94.211 113.306, 87.082 123.078 L 81.997 130.047 90.248 129.274 C 100.860 128.279, 124.152 128.280, 134.780 129.276 L 143.060 130.052 138.153 123.276 C 130.975 113.364, 125.458 104.024, 118.825 90.554 C 115.589 83.984, 112.802 78.469, 112.632 78.298 C 112.461 78.128, 110.628 81.788, 108.559 86.433 M 98.500 193.647 C 89.941 194.640, 79.817 196.334, 74.236 197.708 L 67.972 199.250 90.204 212.095 L 112.436 224.941 115.468 223.161 C 117.135 222.182, 126.983 216.501, 137.351 210.537 C 149.824 203.362, 155.745 199.437, 154.851 198.938 C 152.742 197.759, 139.332 195.174, 129.459 194.043 C 121.025 193.077, 105.171 192.874, 98.500 193.647" stroke="none" fill="#f35323" fill-rule="evenodd"/></svg>