<svg xmlns="http://www.w3.org/2000/svg" width="225" height="225" viewBox="0 0 225 225" version="1.1"><path d="M 100.831 35.955 C 69.801 41.647, 45.802 63.267, 37.828 92.713 C 34.782 103.963, 34.795 121.590, 37.858 132.443 C 45.439 159.303, 65.673 179.504, 92.709 187.202 C 103.700 190.332, 121.300 190.332, 132.291 187.202 C 159.329 179.503, 179.577 159.287, 187.137 132.443 C 190.302 121.204, 190.333 103.666, 187.207 92.709 C 179.546 65.863, 159.287 45.436, 132.973 38.026 C 124.606 35.670, 108.159 34.610, 100.831 35.955 M 103.324 43.439 C 91.453 47.151, 84.223 55.787, 79.114 72.355 C 75.783 83.158, 75.863 83.322, 83.036 80.407 C 93.188 76.282, 101.624 74.725, 113.500 74.783 C 134.506 74.887, 152.446 82.519, 167.229 97.640 C 170.380 100.863, 173.657 104.400, 174.511 105.500 C 175.892 107.279, 175.889 107.058, 174.482 103.500 C 170.037 92.258, 156.049 76.608, 144.582 70.047 C 141.397 68.225, 135.801 65.678, 132.146 64.388 C 128.491 63.098, 126.089 62.033, 126.809 62.021 C 127.529 62.009, 127.864 61.588, 127.553 61.085 C 127.242 60.582, 127.553 59.942, 128.244 59.662 C 129.196 59.276, 129.137 58.884, 128 58.046 C 126.837 57.187, 127.173 57.089, 129.500 57.608 C 141.008 60.172, 155.493 68.363, 164.565 77.435 C 170.555 83.425, 177.945 94.342, 180.940 101.625 L 182.944 106.500 182.356 102 C 179.565 80.632, 164.086 59.559, 143.840 49.566 C 129.661 42.567, 113.789 40.167, 103.324 43.439 M 61.735 63.882 C 41.255 85.318, 36.214 116.186, 48.879 142.597 C 56.007 157.464, 64.681 163.225, 79.792 163.130 C 87.119 163.084, 103.153 160.181, 104.716 158.617 C 104.924 158.409, 102.863 156.602, 100.137 154.601 C 78.771 138.916, 66.362 110.109, 69.812 84.200 C 70.456 79.360, 72.108 72.047, 73.483 67.950 C 75.777 61.110, 75.818 60.705, 73.972 63 C 69.948 68.003, 62.930 83.615, 61.386 91 C 59.966 97.790, 59.899 111.026, 61.223 123 C 61.429 124.860, 61.052 125.464, 59.750 125.361 C 58.763 125.283, 57.969 125.937, 57.930 126.861 C 57.891 127.763, 57.156 126.700, 56.297 124.500 C 53.813 118.140, 53.340 96.624, 55.487 87.688 C 57.574 79.007, 62.709 67.535, 67.485 60.888 C 69.416 58.200, 70.607 56, 70.131 56 C 69.655 56, 65.877 59.547, 61.735 63.882 M 100.763 81.967 C 94.417 83.124, 86.538 85.757, 80.750 88.655 L 76 91.034 76 96.357 C 76 108.493, 82.675 126.134, 91.470 137.242 C 95.860 142.786, 103.724 149.643, 109.808 153.230 L 112.742 154.961 119.787 150.013 C 136.230 138.466, 147.288 118.910, 148.725 98.836 L 149.274 91.173 144.387 88.700 C 132.184 82.526, 113.508 79.644, 100.763 81.967 M 155.521 100.500 C 152.682 121.065, 144.931 136.420, 130.764 149.547 C 120.399 159.152, 107.878 165.665, 94.336 168.499 C 90.742 169.251, 87.545 170.121, 87.234 170.433 C 86.016 171.651, 105.272 170.916, 112.185 169.481 C 121.484 167.550, 133.610 161.766, 142.215 155.157 C 148.671 150.197, 148.972 150.078, 150.034 152.064 C 150.940 153.756, 151.443 153.917, 152.820 152.954 C 153.744 152.308, 151.801 154.339, 148.502 157.468 C 133.886 171.329, 111.976 179.159, 92 177.658 C 84.574 177.100, 84.534 177.110, 87.998 178.652 C 93.729 181.202, 103.939 182.964, 113.090 182.983 C 139.038 183.035, 164.368 167.459, 174.860 145 C 176.896 140.642, 177.434 137.932, 177.451 131.952 C 177.471 125.413, 177.034 123.511, 174.184 117.722 C 172.138 113.566, 168.117 108.100, 163.552 103.269 L 156.211 95.500 155.521 100.500" stroke="none" fill="#ecf1fb" fill-rule="evenodd"/><path d="M -0 112.504 L -0 225.009 112.750 224.754 L 225.500 224.500 225.754 112.250 L 226.009 0 113.004 0 L 0 0 -0 112.504 M 0.483 113 C 0.483 174.875, 0.603 200.188, 0.750 169.250 C 0.897 138.313, 0.897 87.688, 0.750 56.750 C 0.603 25.813, 0.483 51.125, 0.483 113 M 100.831 35.955 C 69.801 41.647, 45.802 63.267, 37.828 92.713 C 34.782 103.963, 34.795 121.590, 37.858 132.443 C 45.439 159.303, 65.673 179.504, 92.709 187.202 C 103.700 190.332, 121.300 190.332, 132.291 187.202 C 159.329 179.503, 179.577 159.287, 187.137 132.443 C 190.302 121.204, 190.333 103.666, 187.207 92.709 C 179.546 65.863, 159.287 45.436, 132.973 38.026 C 124.606 35.670, 108.159 34.610, 100.831 35.955 M 103.324 43.439 C 91.453 47.151, 84.223 55.787, 79.114 72.355 C 75.783 83.158, 75.863 83.322, 83.036 80.407 C 93.188 76.282, 101.624 74.725, 113.500 74.783 C 134.506 74.887, 152.446 82.519, 167.229 97.640 C 170.380 100.863, 173.657 104.400, 174.511 105.500 C 175.892 107.279, 175.889 107.058, 174.482 103.500 C 170.037 92.258, 156.049 76.608, 144.582 70.047 C 141.397 68.225, 135.801 65.678, 132.146 64.388 C 128.491 63.098, 126.089 62.033, 126.809 62.021 C 127.529 62.009, 127.864 61.588, 127.553 61.085 C 127.242 60.582, 127.553 59.942, 128.244 59.662 C 129.196 59.276, 129.137 58.884, 128 58.046 C 126.837 57.187, 127.173 57.089, 129.500 57.608 C 141.008 60.172, 155.493 68.363, 164.565 77.435 C 170.555 83.425, 177.945 94.342, 180.940 101.625 L 182.944 106.500 182.356 102 C 179.565 80.632, 164.086 59.559, 143.840 49.566 C 129.661 42.567, 113.789 40.167, 103.324 43.439 M 61.735 63.882 C 41.255 85.318, 36.214 116.186, 48.879 142.597 C 56.007 157.464, 64.681 163.225, 79.792 163.130 C 87.119 163.084, 103.153 160.181, 104.716 158.617 C 104.924 158.409, 102.863 156.602, 100.137 154.601 C 78.771 138.916, 66.362 110.109, 69.812 84.200 C 70.456 79.360, 72.108 72.047, 73.483 67.950 C 75.777 61.110, 75.818 60.705, 73.972 63 C 69.948 68.003, 62.930 83.615, 61.386 91 C 59.966 97.790, 59.899 111.026, 61.223 123 C 61.429 124.860, 61.052 125.464, 59.750 125.361 C 58.763 125.283, 57.969 125.937, 57.930 126.861 C 57.891 127.763, 57.156 126.700, 56.297 124.500 C 53.813 118.140, 53.340 96.624, 55.487 87.688 C 57.574 79.007, 62.709 67.535, 67.485 60.888 C 69.416 58.200, 70.607 56, 70.131 56 C 69.655 56, 65.877 59.547, 61.735 63.882 M 100.763 81.967 C 94.417 83.124, 86.538 85.757, 80.750 88.655 L 76 91.034 76 96.357 C 76 108.493, 82.675 126.134, 91.470 137.242 C 95.860 142.786, 103.724 149.643, 109.808 153.230 L 112.742 154.961 119.787 150.013 C 136.230 138.466, 147.288 118.910, 148.725 98.836 L 149.274 91.173 144.387 88.700 C 132.184 82.526, 113.508 79.644, 100.763 81.967 M 155.521 100.500 C 152.682 121.065, 144.931 136.420, 130.764 149.547 C 120.399 159.152, 107.878 165.665, 94.336 168.499 C 90.742 169.251, 87.545 170.121, 87.234 170.433 C 86.016 171.651, 105.272 170.916, 112.185 169.481 C 121.484 167.550, 133.610 161.766, 142.215 155.157 C 148.671 150.197, 148.972 150.078, 150.034 152.064 C 150.940 153.756, 151.443 153.917, 152.820 152.954 C 153.744 152.308, 151.801 154.339, 148.502 157.468 C 133.886 171.329, 111.976 179.159, 92 177.658 C 84.574 177.100, 84.534 177.110, 87.998 178.652 C 93.729 181.202, 103.939 182.964, 113.090 182.983 C 139.038 183.035, 164.368 167.459, 174.860 145 C 176.896 140.642, 177.434 137.932, 177.451 131.952 C 177.471 125.413, 177.034 123.511, 174.184 117.722 C 172.138 113.566, 168.117 108.100, 163.552 103.269 L 156.211 95.500 155.521 100.500" stroke="none" fill="#1555fc" fill-rule="evenodd"/></svg>