<svg xmlns="http://www.w3.org/2000/svg" width="200" height="200" viewBox="0 0 200 200" version="1.1"><path d="M 92.102 51.153 C 72.408 53.997, 55.186 70.231, 51.105 89.799 C 47.724 106.012, 52.709 122.615, 64.513 134.464 C 74.528 144.517, 85.482 149, 100.029 149 C 113.377 149, 124.457 144.325, 134.199 134.584 C 137.149 131.634, 140.814 126.921, 142.343 124.110 L 145.125 119 137.628 119 L 130.130 119 124.815 124.289 C 116.603 132.460, 111.603 134.475, 99.500 134.488 C 90.014 134.499, 89.178 134.325, 83.232 131.101 C 75.732 127.034, 70.703 121.728, 67.135 114.120 C 64.936 109.429, 64.500 107.094, 64.500 100 C 64.500 92.906, 64.936 90.571, 67.135 85.880 C 72.290 74.887, 80.552 68.235, 92.491 65.466 C 107.643 61.952, 123.743 69.792, 130.936 84.189 C 135.051 92.423, 134.955 93, 129.464 93 C 125.841 93, 124.483 92.485, 122.714 90.440 C 112.390 78.506, 108.233 76, 98.756 76 C 90.443 76, 81.843 81.467, 77.853 89.288 C 74.761 95.349, 75.020 105.653, 78.411 111.438 C 87.917 127.659, 108.114 128.299, 119.815 112.750 L 124.141 107 136.052 107 L 147.962 107 148.634 104.321 C 149.916 99.216, 147.453 86.487, 143.624 78.424 C 137.151 64.793, 122.092 53.256, 108.500 51.513 C 105.750 51.160, 102.375 50.727, 101 50.550 C 99.625 50.373, 95.621 50.644, 92.102 51.153 M 93.195 92.489 C 89.659 95.464, 88.709 99.368, 90.485 103.619 C 94.126 112.332, 105.281 111.979, 108.986 103.034 C 109.995 100.598, 109.995 99.402, 108.986 96.966 C 106.118 90.042, 98.627 87.919, 93.195 92.489" stroke="none" fill="#082d40" fill-rule="evenodd"/><path d="M 84 1.481 C 71.242 3.652, 54.581 10.093, 45.561 16.340 C 32.081 25.676, 18 40.817, 18 45.976 C 18 48.945, 22.376 53, 25.580 53 C 27.548 53, 29.465 51.620, 32.870 47.750 C 42.832 36.427, 51.523 29.321, 61.800 24.095 C 69.753 20.051, 83.804 16.061, 92.275 15.441 C 102.527 14.691, 105.514 13.588, 106.998 10.005 C 108.270 6.933, 107.176 3.654, 104.087 1.282 C 102.086 -0.254, 93.709 -0.171, 84 1.481 M 87.575 25.991 C 77.342 27.847, 65.526 32.790, 56.533 38.977 C 51.356 42.539, 39.407 55.141, 38.502 57.994 C 37.503 61.141, 39.751 65.654, 42.983 66.993 C 45.266 67.939, 46.378 67.856, 48.897 66.553 C 50.604 65.671, 52 64.587, 52 64.144 C 52 62.615, 62.485 52.751, 67.483 49.579 C 77.740 43.068, 88.123 40.013, 100.020 40.006 C 116.657 39.995, 130.809 45.862, 142.634 57.674 C 153.413 68.441, 159.961 83.013, 159.988 96.295 C 159.998 101.106, 160.417 102.508, 162.455 104.545 C 165.552 107.643, 170.220 107.780, 173.139 104.861 C 175.097 102.903, 175.229 101.995, 174.703 94.111 C 172.690 63.983, 152.408 38.457, 122.549 28.474 C 113.726 25.524, 96.783 24.321, 87.575 25.991 M 93.250 50.689 C 94.213 50.941, 95.787 50.941, 96.750 50.689 C 97.713 50.438, 96.925 50.232, 95 50.232 C 93.075 50.232, 92.287 50.438, 93.250 50.689 M 102.250 50.689 C 103.213 50.941, 104.787 50.941, 105.750 50.689 C 106.713 50.438, 105.925 50.232, 104 50.232 C 102.075 50.232, 101.287 50.438, 102.250 50.689 M 87.813 51.683 C 88.534 51.972, 89.397 51.936, 89.729 51.604 C 90.061 51.272, 89.471 51.036, 88.417 51.079 C 87.252 51.127, 87.015 51.364, 87.813 51.683 M 109.813 51.683 C 110.534 51.972, 111.397 51.936, 111.729 51.604 C 112.061 51.272, 111.471 51.036, 110.417 51.079 C 109.252 51.127, 109.015 51.364, 109.813 51.683 M 128 59.378 C 128 59.585, 128.787 60.373, 129.750 61.128 C 131.336 62.371, 131.371 62.336, 130.128 60.750 C 128.821 59.084, 128 58.555, 128 59.378 M 63.924 64.750 L 61.500 67.500 64.250 65.076 C 66.820 62.810, 67.459 62, 66.674 62 C 66.495 62, 65.258 63.237, 63.924 64.750 M 134.500 65 C 135.495 66.100, 136.535 67, 136.810 67 C 137.085 67, 136.495 66.100, 135.500 65 C 134.505 63.900, 133.465 63, 133.190 63 C 132.915 63, 133.505 63.900, 134.500 65 M 98.269 64.693 C 99.242 64.947, 100.592 64.930, 101.269 64.656 C 101.946 64.382, 101.150 64.175, 99.500 64.195 C 97.850 64.215, 97.296 64.439, 98.269 64.693 M 105.813 65.683 C 106.534 65.972, 107.397 65.936, 107.729 65.604 C 108.061 65.272, 107.471 65.036, 106.417 65.079 C 105.252 65.127, 105.015 65.364, 105.813 65.683 M 58.872 70.750 C 57.629 72.336, 57.664 72.371, 59.250 71.128 C 60.916 69.821, 61.445 69, 60.622 69 C 60.415 69, 59.627 69.787, 58.872 70.750 M 74.453 75.250 L 70.500 79.500 74.750 75.547 C 78.702 71.871, 79.460 71, 78.703 71 C 78.540 71, 76.627 72.912, 74.453 75.250 M 124 75.500 C 125.866 77.425, 127.617 79, 127.892 79 C 128.167 79, 126.866 77.425, 125 75.500 C 123.134 73.575, 121.383 72, 121.108 72 C 120.833 72, 122.134 73.575, 124 75.500 M 97.762 75.707 C 99.006 75.946, 100.806 75.937, 101.762 75.687 C 102.718 75.437, 101.700 75.241, 99.500 75.252 C 97.300 75.263, 96.518 75.468, 97.762 75.707 M 143.080 77 C 144.538 80.061, 145 80.628, 145 79.358 C 145 78.821, 144.300 77.509, 143.445 76.441 C 141.978 74.611, 141.958 74.643, 143.080 77 M 81.437 83.250 L 78.500 86.500 81.750 83.563 C 83.537 81.948, 85 80.485, 85 80.313 C 85 79.540, 84.175 80.221, 81.437 83.250 M 116 82.500 C 117.292 83.875, 118.574 85, 118.849 85 C 119.124 85, 118.292 83.875, 117 82.500 C 115.708 81.125, 114.426 80, 114.151 80 C 113.876 80, 114.708 81.125, 116 82.500 M 121 89.378 C 121 89.585, 121.787 90.373, 122.750 91.128 C 124.336 92.371, 124.371 92.336, 123.128 90.750 C 121.821 89.084, 121 88.555, 121 89.378 M 50.079 91.583 C 50.127 92.748, 50.364 92.985, 50.683 92.188 C 50.972 91.466, 50.936 90.603, 50.604 90.271 C 50.272 89.939, 50.036 90.529, 50.079 91.583 M 133 90.943 C 133 91.461, 131.088 92.057, 128.750 92.268 L 124.500 92.651 129.250 92.825 C 132.883 92.959, 134 92.647, 134 91.500 C 134 90.675, 133.775 90, 133.500 90 C 133.225 90, 133 90.424, 133 90.943 M 148.158 93 C 148.158 94.375, 148.385 94.938, 148.662 94.250 C 148.940 93.563, 148.940 92.438, 148.662 91.750 C 148.385 91.063, 148.158 91.625, 148.158 93 M 26.980 95.750 C 25.030 98.226, 24.883 99.235, 25.504 105.868 C 27.222 124.242, 34.065 138.969, 46.964 152.052 C 61.386 166.680, 75.890 173.365, 96.020 174.661 C 113.288 175.773, 129.657 170.898, 144.463 160.235 C 153.224 153.925, 162 143.926, 162 140.254 C 162 138.964, 160.895 136.805, 159.545 135.455 C 155.321 131.230, 152.863 132.130, 143.716 141.250 C 134.434 150.504, 127.295 154.803, 116.013 157.929 C 79.803 167.963, 43.275 142.088, 40.287 104.287 C 39.612 95.746, 37.725 93, 32.534 93 C 30.029 93, 28.581 93.717, 26.980 95.750 M 64.320 100 C 64.320 103.575, 64.502 105.037, 64.723 103.250 C 64.945 101.463, 64.945 98.537, 64.723 96.750 C 64.502 94.963, 64.320 96.425, 64.320 100 M 75.195 96.500 C 75.215 98.150, 75.439 98.704, 75.693 97.731 C 75.947 96.758, 75.930 95.408, 75.656 94.731 C 75.382 94.054, 75.175 94.850, 75.195 96.500 M 109.158 100 C 109.158 101.375, 109.385 101.938, 109.662 101.250 C 109.940 100.563, 109.940 99.438, 109.662 98.750 C 109.385 98.063, 109.158 98.625, 109.158 100 M 75.195 103.500 C 75.215 105.150, 75.439 105.704, 75.693 104.731 C 75.947 103.758, 75.930 102.408, 75.656 101.731 C 75.382 101.054, 75.175 101.850, 75.195 103.500 M 92.500 107 C 93.495 108.100, 94.535 109, 94.810 109 C 95.085 109, 94.495 108.100, 93.500 107 C 92.505 105.900, 91.465 105, 91.190 105 C 90.915 105, 91.505 105.900, 92.500 107 M 105.405 107.250 L 103.500 109.500 105.750 107.595 C 106.987 106.547, 108 105.535, 108 105.345 C 108 104.545, 107.195 105.136, 105.405 107.250 M 148 105.833 C 148 106.657, 144.513 107, 136.155 107 C 125.102 107, 124.183 107.151, 122.405 109.250 C 120.502 111.498, 120.502 111.498, 122.579 109.750 C 124.297 108.303, 126.669 108, 136.270 108 C 146.901 108, 150.529 107.196, 148.600 105.267 C 148.270 104.937, 148 105.192, 148 105.833 M 50.079 108.583 C 50.127 109.748, 50.364 109.985, 50.683 109.188 C 50.972 108.466, 50.936 107.603, 50.604 107.271 C 50.272 106.939, 50.036 107.529, 50.079 108.583 M 65.079 108.583 C 65.127 109.748, 65.364 109.985, 65.683 109.188 C 65.972 108.466, 65.936 107.603, 65.604 107.271 C 65.272 106.939, 65.036 107.529, 65.079 108.583 M 97.762 109.707 C 99.006 109.946, 100.806 109.937, 101.762 109.687 C 102.718 109.437, 101.700 109.241, 99.500 109.252 C 97.300 109.263, 96.518 109.468, 97.762 109.707 M 82 117.500 C 83.292 118.875, 84.574 120, 84.849 120 C 85.124 120, 84.292 118.875, 83 117.500 C 81.708 116.125, 80.426 115, 80.151 115 C 79.876 115, 80.708 116.125, 82 117.500 M 116.405 117.250 L 114.500 119.500 116.750 117.595 C 117.987 116.547, 119 115.535, 119 115.345 C 119 114.545, 118.195 115.136, 116.405 117.250 M 128.652 118.750 C 128.395 119.162, 130.956 119.374, 134.343 119.220 C 144.695 118.750, 145.921 118.307, 137.309 118.150 C 132.804 118.067, 128.908 118.338, 128.652 118.750 M 111 121 C 110.099 121.582, 109.975 121.975, 110.691 121.985 C 111.346 121.993, 112.160 121.550, 112.500 121 C 113.267 119.758, 112.921 119.758, 111 121 M 55 123 C 55.589 124.100, 56.295 125, 56.570 125 C 56.845 125, 56.589 124.100, 56 123 C 55.411 121.900, 54.705 121, 54.430 121 C 54.155 121, 54.411 121.900, 55 123 M 74 124.500 C 75.866 126.425, 77.617 128, 77.892 128 C 78.167 128, 76.866 126.425, 75 124.500 C 73.134 122.575, 71.383 121, 71.108 121 C 70.833 121, 72.134 122.575, 74 124.500 M 123.946 124.750 L 120.500 128.500 124.250 125.054 C 126.313 123.158, 128 121.471, 128 121.304 C 128 120.540, 127.154 121.260, 123.946 124.750 M 98.813 124.683 C 99.534 124.972, 100.397 124.936, 100.729 124.604 C 101.061 124.272, 100.471 124.036, 99.417 124.079 C 98.252 124.127, 98.015 124.364, 98.813 124.683 M 137.405 131.250 L 135.500 133.500 137.750 131.595 C 139.864 129.805, 140.455 129, 139.655 129 C 139.465 129, 138.453 130.012, 137.405 131.250 M 115 131 C 114.099 131.582, 113.975 131.975, 114.691 131.985 C 115.346 131.993, 116.160 131.550, 116.500 131 C 117.267 129.758, 116.921 129.758, 115 131 M 92.750 134.662 C 93.438 134.940, 94.563 134.940, 95.250 134.662 C 95.938 134.385, 95.375 134.158, 94 134.158 C 92.625 134.158, 92.063 134.385, 92.750 134.662 M 104.813 134.683 C 105.534 134.972, 106.397 134.936, 106.729 134.604 C 107.061 134.272, 106.471 134.036, 105.417 134.079 C 104.252 134.127, 104.015 134.364, 104.813 134.683 M 130.405 138.250 L 128.500 140.500 130.750 138.595 C 132.864 136.805, 133.455 136, 132.655 136 C 132.465 136, 131.453 137.012, 130.405 138.250 M 68 138.378 C 68 138.585, 68.787 139.373, 69.750 140.128 C 71.336 141.371, 71.371 141.336, 70.128 139.750 C 68.821 138.084, 68 137.555, 68 138.378 M 88.813 148.683 C 89.534 148.972, 90.397 148.936, 90.729 148.604 C 91.061 148.272, 90.471 148.036, 89.417 148.079 C 88.252 148.127, 88.015 148.364, 88.813 148.683 M 164.607 155.417 C 148.922 172.942, 128.821 183.073, 106.540 184.682 C 99.045 185.223, 97.205 185.704, 95.290 187.619 C 90.063 192.846, 94.166 200.004, 102.385 199.996 C 108.777 199.990, 124.368 197.213, 131.265 194.853 C 138.784 192.280, 149.856 186.843, 156 182.707 C 168.396 174.362, 182 159.862, 182 154.994 C 182 151.206, 178.600 148, 174.584 148 C 171.696 148, 170.349 149.001, 164.607 155.417 M 95.728 149.722 C 97.503 149.943, 100.653 149.946, 102.728 149.730 C 104.802 149.513, 103.350 149.333, 99.500 149.328 C 95.650 149.324, 93.952 149.501, 95.728 149.722" stroke="none" fill="#1e6d97" fill-rule="evenodd"/></svg>