<svg xmlns="http://www.w3.org/2000/svg" width="409" height="437" viewBox="0 0 409 437" version="1.1"><path d="M 191 95.500 L 191 144 205 144 L 219 144 219 95.500 L 219 47 205 47 L 191 47 191 95.500 M 77.008 128.138 L 52.762 146.151 70.131 158.974 C 79.684 166.027, 107.300 186.386, 131.500 204.216 L 175.500 236.635 175.757 308.317 L 176.013 380 205.007 380 L 234 380 234.061 308.250 L 234.121 236.500 283.160 200.500 C 310.132 180.700, 337.788 160.380, 344.620 155.344 L 357.040 146.188 332.771 128.178 C 319.174 118.089, 308.061 110.506, 307.501 110.937 C 298.553 117.802, 206.390 185.297, 205.495 185.640 C 204.809 185.904, 183.380 170.718, 157.874 151.896 C 132.368 133.073, 109.195 115.974, 106.377 113.898 L 101.253 110.124 77.008 128.138 M 104.996 277.820 C 90.419 288.644, 73.199 301.389, 66.730 306.141 L 54.966 314.783 63.567 326.390 C 71.218 336.715, 72.361 337.859, 73.924 336.748 C 74.890 336.062, 92.395 323.173, 112.822 308.108 L 149.964 280.715 146.902 276.608 C 145.218 274.348, 141.514 269.260, 138.670 265.301 C 135.827 261.341, 133.050 258.110, 132.500 258.121 C 131.950 258.132, 119.573 266.996, 104.996 277.820 M 269 268.177 C 264.875 273.779, 261.159 278.921, 260.743 279.605 C 260.224 280.457, 271.964 289.686, 298.076 308.952 C 319.026 324.409, 336.558 337.156, 337.037 337.278 C 337.898 337.498, 354 316.317, 354 314.964 C 354 314.208, 279.831 259.251, 277.750 258.465 C 277.029 258.192, 273.327 262.302, 269 268.177" stroke="none" fill="#fafbfb" fill-rule="evenodd"/><path d="M 0 218.502 L 0 437.005 204.750 436.752 L 409.500 436.500 409.752 218.250 L 410.005 0 205.002 0 L 0 0 0 218.502 M 0.491 219 C 0.491 339.175, 0.608 388.337, 0.750 328.250 C 0.892 268.163, 0.892 169.838, 0.750 109.750 C 0.608 49.662, 0.491 98.825, 0.491 219 M 191 95.500 L 191 144 205 144 L 219 144 219 95.500 L 219 47 205 47 L 191 47 191 95.500 M 77.008 128.138 L 52.762 146.151 70.131 158.974 C 79.684 166.027, 107.300 186.386, 131.500 204.216 L 175.500 236.635 175.757 308.317 L 176.013 380 205.007 380 L 234 380 234.061 308.250 L 234.121 236.500 283.160 200.500 C 310.132 180.700, 337.788 160.380, 344.620 155.344 L 357.040 146.188 332.771 128.178 C 319.174 118.089, 308.061 110.506, 307.501 110.937 C 298.553 117.802, 206.390 185.297, 205.495 185.640 C 204.809 185.904, 183.380 170.718, 157.874 151.896 C 132.368 133.073, 109.195 115.974, 106.377 113.898 L 101.253 110.124 77.008 128.138 M 104.996 277.820 C 90.419 288.644, 73.199 301.389, 66.730 306.141 L 54.966 314.783 63.567 326.390 C 71.218 336.715, 72.361 337.859, 73.924 336.748 C 74.890 336.062, 92.395 323.173, 112.822 308.108 L 149.964 280.715 146.902 276.608 C 145.218 274.348, 141.514 269.260, 138.670 265.301 C 135.827 261.341, 133.050 258.110, 132.500 258.121 C 131.950 258.132, 119.573 266.996, 104.996 277.820 M 269 268.177 C 264.875 273.779, 261.159 278.921, 260.743 279.605 C 260.224 280.457, 271.964 289.686, 298.076 308.952 C 319.026 324.409, 336.558 337.156, 337.037 337.278 C 337.898 337.498, 354 316.317, 354 314.964 C 354 314.208, 279.831 259.251, 277.750 258.465 C 277.029 258.192, 273.327 262.302, 269 268.177" stroke="none" fill="#149494" fill-rule="evenodd"/></svg>