<svg xmlns="http://www.w3.org/2000/svg" width="512" height="512" viewBox="0 0 512 512" version="1.1"><path d="M 0.079 28.250 C 0.155 54.969, 0.235 56.148, 1.555 50 C 2.323 46.425, 4.832 39.690, 7.131 35.034 C 15.201 18.689, 32.263 5.365, 50 1.555 C 56.148 0.235, 54.969 0.155, 28.250 0.079 L 0 0 0.079 28.250 M 462 1.555 C 485.123 6.521, 505.479 26.877, 510.445 50 C 511.765 56.148, 511.845 54.969, 511.921 28.250 L 512 0 483.750 0.079 C 457.031 0.155, 455.852 0.235, 462 1.555 M 242 131.500 L 242 180 256 180 L 270 180 270 131.500 L 270 83 256 83 L 242 83 242 131.500 M 128.008 164.138 L 103.762 182.151 121.131 194.974 C 130.684 202.027, 158.300 222.386, 182.500 240.216 L 226.500 272.635 226.757 344.317 L 227.013 416 256.007 416 L 285 416 285.061 344.250 L 285.121 272.500 334.160 236.500 C 361.132 216.700, 388.788 196.380, 395.620 191.344 L 408.040 182.188 383.771 164.178 C 370.174 154.089, 359.061 146.506, 358.501 146.937 C 349.553 153.802, 257.390 221.297, 256.495 221.640 C 255.809 221.904, 234.380 206.718, 208.874 187.896 C 183.368 169.073, 160.195 151.974, 157.377 149.898 L 152.253 146.124 128.008 164.138 M 155.996 313.820 C 141.419 324.644, 124.199 337.389, 117.730 342.141 L 105.966 350.783 114.567 362.390 C 122.218 372.715, 123.361 373.859, 124.924 372.748 C 125.890 372.062, 143.395 359.173, 163.822 344.108 L 200.964 316.715 197.902 312.608 C 196.218 310.348, 192.514 305.260, 189.670 301.301 C 186.827 297.341, 184.050 294.110, 183.500 294.121 C 182.950 294.132, 170.573 302.996, 155.996 313.820 M 320 304.177 C 315.875 309.779, 312.159 314.921, 311.743 315.605 C 311.224 316.457, 322.964 325.686, 349.076 344.952 C 370.026 360.409, 387.558 373.156, 388.037 373.278 C 388.898 373.498, 405 352.317, 405 350.964 C 405 350.208, 330.831 295.251, 328.750 294.465 C 328.029 294.192, 324.327 298.302, 320 304.177 M 0.079 483.750 L 0 512 28.250 511.921 C 54.969 511.845, 56.148 511.765, 50 510.445 C 26.877 505.479, 6.521 485.123, 1.555 462 C 0.235 455.852, 0.155 457.031, 0.079 483.750 M 510.271 462.245 C 509.618 465.680, 507.195 472.302, 504.886 476.961 C 496.778 493.326, 479.727 506.638, 462 510.445 C 455.852 511.765, 457.031 511.845, 483.750 511.921 L 512 512 512 484 C 512 468.600, 511.878 456, 511.729 456 C 511.580 456, 510.924 458.810, 510.271 462.245" stroke="none" fill="#fafbfb" fill-rule="evenodd"/><path d="M 50 1.555 C 26.634 6.573, 6.423 26.970, 1.499 50.500 C -0.703 61.028, -0.703 450.972, 1.499 461.500 C 5.299 479.658, 18.480 496.702, 35.034 504.862 C 50.467 512.471, 34.743 511.965, 256 511.965 C 477.257 511.965, 461.533 512.471, 476.966 504.862 C 492.956 496.980, 506.700 479.689, 510.003 463.300 C 510.646 460.110, 511.584 456.719, 512.086 455.764 C 513.159 453.724, 513.367 54.299, 512.295 55.372 C 511.907 55.760, 511.018 53.248, 510.319 49.789 C 506.830 32.513, 493.273 15.176, 476.966 7.138 C 461.523 -0.475, 477.345 0.028, 255.500 0.097 C 89.142 0.149, 55.434 0.388, 50 1.555 M 0.490 256 C 0.490 366.275, 0.607 411.387, 0.750 356.250 C 0.893 301.112, 0.893 210.887, 0.750 155.750 C 0.607 100.612, 0.490 145.725, 0.490 256 M 242 131.500 L 242 180 256 180 L 270 180 270 131.500 L 270 83 256 83 L 242 83 242 131.500 M 128.008 164.138 L 103.762 182.151 121.131 194.974 C 130.684 202.027, 158.300 222.386, 182.500 240.216 L 226.500 272.635 226.757 344.317 L 227.013 416 256.007 416 L 285 416 285.061 344.250 L 285.121 272.500 334.160 236.500 C 361.132 216.700, 388.788 196.380, 395.620 191.344 L 408.040 182.188 383.771 164.178 C 370.174 154.089, 359.061 146.506, 358.501 146.937 C 349.553 153.802, 257.390 221.297, 256.495 221.640 C 255.809 221.904, 234.380 206.718, 208.874 187.896 C 183.368 169.073, 160.195 151.974, 157.377 149.898 L 152.253 146.124 128.008 164.138 M 155.996 313.820 C 141.419 324.644, 124.199 337.389, 117.730 342.141 L 105.966 350.783 114.567 362.390 C 122.218 372.715, 123.361 373.859, 124.924 372.748 C 125.890 372.062, 143.395 359.173, 163.822 344.108 L 200.964 316.715 197.902 312.608 C 196.218 310.348, 192.514 305.260, 189.670 301.301 C 186.827 297.341, 184.050 294.110, 183.500 294.121 C 182.950 294.132, 170.573 302.996, 155.996 313.820 M 320 304.177 C 315.875 309.779, 312.159 314.921, 311.743 315.605 C 311.224 316.457, 322.964 325.686, 349.076 344.952 C 370.026 360.409, 387.558 373.156, 388.037 373.278 C 388.898 373.498, 405 352.317, 405 350.964 C 405 350.208, 330.831 295.251, 328.750 294.465 C 328.029 294.192, 324.327 298.302, 320 304.177" stroke="none" fill="#149494" fill-rule="evenodd"/></svg>