<svg xmlns="http://www.w3.org/2000/svg" width="240" height="240" viewBox="0 0 240 240" version="1.1"><path d="" stroke="none" fill="#08c494" fill-rule="evenodd"/><path d="M 97.922 21.552 C 84.422 23.996, 63.244 31.659, 58.752 35.724 C 56.608 37.665, 56.463 42.310, 58.494 43.995 C 60.418 45.592, 62.552 45.055, 73.500 40.218 C 103.511 26.961, 137.288 27.280, 168.487 41.113 C 178.152 45.399, 181.492 45.548, 182.894 41.757 C 184.434 37.593, 182.962 35.852, 174.598 31.946 C 156.048 23.284, 140.648 19.958, 119.715 20.090 C 111.897 20.139, 102.090 20.797, 97.922 21.552 M 103.500 45.043 C 75.866 49.328, 49.699 64.151, 34.119 84.346 C 29.359 90.515, 28.828 94.186, 32.359 96.500 C 35.649 98.655, 37.145 97.779, 43.399 90.038 C 55.815 74.672, 74.623 62.776, 94.107 57.966 C 105.008 55.275, 124.046 54.338, 135.066 55.949 C 159.996 59.595, 181.295 71.415, 196.567 90.082 C 201.015 95.518, 202.802 97, 204.913 97 C 210.907 97, 211.619 91.971, 206.594 85.134 C 202.416 79.449, 191.279 68.717, 184.367 63.715 C 173.988 56.205, 158.524 49.612, 143.725 46.388 C 135.113 44.511, 111.926 43.736, 103.500 45.043 M 103 69.460 C 76.632 75.122, 55.169 91.252, 44.507 113.418 C 39.362 124.115, 37.657 132.467, 37.653 147 C 37.649 160.506, 38.776 168.023, 42.640 180.254 C 45.526 189.391, 48.028 191.522, 52.459 188.619 C 55.531 186.606, 55.601 185.057, 52.965 177.407 C 51.845 174.158, 50.270 167.729, 49.465 163.119 C 44.998 137.560, 50.893 116.984, 67.390 100.552 C 81.825 86.175, 95.747 80.142, 116.531 79.258 C 131.205 78.635, 140.988 80.710, 154 87.209 C 160.721 90.565, 164.410 93.342, 171.626 100.477 C 179.273 108.038, 181.403 110.877, 184.774 118 C 190.598 130.311, 193.046 143.377, 190.977 151.114 C 188.377 160.838, 176.547 167.551, 166.648 164.920 C 156.709 162.278, 152.310 156.962, 150.923 145.914 C 149.792 136.908, 147.263 131.263, 142 126 C 135.505 119.505, 130.213 117.509, 119.500 117.514 C 111.688 117.518, 109.840 117.869, 105.500 120.173 C 99.026 123.610, 93.660 129.236, 90.880 135.500 C 86.343 145.726, 88.698 163.677, 96.719 180 C 100.706 188.116, 102.779 190.890, 110.943 199.035 C 120.890 208.959, 128.639 213.919, 140.653 218.053 C 150.093 221.301, 154 220.384, 154 214.922 C 154 211.469, 153.001 210.733, 144.165 207.678 C 133.600 204.025, 126.562 199.531, 118.010 190.979 C 106.014 178.984, 99.960 165.143, 99.646 149 C 99.477 140.314, 101.096 136.655, 107.343 131.606 C 110.945 128.694, 111.700 128.500, 119.416 128.500 C 126.474 128.500, 128.148 128.843, 131.163 130.910 C 136.722 134.719, 139.059 138.980, 140.089 147.184 C 141.663 159.717, 146.947 167.728, 157.278 173.241 C 160.808 175.125, 163.057 175.494, 171 175.492 C 179.362 175.491, 181.099 175.172, 185.500 172.832 C 191.977 169.387, 197.342 163.762, 200.120 157.500 C 201.864 153.568, 202.316 150.755, 202.236 144.331 C 201.822 111.249, 177.225 80.783, 143 70.960 C 133.332 68.185, 112.564 67.406, 103 69.460 M 112.500 92.637 C 90.815 95.954, 72.459 110.574, 65.806 129.827 C 62.643 138.979, 62.679 158.528, 65.881 170.500 C 69.843 185.315, 78.215 200.152, 89.237 211.892 C 95.279 218.328, 98.377 219.480, 101.429 216.429 C 104.108 213.749, 103.215 211.336, 96.937 204.298 C 80.755 186.153, 73.245 166.756, 74.178 145.511 C 74.508 137.990, 75.097 135.383, 77.738 129.741 C 88.603 106.537, 116.716 96.723, 140.474 107.841 C 154.894 114.589, 166 130.303, 166 143.959 C 166 150.951, 171.478 154.444, 175.491 150.010 C 179.239 145.868, 175.008 127.686, 167.887 117.336 C 160.722 106.922, 151.033 99.675, 138.769 95.558 C 131.490 93.115, 118.684 91.691, 112.500 92.637 M 116.223 142.557 C 113.501 144.463, 113.270 149.713, 115.518 158.540 C 120.231 177.046, 133.900 191.796, 151.380 197.238 C 156.952 198.973, 160.891 199.449, 169.500 199.427 C 176.261 199.409, 181.362 198.925, 182.738 198.170 C 185.887 196.443, 186.698 192.429, 184.410 189.901 C 182.746 188.062, 181.819 187.942, 173.995 188.554 C 158.008 189.805, 146.426 185.486, 136.066 174.411 C 129.443 167.331, 126.340 160.467, 125.098 150.147 C 124.076 141.661, 121.116 139.129, 116.223 142.557" stroke="none" fill="#04c494" fill-rule="evenodd"/></svg>