<?xml version="1.0" encoding="UTF-8"?>
<svg version="1.1" xmlns="http://www.w3.org/2000/svg" width="2173" height="2173">
<path d="M0 0 C0.66 0 1.32 0 2 0 C17.77414683 49.59296163 32.0131863 99.60649264 45 150 C45.26727905 151.03517761 45.53455811 152.07035522 45.80993652 153.13690186 C68.54291128 241.2683128 87.56939547 330.80420449 95.69140625 421.57519531 C96.16802436 426.86475138 96.67904424 432.15092818 97.1875 437.4375 C97.45908309 440.29159608 97.7295349 443.1457977 98 446 C109.34397877 402.99501297 116.87759931 359.28508489 121 315 C121.66 315 122.32 315 123 315 C127.35306591 327.44385694 131.69632829 339.89109724 136.02978516 352.34179688 C137.2278771 355.78394204 138.42764619 359.22548666 139.63037109 362.66601562 C148.17254325 387.11441528 156.09942109 411.74945956 163.91894531 436.4375 C165.60362512 441.75505927 167.29849747 447.06929731 168.99659729 452.38258362 C181.37290847 491.13559146 193.04274788 530.09527699 204.55651855 569.11169434 C205.76003386 573.18922588 206.96703477 577.26571687 208.17486382 581.34197235 C210.70863851 589.89440502 213.22546358 598.45161333 215.72442627 607.01428223 C216.56737694 609.90108635 217.41651416 612.78595443 218.2711792 615.66931152 C219.44672566 619.63698937 220.59953902 623.61091332 221.75 627.5859375 C222.2715416 629.33035629 222.2715416 629.33035629 222.80361938 631.11001587 C225.55558007 640.7448108 224.47779516 646.69925495 220.30859375 655.60546875 C219.74381821 656.84111069 219.74381821 656.84111069 219.16763306 658.10171509 C218.35611409 659.8746066 217.54050838 661.64563209 216.72122192 663.41494751 C214.97032998 667.19648284 213.23945187 670.98707272 211.50700378 674.77708435 C210.61939416 676.71812773 209.73072574 678.65868727 208.84101868 680.59877014 C204.84844755 689.30757715 200.94040262 698.05215754 197.0625 706.8125 C196.41780922 708.26696459 195.773033 709.72139131 195.12817383 711.17578125 C194.13588909 713.41396559 193.14374921 715.65221345 192.15211487 717.89068604 C189.50514855 723.86496501 186.84942888 729.83532046 184.19140625 735.8046875 C174.17803746 758.29664687 164.22517336 780.81403659 154.34629822 803.36538696 C151.67940658 809.45261796 149.00698242 815.53740049 146.33203125 821.62109375 C131.16704144 856.11400007 116.24975977 890.70829268 101.4203186 925.34671783 C97.75806817 933.90061369 94.08897511 942.45153715 90.4140625 951 C79.48995863 976.41877592 68.69425052 1001.88704617 58.06848145 1027.43200684 C57.01099686 1029.97357009 55.95243125 1032.51468046 54.89355469 1035.05566406 C-1.87086429 1171.04705646 -1.87086429 1171.04705646 -59.19262695 1338.33624268 C-59.96737721 1340.89236798 -60.74892145 1343.44629677 -61.53320312 1345.99951172 C-83.18371726 1416.57797178 -99.25236387 1489.14020731 -107.3125 1562.5625 C-107.38822235 1563.2470929 -107.4639447 1563.93168579 -107.54196167 1564.63702393 C-110.20549649 1589.14871773 -111.38774664 1613.66198159 -111.3125 1638.3125 C-111.31034485 1639.59738312 -111.3081897 1640.88226624 -111.30596924 1642.20608521 C-111.25382042 1661.64870354 -110.80705397 1680.73780203 -108 1700 C-107.84727631 1701.06266083 -107.84727631 1701.06266083 -107.69146729 1702.14678955 C-98.64236962 1764.81903928 -78.05955716 1825.12706681 -38 1875 C-37.54834473 1875.56879883 -37.09668945 1876.13759766 -36.63134766 1876.72363281 C-30.95188618 1883.83950074 -24.78203865 1890.40928372 -18.375 1896.875 C-17.68245117 1897.57689453 -16.98990234 1898.27878906 -16.27636719 1899.00195312 C-12.7443678 1902.51224282 -9.11144996 1905.87734589 -5.2890625 1909.0703125 C-4.5873291 1909.65828613 -3.8855957 1910.24625977 -3.16259766 1910.85205078 C-1.02455732 1912.23301613 -1.02455732 1912.23301613 1.59057617 1911.80883789 C4.95910651 1910.67803021 7.31590907 1908.62595316 9.9375 1906.3125 C10.49598633 1905.82845703 11.05447266 1905.34441406 11.62988281 1904.84570312 C22.00289471 1895.72391057 31.53807253 1885.92611514 40 1875 C40.78632812 1874.01902344 41.57265625 1873.03804687 42.3828125 1872.02734375 C82.41255953 1821.71755312 102.66960634 1758.61259471 110.3125 1695.5 C110.39399292 1694.82706909 110.47548584 1694.15413818 110.55944824 1693.46081543 C112.64320576 1675.96564327 113.24039313 1658.66179003 113.25 1641.0625 C113.25067474 1639.94362396 113.25134949 1638.82474792 113.25204468 1637.67196655 C113.17002325 1551.29420823 94.74029755 1465.88101651 63.62939453 1348.91259766 C63.39663818 1348.10028687 63.16388184 1347.28797607 62.92407227 1346.4510498 C62.50262727 1344.98464053 62.07762501 1343.51924488 61.64770508 1342.05529785 C61.06806736 1340.0438537 60.52986866 1338.02508528 60 1336 C59.78478699 1335.25139206 59.56957397 1334.50278412 59.34783936 1333.73149109 C57.51230809 1326.43917971 58.52339911 1320.24504708 59.9375 1312.94140625 C60.16822205 1311.6739003 60.39894409 1310.40639435 60.63665771 1309.10047913 C61.26810489 1305.64084707 61.92396349 1302.18627639 62.58592224 1298.73236847 C63.00371462 1296.54303448 63.41489092 1294.35255979 63.82385254 1292.16156006 C78.76328192 1212.13084687 96.80377484 1132.68639016 243 716 C243.66 716 244.32 716 245 716 C265.22158656 796.79135275 283.5538132 877.9675441 309 1029 C309.1579303 1030.05954895 309.3158606 1031.1190979 309.47857666 1032.21075439 C316.42037916 1078.91959409 321.74069598 1125.91133843 325.3125 1173 C325.3878598 1173.98200378 325.4632196 1174.96400757 325.54086304 1175.97576904 C326.09524153 1183.31333713 326.56388037 1190.65452082 327 1198 C327.04194111 1198.69230587 327.08388222 1199.38461174 327.12709427 1200.09789658 C328.81064773 1227.96359086 329.36751388 1255.76309757 329.31785583 1283.67697144 C329.31240579 1286.86765664 329.31004548 1290.0583344 329.3079834 1293.24902344 C329.27700348 1324.02864739 328.88896514 1354.67972389 326.22784424 1385.36358643 C325.99824643 1388.02029082 325.77914831 1390.67769974 325.56201172 1393.33544922 C320.94289015 1449.18728286 312.12375313 1504.52083167 299 1559 C298.8203772 1559.74900574 298.64075439 1560.49801147 298.45568848 1561.26971436 C280.64553932 1635.3882075 253.27007806 1706.36722728 199.74414062 1807.08105469 C198.60015643 1808.99559486 197.4606709 1810.91283181 196.32617188 1812.83300781 C176.92671058 1845.66550813 154.64829578 1876.67136791 130.50146484 1906.16210938 C129.15803439 1907.80655563 127.82261569 1909.45753952 126.48828125 1911.109375 C122.17277881 1916.44161886 117.7242176 1921.60780839 113.10546875 1926.6796875 C111.27082315 1928.70154184 109.47231214 1930.74678522 107.6875 1932.8125 C98.69953743 1943.10138774 89.24587208 1952.91839917 79.57128906 1962.55908203 C77.7338424 1964.39110995 75.9018835 1966.22850605 74.0703125 1968.06640625 C68.21476259 1973.92526402 62.32601068 1979.64484146 56 1985 C54.39231627 1986.45445517 52.78760285 1987.91220895 51.1875 1989.375 C45.93578395 1994.10233896 40.52717457 1998.59978657 35 2003 C34.33935547 2003.52787109 33.67871094 2004.05574219 32.99804688 2004.59960938 C25.04742095 2010.93291626 17.02493995 2017.18111821 8.6875 2023 C8.08389648 2023.43948975 7.48029297 2023.87897949 6.85839844 2024.33178711 C4.24572443 2026.10456719 2.72049916 2027.13151969 -0.4609375 2026.55078125 C-3.80702234 2024.50709559 -7.09115514 2022.42381203 -10.3125 2020.1875 C-11.00819092 2019.70684082 -11.70388184 2019.22618164 -12.4206543 2018.73095703 C-19.64371672 2013.66564351 -26.44590084 2008.12187942 -33.21923828 2002.4765625 C-35.70654982 2000.41414679 -38.23117721 1998.39873137 -40.75 1996.375 C-45.66701795 1992.3526575 -50.3338579 1988.10160928 -54.98046875 1983.7734375 C-57.17464154 1981.73521156 -59.42027429 1979.76975171 -61.69042969 1977.81665039 C-65.9529943 1974.09187818 -69.9770414 1970.16765727 -73.97265625 1966.16015625 C-74.69940048 1965.43436874 -75.42614471 1964.70858124 -76.1749115 1963.96080017 C-77.69962296 1962.43676444 -79.2230915 1960.91148431 -80.74536133 1959.38500977 C-83.05633891 1957.06867537 -85.37260771 1954.75772922 -87.68945312 1952.44726562 C-89.1800082 1950.95604966 -90.670253 1949.46452347 -92.16015625 1947.97265625 C-92.84263931 1947.29219742 -93.52512238 1946.61173859 -94.22828674 1945.91065979 C-98.14731015 1941.97275766 -101.89000717 1937.93135327 -105.51625061 1933.72186279 C-107.42686609 1931.50463007 -109.400249 1929.34762035 -111.375 1927.1875 C-115.19914478 1922.9455915 -118.84889455 1918.59448903 -122.4375 1914.15234375 C-124.33020913 1911.81140119 -126.25250175 1909.49750788 -128.1875 1907.19140625 C-136.28414367 1897.51537759 -143.90759458 1887.57584586 -151.29736328 1877.35107422 C-152.94786764 1875.07198661 -154.6107545 1872.80249861 -156.27734375 1870.53515625 C-207.88740556 1800.07837296 -246.66028765 1720.7447116 -327 1248 C-326.93972626 1246.84247223 -326.93972626 1246.84247223 -326.87823486 1245.66156006 C-322.38992791 1161.67039024 -306.30485491 1078.50180577 -285.77807617 997.0869751 C-285.02674287 994.10610088 -284.27962667 991.12419667 -283.53320312 988.14208984 C-272.6213981 944.66752193 -259.98489432 901.6546601 -246.84265137 858.80820084 C-246.28081006 856.97550096 -245.72044039 855.14235011 -245.16015625 853.30917358 C-225.67711871 789.68878197 -204.28897705 726.65787816 -183.1875 663.5625 C-177.65626733 647.02343342 -172.12715619 630.4836624 -166.60546875 613.94140625 C-166.27540313 612.95267753 -165.94533751 611.96394881 -165.60526991 610.94525862 C-156.27779117 583.00046453 -147.05937609 555.02899918 -138.19290066 526.93389988 C-135.94586551 519.81388043 -133.65357849 512.70929671 -131.34375 505.609375 C-106.6946341 429.66772497 -83.45844724 353.20440877 -7.4375 54 C-7.27878418 53.13145386 -7.12006836 52.26290771 -6.95654297 51.36804199 C-3.87990668 34.39026245 -1.05464762 17.23803355 0 0 Z " fill="#FB8521" transform="translate(1086,74)"/>
</svg>
