<svg xmlns="http://www.w3.org/2000/svg" width="512" height="512" viewBox="0 0 512 512" version="1.1"><path d="" stroke="none" fill="#086c54" fill-rule="evenodd"/><path d="M 254 9.696 C 254 12.604, 10.807 498, 9.350 498 C 8.517 498, 8 499.149, 8 501 L 8 504 256 504 L 504 504 504 501 C 504 499.146, 503.484 498, 502.648 498 C 501.185 498, 258 12.628, 258 9.707 C 258 8.667, 257.219 8, 256 8 C 254.786 8, 254 8.667, 254 9.696 M 200.770 308.505 L 146.040 418 256.001 418 L 365.962 418 311.231 308.511 C 281.129 248.293, 256.275 199.020, 256 199.016 C 255.725 199.013, 230.872 248.283, 200.770 308.505" stroke="none" fill="#046c54" fill-rule="evenodd"/></svg>