<svg xmlns="http://www.w3.org/2000/svg" width="266" height="226" viewBox="0 0 266 226" version="1.1"><path d="M 84.460 38.682 C 79.034 44.109, 89.759 63.863, 107.224 80.610 C 118.867 91.775, 119.557 92.023, 143.443 93.608 C 169.427 95.332, 169 95.336, 169 93.389 C 169 91.424, 161.519 80.588, 154.939 73.024 C 138.369 53.973, 108.179 37, 90.861 37 C 87.773 37, 85.562 37.581, 84.460 38.682 M 59 100.061 C 40.754 101.504, 31.271 102.814, 29.055 104.198 C 21.064 109.188, 40.234 127.909, 60.725 135.124 C 67.923 137.659, 84.404 138.722, 91.823 137.131 C 99.253 135.538, 112.587 130.113, 114.634 127.852 C 117.177 125.042, 115.051 123.195, 111.277 124.936 C 102.200 129.124, 90.877 130.142, 81.409 127.621 C 78.609 126.875, 73.742 124.617, 70.593 122.603 C 66.106 119.732, 64.937 118.469, 65.184 116.757 C 65.656 113.498, 70.062 112.812, 91 112.740 C 116.807 112.652, 125.787 115.188, 131.791 124.261 C 134.269 128.005, 134.483 129.231, 134.974 142.460 C 135.467 155.757, 135.689 157.015, 138.530 162.572 C 140.872 167.154, 142.880 169.409, 147.371 172.500 L 153.181 176.500 175.162 176.805 C 195.609 177.088, 197.437 176.967, 201.365 175.066 C 207.265 172.209, 210.664 168.264, 218.867 154.748 C 226.111 142.813, 227.096 139.549, 224.715 135.366 C 222.644 131.728, 197.834 112.083, 191.385 108.974 C 183.482 105.165, 171.515 102.424, 156.500 100.985 C 141.102 99.509, 74.015 98.873, 59 100.061 M 175.750 124.572 C 172.556 126.304, 172.401 127.156, 174.648 130.586 C 178.007 135.712, 185.309 137.443, 191.050 134.474 C 194.965 132.450, 194.787 129.898, 190.465 126.104 C 187.679 123.657, 186.038 123.008, 182.715 123.040 C 180.397 123.062, 177.262 123.751, 175.750 124.572" stroke="none" fill="#f8f6fc" fill-rule="evenodd"/><path d="M 0 113.004 L 0 226.007 133.250 225.754 L 266.500 225.500 266.754 112.750 L 267.009 0 133.504 0 L 0 0 0 113.004 M 0.483 113.500 C 0.483 175.650, 0.603 200.928, 0.750 169.673 C 0.897 138.418, 0.897 87.568, 0.750 56.673 C 0.603 25.778, 0.483 51.350, 0.483 113.500 M 84.460 38.682 C 79.034 44.109, 89.759 63.863, 107.224 80.610 C 118.867 91.775, 119.557 92.023, 143.443 93.608 C 169.427 95.332, 169 95.336, 169 93.389 C 169 91.424, 161.519 80.588, 154.939 73.024 C 138.369 53.973, 108.179 37, 90.861 37 C 87.773 37, 85.562 37.581, 84.460 38.682 M 59 100.061 C 40.754 101.504, 31.271 102.814, 29.055 104.198 C 21.064 109.188, 40.234 127.909, 60.725 135.124 C 67.923 137.659, 84.404 138.722, 91.823 137.131 C 99.253 135.538, 112.587 130.113, 114.634 127.852 C 117.177 125.042, 115.051 123.195, 111.277 124.936 C 102.200 129.124, 90.877 130.142, 81.409 127.621 C 78.609 126.875, 73.742 124.617, 70.593 122.603 C 66.106 119.732, 64.937 118.469, 65.184 116.757 C 65.656 113.498, 70.062 112.812, 91 112.740 C 116.807 112.652, 125.787 115.188, 131.791 124.261 C 134.269 128.005, 134.483 129.231, 134.974 142.460 C 135.467 155.757, 135.689 157.015, 138.530 162.572 C 140.872 167.154, 142.880 169.409, 147.371 172.500 L 153.181 176.500 175.162 176.805 C 195.609 177.088, 197.437 176.967, 201.365 175.066 C 207.265 172.209, 210.664 168.264, 218.867 154.748 C 226.111 142.813, 227.096 139.549, 224.715 135.366 C 222.644 131.728, 197.834 112.083, 191.385 108.974 C 183.482 105.165, 171.515 102.424, 156.500 100.985 C 141.102 99.509, 74.015 98.873, 59 100.061 M 175.750 124.572 C 172.556 126.304, 172.401 127.156, 174.648 130.586 C 178.007 135.712, 185.309 137.443, 191.050 134.474 C 194.965 132.450, 194.787 129.898, 190.465 126.104 C 187.679 123.657, 186.038 123.008, 182.715 123.040 C 180.397 123.062, 177.262 123.751, 175.750 124.572" stroke="none" fill="#6434fc" fill-rule="evenodd"/></svg>