<svg xmlns="http://www.w3.org/2000/svg" width="225" height="225" viewBox="0 0 225 225" version="1.1"><path d="M 74.750 50.080 C 68.789 53.552, 79.020 73.410, 94.462 88.337 C 104.972 98.497, 106.391 99.030, 125.731 100.066 C 134.954 100.559, 144.412 101.248, 146.750 101.595 C 152.309 102.422, 152.260 101.364, 146.327 92.489 C 140.242 83.388, 126.452 69.782, 117.027 63.581 C 100.240 52.535, 81.054 46.408, 74.750 50.080 M 59 105.586 C 42.998 106.670, 28.684 108.214, 26.014 109.145 C 23.553 110.003, 23 110.754, 23 113.238 C 23 115.694, 24.397 117.651, 30.250 123.393 C 47.865 140.674, 72.938 144.926, 95.762 134.503 C 100.612 132.288, 103.067 129.734, 101.680 128.346 C 101.367 128.034, 98.299 128.728, 94.862 129.889 C 86.864 132.590, 76.862 132.672, 69.535 130.097 C 63.495 127.974, 57 123.476, 57 121.416 C 57 118.226, 61.238 117.509, 80 117.527 C 101.547 117.548, 107.566 118.806, 114.022 124.638 C 118.925 129.068, 119.975 132.709, 120.038 145.500 C 120.113 160.587, 123.531 167.607, 133.312 172.765 C 138.438 175.467, 138.728 175.500, 157.500 175.500 C 183.195 175.500, 183.274 175.458, 195.469 155.306 C 204.730 140.004, 204.769 140.167, 188.703 126.914 C 171.108 112.398, 163.526 109.285, 140.141 106.976 C 130.124 105.986, 68.635 104.933, 59 105.586 M 157.750 127.658 C 153.356 129.481, 153.112 130.750, 156.462 134.364 C 160.344 138.554, 163.670 139.398, 168.711 137.473 C 171.070 136.572, 173 135.297, 173 134.640 C 173 131.480, 166.383 125.909, 162.800 126.052 C 162.085 126.080, 159.813 126.803, 157.750 127.658" stroke="none" fill="#6337f6" fill-rule="evenodd"/><path d="M -0 112.504 L -0 225.009 112.750 224.754 L 225.500 224.500 225.754 112.250 L 226.009 0 113.004 0 L 0 0 -0 112.504 M 0.483 113 C 0.483 174.875, 0.603 200.188, 0.750 169.250 C 0.897 138.313, 0.897 87.688, 0.750 56.750 C 0.603 25.813, 0.483 51.125, 0.483 113 M 74.750 50.080 C 68.789 53.552, 79.020 73.410, 94.462 88.337 C 104.972 98.497, 106.391 99.030, 125.731 100.066 C 134.954 100.559, 144.412 101.248, 146.750 101.595 C 152.309 102.422, 152.260 101.364, 146.327 92.489 C 140.242 83.388, 126.452 69.782, 117.027 63.581 C 100.240 52.535, 81.054 46.408, 74.750 50.080 M 59 105.586 C 42.998 106.670, 28.684 108.214, 26.014 109.145 C 23.553 110.003, 23 110.754, 23 113.238 C 23 115.694, 24.397 117.651, 30.250 123.393 C 47.865 140.674, 72.938 144.926, 95.762 134.503 C 100.612 132.288, 103.067 129.734, 101.680 128.346 C 101.367 128.034, 98.299 128.728, 94.862 129.889 C 86.864 132.590, 76.862 132.672, 69.535 130.097 C 63.495 127.974, 57 123.476, 57 121.416 C 57 118.226, 61.238 117.509, 80 117.527 C 101.547 117.548, 107.566 118.806, 114.022 124.638 C 118.925 129.068, 119.975 132.709, 120.038 145.500 C 120.113 160.587, 123.531 167.607, 133.312 172.765 C 138.438 175.467, 138.728 175.500, 157.500 175.500 C 183.195 175.500, 183.274 175.458, 195.469 155.306 C 204.730 140.004, 204.769 140.167, 188.703 126.914 C 171.108 112.398, 163.526 109.285, 140.141 106.976 C 130.124 105.986, 68.635 104.933, 59 105.586 M 157.750 127.658 C 153.356 129.481, 153.112 130.750, 156.462 134.364 C 160.344 138.554, 163.670 139.398, 168.711 137.473 C 171.070 136.572, 173 135.297, 173 134.640 C 173 131.480, 166.383 125.909, 162.800 126.052 C 162.085 126.080, 159.813 126.803, 157.750 127.658" stroke="none" fill="#fbfbfb" fill-rule="evenodd"/></svg>