<svg xmlns="http://www.w3.org/2000/svg" width="331" height="258" viewBox="0 0 331 258" version="1.1"><path d="M 97.250 21.989 C 94.248 23.819, 94 24.372, 94 29.214 C 94 41.457, 105.592 62.243, 123.152 81.484 C 132.039 91.223, 146.725 103.725, 152.472 106.443 C 158.525 109.307, 170.606 110.963, 185.500 110.970 C 190.450 110.972, 202.756 111.723, 212.847 112.638 C 234.514 114.604, 234.623 114.561, 229.833 106.008 C 225.598 98.447, 220.955 92.097, 211.829 81.387 C 194.280 60.793, 173.066 44.364, 148.881 32.639 C 125.061 21.092, 105.380 17.032, 97.250 21.989 M 72 120.588 C 36.427 122.506, 14.989 124.744, 9.281 127.135 C 0.587 130.777, 2.400 137.347, 15.867 151.012 C 31.380 166.752, 48.191 176.098, 69 180.553 C 79.097 182.714, 101.265 182.762, 110 180.642 C 127.001 176.515, 144.578 168.531, 145.596 164.472 C 146.885 159.336, 145.043 159.098, 134.500 163.035 C 111.754 171.530, 87.486 168.564, 70.787 155.248 C 61.255 147.648, 63.368 144.732, 80.001 142.535 C 94.437 140.628, 112.307 140.606, 131 142.472 C 152.555 144.624, 160.760 147.603, 168.334 156.026 C 175.762 164.289, 176.998 169.024, 177.012 189.288 C 177.020 200.812, 177.485 208.233, 178.420 211.744 C 182.976 228.858, 195.573 240.895, 212.730 244.531 C 221.018 246.287, 264.602 246.560, 273.520 244.912 C 281.541 243.429, 289.578 239.127, 295.148 233.334 C 299.282 229.034, 315.605 203.574, 320.971 193.056 C 323.611 187.882, 323.526 182.432, 320.734 177.777 C 319.397 175.548, 310.131 167.241, 297.650 157.083 C 264.705 130.266, 255.334 126.745, 205.500 122.454 C 189.523 121.078, 88.973 119.673, 72 120.588 M 246.843 158.975 C 242.289 160.350, 238 163.355, 238 165.169 C 238 166.125, 240.425 169.512, 243.389 172.697 L 248.779 178.487 255.664 178.493 C 263.370 178.501, 270.564 175.948, 271.545 172.858 C 272.156 170.934, 269.238 166.012, 265.522 162.696 C 260.765 158.451, 253.420 156.988, 246.843 158.975" stroke="none" fill="#6438f7" fill-rule="evenodd"/></svg>