<svg xmlns="http://www.w3.org/2000/svg" width="400" height="400" viewBox="0 0 400 400" version="1.1"><path d="M 134.182 51.750 C 121.309 78.892, 123.956 102.140, 142.234 122.469 L 148.500 129.438 142.242 124.969 C 122.516 110.883, 119.235 108.844, 113.406 107.044 C 106.852 105.019, 91.142 102.524, 90.293 103.373 C 89.399 104.268, 93.159 114.321, 97.735 123.266 C 108.667 144.637, 126.175 156.796, 156.500 164.077 C 165.823 166.315, 167.162 166.821, 162.500 166.343 C 159.200 166.004, 150.650 164.200, 143.500 162.333 C 119.076 155.957, 112.177 154.751, 103.457 155.335 C 96.232 155.819, 84 159.211, 84 160.731 C 84 161.054, 85.834 163.748, 88.076 166.717 C 95.886 177.062, 109.434 185.148, 125.791 189.230 C 132.790 190.977, 137.543 191.413, 150 191.452 C 158.525 191.478, 167.525 191.179, 170 190.787 C 173.767 190.190, 174.093 190.255, 172 191.187 C 170.554 191.830, 159.386 192.588, 145.500 192.983 C 123.147 193.620, 121.037 193.841, 114.758 196.206 C 106.501 199.317, 98.416 204.135, 92.194 209.654 L 87.500 213.817 90.211 214.869 C 96.384 217.264, 110.916 219.186, 122.922 219.194 C 137.922 219.205, 151.588 217.072, 165.750 212.511 C 171.387 210.695, 176 209.381, 176 209.591 C 176 210.246, 168.945 213.057, 157.500 216.961 C 136.494 224.129, 125.977 231.023, 121.032 240.869 C 117.994 246.919, 118.951 247.528, 129.176 246.043 C 143.136 244.016, 156.836 238.370, 171.254 228.701 C 174.964 226.213, 178 224.348, 178 224.557 C 178 225.475, 166.669 233.149, 157.572 238.392 C 152.111 241.540, 145.906 245.490, 143.784 247.171 C 139.151 250.840, 136 256.625, 136 261.460 C 136 265.840, 136.969 265.929, 147.698 262.526 C 158.861 258.985, 167.296 253.693, 176.810 244.262 C 181.380 239.730, 184.109 237.480, 182.874 239.262 C 181.639 241.043, 176.438 246.606, 171.316 251.624 C 161.450 261.290, 159 265.364, 159 272.104 L 159 276.272 163.750 275.634 C 172.192 274.500, 180.680 269.468, 190 260.071 C 194.675 255.357, 200.196 248.575, 202.269 245 C 205.673 239.130, 205.967 238.064, 205.303 234 C 204.198 227.235, 204.687 219.556, 206.628 213.196 L 208.367 207.500 209.172 215 C 211.102 232.985, 218.912 249.574, 231.947 263.382 C 236.482 268.185, 237.042 269.127, 235 268.518 C 226.862 266.094, 214.969 256.709, 211.477 249.955 C 210.636 248.330, 209.623 247.001, 209.224 247.002 C 208.826 247.004, 207.150 249.589, 205.500 252.748 C 200.096 263.093, 185.440 276.748, 173 283.028 L 168.500 285.300 177.467 287.682 C 200.938 293.917, 224.769 307.963, 236.133 322.258 C 242.061 329.715, 246.704 340.134, 248.272 349.500 L 249.612 357.500 251.774 351 C 255.212 340.665, 256.125 335.167, 256.128 324.792 C 256.130 316.093, 255.714 313.857, 252.130 303.292 C 249.929 296.806, 247.848 289.250, 247.505 286.500 C 246.569 278.998, 248.571 268.447, 252.428 260.563 L 255.820 253.626 252.049 248.063 C 243.729 235.793, 239.212 223.758, 238.325 211.500 C 237.821 204.536, 239.252 192, 240.550 192 C 240.775 192, 242.751 193.944, 244.941 196.320 C 252.381 204.391, 264.291 209, 277.710 209 L 285 209 285 215.290 C 285 226.414, 288.808 237.266, 295.688 245.751 C 301.555 252.985, 302.986 252.751, 299.295 245.161 C 294.174 234.628, 291.707 222.641, 291.595 207.750 L 291.500 195 283.910 195 C 274.154 195, 261.934 191.882, 256.054 187.891 C 253.549 186.191, 252.290 185.058, 253.256 185.371 C 256.096 186.294, 276.060 189.812, 281.555 190.357 C 289.409 191.138, 289.624 190.657, 286.113 180.179 C 282.507 169.416, 277.650 159.488, 270.619 148.513 L 265.503 140.525 264.315 148.323 C 263.661 152.611, 262.949 156.653, 262.732 157.303 C 262.515 157.954, 259.940 153.819, 257.009 148.113 C 253.104 140.510, 249.865 135.851, 244.880 130.664 C 241.139 126.772, 237.875 123.793, 237.626 124.044 C 237.377 124.295, 237.565 126.525, 238.043 129 C 239.073 134.327, 239.245 143.527, 238.394 147.779 C 237.812 150.692, 237.641 150.515, 233.949 143.154 C 229.694 134.670, 221.212 125.216, 212.735 119.507 C 209.870 117.578, 207.250 116, 206.912 116 C 206.574 116, 207.528 118.587, 209.031 121.750 C 214.430 133.108, 217.174 143.757, 217.735 155.531 C 218.324 167.912, 217.296 174.362, 213.323 183.215 C 210.383 189.767, 209.330 190.203, 210.946 184.199 C 213.059 176.352, 213.921 165.506, 212.967 158.767 C 210.323 140.099, 202.200 129.252, 176.157 109.615 C 158.839 96.556, 151.866 90.165, 146.802 82.708 C 140.249 73.059, 138.577 67.302, 138.536 54.250 C 138.516 48.062, 138.462 43, 138.416 43 C 138.370 43, 136.464 46.938, 134.182 51.750 M 183.520 97.557 C 179.131 98.384, 175.221 99.384, 174.831 99.780 C 174.441 100.176, 178.516 103.265, 183.887 106.644 C 191.415 111.380, 194.267 112.672, 196.327 112.278 C 199.336 111.703, 199.687 110.291, 197.532 107.441 C 194.820 103.856, 195.959 103.957, 204.034 108.017 C 210.711 111.374, 223.206 114.829, 229.225 114.982 C 229.624 114.992, 229.499 113.813, 228.947 112.361 C 228.395 110.910, 228.158 109.509, 228.420 109.247 C 228.681 108.985, 231.506 111.024, 234.698 113.777 C 237.889 116.530, 243.650 120.382, 247.500 122.338 C 251.350 124.294, 255.850 126.815, 257.500 127.940 L 260.500 129.987 261 125.888 L 261.500 121.789 266.472 130.145 C 269.206 134.740, 273.744 141.200, 276.557 144.500 C 292.744 163.491, 299.178 180.195, 300.931 207.784 C 301.831 221.950, 304.342 234.095, 308.143 242.668 L 310.286 247.500 312.180 241.500 C 317.028 226.144, 318.309 205.877, 315.474 189.381 C 311.355 165.409, 300.800 145.428, 283.049 128 C 268.343 113.561, 252.081 104.401, 231.344 98.876 C 220.823 96.073, 195.160 95.366, 183.520 97.557 M 106.583 147.839 L 105.077 150.751 108.789 151.364 C 115.184 152.422, 116.441 152.236, 114.961 150.453 C 114.255 149.603, 112.420 148.011, 110.883 146.917 L 108.089 144.927 106.583 147.839 M 93.651 187.250 C 93.334 189.588, 92.782 193.639, 92.423 196.254 L 91.772 201.007 101.303 196.254 C 106.546 193.639, 110.872 191.261, 110.917 190.969 C 111.013 190.358, 96.406 183, 95.097 183 C 94.619 183, 93.968 184.912, 93.651 187.250 M 245.017 209.330 C 245.095 219.025, 252.207 236.609, 260.434 247.446 L 264.948 253.392 262.902 256.446 C 261.776 258.126, 259.650 261.975, 258.178 265 C 255.741 270.006, 255.503 271.534, 255.529 282 C 255.555 292.657, 255.793 294.060, 258.766 301.135 C 260.531 305.334, 262.441 312.057, 263.011 316.075 C 263.580 320.093, 264.251 323.584, 264.501 323.834 C 265.207 324.540, 271.591 319.877, 273.080 317.567 C 273.898 316.300, 274.430 312.389, 274.457 307.456 C 274.505 298.504, 276.219 294.485, 280.440 293.426 C 283.935 292.548, 284.265 290.468, 281.440 287.111 L 278.963 284.167 281.856 283.532 C 283.447 283.182, 285.744 281.837, 286.960 280.542 C 289.396 277.950, 288.957 276.081, 285.093 272.584 C 282.137 269.909, 282.526 267.741, 286.272 266 C 288.047 265.175, 290.362 262.890, 291.415 260.923 L 293.331 257.346 288.665 253.046 C 283.673 248.444, 278.341 238.874, 277.343 232.725 C 276.792 229.330, 276.942 229, 279.036 229 C 280.299 229, 281.037 228.704, 280.675 228.342 C 280.313 227.980, 280.576 226.994, 281.259 226.150 C 282.249 224.926, 282.247 224.768, 281.250 225.367 C 280.532 225.799, 280 225.616, 280 224.937 C 280 224.064, 279.601 224.086, 278.476 225.020 C 276.280 226.843, 275.986 226.009, 277.091 221.091 C 277.629 218.696, 277.941 216.645, 277.785 216.534 C 277.628 216.423, 272.818 215.583, 267.096 214.667 C 260.220 213.567, 254.709 212.011, 250.846 210.081 C 245.081 207.200, 245 207.190, 245.017 209.330 M 93.383 227.826 C 93.735 230.481, 95.354 236.893, 96.982 242.076 C 110.058 283.718, 145.420 313.688, 188.998 320.060 C 197.429 321.293, 222.448 320.901, 223.802 319.514 C 224.906 318.385, 217.511 312.513, 210.191 308.705 C 204.827 305.915, 201.573 305.003, 193.785 304.107 C 154.231 299.557, 122.681 272.638, 111.659 234.035 L 109.242 225.569 102.371 224.364 C 92.066 222.555, 92.653 222.329, 93.383 227.826" stroke="none" fill="#f9fbfb" fill-rule="evenodd"/><path d="M -0 200.002 L -0 400.005 200.250 399.752 L 400.500 399.500 400.752 199.750 L 401.005 0 200.502 0 L 0 0 -0 200.002 M 0.490 200.500 C 0.490 310.500, 0.607 355.352, 0.750 300.170 C 0.893 244.989, 0.893 154.989, 0.750 100.170 C 0.607 45.352, 0.490 90.500, 0.490 200.500 M 134.182 51.750 C 121.309 78.892, 123.956 102.140, 142.234 122.469 L 148.500 129.438 142.242 124.969 C 122.516 110.883, 119.235 108.844, 113.406 107.044 C 106.852 105.019, 91.142 102.524, 90.293 103.373 C 89.399 104.268, 93.159 114.321, 97.735 123.266 C 108.667 144.637, 126.175 156.796, 156.500 164.077 C 165.823 166.315, 167.162 166.821, 162.500 166.343 C 159.200 166.004, 150.650 164.200, 143.500 162.333 C 119.076 155.957, 112.177 154.751, 103.457 155.335 C 96.232 155.819, 84 159.211, 84 160.731 C 84 161.054, 85.834 163.748, 88.076 166.717 C 95.886 177.062, 109.434 185.148, 125.791 189.230 C 132.790 190.977, 137.543 191.413, 150 191.452 C 158.525 191.478, 167.525 191.179, 170 190.787 C 173.767 190.190, 174.093 190.255, 172 191.187 C 170.554 191.830, 159.386 192.588, 145.500 192.983 C 123.147 193.620, 121.037 193.841, 114.758 196.206 C 106.501 199.317, 98.416 204.135, 92.194 209.654 L 87.500 213.817 90.211 214.869 C 96.384 217.264, 110.916 219.186, 122.922 219.194 C 137.922 219.205, 151.588 217.072, 165.750 212.511 C 171.387 210.695, 176 209.381, 176 209.591 C 176 210.246, 168.945 213.057, 157.500 216.961 C 136.494 224.129, 125.977 231.023, 121.032 240.869 C 117.994 246.919, 118.951 247.528, 129.176 246.043 C 143.136 244.016, 156.836 238.370, 171.254 228.701 C 174.964 226.213, 178 224.348, 178 224.557 C 178 225.475, 166.669 233.149, 157.572 238.392 C 152.111 241.540, 145.906 245.490, 143.784 247.171 C 139.151 250.840, 136 256.625, 136 261.460 C 136 265.840, 136.969 265.929, 147.698 262.526 C 158.861 258.985, 167.296 253.693, 176.810 244.262 C 181.380 239.730, 184.109 237.480, 182.874 239.262 C 181.639 241.043, 176.438 246.606, 171.316 251.624 C 161.450 261.290, 159 265.364, 159 272.104 L 159 276.272 163.750 275.634 C 172.192 274.500, 180.680 269.468, 190 260.071 C 194.675 255.357, 200.196 248.575, 202.269 245 C 205.673 239.130, 205.967 238.064, 205.303 234 C 204.198 227.235, 204.687 219.556, 206.628 213.196 L 208.367 207.500 209.172 215 C 211.102 232.985, 218.912 249.574, 231.947 263.382 C 236.482 268.185, 237.042 269.127, 235 268.518 C 226.862 266.094, 214.969 256.709, 211.477 249.955 C 210.636 248.330, 209.623 247.001, 209.224 247.002 C 208.826 247.004, 207.150 249.589, 205.500 252.748 C 200.096 263.093, 185.440 276.748, 173 283.028 L 168.500 285.300 177.467 287.682 C 200.938 293.917, 224.769 307.963, 236.133 322.258 C 242.061 329.715, 246.704 340.134, 248.272 349.500 L 249.612 357.500 251.774 351 C 255.212 340.665, 256.125 335.167, 256.128 324.792 C 256.130 316.093, 255.714 313.857, 252.130 303.292 C 249.929 296.806, 247.848 289.250, 247.505 286.500 C 246.569 278.998, 248.571 268.447, 252.428 260.563 L 255.820 253.626 252.049 248.063 C 243.729 235.793, 239.212 223.758, 238.325 211.500 C 237.821 204.536, 239.252 192, 240.550 192 C 240.775 192, 242.751 193.944, 244.941 196.320 C 252.381 204.391, 264.291 209, 277.710 209 L 285 209 285 215.290 C 285 226.414, 288.808 237.266, 295.688 245.751 C 301.555 252.985, 302.986 252.751, 299.295 245.161 C 294.174 234.628, 291.707 222.641, 291.595 207.750 L 291.500 195 283.910 195 C 274.154 195, 261.934 191.882, 256.054 187.891 C 253.549 186.191, 252.290 185.058, 253.256 185.371 C 256.096 186.294, 276.060 189.812, 281.555 190.357 C 289.409 191.138, 289.624 190.657, 286.113 180.179 C 282.507 169.416, 277.650 159.488, 270.619 148.513 L 265.503 140.525 264.315 148.323 C 263.661 152.611, 262.949 156.653, 262.732 157.303 C 262.515 157.954, 259.940 153.819, 257.009 148.113 C 253.104 140.510, 249.865 135.851, 244.880 130.664 C 241.139 126.772, 237.875 123.793, 237.626 124.044 C 237.377 124.295, 237.565 126.525, 238.043 129 C 239.073 134.327, 239.245 143.527, 238.394 147.779 C 237.812 150.692, 237.641 150.515, 233.949 143.154 C 229.694 134.670, 221.212 125.216, 212.735 119.507 C 209.870 117.578, 207.250 116, 206.912 116 C 206.574 116, 207.528 118.587, 209.031 121.750 C 214.430 133.108, 217.174 143.757, 217.735 155.531 C 218.324 167.912, 217.296 174.362, 213.323 183.215 C 210.383 189.767, 209.330 190.203, 210.946 184.199 C 213.059 176.352, 213.921 165.506, 212.967 158.767 C 210.323 140.099, 202.200 129.252, 176.157 109.615 C 158.839 96.556, 151.866 90.165, 146.802 82.708 C 140.249 73.059, 138.577 67.302, 138.536 54.250 C 138.516 48.062, 138.462 43, 138.416 43 C 138.370 43, 136.464 46.938, 134.182 51.750 M 183.520 97.557 C 179.131 98.384, 175.221 99.384, 174.831 99.780 C 174.441 100.176, 178.516 103.265, 183.887 106.644 C 191.415 111.380, 194.267 112.672, 196.327 112.278 C 199.336 111.703, 199.687 110.291, 197.532 107.441 C 194.820 103.856, 195.959 103.957, 204.034 108.017 C 210.711 111.374, 223.206 114.829, 229.225 114.982 C 229.624 114.992, 229.499 113.813, 228.947 112.361 C 228.395 110.910, 228.158 109.509, 228.420 109.247 C 228.681 108.985, 231.506 111.024, 234.698 113.777 C 237.889 116.530, 243.650 120.382, 247.500 122.338 C 251.350 124.294, 255.850 126.815, 257.500 127.940 L 260.500 129.987 261 125.888 L 261.500 121.789 266.472 130.145 C 269.206 134.740, 273.744 141.200, 276.557 144.500 C 292.744 163.491, 299.178 180.195, 300.931 207.784 C 301.831 221.950, 304.342 234.095, 308.143 242.668 L 310.286 247.500 312.180 241.500 C 317.028 226.144, 318.309 205.877, 315.474 189.381 C 311.355 165.409, 300.800 145.428, 283.049 128 C 268.343 113.561, 252.081 104.401, 231.344 98.876 C 220.823 96.073, 195.160 95.366, 183.520 97.557 M 106.583 147.839 L 105.077 150.751 108.789 151.364 C 115.184 152.422, 116.441 152.236, 114.961 150.453 C 114.255 149.603, 112.420 148.011, 110.883 146.917 L 108.089 144.927 106.583 147.839 M 93.651 187.250 C 93.334 189.588, 92.782 193.639, 92.423 196.254 L 91.772 201.007 101.303 196.254 C 106.546 193.639, 110.872 191.261, 110.917 190.969 C 111.013 190.358, 96.406 183, 95.097 183 C 94.619 183, 93.968 184.912, 93.651 187.250 M 245.017 209.330 C 245.095 219.025, 252.207 236.609, 260.434 247.446 L 264.948 253.392 262.902 256.446 C 261.776 258.126, 259.650 261.975, 258.178 265 C 255.741 270.006, 255.503 271.534, 255.529 282 C 255.555 292.657, 255.793 294.060, 258.766 301.135 C 260.531 305.334, 262.441 312.057, 263.011 316.075 C 263.580 320.093, 264.251 323.584, 264.501 323.834 C 265.207 324.540, 271.591 319.877, 273.080 317.567 C 273.898 316.300, 274.430 312.389, 274.457 307.456 C 274.505 298.504, 276.219 294.485, 280.440 293.426 C 283.935 292.548, 284.265 290.468, 281.440 287.111 L 278.963 284.167 281.856 283.532 C 283.447 283.182, 285.744 281.837, 286.960 280.542 C 289.396 277.950, 288.957 276.081, 285.093 272.584 C 282.137 269.909, 282.526 267.741, 286.272 266 C 288.047 265.175, 290.362 262.890, 291.415 260.923 L 293.331 257.346 288.665 253.046 C 283.673 248.444, 278.341 238.874, 277.343 232.725 C 276.792 229.330, 276.942 229, 279.036 229 C 280.299 229, 281.037 228.704, 280.675 228.342 C 280.313 227.980, 280.576 226.994, 281.259 226.150 C 282.249 224.926, 282.247 224.768, 281.250 225.367 C 280.532 225.799, 280 225.616, 280 224.937 C 280 224.064, 279.601 224.086, 278.476 225.020 C 276.280 226.843, 275.986 226.009, 277.091 221.091 C 277.629 218.696, 277.941 216.645, 277.785 216.534 C 277.628 216.423, 272.818 215.583, 267.096 214.667 C 260.220 213.567, 254.709 212.011, 250.846 210.081 C 245.081 207.200, 245 207.190, 245.017 209.330 M 93.383 227.826 C 93.735 230.481, 95.354 236.893, 96.982 242.076 C 110.058 283.718, 145.420 313.688, 188.998 320.060 C 197.429 321.293, 222.448 320.901, 223.802 319.514 C 224.906 318.385, 217.511 312.513, 210.191 308.705 C 204.827 305.915, 201.573 305.003, 193.785 304.107 C 154.231 299.557, 122.681 272.638, 111.659 234.035 L 109.242 225.569 102.371 224.364 C 92.066 222.555, 92.653 222.329, 93.383 227.826" stroke="none" fill="#04c4d4" fill-rule="evenodd"/></svg>