<svg xmlns="http://www.w3.org/2000/svg" width="480" height="480" viewBox="0 0 480 480" version="1.1"><path d="M 282.500 121.415 C 194.001 215.122, 164.724 246, 164.375 246 C 164.169 246, 164 214.500, 164 176 L 164 106 183.889 106 C 199.158 106, 203.767 106.290, 203.731 107.250 C 203.706 107.938, 203.756 120.088, 203.842 134.250 L 204 160 217.781 160 L 231.563 160 237.281 154.221 C 240.427 151.043, 243 148.118, 243 147.721 C 243 147.324, 236.925 147, 229.500 147 L 216 147 216 119.500 L 216 92 184 92 L 152 92 152 185.227 L 152 278.455 154.367 275.977 C 155.669 274.615, 177.125 251.900, 202.046 225.500 C 272.239 151.144, 278.911 144.104, 288 134.791 C 292.675 130.001, 298.508 123.813, 300.962 121.041 C 303.417 118.268, 305.779 116, 306.212 116 C 306.646 116, 307 147.275, 307 185.500 L 307 255 287 255 L 267 255 267 228.500 L 267 202 252.935 202 L 238.870 202 233.435 207.702 C 230.446 210.838, 228 213.763, 228 214.202 C 228 214.641, 233.843 215, 240.984 215 L 253.967 215 254.234 241.750 L 254.500 268.500 287.250 268.764 L 320 269.027 320 176.573 C 320 125.723, 319.663 83.933, 319.250 83.707 C 318.837 83.482, 302.300 100.450, 282.500 121.415 M 101 344.821 L 101 370.643 106 370.871 L 111 371.099 111 360.049 L 111 349 123.250 348.884 C 129.988 348.820, 137.075 348.708, 139 348.634 L 142.500 348.500 143 359.500 L 143.500 370.500 148 370.500 L 152.500 370.500 152.500 345 L 152.500 319.500 147.750 319.195 L 143 318.890 143 329.471 L 143 340.051 127.250 339.775 L 111.500 339.500 111.500 329.249 L 111.500 318.997 106.250 318.999 L 101 319 101 344.821 M 176.025 319.750 C 176.055 320.639, 193.879 346.126, 196.906 349.607 C 198.715 351.688, 199 353.306, 199 361.508 L 199 371 203.500 371 L 208 371 208 361.850 L 208 352.700 215.830 341.600 C 229.373 322.403, 231 320.034, 231 319.510 C 231 319.230, 228.603 319, 225.674 319 C 219.464 319, 219.197 319.229, 210.502 332 C 207.319 336.675, 204.405 340.852, 204.026 341.282 C 203.401 341.990, 196.255 332.332, 191.674 324.587 C 190.669 322.889, 189.121 320.938, 188.233 320.250 C 186.512 318.918, 175.983 318.487, 176.025 319.750 M 257.992 327.640 C 255.796 332.392, 254 336.415, 254 336.581 C 254 336.746, 250.850 344.072, 247 352.860 C 243.150 361.649, 240 369.325, 240 369.920 C 240 370.533, 241.937 371, 244.477 371 C 250.054 371, 249.553 371.766, 260.013 347.250 C 264.530 336.663, 268.535 328, 268.912 328 C 269.290 328, 270.199 329.688, 270.934 331.750 C 271.668 333.813, 273.145 337.525, 274.216 340 C 275.286 342.475, 276.801 345.978, 277.581 347.784 C 278.362 349.590, 279 351.278, 279 351.534 C 279 351.790, 275.894 352, 272.098 352 C 265.476 352, 265.155 352.112, 264.200 354.750 C 263.653 356.262, 262.885 358.288, 262.495 359.250 C 261.846 360.851, 262.687 361, 272.376 361 L 282.966 361 285.500 366 C 288.030 370.992, 288.042 371, 293.017 371 C 297.283 371, 298 370.721, 298 369.059 C 298 367.991, 297.600 366.871, 297.111 366.568 C 296.622 366.266, 295.937 364.886, 295.589 363.500 C 295.242 362.115, 292.458 355.704, 289.404 349.253 C 286.350 342.802, 282.939 335.268, 281.825 332.512 C 280.710 329.755, 278.952 325.879, 277.918 323.898 C 276.884 321.916, 276.329 320.004, 276.686 319.648 C 277.042 319.291, 273.880 319, 269.658 319 L 261.983 319 257.992 327.640 M 324.384 320.434 C 322.370 321.311, 320.868 322.941, 320.134 325.044 C 318.737 329.053, 318.675 337.290, 320.006 342.081 C 321.677 348.096, 323.307 348.480, 348.750 348.840 L 360 349 359.985 353.750 C 359.976 356.363, 359.604 359.075, 359.159 359.778 C 358.546 360.743, 354.693 360.987, 343.424 360.778 C 328.805 360.506, 328.493 360.454, 328.180 358.250 C 327.904 356.303, 327.264 356, 323.430 356 L 319 356 319 360.066 C 319 369.522, 322.373 371, 343.948 371 C 367.766 371, 370.574 369.251, 370.433 354.500 C 370.309 341.484, 367.832 340, 346.232 340 C 336.029 340, 331.025 339.625, 330.200 338.800 C 328.844 337.444, 328.609 331.164, 329.842 329.221 C 330.453 328.259, 334.110 328.011, 344.577 328.221 C 358.252 328.495, 358.506 328.541, 358.826 330.802 C 359.121 332.881, 359.604 333.074, 363.826 332.802 C 368.280 332.514, 368.515 332.349, 368.810 329.296 C 369.229 324.961, 367.510 322.111, 363.452 320.415 C 358.797 318.470, 328.863 318.485, 324.384 320.434" stroke="none" fill="#f9f6f5" fill-rule="evenodd"/><path d="M 0 240.002 L 0 480.004 240.250 479.752 L 480.500 479.500 480.752 239.750 L 481.004 0 240.502 0 L 0 0 0 240.002 M 0.492 240.500 C 0.492 372.500, 0.608 426.351, 0.750 360.170 C 0.892 293.988, 0.892 185.988, 0.750 120.170 C 0.608 54.351, 0.492 108.500, 0.492 240.500 M 282.500 121.415 C 194.001 215.122, 164.724 246, 164.375 246 C 164.169 246, 164 214.500, 164 176 L 164 106 183.889 106 C 199.158 106, 203.767 106.290, 203.731 107.250 C 203.706 107.938, 203.756 120.088, 203.842 134.250 L 204 160 217.781 160 L 231.563 160 237.281 154.221 C 240.427 151.043, 243 148.118, 243 147.721 C 243 147.324, 236.925 147, 229.500 147 L 216 147 216 119.500 L 216 92 184 92 L 152 92 152 185.227 L 152 278.455 154.367 275.977 C 155.669 274.615, 177.125 251.900, 202.046 225.500 C 272.239 151.144, 278.911 144.104, 288 134.791 C 292.675 130.001, 298.508 123.813, 300.962 121.041 C 303.417 118.268, 305.779 116, 306.212 116 C 306.646 116, 307 147.275, 307 185.500 L 307 255 287 255 L 267 255 267 228.500 L 267 202 252.935 202 L 238.870 202 233.435 207.702 C 230.446 210.838, 228 213.763, 228 214.202 C 228 214.641, 233.843 215, 240.984 215 L 253.967 215 254.234 241.750 L 254.500 268.500 287.250 268.764 L 320 269.027 320 176.573 C 320 125.723, 319.663 83.933, 319.250 83.707 C 318.837 83.482, 302.300 100.450, 282.500 121.415 M 101 344.821 L 101 370.643 106 370.871 L 111 371.099 111 360.049 L 111 349 123.250 348.884 C 129.988 348.820, 137.075 348.708, 139 348.634 L 142.500 348.500 143 359.500 L 143.500 370.500 148 370.500 L 152.500 370.500 152.500 345 L 152.500 319.500 147.750 319.195 L 143 318.890 143 329.471 L 143 340.051 127.250 339.775 L 111.500 339.500 111.500 329.249 L 111.500 318.997 106.250 318.999 L 101 319 101 344.821 M 176.025 319.750 C 176.055 320.639, 193.879 346.126, 196.906 349.607 C 198.715 351.688, 199 353.306, 199 361.508 L 199 371 203.500 371 L 208 371 208 361.850 L 208 352.700 215.830 341.600 C 229.373 322.403, 231 320.034, 231 319.510 C 231 319.230, 228.603 319, 225.674 319 C 219.464 319, 219.197 319.229, 210.502 332 C 207.319 336.675, 204.405 340.852, 204.026 341.282 C 203.401 341.990, 196.255 332.332, 191.674 324.587 C 190.669 322.889, 189.121 320.938, 188.233 320.250 C 186.512 318.918, 175.983 318.487, 176.025 319.750 M 257.992 327.640 C 255.796 332.392, 254 336.415, 254 336.581 C 254 336.746, 250.850 344.072, 247 352.860 C 243.150 361.649, 240 369.325, 240 369.920 C 240 370.533, 241.937 371, 244.477 371 C 250.054 371, 249.553 371.766, 260.013 347.250 C 264.530 336.663, 268.535 328, 268.912 328 C 269.290 328, 270.199 329.688, 270.934 331.750 C 271.668 333.813, 273.145 337.525, 274.216 340 C 275.286 342.475, 276.801 345.978, 277.581 347.784 C 278.362 349.590, 279 351.278, 279 351.534 C 279 351.790, 275.894 352, 272.098 352 C 265.476 352, 265.155 352.112, 264.200 354.750 C 263.653 356.262, 262.885 358.288, 262.495 359.250 C 261.846 360.851, 262.687 361, 272.376 361 L 282.966 361 285.500 366 C 288.030 370.992, 288.042 371, 293.017 371 C 297.283 371, 298 370.721, 298 369.059 C 298 367.991, 297.600 366.871, 297.111 366.568 C 296.622 366.266, 295.937 364.886, 295.589 363.500 C 295.242 362.115, 292.458 355.704, 289.404 349.253 C 286.350 342.802, 282.939 335.268, 281.825 332.512 C 280.710 329.755, 278.952 325.879, 277.918 323.898 C 276.884 321.916, 276.329 320.004, 276.686 319.648 C 277.042 319.291, 273.880 319, 269.658 319 L 261.983 319 257.992 327.640 M 324.384 320.434 C 322.370 321.311, 320.868 322.941, 320.134 325.044 C 318.737 329.053, 318.675 337.290, 320.006 342.081 C 321.677 348.096, 323.307 348.480, 348.750 348.840 L 360 349 359.985 353.750 C 359.976 356.363, 359.604 359.075, 359.159 359.778 C 358.546 360.743, 354.693 360.987, 343.424 360.778 C 328.805 360.506, 328.493 360.454, 328.180 358.250 C 327.904 356.303, 327.264 356, 323.430 356 L 319 356 319 360.066 C 319 369.522, 322.373 371, 343.948 371 C 367.766 371, 370.574 369.251, 370.433 354.500 C 370.309 341.484, 367.832 340, 346.232 340 C 336.029 340, 331.025 339.625, 330.200 338.800 C 328.844 337.444, 328.609 331.164, 329.842 329.221 C 330.453 328.259, 334.110 328.011, 344.577 328.221 C 358.252 328.495, 358.506 328.541, 358.826 330.802 C 359.121 332.881, 359.604 333.074, 363.826 332.802 C 368.280 332.514, 368.515 332.349, 368.810 329.296 C 369.229 324.961, 367.510 322.111, 363.452 320.415 C 358.797 318.470, 328.863 318.485, 324.384 320.434" stroke="none" fill="#d21c2b" fill-rule="evenodd"/></svg>