<svg xmlns="http://www.w3.org/2000/svg" width="754" height="600" viewBox="0 0 754 600" version="1.1"><path d="M 360.500 4.640 C 326.946 8.810, 314.538 13.219, 272.649 35.860 C 247.151 49.642, 238.205 55.977, 221.645 71.978 C 190.414 102.154, 171.486 138.994, 165.629 181 C 164.262 190.803, 163.842 217.181, 165.034 218.369 C 165.328 218.662, 172.973 216.733, 182.024 214.083 L 198.479 209.265 198.646 190.382 C 198.870 165.048, 200.976 151.611, 208.178 129.579 C 214.796 109.335, 225.801 88.953, 238.621 73.198 C 242.603 68.304, 242.977 68.073, 243.466 70.198 C 243.757 71.464, 245.157 78.125, 246.578 85 C 255.220 126.834, 270.023 173.465, 288.167 216 C 298.709 240.715, 321.835 286.549, 329.143 297.210 C 330.164 298.700, 331 300.167, 331 300.470 C 331 301.202, 343.333 320.995, 351.886 333.991 C 359.909 346.182, 373.009 364.763, 374.387 365.906 C 376.156 367.374, 404.181 367.648, 407.941 366.233 L 410.381 365.315 406.941 361.830 C 402.554 357.387, 392.111 346.069, 389.490 342.917 C 375.847 326.508, 349.534 292.120, 350.162 291.519 C 350.348 291.341, 359.078 287.158, 369.563 282.223 C 392.187 271.574, 409.731 262.133, 423.690 253.097 L 433.881 246.500 431.375 240 C 426.386 227.058, 423.746 220.961, 422.908 220.443 C 422.437 220.152, 417.653 223.209, 412.276 227.236 C 395.330 239.928, 370.212 255.369, 350.129 265.442 C 334.959 273.050, 337.189 273.556, 329.191 260.696 C 316.006 239.495, 299 209.057, 299 206.658 C 299 205.745, 301.654 204.161, 305.900 202.538 C 316.197 198.603, 344.926 184.239, 358 176.488 C 370.071 169.332, 391 155.251, 391 154.286 C 391 153.975, 389.650 151.527, 388 148.846 C 386.350 146.164, 385 143.639, 385 143.235 C 385 142.238, 375.200 127, 374.559 127 C 374.279 127, 367.851 131.659, 360.275 137.354 C 335.537 155.949, 293.159 183, 288.766 183 C 286.941 183, 283.492 176.071, 274.830 155 C 264.220 129.194, 256.777 107.574, 249.390 81.114 L 244.816 64.727 253.158 56.325 C 257.746 51.703, 264.724 45.170, 268.665 41.808 C 275.784 35.733, 275.939 35.662, 292.451 30.985 L 309.072 26.276 311.103 28.888 C 312.220 30.325, 314.819 33.300, 316.878 35.500 C 325.103 44.287, 343.029 67.337, 363.772 95.799 C 369.013 102.990, 382.719 124.139, 389.501 135.500 C 425.689 196.119, 450.225 253.365, 470.077 323.500 C 471.790 329.550, 473.351 334.665, 473.546 334.867 C 473.741 335.069, 475.948 333.044, 478.451 330.367 C 483.061 325.437, 490 313.188, 490 309.982 C 490 307.523, 476.988 270.148, 472.773 260.500 C 470.850 256.100, 467.840 249.448, 466.083 245.718 C 462.916 238.993, 460 231.453, 460 229.986 C 460 229.567, 464.387 225.915, 469.750 221.871 C 481.791 212.790, 500.440 197.315, 512.856 186.102 L 522.218 177.646 521.544 171.573 C 520.511 162.268, 518.063 153.246, 514.368 145.122 C 510.508 136.636, 511.427 136.501, 501.614 147 C 485.678 164.051, 467.636 181.474, 451.802 195.101 L 444.853 201.083 443.176 198.784 C 442.254 197.520, 441.011 195.589, 440.413 194.493 C 439.479 192.781, 422.370 164.500, 418 157.444 C 417.175 156.112, 414.661 152.179, 412.413 148.705 L 408.326 142.387 417.035 135.444 C 429.772 125.288, 441.612 114.465, 458.268 97.753 C 471.780 84.195, 472.938 82.752, 471.886 80.788 C 469.704 76.710, 456.484 64.491, 451.179 61.649 L 445.858 58.798 425.562 79.649 C 406.605 99.124, 391.104 113.500, 389.061 113.500 C 388.576 113.500, 386.749 111.701, 385.001 109.501 C 381.560 105.171, 380.851 104.322, 360.766 80.500 C 346.644 63.750, 329.369 44.903, 318.296 34.168 C 314.692 30.673, 312.154 27.461, 312.632 27 C 314.876 24.841, 342.610 22.609, 357 23.430 C 386.018 25.085, 406.273 30.411, 430 42.625 C 476.826 66.730, 515.364 113.167, 527.540 160.155 C 530.548 171.762, 533.037 189.406, 533.655 203.500 C 535.447 244.343, 524.066 284.620, 501.596 316.955 C 490.811 332.476, 469.387 354.464, 457.346 362.370 C 452.482 365.564, 435.193 370.440, 419 373.186 C 403.863 375.752, 375.694 376.204, 361 374.116 C 341.365 371.327, 312.408 362.505, 301.500 355.989 C 299.850 355.004, 296.700 353.203, 294.500 351.987 C 285.640 347.089, 271.288 336.274, 262.666 327.997 L 253.540 319.237 259.520 318.086 C 274.449 315.213, 292.770 310.307, 312.775 303.824 L 322.051 300.818 319.860 297.159 C 318.656 295.147, 317.178 292.825, 316.576 292 C 315.975 291.175, 314.649 288.851, 313.631 286.837 L 311.778 283.173 305.139 285.738 C 290.984 291.206, 266.779 299.149, 251 303.504 C 236.916 307.391, 203.508 314.678, 192 316.373 C 163.781 320.531, 140.326 322.281, 111.271 322.398 C 97.395 322.454, 87.092 322.781, 88.375 323.124 C 96.729 325.361, 121.801 326.500, 162.652 326.500 L 206.804 326.500 208.978 329.673 C 212.293 334.511, 229.518 350.825, 238.533 357.665 C 259.204 373.348, 280.529 384.084, 301.657 389.445 C 349.590 401.606, 405.329 395.035, 442.500 372.842 C 446.350 370.543, 454.496 366.109, 460.603 362.988 C 482.757 351.667, 496.104 341.981, 513.576 324.547 C 546.515 291.681, 562.833 257.982, 568.075 212 C 569.401 200.369, 568.815 171.715, 567.032 161 C 564.231 144.167, 558.427 124.860, 552.754 113.500 C 548.761 105.504, 538.247 87.371, 535.070 83 C 526.269 70.890, 510.144 53.788, 498.500 44.210 C 476.527 26.138, 447.405 13.115, 414 6.424 C 405.988 4.820, 368.987 3.586, 360.500 4.640 M 260 197.140 C 256.425 198.786, 247.200 202.631, 239.500 205.685 C 204.687 219.493, 165.738 229.871, 127.790 235.450 C 117.421 236.974, 115.089 237.259, 99 238.965 C 88.880 240.039, 137.091 239.998, 153.482 238.920 C 160.073 238.486, 165.559 238.226, 165.675 238.341 C 165.790 238.457, 166.772 242.616, 167.856 247.584 C 171.040 262.172, 176.534 277.576, 183.593 291.706 C 187.221 298.970, 190.784 305.406, 191.510 306.009 C 192.480 306.813, 195.713 306.560, 203.666 305.058 C 217.001 302.538, 232.258 298.952, 233.203 298.116 C 233.590 297.773, 231.411 293.670, 228.360 288.997 C 223.594 281.697, 217.787 270.523, 211.731 257 C 210.869 255.075, 208.912 249.305, 207.382 244.178 C 205.315 237.252, 204.869 234.431, 205.646 233.199 C 206.360 232.068, 210.860 230.688, 219.792 228.860 C 242.544 224.204, 273.862 215.471, 276.136 213.149 C 276.925 212.342, 268.426 193.972, 267.310 194.074 C 266.865 194.115, 263.575 195.495, 260 197.140 M 308 449.604 C 304.425 449.791, 291.375 450.424, 279 451.011 C 191.259 455.175, 111.460 464.642, 25 481.144 C 3.577 485.233, -3.696 487.304, 8.226 485.920 C 47.247 481.391, 119.156 475.844, 182.500 472.478 C 188.550 472.156, 196.875 471.705, 201 471.476 C 230.729 469.824, 292.366 468.654, 353.500 468.583 C 418.055 468.509, 496.917 469.497, 503.146 470.458 C 504.441 470.658, 514.500 471.106, 525.500 471.454 C 536.500 471.801, 547.975 472.276, 551 472.509 C 554.025 472.742, 561.900 473.194, 568.500 473.515 C 575.100 473.835, 583.650 474.291, 587.500 474.527 C 620.826 476.573, 640.714 477.933, 661 479.555 C 671.175 480.368, 682.650 481.284, 686.500 481.590 C 693.229 482.124, 729.076 485.443, 741.500 486.682 C 744.800 487.011, 747.268 487.023, 746.986 486.709 C 746.542 486.217, 706.988 478.018, 698.500 476.659 C 696.850 476.395, 687.625 474.808, 678 473.133 C 642.143 466.892, 597.598 461.010, 556 457.025 C 537.575 455.260, 509.083 453.116, 489.500 452.023 C 479.050 451.439, 467.575 450.727, 464 450.441 C 456.504 449.840, 317.755 449.096, 308 449.604 M 204 505.620 C 194.299 507.694, 185.813 512.248, 180.650 518.151 C 172.292 527.704, 169 537.507, 169 552.839 C 169 582.062, 186.093 599.047, 215.432 598.976 C 226.917 598.948, 231.718 598.085, 241.250 594.337 L 248 591.682 248 580.341 C 248 571.179, 247.726 569, 246.571 569 C 245.786 569, 244.509 569.633, 243.735 570.408 C 240.912 573.231, 231.326 578.816, 227.464 579.888 C 215.024 583.342, 203.056 578.825, 197.292 568.500 C 194.684 563.829, 194.501 562.743, 194.517 552 C 194.533 541.915, 194.820 539.961, 196.856 536.116 C 201.659 527.045, 208.430 523.057, 219.090 523.022 C 224.525 523.004, 226.804 523.560, 232.090 526.195 C 235.616 527.952, 239.850 530.650, 241.500 532.190 C 243.150 533.731, 245.287 534.993, 246.250 534.995 C 247.815 535, 248 533.790, 248 523.547 L 248 512.094 244.750 510.587 C 240.881 508.794, 233.682 506.425, 229.476 505.561 C 223.096 504.251, 210.263 504.281, 204 505.620 M 74 514.500 L 74 523 81.500 523 L 89 523 89 551.956 L 89 580.912 81.750 581.206 L 74.500 581.500 74.209 589.766 L 73.919 598.033 100.709 597.766 L 127.500 597.500 127.790 589.250 L 128.081 581 120.540 581 L 113 581 113 552 L 113 523 120.500 523 L 128 523 128 514.500 L 128 506 101 506 L 74 506 74 514.500 M 310.054 520.250 C 305.069 533.724, 299.255 549.508, 291.358 571 C 289.438 576.225, 286.547 583.965, 284.934 588.199 C 283.320 592.434, 282 596.372, 282 596.949 C 282 597.625, 286.257 598, 293.918 598 L 305.835 598 309.008 588.476 L 312.181 578.952 328.729 579.226 L 345.278 579.500 348.389 588.500 L 351.500 597.500 363.750 597.781 C 371.063 597.948, 376 597.677, 376 597.106 C 376 596.162, 372.445 586.385, 352.778 533.250 L 342.693 506 329.009 506 L 315.325 506 310.054 520.250 M 416 552.034 L 416 598.068 426.750 597.784 L 437.500 597.500 438 566.845 L 438.500 536.189 457.463 567.095 L 476.425 598 487.713 598 L 499 598 499 552 L 499 506 488.017 506 L 477.034 506 476.767 531.068 L 476.500 556.136 460.602 531.068 L 444.704 506 430.352 506 L 416 506 416 552.034 M 549 552.006 L 549 598.066 560.250 597.783 L 571.500 597.500 572 567.625 L 572.500 537.751 582.672 554.125 C 588.267 563.131, 596.592 576.675, 601.172 584.223 L 609.500 597.946 621.250 597.973 L 633 598 633 552 L 633 506 622.017 506 L 611.034 506 610.767 531.611 L 610.500 557.222 594.346 531.861 L 578.192 506.500 563.596 506.223 L 549 505.947 549 552.006 M 323.210 546.958 L 318.106 562 328.553 562 C 334.299 562, 339 561.734, 339 561.410 C 339 560.147, 329.751 533.455, 329.054 532.708 C 328.648 532.272, 326.018 538.684, 323.210 546.958" stroke="none" fill="#274a5b" fill-rule="evenodd"/><path d="M 360.500 4.640 C 326.946 8.810, 314.538 13.219, 272.649 35.860 C 247.151 49.642, 238.205 55.977, 221.645 71.978 C 190.414 102.154, 171.486 138.994, 165.629 181 C 164.262 190.803, 163.842 217.181, 165.034 218.369 C 165.328 218.662, 172.973 216.733, 182.024 214.083 L 198.479 209.265 198.646 190.382 C 198.870 165.048, 200.976 151.611, 208.178 129.579 C 214.796 109.335, 225.801 88.953, 238.621 73.198 C 242.603 68.304, 242.977 68.073, 243.466 70.198 C 243.757 71.464, 245.157 78.125, 246.578 85 C 255.220 126.834, 270.023 173.465, 288.167 216 C 298.709 240.715, 321.835 286.549, 329.143 297.210 C 330.164 298.700, 331 300.167, 331 300.470 C 331 301.202, 343.333 320.995, 351.886 333.991 C 359.909 346.182, 373.009 364.763, 374.387 365.906 C 376.156 367.374, 404.181 367.648, 407.941 366.233 L 410.381 365.315 406.941 361.830 C 402.554 357.387, 392.111 346.069, 389.490 342.917 C 375.847 326.508, 349.534 292.120, 350.162 291.519 C 350.348 291.341, 359.078 287.158, 369.563 282.223 C 392.187 271.574, 409.731 262.133, 423.690 253.097 L 433.881 246.500 431.375 240 C 426.386 227.058, 423.746 220.961, 422.908 220.443 C 422.437 220.152, 417.653 223.209, 412.276 227.236 C 395.330 239.928, 370.212 255.369, 350.129 265.442 C 334.959 273.050, 337.189 273.556, 329.191 260.696 C 316.006 239.495, 299 209.057, 299 206.658 C 299 205.745, 301.654 204.161, 305.900 202.538 C 316.197 198.603, 344.926 184.239, 358 176.488 C 370.071 169.332, 391 155.251, 391 154.286 C 391 153.975, 389.650 151.527, 388 148.846 C 386.350 146.164, 385 143.639, 385 143.235 C 385 142.238, 375.200 127, 374.559 127 C 374.279 127, 367.851 131.659, 360.275 137.354 C 335.537 155.949, 293.159 183, 288.766 183 C 286.941 183, 283.492 176.071, 274.830 155 C 264.220 129.194, 256.777 107.574, 249.390 81.114 L 244.816 64.727 253.158 56.325 C 257.746 51.703, 264.724 45.170, 268.665 41.808 C 275.784 35.733, 275.939 35.662, 292.451 30.985 L 309.072 26.276 311.103 28.888 C 312.220 30.325, 314.819 33.300, 316.878 35.500 C 325.103 44.287, 343.029 67.337, 363.772 95.799 C 369.013 102.990, 382.719 124.139, 389.501 135.500 C 425.689 196.119, 450.225 253.365, 470.077 323.500 C 471.790 329.550, 473.351 334.665, 473.546 334.867 C 473.741 335.069, 475.948 333.044, 478.451 330.367 C 483.061 325.437, 490 313.188, 490 309.982 C 490 307.523, 476.988 270.148, 472.773 260.500 C 470.850 256.100, 467.840 249.448, 466.083 245.718 C 462.916 238.993, 460 231.453, 460 229.986 C 460 229.567, 464.387 225.915, 469.750 221.871 C 481.791 212.790, 500.440 197.315, 512.856 186.102 L 522.218 177.646 521.544 171.573 C 520.511 162.268, 518.063 153.246, 514.368 145.122 C 510.508 136.636, 511.427 136.501, 501.614 147 C 485.678 164.051, 467.636 181.474, 451.802 195.101 L 444.853 201.083 443.176 198.784 C 442.254 197.520, 441.011 195.589, 440.413 194.493 C 439.479 192.781, 422.370 164.500, 418 157.444 C 417.175 156.112, 414.661 152.179, 412.413 148.705 L 408.326 142.387 417.035 135.444 C 429.772 125.288, 441.612 114.465, 458.268 97.753 C 471.780 84.195, 472.938 82.752, 471.886 80.788 C 469.704 76.710, 456.484 64.491, 451.179 61.649 L 445.858 58.798 425.562 79.649 C 406.605 99.124, 391.104 113.500, 389.061 113.500 C 388.576 113.500, 386.749 111.701, 385.001 109.501 C 381.560 105.171, 380.851 104.322, 360.766 80.500 C 346.644 63.750, 329.369 44.903, 318.296 34.168 C 314.692 30.673, 312.154 27.461, 312.632 27 C 314.876 24.841, 342.610 22.609, 357 23.430 C 386.018 25.085, 406.273 30.411, 430 42.625 C 476.826 66.730, 515.364 113.167, 527.540 160.155 C 530.548 171.762, 533.037 189.406, 533.655 203.500 C 535.447 244.343, 524.066 284.620, 501.596 316.955 C 490.811 332.476, 469.387 354.464, 457.346 362.370 C 452.482 365.564, 435.193 370.440, 419 373.186 C 403.863 375.752, 375.694 376.204, 361 374.116 C 341.365 371.327, 312.408 362.505, 301.500 355.989 C 299.850 355.004, 296.700 353.203, 294.500 351.987 C 285.640 347.089, 271.288 336.274, 262.666 327.997 L 253.540 319.237 259.520 318.086 C 274.449 315.213, 292.770 310.307, 312.775 303.824 L 322.051 300.818 319.860 297.159 C 318.656 295.147, 317.178 292.825, 316.576 292 C 315.975 291.175, 314.649 288.851, 313.631 286.837 L 311.778 283.173 305.139 285.738 C 290.984 291.206, 266.779 299.149, 251 303.504 C 236.916 307.391, 203.508 314.678, 192 316.373 C 163.781 320.531, 140.326 322.281, 111.271 322.398 C 97.395 322.454, 87.092 322.781, 88.375 323.124 C 96.729 325.361, 121.801 326.500, 162.652 326.500 L 206.804 326.500 208.978 329.673 C 212.293 334.511, 229.518 350.825, 238.533 357.665 C 259.204 373.348, 280.529 384.084, 301.657 389.445 C 349.590 401.606, 405.329 395.035, 442.500 372.842 C 446.350 370.543, 454.496 366.109, 460.603 362.988 C 482.757 351.667, 496.104 341.981, 513.576 324.547 C 546.515 291.681, 562.833 257.982, 568.075 212 C 569.401 200.369, 568.815 171.715, 567.032 161 C 564.231 144.167, 558.427 124.860, 552.754 113.500 C 548.761 105.504, 538.247 87.371, 535.070 83 C 526.269 70.890, 510.144 53.788, 498.500 44.210 C 476.527 26.138, 447.405 13.115, 414 6.424 C 405.988 4.820, 368.987 3.586, 360.500 4.640 M 260 197.140 C 256.425 198.786, 247.200 202.631, 239.500 205.685 C 204.687 219.493, 165.738 229.871, 127.790 235.450 C 117.421 236.974, 115.089 237.259, 99 238.965 C 88.880 240.039, 137.091 239.998, 153.482 238.920 C 160.073 238.486, 165.559 238.226, 165.675 238.341 C 165.790 238.457, 166.772 242.616, 167.856 247.584 C 171.040 262.172, 176.534 277.576, 183.593 291.706 C 187.221 298.970, 190.784 305.406, 191.510 306.009 C 192.480 306.813, 195.713 306.560, 203.666 305.058 C 217.001 302.538, 232.258 298.952, 233.203 298.116 C 233.590 297.773, 231.411 293.670, 228.360 288.997 C 223.594 281.697, 217.787 270.523, 211.731 257 C 210.869 255.075, 208.912 249.305, 207.382 244.178 C 205.315 237.252, 204.869 234.431, 205.646 233.199 C 206.360 232.068, 210.860 230.688, 219.792 228.860 C 242.544 224.204, 273.862 215.471, 276.136 213.149 C 276.925 212.342, 268.426 193.972, 267.310 194.074 C 266.865 194.115, 263.575 195.495, 260 197.140 M 308 449.604 C 304.425 449.791, 291.375 450.424, 279 451.011 C 191.259 455.175, 111.460 464.642, 25 481.144 C 3.577 485.233, -3.696 487.304, 8.226 485.920 C 47.247 481.391, 119.156 475.844, 182.500 472.478 C 188.550 472.156, 196.875 471.705, 201 471.476 C 230.729 469.824, 292.366 468.654, 353.500 468.583 C 418.055 468.509, 496.917 469.497, 503.146 470.458 C 504.441 470.658, 514.500 471.106, 525.500 471.454 C 536.500 471.801, 547.975 472.276, 551 472.509 C 554.025 472.742, 561.900 473.194, 568.500 473.515 C 575.100 473.835, 583.650 474.291, 587.500 474.527 C 620.826 476.573, 640.714 477.933, 661 479.555 C 671.175 480.368, 682.650 481.284, 686.500 481.590 C 693.229 482.124, 729.076 485.443, 741.500 486.682 C 744.800 487.011, 747.268 487.023, 746.986 486.709 C 746.542 486.217, 706.988 478.018, 698.500 476.659 C 696.850 476.395, 687.625 474.808, 678 473.133 C 642.143 466.892, 597.598 461.010, 556 457.025 C 537.575 455.260, 509.083 453.116, 489.500 452.023 C 479.050 451.439, 467.575 450.727, 464 450.441 C 456.504 449.840, 317.755 449.096, 308 449.604 M 204 505.620 C 194.299 507.694, 185.813 512.248, 180.650 518.151 C 172.292 527.704, 169 537.507, 169 552.839 C 169 582.062, 186.093 599.047, 215.432 598.976 C 226.917 598.948, 231.718 598.085, 241.250 594.337 L 248 591.682 248 580.341 C 248 571.179, 247.726 569, 246.571 569 C 245.786 569, 244.509 569.633, 243.735 570.408 C 240.912 573.231, 231.326 578.816, 227.464 579.888 C 215.024 583.342, 203.056 578.825, 197.292 568.500 C 194.684 563.829, 194.501 562.743, 194.517 552 C 194.533 541.915, 194.820 539.961, 196.856 536.116 C 201.659 527.045, 208.430 523.057, 219.090 523.022 C 224.525 523.004, 226.804 523.560, 232.090 526.195 C 235.616 527.952, 239.850 530.650, 241.500 532.190 C 243.150 533.731, 245.287 534.993, 246.250 534.995 C 247.815 535, 248 533.790, 248 523.547 L 248 512.094 244.750 510.587 C 240.881 508.794, 233.682 506.425, 229.476 505.561 C 223.096 504.251, 210.263 504.281, 204 505.620 M 74 514.500 L 74 523 81.500 523 L 89 523 89 551.956 L 89 580.912 81.750 581.206 L 74.500 581.500 74.209 589.766 L 73.919 598.033 100.709 597.766 L 127.500 597.500 127.790 589.250 L 128.081 581 120.540 581 L 113 581 113 552 L 113 523 120.500 523 L 128 523 128 514.500 L 128 506 101 506 L 74 506 74 514.500 M 310.054 520.250 C 305.069 533.724, 299.255 549.508, 291.358 571 C 289.438 576.225, 286.547 583.965, 284.934 588.199 C 283.320 592.434, 282 596.372, 282 596.949 C 282 597.625, 286.257 598, 293.918 598 L 305.835 598 309.008 588.476 L 312.181 578.952 328.729 579.226 L 345.278 579.500 348.389 588.500 L 351.500 597.500 363.750 597.781 C 371.063 597.948, 376 597.677, 376 597.106 C 376 596.162, 372.445 586.385, 352.778 533.250 L 342.693 506 329.009 506 L 315.325 506 310.054 520.250 M 416 552.034 L 416 598.068 426.750 597.784 L 437.500 597.500 438 566.845 L 438.500 536.189 457.463 567.095 L 476.425 598 487.713 598 L 499 598 499 552 L 499 506 488.017 506 L 477.034 506 476.767 531.068 L 476.500 556.136 460.602 531.068 L 444.704 506 430.352 506 L 416 506 416 552.034 M 549 552.006 L 549 598.066 560.250 597.783 L 571.500 597.500 572 567.625 L 572.500 537.751 582.672 554.125 C 588.267 563.131, 596.592 576.675, 601.172 584.223 L 609.500 597.946 621.250 597.973 L 633 598 633 552 L 633 506 622.017 506 L 611.034 506 610.767 531.611 L 610.500 557.222 594.346 531.861 L 578.192 506.500 563.596 506.223 L 549 505.947 549 552.006 M 323.210 546.958 L 318.106 562 328.553 562 C 334.299 562, 339 561.734, 339 561.410 C 339 560.147, 329.751 533.455, 329.054 532.708 C 328.648 532.272, 326.018 538.684, 323.210 546.958" stroke="none" fill="#274a5b" fill-rule="evenodd"/><path d="M 360.500 4.640 C 326.946 8.810, 314.538 13.219, 272.649 35.860 C 247.151 49.642, 238.205 55.977, 221.645 71.978 C 190.414 102.154, 171.486 138.994, 165.629 181 C 164.262 190.803, 163.842 217.181, 165.034 218.369 C 165.328 218.662, 172.973 216.733, 182.024 214.083 L 198.479 209.265 198.646 190.382 C 198.870 165.048, 200.976 151.611, 208.178 129.579 C 214.796 109.335, 225.801 88.953, 238.621 73.198 C 242.603 68.304, 242.977 68.073, 243.466 70.198 C 243.757 71.464, 245.157 78.125, 246.578 85 C 255.220 126.834, 270.023 173.465, 288.167 216 C 298.709 240.715, 321.835 286.549, 329.143 297.210 C 330.164 298.700, 331 300.167, 331 300.470 C 331 301.202, 343.333 320.995, 351.886 333.991 C 359.909 346.182, 373.009 364.763, 374.387 365.906 C 376.156 367.374, 404.181 367.648, 407.941 366.233 L 410.381 365.315 406.941 361.830 C 402.554 357.387, 392.111 346.069, 389.490 342.917 C 375.847 326.508, 349.534 292.120, 350.162 291.519 C 350.348 291.341, 359.078 287.158, 369.563 282.223 C 392.187 271.574, 409.731 262.133, 423.690 253.097 L 433.881 246.500 431.375 240 C 426.386 227.058, 423.746 220.961, 422.908 220.443 C 422.437 220.152, 417.653 223.209, 412.276 227.236 C 395.330 239.928, 370.212 255.369, 350.129 265.442 C 334.959 273.050, 337.189 273.556, 329.191 260.696 C 316.006 239.495, 299 209.057, 299 206.658 C 299 205.745, 301.654 204.161, 305.900 202.538 C 316.197 198.603, 344.926 184.239, 358 176.488 C 370.071 169.332, 391 155.251, 391 154.286 C 391 153.975, 389.650 151.527, 388 148.846 C 386.350 146.164, 385 143.639, 385 143.235 C 385 142.238, 375.200 127, 374.559 127 C 374.279 127, 367.851 131.659, 360.275 137.354 C 335.537 155.949, 293.159 183, 288.766 183 C 286.941 183, 283.492 176.071, 274.830 155 C 264.220 129.194, 256.777 107.574, 249.390 81.114 L 244.816 64.727 253.158 56.325 C 257.746 51.703, 264.724 45.170, 268.665 41.808 C 275.784 35.733, 275.939 35.662, 292.451 30.985 L 309.072 26.276 311.103 28.888 C 312.220 30.325, 314.819 33.300, 316.878 35.500 C 325.103 44.287, 343.029 67.337, 363.772 95.799 C 369.013 102.990, 382.719 124.139, 389.501 135.500 C 425.689 196.119, 450.225 253.365, 470.077 323.500 C 471.790 329.550, 473.351 334.665, 473.546 334.867 C 473.741 335.069, 475.948 333.044, 478.451 330.367 C 483.061 325.437, 490 313.188, 490 309.982 C 490 307.523, 476.988 270.148, 472.773 260.500 C 470.850 256.100, 467.840 249.448, 466.083 245.718 C 462.916 238.993, 460 231.453, 460 229.986 C 460 229.567, 464.387 225.915, 469.750 221.871 C 481.791 212.790, 500.440 197.315, 512.856 186.102 L 522.218 177.646 521.544 171.573 C 520.511 162.268, 518.063 153.246, 514.368 145.122 C 510.508 136.636, 511.427 136.501, 501.614 147 C 485.678 164.051, 467.636 181.474, 451.802 195.101 L 444.853 201.083 443.176 198.784 C 442.254 197.520, 441.011 195.589, 440.413 194.493 C 439.479 192.781, 422.370 164.500, 418 157.444 C 417.175 156.112, 414.661 152.179, 412.413 148.705 L 408.326 142.387 417.035 135.444 C 429.772 125.288, 441.612 114.465, 458.268 97.753 C 471.780 84.195, 472.938 82.752, 471.886 80.788 C 469.704 76.710, 456.484 64.491, 451.179 61.649 L 445.858 58.798 425.562 79.649 C 406.605 99.124, 391.104 113.500, 389.061 113.500 C 388.576 113.500, 386.749 111.701, 385.001 109.501 C 381.560 105.171, 380.851 104.322, 360.766 80.500 C 346.644 63.750, 329.369 44.903, 318.296 34.168 C 314.692 30.673, 312.154 27.461, 312.632 27 C 314.876 24.841, 342.610 22.609, 357 23.430 C 386.018 25.085, 406.273 30.411, 430 42.625 C 476.826 66.730, 515.364 113.167, 527.540 160.155 C 530.548 171.762, 533.037 189.406, 533.655 203.500 C 535.447 244.343, 524.066 284.620, 501.596 316.955 C 490.811 332.476, 469.387 354.464, 457.346 362.370 C 452.482 365.564, 435.193 370.440, 419 373.186 C 403.863 375.752, 375.694 376.204, 361 374.116 C 341.365 371.327, 312.408 362.505, 301.500 355.989 C 299.850 355.004, 296.700 353.203, 294.500 351.987 C 285.640 347.089, 271.288 336.274, 262.666 327.997 L 253.540 319.237 259.520 318.086 C 274.449 315.213, 292.770 310.307, 312.775 303.824 L 322.051 300.818 319.860 297.159 C 318.656 295.147, 317.178 292.825, 316.576 292 C 315.975 291.175, 314.649 288.851, 313.631 286.837 L 311.778 283.173 305.139 285.738 C 290.984 291.206, 266.779 299.149, 251 303.504 C 236.916 307.391, 203.508 314.678, 192 316.373 C 163.781 320.531, 140.326 322.281, 111.271 322.398 C 97.395 322.454, 87.092 322.781, 88.375 323.124 C 96.729 325.361, 121.801 326.500, 162.652 326.500 L 206.804 326.500 208.978 329.673 C 212.293 334.511, 229.518 350.825, 238.533 357.665 C 259.204 373.348, 280.529 384.084, 301.657 389.445 C 349.590 401.606, 405.329 395.035, 442.500 372.842 C 446.350 370.543, 454.496 366.109, 460.603 362.988 C 482.757 351.667, 496.104 341.981, 513.576 324.547 C 546.515 291.681, 562.833 257.982, 568.075 212 C 569.401 200.369, 568.815 171.715, 567.032 161 C 564.231 144.167, 558.427 124.860, 552.754 113.500 C 548.761 105.504, 538.247 87.371, 535.070 83 C 526.269 70.890, 510.144 53.788, 498.500 44.210 C 476.527 26.138, 447.405 13.115, 414 6.424 C 405.988 4.820, 368.987 3.586, 360.500 4.640 M 260 197.140 C 256.425 198.786, 247.200 202.631, 239.500 205.685 C 204.687 219.493, 165.738 229.871, 127.790 235.450 C 117.421 236.974, 115.089 237.259, 99 238.965 C 88.880 240.039, 137.091 239.998, 153.482 238.920 C 160.073 238.486, 165.559 238.226, 165.675 238.341 C 165.790 238.457, 166.772 242.616, 167.856 247.584 C 171.040 262.172, 176.534 277.576, 183.593 291.706 C 187.221 298.970, 190.784 305.406, 191.510 306.009 C 192.480 306.813, 195.713 306.560, 203.666 305.058 C 217.001 302.538, 232.258 298.952, 233.203 298.116 C 233.590 297.773, 231.411 293.670, 228.360 288.997 C 223.594 281.697, 217.787 270.523, 211.731 257 C 210.869 255.075, 208.912 249.305, 207.382 244.178 C 205.315 237.252, 204.869 234.431, 205.646 233.199 C 206.360 232.068, 210.860 230.688, 219.792 228.860 C 242.544 224.204, 273.862 215.471, 276.136 213.149 C 276.925 212.342, 268.426 193.972, 267.310 194.074 C 266.865 194.115, 263.575 195.495, 260 197.140 M 308 449.604 C 304.425 449.791, 291.375 450.424, 279 451.011 C 191.259 455.175, 111.460 464.642, 25 481.144 C 3.577 485.233, -3.696 487.304, 8.226 485.920 C 47.247 481.391, 119.156 475.844, 182.500 472.478 C 188.550 472.156, 196.875 471.705, 201 471.476 C 230.729 469.824, 292.366 468.654, 353.500 468.583 C 418.055 468.509, 496.917 469.497, 503.146 470.458 C 504.441 470.658, 514.500 471.106, 525.500 471.454 C 536.500 471.801, 547.975 472.276, 551 472.509 C 554.025 472.742, 561.900 473.194, 568.500 473.515 C 575.100 473.835, 583.650 474.291, 587.500 474.527 C 620.826 476.573, 640.714 477.933, 661 479.555 C 671.175 480.368, 682.650 481.284, 686.500 481.590 C 693.229 482.124, 729.076 485.443, 741.500 486.682 C 744.800 487.011, 747.268 487.023, 746.986 486.709 C 746.542 486.217, 706.988 478.018, 698.500 476.659 C 696.850 476.395, 687.625 474.808, 678 473.133 C 642.143 466.892, 597.598 461.010, 556 457.025 C 537.575 455.260, 509.083 453.116, 489.500 452.023 C 479.050 451.439, 467.575 450.727, 464 450.441 C 456.504 449.840, 317.755 449.096, 308 449.604 M 204 505.620 C 194.299 507.694, 185.813 512.248, 180.650 518.151 C 172.292 527.704, 169 537.507, 169 552.839 C 169 582.062, 186.093 599.047, 215.432 598.976 C 226.917 598.948, 231.718 598.085, 241.250 594.337 L 248 591.682 248 580.341 C 248 571.179, 247.726 569, 246.571 569 C 245.786 569, 244.509 569.633, 243.735 570.408 C 240.912 573.231, 231.326 578.816, 227.464 579.888 C 215.024 583.342, 203.056 578.825, 197.292 568.500 C 194.684 563.829, 194.501 562.743, 194.517 552 C 194.533 541.915, 194.820 539.961, 196.856 536.116 C 201.659 527.045, 208.430 523.057, 219.090 523.022 C 224.525 523.004, 226.804 523.560, 232.090 526.195 C 235.616 527.952, 239.850 530.650, 241.500 532.190 C 243.150 533.731, 245.287 534.993, 246.250 534.995 C 247.815 535, 248 533.790, 248 523.547 L 248 512.094 244.750 510.587 C 240.881 508.794, 233.682 506.425, 229.476 505.561 C 223.096 504.251, 210.263 504.281, 204 505.620 M 74 514.500 L 74 523 81.500 523 L 89 523 89 551.956 L 89 580.912 81.750 581.206 L 74.500 581.500 74.209 589.766 L 73.919 598.033 100.709 597.766 L 127.500 597.500 127.790 589.250 L 128.081 581 120.540 581 L 113 581 113 552 L 113 523 120.500 523 L 128 523 128 514.500 L 128 506 101 506 L 74 506 74 514.500 M 310.054 520.250 C 305.069 533.724, 299.255 549.508, 291.358 571 C 289.438 576.225, 286.547 583.965, 284.934 588.199 C 283.320 592.434, 282 596.372, 282 596.949 C 282 597.625, 286.257 598, 293.918 598 L 305.835 598 309.008 588.476 L 312.181 578.952 328.729 579.226 L 345.278 579.500 348.389 588.500 L 351.500 597.500 363.750 597.781 C 371.063 597.948, 376 597.677, 376 597.106 C 376 596.162, 372.445 586.385, 352.778 533.250 L 342.693 506 329.009 506 L 315.325 506 310.054 520.250 M 416 552.034 L 416 598.068 426.750 597.784 L 437.500 597.500 438 566.845 L 438.500 536.189 457.463 567.095 L 476.425 598 487.713 598 L 499 598 499 552 L 499 506 488.017 506 L 477.034 506 476.767 531.068 L 476.500 556.136 460.602 531.068 L 444.704 506 430.352 506 L 416 506 416 552.034 M 549 552.006 L 549 598.066 560.250 597.783 L 571.500 597.500 572 567.625 L 572.500 537.751 582.672 554.125 C 588.267 563.131, 596.592 576.675, 601.172 584.223 L 609.500 597.946 621.250 597.973 L 633 598 633 552 L 633 506 622.017 506 L 611.034 506 610.767 531.611 L 610.500 557.222 594.346 531.861 L 578.192 506.500 563.596 506.223 L 549 505.947 549 552.006 M 323.210 546.958 L 318.106 562 328.553 562 C 334.299 562, 339 561.734, 339 561.410 C 339 560.147, 329.751 533.455, 329.054 532.708 C 328.648 532.272, 326.018 538.684, 323.210 546.958" stroke="none" fill="#274a5b" fill-rule="evenodd"/><path d="" stroke="none" fill="#000000" fill-rule="evenodd"/><path d="" stroke="none" fill="#000000" fill-rule="evenodd"/><path d="M 499.461 551.500 C 499.461 576.800, 499.591 587.007, 499.749 574.181 C 499.908 561.356, 499.907 540.656, 499.749 528.181 C 499.590 515.707, 499.461 526.200, 499.461 551.500" stroke="none" fill="#2c4c5c" fill-rule="evenodd"/><path d="M 610.435 532 C 610.435 546.025, 610.575 551.763, 610.747 544.750 C 610.919 537.737, 610.919 526.263, 610.747 519.250 C 610.575 512.237, 610.435 517.975, 610.435 532" stroke="none" fill="#244c5c" fill-rule="evenodd"/></svg>