<?xml version="1.0" standalone="no"?>
<!DOCTYPE svg PUBLIC "-//W3C//DTD SVG 20010904//EN"
 "http://www.w3.org/TR/2001/REC-SVG-20010904/DTD/svg10.dtd">
<svg version="1.0" xmlns="http://www.w3.org/2000/svg"
 width="841.000000pt" height="841.000000pt" viewBox="0 0 841.000000 841.000000"
 preserveAspectRatio="xMidYMid meet">

<g transform="translate(0.000000,841.000000) scale(0.100000,-0.100000)"
fill="#000000" stroke="none">
<path d="M1613 5802 l-1602 -1597 1605 -1599 1606 -1599 474 474 474 474
-1125 1125 -1125 1125 1122 1122 1123 1123 -475 474 -475 474 -1602 -1596z"/>
<path d="M4020 5795 l-1595 -1595 1595 -1595 1595 -1595 1385 1385 1385 1385
-925 0 -925 -1 -50 -86 c-152 -261 -442 -451 -753 -493 -316 -43 -644 66 -870
289 -91 90 -152 176 -207 292 -77 164 -90 226 -90 434 0 208 13 270 90 434 55
116 116 202 207 292 410 406 1084 396 1483 -22 74 -77 145 -177 181 -252 l18
-37 920 0 921 0 -1380 1380 c-759 759 -1382 1380 -1385 1380 -3 0 -723 -718
-1600 -1595z"/>
</g>
</svg>
