<svg xmlns="http://www.w3.org/2000/svg" width="900" height="900" viewBox="0 0 900 900" version="1.1"><path d="M 447.450 174.906 C 446.928 175.404, 444.813 176.754, 442.750 177.906 C 436.915 181.164, 433.374 183.215, 421 190.501 C 414.675 194.225, 407.475 198.406, 405 199.792 C 402.525 201.178, 392.625 206.891, 383 212.487 C 373.375 218.082, 363.475 223.798, 361 225.188 C 358.525 226.578, 350.425 231.232, 343 235.530 C 335.575 239.829, 319.825 248.944, 308 255.787 C 296.175 262.630, 285.038 269.077, 283.250 270.114 C 281.462 271.151, 278.396 272.908, 276.436 274.019 C 274.476 275.129, 271.776 276.756, 270.436 277.634 L 268 279.230 268 489.115 C 268 623.943, 268.347 699, 268.969 699 C 269.502 699, 273.665 696.803, 278.219 694.118 C 285.174 690.017, 342.355 656.834, 352.750 650.866 C 358.934 647.316, 363.016 644.991, 366.750 642.893 C 368.813 641.735, 370.950 640.445, 371.500 640.027 C 372.050 639.609, 374.525 638.146, 377 636.775 C 381.829 634.101, 387.034 631.143, 392.250 628.110 C 394.038 627.071, 406.975 619.603, 421 611.516 C 435.025 603.428, 446.991 596.407, 447.592 595.914 C 448.193 595.421, 448.980 595.313, 449.342 595.675 C 449.704 596.037, 450 618.083, 450 644.667 L 450 693 541 693 L 632 693 632 591.500 C 632 535.675, 631.789 490, 631.530 490 C 631.096 490, 629.576 490.825, 620.750 495.851 C 618.962 496.868, 612.325 500.743, 606 504.462 C 599.675 508.180, 591.575 512.939, 588 515.037 C 584.425 517.135, 565.750 527.936, 546.500 539.039 C 527.250 550.142, 510.038 560.075, 508.250 561.113 C 505.224 562.870, 503.150 564.059, 494.750 568.856 C 492.963 569.876, 487.975 572.801, 483.667 575.356 C 479.359 577.910, 475.604 580, 475.322 580 C 475.040 580, 473.614 580.831, 472.154 581.847 C 470.694 582.863, 467.025 585.047, 464 586.700 C 460.975 588.353, 456.799 590.672, 454.720 591.853 C 452.640 593.034, 450.728 594, 450.470 594 C 450.211 594, 450 499.500, 450 384 C 450 268.500, 449.640 174, 449.200 174 C 448.760 174, 447.972 174.408, 447.450 174.906" stroke="none" fill="#fbfbfb" fill-rule="evenodd"/><path d="M -0 450.001 L -0 900.002 450.250 899.751 L 900.500 899.500 900.751 449.750 L 901.002 0 450.501 0 L 0 0 -0 450.001 M 0.496 450.500 C 0.496 698, 0.610 799.101, 0.750 675.168 C 0.890 551.236, 0.890 348.736, 0.750 225.168 C 0.610 101.601, 0.496 203, 0.496 450.500 M 447.450 174.906 C 446.928 175.404, 444.813 176.754, 442.750 177.906 C 436.915 181.164, 433.374 183.215, 421 190.501 C 414.675 194.225, 407.475 198.406, 405 199.792 C 402.525 201.178, 392.625 206.891, 383 212.487 C 373.375 218.082, 363.475 223.798, 361 225.188 C 358.525 226.578, 350.425 231.232, 343 235.530 C 335.575 239.829, 319.825 248.944, 308 255.787 C 296.175 262.630, 285.038 269.077, 283.250 270.114 C 281.462 271.151, 278.396 272.908, 276.436 274.019 C 274.476 275.129, 271.776 276.756, 270.436 277.634 L 268 279.230 268 489.115 C 268 623.943, 268.347 699, 268.969 699 C 269.502 699, 273.665 696.803, 278.219 694.118 C 285.174 690.017, 342.355 656.834, 352.750 650.866 C 358.934 647.316, 363.016 644.991, 366.750 642.893 C 368.813 641.735, 370.950 640.445, 371.500 640.027 C 372.050 639.609, 374.525 638.146, 377 636.775 C 381.829 634.101, 387.034 631.143, 392.250 628.110 C 394.038 627.071, 406.975 619.603, 421 611.516 C 435.025 603.428, 446.991 596.407, 447.592 595.914 C 448.193 595.421, 448.980 595.313, 449.342 595.675 C 449.704 596.037, 450 618.083, 450 644.667 L 450 693 541 693 L 632 693 632 591.500 C 632 535.675, 631.789 490, 631.530 490 C 631.096 490, 629.576 490.825, 620.750 495.851 C 618.962 496.868, 612.325 500.743, 606 504.462 C 599.675 508.180, 591.575 512.939, 588 515.037 C 584.425 517.135, 565.750 527.936, 546.500 539.039 C 527.250 550.142, 510.038 560.075, 508.250 561.113 C 505.224 562.870, 503.150 564.059, 494.750 568.856 C 492.963 569.876, 487.975 572.801, 483.667 575.356 C 479.359 577.910, 475.604 580, 475.322 580 C 475.040 580, 473.614 580.831, 472.154 581.847 C 470.694 582.863, 467.025 585.047, 464 586.700 C 460.975 588.353, 456.799 590.672, 454.720 591.853 C 452.640 593.034, 450.728 594, 450.470 594 C 450.211 594, 450 499.500, 450 384 C 450 268.500, 449.640 174, 449.200 174 C 448.760 174, 447.972 174.408, 447.450 174.906" stroke="none" fill="#2c2c34" fill-rule="evenodd"/></svg>