<svg id="svg" version="1.1" xmlns="http://www.w3.org/2000/svg" xmlns:xlink="http://www.w3.org/1999/xlink" width="400" height="400" viewBox="0, 0, 400,400"><g id="svgg"><path id="path0" d="M40.400 205.803 L 40.400 344.806 67.500 344.703 L 94.600 344.600 94.701 257.500 C 94.801 170.733,94.805 170.400,95.601 170.400 C 96.133 170.400,96.400 170.667,96.400 171.200 C 96.400 171.733,96.667 172.000,97.200 172.000 C 97.867 172.000,98.000 172.267,98.000 173.600 C 98.000 174.933,98.133 175.200,98.800 175.200 C 99.333 175.200,99.600 175.467,99.600 176.000 C 99.600 176.533,99.867 176.800,100.400 176.800 C 101.052 176.800,101.200 177.067,101.200 178.237 C 101.200 179.338,101.387 179.724,102.000 179.884 C 102.460 180.004,102.800 180.430,102.800 180.884 C 102.800 181.326,103.137 181.763,103.563 181.874 C 103.983 181.984,104.416 182.417,104.526 182.837 C 104.635 183.257,105.010 183.600,105.358 183.600 C 105.787 183.600,106.073 184.116,106.246 185.200 C 106.439 186.406,106.687 186.800,107.251 186.800 C 107.733 186.800,108.000 187.085,108.000 187.600 C 108.000 188.133,108.267 188.400,108.800 188.400 C 109.333 188.400,109.600 188.667,109.600 189.200 C 109.600 189.733,109.867 190.000,110.400 190.000 C 111.067 190.000,111.200 190.267,111.200 191.600 C 111.200 192.933,111.333 193.200,112.000 193.200 C 112.545 193.200,112.800 193.467,112.800 194.037 C 112.800 194.538,113.121 194.959,113.600 195.084 C 114.197 195.240,114.400 195.630,114.400 196.620 C 114.400 197.570,114.615 198.014,115.157 198.186 C 115.573 198.318,116.006 198.781,116.119 199.213 C 116.233 199.646,116.612 200.000,116.963 200.000 C 117.333 200.000,117.600 200.335,117.600 200.800 C 117.600 201.321,117.867 201.600,118.365 201.600 C 118.945 201.600,119.195 201.985,119.400 203.200 C 119.605 204.415,119.855 204.800,120.435 204.800 C 120.933 204.800,121.200 205.079,121.200 205.600 C 121.200 206.133,121.467 206.400,122.000 206.400 C 122.545 206.400,122.800 206.667,122.800 207.237 C 122.800 207.738,123.121 208.159,123.600 208.284 C 124.206 208.443,124.400 208.830,124.400 209.884 C 124.400 210.938,124.594 211.325,125.200 211.484 C 125.643 211.600,126.000 212.030,126.000 212.447 C 126.000 212.933,126.283 213.200,126.800 213.200 C 127.452 213.200,127.600 213.467,127.600 214.637 C 127.600 215.738,127.787 216.124,128.400 216.284 C 128.843 216.400,129.200 216.830,129.200 217.247 C 129.200 217.733,129.483 218.000,130.000 218.000 C 130.533 218.000,130.800 218.267,130.800 218.800 C 130.800 219.333,131.067 219.600,131.600 219.600 C 132.179 219.600,132.400 219.867,132.400 220.567 C 132.400 221.919,132.794 222.800,133.399 222.800 C 133.682 222.800,134.026 223.250,134.164 223.800 C 134.326 224.446,134.696 224.800,135.208 224.800 C 135.733 224.800,136.000 225.069,136.000 225.600 C 136.000 226.133,136.267 226.400,136.800 226.400 C 137.467 226.400,137.600 226.667,137.600 228.000 C 137.600 229.333,137.733 229.600,138.400 229.600 C 138.933 229.600,139.200 229.867,139.200 230.400 C 139.200 230.933,139.467 231.200,140.000 231.200 C 140.652 231.200,140.800 231.467,140.800 232.637 C 140.800 233.738,140.987 234.124,141.600 234.284 C 142.043 234.400,142.400 234.830,142.400 235.247 C 142.400 235.733,142.683 236.000,143.200 236.000 C 143.745 236.000,144.000 236.267,144.000 236.837 C 144.000 237.338,144.321 237.759,144.800 237.884 C 145.362 238.031,145.600 238.430,145.600 239.224 C 145.600 239.858,145.919 240.584,146.326 240.877 C 146.726 241.165,147.170 241.715,147.314 242.100 C 147.457 242.485,147.830 242.800,148.141 242.800 C 148.452 242.800,148.801 243.160,148.916 243.600 C 149.041 244.079,149.462 244.400,149.963 244.400 C 150.673 244.400,150.800 244.643,150.800 246.000 C 150.800 247.333,150.933 247.600,151.600 247.600 C 152.133 247.600,152.400 247.867,152.400 248.400 C 152.400 248.933,152.667 249.200,153.200 249.200 C 153.867 249.200,154.000 249.467,154.000 250.800 C 154.000 251.967,154.165 252.400,154.610 252.400 C 154.945 252.400,155.391 252.850,155.600 253.400 C 155.809 253.950,156.255 254.400,156.590 254.400 C 156.933 254.400,157.200 254.750,157.200 255.200 C 157.200 255.733,157.467 256.000,158.000 256.000 C 158.652 256.000,158.800 256.267,158.800 257.437 C 158.800 258.538,158.987 258.924,159.600 259.084 C 160.043 259.200,160.400 259.630,160.400 260.047 C 160.400 260.533,160.683 260.800,161.200 260.800 C 161.733 260.800,162.000 261.067,162.000 261.600 C 162.000 262.132,162.267 262.400,162.795 262.400 C 163.413 262.400,163.647 262.755,163.845 263.989 C 164.014 265.047,164.349 265.657,164.849 265.816 C 165.262 265.947,165.600 266.402,165.600 266.827 C 165.600 267.333,165.876 267.600,166.400 267.600 C 167.052 267.600,167.200 267.867,167.200 269.037 C 167.200 270.138,167.387 270.524,168.000 270.684 C 168.443 270.800,168.800 271.230,168.800 271.647 C 168.800 272.133,169.083 272.400,169.600 272.400 C 170.133 272.400,170.400 272.667,170.400 273.200 C 170.400 273.733,170.667 274.000,171.200 274.000 C 171.852 274.000,172.000 274.267,172.000 275.437 C 172.000 276.538,172.187 276.924,172.800 277.084 C 173.243 277.200,173.600 277.630,173.600 278.047 C 173.600 278.533,173.883 278.800,174.400 278.800 C 174.945 278.800,175.200 279.067,175.200 279.637 C 175.200 280.125,175.519 280.558,175.963 280.674 C 176.383 280.784,176.816 281.217,176.926 281.637 C 177.236 282.823,211.600 282.833,211.600 281.647 C 211.600 281.230,211.957 280.800,212.400 280.684 C 212.879 280.559,213.200 280.138,213.200 279.637 C 213.200 279.067,213.455 278.800,214.000 278.800 C 214.667 278.800,214.800 278.533,214.800 277.200 C 214.800 275.867,214.933 275.600,215.600 275.600 C 216.133 275.600,216.400 275.333,216.400 274.800 C 216.400 274.267,216.667 274.000,217.200 274.000 C 217.717 274.000,218.000 273.733,218.000 273.247 C 218.000 272.830,218.357 272.400,218.800 272.284 C 219.413 272.124,219.600 271.738,219.600 270.637 C 219.600 269.467,219.748 269.200,220.400 269.200 C 220.933 269.200,221.200 268.933,221.200 268.400 C 221.200 267.869,221.467 267.600,221.992 267.600 C 222.504 267.600,222.874 267.246,223.036 266.600 C 223.174 266.050,223.518 265.600,223.801 265.600 C 224.406 265.600,224.800 264.719,224.800 263.367 C 224.800 262.667,225.021 262.400,225.600 262.400 C 226.133 262.400,226.400 262.133,226.400 261.600 C 226.400 261.067,226.667 260.800,227.200 260.800 C 227.867 260.800,228.000 260.533,228.000 259.200 C 228.000 257.867,228.133 257.600,228.800 257.600 C 229.333 257.600,229.600 257.333,229.600 256.800 C 229.600 256.267,229.867 256.000,230.400 256.000 C 230.924 256.000,231.200 255.733,231.200 255.227 C 231.200 254.802,231.560 254.340,232.000 254.200 C 232.588 254.013,232.800 253.595,232.800 252.620 C 232.800 251.630,233.003 251.240,233.600 251.084 C 234.079 250.959,234.400 250.538,234.400 250.037 C 234.400 249.467,234.655 249.200,235.200 249.200 C 235.733 249.200,236.000 248.933,236.000 248.400 C 236.000 247.879,236.267 247.600,236.765 247.600 C 237.345 247.600,237.595 247.215,237.800 246.000 C 238.005 244.785,238.255 244.400,238.835 244.400 C 239.318 244.400,239.600 244.122,239.600 243.647 C 239.600 243.230,239.957 242.800,240.400 242.684 C 241.013 242.524,241.200 242.138,241.200 241.037 C 241.200 239.867,241.348 239.600,242.000 239.600 C 242.517 239.600,242.800 239.333,242.800 238.847 C 242.800 238.430,243.157 238.000,243.600 237.884 C 244.079 237.759,244.400 237.338,244.400 236.837 C 244.400 236.267,244.655 236.000,245.200 236.000 C 245.867 236.000,246.000 235.733,246.000 234.400 C 246.000 233.067,246.133 232.800,246.800 232.800 C 247.333 232.800,247.600 232.533,247.600 232.000 C 247.600 231.467,247.867 231.200,248.400 231.200 C 248.933 231.200,249.200 230.933,249.200 230.400 C 249.200 229.885,249.467 229.600,249.949 229.600 C 250.509 229.600,250.760 229.210,250.946 228.047 C 251.121 226.953,251.431 226.433,251.997 226.285 C 252.439 226.169,252.800 225.800,252.800 225.464 C 252.800 225.129,253.160 224.740,253.600 224.600 C 254.221 224.403,254.400 223.995,254.400 222.773 C 254.400 221.467,254.536 221.200,255.200 221.200 C 255.733 221.200,256.000 220.933,256.000 220.400 C 256.000 219.867,256.267 219.600,256.800 219.600 C 257.317 219.600,257.600 219.333,257.600 218.847 C 257.600 218.430,257.957 218.000,258.400 217.884 C 259.013 217.724,259.200 217.338,259.200 216.237 C 259.200 215.067,259.348 214.800,260.000 214.800 C 260.533 214.800,260.800 214.533,260.800 214.000 C 260.800 213.467,261.067 213.200,261.600 213.200 C 262.124 213.200,262.400 212.933,262.400 212.427 C 262.400 212.002,262.760 211.540,263.200 211.400 C 263.789 211.213,264.000 210.795,264.000 209.816 C 264.000 208.732,264.184 208.440,265.000 208.236 C 265.619 208.080,266.000 207.701,266.000 207.239 C 266.000 206.829,266.360 206.399,266.800 206.284 C 267.413 206.124,267.600 205.738,267.600 204.637 C 267.600 203.467,267.748 203.200,268.400 203.200 C 268.933 203.200,269.200 202.933,269.200 202.400 C 269.200 201.867,269.467 201.600,270.000 201.600 C 270.517 201.600,270.800 201.333,270.800 200.847 C 270.800 200.430,271.157 200.000,271.600 199.884 C 272.213 199.724,272.400 199.338,272.400 198.237 C 272.400 197.067,272.548 196.800,273.200 196.800 C 273.717 196.800,274.000 196.533,274.000 196.047 C 274.000 195.630,274.357 195.200,274.800 195.084 C 275.279 194.959,275.600 194.538,275.600 194.037 C 275.600 193.467,275.855 193.200,276.400 193.200 C 277.067 193.200,277.200 192.933,277.200 191.600 C 277.200 190.267,277.333 190.000,278.000 190.000 C 278.452 190.000,278.800 189.733,278.800 189.387 C 278.800 189.051,279.115 188.659,279.500 188.517 C 280.456 188.164,280.787 187.597,280.794 186.300 C 280.799 185.469,280.995 185.200,281.600 185.200 C 282.133 185.200,282.400 184.933,282.400 184.400 C 282.400 183.950,282.667 183.600,283.010 183.600 C 283.345 183.600,283.791 183.150,284.000 182.600 C 284.209 182.050,284.655 181.600,284.990 181.600 C 285.435 181.600,285.600 181.167,285.600 180.000 C 285.600 178.667,285.733 178.400,286.400 178.400 C 286.933 178.400,287.200 178.133,287.200 177.600 C 287.200 177.067,287.467 176.800,288.000 176.800 C 288.533 176.800,288.800 176.533,288.800 176.000 C 288.800 175.467,289.067 175.200,289.600 175.200 C 290.267 175.200,290.400 174.933,290.400 173.600 C 290.400 172.267,290.533 172.000,291.200 172.000 C 291.733 172.000,292.000 171.733,292.000 171.200 C 292.000 170.667,292.267 170.400,292.800 170.400 C 293.240 170.400,293.600 170.136,293.600 169.814 C 293.600 169.492,293.952 169.040,294.383 168.809 C 294.813 168.579,295.280 167.779,295.420 167.032 C 295.582 166.168,295.953 165.601,296.438 165.474 C 296.881 165.358,297.200 164.925,297.200 164.437 C 297.200 163.867,297.455 163.600,298.000 163.600 C 298.533 163.600,298.800 163.333,298.800 162.800 C 298.800 162.267,299.067 162.000,299.600 162.000 C 300.133 162.000,300.400 161.733,300.400 161.200 C 300.400 160.667,300.667 160.400,301.200 160.400 C 301.733 160.400,302.000 160.133,302.000 159.600 C 302.000 159.067,302.267 158.800,302.800 158.800 C 303.333 158.800,303.600 158.533,303.600 158.000 C 303.600 157.467,303.867 157.200,304.400 157.200 C 304.933 157.200,305.200 156.933,305.200 156.400 C 305.200 155.867,305.467 155.600,306.000 155.600 C 306.533 155.600,306.800 155.333,306.800 154.800 C 306.800 154.276,307.067 154.000,307.573 154.000 C 307.998 154.000,308.454 153.659,308.586 153.243 C 308.718 152.827,309.181 152.394,309.613 152.281 C 310.046 152.167,310.400 151.800,310.400 151.464 C 310.400 151.129,310.760 150.740,311.200 150.600 C 311.640 150.460,312.000 149.998,312.000 149.573 C 312.000 149.067,312.276 148.800,312.800 148.800 C 313.333 148.800,313.600 148.533,313.600 148.000 C 313.600 147.467,313.867 147.200,314.400 147.200 C 314.933 147.200,315.200 146.933,315.200 146.400 C 315.200 145.748,315.467 145.600,316.637 145.600 C 317.738 145.600,318.124 145.413,318.284 144.800 C 318.400 144.357,318.830 144.000,319.247 144.000 C 319.733 144.000,320.000 143.717,320.000 143.200 C 320.000 142.667,320.267 142.400,320.800 142.400 C 321.333 142.400,321.600 142.133,321.600 141.600 C 321.600 140.951,321.867 140.800,323.013 140.800 C 323.930 140.800,324.510 140.579,324.667 140.169 C 324.800 139.823,325.335 139.377,325.855 139.179 C 326.375 138.982,326.800 138.561,326.800 138.245 C 326.800 137.886,327.401 137.569,328.400 137.400 C 329.615 137.195,330.000 136.945,330.000 136.365 C 330.000 135.739,330.291 135.600,331.600 135.600 C 332.933 135.600,333.200 135.467,333.200 134.800 C 333.200 134.133,333.467 134.000,334.800 134.000 C 336.133 134.000,336.400 133.867,336.400 133.200 C 336.400 132.488,336.667 132.400,338.837 132.400 C 340.938 132.400,341.304 132.290,341.484 131.600 C 341.685 130.833,342.030 130.800,349.847 130.800 L 358.000 130.800 358.000 98.800 L 358.000 66.800 331.043 66.800 C 301.576 66.800,303.600 66.635,303.600 69.033 C 303.600 69.733,303.379 70.000,302.800 70.000 C 302.283 70.000,302.000 70.267,302.000 70.753 C 302.000 71.170,301.643 71.600,301.200 71.716 C 300.587 71.876,300.400 72.262,300.400 73.363 C 300.400 74.533,300.252 74.800,299.600 74.800 C 299.083 74.800,298.800 75.067,298.800 75.553 C 298.800 75.970,298.443 76.400,298.000 76.516 C 297.521 76.641,297.200 77.062,297.200 77.563 C 297.200 78.133,296.945 78.400,296.400 78.400 C 295.733 78.400,295.600 78.667,295.600 80.000 C 295.600 81.333,295.467 81.600,294.800 81.600 C 294.267 81.600,294.000 81.867,294.000 82.400 C 294.000 82.933,293.733 83.200,293.200 83.200 C 292.667 83.200,292.400 83.467,292.400 84.000 C 292.400 84.521,292.133 84.800,291.635 84.800 C 291.058 84.800,290.806 85.183,290.607 86.361 C 290.426 87.430,290.100 87.985,289.571 88.123 C 289.147 88.234,288.800 88.591,288.800 88.916 C 288.800 89.241,288.440 89.601,288.000 89.716 C 287.364 89.882,287.200 90.262,287.200 91.563 C 287.200 92.933,287.070 93.200,286.400 93.200 C 285.867 93.200,285.600 93.467,285.600 94.000 C 285.600 94.533,285.333 94.800,284.800 94.800 C 284.283 94.800,284.000 95.067,284.000 95.553 C 284.000 95.970,283.643 96.400,283.200 96.516 C 282.587 96.676,282.400 97.062,282.400 98.163 C 282.400 99.333,282.252 99.600,281.600 99.600 C 281.067 99.600,280.800 99.867,280.800 100.400 C 280.800 100.933,280.533 101.200,280.000 101.200 C 279.483 101.200,279.200 101.467,279.200 101.953 C 279.200 102.368,278.864 102.794,278.454 102.902 C 277.977 103.026,277.612 103.612,277.440 104.526 C 277.268 105.446,276.892 106.044,276.386 106.204 C 275.954 106.342,275.600 106.802,275.600 107.227 C 275.600 107.733,275.324 108.000,274.800 108.000 C 274.133 108.000,274.000 108.267,274.000 109.600 C 274.000 110.933,273.867 111.200,273.200 111.200 C 272.667 111.200,272.400 111.467,272.400 112.000 C 272.400 112.533,272.133 112.800,271.600 112.800 C 271.083 112.800,270.800 113.067,270.800 113.553 C 270.800 113.970,270.443 114.400,270.000 114.516 C 269.387 114.676,269.200 115.062,269.200 116.163 C 269.200 117.333,269.052 117.600,268.400 117.600 C 267.883 117.600,267.600 117.867,267.600 118.353 C 267.600 118.770,267.243 119.200,266.800 119.316 C 266.321 119.441,266.000 119.862,266.000 120.363 C 266.000 120.933,265.745 121.200,265.200 121.200 C 264.533 121.200,264.400 121.467,264.400 122.800 C 264.400 124.240,264.300 124.400,263.400 124.400 C 262.687 124.400,262.400 124.616,262.400 125.153 C 262.400 125.570,262.043 126.000,261.600 126.116 C 260.987 126.276,260.800 126.662,260.800 127.763 C 260.800 128.933,260.652 129.200,260.000 129.200 C 259.467 129.200,259.200 129.467,259.200 130.000 C 259.200 130.533,258.933 130.800,258.400 130.800 C 257.855 130.800,257.600 131.067,257.600 131.637 C 257.600 132.138,257.279 132.559,256.800 132.684 C 256.173 132.848,256.000 133.230,256.000 134.447 C 256.000 135.733,255.863 136.000,255.200 136.000 C 254.667 136.000,254.400 136.267,254.400 136.800 C 254.400 137.333,254.133 137.600,253.600 137.600 C 253.067 137.600,252.800 137.867,252.800 138.400 C 252.800 138.933,252.533 139.200,252.000 139.200 C 251.333 139.200,251.200 139.467,251.200 140.800 C 251.200 142.115,251.062 142.400,250.427 142.400 C 250.002 142.400,249.546 142.741,249.414 143.157 C 249.282 143.573,248.819 144.006,248.387 144.119 C 247.795 144.274,247.600 144.669,247.600 145.716 C 247.600 146.770,247.406 147.157,246.800 147.316 C 246.360 147.431,246.000 147.800,246.000 148.136 C 246.000 148.471,245.640 148.860,245.200 149.000 C 244.760 149.140,244.400 149.581,244.400 149.980 C 244.400 150.380,244.040 150.801,243.600 150.916 C 242.987 151.076,242.800 151.462,242.800 152.563 C 242.800 153.733,242.652 154.000,242.000 154.000 C 241.467 154.000,241.200 154.267,241.200 154.800 C 241.200 155.333,240.933 155.600,240.400 155.600 C 239.883 155.600,239.600 155.867,239.600 156.353 C 239.600 156.770,239.243 157.200,238.800 157.316 C 238.187 157.476,238.000 157.862,238.000 158.963 C 238.000 160.133,237.852 160.400,237.200 160.400 C 236.667 160.400,236.400 160.667,236.400 161.200 C 236.400 161.640,236.136 162.000,235.814 162.000 C 235.077 162.000,234.400 163.232,234.400 164.574 C 234.400 165.333,234.192 165.600,233.600 165.600 C 233.067 165.600,232.800 165.867,232.800 166.400 C 232.800 166.933,232.533 167.200,232.000 167.200 C 231.483 167.200,231.200 167.467,231.200 167.953 C 231.200 168.370,230.843 168.800,230.400 168.916 C 229.787 169.076,229.600 169.462,229.600 170.563 C 229.600 171.733,229.452 172.000,228.800 172.000 C 228.267 172.000,228.000 172.267,228.000 172.800 C 228.000 173.333,227.733 173.600,227.200 173.600 C 226.676 173.600,226.400 173.867,226.400 174.373 C 226.400 174.798,226.040 175.260,225.600 175.400 C 224.979 175.597,224.800 176.005,224.800 177.227 C 224.800 178.533,224.664 178.800,224.000 178.800 C 223.467 178.800,223.200 179.067,223.200 179.600 C 223.200 180.133,222.933 180.400,222.400 180.400 C 221.733 180.400,221.600 180.667,221.600 182.000 C 221.600 183.440,221.500 183.600,220.600 183.600 C 219.867 183.600,219.600 183.813,219.600 184.400 C 219.600 184.933,219.333 185.200,218.800 185.200 C 218.303 185.200,218.000 185.467,218.000 185.904 C 218.000 186.291,217.640 186.832,217.200 187.107 C 216.690 187.426,216.400 188.040,216.400 188.803 C 216.400 189.733,216.222 190.000,215.600 190.000 C 215.076 190.000,214.800 190.267,214.800 190.773 C 214.800 191.198,214.440 191.660,214.000 191.800 C 213.560 191.940,213.200 192.402,213.200 192.827 C 213.200 193.333,212.924 193.600,212.400 193.600 C 211.733 193.600,211.600 193.867,211.600 195.200 C 211.600 196.533,211.467 196.800,210.800 196.800 C 210.267 196.800,210.000 197.067,210.000 197.600 C 210.000 198.133,209.733 198.400,209.200 198.400 C 208.683 198.400,208.400 198.667,208.400 199.153 C 208.400 199.570,208.043 200.000,207.600 200.116 C 207.090 200.249,206.798 200.665,206.794 201.263 C 206.786 202.402,206.425 202.975,205.500 203.317 C 205.115 203.459,204.800 203.838,204.800 204.160 C 204.800 204.483,204.440 204.860,204.000 205.000 C 203.379 205.197,203.200 205.605,203.200 206.827 C 203.200 208.133,203.064 208.400,202.400 208.400 C 201.867 208.400,201.600 208.667,201.600 209.200 C 201.600 209.733,201.333 210.000,200.800 210.000 C 200.283 210.000,200.000 210.267,200.000 210.753 C 200.000 211.170,199.643 211.600,199.200 211.716 C 198.587 211.876,198.400 212.262,198.400 213.363 C 198.400 214.533,198.252 214.800,197.600 214.800 C 197.067 214.800,196.800 215.067,196.800 215.600 C 196.800 216.133,196.533 216.400,196.000 216.400 C 195.467 216.400,195.200 216.667,195.200 217.200 C 195.200 217.640,195.033 218.000,194.829 218.000 C 194.624 218.000,194.174 218.283,193.829 218.629 C 193.257 219.200,193.200 219.200,193.200 218.629 C 193.200 218.267,192.861 218.000,192.400 218.000 C 191.748 218.000,191.600 217.733,191.600 216.563 C 191.600 215.462,191.413 215.076,190.800 214.916 C 190.357 214.800,190.000 214.370,190.000 213.953 C 190.000 213.467,189.717 213.200,189.200 213.200 C 188.667 213.200,188.400 212.933,188.400 212.400 C 188.400 211.867,188.133 211.600,187.600 211.600 C 186.933 211.600,186.800 211.333,186.800 210.000 C 186.800 208.667,186.667 208.400,186.000 208.400 C 185.483 208.400,185.200 208.133,185.200 207.647 C 185.200 207.230,184.843 206.800,184.400 206.684 C 183.822 206.533,183.600 206.138,183.600 205.260 C 183.600 204.545,183.301 203.830,182.874 203.523 C 182.474 203.235,182.030 202.685,181.886 202.300 C 181.743 201.915,181.370 201.600,181.059 201.600 C 180.748 201.600,180.399 201.240,180.284 200.800 C 180.159 200.321,179.738 200.000,179.237 200.000 C 178.527 200.000,178.400 199.757,178.400 198.400 C 178.400 197.067,178.267 196.800,177.600 196.800 C 177.067 196.800,176.800 196.533,176.800 196.000 C 176.800 195.467,176.533 195.200,176.000 195.200 C 175.467 195.200,175.200 194.933,175.200 194.400 C 175.200 193.867,174.933 193.600,174.400 193.600 C 173.730 193.600,173.600 193.333,173.600 191.963 C 173.600 190.662,173.436 190.282,172.800 190.116 C 172.357 190.000,172.000 189.570,172.000 189.153 C 172.000 188.667,171.717 188.400,171.200 188.400 C 170.548 188.400,170.400 188.133,170.400 186.963 C 170.400 185.862,170.213 185.476,169.600 185.316 C 169.157 185.200,168.800 184.770,168.800 184.353 C 168.800 183.867,168.517 183.600,168.000 183.600 C 167.467 183.600,167.200 183.333,167.200 182.800 C 167.200 182.285,166.933 182.000,166.451 182.000 C 165.887 182.000,165.639 181.606,165.446 180.400 C 165.247 179.156,165.014 178.800,164.395 178.800 C 163.855 178.800,163.600 178.532,163.600 177.963 C 163.600 177.462,163.279 177.041,162.800 176.916 C 162.194 176.757,162.000 176.370,162.000 175.316 C 162.000 174.262,161.806 173.875,161.200 173.716 C 160.757 173.600,160.400 173.170,160.400 172.753 C 160.400 172.267,160.117 172.000,159.600 172.000 C 159.067 172.000,158.800 171.733,158.800 171.200 C 158.800 170.667,158.533 170.400,158.000 170.400 C 157.348 170.400,157.200 170.133,157.200 168.963 C 157.200 167.862,157.013 167.476,156.400 167.316 C 155.957 167.200,155.600 166.770,155.600 166.353 C 155.600 165.867,155.317 165.600,154.800 165.600 C 154.283 165.600,154.000 165.333,154.000 164.847 C 154.000 164.430,153.643 164.000,153.200 163.884 C 152.639 163.737,152.398 163.335,152.394 162.537 C 152.387 161.203,152.062 160.638,151.100 160.283 C 150.715 160.141,150.400 159.749,150.400 159.413 C 150.400 159.067,150.052 158.800,149.600 158.800 C 148.948 158.800,148.800 158.533,148.800 157.363 C 148.800 156.262,148.613 155.876,148.000 155.716 C 147.557 155.600,147.200 155.170,147.200 154.753 C 147.200 154.267,146.917 154.000,146.400 154.000 C 145.867 154.000,145.600 153.733,145.600 153.200 C 145.600 152.667,145.333 152.400,144.800 152.400 C 144.133 152.400,144.000 152.133,144.000 150.800 C 144.000 149.467,143.867 149.200,143.200 149.200 C 142.655 149.200,142.400 148.933,142.400 148.363 C 142.400 147.862,142.079 147.441,141.600 147.316 C 141.157 147.200,140.800 146.770,140.800 146.353 C 140.800 145.867,140.517 145.600,140.000 145.600 C 139.348 145.600,139.200 145.333,139.200 144.163 C 139.200 143.085,139.009 142.675,138.437 142.526 C 138.017 142.416,137.584 141.983,137.474 141.563 C 137.358 141.119,136.925 140.800,136.437 140.800 C 135.727 140.800,135.600 140.557,135.600 139.200 C 135.600 137.867,135.467 137.600,134.800 137.600 C 134.267 137.600,134.000 137.333,134.000 136.800 C 134.000 136.267,133.733 136.000,133.200 136.000 C 132.613 136.000,132.400 135.733,132.400 135.000 C 132.400 134.267,132.187 134.000,131.600 134.000 C 130.955 134.000,130.800 133.733,130.800 132.627 C 130.800 131.605,130.595 131.189,130.000 131.000 C 129.560 130.860,129.200 130.398,129.200 129.973 C 129.200 129.467,128.924 129.200,128.400 129.200 C 127.867 129.200,127.600 128.933,127.600 128.400 C 127.600 127.867,127.333 127.600,126.800 127.600 C 126.133 127.600,126.000 127.333,126.000 126.000 C 126.000 124.667,125.867 124.400,125.200 124.400 C 124.667 124.400,124.400 124.133,124.400 123.600 C 124.400 123.079,124.133 122.800,123.635 122.800 C 123.055 122.800,122.805 122.415,122.600 121.200 C 122.395 119.985,122.145 119.600,121.565 119.600 C 121.016 119.600,120.800 119.318,120.800 118.600 C 120.800 117.867,120.587 117.600,120.000 117.600 C 119.467 117.600,119.200 117.333,119.200 116.800 C 119.200 116.267,118.933 116.000,118.400 116.000 C 117.748 116.000,117.600 115.733,117.600 114.563 C 117.600 113.462,117.413 113.076,116.800 112.916 C 116.357 112.800,116.000 112.370,116.000 111.953 C 116.000 111.467,115.717 111.200,115.200 111.200 C 114.548 111.200,114.400 110.933,114.400 109.763 C 114.400 108.662,114.213 108.276,113.600 108.116 C 113.157 108.000,112.800 107.570,112.800 107.153 C 112.800 106.739,112.526 106.400,112.190 106.400 C 111.855 106.400,111.409 105.950,111.200 105.400 C 110.991 104.850,110.565 104.400,110.254 104.400 C 109.925 104.400,109.580 103.817,109.427 103.005 C 109.281 102.227,108.819 101.424,108.383 101.191 C 107.952 100.960,107.600 100.508,107.600 100.186 C 107.600 99.864,107.240 99.600,106.800 99.600 C 106.267 99.600,106.000 99.333,106.000 98.800 C 106.000 98.267,105.733 98.000,105.200 98.000 C 104.533 98.000,104.400 97.733,104.400 96.400 C 104.400 95.067,104.267 94.800,103.600 94.800 C 103.067 94.800,102.800 94.533,102.800 94.000 C 102.800 93.467,102.533 93.200,102.000 93.200 C 101.333 93.200,101.200 92.933,101.200 91.600 C 101.200 90.433,101.035 90.000,100.590 90.000 C 100.255 90.000,99.809 89.550,99.600 89.000 C 99.391 88.450,98.945 88.000,98.610 88.000 C 98.267 88.000,98.000 87.650,98.000 87.200 C 98.000 86.667,97.733 86.400,97.200 86.400 C 96.621 86.400,96.400 86.133,96.400 85.433 C 96.400 84.083,96.006 83.200,95.404 83.200 C 95.123 83.200,94.799 82.840,94.684 82.400 C 94.559 81.921,94.138 81.600,93.637 81.600 C 93.067 81.600,92.800 81.345,92.800 80.800 C 92.800 80.267,92.533 80.000,92.000 80.000 C 91.336 80.000,91.200 79.733,91.200 78.427 C 91.200 77.205,91.021 76.797,90.400 76.600 C 89.960 76.460,89.600 75.998,89.600 75.573 C 89.600 75.067,89.324 74.800,88.800 74.800 C 88.148 74.800,88.000 74.533,88.000 73.363 C 88.000 72.262,87.813 71.876,87.200 71.716 C 86.757 71.600,86.400 71.170,86.400 70.753 C 86.400 70.267,86.117 70.000,85.600 70.000 C 85.067 70.000,84.800 69.733,84.800 69.200 C 84.800 68.667,84.533 68.400,84.000 68.400 C 83.467 68.400,83.200 68.133,83.200 67.600 C 83.200 66.810,82.933 66.800,61.800 66.800 L 40.400 66.800 40.400 205.803 " stroke="none" fill="#d6001c" fill-rule="evenodd"></path><path id="path1" d="M344.916 168.000 C 344.737 168.686,344.370 168.800,342.353 168.800 C 340.267 168.800,340.000 168.891,340.000 169.600 C 340.000 170.309,339.733 170.400,337.647 170.400 C 335.630 170.400,335.263 170.514,335.084 171.200 C 334.918 171.836,334.538 172.000,333.237 172.000 C 331.867 172.000,331.600 172.130,331.600 172.800 C 331.600 173.452,331.333 173.600,330.163 173.600 C 329.062 173.600,328.676 173.787,328.516 174.400 C 328.400 174.843,327.970 175.200,327.553 175.200 C 327.067 175.200,326.800 175.483,326.800 176.000 C 326.800 176.579,326.533 176.800,325.833 176.800 C 324.341 176.800,323.600 177.213,323.600 178.043 C 323.600 178.533,323.318 178.800,322.800 178.800 C 322.267 178.800,322.000 179.067,322.000 179.600 C 322.000 180.187,321.733 180.400,321.000 180.400 C 320.267 180.400,320.000 180.613,320.000 181.200 C 320.000 181.733,319.733 182.000,319.200 182.000 C 318.667 182.000,318.400 182.267,318.400 182.800 C 318.400 183.333,318.133 183.600,317.600 183.600 C 317.067 183.600,316.800 183.867,316.800 184.400 C 316.800 184.933,316.533 185.200,316.000 185.200 C 315.483 185.200,315.200 185.467,315.200 185.953 C 315.200 186.370,314.843 186.800,314.400 186.916 C 313.787 187.076,313.600 187.462,313.600 188.563 C 313.600 189.733,313.452 190.000,312.800 190.000 C 312.213 190.000,312.000 190.267,312.000 191.000 C 312.000 191.733,311.787 192.000,311.200 192.000 C 310.533 192.000,310.400 192.267,310.400 193.600 C 310.400 194.933,310.267 195.200,309.600 195.200 C 308.889 195.200,308.800 195.467,308.800 197.600 C 308.800 199.692,308.702 200.000,308.039 200.000 C 307.408 200.000,307.232 200.403,307.004 202.362 C 306.789 204.218,306.566 204.768,305.965 204.925 C 305.265 205.108,305.200 205.534,305.200 209.916 C 305.200 214.373,305.144 214.721,304.399 214.916 C 303.601 215.125,303.598 215.387,303.699 279.863 L 303.800 344.600 330.900 344.703 L 358.000 344.806 358.000 256.003 L 358.000 167.200 351.563 167.200 C 345.462 167.200,345.114 167.242,344.916 168.000 " stroke="none" fill="#231f20" fill-rule="evenodd"></path></g></svg>