<?xml version="1.0" encoding="UTF-8"?>
<!DOCTYPE svg PUBLIC "-//W3C//DTD SVG 1.1//EN" "http://www.w3.org/Graphics/SVG/1.1/DTD/svg11.dtd">
<svg xmlns="http://www.w3.org/2000/svg" version="1.1" width="269px" height="188px" style="shape-rendering:geometricPrecision; text-rendering:geometricPrecision; image-rendering:optimizeQuality; fill-rule:evenodd; clip-rule:evenodd" xmlns:xlink="http://www.w3.org/1999/xlink">
<g><path style="opacity:1" fill="#fefefe" d="M -0.5,-0.5 C 89.1667,-0.5 178.833,-0.5 268.5,-0.5C 268.5,62.1667 268.5,124.833 268.5,187.5C 178.833,187.5 89.1667,187.5 -0.5,187.5C -0.5,124.833 -0.5,62.1667 -0.5,-0.5 Z"/></g>
<g><path style="opacity:1" fill="#619dda" d="M 70.5,79.5 C 69.8444,78.7222 69.0111,78.0556 68,77.5C 60.8364,81.1494 56.003,86.8161 53.5,94.5C 19.6235,100.438 3.45682,86.4384 5,52.5C 12.0802,34.5399 25.2468,26.7066 44.5,29C 56.503,32.3369 64.6697,39.8369 69,51.5C 70.3527,60.7754 70.8527,70.1088 70.5,79.5 Z"/></g>
<g><path style="opacity:1" fill="#66a2db" d="M 173.5,54.5 C 165.534,59.8163 160.201,67.1496 157.5,76.5C 155.9,74.1495 153.567,72.8161 150.5,72.5C 148.995,75.1306 148.329,74.7973 148.5,71.5C 148.98,62.0217 148.313,52.6883 146.5,43.5C 147.399,42.5285 148.566,41.8618 150,41.5C 159.57,42.8645 167.403,47.1978 173.5,54.5 Z"/></g>
<g><path style="opacity:1" fill="#619cda" d="M 173.5,54.5 C 167.403,47.1978 159.57,42.8645 150,41.5C 148.566,41.8618 147.399,42.5285 146.5,43.5C 143.96,36.0265 143.127,28.3599 144,20.5C 151.562,5.1966 163.395,0.696599 179.5,7C 184.445,9.94558 187.945,14.1122 190,19.5C 191.231,27.0892 191.897,34.7559 192,42.5C 193.033,47.5672 195.366,51.9005 199,55.5C 204.221,60.7208 209.387,65.8874 214.5,71C 222.099,76.8705 230.766,79.2039 240.5,78C 257.863,80.8944 265.363,91.061 263,108.5C 259.473,119.766 251.806,125.766 240,126.5C 229.142,126.296 221.476,121.296 217,111.5C 215.282,104.606 214.282,97.606 214,90.5C 212.47,85.1082 210.137,80.1082 207,75.5C 200.431,68.261 193.265,61.761 185.5,56C 181.637,54.6463 177.637,54.1463 173.5,54.5 Z"/></g>
<g><path style="opacity:1" fill="#68a4dc" d="M 70.5,79.5 C 72.6149,85.6107 75.9482,90.9441 80.5,95.5C 78.359,96.8118 76.6924,98.6451 75.5,101C 76.999,101.838 77.3324,102.671 76.5,103.5C 69.3101,99.1067 61.6434,96.1067 53.5,94.5C 56.003,86.8161 60.8364,81.1494 68,77.5C 69.0111,78.0556 69.8444,78.7222 70.5,79.5 Z"/></g>
<g><path style="opacity:1" fill="#73b0de" d="M 148.5,71.5 C 148.329,74.7973 148.995,75.1306 150.5,72.5C 153.567,72.8161 155.9,74.1495 157.5,76.5C 154.559,84.9316 152.559,93.5983 151.5,102.5C 150.686,104.631 150.186,106.964 150,109.5C 149.751,108.376 149.251,107.376 148.5,106.5C 146.217,105.679 143.884,105.012 141.5,104.5C 139.643,105.267 137.976,106.267 136.5,107.5C 142.671,96.1205 146.671,84.1205 148.5,71.5 Z"/></g>
<g><path style="opacity:1" fill="#71b0de" d="M 80.5,95.5 C 85.9969,100.829 91.6635,105.996 97.5,111C 100.032,112.765 102.699,114.265 105.5,115.5C 102.677,117.823 100.01,120.323 97.5,123C 99.0653,124.506 99.3986,126.006 98.5,127.5C 92.2157,118.549 84.8824,110.549 76.5,103.5C 77.3324,102.671 76.999,101.838 75.5,101C 76.6924,98.6451 78.359,96.8118 80.5,95.5 Z"/></g>
<g><path style="opacity:1" fill="#77b7e0" d="M 151.5,102.5 C 151.335,106.182 151.501,109.848 152,113.5C 153.619,119.399 155.785,125.066 158.5,130.5C 157.03,129.775 155.864,128.109 155,125.5C 149.43,127.532 143.763,129.199 138,130.5C 137.667,130.167 137.333,129.833 137,129.5C 128.815,132.228 120.982,135.728 113.5,140C 108.886,141.479 104.22,142.646 99.5,143.5C 99.8128,147.042 99.4794,150.375 98.5,153.5C 99.1794,144.757 99.1794,136.09 98.5,127.5C 99.3986,126.006 99.0653,124.506 97.5,123C 100.01,120.323 102.677,117.823 105.5,115.5C 117.591,119.354 127.924,116.688 136.5,107.5C 137.976,106.267 139.643,105.267 141.5,104.5C 143.884,105.012 146.217,105.679 148.5,106.5C 149.251,107.376 149.751,108.376 150,109.5C 150.186,106.964 150.686,104.631 151.5,102.5 Z"/></g>
<g><path style="opacity:1" fill="#7abbe1" d="M 158.5,130.5 C 161.357,133.546 163.19,137.213 164,141.5C 166.986,166.507 155.986,180.174 131,182.5C 112.463,181.463 101.63,171.797 98.5,153.5C 99.4794,150.375 99.8128,147.042 99.5,143.5C 104.22,142.646 108.886,141.479 113.5,140C 120.982,135.728 128.815,132.228 137,129.5C 137.333,129.833 137.667,130.167 138,130.5C 143.763,129.199 149.43,127.532 155,125.5C 155.864,128.109 157.03,129.775 158.5,130.5 Z"/></g>
</svg>
