<svg xmlns="http://www.w3.org/2000/svg" width="202" height="249" viewBox="0 0 202 249" version="1.1"><path d="M 0 19 C 0 29.450, 0.245 38, 0.544 38 C 0.843 38, 14.505 31.025, 30.905 22.500 C 47.304 13.975, 61.009 7, 61.361 7 C 61.712 7, 62 11.275, 62 16.500 C 62 21.725, 62.138 26, 62.306 26 C 62.474 26, 67.536 23.067, 73.556 19.482 C 93.245 7.757, 108.020 3.098, 128.050 2.298 L 141.600 1.756 150.050 3.867 C 177.925 10.828, 197.463 33.085, 200.784 61.661 L 201.579 68.500 202.287 45 C 202.677 32.075, 202.996 16.663, 202.998 10.750 L 203 0 101.500 0 L 0 0 0 19 M 0.417 19.500 C 0.418 29.950, 0.566 34.089, 0.746 28.698 C 0.926 23.307, 0.925 14.757, 0.744 9.698 C 0.563 4.639, 0.416 9.050, 0.417 19.500 M 98 58.576 C 88.851 60.979, 78.510 66.649, 72.028 72.818 L 66 78.553 66 162.777 L 66 247 33 247 C 11.562 247, -0 247.352, -0 248.005 C -0 249.392, 202.204 248.888, 202.667 247.500 C 202.887 246.843, 191.512 246.595, 169.501 246.776 L 136 247.052 136 163.710 C 136 75.942, 135.815 71.896, 131.451 64.370 L 129.056 60.240 125.008 58.620 C 119.912 56.581, 105.685 56.558, 98 58.576" stroke="none" fill="#fafbfb" fill-rule="evenodd"/><path d="M 117 2.707 C 103.277 5.092, 87.496 11.186, 73.556 19.485 C 67.536 23.068, 62.474 26, 62.306 26 C 62.138 26, 62 21.725, 62 16.500 C 62 11.275, 61.717 7, 61.372 7 C 61.027 7, 47.080 14.087, 30.379 22.750 L 0.014 38.500 0.007 142.750 L 0 247 33 247 L 66 247 66 162.777 L 66 78.553 72.028 72.818 C 85.591 59.911, 111.130 53.067, 125.008 58.620 L 129.056 60.240 131.451 64.370 C 135.815 71.896, 136 75.943, 136 163.697 L 136 247.027 169.250 246.763 L 202.500 246.500 202.541 141.500 C 202.564 83.750, 202.339 43.700, 202.041 52.500 L 201.500 68.500 200.793 61.803 C 197.830 33.761, 177.970 10.891, 150.590 3.993 L 142.680 2 131.090 2.136 C 124.716 2.211, 118.375 2.468, 117 2.707 M 0.482 142.500 C 0.482 200.250, 0.602 223.728, 0.750 194.673 C 0.897 165.619, 0.897 118.369, 0.750 89.673 C 0.602 60.978, 0.482 84.750, 0.482 142.500" stroke="none" fill="#2d455c" fill-rule="evenodd"/></svg>