<svg xmlns="http://www.w3.org/2000/svg" width="300" height="300" viewBox="0 0 300 300" version="1.1"><path d="M 141.385 32.617 C 128.533 37.175, 117.210 55.493, 110.062 83.289 C 106.756 96.148, 106.081 100.832, 107.496 101.099 C 108.044 101.203, 111.475 96.160, 115.122 89.894 C 126.461 70.409, 134.018 64, 145.651 64 C 153.553 64, 158.716 66.771, 166.246 75.053 L 172.500 81.932 182.677 79.360 L 192.853 76.789 189.372 69.144 C 182.542 54.146, 176.465 45.604, 167.277 38.090 C 158.759 31.125, 150.510 29.381, 141.385 32.617 M 206.675 83.056 C 186.231 85.432, 163.942 92.469, 140.500 103.949 C 119.009 114.474, 89.876 134.336, 77.710 146.759 L 72.919 151.651 77.917 156.325 C 80.665 158.896, 83.858 161, 85.011 161 C 86.222 161, 91.631 157.076, 97.804 151.720 C 121.979 130.746, 146.038 114.564, 173.851 100.572 C 186.713 94.101, 195.883 90.925, 218.780 85.012 C 221.134 84.404, 222.795 83.478, 222.471 82.953 C 221.801 81.869, 216.596 81.903, 206.675 83.056 M 190.573 101.089 C 186.763 102.701, 183.494 104.173, 183.307 104.359 C 183.121 104.546, 184.779 111.401, 186.992 119.593 C 193.609 144.091, 195.244 157.756, 195.755 192.812 C 196.281 228.873, 195.432 238.018, 189.828 256.712 C 187.615 264.096, 186.062 270.395, 186.378 270.711 C 188.456 272.790, 195.656 259.144, 200.394 244.148 C 209.808 214.345, 212.737 169.866, 207.551 135.439 C 204.066 112.305, 200.670 97.951, 198.711 98.079 C 198.045 98.122, 194.383 99.477, 190.573 101.089 M 43 133.540 C 43 134.683, 47.457 142.802, 51.762 149.500 C 58.688 160.279, 67.981 170.749, 81.177 182.645 C 103.674 202.925, 118.907 213.182, 146.500 226.630 C 160.901 233.648, 182.236 242, 185.763 242 C 186.318 242, 187.049 239.975, 187.386 237.500 C 187.724 235.025, 188.272 231.001, 188.605 228.558 L 189.210 224.117 183.355 222.509 C 154.671 214.632, 122.716 198.793, 93.173 177.811 C 77.643 166.781, 58.214 149.378, 51.561 140.537 C 48.441 136.392, 45.238 133, 44.444 133 C 43.650 133, 43 133.243, 43 133.540 M 143.970 146.250 C 136.431 150.058, 131.931 159.318, 133.959 166.849 C 136.528 176.390, 142.760 181.317, 152.399 181.429 C 170.356 181.638, 178.439 162.370, 165.945 149.140 C 160.806 143.698, 151.456 142.468, 143.970 146.250 M 232.485 161.931 C 232.888 163.767, 234.932 167.922, 237.027 171.162 C 242.086 178.990, 244.961 187.751, 245.669 197.500 C 246.336 206.684, 245.211 210.413, 239.970 216.382 C 235.765 221.171, 231.199 223.462, 222.110 225.343 C 218.097 226.174, 214.627 227.040, 214.399 227.268 C 213.433 228.234, 209.887 244.184, 210.180 246.246 C 210.469 248.282, 211.369 248.621, 219.500 249.751 C 233.018 251.631, 249.238 249.395, 257.591 244.500 C 262.609 241.559, 267.482 236.176, 269.502 231.341 C 271.354 226.909, 271.418 217.151, 269.639 210.500 C 265.996 196.883, 252.312 177.077, 237.094 163.395 L 231.751 158.591 232.485 161.931 M 50.390 175.100 C 39.862 188.151, 30 209.801, 30 219.859 C 30 232.364, 37.301 243.179, 48 246.524 C 56.316 249.123, 70.128 249.534, 82.073 247.536 C 94.001 245.542, 112.384 240.545, 115.295 238.506 C 117.298 237.103, 117.285 237.059, 114.558 236.022 C 112.654 235.298, 110.637 235.284, 108.141 235.978 C 101.039 237.950, 84.266 236.227, 75.692 232.645 C 70.903 230.644, 65.212 225.336, 62.813 220.634 C 59.554 214.245, 60.616 202.817, 65.468 192.070 L 69.175 183.860 66.415 179.878 C 63.696 175.953, 57.026 169.998, 55.356 170.002 C 54.885 170.004, 52.650 172.298, 50.390 175.100" stroke="none" fill="#4e75b5" fill-rule="evenodd"/></svg>