<svg xmlns="http://www.w3.org/2000/svg" width="300" height="300" viewBox="0 0 300 300" version="1.1"><path d="M 139.396 33.825 C 132.569 37.127, 126.445 43.802, 120.514 54.409 C 114.672 64.855, 106.399 92.916, 107.177 99.644 C 107.465 102.129, 108.546 100.747, 115.501 89.003 C 119.897 81.580, 125.105 73.895, 127.074 71.926 C 135.059 63.941, 146.340 61.566, 155.415 65.959 C 158.063 67.241, 162.653 71.084, 166.274 75.052 L 172.547 81.925 182.718 79.282 L 192.889 76.640 186.323 63.727 C 175.854 43.138, 164.192 32.213, 151.731 31.320 C 146.342 30.934, 144.675 31.272, 139.396 33.825 M 212 82.633 C 210.625 82.832, 205.450 83.500, 200.500 84.118 C 178.216 86.899, 145.967 99.239, 120.594 114.695 C 108.732 121.920, 83.690 140.641, 77.710 146.754 L 72.919 151.651 77.917 156.325 C 80.665 158.896, 83.874 161, 85.047 161 C 86.270 161, 90.446 158.081, 94.840 154.154 C 130.586 122.207, 174.916 96.109, 207.284 87.956 C 222.214 84.195, 223.065 83.914, 222.471 82.953 C 221.902 82.032, 217.164 81.888, 212 82.633 M 191 101.067 C 187.425 102.643, 184.121 104.074, 183.657 104.247 C 183.193 104.420, 184.165 109.273, 185.816 115.031 C 193.640 142.316, 196.010 161.988, 195.969 199.319 C 195.933 232.552, 195.349 238.048, 189.920 256.323 C 187.661 263.926, 186.069 270.403, 186.382 270.716 C 188.320 272.653, 195.340 259.752, 199.833 246 C 206.563 225.402, 209.174 206.686, 209.529 176.500 C 209.758 157.050, 209.439 149.751, 207.848 138 C 204.843 115.812, 200.749 97.932, 198.711 98.101 C 198.045 98.156, 194.575 99.491, 191 101.067 M 43 133.664 C 43 135.201, 52.541 151.156, 57.099 157.243 C 64.100 166.592, 88.431 189.707, 102 199.900 C 116.424 210.735, 128.661 218.035, 148.182 227.449 C 161.388 233.817, 182.489 242, 185.704 242 C 186.675 242, 189.418 225.085, 188.583 224.250 C 188.368 224.035, 183.650 222.542, 178.099 220.933 C 148.735 212.422, 114.838 194.589, 84.909 171.905 C 72.332 162.374, 56.679 147.661, 51.083 140.112 C 48.183 136.200, 45.178 133, 44.405 133 C 43.632 133, 43 133.299, 43 133.664 M 145.684 145.449 C 140.849 147.173, 138.309 149.478, 135.778 154.436 C 131.665 162.496, 134.396 173.658, 141.682 178.566 C 148.596 183.223, 159.186 182.409, 165.662 176.724 C 174.223 169.207, 174.084 157.078, 165.342 148.814 C 160.171 143.926, 153.268 142.744, 145.684 145.449 M 232.022 160.023 C 232.047 161.710, 234.897 167.640, 238.499 173.500 C 244.367 183.048, 247.627 200.539, 245.014 208.457 C 243.457 213.176, 237.813 219.545, 233.022 221.989 C 231.034 223.003, 226.124 224.512, 222.110 225.343 C 218.097 226.174, 214.627 227.040, 214.399 227.268 C 213.433 228.234, 209.887 244.184, 210.180 246.246 C 210.474 248.319, 211.302 248.594, 220.500 249.675 C 233.752 251.233, 248.285 249.485, 256.237 245.376 C 261.062 242.883, 266.061 237.813, 268.564 232.873 C 274.799 220.569, 268.806 200.259, 253.198 180.799 C 246.385 172.305, 231.995 158.187, 232.022 160.023 M 48.393 177.974 C 36.700 193.795, 29.382 211.707, 30.240 222.402 C 30.835 229.813, 34.436 237.419, 39.422 241.797 C 49.347 250.511, 73.663 251.137, 100.989 243.381 C 111.604 240.368, 117.119 238.002, 116.366 236.783 C 116.023 236.227, 111.449 236.110, 105.143 236.495 C 94.070 237.171, 83.141 235.757, 75.831 232.703 C 70.915 230.649, 65.237 225.385, 62.813 220.634 C 59.596 214.327, 60.618 202.967, 65.377 192.142 C 67.370 187.611, 69 183.661, 69 183.365 C 69 182.237, 56.625 170, 55.485 170 C 54.826 170, 51.634 173.588, 48.393 177.974" stroke="none" fill="#4e75b5" fill-rule="evenodd"/><path d="M 0 150.003 L 0 300.006 150.250 299.753 L 300.500 299.500 300.753 149.750 L 301.007 -0 150.503 -0 L 0 0 0 150.003 M 0.487 150.500 C 0.487 233, 0.605 266.602, 0.750 225.172 C 0.894 183.741, 0.894 116.241, 0.750 75.172 C 0.605 34.102, 0.487 68, 0.487 150.500 M 139.396 33.825 C 132.569 37.127, 126.445 43.802, 120.514 54.409 C 114.672 64.855, 106.399 92.916, 107.177 99.644 C 107.465 102.129, 108.546 100.747, 115.501 89.003 C 119.897 81.580, 125.105 73.895, 127.074 71.926 C 135.059 63.941, 146.340 61.566, 155.415 65.959 C 158.063 67.241, 162.653 71.084, 166.274 75.052 L 172.547 81.925 182.718 79.282 L 192.889 76.640 186.323 63.727 C 175.854 43.138, 164.192 32.213, 151.731 31.320 C 146.342 30.934, 144.675 31.272, 139.396 33.825 M 212 82.633 C 210.625 82.832, 205.450 83.500, 200.500 84.118 C 178.216 86.899, 145.967 99.239, 120.594 114.695 C 108.732 121.920, 83.690 140.641, 77.710 146.754 L 72.919 151.651 77.917 156.325 C 80.665 158.896, 83.874 161, 85.047 161 C 86.270 161, 90.446 158.081, 94.840 154.154 C 130.586 122.207, 174.916 96.109, 207.284 87.956 C 222.214 84.195, 223.065 83.914, 222.471 82.953 C 221.902 82.032, 217.164 81.888, 212 82.633 M 191 101.067 C 187.425 102.643, 184.121 104.074, 183.657 104.247 C 183.193 104.420, 184.165 109.273, 185.816 115.031 C 193.640 142.316, 196.010 161.988, 195.969 199.319 C 195.933 232.552, 195.349 238.048, 189.920 256.323 C 187.661 263.926, 186.069 270.403, 186.382 270.716 C 188.320 272.653, 195.340 259.752, 199.833 246 C 206.563 225.402, 209.174 206.686, 209.529 176.500 C 209.758 157.050, 209.439 149.751, 207.848 138 C 204.843 115.812, 200.749 97.932, 198.711 98.101 C 198.045 98.156, 194.575 99.491, 191 101.067 M 43 133.664 C 43 135.201, 52.541 151.156, 57.099 157.243 C 64.100 166.592, 88.431 189.707, 102 199.900 C 116.424 210.735, 128.661 218.035, 148.182 227.449 C 161.388 233.817, 182.489 242, 185.704 242 C 186.675 242, 189.418 225.085, 188.583 224.250 C 188.368 224.035, 183.650 222.542, 178.099 220.933 C 148.735 212.422, 114.838 194.589, 84.909 171.905 C 72.332 162.374, 56.679 147.661, 51.083 140.112 C 48.183 136.200, 45.178 133, 44.405 133 C 43.632 133, 43 133.299, 43 133.664 M 145.684 145.449 C 140.849 147.173, 138.309 149.478, 135.778 154.436 C 131.665 162.496, 134.396 173.658, 141.682 178.566 C 148.596 183.223, 159.186 182.409, 165.662 176.724 C 174.223 169.207, 174.084 157.078, 165.342 148.814 C 160.171 143.926, 153.268 142.744, 145.684 145.449 M 232.022 160.023 C 232.047 161.710, 234.897 167.640, 238.499 173.500 C 244.367 183.048, 247.627 200.539, 245.014 208.457 C 243.457 213.176, 237.813 219.545, 233.022 221.989 C 231.034 223.003, 226.124 224.512, 222.110 225.343 C 218.097 226.174, 214.627 227.040, 214.399 227.268 C 213.433 228.234, 209.887 244.184, 210.180 246.246 C 210.474 248.319, 211.302 248.594, 220.500 249.675 C 233.752 251.233, 248.285 249.485, 256.237 245.376 C 261.062 242.883, 266.061 237.813, 268.564 232.873 C 274.799 220.569, 268.806 200.259, 253.198 180.799 C 246.385 172.305, 231.995 158.187, 232.022 160.023 M 48.393 177.974 C 36.700 193.795, 29.382 211.707, 30.240 222.402 C 30.835 229.813, 34.436 237.419, 39.422 241.797 C 49.347 250.511, 73.663 251.137, 100.989 243.381 C 111.604 240.368, 117.119 238.002, 116.366 236.783 C 116.023 236.227, 111.449 236.110, 105.143 236.495 C 94.070 237.171, 83.141 235.757, 75.831 232.703 C 70.915 230.649, 65.237 225.385, 62.813 220.634 C 59.596 214.327, 60.618 202.967, 65.377 192.142 C 67.370 187.611, 69 183.661, 69 183.365 C 69 182.237, 56.625 170, 55.485 170 C 54.826 170, 51.634 173.588, 48.393 177.974" stroke="none" fill="#fbfbfb" fill-rule="evenodd"/></svg>