<svg xmlns="http://www.w3.org/2000/svg" width="490" height="683" viewBox="0 0 490 683" version="1.1"><path d="M 0 341.500 L 0 683 9.894 683 L 19.787 683 18.766 678.750 C 16.910 671.024, 17.584 637.892, 19.860 624.970 C 22.359 610.781, 27.010 596.449, 31.695 588.500 C 35.210 582.535, 35.221 582.482, 33.470 579.500 C 23.544 562.595, 18.304 549.237, 14.957 532.300 C 13.230 523.563, 12.809 517.680, 12.754 501.500 C 12.681 479.907, 13.496 472.795, 18.029 455.500 C 20.931 444.426, 27.551 426.906, 30.337 422.929 C 31.724 420.950, 31.587 420.393, 28.553 415.643 C 20.313 402.742, 14.438 388.016, 11.342 372.500 C 8.653 359.022, 8.910 331.062, 11.850 317.266 C 14.693 303.928, 18.036 294.676, 24.233 283 C 31.458 269.386, 34.698 265.199, 50.224 249.418 C 62.902 236.531, 63.999 235.128, 63.149 232.892 C 59.475 223.230, 59.032 167.844, 62.478 149 C 65.050 134.930, 70.434 117.076, 74.599 108.798 C 82.719 92.661, 90.565 83.823, 101.639 78.340 C 108.588 74.900, 109.040 74.815, 118.639 75.160 C 130.643 75.590, 136.590 78.008, 145.331 86.011 C 160.917 100.279, 172.016 126.778, 177.037 161.706 L 178.217 169.911 187.219 165.390 C 205.801 156.058, 223.259 151.979, 244.381 152.035 C 265.473 152.091, 281.037 155.795, 300.471 165.384 L 310.841 170.500 311.485 165 C 313.720 145.925, 320.509 121.883, 327.682 107.639 C 334.364 94.370, 344.139 83.608, 354.455 78.163 C 359.072 75.726, 360.475 75.500, 371 75.500 C 382.200 75.500, 382.665 75.589, 388.820 78.927 C 406.547 88.538, 420.059 113.651, 426.522 149 C 429.972 167.869, 429.524 223.231, 425.843 232.914 C 424.982 235.177, 426.001 236.490, 438.291 248.940 C 453.394 264.239, 456.237 267.710, 462.014 277.904 C 467.025 286.747, 474.444 308.308, 476.660 320.466 C 478.911 332.818, 478.890 359.291, 476.620 371.765 C 473.850 386.979, 466.536 405.217, 458.763 416.292 L 456.804 419.085 460.289 426.292 C 466.918 440.002, 471.683 455.024, 474.626 471.500 C 476.890 484.171, 476.876 517.302, 474.602 529.248 C 471.187 547.185, 465.134 563.427, 456.417 578.049 L 453.705 582.597 456.342 586.582 C 461.775 594.792, 467.633 613.742, 470.073 631 C 471.520 641.232, 471.604 672.794, 470.201 678.783 L 469.198 683.066 479.849 682.783 L 490.500 682.500 490.751 341.250 L 491.003 0 245.501 0 L 0 0 0 341.500 M 0.494 342 C 0.494 529.825, 0.609 606.662, 0.750 512.750 C 0.891 418.837, 0.891 265.162, 0.750 171.250 C 0.609 77.337, 0.494 154.175, 0.494 342 M 114.495 114.750 C 110.811 118.668, 105.448 130.084, 102.633 140 C 97.709 157.344, 96.545 166.963, 96.522 190.500 C 96.499 214.289, 97.020 218.598, 99.792 217.514 C 103.052 216.238, 118.554 214.006, 128.647 213.359 L 138.795 212.709 141.042 207.910 C 143.140 203.431, 143.242 202.291, 142.579 190.806 C 141.098 165.188, 137.404 146.037, 130.953 130.543 C 127.493 122.232, 120.614 112, 118.485 112 C 117.713 112, 115.917 113.237, 114.495 114.750 M 367.940 114.060 C 356.582 125.418, 348.543 154.088, 346.421 190.806 C 345.758 202.291, 345.860 203.431, 347.958 207.910 L 350.205 212.709 360.353 213.343 C 369.491 213.914, 383.035 215.930, 388.612 217.548 C 391.607 218.417, 392.006 216.352, 392.685 196.500 C 393.788 164.209, 387.443 133.408, 376.358 117.250 C 372.408 111.492, 371.030 110.970, 367.940 114.060 M 230.625 189.554 C 212.076 193.240, 194.403 201.894, 180.728 213.988 C 173.758 220.153, 167.115 229.172, 161.977 239.449 C 156.096 251.211, 155.086 251.744, 141.500 250.248 C 136 249.643, 130.375 249.319, 129 249.528 C 103.687 253.379, 91.531 259.186, 75.283 275.190 C 58.908 291.318, 48.875 312.791, 46.021 337.817 C 43.462 360.257, 53.391 392.404, 66.082 402.767 C 71.516 407.204, 73.265 411.373, 72.807 418.796 C 72.455 424.499, 71.818 426.388, 68.542 431.443 C 53.182 455.150, 46.072 489.520, 50.471 518.808 C 53.164 536.737, 58.276 549.428, 68.874 564.500 L 74.500 572.500 74.500 580.500 C 74.500 588.340, 74.393 588.686, 69.164 597.790 C 62.124 610.045, 59.549 616.605, 56.864 629.117 C 53.842 643.202, 53.605 667.400, 56.397 676.750 L 58.264 683 244.500 683 L 430.736 683 432.603 676.750 C 435.395 667.400, 435.158 643.202, 432.136 629.117 C 429.484 616.758, 427.109 610.650, 420.030 597.984 C 411.750 583.171, 411.772 575.632, 420.126 564.351 C 436.621 542.079, 442.958 513.635, 438.475 482 C 435.945 464.141, 430.177 447.490, 421.792 433.836 C 417.172 426.312, 416.633 424.818, 416.252 418.500 C 415.789 410.834, 415.465 411.553, 424.670 399.817 C 439.275 381.195, 445.305 352.624, 440.038 327 C 435.966 307.188, 427.440 290.676, 414.026 276.626 C 405.385 267.575, 398.336 262.499, 386.706 256.952 C 373.676 250.737, 361.209 248.813, 344 250.362 C 336.361 251.050, 335.168 250.918, 332.225 249.063 C 330.424 247.928, 328.484 245.762, 327.914 244.250 C 317.821 217.461, 289.700 195.763, 257.049 189.569 C 247.221 187.704, 239.954 187.700, 230.625 189.554 M 226.585 335.039 C 190.921 340.647, 161.586 363.052, 151.351 392.500 C 148.846 399.708, 148.576 401.787, 148.625 413.500 C 148.673 424.801, 149.014 427.445, 151.235 433.733 C 159.371 456.767, 177.594 472.718, 205 480.794 C 212.901 483.122, 215.371 483.330, 240.072 483.743 C 268.954 484.226, 276.577 483.446, 291.141 478.519 C 306.815 473.216, 324.108 459.711, 331.821 446.750 C 345.681 423.457, 343.624 394.590, 326.479 371.793 C 313.583 354.646, 294.995 342.848, 271.500 336.897 C 262.281 334.562, 236.422 333.493, 226.585 335.039 M 117.748 339.427 C 111.434 341.680, 107.290 345.606, 104.042 352.412 C 101.530 357.676, 101 360.032, 101 365.943 C 101 373.940, 102.156 376.895, 107.165 381.699 C 111.784 386.130, 116.849 388.001, 124.218 387.996 C 133.926 387.990, 141.155 382.877, 146.125 372.500 C 149.656 365.127, 150.028 356.914, 147.088 351.210 C 141.555 340.477, 128.969 335.422, 117.748 339.427 M 355.634 338.971 C 339.277 344.213, 334.803 365.406, 347.104 379.381 C 353.258 386.373, 356.575 388, 364.672 388 C 373.914 388, 380.638 384.772, 384.948 378.265 C 387.644 374.194, 388 372.815, 388 366.428 C 388 355.601, 383.095 345.898, 375.318 341.341 C 370.476 338.503, 360.747 337.332, 355.634 338.971 M 227 360.560 C 212.262 363.736, 198.769 370.646, 188.999 380.023 C 177.723 390.844, 172.246 403.462, 173.310 416.163 C 174.959 435.823, 190.194 450.932, 214.500 457.013 C 222.395 458.988, 226.079 459.266, 244.500 459.278 C 262.975 459.290, 266.582 459.021, 274.500 457.042 C 315.753 446.727, 329.012 408.937, 301.103 381.218 C 290.503 370.690, 277.414 363.844, 261.500 360.504 C 252.790 358.676, 235.613 358.704, 227 360.560 M 225.913 391.282 C 221.592 394.599, 220.708 402.088, 224.125 406.431 C 225.293 407.917, 227.995 410.234, 230.129 411.582 L 234.009 414.031 233.364 422.421 C 232.742 430.521, 232.809 430.900, 235.314 433.405 C 237.521 435.612, 238.792 436, 243.809 436 C 248.756 436, 250.155 435.586, 252.478 433.433 C 255.213 430.898, 255.239 430.757, 254.587 422.183 L 253.927 413.500 258.014 411.191 C 266.568 406.358, 268.626 396.302, 262.087 391.282 C 259.535 389.322, 250.953 389.731, 247.250 391.989 C 244.010 393.964, 243.990 393.964, 240.750 391.989 C 237.047 389.731, 228.465 389.322, 225.913 391.282" stroke="none" fill="#fdfeff" fill-rule="evenodd"/><path d="M 106.909 76.836 C 84.980 84.088, 69.127 111.474, 62.491 153.571 C 59.110 175.018, 59.617 216.376, 63.441 231.121 L 64.688 235.927 54.193 246.214 C 40.115 260.012, 34.200 267.100, 27.991 277.611 C 21.492 288.614, 16.930 299.836, 13.307 313.735 C 10.630 324.002, 10.503 325.518, 10.558 346.500 C 10.612 366.943, 10.800 369.178, 13.209 378.085 C 16.747 391.168, 21.189 401.928, 27.123 411.794 L 32.112 420.088 27.132 431.794 C 17.486 454.472, 14.143 469.422, 13.308 493.612 C 12.120 528.069, 18.057 552.454, 34.097 579 L 36.211 582.500 32.735 588.227 C 28.390 595.383, 22.695 612.515, 20.509 625 C 18.207 638.152, 17.419 663.361, 18.969 674.278 L 20.207 683 38.603 683 C 48.721 683, 57 682.803, 57 682.562 C 57 682.321, 56.280 679.059, 55.399 675.312 C 53.302 666.388, 53.318 646.518, 55.432 633.599 C 57.632 620.151, 60.752 611.370, 67.880 598.550 C 71.192 592.595, 74.194 586.393, 74.551 584.769 C 75.560 580.173, 74.196 573.893, 71.217 569.420 C 69.723 567.176, 66.624 562.550, 64.331 559.140 C 47.228 533.707, 43.669 492.650, 55.509 457.380 C 58.206 449.343, 63.204 438.849, 68.614 429.863 C 73.220 422.211, 73.923 416.538, 71.009 410.519 C 69.776 407.972, 67.432 404.901, 65.799 403.694 C 61.644 400.623, 54.510 388.780, 50.968 379.075 C 34.182 333.079, 55.272 279.025, 98.500 257.252 C 111.479 250.714, 116.800 249.618, 136 249.524 C 145.625 249.477, 154.303 249.061, 155.284 248.599 C 156.265 248.138, 158.893 244.101, 161.125 239.630 C 173.200 215.430, 191.458 200.529, 220.500 191.171 C 227.693 188.853, 230.064 188.594, 244 188.601 C 258.245 188.609, 260.188 188.835, 268 191.396 C 295.565 200.431, 315.291 216.427, 326.088 238.500 C 331.892 250.366, 331.754 250.297, 347.962 249.494 C 363.526 248.723, 372.556 250.116, 384.720 255.165 C 398.986 261.086, 414.031 273.261, 423.624 286.648 C 429.790 295.252, 436.634 310.186, 439.698 321.723 C 441.926 330.107, 442.296 333.565, 442.296 346 C 442.296 358.411, 441.924 361.899, 439.716 370.210 C 436.579 382.013, 429.607 395.853, 422.982 403.423 C 414.659 412.935, 414.181 419.961, 421.102 431.099 C 433.918 451.728, 440.145 474.162, 440.227 500 C 440.315 527.741, 434.949 544.630, 418.482 568.438 C 414.886 573.636, 413.361 579.814, 414.449 584.769 C 414.806 586.393, 417.808 592.595, 421.120 598.550 C 428.168 611.226, 431.187 619.735, 433.517 633.500 C 435.701 646.399, 435.741 666.206, 433.601 675.312 C 432.720 679.059, 432 682.321, 432 682.562 C 432 682.803, 440.279 683, 450.397 683 L 468.793 683 470.036 674.250 C 471.762 662.092, 470.765 636.628, 468.014 622.619 C 465.470 609.662, 460.223 594.480, 455.886 587.525 L 452.752 582.500 454.886 579 C 463.823 564.338, 470.744 546.613, 473.770 530.632 C 476.487 516.287, 476.133 481.046, 473.131 467 C 470.358 454.024, 465.479 439.226, 460.232 427.876 L 456.245 419.251 459.293 414.376 C 465.155 404.997, 471.175 390.858, 474.256 379.227 C 477.219 368.040, 477.366 366.579, 477.431 347.500 C 477.508 325.107, 476.474 318.130, 470.444 300.345 C 468.550 294.759, 467 289.652, 467 288.995 C 467 286.863, 456.117 269.243, 451.125 263.293 C 448.452 260.107, 441.289 252.602, 435.209 246.615 C 425.822 237.373, 424.272 235.410, 424.946 233.615 C 428.821 223.296, 429.895 174.653, 426.693 154.500 C 422.040 125.210, 413.096 102.738, 400.767 89.363 C 395.094 83.208, 389.569 79.550, 382.199 77.067 C 361.539 70.107, 341.684 81.785, 328.041 108.918 C 320.456 124.005, 314.052 146.832, 312.391 164.706 L 311.724 171.880 301.751 166.875 C 282.854 157.392, 261.948 152.012, 244 152.012 C 226.690 152.012, 205.736 157.187, 188 165.844 C 182.775 168.394, 178.226 170.613, 177.892 170.776 C 177.557 170.939, 176.975 168.018, 176.599 164.286 C 173.698 135.534, 162.006 104.810, 148.353 90.064 C 136.347 77.096, 120.966 72.187, 106.909 76.836 M 113.874 114.135 C 101.489 127.393, 93.188 169.093, 95.946 204.197 C 96.559 212.006, 97.188 218.521, 97.343 218.676 C 97.498 218.831, 100.071 218.322, 103.062 217.546 C 109.023 215.999, 130.592 212.997, 135.730 212.999 C 142.693 213.001, 144.531 201.661, 141.960 174.553 C 140.120 155.151, 133.978 132.464, 127.635 121.641 C 124.598 116.458, 119.656 111, 118 111 C 117.341 111, 115.485 112.411, 113.874 114.135 M 366.315 114.750 C 355.612 126.369, 347.497 156.278, 346.303 188.506 C 345.745 203.583, 345.836 204.758, 347.876 208.756 C 349.748 212.426, 350.478 213, 353.270 212.999 C 358.881 212.997, 380.279 216.040, 385.838 217.630 C 388.774 218.470, 391.342 218.991, 391.546 218.787 C 391.750 218.584, 392.413 212.361, 393.020 204.959 C 395.334 176.755, 390.530 143.207, 381.483 124.399 C 377.995 117.146, 373.179 111, 370.984 111 C 370.316 111, 368.215 112.688, 366.315 114.750 M 233.500 335.053 C 194.388 338.030, 160.029 363.422, 151.061 395.980 C 148.505 405.256, 148.286 420.434, 150.579 429.356 C 154.410 444.263, 167.699 461.804, 181.243 469.831 C 189.658 474.817, 201.575 479.660, 210 481.517 C 219.881 483.694, 255.252 484.664, 268.369 483.117 C 303.443 478.981, 331.046 457.768, 338.429 429.276 C 340.444 421.499, 340.473 405.279, 338.485 397.460 C 334.924 383.452, 324.134 367.226, 311.859 357.420 C 290.064 340.008, 264.453 332.698, 233.500 335.053 M 115.203 341.586 C 104.512 346.914, 98.259 362.533, 102.437 373.473 C 106.840 385.003, 121.827 391.167, 132.682 385.912 C 141.564 381.612, 148 371.094, 148 360.877 C 148 343.846, 130.878 333.775, 115.203 341.586 M 354 340.541 C 342.069 345.891, 337.532 359.793, 343.560 372.535 C 346.266 378.255, 352.356 384.312, 357.718 386.617 C 367.774 390.939, 382.446 384.253, 386.563 373.473 C 390.371 363.502, 384.985 348.386, 375.535 342.525 C 369.668 338.887, 359.732 337.971, 354 340.541 M 231.500 359.040 C 204.608 363.229, 183.011 378.775, 174.923 399.764 C 171.907 407.591, 171.873 419.334, 174.844 427 C 181.019 442.931, 198.808 455.512, 220 458.935 C 228.160 460.253, 260.498 460.311, 268.500 459.022 C 297.221 454.396, 316.655 435.709, 316.362 413 C 316.064 389.973, 295.367 368.403, 266.446 360.979 C 257.252 358.618, 240.257 357.676, 231.500 359.040 M 225.816 392.873 C 219.965 398.101, 221.841 405.244, 230.483 410.639 C 234.793 413.331, 235.031 413.707, 234.504 417 C 232.579 429.044, 232.615 429.706, 235.325 432.416 C 237.515 434.606, 238.801 435, 243.766 435 C 252.862 435, 256.130 430.870, 254.078 421.967 C 252.383 414.609, 252.644 413.727, 257.408 410.717 C 262.979 407.198, 265 404.112, 265 399.124 C 265 395.945, 264.402 394.674, 261.923 392.589 C 258.029 389.312, 253.818 389.271, 248.250 392.454 L 244 394.884 239.750 392.454 C 233.984 389.157, 229.835 389.282, 225.816 392.873" stroke="none" fill="#050505" fill-rule="evenodd"/><path d="M 105.500 76.464 C 101.556 78.270, 102.448 78.301, 108 76.552 C 110.475 75.772, 111.600 75.124, 110.500 75.112 C 109.400 75.100, 107.150 75.708, 105.500 76.464 M 131.083 77.331 C 132.816 78.707, 140.923 82.684, 140.456 81.929 C 139.837 80.928, 132.599 77, 131.373 77 C 130.985 77, 130.854 77.149, 131.083 77.331 M 94.412 82.619 C 89.899 86.064, 86.267 89.828, 83.030 94.416 C 82.221 95.562, 84.696 93.316, 88.530 89.426 C 92.363 85.535, 96.625 81.621, 98 80.728 C 99.375 79.835, 100.197 79.081, 99.827 79.052 C 99.456 79.024, 97.019 80.629, 94.412 82.619 M 391 80.662 C 394.252 82.936, 403.993 92.660, 406.866 96.500 C 408.262 98.365, 408.698 98.648, 408.019 97.248 C 406.292 93.684, 395.535 82.680, 391.849 80.706 C 388.838 79.094, 388.752 79.089, 391 80.662 M 147.460 89 C 155.361 97.697, 155.652 97.974, 153.243 94.500 C 152.099 92.850, 149.001 89.475, 146.359 87 C 142.090 83, 142.212 83.223, 147.460 89 M 341.401 88.250 C 338.635 91.138, 335.224 95.077, 333.822 97.005 C 331.113 100.728, 323.966 114.421, 324.050 115.725 C 324.077 116.151, 325.938 112.903, 328.184 108.507 C 333.019 99.046, 335.652 95.295, 342.401 88.250 C 345.168 85.362, 347.207 83, 346.932 83 C 346.657 83, 344.168 85.362, 341.401 88.250 M 160.710 108.465 C 162.742 112.570, 164.567 115.767, 164.766 115.567 C 165.212 115.122, 158.164 101, 157.496 101 C 157.232 101, 158.679 104.359, 160.710 108.465 M 72.136 113.905 C 69.188 120.758, 69.548 121.749, 72.569 115.095 C 73.919 112.122, 74.855 109.521, 74.648 109.315 C 74.441 109.108, 73.311 111.174, 72.136 113.905 M 414.184 109.500 C 416.002 114.908, 419.367 122.966, 419.678 122.655 C 420.173 122.161, 416.357 112.012, 414.919 110 C 414.330 109.175, 413.999 108.950, 414.184 109.500 M 115.144 112.750 C 112.876 114.659, 105.993 125.734, 106.012 127.441 C 106.018 128.024, 107.481 125.972, 109.262 122.882 C 113.375 115.746, 115.011 113.625, 117.500 112.203 C 118.600 111.575, 118.987 111.047, 118.361 111.030 C 117.734 111.014, 116.286 111.787, 115.144 112.750 M 366.798 114.216 C 363.660 117.576, 358.012 126.773, 358.027 128.500 C 358.032 129.050, 359.324 127.165, 360.897 124.312 C 364.533 117.717, 367.587 113.826, 370.334 112.285 C 371.525 111.617, 371.893 111.055, 371.151 111.035 C 370.409 111.016, 368.450 112.447, 366.798 114.216 M 122.569 115.419 C 124.104 117.574, 126.620 121.624, 128.162 124.419 C 129.703 127.214, 130.968 129.050, 130.973 128.500 C 130.986 126.963, 125.446 117.862, 122.451 114.500 L 119.779 111.500 122.569 115.419 M 373.700 113.269 C 374.140 113.967, 375.802 116.449, 377.394 118.785 C 378.985 121.121, 381.783 126.963, 383.611 131.766 C 385.438 136.570, 386.941 139.825, 386.950 139 C 386.997 134.684, 375.615 112, 373.402 112 C 373.126 112, 373.260 112.571, 373.700 113.269 M 103.612 133.624 C 102.726 136.227, 102.033 138.839, 102.073 139.428 C 102.113 140.018, 103.012 138.061, 104.070 135.080 C 105.128 132.099, 105.821 129.487, 105.609 129.276 C 105.398 129.065, 104.499 131.021, 103.612 133.624 M 202.188 158.683 C 199.816 159.522, 198.052 160.385, 198.268 160.601 C 198.484 160.817, 201.099 160.128, 204.080 159.070 C 207.061 158.012, 208.825 157.149, 208 157.152 C 207.175 157.155, 204.559 157.844, 202.188 158.683 M 293.083 162.384 C 294.101 163.321, 310 170.970, 310 170.522 C 310 169.965, 294.443 162, 293.356 162 C 292.977 162, 292.854 162.173, 293.083 162.384 M 177.150 167.750 C 176.983 171.374, 177.704 171.732, 180.559 169.445 C 182.434 167.942, 182.426 167.925, 180.316 168.944 C 178.375 169.882, 178.087 169.694, 177.716 167.250 C 177.329 164.691, 177.289 164.726, 177.150 167.750 M 95.349 190 C 95.349 194.675, 95.522 196.588, 95.732 194.250 C 95.943 191.912, 95.943 188.088, 95.732 185.750 C 95.522 183.412, 95.349 185.325, 95.349 190 M 393.349 190 C 393.349 194.675, 393.522 196.588, 393.732 194.250 C 393.943 191.912, 393.943 188.088, 393.732 185.750 C 393.522 183.412, 393.349 185.325, 393.349 190 M 201.750 198.566 C 199.137 199.926, 197 201.262, 197 201.536 C 197 201.982, 206.900 197.306, 207.917 196.380 C 209.155 195.251, 205.901 196.405, 201.750 198.566 M 291.380 202.213 C 292.415 202.921, 296.015 205.434, 299.380 207.797 C 304.733 211.556, 305 211.656, 301.512 208.598 C 299.319 206.675, 295.719 204.162, 293.512 203.014 C 291.306 201.865, 290.346 201.505, 291.380 202.213 M 188.407 206.898 C 180.965 212.174, 173.939 219.107, 169.554 225.500 L 166.811 229.500 169.655 226.017 C 177.499 216.413, 182.995 211.406, 194.035 203.802 C 195.391 202.869, 196.233 202.081, 195.907 202.052 C 195.581 202.024, 192.206 204.204, 188.407 206.898 M 310.771 217.500 C 313.584 220.800, 316.849 224.625, 318.027 226 C 319.204 227.375, 318.744 226.419, 317.004 223.875 C 315.264 221.332, 311.999 217.507, 309.749 215.375 C 306.106 211.926, 306.219 212.160, 310.771 217.500 M 322.643 233.476 C 324.033 235.964, 325.367 238, 325.606 238 C 326.308 238, 322.121 230.193, 321.071 229.544 C 320.545 229.219, 321.252 230.988, 322.643 233.476 M 54.481 245.250 L 44.500 255.500 54.750 245.519 C 64.270 236.248, 65.455 235, 64.731 235 C 64.583 235, 59.971 239.613, 54.481 245.250 M 432.500 244 C 437.427 248.950, 441.683 253, 441.958 253 C 442.233 253, 438.427 248.950, 433.500 244 C 428.573 239.050, 424.317 235, 424.042 235 C 423.767 235, 427.573 239.050, 432.500 244 M 326.081 239.128 C 325.885 240.647, 329.048 246.788, 330.692 248.080 C 332.368 249.396, 332.393 249.364, 331.031 247.633 C 330.222 246.606, 328.796 244.131, 327.862 242.133 C 326.927 240.135, 326.125 238.783, 326.081 239.128 M 159 243.881 C 159 244.549, 157.762 246.262, 156.250 247.688 C 154.738 249.114, 154.148 250.077, 154.939 249.827 C 156.872 249.218, 160.541 244.208, 159.683 243.350 C 159.307 242.974, 159 243.213, 159 243.881 M 115 251 C 113.041 251.627, 112.933 251.797, 114.500 251.782 C 115.600 251.772, 117.850 251.420, 119.500 251 C 122.195 250.314, 122.246 250.235, 120 250.218 C 118.625 250.208, 116.375 250.560, 115 251 M 145.250 250.716 C 146.762 250.945, 149.238 250.945, 150.750 250.716 C 152.262 250.487, 151.025 250.300, 148 250.300 C 144.975 250.300, 143.738 250.487, 145.250 250.716 M 337.250 250.716 C 338.762 250.945, 341.238 250.945, 342.750 250.716 C 344.262 250.487, 343.025 250.300, 340 250.300 C 336.975 250.300, 335.738 250.487, 337.250 250.716 M 103.500 254.945 C 101.300 255.986, 99.950 256.841, 100.500 256.845 C 101.864 256.854, 109.755 253.161, 108.500 253.100 C 107.950 253.074, 105.700 253.904, 103.500 254.945 M 447.432 259 C 454.251 266.677, 455.870 268.185, 452.264 263.500 C 450.571 261.300, 447.692 258.150, 445.866 256.500 C 443.939 254.758, 444.596 255.807, 447.432 259 M 390.502 258.776 C 394.353 260.824, 399.078 263.550, 401.002 264.833 L 404.500 267.165 401.500 264.584 C 398.459 261.967, 385.920 254.978, 384.354 255.026 C 383.884 255.041, 386.651 256.728, 390.502 258.776 M 40.415 259.250 C 35.991 264.080, 33.632 267, 34.154 267 C 34.410 267, 36.755 264.525, 39.367 261.500 C 44.518 255.534, 45.241 253.982, 40.415 259.250 M 86.500 264.236 C 81.367 267.953, 73.653 275.058, 70.066 279.371 C 68.178 281.642, 70.203 280.014, 74.566 275.754 C 78.930 271.494, 84.188 266.865, 86.250 265.468 C 88.313 264.071, 90 262.719, 90 262.464 C 90 261.759, 89.736 261.893, 86.500 264.236 M 413.079 275.500 C 417.752 280.450, 423.310 287.313, 425.430 290.750 C 429.217 296.890, 431.199 299.174, 428.902 294.750 C 426.048 289.253, 418.588 279.942, 411.875 273.500 C 404.676 266.591, 404.692 266.617, 413.079 275.500 M 31.210 270.750 C 30.150 272.262, 28.754 274.512, 28.107 275.750 C 26.001 279.776, 27.624 278.124, 30.809 273 C 34.136 267.648, 34.393 266.206, 31.210 270.750 M 458.078 272.818 C 459.849 275.668, 461.485 278, 461.713 278 C 462.432 278, 457.632 269.940, 456.212 268.761 C 455.466 268.142, 456.306 269.968, 458.078 272.818 M 55.951 300.097 C 54.801 302.350, 54.032 304.365, 54.242 304.575 C 54.451 304.785, 55.602 302.941, 56.798 300.478 C 59.524 294.869, 58.787 294.537, 55.951 300.097 M 473.124 307.500 C 473.077 308.050, 473.665 310.750, 474.430 313.500 C 475.195 316.250, 475.827 317.600, 475.834 316.500 C 475.847 314.371, 473.269 305.808, 473.124 307.500 M 234.250 334.716 C 235.762 334.945, 238.238 334.945, 239.750 334.716 C 241.262 334.487, 240.025 334.300, 237 334.300 C 233.975 334.300, 232.738 334.487, 234.250 334.716 M 249.250 334.716 C 250.762 334.945, 253.238 334.945, 254.750 334.716 C 256.262 334.487, 255.025 334.300, 252 334.300 C 248.975 334.300, 247.738 334.487, 249.250 334.716 M 9.382 346.500 C 9.384 353.100, 9.546 355.670, 9.741 352.211 C 9.937 348.752, 9.936 343.352, 9.738 340.211 C 9.540 337.070, 9.380 339.900, 9.382 346.500 M 123.250 338.716 C 124.763 338.945, 127.237 338.945, 128.750 338.716 C 130.262 338.487, 129.025 338.300, 126 338.300 C 122.975 338.300, 121.737 338.487, 123.250 338.716 M 360.250 338.716 C 361.762 338.945, 364.238 338.945, 365.750 338.716 C 367.262 338.487, 366.025 338.300, 363 338.300 C 359.975 338.300, 358.738 338.487, 360.250 338.716 M 442.349 346 C 442.349 350.675, 442.522 352.587, 442.732 350.250 C 442.943 347.913, 442.943 344.087, 442.732 341.750 C 442.522 339.413, 442.349 341.325, 442.349 346 M 478.349 346 C 478.349 350.675, 478.522 352.587, 478.732 350.250 C 478.943 347.913, 478.943 344.087, 478.732 341.750 C 478.522 339.413, 478.349 341.325, 478.349 346 M 112.783 341.922 C 108.748 344.481, 103 351.897, 103 354.544 C 103 355.021, 104.463 352.976, 106.250 349.999 C 108.757 345.824, 110.726 343.948, 114.864 341.793 C 117.814 340.257, 119.590 339, 118.810 339 C 118.030 339, 115.318 340.315, 112.783 341.922 M 349.988 341.896 C 346.019 344.562, 340.962 351.124, 341.045 353.500 C 341.064 354.050, 341.791 353.150, 342.659 351.500 C 345.107 346.847, 349.117 342.925, 353.500 340.896 C 355.700 339.877, 356.780 339.034, 355.900 339.022 C 355.021 339.010, 352.360 340.303, 349.988 341.896 M 371.818 340.519 C 373.643 341.312, 376.455 342.900, 378.068 344.048 C 379.681 345.197, 381 345.871, 381 345.546 C 381 344.532, 371.690 338.998, 370.054 339.039 C 369.199 339.061, 369.993 339.727, 371.818 340.519 M 136.500 341.164 C 143.630 345.098, 147.257 351.159, 148.068 360.500 L 148.677 367.500 148.838 361.210 C 148.954 356.720, 148.448 353.839, 147.072 351.142 C 144.990 347.059, 137.775 339.981, 135.747 340.030 C 135.061 340.047, 135.400 340.557, 136.500 341.164 M 296.500 346.726 C 297.050 347.251, 299.300 348.691, 301.500 349.926 C 303.700 351.161, 304.600 351.424, 303.500 350.510 C 301.266 348.653, 294.931 345.228, 296.500 346.726 M 340.320 361 C 340.320 364.575, 340.502 366.038, 340.723 364.250 C 340.945 362.462, 340.945 359.538, 340.723 357.750 C 340.502 355.962, 340.320 357.425, 340.320 361 M 240.776 358.733 C 243.128 358.945, 246.728 358.942, 248.776 358.727 C 250.824 358.512, 248.900 358.339, 244.500 358.343 C 240.100 358.346, 238.424 358.522, 240.776 358.733 M 320.371 365.291 C 323.051 368.431, 325.455 371, 325.715 371 C 326.386 371, 318.057 361.152, 316.659 360.294 C 316.022 359.902, 317.692 362.151, 320.371 365.291 M 201.719 369.410 C 194.174 373.953, 187.644 379.390, 183.718 384.397 C 181.670 387.008, 183.068 385.955, 187.561 381.500 C 191.444 377.650, 197.632 372.753, 201.311 370.618 C 207.155 367.227, 208.850 366, 207.691 366 C 207.521 366, 204.834 367.535, 201.719 369.410 M 281 366.306 C 281 366.543, 284.010 368.483, 287.689 370.618 C 291.368 372.753, 297.547 377.650, 301.419 381.500 C 305.747 385.802, 307.323 387.004, 305.510 384.618 C 301.885 379.846, 292.424 372.093, 285.881 368.531 C 283.196 367.071, 281 366.069, 281 366.306 M 341.575 370 C 343.363 376.847, 354.246 388.082, 358.973 387.961 C 359.813 387.939, 359.150 387.316, 357.500 386.576 C 352.396 384.288, 346.254 378.200, 343.528 372.729 C 342.095 369.853, 341.216 368.625, 341.575 370 M 101.022 371.800 C 100.981 374.251, 103.873 378.653, 107.938 382.325 C 110.175 384.346, 112.310 386, 112.683 386 C 113.055 386, 111.418 384.338, 109.044 382.306 C 106.670 380.274, 103.899 376.787, 102.886 374.556 C 101.873 372.325, 101.034 371.085, 101.022 371.800 M 386.151 374.459 C 385.463 376.361, 382.785 379.807, 380.200 382.116 C 376.252 385.643, 376.031 386.010, 378.818 384.408 C 382.156 382.488, 388 374.801, 388 372.329 C 388 370.180, 387.483 370.776, 386.151 374.459 M 474.154 379.154 C 473.501 381.984, 473.148 384.481, 473.370 384.704 C 473.593 384.926, 474.326 382.809, 475 380 C 475.674 377.191, 476.027 374.693, 475.783 374.450 C 475.540 374.207, 474.807 376.324, 474.154 379.154 M 140.540 379.750 C 136.969 384.116, 136.919 384.258, 139.914 381.500 C 142.782 378.860, 145.651 375, 144.747 375 C 144.569 375, 142.676 377.137, 140.540 379.750 M 331.747 380.920 C 333.258 383.625, 334.663 385.671, 334.869 385.465 C 335.303 385.030, 330.141 376, 329.458 376 C 329.206 376, 330.237 378.214, 331.747 380.920 M 429.212 393.250 C 427.574 396.137, 424.451 400.525, 422.272 403 C 417.687 408.207, 415.982 411.132, 416.044 413.684 C 416.068 414.683, 416.683 413.833, 417.410 411.795 C 418.138 409.758, 420.706 405.896, 423.117 403.214 C 427.039 398.851, 433.844 388, 432.658 388 C 432.401 388, 430.851 390.363, 429.212 393.250 M 239.750 392.454 L 244 394.884 248.250 392.454 C 250.588 391.118, 252.050 390.020, 251.500 390.016 C 250.950 390.011, 249.037 390.899, 247.250 391.989 C 244.010 393.964, 243.990 393.964, 240.750 391.989 C 238.963 390.899, 237.050 390.011, 236.500 390.016 C 235.950 390.020, 237.412 391.118, 239.750 392.454 M 58.693 395.153 C 59.687 396.888, 62.659 400.488, 65.299 403.154 C 67.938 405.821, 70.733 409.464, 71.510 411.251 C 72.286 413.038, 72.939 413.780, 72.961 412.900 C 73.009 410.950, 67.466 403.116, 65.507 402.364 C 64.730 402.066, 62.676 399.612, 60.943 396.911 C 57.441 391.454, 55.871 390.228, 58.693 395.153 M 465.705 402.528 C 464.229 405.538, 463.234 408, 463.494 408 C 464.167 408, 469.211 397.878, 468.762 397.429 C 468.557 397.224, 467.182 399.518, 465.705 402.528 M 222.063 402.173 C 221.986 404.218, 226.430 409.657, 229.358 411.102 C 230.536 411.683, 229.820 410.660, 227.768 408.829 C 225.715 406.998, 223.606 404.375, 223.081 403 C 222.477 401.418, 222.103 401.114, 222.063 402.173 M 262 406.807 C 260.625 408.308, 258.375 410.336, 257 411.314 C 255.625 412.292, 255.175 412.773, 256 412.382 C 259.196 410.869, 263.050 407.775, 264.037 405.930 C 265.412 403.362, 264.990 403.543, 262 406.807 M 148.349 413 C 148.349 417.675, 148.522 419.587, 148.732 417.250 C 148.943 414.913, 148.943 411.087, 148.732 408.750 C 148.522 406.413, 148.349 408.325, 148.349 413 M 340.355 413.500 C 340.352 418.450, 340.521 420.601, 340.731 418.280 C 340.940 415.959, 340.943 411.909, 340.736 409.280 C 340.530 406.651, 340.358 408.550, 340.355 413.500 M 27.403 428.624 C 26.035 431.718, 25.085 434.419, 25.293 434.626 C 25.501 434.834, 26.836 432.303, 28.261 429.002 C 29.685 425.701, 30.634 423, 30.370 423 C 30.106 423, 28.771 425.531, 27.403 428.624 M 460.739 429.002 C 462.164 432.303, 463.499 434.834, 463.707 434.626 C 464.172 434.161, 459.298 423, 458.630 423 C 458.366 423, 459.315 425.701, 460.739 429.002 M 254 429.961 C 254 430.490, 253.015 431.840, 251.811 432.961 C 249.046 435.538, 239.710 435.808, 235.973 433.420 L 233.500 431.840 235.861 433.920 C 239.450 437.082, 248.767 436.872, 252.354 433.548 C 254.724 431.351, 255.834 429, 254.500 429 C 254.225 429, 254 429.432, 254 429.961 M 153.009 438.583 C 153.021 439.749, 158.875 450, 159.529 450 C 159.797 450, 158.584 447.413, 156.833 444.250 C 153.134 437.570, 152.997 437.367, 153.009 438.583 M 333.202 442.522 C 332.005 444.985, 331.236 447, 331.493 447 C 332.170 447, 336.211 438.877, 335.758 438.425 C 335.549 438.215, 334.398 440.059, 333.202 442.522 M 301.500 443.689 C 298.750 446.219, 297.850 447.367, 299.500 446.242 C 302.310 444.325, 307.859 438.946, 306.924 439.045 C 306.691 439.069, 304.250 441.159, 301.500 443.689 M 163.972 455.719 C 166.262 458.590, 170.017 462.350, 172.318 464.075 L 176.500 467.211 172.224 463.356 C 169.872 461.235, 166.116 457.475, 163.878 455 L 159.810 450.500 163.972 455.719 M 55.612 456.624 C 54.726 459.227, 54.033 461.839, 54.073 462.428 C 54.113 463.018, 55.012 461.061, 56.070 458.080 C 57.128 455.099, 57.821 452.487, 57.609 452.276 C 57.398 452.065, 56.499 454.021, 55.612 456.624 M 318.500 461.692 C 314.919 465.034, 314.113 466.063, 316.500 464.245 C 320.273 461.372, 325.848 455.946, 324.924 456.046 C 324.691 456.071, 321.800 458.612, 318.500 461.692 M 236.264 459.718 C 237.784 459.947, 240.034 459.941, 241.264 459.704 C 242.494 459.467, 241.250 459.279, 238.500 459.286 C 235.750 459.294, 234.744 459.488, 236.264 459.718 M 183 471.493 C 183 472.170, 191.123 476.211, 191.575 475.758 C 191.785 475.549, 189.941 474.398, 187.478 473.202 C 185.015 472.005, 183 471.236, 183 471.493 M 299 474.500 C 296.525 475.825, 294.855 476.930, 295.290 476.955 C 296.352 477.016, 304 473.086, 304 472.480 C 304 471.817, 304.041 471.800, 299 474.500 M 12.328 500.500 C 12.333 504.350, 12.513 505.802, 12.730 503.728 C 12.946 501.653, 12.943 498.503, 12.722 496.728 C 12.501 494.952, 12.324 496.650, 12.328 500.500 M 476.328 500.500 C 476.333 504.350, 476.513 505.802, 476.730 503.728 C 476.946 501.653, 476.943 498.503, 476.722 496.728 C 476.501 494.952, 476.324 496.650, 476.328 500.500 M 48.286 500.500 C 48.294 503.250, 48.488 504.256, 48.718 502.736 C 48.947 501.216, 48.941 498.966, 48.704 497.736 C 48.467 496.506, 48.279 497.750, 48.286 500.500 M 440.286 500.500 C 440.294 503.250, 440.488 504.256, 440.718 502.736 C 440.947 501.216, 440.941 498.966, 440.704 497.736 C 440.467 496.506, 440.279 497.750, 440.286 500.500 M 57.026 545.354 C 56.972 547.109, 64.179 559.782, 67.105 563.078 L 70.144 566.500 67.433 562.723 C 65.941 560.646, 62.996 555.696, 60.887 551.723 C 58.778 547.750, 57.041 544.884, 57.026 545.354 M 428.705 550.528 C 427.229 553.538, 426.234 556, 426.494 556 C 427.167 556, 432.211 545.878, 431.762 545.429 C 431.557 545.224, 430.182 547.518, 428.705 550.528 M 420.750 563.417 C 418.138 566.947, 415.741 570.659, 415.424 571.667 C 415.107 572.675, 415.894 571.908, 417.173 569.962 C 418.453 568.016, 420.671 564.866, 422.102 562.962 C 424.924 559.208, 426.297 557, 425.809 557 C 425.639 557, 423.363 559.888, 420.750 563.417 M 23 559.358 C 23 560.445, 29.967 574, 30.525 574 C 30.800 574, 29.392 570.737, 27.395 566.750 C 23.650 559.269, 23 558.176, 23 559.358 M 461.208 567.532 C 459.454 571.089, 458.233 574, 458.495 574 C 459.165 574, 465.211 561.878, 464.764 561.431 C 464.563 561.229, 462.962 563.975, 461.208 567.532 M 33.069 578.611 C 35.231 582.110, 35.247 582.319, 33.567 585.361 L 31.833 588.500 33.894 586 C 35.028 584.625, 35.966 583.103, 35.978 582.618 C 36.005 581.531, 32.027 575, 31.337 575 C 31.062 575, 31.841 576.625, 33.069 578.611 M 454.921 578.628 C 452.932 581.847, 452.837 582.495, 454.081 584.378 C 454.853 585.545, 456.978 589.425, 458.804 593 C 460.630 596.575, 461.814 598.375, 461.436 597 C 460.550 593.785, 458.275 589.273, 455.685 585.591 L 453.638 582.683 455.849 578.841 C 458.655 573.966, 457.908 573.794, 454.921 578.628 M 28.860 593.583 C 27.745 596.104, 27.010 598.344, 27.227 598.561 C 27.444 598.778, 28.568 596.715, 29.725 593.978 C 30.882 591.240, 31.616 589, 31.358 589 C 31.099 589, 29.975 591.062, 28.860 593.583 M 17.328 656.500 C 17.333 660.350, 17.513 661.802, 17.730 659.728 C 17.946 657.653, 17.943 654.503, 17.722 652.728 C 17.501 650.952, 17.324 652.650, 17.328 656.500 M 471.320 656 C 471.320 659.575, 471.502 661.038, 471.723 659.250 C 471.945 657.462, 471.945 654.538, 471.723 652.750 C 471.502 650.962, 471.320 652.425, 471.320 656" stroke="none" fill="#fbfbfb" fill-rule="evenodd"/></svg>