<svg id="svg" version="1.1" xmlns="http://www.w3.org/2000/svg" xmlns:xlink="http://www.w3.org/1999/xlink" width="400" height="449.438202247191" viewBox="0, 0, 400,449.438202247191"><g id="svgg"><path id="path0" d="M201.943 19.188 C 184.060 29.646,169.397 38.684,169.358 39.273 C 169.302 40.131,181.832 61.869,183.792 64.313 C 184.505 65.203,191.620 61.509,207.687 51.908 C 217.165 46.246,221.196 44.496,220.811 46.212 C 219.175 53.508,212.734 90.745,212.734 92.908 C 212.734 94.871,215.010 95.818,222.846 97.116 C 228.408 98.037,235.024 99.207,237.547 99.714 L 242.136 100.637 246.487 75.787 C 248.880 62.119,251.232 50.936,251.715 50.936 C 252.438 50.936,270.683 72.759,276.555 80.649 C 278.075 82.691,301.124 65.994,301.124 62.852 C 301.124 62.365,289.826 48.192,276.017 31.358 L 250.910 0.749 242.684 0.461 C 234.662 0.181,233.646 0.648,201.943 19.188 M128.090 62.998 C 116.554 63.579,102.161 64.136,96.105 64.237 C 77.722 64.542,77.127 65.581,69.109 111.322 C 65.526 131.763,62.924 148.816,63.326 149.219 C 64.572 150.465,89.933 154.761,90.817 153.877 C 91.833 152.861,93.302 146.106,96.635 127.127 L 99.172 112.681 115.016 130.872 C 123.731 140.877,131.047 149.312,131.276 149.616 C 131.978 150.549,152.809 131.495,152.809 129.919 C 152.809 129.105,145.776 120.518,137.180 110.838 L 121.552 93.236 143.369 92.145 L 165.186 91.055 164.241 82.012 C 163.721 77.038,163.296 70.371,163.296 67.196 L 163.296 61.423 156.180 61.683 C 152.266 61.826,139.625 62.418,128.090 62.998 M298.280 88.733 C 297.568 90.604,295.220 96.328,293.062 101.453 C 290.904 106.578,289.139 111.383,289.139 112.132 C 289.139 112.880,297.888 117.073,308.581 121.449 C 319.274 125.825,327.870 129.530,327.682 129.683 C 327.494 129.835,318.351 134.857,307.364 140.843 C 283.654 153.759,284.245 152.748,292.102 166.982 C 299.657 180.667,297.304 180.653,321.575 167.159 C 334.614 159.910,341.573 156.780,341.573 158.166 C 341.573 159.335,340.131 168.453,338.367 178.430 C 334.636 199.546,333.851 198.150,350.942 200.808 C 365.697 203.104,363.653 206.919,371.314 162.775 C 379.679 114.571,382.211 119.488,340.075 102.110 C 324.007 95.483,308.322 88.997,305.218 87.697 C 299.713 85.390,299.543 85.415,298.280 88.733 M179.376 154.149 C 161.440 164.701,146.406 173.694,145.967 174.133 C 143.875 176.225,160.440 200.780,163.013 199.402 C 164.431 198.644,172.490 193.950,180.923 188.971 C 198.759 178.441,197.731 176.924,192.516 206.070 C 190.459 217.563,188.774 227.747,188.770 228.700 C 188.764 230.338,216.608 236.325,217.957 234.977 C 218.290 234.644,220.442 223.432,222.740 210.062 C 225.037 196.691,227.372 185.924,227.928 186.134 C 228.484 186.345,234.501 193.258,241.298 201.498 C 255.881 219.176,253.451 218.573,266.575 207.776 C 279.637 197.030,281.189 201.812,253.829 168.486 C 219.012 126.075,225.102 127.247,179.376 154.149 M30.712 184.398 C -8.152 218.862,-7.093 212.896,17.603 258.211 C 37.424 294.581,35.154 292.760,50.187 284.352 C 63.679 276.806,63.532 279.285,51.747 258.028 C 46.426 248.429,42.255 240.392,42.479 240.168 C 42.703 239.944,52.247 241.432,63.688 243.476 C 93.079 248.725,90.324 249.675,93.104 233.333 C 95.946 216.620,99.094 219.335,71.341 214.561 C 43.969 209.853,45.158 211.284,58.896 199.588 C 64.923 194.458,71.754 188.276,74.077 185.851 L 78.302 181.442 69.488 170.971 C 58.406 157.806,62.168 156.503,30.712 184.398 M350.210 220.654 C 336.339 228.210,336.586 225.017,348.211 246.539 C 353.510 256.350,357.690 264.532,357.500 264.722 C 357.310 264.912,348.087 263.424,337.004 261.416 C 325.922 259.408,315.220 257.577,313.224 257.347 C 309.759 256.948,309.478 257.574,307.046 271.161 C 303.994 288.205,300.559 285.165,328.489 290.135 C 341.453 292.442,352.047 294.679,352.031 295.105 C 352.015 295.531,345.275 301.610,337.053 308.614 C 319.462 323.598,319.906 321.829,330.557 334.503 C 341.022 346.955,336.632 348.452,367.189 322.013 C 399.728 293.859,400.000 293.559,400.000 285.810 C 400.000 279.316,366.593 214.238,363.296 214.309 C 362.472 214.327,356.583 217.182,350.210 220.654 M158.718 279.577 C 118.541 303.218,121.725 299.366,130.111 314.196 C 138.456 328.955,136.174 328.788,157.303 316.182 C 166.779 310.528,174.620 306.007,174.728 306.135 C 174.836 306.263,172.995 317.154,170.636 330.337 C 165.430 359.430,164.612 357.162,181.164 359.535 C 197.707 361.906,195.759 364.012,200.086 339.085 C 202.065 327.682,204.057 316.800,204.512 314.902 C 205.245 311.850,206.824 313.234,218.195 326.887 C 233.883 345.723,231.615 345.028,243.794 334.732 C 256.990 323.576,258.095 326.997,230.513 293.633 C 196.782 252.831,202.328 253.916,158.718 279.577 M34.007 312.539 C 28.838 370.698,29.201 384.401,36.012 388.045 C 38.541 389.399,102.016 408.361,106.947 409.236 C 109.328 409.659,110.372 407.646,113.556 396.492 C 118.023 380.842,119.443 382.541,96.405 375.966 C 87.052 373.297,79.401 370.663,79.401 370.113 C 79.401 369.564,87.840 363.210,98.155 355.993 C 110.118 347.624,116.534 342.231,115.874 341.099 C 115.097 339.768,103.897 323.446,100.911 319.294 C 100.691 318.989,91.654 324.890,80.827 332.408 L 61.144 346.078 62.225 325.099 L 63.305 304.120 58.994 304.109 C 56.622 304.103,50.236 303.679,44.803 303.165 L 34.923 302.232 34.007 312.539 M311.082 350.270 C 310.751 350.843,309.336 355.356,307.938 360.300 C 306.540 365.243,304.025 373.862,302.349 379.452 L 299.303 389.615 285.897 370.088 C 270.339 347.428,272.957 348.667,259.828 357.750 C 247.118 366.543,247.029 365.400,262.099 386.992 C 268.895 396.729,274.138 405.013,273.751 405.400 C 273.364 405.787,264.421 405.404,253.879 404.548 C 231.167 402.704,233.235 401.355,232.485 418.500 L 231.877 432.389 269.500 434.958 C 320.429 438.435,313.868 442.920,328.112 394.892 C 340.488 353.165,340.061 357.296,332.210 355.254 C 328.708 354.343,322.657 352.615,318.764 351.414 C 314.870 350.212,311.414 349.698,311.082 350.270 M155.688 400.410 C 132.370 416.124,142.428 449.438,170.491 449.438 C 191.631 449.438,203.495 426.984,191.962 408.800 C 184.478 396.998,166.813 392.913,155.688 400.410 " stroke="none" fill="#000000" fill-rule="evenodd"></path></g></svg>