<svg xmlns="http://www.w3.org/2000/svg" width="280" height="280" viewBox="0 0 280 280" version="1.1"><path d="M 235.079 218.583 C 235.127 219.748, 235.364 219.985, 235.683 219.188 C 235.972 218.466, 235.936 217.603, 235.604 217.271 C 235.272 216.939, 235.036 217.529, 235.079 218.583" stroke="none" fill="#5c9434" fill-rule="evenodd"/><path d="M 136.386 56.750 C 135.372 58.263, 133.534 61.570, 132.304 64.100 C 131.073 66.631, 129.376 69.273, 128.533 69.973 C 127.690 70.672, 127 71.604, 127 72.044 C 127 72.483, 124.703 76.815, 121.896 81.671 C 119.089 86.527, 115.431 92.975, 113.768 96 C 112.105 99.025, 110.126 102.210, 109.372 103.079 C 108.617 103.947, 108 105.340, 108 106.174 C 108 107.008, 107.100 108.505, 106 109.500 C 104.900 110.495, 104 111.676, 104 112.124 C 104 112.572, 101.810 116.665, 99.132 121.219 C 96.455 125.774, 92.565 132.650, 90.487 136.500 C 88.409 140.350, 86.230 144.110, 85.644 144.857 C 84.536 146.266, 82.593 149.474, 81.371 151.910 C 80.981 152.686, 77.900 158.086, 74.522 163.910 C 71.145 169.735, 68.068 175.175, 67.684 176 C 67.300 176.825, 65.857 179.300, 64.476 181.500 C 63.095 183.700, 61.517 186.400, 60.968 187.500 C 60.419 188.600, 59.108 190.850, 58.053 192.500 C 56.999 194.150, 55.167 197.275, 53.983 199.445 C 52.798 201.614, 49.835 206.846, 47.398 211.071 C 41.159 221.888, 41.265 222.003, 57.357 221.985 C 64.586 221.976, 71.048 221.621, 71.717 221.196 C 72.386 220.771, 74.010 218.415, 75.326 215.962 C 78.775 209.530, 82.732 202.441, 87.024 195 C 91.087 187.959, 93.883 183.021, 97.782 176 C 99.157 173.525, 102.383 167.900, 104.952 163.500 C 107.520 159.100, 110.649 153.475, 111.905 151 C 115.010 144.878, 116.726 141.781, 118 140 C 119.258 138.242, 120.857 135.376, 124.416 128.500 C 125.840 125.750, 128.099 121.700, 129.437 119.500 C 130.774 117.300, 133.076 113.250, 134.551 110.500 C 138.604 102.944, 138.951 102.660, 140.952 105.260 C 141.901 106.492, 144.385 110.650, 146.472 114.500 C 148.560 118.350, 151.019 122.625, 151.937 124 C 152.855 125.375, 154.706 128.637, 156.051 131.250 C 157.396 133.863, 158.835 136, 159.248 136 C 159.662 136, 160 136.900, 160 138 C 160 139.100, 160.374 140, 160.831 140 C 161.288 140, 162.296 141.238, 163.071 142.750 C 163.845 144.262, 165.657 147.549, 167.097 150.053 C 170.202 155.451, 174.005 162.202, 177.630 168.750 C 179.076 171.363, 180.763 174.175, 181.380 175 C 182.485 176.480, 183.249 177.780, 187.193 184.887 C 188.295 186.874, 190.090 189.963, 191.180 191.750 L 193.163 195 166.582 195 C 148.618 195, 140 194.658, 140 193.946 C 140 193.366, 141.292 190.554, 142.871 187.696 C 154.368 166.888, 155.256 164.858, 154.037 162.181 C 150.658 154.765, 141.338 140.057, 140.149 140.265 C 139.405 140.394, 136.533 144.775, 133.765 150 C 130.997 155.225, 127.235 162.200, 125.404 165.500 C 123.573 168.800, 121.385 172.850, 120.542 174.500 C 119.699 176.150, 118.083 179.021, 116.952 180.881 C 115.820 182.741, 112.966 187.916, 110.609 192.381 C 108.253 196.846, 105.310 202.274, 104.071 204.442 C 98.382 214.397, 96.860 217.984, 97.488 219.962 C 98.137 222.008, 98.337 222.013, 166.320 221.757 C 233.642 221.503, 234.504 221.475, 234.779 219.500 C 235.069 217.425, 233.223 213.363, 228.874 206.500 C 227.479 204.300, 224.618 199.350, 222.515 195.500 C 220.411 191.651, 217.955 187.376, 217.055 186 C 214.358 181.876, 213.161 179.752, 210.494 174.352 C 209.096 171.521, 207.287 168.654, 206.476 167.980 C 205.664 167.306, 205 166.400, 205 165.965 C 205 165.055, 196.925 150.751, 195.987 150 C 195.643 149.725, 194.351 147.475, 193.116 145 C 191.880 142.525, 190.024 139.150, 188.991 137.500 C 186.941 134.227, 185.962 132.510, 181.007 123.500 C 179.192 120.200, 176.516 115.700, 175.060 113.500 C 173.605 111.300, 171.391 107.475, 170.141 105 C 168.891 102.525, 167.024 99.150, 165.991 97.500 C 164.957 95.850, 163.485 93.375, 162.719 92 C 160.751 88.467, 157.851 83.429, 153.904 76.686 C 152.032 73.488, 149.990 69.963, 149.366 68.852 C 148.742 67.741, 147.730 66.330, 147.116 65.716 C 146.502 65.102, 146 63.997, 146 63.260 C 146 61.859, 142.229 56.036, 140.500 54.765 C 138.887 53.580, 138.332 53.847, 136.386 56.750" stroke="none" fill="#7ccc44" fill-rule="evenodd"/></svg>