<svg xmlns="http://www.w3.org/2000/svg" width="100" height="100" viewBox="0 0 100 100" version="1.1"><path d="M 48.079 24.405 C 47.347 25.287, 47.022 28.732, 47.206 33.655 C 47.492 41.278, 47.571 41.500, 50 41.500 C 52.429 41.500, 52.508 41.278, 52.794 33.655 C 53.068 26.338, 52.193 23, 50 23 C 49.585 23, 48.720 23.632, 48.079 24.405 M 36.035 31.934 C 35.444 33.038, 35 40.793, 35 50 C 35 59.207, 35.444 66.962, 36.035 68.066 C 37.284 70.399, 40.550 70.614, 41.393 68.418 C 42.589 65.300, 42.066 32.466, 40.800 31.200 C 39.048 29.448, 37.215 29.730, 36.035 31.934 M 59.200 31.200 C 57.934 32.466, 57.411 65.300, 58.607 68.418 C 59.394 70.469, 63.606 70.469, 64.393 68.418 C 64.727 67.548, 65 59.255, 65 49.990 C 65 36.008, 64.733 32.876, 63.429 31.571 C 61.543 29.685, 60.781 29.619, 59.200 31.200 M 24.571 47.571 C 22.712 49.431, 22.696 49.564, 24.035 52.066 C 25.594 54.979, 29.810 54.607, 30.593 51.487 C 31.723 46.982, 27.747 44.396, 24.571 47.571 M 47.521 47.621 C 45.572 49.570, 45.865 51.886, 48.250 53.388 C 51.715 55.570, 55.617 50.653, 52.960 47.452 C 51.386 45.555, 49.530 45.613, 47.521 47.621 M 70.011 47.487 C 69.303 48.340, 69.046 50.046, 69.407 51.487 C 70.190 54.607, 74.406 54.979, 75.965 52.066 C 77.304 49.564, 77.288 49.431, 75.429 47.571 C 73.457 45.600, 71.601 45.571, 70.011 47.487 M 47.709 58.624 C 47.319 59.014, 47 62.803, 47 67.044 C 47 72.678, 47.404 75.090, 48.500 76 C 49.698 76.995, 50.309 76.988, 51.538 75.969 C 52.739 74.972, 53.013 72.918, 52.788 66.596 C 52.529 59.320, 52.293 58.470, 50.459 58.208 C 49.336 58.047, 48.099 58.235, 47.709 58.624" stroke="none" fill="#242424" fill-rule="evenodd"/><path d="M 0 50.009 L 0 100.018 50.250 99.759 L 100.500 99.500 100.759 49.750 L 101.019 -0 50.509 -0 L 0 0 0 50.009 M 0.464 50.500 C 0.464 78, 0.592 89.106, 0.749 75.180 C 0.906 61.255, 0.906 38.755, 0.749 25.180 C 0.592 11.606, 0.464 23, 0.464 50.500 M 48.079 24.405 C 47.347 25.287, 47.022 28.732, 47.206 33.655 C 47.492 41.278, 47.571 41.500, 50 41.500 C 52.429 41.500, 52.508 41.278, 52.794 33.655 C 53.068 26.338, 52.193 23, 50 23 C 49.585 23, 48.720 23.632, 48.079 24.405 M 36.035 31.934 C 35.444 33.038, 35 40.793, 35 50 C 35 59.207, 35.444 66.962, 36.035 68.066 C 37.284 70.399, 40.550 70.614, 41.393 68.418 C 42.589 65.300, 42.066 32.466, 40.800 31.200 C 39.048 29.448, 37.215 29.730, 36.035 31.934 M 59.200 31.200 C 57.934 32.466, 57.411 65.300, 58.607 68.418 C 59.394 70.469, 63.606 70.469, 64.393 68.418 C 64.727 67.548, 65 59.255, 65 49.990 C 65 36.008, 64.733 32.876, 63.429 31.571 C 61.543 29.685, 60.781 29.619, 59.200 31.200 M 24.571 47.571 C 22.712 49.431, 22.696 49.564, 24.035 52.066 C 25.594 54.979, 29.810 54.607, 30.593 51.487 C 31.723 46.982, 27.747 44.396, 24.571 47.571 M 47.521 47.621 C 45.572 49.570, 45.865 51.886, 48.250 53.388 C 51.715 55.570, 55.617 50.653, 52.960 47.452 C 51.386 45.555, 49.530 45.613, 47.521 47.621 M 70.011 47.487 C 69.303 48.340, 69.046 50.046, 69.407 51.487 C 70.190 54.607, 74.406 54.979, 75.965 52.066 C 77.304 49.564, 77.288 49.431, 75.429 47.571 C 73.457 45.600, 71.601 45.571, 70.011 47.487 M 47.709 58.624 C 47.319 59.014, 47 62.803, 47 67.044 C 47 72.678, 47.404 75.090, 48.500 76 C 49.698 76.995, 50.309 76.988, 51.538 75.969 C 52.739 74.972, 53.013 72.918, 52.788 66.596 C 52.529 59.320, 52.293 58.470, 50.459 58.208 C 49.336 58.047, 48.099 58.235, 47.709 58.624" stroke="none" fill="#fbfbfb" fill-rule="evenodd"/></svg>