<?xml version="1.0" encoding="utf-8"?>
<svg viewBox="0 0 60 60" style="enable-background:new 0 0 203.2 60.4;" xmlns="http://www.w3.org/2000/svg">
  <defs>
    <clipPath id="clip-0">
      <path class="st1" d="M 23.8 31.5 C 23.8 32.8 23.7 33.1 23.5 34.3 L 14 34.3 C 14.5 35.8 15.9 36.7 17.9 36.7 C 19 36.7 20.4 36.5 22.8 36 L 23.3 39.1 C 21.2 39.8 19.3 40.2 17.8 40.2 C 12.5 40.2 9.8 37 9.8 32.9 C 9.8 28.5 12.9 25.6 17 25.6 C 20.9 25.5 23.8 27.9 23.8 31.5 M 13.8 31.5 L 20.3 31.5 C 20.2 29.8 18.9 28.7 17.1 28.7 C 15.3 28.6 14.2 29.7 13.8 31.5"/>
      <path class="st1" d="M 40.4 39.5 C 36 40 34.3 40 32.3 40 C 28.6 40 25.7 37.5 25.7 32.7 C 25.7 28.4 28.1 25.5 32.9 25.5 C 34 25.5 35.5 25.6 36.4 25.8 L 36.4 19.3 L 40.4 19.3 C 40.4 19.3 40.4 39.5 40.4 39.5 Z M 29.6 32.7 C 29.6 35.2 30.7 36.8 33.2 36.8 C 33.7 36.8 34.7 36.7 36.4 36.6 L 36.4 29.2 C 35.4 29 34.2 28.9 33.4 28.9 C 30.5 28.9 29.6 30.5 29.6 32.7"/>
    </clipPath>
  </defs>
  <g transform="matrix(1, 0, 0, 1, -44.900005, 0)">
    <rect x="47.2" y="3" class="st9" width="57" height="54" fill-opacity="0" fill="#000000"/>
    <polygon class="st2" points="48.2 54.9 103.2 39.5 102.1 35.6 47.2 51"/>
    <polygon class="st2" points="101.4 37.6 101.4 53.4 101.4 53.4 101.4 53.5 101.4 53.5 101.4 53.5 101.4 53.5 101.4 53.5 101.4 53.5 101.4 53.6 101.4 53.6 101.3 53.6 101.3 53.6 101.3 53.6 101.3 53.7 101.3 53.7 101.3 53.7 101.3 53.7 101.3 53.7 101.3 53.8 101.3 53.8 101.3 53.8 101.3 53.8 101.3 53.8 101.3 53.9 101.3 53.9 101.3 53.9 101.3 53.9 101.3 53.9 101.3 54 101.3 54 101.3 54 101.3 54 101.3 54 101.3 54 101.3 54.1 101.3 54.1 101.3 54.1 101.3 54.1 101.3 54.1 101.3 54.2 101.3 54.2 101.3 54.2 101.3 54.2 101.2 54.2 101.2 54.2 101.2 54.3 101.2 54.3 101.2 54.3 101.2 54.3 101.2 54.3 101.2 54.4 101.2 54.4 101.2 54.4 101.2 54.4 101.2 54.4 101.2 54.4 101.2 54.5 101.2 54.5 101.2 54.5 101.2 54.5 101.1 54.5 101.1 54.5 101.1 54.6 101.1 54.6 101.1 54.6 101.1 54.6 101.1 54.6 101.1 54.6 101.1 54.7 101.1 54.7 101.1 54.7 101.1 54.7 101.1 54.7 101 54.7 101 54.8 101 54.8 101 54.8 101 54.8 101 54.8 101 54.8 101 54.9 101 54.9 101 54.9 101 54.9 101 54.9 100.9 54.9 100.9 55 100.9 55 100.9 55 100.9 55 100.9 55 100.9 55 100.9 55.1 100.9 55.1 100.9 55.1 100.8 55.1 100.8 55.1 100.8 55.1 100.8 55.1 100.8 55.2 100.8 55.2 100.8 55.2 100.8 55.2 100.8 55.2 100.8 55.2 100.7 55.2 100.7 55.3 100.7 55.3 100.7 55.3 100.7 55.3 100.7 55.3 100.7 55.3 100.7 55.3 100.6 55.4 100.6 55.4 100.6 55.4 100.6 55.4 100.6 55.4 100.6 55.4 100.6 55.4 100.6 55.5 100.6 55.5 100.5 55.5 100.5 55.5 100.5 55.5 100.5 55.5 100.5 55.5 100.5 55.6 100.5 55.6 100.4 55.6 100.4 55.6 100.4 55.6 100.4 55.6 100.4 55.6 100.4 55.6 100.4 55.7 100.4 55.7 100.3 55.7 100.3 55.7 100.3 55.7 100.3 55.7 100.3 55.7 100.3 55.7 100.3 55.7 100.2 55.8 100.2 55.8 100.2 55.8 100.2 55.8 100.2 55.8 100.2 55.8 100.2 55.8 100.1 55.8 100.1 55.9 100.1 55.9 100.1 55.9 100.1 55.9 100.1 55.9 100.1 55.9 100 55.9 100 55.9 100 55.9 100 55.9 100 56 100 56 99.9 56 99.9 56 99.9 56 99.9 56 99.9 56 99.9 56 99.9 56 99.8 56 99.8 56.1 99.8 56.1 99.8 56.1 99.8 56.1 99.8 56.1 99.7 56.1 99.7 56.1 99.7 56.1 99.7 56.1 99.7 56.1 99.7 56.1 99.6 56.1 99.6 56.2 99.6 56.2 99.6 56.2 99.6 56.2 99.6 56.2 99.5 56.2 99.5 56.2 99.5 56.2 99.5 56.2 99.5 56.2 99.5 56.2 99.4 56.2 99.4 56.2 99.4 56.3 99.4 56.3 99.4 56.3 99.4 56.3 99.3 56.3 99.3 56.3 99.3 56.3 99.3 56.3 99.3 56.3 99.3 56.3 99.2 56.3 99.2 56.3 99.2 56.3 99.2 56.3 99.2 56.3 99.1 56.3 99.1 56.3 99.1 56.4 99.1 56.4 99.1 56.4 99.1 56.4 99 56.4 99 56.4 99 56.4 99 56.4 99 56.4 98.9 56.4 98.9 56.4 98.9 56.4 98.9 56.4 98.9 56.4 98.9 56.4 98.8 56.4 98.8 56.4 98.8 56.4 98.8 56.4 98.8 56.4 98.7 56.4 98.7 56.4 98.7 56.4 98.7 56.4 98.7 56.4 98.6 56.4 98.6 56.4 98.6 56.4 98.6 56.4 98.6 56.4 98.5 56.4 98.5 56.4 98.5 56.4 98.5 56.5 98.5 56.5 98.4 56.5 98.4 56.5 98.4 56.5 98.4 56.5 98.4 56.5 98.3 56.5 98.3 56.5 98.3 56.5 51.9 56.5 51.9 56.5 51.9 56.5 51.9 56.5 51.8 56.5 51.8 56.5 51.8 56.5 51.8 56.5 51.8 56.5 51.8 56.5 51.7 56.5 51.7 56.4 51.7 56.4 51.7 56.4 51.7 56.4 51.6 56.4 51.6 56.4 51.6 56.4 51.6 56.4 51.6 56.4 51.5 56.4 51.5 56.4 51.5 56.4 51.5 56.4 51.5 56.4 51.4 56.4 51.4 56.4 51.4 56.4 51.4 56.4 51.4 56.4 51.4 56.4 51.3 56.4 51.3 56.4 51.3 56.4 51.3 56.4 51.3 56.4 51.2 56.4 51.2 56.4 51.2 56.4 51.2 56.4 51.2 56.4 51.1 56.4 51.1 56.4 51.1 56.3 51.1 56.3 51.1 56.3 51.1 56.3 51 56.3 51 56.3 51 56.3 51 56.3 51 56.3 50.9 56.3 50.9 56.3 50.9 56.3 50.9 56.3 50.9 56.3 50.9 56.3 50.8 56.3 50.8 56.3 50.8 56.2 50.8 56.2 50.8 56.2 50.8 56.2 50.7 56.2 50.7 56.2 50.7 56.2 50.7 56.2 50.7 56.2 50.7 56.2 50.6 56.2 50.6 56.2 50.6 56.2 50.6 56.1 50.6 56.1 50.6 56.1 50.5 56.1 50.5 56.1 50.5 56.1 50.5 56.1 50.5 56.1 50.5 56.1 50.4 56.1 50.4 56.1 50.4 56.1 50.4 56 50.4 56 50.4 56 50.4 56 50.3 56 50.3 56 50.3 56 50.3 56 50.3 56 50.3 56 50.2 55.9 50.2 55.9 50.2 55.9 50.2 55.9 50.2 55.9 50.2 55.9 50.2 55.9 50.1 55.9 50.1 55.9 50.1 55.9 50.1 55.8 50.1 55.8 50.1 55.8 50 55.8 50 55.8 50 55.8 50 55.8 50 55.8 50 55.7 50 55.7 50 55.7 49.9 55.7 49.9 55.7 49.9 55.7 49.9 55.7 49.9 55.7 49.9 55.7 49.9 55.6 49.8 55.6 49.8 55.6 49.8 55.6 49.8 55.6 49.8 55.6 49.8 55.6 49.8 55.6 49.7 55.5 49.7 55.5 49.7 55.5 49.7 55.5 49.7 55.5 49.7 55.5 49.7 55.5 49.7 55.4 49.7 55.4 49.6 55.4 49.6 55.4 49.6 55.4 49.6 55.4 49.6 55.4 49.6 55.3 49.6 55.3 49.6 55.3 49.5 55.3 49.5 55.3 49.5 55.3 49.5 55.3 49.5 55.2 49.5 55.2 49.5 55.2 49.5 55.2 49.5 55.2 49.4 55.2 49.4 55.2 49.4 55.1 49.4 55.1 49.4 55.1 49.4 55.1 49.4 55.1 49.4 55.1 49.4 55.1 49.4 55 49.3 55 49.3 55 49.3 55 49.3 55 49.3 55 49.3 54.9 49.3 54.9 49.3 54.9 49.3 54.9 49.3 54.9 49.3 54.9 49.2 54.8 49.2 54.8 49.2 54.8 49.2 54.8 49.2 54.8 49.2 54.8 49.2 54.7 49.2 54.7 49.2 54.7 49.2 54.7 49.2 54.7 49.2 54.7 49.1 54.6 49.1 54.6 49.1 54.6 49.1 54.6 49.1 54.6 49.1 54.6 49.1 54.5 49.1 54.5 49.1 54.5 49.1 54.5 49.1 54.5 49.1 54.5 49.1 54.4 49.1 54.4 49 54.4 49 54.4 49 54.4 49 54.4 49 54.3 49 54.3 49 54.3 49 54.3 49 54.3 49 54.2 49 54.2 49 54.2 49 54.2 49 54.2 49 54.2 49 54.1 49 54.1 49 54.1 49 54.1 49 54.1 48.9 54 48.9 54 48.9 54 48.9 54 48.9 54 48.9 54 48.9 53.9 48.9 53.9 48.9 53.9 48.9 53.9 48.9 53.9 48.9 53.8 48.9 53.8 48.9 53.8 48.9 53.8 48.9 53.8 48.9 53.7 48.9 53.7 48.9 53.7 48.9 53.7 48.9 53.7 48.9 53.6 48.9 53.6 48.9 53.6 48.9 53.6 48.9 53.6 48.9 53.6 48.9 53.5 48.9 53.5 48.9 53.5 48.9 53.5 48.9 53.5 48.9 53.4 48.9 53.4 48.9 7 48.9 7 48.9 7 48.9 7 48.9 7 48.9 6.9 48.9 6.9 48.9 6.9 48.9 6.9 48.9 6.9 48.9 6.8 48.9 6.8 48.9 6.8 48.9 6.8 48.9 6.8 48.9 6.7 48.9 6.7 48.9 6.7 48.9 6.7 48.9 6.7 48.9 6.6 48.9 6.6 48.9 6.6 48.9 6.6 48.9 6.6 48.9 6.5 48.9 6.5 48.9 6.5 48.9 6.5 48.9 6.5 48.9 6.5 48.9 6.4 48.9 6.4 48.9 6.4 49 6.4 49 6.4 49 6.3 49 6.3 49 6.3 49 6.3 49 6.3 49 6.3 49 6.2 49 6.2 49 6.2 49 6.2 49 6.2 49 6.1 49 6.1 49 6.1 49 6.1 49 6.1 49 6.1 49 6 49.1 6 49.1 6 49.1 6 49.1 6 49.1 5.9 49.1 5.9 49.1 5.9 49.1 5.9 49.1 5.9 49.1 5.9 49.1 5.8 49.1 5.8 49.1 5.8 49.1 5.8 49.2 5.8 49.2 5.8 49.2 5.7 49.2 5.7 49.2 5.7 49.2 5.7 49.2 5.7 49.2 5.7 49.2 5.6 49.2 5.6 49.2 5.6 49.2 5.6 49.3 5.6 49.3 5.6 49.3 5.5 49.3 5.5 49.3 5.5 49.3 5.5 49.3 5.5 49.3 5.5 49.3 5.5 49.3 5.4 49.3 5.4 49.4 5.4 49.4 5.4 49.4 5.4 49.4 5.4 49.4 5.3 49.4 5.3 49.4 5.3 49.4 5.3 49.4 5.3 49.4 5.3 49.5 5.3 49.5 5.2 49.5 5.2 49.5 5.2 49.5 5.2 49.5 5.2 49.5 5.2 49.5 5.2 49.5 5.1 49.6 5.1 49.6 5.1 49.6 5.1 49.6 5.1 49.6 5.1 49.6 5.1 49.6 5 49.6 5 49.6 5 49.7 5 49.7 5 49.7 5 49.7 5 49.7 4.9 49.7 4.9 49.7 4.9 49.7 4.9 49.8 4.9 49.8 4.9 49.8 4.9 49.8 4.9 49.8 4.8 49.8 4.8 49.8 4.8 49.9 4.8 49.9 4.8 49.9 4.8 49.9 4.8 49.9 4.8 49.9 4.7 49.9 4.7 49.9 4.7 50 4.7 50 4.7 50 4.7 50 4.7 50 4.7 50 4.6 50 4.6 50.1 4.6 50.1 4.6 50.1 4.6 50.1 4.6 50.1 4.6 50.1 4.6 50.2 4.6 50.2 4.5 50.2 4.5 50.2 4.5 50.2 4.5 50.2 4.5 50.2 4.5 50.3 4.5 50.3 4.5 50.3 4.5 50.3 4.5 50.3 4.4 50.3 4.4 50.4 4.4 50.4 4.4 50.4 4.4 50.4 4.4 50.4 4.4 50.4 4.4 50.4 4.4 50.5 4.4 50.5 4.4 50.5 4.3 50.5 4.3 50.5 4.3 50.5 4.3 50.6 4.3 50.6 4.3 50.6 4.3 50.6 4.3 50.6 4.3 50.6 4.3 50.7 4.3 50.7 4.3 50.7 4.2 50.7 4.2 50.7 4.2 50.7 4.2 50.8 4.2 50.8 4.2 50.8 4.2 50.8 4.2 50.8 4.2 50.8 4.2 50.9 4.2 50.9 4.2 50.9 4.2 50.9 4.2 50.9 4.1 50.9 4.1 51 4.1 51 4.1 51 4.1 51 4.1 51 4.1 51.1 4.1 51.1 4.1 51.1 4.1 51.1 4.1 51.1 4.1 51.1 4.1 51.2 4.1 51.2 4.1 51.2 4.1 51.2 4.1 51.2 4.1 51.3 4.1 51.3 4.1 51.3 4.1 51.3 4 51.3 4 51.4 4 51.4 4 51.4 4 51.4 4 51.4 4 51.4 4 51.5 4 51.5 4 51.5 4 51.5 4 51.5 4 51.6 4 51.6 4 51.6 4 51.6 4 51.6 4 51.7 4 51.7 4 51.7 4 51.7 4 51.7 4 51.8 4 51.8 4 51.8 4 51.8 4 51.8 4 51.8 4 51.9 4 51.9 4 51.9 4 51.9 4 98.3 4 98.3 4 98.3 4 98.4 4 98.4 4 98.4 4 98.4 4 98.4 4 98.5 4 98.5 4 98.5 4 98.5 4 98.5 4 98.6 4 98.6 4 98.6 4 98.6 4 98.6 4 98.7 4 98.7 4 98.7 4 98.7 4 98.7 4 98.8 4 98.8 4 98.8 4 98.8 4 98.8 4 98.9 4 98.9 4 98.9 4 98.9 4 98.9 4 98.9 4.1 99 4.1 99 4.1 99 4.1 99 4.1 99 4.1 99.1 4.1 99.1 4.1 99.1 4.1 99.1 4.1 99.1 4.1 99.1 4.1 99.2 4.1 99.2 4.1 99.2 4.1 99.2 4.1 99.2 4.1 99.3 4.1 99.3 4.1 99.3 4.1 99.3 4.1 99.3 4.2 99.3 4.2 99.4 4.2 99.4 4.2 99.4 4.2 99.4 4.2 99.4 4.2 99.4 4.2 99.5 4.2 99.5 4.2 99.5 4.2 99.5 4.2 99.5 4.2 99.5 4.2 99.6 4.3 99.6 4.3 99.6 4.3 99.6 4.3 99.6 4.3 99.6 4.3 99.7 4.3 99.7 4.3 99.7 4.3 99.7 4.3 99.7 4.3 99.7 4.3 99.8 4.4 99.8 4.4 99.8 4.4 99.8 4.4 99.8 4.4 99.8 4.4 99.9 4.4 99.9 4.4 99.9 4.4 99.9 4.4 99.9 4.4 99.9 4.5 99.9 4.5 100 4.5 100 4.5 100 4.5 100 4.5 100 4.5 100 4.5 100.1 4.5 100.1 4.5 100.1 4.6 100.1 4.6 100.1 4.6 100.1 4.6 100.1 4.6 100.2 4.6 100.2 4.6 100.2 4.6 100.2 4.6 100.2 4.7 100.2 4.7 100.2 4.7 100.3 4.7 100.3 4.7 100.3 4.7 100.3 4.7 100.3 4.7 100.3 4.8 100.3 4.8 100.4 4.8 100.4 4.8 100.4 4.8 100.4 4.8 100.4 4.8 100.4 4.8 100.4 4.8 100.4 4.9 100.5 4.9 100.5 4.9 100.5 4.9 100.5 4.9 100.5 4.9 100.5 4.9 100.5 5 100.6 5 100.6 5 100.6 5 100.6 5 100.6 5 100.6 5 100.6 5.1 100.6 5.1 100.6 5.1 100.7 5.1 100.7 5.1 100.7 5.1 100.7 5.1 100.7 5.2 100.7 5.2 100.7 5.2 100.7 5.2 100.8 5.2 100.8 5.2 100.8 5.2 100.8 5.3 100.8 5.3 100.8 5.3 100.8 5.3 100.8 5.3 100.8 5.3 100.8 5.3 100.9 5.4 100.9 5.4 100.9 5.4 100.9 5.4 100.9 5.4 100.9 5.4 100.9 5.5 100.9 5.5 100.9 5.5 100.9 5.5 101 5.5 101 5.5 101 5.5 101 5.6 101 5.6 101 5.6 101 5.6 101 5.6 101 5.6 101 5.7 101 5.7 101 5.7 101.1 5.7 101.1 5.7 101.1 5.7 101.1 5.8 101.1 5.8 101.1 5.8 101.1 5.8 101.1 5.8 101.1 5.8 101.1 5.9 101.1 5.9 101.1 5.9 101.1 5.9 101.2 5.9 101.2 5.9 101.2 6 101.2 6 101.2 6 101.2 6 101.2 6 101.2 6.1 101.2 6.1 101.2 6.1 101.2 6.1 101.2 6.1 101.2 6.1 101.2 6.2 101.2 6.2 101.2 6.2 101.2 6.2 101.3 6.2 101.3 6.2 101.3 6.3 101.3 6.3 101.3 6.3 101.3 6.3 101.3 6.3 101.3 6.4 101.3 6.4 101.3 6.4 101.3 6.4 101.3 6.4 101.3 6.4 101.3 6.5 101.3 6.5 101.3 6.5 101.3 6.5 101.3 6.5 101.3 6.6 101.3 6.6 101.3 6.6 101.3 6.6 101.3 6.6 101.3 6.7 101.3 6.7 101.3 6.7 101.3 6.7 101.3 6.7 101.3 6.8 101.3 6.8 101.3 6.8 101.3 6.8 101.3 6.8 101.4 6.9 101.4 6.9 101.4 6.9 101.4 6.9 101.4 6.9 101.4 6.9 101.4 7 101.4 7 101.4 7 101.4 7 101.4 38.1 105.3 38.1 105.3 7 105.3 7 105.3 6.9 105.3 6.9 105.3 6.8 105.3 6.8 105.3 6.8 105.3 6.7 105.3 6.7 105.3 6.6 105.3 6.6 105.3 6.5 105.3 6.5 105.3 6.4 105.3 6.4 105.3 6.4 105.3 6.3 105.3 6.3 105.3 6.2 105.3 6.2 105.3 6.1 105.3 6.1 105.3 6 105.3 6 105.3 6 105.3 5.9 105.2 5.9 105.2 5.8 105.2 5.8 105.2 5.7 105.2 5.7 105.2 5.7 105.2 5.6 105.2 5.6 105.2 5.5 105.2 5.5 105.2 5.4 105.1 5.4 105.1 5.4 105.1 5.3 105.1 5.3 105.1 5.2 105.1 5.2 105.1 5.1 105.1 5.1 105.1 5.1 105 5 105 5 105 4.9 105 4.9 105 4.9 105 4.8 105 4.8 105 4.7 104.9 4.7 104.9 4.7 104.9 4.6 104.9 4.6 104.9 4.5 104.9 4.5 104.9 4.5 104.8 4.4 104.8 4.4 104.8 4.3 104.8 4.3 104.8 4.3 104.8 4.2 104.7 4.2 104.7 4.1 104.7 4.1 104.7 4.1 104.7 4 104.6 4 104.6 3.9 104.6 3.9 104.6 3.9 104.6 3.8 104.6 3.8 104.5 3.8 104.5 3.7 104.5 3.7 104.5 3.6 104.4 3.6 104.4 3.6 104.4 3.5 104.4 3.5 104.4 3.5 104.3 3.4 104.3 3.4 104.3 3.3 104.3 3.3 104.3 3.3 104.2 3.2 104.2 3.2 104.2 3.2 104.2 3.1 104.1 3.1 104.1 3.1 104.1 3 104.1 3 104 3 104 2.9 104 2.9 104 2.9 103.9 2.8 103.9 2.8 103.9 2.8 103.9 2.7 103.8 2.7 103.8 2.7 103.8 2.6 103.8 2.6 103.7 2.6 103.7 2.5 103.7 2.5 103.7 2.5 103.6 2.4 103.6 2.4 103.6 2.4 103.5 2.3 103.5 2.3 103.5 2.3 103.5 2.2 103.4 2.2 103.4 2.2 103.4 2.1 103.3 2.1 103.3 2.1 103.3 2.1 103.2 2 103.2 2 103.2 2 103.2 1.9 103.1 1.9 103.1 1.9 103.1 1.9 103 1.8 103 1.8 103 1.8 102.9 1.7 102.9 1.7 102.9 1.7 102.8 1.7 102.8 1.6 102.8 1.6 102.7 1.6 102.7 1.6 102.7 1.5 102.7 1.5 102.6 1.5 102.6 1.4 102.5 1.4 102.5 1.4 102.5 1.4 102.4 1.3 102.4 1.3 102.4 1.3 102.3 1.3 102.3 1.2 102.3 1.2 102.2 1.2 102.2 1.2 102.2 1.2 102.1 1.1 102.1 1.1 102.1 1.1 102 1.1 102 1 102 1 101.9 1 101.9 1 101.8 1 101.8 0.9 101.8 0.9 101.7 0.9 101.7 0.9 101.7 0.9 101.6 0.8 101.6 0.8 101.5 0.8 101.5 0.8 101.5 0.8 101.4 0.7 101.4 0.7 101.4 0.7 101.3 0.7 101.3 0.7 101.2 0.6 101.2 0.6 101.2 0.6 101.1 0.6 101.1 0.6 101 0.6 101 0.5 101 0.5 100.9 0.5 100.9 0.5 100.8 0.5 100.8 0.5 100.8 0.4 100.7 0.4 100.7 0.4 100.6 0.4 100.6 0.4 100.6 0.4 100.5 0.4 100.5 0.3 100.4 0.3 100.4 0.3 100.4 0.3 100.3 0.3 100.3 0.3 100.2 0.3 100.2 0.3 100.1 0.2 100.1 0.2 100.1 0.2 100 0.2 100 0.2 99.9 0.2 99.9 0.2 99.9 0.2 99.8 0.2 99.8 0.2 99.7 0.1 99.7 0.1 99.6 0.1 99.6 0.1 99.6 0.1 99.5 0.1 99.5 0.1 99.4 0.1 99.4 0.1 99.3 0.1 99.3 0.1 99.2 0.1 99.2 0.1 99.2 0.1 99.1 0 99.1 0 99 0 99 0 98.9 0 98.9 0 98.8 0 98.8 0 98.8 0 98.7 0 98.7 0 98.6 0 98.6 0 98.5 0 98.5 0 98.4 0 98.4 0 98.4 0 51.9 0 51.8 0 51.8 0 51.7 0 51.7 0 51.7 0 51.6 0 51.6 0 51.5 0 51.5 0 51.4 0 51.4 0 51.3 0 51.3 0 51.3 0 51.2 0 51.2 0 51.1 0 51.1 0.1 51 0.1 51 0.1 50.9 0.1 50.9 0.1 50.9 0.1 50.8 0.1 50.8 0.1 50.7 0.1 50.7 0.1 50.6 0.1 50.6 0.1 50.6 0.1 50.5 0.1 50.5 0.2 50.4 0.2 50.4 0.2 50.3 0.2 50.3 0.2 50.3 0.2 50.2 0.2 50.2 0.2 50.1 0.2 50.1 0.2 50 0.3 50 0.3 50 0.3 49.9 0.3 49.9 0.3 49.8 0.3 49.8 0.3 49.8 0.3 49.7 0.4 49.7 0.4 49.6 0.4 49.6 0.4 49.6 0.4 49.5 0.4 49.5 0.4 49.4 0.5 49.4 0.5 49.4 0.5 49.3 0.5 49.3 0.5 49.2 0.5 49.2 0.6 49.2 0.6 49.1 0.6 49.1 0.6 49 0.6 49 0.6 49 0.7 48.9 0.7 48.9 0.7 48.8 0.7 48.8 0.7 48.8 0.8 48.7 0.8 48.7 0.8 48.7 0.8 48.6 0.8 48.6 0.8 48.5 0.9 48.5 0.9 48.5 0.9 48.4 0.9 48.4 1 48.4 1 48.3 1 48.3 1 48.2 1 48.2 1.1 48.2 1.1 48.1 1.1 48.1 1.1 48.1 1.2 48 1.2 48 1.2 48 1.2 47.9 1.2 47.9 1.3 47.9 1.3 47.8 1.3 47.8 1.3 47.8 1.4 47.7 1.4 47.7 1.4 47.7 1.4 47.6 1.5 47.6 1.5 47.6 1.5 47.5 1.6 47.5 1.6 47.5 1.6 47.4 1.6 47.4 1.7 47.4 1.7 47.3 1.7 47.3 1.7 47.3 1.8 47.2 1.8 47.2 1.8 47.2 1.9 47.1 1.9 47.1 1.9 47.1 1.9 47 2 47 2 47 2 47 2.1 46.9 2.1 46.9 2.1 46.9 2.1 46.8 2.2 46.8 2.2 46.8 2.2 46.8 2.3 46.7 2.3 46.7 2.3 46.7 2.4 46.6 2.4 46.6 2.4 46.6 2.5 46.6 2.5 46.5 2.5 46.5 2.6 46.5 2.6 46.5 2.6 46.4 2.7 46.4 2.7 46.4 2.7 46.3 2.8 46.3 2.8 46.3 2.8 46.3 2.9 46.2 2.9 46.2 2.9 46.2 3 46.2 3 46.2 3 46.1 3.1 46.1 3.1 46.1 3.1 46.1 3.2 46 3.2 46 3.2 46 3.3 46 3.3 45.9 3.3 45.9 3.4 45.9 3.4 45.9 3.5 45.9 3.5 45.8 3.5 45.8 3.6 45.8 3.6 45.8 3.6 45.7 3.7 45.7 3.7 45.7 3.8 45.7 3.8 45.7 3.8 45.7 3.9 45.6 3.9 45.6 3.9 45.6 4 45.6 4 45.6 4.1 45.5 4.1 45.5 4.1 45.5 4.2 45.5 4.2 45.5 4.3 45.5 4.3 45.4 4.3 45.4 4.4 45.4 4.4 45.4 4.5 45.4 4.5 45.4 4.5 45.3 4.6 45.3 4.6 45.3 4.7 45.3 4.7 45.3 4.7 45.3 4.8 45.3 4.8 45.2 4.9 45.2 4.9 45.2 4.9 45.2 5 45.2 5 45.2 5.1 45.2 5.1 45.2 5.1 45.1 5.2 45.1 5.2 45.1 5.3 45.1 5.3 45.1 5.4 45.1 5.4 45.1 5.4 45.1 5.5 45.1 5.5 45.1 5.6 45 5.6 45 5.7 45 5.7 45 5.7 45 5.8 45 5.8 45 5.9 45 5.9 45 6 45 6 45 6 45 6.1 45 6.1 44.9 6.2 44.9 6.2 44.9 6.3 44.9 6.3 44.9 6.4 44.9 6.4 44.9 6.4 44.9 6.5 44.9 6.5 44.9 6.6 44.9 6.6 44.9 6.7 44.9 6.7 44.9 6.8 44.9 6.8 44.9 6.8 44.9 6.9 44.9 6.9 44.9 7 44.9 7 44.9 53.4 44.9 53.5 44.9 53.5 44.9 53.5 44.9 53.6 44.9 53.6 44.9 53.7 44.9 53.7 44.9 53.8 44.9 53.8 44.9 53.9 44.9 53.9 44.9 53.9 44.9 54 44.9 54 44.9 54.1 44.9 54.1 44.9 54.2 44.9 54.2 44.9 54.3 45 54.3 45 54.3 45 54.4 45 54.4 45 54.5 45 54.5 45 54.6 45 54.6 45 54.7 45 54.7 45 54.7 45 54.8 45 54.8 45 54.9 45.1 54.9 45.1 55 45.1 55 45.1 55 45.1 55.1 45.1 55.1 45.1 55.2 45.1 55.2 45.1 55.3 45.2 55.3 45.2 55.3 45.2 55.4 45.2 55.4 45.2 55.5 45.2 55.5 45.2 55.5 45.2 55.6 45.3 55.6 45.3 55.7 45.3 55.7 45.3 55.7 45.3 55.8 45.3 55.8 45.3 55.9 45.4 55.9 45.4 55.9 45.4 56 45.4 56 45.4 56.1 45.4 56.1 45.5 56.1 45.5 56.2 45.5 56.2 45.5 56.3 45.5 56.3 45.5 56.3 45.6 56.4 45.6 56.4 45.6 56.5 45.6 56.5 45.6 56.5 45.7 56.6 45.7 56.6 45.7 56.7 45.7 56.7 45.7 56.7 45.7 56.8 45.8 56.8 45.8 56.8 45.8 56.9 45.8 56.9 45.9 56.9 45.9 57 45.9 57 45.9 57.1 45.9 57.1 46 57.1 46 57.2 46 57.2 46 57.2 46.1 57.3 46.1 57.3 46.1 57.3 46.1 57.4 46.2 57.4 46.2 57.4 46.2 57.5 46.2 57.5 46.2 57.6 46.3 57.6 46.3 57.6 46.3 57.7 46.3 57.7 46.4 57.7 46.4 57.8 46.4 57.8 46.5 57.8 46.5 57.9 46.5 57.9 46.5 57.9 46.6 57.9 46.6 58 46.6 58 46.6 58 46.7 58.1 46.7 58.1 46.7 58.1 46.8 58.2 46.8 58.2 46.8 58.2 46.8 58.3 46.9 58.3 46.9 58.3 46.9 58.4 47 58.4 47 58.4 47 58.4 47 58.5 47.1 58.5 47.1 58.5 47.1 58.6 47.2 58.6 47.2 58.6 47.2 58.6 47.3 58.7 47.3 58.7 47.3 58.7 47.4 58.8 47.4 58.8 47.4 58.8 47.5 58.8 47.5 58.9 47.5 58.9 47.6 58.9 47.6 58.9 47.6 59 47.7 59 47.7 59 47.7 59 47.8 59.1 47.8 59.1 47.8 59.1 47.9 59.1 47.9 59.2 47.9 59.2 48 59.2 48 59.2 48 59.3 48.1 59.3 48.1 59.3 48.1 59.3 48.2 59.4 48.2 59.4 48.2 59.4 48.3 59.4 48.3 59.4 48.4 59.5 48.4 59.5 48.4 59.5 48.5 59.5 48.5 59.5 48.5 59.6 48.6 59.6 48.6 59.6 48.7 59.6 48.7 59.7 48.7 59.7 48.8 59.7 48.8 59.7 48.8 59.7 48.9 59.7 48.9 59.8 49 59.8 49 59.8 49 59.8 49.1 59.8 49.1 59.9 49.2 59.9 49.2 59.9 49.2 59.9 49.3 59.9 49.3 59.9 49.4 60 49.4 60 49.4 60 49.5 60 49.5 60 49.6 60 49.6 60 49.6 60.1 49.7 60.1 49.7 60.1 49.8 60.1 49.8 60.1 49.8 60.1 49.9 60.1 49.9 60.2 50 60.2 50 60.2 50 60.2 50.1 60.2 50.1 60.2 50.2 60.2 50.2 60.2 50.3 60.2 50.3 60.3 50.3 60.3 50.4 60.3 50.4 60.3 50.5 60.3 50.5 60.3 50.6 60.3 50.6 60.3 50.6 60.3 50.7 60.3 50.7 60.3 50.8 60.3 50.8 60.4 50.9 60.4 50.9 60.4 50.9 60.4 51 60.4 51 60.4 51.1 60.4 51.1 60.4 51.2 60.4 51.2 60.4 51.3 60.4 51.3 60.4 51.3 60.4 51.4 60.4 51.4 60.4 51.5 60.4 51.5 60.4 51.6 60.4 51.6 60.4 51.7 60.4 51.7 60.4 51.7 60.4 51.8 60.4 51.8 60.4 51.9 60.4 51.9 60.4 98.3 60.4 98.4 60.4 98.4 60.4 98.4 60.4 98.5 60.4 98.5 60.4 98.6 60.4 98.6 60.4 98.7 60.4 98.7 60.4 98.8 60.4 98.8 60.4 98.8 60.4 98.9 60.4 98.9 60.4 99 60.4 99 60.4 99.1 60.4 99.1 60.4 99.2 60.4 99.2 60.4 99.2 60.4 99.3 60.4 99.3 60.4 99.4 60.4 99.4 60.4 99.5 60.3 99.5 60.3 99.6 60.3 99.6 60.3 99.6 60.3 99.7 60.3 99.7 60.3 99.8 60.3 99.8 60.3 99.9 60.3 99.9 60.3 99.9 60.3 100 60.2 100 60.2 100.1 60.2 100.1 60.2 100.1 60.2 100.2 60.2 100.2 60.2 100.3 60.2 100.3 60.2 100.4 60.1 100.4 60.1 100.4 60.1 100.5 60.1 100.5 60.1 100.6 60.1 100.6 60.1 100.6 60 100.7 60 100.7 60 100.8 60 100.8 60 100.8 60 100.9 60 100.9 59.9 101 59.9 101 59.9 101 59.9 101.1 59.9 101.1 59.9 101.2 59.8 101.2 59.8 101.2 59.8 101.3 59.8 101.3 59.8 101.4 59.7 101.4 59.7 101.4 59.7 101.5 59.7 101.5 59.7 101.5 59.7 101.6 59.6 101.6 59.6 101.7 59.6 101.7 59.6 101.7 59.5 101.8 59.5 101.8 59.5 101.8 59.5 101.9 59.5 101.9 59.4 102 59.4 102 59.4 102 59.4 102.1 59.4 102.1 59.3 102.1 59.3 102.2 59.3 102.2 59.3 102.2 59.2 102.3 59.2 102.3 59.2 102.3 59.2 102.4 59.1 102.4 59.1 102.4 59.1 102.5 59.1 102.5 59 102.5 59 102.6 59 102.6 59 102.7 58.9 102.7 58.9 102.7 58.9 102.7 58.9 102.8 58.8 102.8 58.8 102.8 58.8 102.9 58.8 102.9 58.7 102.9 58.7 103 58.7 103 58.6 103 58.6 103.1 58.6 103.1 58.6 103.1 58.5 103.2 58.5 103.2 58.5 103.2 58.4 103.3 58.4 103.3 58.4 103.3 58.4 103.3 58.3 103.4 58.3 103.4 58.3 103.4 58.2 103.5 58.2 103.5 58.2 103.5 58.1 103.5 58.1 103.6 58.1 103.6 58 103.6 58 103.7 58 103.7 57.9 103.7 57.9 103.7 57.9 103.8 57.9 103.8 57.8 103.8 57.8 103.8 57.8 103.9 57.7 103.9 57.7 103.9 57.7 103.9 57.6 104 57.6 104 57.6 104 57.5 104 57.5 104.1 57.4 104.1 57.4 104.1 57.4 104.1 57.3 104.2 57.3 104.2 57.3 104.2 57.2 104.2 57.2 104.3 57.2 104.3 57.1 104.3 57.1 104.3 57.1 104.3 57 104.4 57 104.4 56.9 104.4 56.9 104.4 56.9 104.4 56.8 104.5 56.8 104.5 56.8 104.5 56.7 104.5 56.7 104.6 56.7 104.6 56.6 104.6 56.6 104.6 56.5 104.6 56.5 104.6 56.5 104.7 56.4 104.7 56.4 104.7 56.3 104.7 56.3 104.7 56.3 104.8 56.2 104.8 56.2 104.8 56.1 104.8 56.1 104.8 56.1 104.8 56 104.9 56 104.9 56 104.9 55.9 104.9 55.9 104.9 55.8 104.9 55.8 104.9 55.7 105 55.7 105 55.7 105 55.6 105 55.6 105 55.5 105 55.5 105 55.5 105 55.4 105.1 55.4 105.1 55.3 105.1 55.3 105.1 55.3 105.1 55.2 105.1 55.2 105.1 55.1 105.1 55.1 105.1 55 105.2 55 105.2 55 105.2 54.9 105.2 54.9 105.2 54.8 105.2 54.8 105.2 54.7 105.2 54.7 105.2 54.7 105.2 54.6 105.2 54.6 105.3 54.5 105.3 54.5 105.3 54.4 105.3 54.4 105.3 54.3 105.3 54.3 105.3 54.3 105.3 54.2 105.3 54.2 105.3 54.1 105.3 54.1 105.3 54 105.3 54 105.3 54 105.3 53.9 105.3 53.9 105.3 53.8 105.3 53.8 105.3 53.7 105.3 53.7 105.3 53.6 105.3 53.6 105.3 53.5 105.3 53.5 105.3 53.5 105.3 53.4 105.3 37.7"/>
    <path class="st0" d="M 54 11.8 C 54.7 10.9 56.3 10 57.3 9.6 C 64.2 4.5 67.5 9.4 72.2 15.1 C 80.6 20.5 83.8 29.5 87.8 39.7 C 90.5 42.6 91.1 43.9 93.8 46.8 C 93.5 47 93 46.9 92.5 46.7 C 93.9 48.2 95.4 50.4 96.1 52.2 C 95.1 52 94.1 51.2 93.2 50.3 C 94.1 52.3 95.1 54.9 94.6 55.6 C 94.2 55.8 93.7 55.3 93.3 54.6 C 93.3 55.2 93.2 55.8 93.1 56.2 C 92.5 56.2 92.2 55.8 91.9 54.9 C 89.6 48.2 84.3 43.4 79.8 40.2 C 79.8 41 79.8 41.9 80.1 43 C 80.1 43.6 80.4 45.1 79.9 45.4 C 79.9 44.5 79.4 42.9 78.9 42.1 C 78.4 43.3 77.6 46.7 76.9 46.4 C 76.7 46.9 76.5 47.7 76.7 48.3 C 76.3 48 76.2 46.8 76.5 46.2 C 76.2 46.1 77.4 44.1 77.2 43.3 C 76.7 44.1 76.6 44.3 76.2 44.8 C 76.2 44 76.7 42.7 77.2 42.1 C 78.1 41.5 78.8 40.7 79.1 39.8 C 78.7 39.5 78.4 39.3 78 39.1 C 75.9 39.3 73.3 39.1 71 38.4 C 71.2 39 71.1 39.7 69.8 40.5 C 68.6 41.7 67.7 42.9 66.7 44.5 C 66.7 44.6 66.6 44.7 66.6 45 C 66.7 45.7 67 48.6 67.1 49.3 C 66.8 48.6 66.2 46.8 66 46.1 C 65.2 47.1 64.7 48.7 64.3 50 C 64.2 50.2 64 50.2 63.8 50.2 C 63.6 50.8 63.5 51.6 63.6 52.1 C 63.3 51.5 63.1 50.5 63.3 49.9 C 63.3 49.9 63.3 49.7 63.3 49.6 C 63.5 48.8 63.9 47.8 64.2 47 C 63.7 47.3 63.4 47.8 63.2 48.6 C 62.9 47.7 63.4 46.1 64.4 45.4 C 66.3 43.9 67.5 41.8 68.8 39.9 C 68.5 39.1 68.4 38.2 68.3 37.3 C 68 37.2 67.7 37 67.5 36.8 C 61.6 32.1 59.1 27 58.7 17.1 C 57.7 16.3 56.9 14.9 57 13.5 C 56.5 13 54.8 12.4 54 11.8" fill="#CE222E"/>
  </g>
  <path class="st1" d="M8.8,29.5c-1.7,0-3.3,0-4.9,0.2v10.1H0V26.5c2.5-0.5,6.2-0.9,8.8-0.9V29.5z" style="clip-path: url(#clip-0);"/>
</svg>