<svg xmlns="http://www.w3.org/2000/svg" width="256" height="256" viewBox="0 0 256 256" version="1.1"><path d="M 23.415 159.679 C 23.806 164.531, 24.295 169.625, 24.501 171 C 24.707 172.375, 25.818 176.650, 26.970 180.500 C 28.122 184.350, 29.196 187.950, 29.355 188.500 C 29.515 189.050, 31.413 193.099, 33.573 197.498 C 35.733 201.897, 38.063 206.092, 38.750 206.820 C 39.438 207.547, 40 208.492, 40 208.918 C 40 209.345, 40.788 210.638, 41.750 211.791 C 42.712 212.945, 44.611 215.376, 45.970 217.194 C 47.328 219.012, 50.479 222.525, 52.972 225 C 55.464 227.475, 58.841 230.597, 60.475 231.937 C 62.109 233.278, 65.896 236.091, 68.889 238.187 C 71.882 240.284, 74.932 242, 75.666 242 C 76.400 242, 77 242.382, 77 242.848 C 77 243.315, 78.912 244.519, 81.250 245.525 C 83.588 246.531, 87.354 248.159, 89.620 249.143 C 91.886 250.126, 95.711 251.415, 98.120 252.005 C 100.529 252.596, 103.850 253.326, 105.500 253.628 C 107.150 253.929, 110.525 254.552, 113 255.010 C 115.475 255.469, 122.225 255.837, 128 255.829 C 133.775 255.821, 141.200 255.390, 144.500 254.872 C 147.800 254.354, 154.153 252.824, 158.618 251.473 C 163.083 250.122, 170.508 247.132, 175.118 244.829 C 179.728 242.527, 185.639 239.144, 188.254 237.312 C 190.868 235.480, 194.243 232.984, 195.754 231.765 C 197.264 230.547, 201.270 226.747, 204.656 223.321 C 208.042 219.895, 213.321 213.321, 216.387 208.712 C 219.454 204.104, 223.139 197.674, 224.576 194.425 C 226.013 191.175, 228.090 184.912, 229.191 180.508 C 230.292 176.104, 231.410 171.600, 231.675 170.500 C 231.940 169.400, 232.399 164.518, 232.695 159.650 C 233.234 150.800, 233.234 150.800, 230.867 152.284 C 229.565 153.100, 206.132 167.094, 178.794 183.383 C 151.456 199.673, 128.573 213, 127.944 213 C 127.314 213, 106.706 200.992, 82.149 186.316 C 57.592 171.640, 34.171 157.659, 30.101 155.245 C 22.702 150.858, 22.702 150.858, 23.415 159.679" stroke="none" fill="#357677" fill-rule="evenodd"/><path d="M 41.192 139.951 C 23.475 150.526, 22.959 150.925, 25.192 152.328 C 26.462 153.125, 49.837 167.102, 77.138 183.389 C 104.440 199.675, 127.297 213, 127.933 213 C 128.568 213, 151.456 199.673, 178.794 183.383 C 206.132 167.094, 229.560 153.103, 230.856 152.291 C 233.212 150.815, 233.212 150.815, 227.856 147.600 C 224.910 145.832, 221.825 144.056, 221 143.654 C 220.175 143.251, 218.600 142.368, 217.500 141.690 C 216.400 141.013, 213.700 139.297, 211.500 137.877 C 209.300 136.457, 204.927 133.844, 201.783 132.071 C 196.066 128.846, 196.066 128.846, 162.406 148.923 C 143.893 159.965, 128.391 169, 127.957 169 C 127.524 169, 112.074 160, 93.624 149 C 75.174 138, 59.949 129.005, 59.790 129.012 C 59.630 129.018, 51.262 133.941, 41.192 139.951" stroke="none" fill="#4aafa8" fill-rule="evenodd"/><path d="M 41.192 139.951 C 23.475 150.526, 22.959 150.925, 25.192 152.328 C 26.462 153.125, 49.837 167.102, 77.138 183.389 C 104.440 199.675, 127.297 213, 127.933 213 C 128.568 213, 151.456 199.673, 178.794 183.383 C 206.132 167.094, 229.560 153.103, 230.856 152.291 C 233.212 150.815, 233.212 150.815, 227.856 147.600 C 224.910 145.832, 221.825 144.056, 221 143.654 C 220.175 143.251, 218.600 142.368, 217.500 141.690 C 216.400 141.013, 213.700 139.297, 211.500 137.877 C 209.300 136.457, 204.927 133.844, 201.783 132.071 C 196.066 128.846, 196.066 128.846, 162.406 148.923 C 143.893 159.965, 128.391 169, 127.957 169 C 127.524 169, 112.074 160, 93.624 149 C 75.174 138, 59.949 129.005, 59.790 129.012 C 59.630 129.018, 51.262 133.941, 41.192 139.951" stroke="none" fill="#4aafa8" fill-rule="evenodd"/><path d="M 23.025 85.191 C 23.050 107.500, 23.050 107.500, 40.680 118 C 50.376 123.775, 58.802 128.679, 59.404 128.898 C 60.007 129.117, 75.500 138.230, 93.834 149.148 C 112.168 160.067, 127.524 169, 127.957 169 C 128.391 169, 143.766 160.079, 162.123 149.176 C 180.480 138.272, 203.915 124.435, 214.200 118.426 C 232.900 107.500, 232.900 107.500, 232.950 85.191 C 232.977 72.921, 232.663 63.070, 232.250 63.299 C 231.838 63.528, 208.550 77.373, 180.500 94.065 C 152.450 110.757, 128.822 124.417, 127.993 124.421 C 127.165 124.425, 103.540 110.761, 75.493 94.057 C 47.447 77.352, 24.163 63.504, 23.750 63.284 C 23.337 63.063, 23.011 72.921, 23.025 85.191" stroke="none" fill="#40dbcc" fill-rule="evenodd"/><path d="M 23.025 85.191 C 23.050 107.500, 23.050 107.500, 40.680 118 C 50.376 123.775, 58.802 128.679, 59.404 128.898 C 60.007 129.117, 75.500 138.230, 93.834 149.148 C 112.168 160.067, 127.524 169, 127.957 169 C 128.391 169, 143.766 160.079, 162.123 149.176 C 180.480 138.272, 203.915 124.435, 214.200 118.426 C 232.900 107.500, 232.900 107.500, 232.950 85.191 C 232.977 72.921, 232.663 63.070, 232.250 63.299 C 231.838 63.528, 208.550 77.373, 180.500 94.065 C 152.450 110.757, 128.822 124.417, 127.993 124.421 C 127.165 124.425, 103.540 110.761, 75.493 94.057 C 47.447 77.352, 24.163 63.504, 23.750 63.284 C 23.337 63.063, 23.011 72.921, 23.025 85.191" stroke="none" fill="#40dbcc" fill-rule="evenodd"/><path d="M 75.250 30.843 C 47.063 47.700, 24 61.779, 24 62.130 C 24 62.482, 47.393 76.737, 75.984 93.809 C 127.967 124.848, 127.967 124.848, 180.381 93.674 C 209.209 76.528, 232.504 62.192, 232.148 61.816 C 231.791 61.440, 208.427 47.377, 180.227 30.566 C 152.027 13.755, 128.402 0.044, 127.727 0.097 C 127.052 0.150, 103.438 13.986, 75.250 30.843" stroke="none" fill="#97f7e9" fill-rule="evenodd"/><path d="M 23.158 164 C 23.158 165.375, 23.385 165.938, 23.662 165.250 C 23.940 164.563, 23.940 163.438, 23.662 162.750 C 23.385 162.063, 23.158 162.625, 23.158 164" stroke="none" fill="#347474" fill-rule="evenodd"/><path d="" stroke="none" fill="#68dad1" fill-rule="evenodd"/></svg>