<svg xmlns="http://www.w3.org/2000/svg" width="200" height="200" viewBox="0 0 200 200" version="1.1"><path d="M 61.664 22.281 L 24.828 40.468 25.395 45.484 C 25.707 48.243, 26.254 53.313, 26.610 56.750 L 27.258 63 51.486 63 L 75.715 63 80.285 73.750 C 82.798 79.662, 86.660 89, 88.867 94.500 C 94.145 107.653, 98.543 117.877, 99.214 118.547 C 99.510 118.844, 100.912 116.254, 102.330 112.793 C 108.535 97.638, 114.102 84.347, 115.018 82.500 C 115.563 81.400, 117.539 76.675, 119.410 72 L 122.810 63.500 147.117 63 L 171.425 62.500 172.775 51.646 C 173.518 45.676, 173.985 40.653, 173.813 40.484 C 172.901 39.585, 100.344 4.012, 99.500 4.050 C 98.950 4.074, 81.924 12.278, 61.664 22.281 M 30.020 83.226 C 30.031 85.577, 30.711 93.125, 31.531 100 C 32.352 106.875, 33.915 120.600, 35.005 130.500 C 36.096 140.400, 37.263 150.232, 37.599 152.350 C 38.195 156.110, 38.763 156.563, 61.855 171.729 C 74.860 180.270, 88.516 189.265, 92.203 191.717 C 96.401 194.510, 99.391 195.884, 100.203 195.396 C 101.738 194.473, 121.274 179.750, 122 178.970 C 122.503 178.429, 143.167 162.739, 154.712 154.131 C 160.156 150.073, 160.988 149.006, 161.448 145.500 C 161.736 143.300, 162.884 133.850, 163.999 124.500 C 165.113 115.150, 166.450 104.125, 166.968 100 C 167.487 95.875, 168.209 89.463, 168.572 85.750 L 169.233 79 151.305 79 L 133.376 79 129.082 89.250 C 126.720 94.888, 122.534 104.900, 119.778 111.500 C 117.022 118.100, 113.767 125.750, 112.545 128.500 C 111.322 131.250, 107.887 139.684, 104.911 147.242 C 101.935 154.800, 99.275 160.984, 99 160.983 C 98.725 160.983, 96.953 157.274, 95.063 152.742 C 93.172 148.209, 90.757 142.475, 89.696 140 C 88.635 137.525, 87.189 134.150, 86.482 132.500 C 85.775 130.850, 82.017 121.850, 78.131 112.500 C 74.245 103.150, 69.541 91.900, 67.678 87.500 L 64.291 79.500 47.146 79.226 L 30 78.953 30.020 83.226" stroke="none" fill="#f80606" fill-rule="evenodd"/></svg>