<svg xmlns="http://www.w3.org/2000/svg" width="225" height="225" viewBox="0 0 225 225" version="1.1"><path d="M 73.449 29.488 C 27.139 56.278, 26.261 56.840, 20.022 63.666 C 1.052 84.423, -1.969 116.718, 12.906 139.733 C 18.521 148.421, 23.291 153.377, 30.868 158.396 C 42.399 166.035, 52.579 169.148, 66.169 169.191 C 82.264 169.242, 86.842 167.464, 120.233 148.195 L 143.966 134.500 143.983 127.215 C 144 119.970, 143.988 119.936, 141.750 121.127 C 140.512 121.786, 127.897 129.031, 113.716 137.228 C 99.535 145.425, 85.464 152.980, 82.448 154.018 C 54.814 163.525, 24.999 147.130, 17.489 118.297 C 13.251 102.026, 18.309 83.820, 30.500 71.464 C 35.602 66.294, 41.928 62.264, 72.753 44.549 C 92.692 33.091, 109.702 23.207, 110.552 22.586 C 111.746 21.713, 112.029 19.867, 111.798 14.466 L 111.500 7.476 73.449 29.488 M 143 57.600 C 135.837 59.511, 128.706 62.987, 111 73.196 L 96.500 81.557 96.206 88.778 C 96.045 92.750, 96.188 96, 96.526 96 C 96.863 96, 106.059 90.846, 116.961 84.547 C 140.970 70.675, 146.214 68.671, 158.500 68.671 C 177.862 68.671, 195.353 79.496, 203.466 96.500 C 210.885 112.049, 210.694 126.752, 202.871 142.260 C 197.044 153.813, 191.183 158.266, 152.894 180.233 C 133.977 191.086, 117.038 200.867, 115.250 201.968 C 112.083 203.920, 112 204.149, 112 210.985 C 112 214.843, 112.176 218, 112.391 218 C 113.747 218, 195.326 170.101, 198.856 167.233 C 208.283 159.570, 216.333 146.641, 219.615 133.887 C 221.751 125.588, 221.719 111.361, 219.545 103.087 C 213.709 80.868, 195.861 63.189, 173.540 57.515 C 166.040 55.609, 150.296 55.652, 143 57.600 M 62.500 68.367 C 45.130 78.431, 38.783 83.766, 34.981 91.500 C 32.871 95.792, 32.521 97.916, 32.512 106.500 C 32.501 115.992, 32.673 116.820, 35.908 122.785 C 39.923 130.190, 44.362 134.361, 51.900 137.812 C 58.694 140.922, 69.448 141.785, 76.002 139.746 C 78.478 138.975, 95.527 129.669, 113.888 119.064 C 132.250 108.460, 148.772 99.157, 150.604 98.392 C 155.193 96.475, 162.710 96.685, 167.509 98.865 C 171.884 100.853, 177.548 106.692, 179.145 110.861 C 180.955 115.586, 180.435 123.469, 177.980 128.541 C 175.114 134.462, 173.857 135.332, 140 154.832 L 112.500 170.671 112.206 177.835 C 112.045 181.776, 112.184 185, 112.516 185 C 114.059 185, 178.648 147.111, 182.054 144.208 C 184.264 142.324, 187.324 138.053, 189.208 134.223 C 192.198 128.144, 192.499 126.703, 192.485 118.515 C 192.467 107.671, 190.516 102.604, 183.447 95.047 C 176.441 87.557, 169.568 84.605, 159 84.547 C 153.813 84.518, 149.136 85.058, 147 85.933 C 145.075 86.721, 128.875 95.775, 111 106.052 C 93.125 116.330, 76.969 125.520, 75.098 126.474 C 69.894 129.128, 59.519 128.271, 54.195 124.748 C 44.578 118.384, 41.591 105.080, 47.586 95.320 C 50.449 90.661, 56.510 86.432, 77 74.797 C 79.888 73.156, 80 72.831, 80 66.047 C 80 62.171, 79.662 59.022, 79.250 59.048 C 78.838 59.075, 71.300 63.268, 62.500 68.367" stroke="none" fill="#06132a" fill-rule="evenodd"/></svg>