<svg xmlns="http://www.w3.org/2000/svg" width="200" height="200" viewBox="0 0 200 200" version="1.1"><path d="M 86.500 21.966 C 79.033 23.238, 69.749 26.503, 61.687 30.691 C 56.389 33.443, 51.862 37.063, 44.462 44.462 C 33.361 55.564, 28.956 62.693, 24.213 77.232 C 21.775 84.704, 21.519 86.895, 21.557 100 C 21.592 112.211, 21.962 115.684, 23.899 122 C 32.042 148.552, 50.341 167.008, 77.232 175.790 C 84.745 178.244, 86.869 178.488, 100.500 178.463 C 114.803 178.437, 115.933 178.285, 124.813 175.191 C 150.475 166.249, 168.058 148.008, 176.086 122 C 178.042 115.662, 178.407 112.253, 178.443 100 C 178.481 86.895, 178.225 84.704, 175.787 77.232 C 171.044 62.693, 166.639 55.564, 155.538 44.462 C 139.678 28.603, 125.125 22.179, 103.500 21.494 C 96.900 21.285, 89.250 21.498, 86.500 21.966 M 92 31.572 C 74.206 34.634, 62.571 40.339, 51.455 51.455 C 42.493 60.417, 35.862 72.052, 32.906 84 C 30.670 93.041, 31.211 111.093, 33.980 119.784 C 35.256 123.790, 36.682 127.304, 37.150 127.593 C 37.617 127.882, 38 128.758, 38 129.540 C 38 134.103, 52.196 150.786, 61.313 156.936 C 73.628 165.243, 84.992 168.532, 101 168.419 C 112.436 168.339, 115.489 167.768, 126 163.745 C 143.360 157.101, 159.590 139.790, 165.475 121.641 C 170.656 105.663, 169.611 86.827, 162.722 72 C 153.520 52.196, 137.247 38.487, 116.500 33.060 C 112.028 31.890, 95.859 30.908, 92 31.572 M 94.500 41.638 C 69.379 44.631, 49.635 61.319, 43.309 84.904 C 41.452 91.829, 41.297 106.882, 43.009 114.097 C 47.650 133.657, 62.705 149.443, 83.521 156.574 C 90.186 158.857, 108.430 158.940, 115.711 156.720 C 136.340 150.430, 150.608 136.153, 156.672 115.732 C 158.773 108.658, 158.787 91.147, 156.697 84.247 C 149.347 59.980, 128.742 43.503, 103.500 41.707 C 100.200 41.472, 96.150 41.441, 94.500 41.638 M 84.476 54.326 C 64.070 61.690, 52 78.665, 52 100 C 52 121.202, 64.475 138.769, 84.567 145.859 C 91.988 148.478, 107.385 148.834, 113.895 146.537 C 118.340 144.969, 124.866 142.022, 126.500 140.845 C 135.222 134.564, 142.154 125.549, 145.844 115.686 C 148.809 107.764, 148.842 93.896, 145.919 84.991 C 143.697 78.222, 138.030 69.159, 133.355 64.897 C 129.258 61.163, 121.376 56, 119.770 56 C 119.016 56, 117.973 55.626, 117.450 55.169 C 113.203 51.452, 93.814 50.956, 84.476 54.326" stroke="none" fill="#f14764" fill-rule="evenodd"/><path d="M -0 100.005 L -0 200.010 100.250 199.755 L 200.500 199.500 200.755 99.750 L 201.010 0 100.505 0 L 0 0 -0 100.005 M 0.481 100.500 C 0.481 155.500, 0.602 178.147, 0.750 150.826 C 0.898 123.506, 0.898 78.506, 0.750 50.826 C 0.602 23.147, 0.481 45.500, 0.481 100.500 M 86.500 21.966 C 79.033 23.238, 69.749 26.503, 61.687 30.691 C 56.389 33.443, 51.862 37.063, 44.462 44.462 C 33.361 55.564, 28.956 62.693, 24.213 77.232 C 21.775 84.704, 21.519 86.895, 21.557 100 C 21.592 112.211, 21.962 115.684, 23.899 122 C 32.042 148.552, 50.341 167.008, 77.232 175.790 C 84.745 178.244, 86.869 178.488, 100.500 178.463 C 114.803 178.437, 115.933 178.285, 124.813 175.191 C 150.475 166.249, 168.058 148.008, 176.086 122 C 178.042 115.662, 178.407 112.253, 178.443 100 C 178.481 86.895, 178.225 84.704, 175.787 77.232 C 171.044 62.693, 166.639 55.564, 155.538 44.462 C 139.678 28.603, 125.125 22.179, 103.500 21.494 C 96.900 21.285, 89.250 21.498, 86.500 21.966 M 92 31.572 C 74.206 34.634, 62.571 40.339, 51.455 51.455 C 42.493 60.417, 35.862 72.052, 32.906 84 C 30.670 93.041, 31.211 111.093, 33.980 119.784 C 35.256 123.790, 36.682 127.304, 37.150 127.593 C 37.617 127.882, 38 128.758, 38 129.540 C 38 134.103, 52.196 150.786, 61.313 156.936 C 73.628 165.243, 84.992 168.532, 101 168.419 C 112.436 168.339, 115.489 167.768, 126 163.745 C 143.360 157.101, 159.590 139.790, 165.475 121.641 C 170.656 105.663, 169.611 86.827, 162.722 72 C 153.520 52.196, 137.247 38.487, 116.500 33.060 C 112.028 31.890, 95.859 30.908, 92 31.572 M 94.500 41.638 C 69.379 44.631, 49.635 61.319, 43.309 84.904 C 41.452 91.829, 41.297 106.882, 43.009 114.097 C 47.650 133.657, 62.705 149.443, 83.521 156.574 C 90.186 158.857, 108.430 158.940, 115.711 156.720 C 136.340 150.430, 150.608 136.153, 156.672 115.732 C 158.773 108.658, 158.787 91.147, 156.697 84.247 C 149.347 59.980, 128.742 43.503, 103.500 41.707 C 100.200 41.472, 96.150 41.441, 94.500 41.638 M 84.476 54.326 C 64.070 61.690, 52 78.665, 52 100 C 52 121.202, 64.475 138.769, 84.567 145.859 C 91.988 148.478, 107.385 148.834, 113.895 146.537 C 118.340 144.969, 124.866 142.022, 126.500 140.845 C 135.222 134.564, 142.154 125.549, 145.844 115.686 C 148.809 107.764, 148.842 93.896, 145.919 84.991 C 143.697 78.222, 138.030 69.159, 133.355 64.897 C 129.258 61.163, 121.376 56, 119.770 56 C 119.016 56, 117.973 55.626, 117.450 55.169 C 113.203 51.452, 93.814 50.956, 84.476 54.326" stroke="none" fill="#1f2232" fill-rule="evenodd"/></svg>