<svg xmlns="http://www.w3.org/2000/svg" width="1331" height="259" viewBox="0 0 1331 259" version="1.1"><path d="M 340.247 49.101 C 317.475 51.757, 303.314 60.233, 299.451 73.520 C 298.337 77.353, 298.018 80.703, 298.469 83.847 C 301.110 102.255, 315.341 109.479, 353.931 112 C 393.887 114.611, 401.007 115.853, 406.290 121.136 C 408.872 123.718, 409.181 124.616, 408.705 128.160 C 407.188 139.474, 391.300 145.332, 362 145.382 C 342.874 145.414, 329.702 143.587, 311.670 138.402 C 305.164 136.531, 299.688 135, 299.502 135 C 298.715 135, 294.856 148.183, 295.303 149.346 C 296.402 152.211, 324.079 159.036, 343 161.108 C 355.309 162.456, 378.228 161.682, 388.500 159.571 C 414.809 154.164, 427.384 142.201, 425.746 124.138 C 424.151 106.548, 410.543 99.227, 375.265 96.978 C 338.494 94.634, 329.560 93.412, 322.498 89.758 C 317.660 87.255, 315.727 84.469, 315.727 80 C 315.727 75.320, 317.677 72.718, 323.356 69.819 C 333.025 64.885, 335.910 64.698, 409.240 64.268 L 477.981 63.865 478.240 111.682 L 478.500 159.500 486.750 159.790 L 495 160.081 495 112.040 L 495 64 523.042 64 L 551.084 64 550.792 56.250 L 550.500 48.500 449 48.377 C 393.175 48.310, 344.236 48.635, 340.247 49.101 M 560 104 L 560 160.015 621.750 159.758 L 683.500 159.500 683.792 151.750 L 684.084 144 630.542 144 L 577 144 577 127.500 L 577 111 624 111 L 671 111 671 102.500 L 671 94 624 94 L 577 94 577 79 L 577 64 629.042 64 L 681.084 64 680.792 56.250 L 680.500 48.500 620.250 48.242 L 560 47.984 560 104 M 695 104 L 695 160 753 160 L 811 160 811 152 L 811 144 761.500 144 L 712 144 712 96 L 712 48 703.500 48 L 695 48 695 104 M 822.459 49.250 C 822.196 49.938, 822.097 75.025, 822.240 105 L 822.500 159.500 880.250 159.758 L 938 160.016 938 152.008 L 938 144 888.500 144 L 839 144 839 96 L 839 48 830.969 48 C 825.465 48, 822.787 48.393, 822.459 49.250 M 977.457 101.750 C 958.851 131.313, 942.984 156.512, 942.199 157.750 L 940.770 160 950.635 159.972 L 960.500 159.944 990 114.012 C 1006.225 88.749, 1019.725 68.084, 1020 68.090 C 1020.275 68.096, 1033.550 88.778, 1049.500 114.050 L 1078.500 159.999 1087.823 159.999 C 1095.003 160, 1097.072 159.699, 1096.823 158.691 C 1096.645 157.971, 1080.989 132.771, 1062.031 102.691 L 1027.562 48 1019.424 48 L 1011.287 48 977.457 101.750 M 1102 104.040 L 1102 160.081 1110.250 159.790 L 1118.500 159.500 1118.760 111.688 L 1119.019 63.877 1159.260 64.188 C 1195.430 64.468, 1199.903 64.682, 1203.486 66.298 C 1208.602 68.605, 1211.905 71.673, 1213.629 75.718 C 1215.388 79.846, 1215.392 89.127, 1213.636 93.329 C 1212.182 96.810, 1207.258 101.466, 1203.056 103.333 C 1201.414 104.063, 1189.243 104.653, 1169 104.984 L 1137.500 105.500 1149 113.473 C 1155.325 117.859, 1172.814 130.121, 1187.864 140.723 L 1215.229 160 1228.114 160 C 1235.201 160, 1240.981 159.662, 1240.958 159.250 C 1240.935 158.838, 1228.773 150.175, 1213.931 140 L 1186.945 121.500 1194.424 120.802 C 1212.305 119.132, 1222.592 113.376, 1228.836 101.547 C 1231.293 96.892, 1231.500 95.568, 1231.500 84.500 C 1231.500 73.388, 1231.300 72.121, 1228.795 67.372 C 1225.351 60.844, 1221.071 56.577, 1214.759 53.378 C 1204.973 48.419, 1200.295 48.036, 1149.250 48.017 L 1102 48 1102 104.040 M 1268.182 187.030 C 1261.316 191.217, 1259.368 201.495, 1264.165 208.231 C 1268.339 214.094, 1277.477 215.836, 1283.808 211.976 C 1287.151 209.937, 1290.956 203.297, 1290.956 199.500 C 1290.956 195.703, 1287.151 189.063, 1283.808 187.024 C 1279.453 184.369, 1272.543 184.372, 1268.182 187.030 M 772.530 189.282 C 764.575 193.787, 762.265 200.967, 763.244 218.141 C 763.666 225.545, 764.188 227.685, 766.376 230.992 C 773.606 241.918, 790.969 241.734, 797.457 230.664 C 800.884 224.816, 800.718 224, 796.100 224 C 792.976 224, 791.503 224.697, 788.700 227.500 C 784.214 231.986, 780.331 232.161, 775.766 228.082 L 772.500 225.164 772.500 213 L 772.500 200.836 775.887 197.809 C 778.746 195.255, 779.838 194.872, 782.887 195.357 C 785.151 195.716, 787.521 197.063, 789.236 198.965 C 791.441 201.411, 792.771 202, 796.093 202 C 799.440 202, 800.100 201.703, 799.607 200.418 C 799.273 199.548, 799 198.439, 799 197.953 C 799 196.415, 792.817 189.957, 789.901 188.449 C 785.601 186.225, 777.216 186.627, 772.530 189.282 M 876.494 202.988 L 884 217.975 884 228.488 L 884 239 888 239 L 892 239 892 228.488 L 892 217.975 899.506 202.988 L 907.013 188 902.639 188 L 898.266 188 893.383 198.500 C 890.697 204.274, 888.236 208.999, 887.913 209 C 887.591 209, 885.165 204.275, 882.524 198.500 L 877.720 188 873.354 188 L 868.987 188 876.494 202.988 M 982 213.500 L 982 239 995.250 238.996 C 1006.619 238.993, 1008.954 238.716, 1011.696 237.044 C 1019.995 231.984, 1021.114 220.639, 1013.912 214.579 C 1011.058 212.178, 1011.026 212.057, 1012.968 211.017 C 1017.999 208.325, 1019.317 199.185, 1015.512 193.378 C 1012.722 189.121, 1008.351 188, 994.532 188 L 982 188 982 213.500 M 1096 213.500 L 1096 239 1112.500 239 L 1129 239 1129 235.500 L 1129 232 1117 232 L 1105 232 1105 224.500 L 1105 217 1115.500 217 L 1126 217 1126 213.500 L 1126 210 1115.500 210 L 1105 210 1105 202.500 L 1105 195 1117 195 L 1129 195 1129 191.500 L 1129 188 1112.500 188 L 1096 188 1096 213.500 M 1207 213.424 L 1207 239 1211.500 239 L 1216 239 1216 228 L 1216 217 1220.487 217 L 1224.974 217 1230.134 228 L 1235.293 239 1240.220 239 L 1245.147 239 1239.406 228.077 L 1233.664 217.153 1236.968 214.373 C 1244.739 207.835, 1244.971 197.972, 1237.518 191 C 1234.974 188.620, 1234.174 188.484, 1220.923 188.174 L 1207 187.849 1207 213.424 M 1270.225 189.948 C 1266.559 192.246, 1265 195.437, 1265 200.642 C 1265 206.828, 1272.306 212.144, 1278.628 210.557 C 1280.074 210.194, 1282.549 208.605, 1284.128 207.026 C 1286.451 204.703, 1287 203.282, 1287 199.593 C 1287 190.507, 1277.785 185.209, 1270.225 189.948 M 1270 199.500 C 1270 207.245, 1270.172 208, 1271.940 208 C 1273.453 208, 1273.947 207.188, 1274.190 204.307 L 1274.500 200.613 1277 204.300 C 1278.375 206.327, 1280.287 207.989, 1281.250 207.993 C 1283.473 208.002, 1283.447 207.437, 1281.071 204.100 C 1279.167 201.425, 1279.167 201.377, 1281.071 200.187 C 1283.250 198.827, 1283.683 194.083, 1281.800 192.200 C 1281.140 191.540, 1278.215 191, 1275.300 191 L 1270 191 1270 199.500 M 1274 196 C 1274 197.646, 1274.518 198.065, 1276.250 197.820 C 1277.487 197.644, 1278.500 196.825, 1278.500 196 C 1278.500 195.175, 1277.487 194.356, 1276.250 194.180 C 1274.518 193.935, 1274 194.354, 1274 196 M 991 202 L 991 209 997.365 209 C 1005.026 209, 1009 206.609, 1009 202 C 1009 197.391, 1005.026 195, 997.365 195 L 991 195 991 202 M 1216 202.394 L 1216 210 1222.865 210 C 1231.312 210, 1235 207.757, 1235 202.619 C 1235 196.816, 1233.176 195.568, 1224.089 195.156 L 1216 194.788 1216 202.394 M 991 224 L 991 232 998.045 232 C 1004.192 232, 1005.404 231.687, 1007.545 229.545 C 1009.093 227.998, 1010 225.948, 1010 224 C 1010 222.052, 1009.093 220.002, 1007.545 218.455 C 1005.404 216.313, 1004.192 216, 998.045 216 L 991 216 991 224" stroke="none" fill="#040404" fill-rule="evenodd"/><path d="M 81.296 30.236 C 65.784 46.840, 53.248 60.581, 53.437 60.771 C 53.627 60.960, 67.706 54.150, 84.725 45.637 L 115.668 30.160 139.505 41.106 C 152.615 47.127, 163.688 51.929, 164.113 51.777 C 164.537 51.624, 154.291 39.913, 141.343 25.750 L 117.801 0 113.650 0.023 C 109.505 0.046, 109.464 0.085, 81.296 30.236 M 156 26.380 C 156 26.717, 169.046 33.520, 184.992 41.496 L 213.984 55.999 212.298 60.249 C 211.370 62.587, 207.816 71.250, 204.400 79.500 C 200.984 87.750, 198.367 94.683, 198.585 94.907 C 199.027 95.362, 249.615 57.432, 250.521 55.966 C 250.838 55.454, 250.820 53.558, 250.482 51.755 L 249.867 48.475 204.689 37.580 C 179.842 31.588, 158.722 26.478, 157.756 26.226 C 156.790 25.973, 156 26.043, 156 26.380 M 75 68.551 C 50.525 73.132, 24.157 78.065, 16.405 79.514 L 2.309 82.148 1.127 87.269 C 0.077 91.819, 0.143 92.577, 1.723 94.072 C 4.360 96.568, 94.186 162.134, 95.835 162.767 C 96.983 163.208, 96.958 162.858, 95.698 160.905 C 67.093 116.544, 49.236 87.451, 50.269 86.890 C 50.946 86.522, 67.025 80.706, 86 73.964 C 117.579 62.744, 125.005 59.801, 120.950 60.111 C 120.153 60.172, 99.475 63.970, 75 68.551 M 241.428 83.500 C 244.627 130.867, 245.255 142.079, 244.735 142.598 C 244.400 142.934, 228.319 137.940, 209 131.500 C 189.681 125.060, 173.656 120.010, 173.389 120.278 C 173.122 120.545, 194.986 136.594, 221.975 155.942 C 256.103 180.407, 271.573 190.943, 272.774 190.539 C 273.723 190.219, 275.900 188.729, 277.611 187.229 L 280.721 184.500 261.889 132.500 C 251.531 103.900, 242.583 79.600, 242.005 78.500 C 241.214 76.994, 241.072 78.228, 241.428 83.500 M 106.641 169.592 C 98.506 206.217, 91.996 236.276, 92.175 236.390 C 92.354 236.504, 94.873 238.538, 97.774 240.912 L 103.049 245.227 161.274 212.471 C 230.507 173.523, 233.270 171.936, 232.756 171.423 C 232.537 171.204, 209.894 176.161, 182.439 182.439 C 154.984 188.717, 132.354 193.687, 132.151 193.484 C 131.947 193.281, 129.693 172.839, 127.142 148.057 C 124.590 123.276, 122.262 103, 121.967 103 C 121.673 103, 114.776 132.966, 106.641 169.592" stroke="none" fill="#f6a52b" fill-rule="evenodd"/></svg>