<svg xmlns="http://www.w3.org/2000/svg" xmlns:xlink="http://www.w3.org/1999/xlink" version="1.1" id="Layer_1" x="0px" y="0px" viewBox="0 0 314 270" xml:space="preserve" width="314"  height="270" > <g> <g> <defs> <path id="SVGID_1_" d="M129.1,6.3L90.4,48.2c-4.2,4.5,1,11.5,6.5,8.7l35.7-17.8c1.5-0.7,3.3-0.8,4.8-0.1l24.9,11.4 c5.5,2.5,10.4-4.2,6.5-8.7L137.3,6.4c-1.1-1.2-2.6-1.9-4.1-1.9C131.7,4.6,130.2,5.2,129.1,6.3"/> </defs> <clipPath id="SVGID_2_"> <use xlink:href="#SVGID_1_" overflow="visible"/> </clipPath> <linearGradient id="SVGID_3_" gradientUnits="userSpaceOnUse" x1="-365.8779" y1="1420.8754" x2="-359.2581" y2="1420.8754" gradientTransform="matrix(27.1152 14.325 14.325 -27.1152 -10356.918 43772.5898)"> <stop offset="0" style="stop-color:#ED5A28"/> <stop offset="0.1058" style="stop-color:#ED5A28"/> <stop offset="1" style="stop-color:#F7AC40"/> </linearGradient> <polygon clip-path="url(#SVGID_2_)" fill="url(#SVGID_3_)" points="105.1,-31.1 195.4,16.6 153.8,95.4 63.5,47.6 "/> </g> <g> <defs> <path id="SVGID_4_" d="M133.6,151.2l-23.3,107.5c-1.1,5,4.2,8.9,8.6,6.4l103.6-58.5c5.9-3.3,2.4-12.4-4.2-10.9l-60.5,13.8 c-3.4,0.8-6.8-1.6-7.2-5.1l-5.4-52.7c-0.4-3.5-3.1-5.3-5.9-5.3C136.8,146.6,134.3,148.1,133.6,151.2"/> </defs> <clipPath id="SVGID_5_"> <use xlink:href="#SVGID_4_" overflow="visible"/> </clipPath> <linearGradient id="SVGID_6_" gradientUnits="userSpaceOnUse" x1="-367.6529" y1="1419.7921" x2="-361.0331" y2="1419.7921" gradientTransform="matrix(29.6439 15.6609 15.6609 -29.6439 -11308.1523 47978.8984)"> <stop offset="0" style="stop-color:#ED5A28"/> <stop offset="0.1058" style="stop-color:#ED5A28"/> <stop offset="1" style="stop-color:#F7AC40"/> </linearGradient> <polygon clip-path="url(#SVGID_5_)" fill="url(#SVGID_6_)" points="135.3,97.3 278.5,173 202.5,316.9 59.2,241.2 "/> </g> <g> <defs> <path id="SVGID_7_" d="M100.2,78.1L9.9,95c-2.9,0.5-3.7,4.2-1.3,6l91.9,66.6c3,2.2,6.7-1.4,4.8-4.5l-39.1-61.5 c-1.1-1.8-0.3-4.2,1.7-4.9l34.1-12.2c3.6-1.3,2.5-6.5-1-6.5C100.7,78.1,100.5,78.1,100.2,78.1"/> </defs> <clipPath id="SVGID_8_"> <use xlink:href="#SVGID_7_" overflow="visible"/> </clipPath> <linearGradient id="SVGID_9_" gradientUnits="userSpaceOnUse" x1="-372.9142" y1="1425.1007" x2="-366.2944" y2="1425.1007" gradientTransform="matrix(36.0561 19.0485 19.0485 -36.0561 -13701.4492 58580.4141)"> <stop offset="0" style="stop-color:#ED5A28"/> <stop offset="0.1058" style="stop-color:#ED5A28"/> <stop offset="1" style="stop-color:#F7AC40"/> </linearGradient> <polygon clip-path="url(#SVGID_8_)" fill="url(#SVGID_9_)" points="28.3,36.4 145.1,98.1 85.2,211.5 -31.6,149.8 "/> </g> <g> <defs> <path id="SVGID_10_" d="M204.3,48.1L236,63.9c1.6,0.8,2.3,2.7,1.6,4.3l-11,26.8c-1.3,3.2,2.4,6.1,5.2,4.1l46.7-34.1 c2.3-1.7,1.6-5.4-1.2-6.1l-70.6-17.1c-0.3-0.1-0.6-0.1-0.9-0.1C202.4,41.6,201,46.4,204.3,48.1"/> </defs> <clipPath id="SVGID_11_"> <use xlink:href="#SVGID_10_" overflow="visible"/> </clipPath> <linearGradient id="SVGID_12_" gradientUnits="userSpaceOnUse" x1="-366.5991" y1="1423.0178" x2="-359.9793" y2="1423.0178" gradientTransform="matrix(28.9469 15.2927 15.2927 -28.9469 -11033.7139 46803.7148)"> <stop offset="0" style="stop-color:#ED5A28"/> <stop offset="0.1058" style="stop-color:#ED5A28"/> <stop offset="1" style="stop-color:#F7AC40"/> </linearGradient> <polygon clip-path="url(#SVGID_11_)" fill="url(#SVGID_12_)" points="218.4,8.7 305.3,54.6 263.4,134.1 176.4,88.1 "/> </g> <g> <defs> <path id="SVGID_13_" d="M269.1,122.3l2,29.1c0.2,3.3-2.9,5.7-6,4.7L224,142.6c-5-1.6-8.4,5.1-4.1,8.1l80.1,57.1 c3.7,2.6,8.5-1,7-5.3l-28.9-82c-0.7-2.1-2.5-3.1-4.3-3.1C271.4,117.4,268.9,119.2,269.1,122.3"/> </defs> <clipPath id="SVGID_14_"> <use xlink:href="#SVGID_13_" overflow="visible"/> </clipPath> <linearGradient id="SVGID_15_" gradientUnits="userSpaceOnUse" x1="-368.2845" y1="1422.9669" x2="-361.6646" y2="1422.9669" gradientTransform="matrix(31.1208 16.4412 16.4412 -31.1208 -11848.1152 50409.6914)"> <stop offset="0" style="stop-color:#ED5A28"/> <stop offset="0.1058" style="stop-color:#ED5A28"/> <stop offset="1" style="stop-color:#F7AC40"/> </linearGradient> <polygon clip-path="url(#SVGID_14_)" fill="url(#SVGID_15_)" points="235.8,79 346.8,137.7 288.2,248.7 177.2,190.1 "/> </g> </g> </svg>