<svg xmlns="http://www.w3.org/2000/svg" width="310" height="310" viewBox="0 0 310 310" version="1.1"><path d="" stroke="none" fill="#30d4cc" fill-rule="evenodd"/><path d="M 146.691 49.501 C 128.527 54.494, 115.505 68.560, 111.511 87.500 C 107.796 105.114, 110.083 113.913, 124.719 138.314 C 128.286 144.262, 131.011 149.323, 130.773 149.560 C 130.536 149.797, 118.902 149.051, 104.921 147.901 C 75.866 145.512, 66.354 145.825, 55.304 149.534 C 45.718 152.752, 38.830 157.205, 32.188 164.480 C 22.263 175.349, 17.385 188.422, 18.244 201.847 C 18.905 212.159, 21.946 219.685, 28.232 226.564 C 37.485 236.688, 49.409 240.748, 66.811 239.701 C 86.444 238.519, 95.989 234.258, 130.601 211.222 C 171.961 183.695, 187.207 175.053, 202.718 170.343 C 210.299 168.041, 213.346 167.668, 225 167.616 C 236.511 167.564, 239.477 167.889, 245.135 169.821 C 255.955 173.516, 263.251 179.624, 267.987 188.952 C 276.921 206.551, 277.071 221.155, 268.509 239.687 C 264.411 248.557, 264.341 249, 267.050 249 C 270.207 249, 274.101 246.582, 278.596 241.830 C 284.093 236.019, 286.397 231.897, 289.038 223.147 C 292.046 213.180, 291.479 199.700, 287.627 189.631 C 281.446 173.469, 269.103 159.076, 255.954 152.692 C 228.031 139.138, 192.219 146.376, 157.408 172.608 C 150.309 177.958, 140.450 185.096, 135.500 188.469 C 130.550 191.842, 120.829 198.504, 113.899 203.272 C 80.402 226.320, 55.012 231.108, 40.936 217.031 C 29.478 205.573, 31.217 186.489, 44.885 173.704 C 58.265 161.189, 77.003 158.282, 108.500 163.835 C 133.093 168.170, 138.668 167.752, 143.836 161.183 C 149.879 153.501, 149.313 150.249, 139.758 137.763 C 124.783 118.195, 121.494 110.629, 122.256 97.500 C 122.891 86.562, 125.816 79.393, 132.657 72.004 C 140.195 63.862, 146.834 60.778, 158.049 60.209 C 162.750 59.970, 169.149 60.304, 172.268 60.952 C 185.754 63.752, 197.706 73.309, 202.031 84.753 C 205.079 92.820, 205.682 107.389, 203.531 121 C 201.017 136.900, 200.544 143, 201.826 143 C 203.574 143, 209.952 136.993, 211.612 133.782 C 215.808 125.669, 217.425 99.941, 214.461 88.460 C 209.394 68.830, 195.361 54.455, 176.458 49.531 C 169.311 47.670, 153.412 47.653, 146.691 49.501 M 178.455 117.455 C 175.455 120.454, 175.323 123.870, 178.073 127.365 C 182.425 132.898, 191.400 129.622, 191.400 122.500 C 191.400 115.519, 183.478 112.431, 178.455 117.455 M 221.530 116.967 C 217.565 121.349, 220.620 128, 226.598 128 C 232.345 128, 235.104 121.104, 231 117 C 228.448 114.448, 223.824 114.432, 221.530 116.967 M 75 171.121 C 60.771 173.417, 49.724 179.995, 45.878 188.461 C 43.133 194.505, 43.467 198.324, 47.104 202.465 C 48.811 204.409, 50.571 206, 51.016 206 C 51.460 206, 52.135 204.088, 52.516 201.750 C 54.950 186.782, 65.963 182.302, 97.548 183.431 L 114.595 184.041 119.298 180.926 C 121.884 179.213, 124 177.453, 124 177.015 C 124 175.891, 109.979 172.307, 100.678 171.054 C 91.636 169.836, 82.825 169.859, 75 171.121 M 213.831 178.023 C 197.418 180.793, 189.826 184.716, 149 211.523 C 130.025 223.982, 111.666 235.762, 108.202 237.701 C 94.445 245.401, 81.064 249.800, 66.350 251.461 C 60.275 252.147, 45.103 250.593, 36.183 248.373 C 32.709 247.507, 29.599 247.067, 29.272 247.395 C 28.945 247.722, 29.987 249.144, 31.588 250.556 C 45.233 262.580, 75.562 264.979, 99.825 255.953 C 109.867 252.217, 119.516 246.836, 133 237.450 C 195.087 194.236, 207.312 188.173, 230.379 189.149 C 241.052 189.601, 247.068 192.913, 250.794 200.387 C 253.542 205.899, 254.150 216.312, 252.147 223.559 C 248.443 236.965, 235.807 245.620, 218.292 246.748 C 208.411 247.384, 201.720 246.177, 185 240.742 C 174.604 237.363, 171.069 236.663, 164 236.589 C 157.186 236.518, 154.828 236.897, 152.113 238.500 C 144.428 243.038, 142.778 253.732, 148.917 259.218 C 153.469 263.284, 154.664 262.849, 155.234 256.917 C 156.212 246.741, 163.208 244.940, 178.500 250.929 C 202.935 260.498, 222.980 261.253, 239.971 253.243 C 268.459 239.813, 273.486 197.090, 248.313 182.338 C 240.118 177.535, 226.684 175.854, 213.831 178.023 M 234.992 216.525 C 233.530 220.955, 229.660 225.607, 225.760 227.624 C 221.446 229.855, 210.906 229.574, 202.692 227.009 C 195.155 224.656, 190.914 225.227, 187.445 229.061 C 185.147 231.600, 185.791 232.155, 195 235.572 C 201.597 238.020, 203.944 238.364, 214.500 238.427 C 225.115 238.492, 227.043 238.233, 231.206 236.182 C 241.236 231.242, 244.594 223.435, 239.750 216.319 C 238.512 214.501, 237.197 213.011, 236.828 213.007 C 236.458 213.003, 235.632 214.586, 234.992 216.525" stroke="none" fill="#2cd4cc" fill-rule="evenodd"/></svg>