<svg xmlns="http://www.w3.org/2000/svg" width="256" height="256" viewBox="0 0 256 256" version="1.1"><path d="M 56 51.500 L 56 56 60.500 56 L 65 56 65 51.500 L 65 47 60.500 47 L 56 47 56 51.500 M 181.181 48.506 C 166.368 51.190, 158.269 57.573, 156.035 68.324 C 155.367 71.537, 154.872 93.158, 154.730 125.325 L 154.500 177.151 157.500 176.575 C 164.175 175.293, 175.479 168.698, 181.500 162.573 C 188.533 155.418, 192.815 147.807, 196.983 135.051 L 200 125.820 200 86.410 L 200 47 194.250 47.090 C 191.088 47.140, 185.207 47.777, 181.181 48.506 M 83 60.500 L 83 65 78.500 65 L 74 65 74 69.500 L 74 74 78.500 74 L 83 74 83 69.500 L 83 65 87.500 65 L 92 65 92 60.500 L 92 56 87.500 56 L 83 56 83 60.500 M 92.195 73.750 L 92.500 78.500 96.750 78.807 L 101 79.115 101 74.057 L 101 69 96.445 69 L 91.890 69 92.195 73.750 M 56.225 115.250 C 56.567 156.536, 56.682 158.795, 58.765 165 C 61.978 174.571, 67.656 183.432, 75.016 190.364 C 82.816 197.709, 90.605 202.026, 102.027 205.333 C 110.992 207.929, 126.005 209.830, 125.993 208.367 C 125.989 207.890, 124.340 206.379, 122.328 205.008 C 117.624 201.803, 109.649 192.214, 106.469 185.938 C 101.539 176.210, 101.031 171.299, 101.015 133.250 L 101 98 96.524 98 L 92.048 98 91.774 114.750 L 91.500 131.500 87.500 131.500 L 83.500 131.500 83.214 121.750 L 82.928 112 78.464 112 L 74 112 74 116 L 74 120 69.500 120 L 65 120 65 96 L 65 72 60.433 72 L 55.867 72 56.225 115.250 M 83.714 80.619 C 83.321 81.012, 83 83.058, 83 85.167 L 83 89 87.557 89 L 92.115 89 91.807 84.750 C 91.513 80.675, 91.354 80.488, 87.964 80.202 C 86.020 80.039, 84.107 80.226, 83.714 80.619 M 74 98.500 L 74 103 78.500 103 L 83 103 83 98.500 L 83 94 78.500 94 L 74 94 74 98.500 M 199.189 140.134 C 199.085 141.033, 197.123 145.533, 194.828 150.134 C 186.828 166.178, 172.974 176.770, 154.965 180.610 C 143.659 183.021, 125.762 182.053, 116.500 178.531 C 105.001 174.158, 105.776 174.115, 107.509 179.025 C 110.888 188.603, 117.943 197.499, 127.483 204.214 C 134.349 209.047, 134.618 209.139, 140 208.520 C 170.577 204.998, 193.501 185.347, 198.569 158.314 C 199.413 153.812, 199.940 147.512, 199.741 144.314 C 199.541 141.116, 199.293 139.235, 199.189 140.134" stroke="none" fill="#f8fafb" fill-rule="evenodd"/><path d="M 26.500 1.060 C 24.850 1.544, 20.575 3.866, 17 6.220 C 9.983 10.840, 2.853 20.154, 0.956 27.177 C 0.320 29.529, 0.059 66.671, 0.231 130.199 L 0.500 229.543 4.753 236.701 C 9.499 244.690, 13.464 248.388, 21.826 252.625 L 27.500 255.500 128 255.500 L 228.500 255.500 234.500 252.500 C 242.242 248.629, 248.771 242.041, 252.339 234.500 C 253.900 231.200, 255.588 227.719, 256.089 226.764 C 257.252 224.547, 257.311 27.690, 256.148 28.408 C 255.680 28.698, 254.775 27.262, 254.136 25.217 C 252.188 18.977, 245.885 10.760, 240 6.787 C 229.298 -0.437, 236.461 -0.010, 127.572 0.090 C 73.632 0.140, 28.150 0.576, 26.500 1.060 M 0.481 128 C 0.481 182.725, 0.602 205.112, 0.750 177.750 C 0.898 150.387, 0.898 105.612, 0.750 78.250 C 0.602 50.887, 0.481 73.275, 0.481 128 M 56 51.500 L 56 56 60.500 56 L 65 56 65 51.500 L 65 47 60.500 47 L 56 47 56 51.500 M 181.181 48.506 C 166.368 51.190, 158.269 57.573, 156.035 68.324 C 155.367 71.537, 154.872 93.158, 154.730 125.325 L 154.500 177.151 157.500 176.575 C 164.175 175.293, 175.479 168.698, 181.500 162.573 C 188.533 155.418, 192.815 147.807, 196.983 135.051 L 200 125.820 200 86.410 L 200 47 194.250 47.090 C 191.088 47.140, 185.207 47.777, 181.181 48.506 M 83 60.500 L 83 65 78.500 65 L 74 65 74 69.500 L 74 74 78.500 74 L 83 74 83 69.500 L 83 65 87.500 65 L 92 65 92 60.500 L 92 56 87.500 56 L 83 56 83 60.500 M 92.195 73.750 L 92.500 78.500 96.750 78.807 L 101 79.115 101 74.057 L 101 69 96.445 69 L 91.890 69 92.195 73.750 M 56.225 115.250 C 56.567 156.536, 56.682 158.795, 58.765 165 C 61.978 174.571, 67.656 183.432, 75.016 190.364 C 82.816 197.709, 90.605 202.026, 102.027 205.333 C 110.992 207.929, 126.005 209.830, 125.993 208.367 C 125.989 207.890, 124.340 206.379, 122.328 205.008 C 117.624 201.803, 109.649 192.214, 106.469 185.938 C 101.539 176.210, 101.031 171.299, 101.015 133.250 L 101 98 96.524 98 L 92.048 98 91.774 114.750 L 91.500 131.500 87.500 131.500 L 83.500 131.500 83.214 121.750 L 82.928 112 78.464 112 L 74 112 74 116 L 74 120 69.500 120 L 65 120 65 96 L 65 72 60.433 72 L 55.867 72 56.225 115.250 M 83.714 80.619 C 83.321 81.012, 83 83.058, 83 85.167 L 83 89 87.557 89 L 92.115 89 91.807 84.750 C 91.513 80.675, 91.354 80.488, 87.964 80.202 C 86.020 80.039, 84.107 80.226, 83.714 80.619 M 74 98.500 L 74 103 78.500 103 L 83 103 83 98.500 L 83 94 78.500 94 L 74 94 74 98.500 M 199.189 140.134 C 199.085 141.033, 197.123 145.533, 194.828 150.134 C 186.828 166.178, 172.974 176.770, 154.965 180.610 C 143.659 183.021, 125.762 182.053, 116.500 178.531 C 105.001 174.158, 105.776 174.115, 107.509 179.025 C 110.888 188.603, 117.943 197.499, 127.483 204.214 C 134.349 209.047, 134.618 209.139, 140 208.520 C 170.577 204.998, 193.501 185.347, 198.569 158.314 C 199.413 153.812, 199.940 147.512, 199.741 144.314 C 199.541 141.116, 199.293 139.235, 199.189 140.134" stroke="none" fill="#349cdc" fill-rule="evenodd"/></svg>