<svg xmlns="http://www.w3.org/2000/svg" width="362" height="361" viewBox="0 0 362 361" version="1.1"><path d="M 0.110 21.250 C 0.188 36.383, 0.470 41.205, 1.091 38 C 2.440 31.042, 8.386 20.012, 13.695 14.620 C 19.628 8.594, 24.128 5.546, 31.667 2.446 L 37.500 0.047 18.750 0.024 L 0 0 0.110 21.250 M 232.614 0.816 C 232.337 1.264, 204.177 67.693, 170.037 148.436 C 135.897 229.178, 107.619 295.859, 107.195 296.615 C 106.704 297.494, 87.315 255.395, 53.463 179.945 L 0.500 61.900 0.242 118.462 L -0.017 175.023 42.589 266.262 C 66.022 316.443, 85.423 358.063, 85.704 358.750 C 86.103 359.728, 81.419 360, 64.212 360 C 40.062 360, 34.820 359.105, 24.732 353.262 C 13.703 346.873, 3.375 332.778, 1.091 321 C 0.476 317.824, 0.187 323.045, 0.110 338.753 L -0 361.005 181.135 360.753 L 362.271 360.500 362.573 231 C 362.739 159.775, 362.608 78.663, 362.281 50.750 L 361.688 0 343.094 0.024 L 324.500 0.047 330.024 2.320 C 344.316 8.200, 354.645 19.472, 359.057 34 C 360.925 40.151, 361.016 43.154, 360.765 90 L 360.500 139.500 328.575 69.750 L 296.649 0 264.884 0 C 247.413 0, 232.891 0.367, 232.614 0.816 M 263.619 41.096 C 258.053 54.552, 135 359.263, 135 359.587 C 135 359.814, 176.305 360, 226.790 360 C 326.925 360, 324.479 360.130, 335.279 354.251 C 346.368 348.216, 355.277 337.319, 359.015 325.217 C 360.834 319.328, 361 315.878, 361 284.062 L 361 249.335 313.475 143.976 C 287.336 86.028, 265.742 38.409, 265.488 38.155 C 265.234 37.901, 264.393 39.225, 263.619 41.096 M 0.468 119 C 0.468 150.625, 0.595 163.562, 0.749 147.750 C 0.904 131.937, 0.904 106.062, 0.749 90.250 C 0.595 74.437, 0.468 87.375, 0.468 119 M 0.428 339 C 0.428 351.375, 0.571 356.438, 0.747 350.250 C 0.922 344.063, 0.922 333.938, 0.747 327.750 C 0.571 321.563, 0.428 326.625, 0.428 339" stroke="none" fill="#fafbfa" fill-rule="evenodd"/><path d="M 31.667 2.446 C 19.809 7.321, 10.833 15.555, 5.444 26.500 C 1.364 34.786, -0 41.312, -0 52.538 L -0 60.803 53.214 179.395 C 87.177 255.085, 106.706 297.490, 107.196 296.614 C 107.619 295.858, 135.897 229.178, 170.037 148.436 C 204.177 67.693, 232.337 1.264, 232.614 0.816 C 232.891 0.367, 189.104 0.011, 135.309 0.024 L 37.500 0.047 31.667 2.446 M 297.248 1.176 C 297.534 1.904, 311.882 33.325, 329.134 70.999 L 360.500 139.498 360.765 89.999 C 361.017 43.102, 360.926 40.156, 359.050 33.958 C 355.096 20.900, 345.680 9.925, 333.121 3.735 C 326.745 0.592, 326.131 0.491, 311.643 0.176 C 299.575 -0.086, 296.828 0.104, 297.248 1.176 M 263.619 41.096 C 258.053 54.552, 135 359.263, 135 359.587 C 135 359.814, 176.305 360, 226.790 360 C 326.925 360, 324.479 360.130, 335.279 354.251 C 346.368 348.216, 355.277 337.319, 359.015 325.217 C 360.834 319.328, 361 315.878, 361 284.062 L 361 249.335 313.475 143.976 C 287.336 86.028, 265.742 38.409, 265.488 38.155 C 265.234 37.901, 264.393 39.225, 263.619 41.096 M 0.074 245.114 C 0.029 287.543, 0.390 316.830, 0.999 320.114 C 3.333 332.704, 13.319 346.650, 24.732 353.262 C 34.820 359.105, 40.062 360, 64.212 360 C 81.419 360, 86.103 359.728, 85.704 358.750 C 85.423 358.063, 67.318 319.250, 45.469 272.500 C 23.621 225.750, 4.485 184.800, 2.946 181.500 L 0.148 175.500 0.074 245.114" stroke="none" fill="#0c7c14" fill-rule="evenodd"/></svg>