<svg xmlns="http://www.w3.org/2000/svg" width="80" height="68" viewBox="0 0 80 68" version="1.1"><path d="M -0 0.632 C -0 0.980, 1.012 2.892, 2.250 4.882 L 4.500 8.500 4.825 5.666 C 5.274 1.739, 4.417 -0, 2.031 -0 C 0.914 -0, -0 0.284, -0 0.632 M 9 8.052 C 9 14.568, 9.429 16.855, 11.250 20.044 C 12.488 22.211, 13.838 23.988, 14.250 23.992 C 14.662 23.997, 15 20.680, 15 16.622 C 15 11.285, 14.585 8.901, 13.500 8 C 12.675 7.315, 12 5.235, 12 3.378 C 12 1.042, 11.537 0, 10.500 0 C 9.291 0, 9 1.561, 9 8.052 M 18 15.662 C 18 30.969, 18.062 31.428, 20.750 35.912 L 23.500 40.500 23.783 28.583 C 23.956 21.329, 23.662 16.262, 23.033 15.633 C 22.465 15.065, 22 11.315, 22 7.300 C 22 0.667, 21.817 0, 20 0 C 18.085 0, 18 0.667, 18 15.662 M 28.031 24.250 C 28.062 48.246, 28.088 48.542, 30.526 52.500 L 32.990 56.500 32.995 39.809 C 32.998 29.755, 32.602 22.872, 32 22.500 C 31.432 22.149, 31 17.156, 31 10.941 C 31 1.882, 30.742 0, 29.500 0 C 28.207 0, 28.004 3.347, 28.031 24.250 M 40 14.378 C 40 25.938, 39.706 28.999, 38.500 30 C 36.301 31.825, 36.301 62.713, 38.500 65.559 C 39.985 67.480, 40.015 67.480, 41.500 65.559 C 43.753 62.643, 43.753 0, 41.500 0 C 40.236 0, 40 2.264, 40 14.378 M 49 10.941 C 49 17.156, 48.568 22.149, 48 22.500 C 47.398 22.872, 47.002 29.755, 47.005 39.809 L 47.010 56.500 49.474 52.500 C 51.912 48.542, 51.938 48.246, 51.969 24.250 C 51.996 3.347, 51.793 0, 50.500 0 C 49.258 0, 49 1.882, 49 10.941 M 58 7.300 C 58 11.315, 57.535 15.065, 56.967 15.633 C 56.338 16.262, 56.044 21.329, 56.217 28.583 L 56.500 40.500 59.250 35.912 C 61.938 31.428, 62 30.969, 62 15.662 C 62 0.667, 61.915 0, 60 0 C 58.183 0, 58 0.667, 58 7.300 M 68 3.378 C 68 5.235, 67.325 7.315, 66.500 8 C 65.415 8.901, 65 11.285, 65 16.622 C 65 20.680, 65.338 23.997, 65.750 23.992 C 66.162 23.988, 67.513 22.211, 68.750 20.044 C 70.571 16.855, 71 14.568, 71 8.052 C 71 1.561, 70.709 0, 69.500 0 C 68.463 0, 68 1.042, 68 3.378 M 75.394 1.416 C 75.095 2.194, 74.997 4.107, 75.175 5.666 L 75.500 8.500 77.750 4.882 C 78.987 2.892, 80 0.980, 80 0.632 C 80 -0.647, 75.919 0.047, 75.394 1.416" stroke="none" fill="#8804fc" fill-rule="evenodd"/><path d="" stroke="none" fill="#8404fc" fill-rule="evenodd"/></svg>