<svg xmlns="http://www.w3.org/2000/svg" version="1.1" viewBox="52.01 80.92 147.88 88.79"><path d="M 52.009 82.250 C 52.014 82.938, 57.797 102.400, 64.859 125.500 L 77.700 167.500 85.017 167.500 L 92.335 167.500 101.889 137.772 C 107.144 121.421, 111.710 108.371, 112.035 108.772 C 112.360 109.172, 116.850 122.662, 122.012 138.750 L 131.398 168 138.511 168 L 145.625 168 158.485 125.750 C 165.559 102.513, 171.548 82.919, 171.796 82.209 C 172.146 81.205, 170.283 80.983, 163.389 81.209 L 154.532 81.500 146.064 109.250 C 141.407 124.513, 137.349 137, 137.048 136.999 C 136.747 136.999, 132.669 124.511, 127.987 109.249 L 119.474 81.500 111.916 81.211 L 104.357 80.922 95.428 109.803 L 86.500 138.684 79.733 116.592 C 76.011 104.441, 72.054 91.463, 70.941 87.750 L 68.915 81 60.458 81 C 54.353 81, 52.003 81.348, 52.009 82.250" stroke="none" fill="#040404" fill-rule="evenodd"/><path d="M 178.841 143.524 C 172.555 146.939, 170.136 156.431, 173.956 162.696 C 179.552 171.874, 191.731 172.082, 197.730 163.102 C 201.847 156.940, 199.863 147.932, 193.526 144.016 C 189.676 141.637, 182.743 141.405, 178.841 143.524" stroke="none" fill="#047cfc" fill-rule="evenodd"/></svg>