<svg xmlns="http://www.w3.org/2000/svg" width="400" height="400" viewBox="0 0 400 400" version="1.1"><path d="M 118 79.074 C 76.486 82.803, 37.631 109.729, 19.573 147.283 C 2.839 182.084, 2.774 221.823, 19.397 254.750 C 31.706 279.130, 53.384 299.991, 78.444 311.570 C 106.278 324.430, 148.457 324.452, 178.132 311.622 C 194.239 304.658, 195.034 303.972, 247.758 251.534 C 275.400 224.041, 297.900 201.232, 297.758 200.845 C 297.616 200.459, 285.846 187.750, 271.603 172.604 C 256.469 156.510, 245.247 145.346, 244.603 145.743 C 242.345 147.132, 208 177.263, 208 177.854 C 208 178.192, 212.980 183.462, 219.066 189.566 L 230.132 200.663 217.246 214.582 C 197.895 235.483, 171.155 259.986, 161.962 265.242 C 150.773 271.638, 134.608 274.646, 120.750 272.911 C 102.737 270.656, 88.317 263.540, 75.380 250.521 C 68.823 243.922, 66.366 240.537, 62.608 232.925 C 52.002 211.439, 52.312 189.046, 63.531 166.256 C 70.846 151.395, 86.921 136.561, 101.764 130.974 C 109.462 128.076, 119.340 126.039, 125.792 126.017 C 131.434 125.999, 145.267 128.537, 148.264 130.141 C 149.777 130.951, 152.953 128.259, 168.033 113.384 C 177.915 103.637, 186 95.356, 186 94.982 C 186 94.608, 181.490 92.180, 175.978 89.588 C 164.970 84.410, 150.632 80.359, 140.219 79.486 C 136.524 79.176, 131.925 78.785, 130 78.616 C 128.075 78.448, 122.675 78.654, 118 79.074 M 260.424 79.238 C 242.382 80.441, 223.538 86.184, 208.181 95.160 C 204.140 97.522, 187.995 112.906, 152.242 148.466 C 124.600 175.959, 102.100 198.758, 102.242 199.132 C 102.384 199.506, 114.152 212.216, 128.393 227.377 C 143.422 243.377, 154.750 254.663, 155.393 254.278 C 156.633 253.533, 186.114 228.026, 189.980 224.351 L 192.461 221.994 181.165 210.665 L 169.868 199.337 182.754 185.418 C 202.105 164.517, 228.845 140.014, 238.038 134.758 C 249.227 128.362, 265.392 125.354, 279.250 127.089 C 297.263 129.344, 311.683 136.460, 324.620 149.479 C 331.176 156.077, 333.635 159.464, 337.393 167.075 C 343.539 179.524, 345.342 188.273, 344.694 202.500 C 343.675 224.839, 334.184 243.741, 316.984 257.690 C 300.393 271.144, 280.958 276.401, 262.009 272.562 C 257.387 271.625, 252.779 270.417, 251.769 269.876 C 250.212 269.043, 247.202 271.588, 231.967 286.616 C 222.085 296.363, 214 304.625, 214 304.976 C 214 305.328, 216.933 307.075, 220.518 308.859 C 253.256 325.153, 291.365 325.326, 323.402 309.327 C 342.360 299.860, 360.681 284.266, 371.039 268.781 C 409.858 210.745, 395.940 136.357, 339.192 98.579 C 315.186 82.598, 292.733 77.084, 260.424 79.238" stroke="none" fill="#36455d" fill-rule="evenodd"/></svg>