<?xml version="1.0" encoding="UTF-8"?>
<svg xmlns="http://www.w3.org/2000/svg" xmlns:xlink="http://www.w3.org/1999/xlink" width="131px" height="55px" viewBox="0 0 131 55" version="1.1">
<g id="surface1">
<path style=" stroke:none;fill-rule:nonzero;fill:rgb(43.137255%,76.078431%,14.117647%);fill-opacity:1;" d="M 0 42.457031 L 0 1.929688 C 0 1.0625 0.167969 0.746094 0.507812 0.410156 C 0.808594 0.105469 1.082031 0 1.921875 0 L 122.535156 0 C 124.175781 0.8125 124.625 2.175781 124.621094 3.941406 C 124.574219 16.222656 124.597656 28.503906 124.597656 40.785156 C 124.597656 43.558594 123.601562 44.546875 120.820312 44.546875 C 81.816406 44.546875 42.816406 44.554688 3.8125 44.574219 C 2.054688 44.578125 0.769531 44.058594 0 42.457031 Z M 44.324219 40.296875 L 80.234375 40.296875 L 80.234375 4.246094 L 44.324219 4.246094 Z M 120.351562 40.328125 L 120.351562 4.246094 L 84.519531 4.246094 L 84.519531 40.332031 Z M 40.046875 40.328125 L 40.046875 4.207031 L 4.195312 4.207031 L 4.195312 40.332031 Z M 40.046875 40.328125 "/>
<path style=" stroke:none;fill-rule:nonzero;fill:rgb(43.137255%,76.078431%,14.117647%);fill-opacity:1;" d="M 102.929688 54.761719 L 101.761719 54.761719 L 101.761719 49.015625 L 105.09375 52.105469 L 105.09375 49.25 L 106.316406 49.25 L 106.316406 54.726562 L 106.125 54.902344 L 102.921875 51.746094 Z M 102.929688 54.761719 "/>
<path style=" stroke:none;fill-rule:nonzero;fill:rgb(43.137255%,76.078431%,14.117647%);fill-opacity:1;" d="M 28.046875 49.253906 L 28.046875 54.71875 L 27.824219 54.914062 L 24.652344 51.71875 L 24.652344 54.75 L 23.46875 54.75 L 23.46875 49.007812 L 26.796875 52.09375 L 26.796875 49.253906 Z M 28.046875 49.253906 "/>
<path style=" stroke:none;fill-rule:nonzero;fill:rgb(43.137255%,76.078431%,14.117647%);fill-opacity:1;" d="M 10.277344 52.046875 C 10.25 53.574219 9 54.796875 7.476562 54.78125 C 5.949219 54.765625 4.722656 53.519531 4.726562 51.992188 C 4.730469 50.460938 5.960938 49.21875 7.484375 49.210938 C 8.230469 49.210938 8.949219 49.507812 9.472656 50.042969 C 9.996094 50.574219 10.289062 51.296875 10.277344 52.046875 Z M 7.574219 50.464844 C 6.742188 50.453125 6.042969 51.082031 5.964844 51.914062 C 5.921875 52.765625 6.582031 53.488281 7.429688 53.527344 C 8.28125 53.570312 9 52.910156 9.042969 52.058594 C 9.039062 51.222656 8.402344 50.53125 7.574219 50.464844 Z M 7.574219 50.464844 "/>
<path style=" stroke:none;fill-rule:nonzero;fill:rgb(43.137255%,76.078431%,14.117647%);fill-opacity:1;" d="M 113.234375 52.074219 L 113.234375 54.183594 C 111.695312 55.171875 109.855469 54.953125 108.875 53.699219 C 108 52.542969 108.160156 50.910156 109.242188 49.953125 C 110.378906 48.933594 111.992188 48.96875 113.195312 50.097656 L 112.558594 50.8125 C 111.210938 50.320312 110.410156 50.367188 110.011719 51.15625 C 109.773438 51.621094 109.707031 52.390625 109.929688 52.824219 C 110.316406 53.570312 111.113281 53.710938 112.085938 53.367188 C 112.085938 53.253906 112.050781 52.9375 112.050781 52.9375 C 111.84375 52.949219 111.632812 52.941406 111.421875 52.917969 L 111.421875 52.074219 Z M 113.234375 52.074219 "/>
<path style=" stroke:none;fill-rule:nonzero;fill:rgb(43.137255%,76.078431%,14.117647%);fill-opacity:1;" d="M 48.40625 52.527344 C 48.75 53.269531 49.078125 53.984375 49.445312 54.769531 L 48.183594 54.769531 L 46.9375 52.433594 L 46.617188 52.546875 L 46.617188 54.753906 L 45.429688 54.808594 L 45.429688 49.210938 L 47.632812 49.210938 C 48.453125 49.210938 49.082031 49.558594 49.363281 50.328125 C 49.648438 51.097656 49.382812 51.769531 48.707031 52.257812 C 48.613281 52.335938 48.527344 52.421875 48.40625 52.527344 Z M 46.582031 51.582031 C 47.230469 51.371094 48.019531 51.898438 48.3125 50.835938 C 47.894531 50.074219 47.230469 50.371094 46.582031 50.386719 Z M 46.582031 51.582031 "/>
<path style=" stroke:none;fill-rule:nonzero;fill:rgb(43.137255%,76.078431%,14.117647%);fill-opacity:1;" d="M 89.835938 52.734375 L 89.835938 54.75 L 88.722656 54.820312 L 88.722656 49.277344 L 89.820312 49.277344 L 89.820312 51.480469 L 92.105469 51.480469 L 92.105469 49.257812 L 93.222656 49.257812 L 93.222656 54.738281 L 92.160156 54.738281 C 92.128906 54.085938 92.097656 53.429688 92.0625 52.734375 Z M 89.835938 52.734375 "/>
<path style=" stroke:none;fill-rule:nonzero;fill:rgb(43.137255%,76.078431%,14.117647%);fill-opacity:1;" d="M 39.433594 52.734375 L 39.433594 54.75 L 38.324219 54.820312 L 38.324219 49.277344 L 39.421875 49.277344 L 39.421875 51.480469 L 41.707031 51.480469 L 41.707031 49.257812 L 42.824219 49.257812 L 42.824219 54.738281 L 41.761719 54.738281 C 41.730469 54.085938 41.695312 53.429688 41.664062 52.734375 Z M 39.433594 52.734375 "/>
<path style=" stroke:none;fill-rule:nonzero;fill:rgb(43.137255%,76.078431%,14.117647%);fill-opacity:1;" d="M 80.589844 54.761719 L 79.210938 54.761719 C 78.910156 54.300781 78.578125 53.796875 78.167969 53.175781 L 77.070312 54.777344 L 75.703125 54.777344 C 76.292969 53.796875 76.824219 52.902344 77.394531 51.941406 C 76.882812 51.097656 76.363281 50.234375 75.78125 49.269531 L 77.1875 49.269531 L 78.164062 50.703125 L 79.105469 49.253906 L 80.535156 49.253906 L 78.902344 51.9375 C 79.433594 52.824219 79.976562 53.738281 80.589844 54.761719 Z M 80.589844 54.761719 "/>
<path style=" stroke:none;fill-rule:nonzero;fill:rgb(43.137255%,76.078431%,14.117647%);fill-opacity:1;" d="M 19.058594 50.34375 L 19.058594 51.488281 L 20.898438 51.488281 L 20.898438 52.65625 L 19.113281 52.65625 L 19.03125 53.640625 L 21.304688 53.640625 L 21.355469 54.738281 L 17.925781 54.738281 L 17.925781 49.261719 L 21.304688 49.261719 L 21.304688 50.34375 Z M 19.058594 50.34375 "/>
<path style=" stroke:none;fill-rule:nonzero;fill:rgb(43.137255%,76.078431%,14.117647%);fill-opacity:1;" d="M 118.835938 49.269531 C 118.855469 49.613281 118.867188 49.917969 118.886719 50.335938 L 116.625 50.335938 L 116.625 51.511719 L 118.421875 51.511719 L 118.421875 52.648438 L 116.648438 52.648438 C 116.613281 52.984375 116.589844 53.253906 116.550781 53.632812 L 118.828125 53.632812 C 118.851562 54.039062 118.867188 54.347656 118.890625 54.734375 L 115.457031 54.734375 L 115.457031 49.269531 Z M 118.835938 49.269531 "/>
<path style=" stroke:none;fill-rule:nonzero;fill:rgb(43.137255%,76.078431%,14.117647%);fill-opacity:1;" d="M 52.738281 52.632812 L 52.738281 53.648438 L 54.96875 53.648438 L 54.96875 54.746094 L 51.585938 54.746094 L 51.585938 49.257812 L 54.964844 49.257812 C 54.980469 49.585938 54.996094 49.914062 55.019531 50.351562 L 52.75 50.351562 L 52.75 51.5 L 54.570312 51.5 C 54.597656 51.90625 54.617188 52.214844 54.644531 52.632812 Z M 52.738281 52.632812 "/>
<path style=" stroke:none;fill-rule:nonzero;fill:rgb(43.137255%,76.078431%,14.117647%);fill-opacity:1;" d="M 71.945312 53.675781 L 74.210938 53.675781 L 74.210938 54.742188 L 70.824219 54.742188 L 70.824219 49.265625 L 74.207031 49.265625 L 74.207031 50.347656 L 71.992188 50.347656 L 71.992188 51.492188 L 73.800781 51.492188 L 73.800781 52.660156 L 72.003906 52.660156 C 71.984375 53 71.964844 53.261719 71.945312 53.675781 Z M 71.945312 53.675781 "/>
<path style=" stroke:none;fill-rule:nonzero;fill:rgb(43.137255%,76.078431%,14.117647%);fill-opacity:1;" d="M 86.578125 53.886719 C 85.203125 55.105469 83.585938 55.0625 82.515625 53.90625 C 81.476562 52.800781 81.519531 51.0625 82.613281 50.011719 C 83.722656 48.941406 85.332031 48.945312 86.503906 50.054688 C 86.300781 50.285156 86.09375 50.511719 85.855469 50.78125 C 84.96875 50.320312 84.085938 50.066406 83.398438 51.046875 C 82.9375 51.628906 82.976562 52.460938 83.484375 53 C 84.144531 53.773438 84.941406 53.640625 85.890625 53.105469 Z M 86.578125 53.886719 "/>
<path style=" stroke:none;fill-rule:nonzero;fill:rgb(43.137255%,76.078431%,14.117647%);fill-opacity:1;" d="M 58.945312 48.941406 L 61.621094 54.746094 L 60.421875 54.746094 L 59.953125 54.070312 L 57.933594 54.070312 L 57.464844 54.773438 L 56.265625 54.773438 C 57.148438 52.851562 57.988281 51.015625 58.945312 48.941406 Z M 59.523438 52.917969 L 58.945312 51.585938 L 58.386719 52.917969 Z M 59.523438 52.917969 "/>
<path style=" stroke:none;fill-rule:nonzero;fill:rgb(43.137255%,76.078431%,14.117647%);fill-opacity:1;" d="M 98.875 54.734375 C 98.742188 54.53125 98.585938 54.296875 98.425781 54.054688 L 96.429688 54.054688 L 95.9375 54.757812 L 94.738281 54.757812 C 95.621094 52.84375 96.46875 51.011719 97.417969 48.941406 L 100.089844 54.730469 Z M 97.984375 52.9375 L 97.433594 51.566406 C 97.214844 52.089844 97.050781 52.46875 96.855469 52.9375 Z M 97.984375 52.9375 "/>
<path style=" stroke:none;fill-rule:nonzero;fill:rgb(43.137255%,76.078431%,14.117647%);fill-opacity:1;" d="M 13.445312 52.722656 L 13.445312 54.75 L 12.328125 54.75 L 12.328125 49.265625 C 13.097656 49.265625 13.898438 49.160156 14.652344 49.296875 C 15.484375 49.445312 15.941406 50.097656 15.957031 50.964844 C 15.9375 51.800781 15.335938 52.503906 14.519531 52.648438 C 14.160156 52.691406 13.804688 52.714844 13.445312 52.722656 Z M 13.503906 51.699219 C 14.144531 51.699219 14.636719 51.476562 14.851562 51.089844 C 14.917969 50.945312 14.898438 50.773438 14.800781 50.644531 C 14.515625 50.320312 14.136719 50.316406 13.496094 50.316406 Z M 13.503906 51.699219 "/>
<path style=" stroke:none;fill-rule:nonzero;fill:rgb(43.137255%,76.078431%,14.117647%);fill-opacity:1;" d="M 64.929688 54.777344 L 63.707031 54.777344 L 63.707031 50.421875 L 62.488281 50.328125 C 62.472656 49.996094 62.453125 49.664062 62.433594 49.269531 L 66.125 49.269531 L 66.125 50.296875 L 64.929688 50.433594 Z M 64.929688 54.777344 "/>
<path style=" stroke:none;fill-rule:nonzero;fill:rgb(43.137255%,76.078431%,14.117647%);fill-opacity:1;" d="M 36.308594 49.277344 L 36.308594 50.332031 L 35.125 50.40625 L 35.125 54.742188 L 33.898438 54.742188 L 33.898438 50.429688 L 32.667969 50.320312 L 32.667969 49.277344 Z M 36.308594 49.277344 "/>
<path style=" stroke:none;fill-rule:nonzero;fill:rgb(43.137255%,76.078431%,14.117647%);fill-opacity:1;" d="M 62.277344 25.84375 C 62.46875 25.441406 62.609375 25.164062 62.734375 24.878906 C 65.09375 19.574219 67.46875 14.277344 69.789062 8.960938 C 70.15625 8.125 70.632812 7.769531 71.535156 7.820312 C 72.589844 7.878906 73.652344 7.820312 74.703125 7.835938 C 76.152344 7.847656 76.492188 8.382812 75.890625 9.703125 C 72.878906 16.292969 69.863281 22.882812 66.851562 29.46875 C 65.769531 31.832031 64.691406 34.195312 63.617188 36.558594 C 63.347656 37.148438 63.039062 37.605469 62.289062 37.605469 C 61.535156 37.605469 61.226562 37.195312 60.941406 36.585938 C 56.863281 27.632812 52.777344 18.679688 48.683594 9.71875 C 48.082031 8.398438 48.429688 7.851562 49.859375 7.835938 C 50.917969 7.835938 51.976562 7.878906 53.03125 7.820312 C 53.929688 7.773438 54.417969 8.121094 54.785156 8.957031 C 57.132812 14.332031 59.527344 19.691406 61.902344 25.054688 C 62.007812 25.28125 62.113281 25.492188 62.277344 25.84375 Z M 62.277344 25.84375 "/>
<path style=" stroke:none;fill-rule:nonzero;fill:rgb(43.137255%,76.078431%,14.117647%);fill-opacity:1;" d="M 106.652344 8.132812 C 108.667969 8.164062 109.332031 9.191406 108.574219 11.039062 C 108.839844 11.710938 109.113281 12.394531 109.386719 13.085938 C 110.910156 13.085938 112.429688 12.914062 113.894531 13.121094 C 117.144531 13.589844 118.421875 15.859375 117.265625 18.929688 C 116.914062 19.875 116.359375 20.746094 115.828125 21.792969 L 114.480469 20.238281 C 114.917969 19.273438 115.402344 18.433594 115.691406 17.527344 C 116.140625 16.09375 115.523438 15.003906 114.113281 14.480469 C 112.957031 14.058594 111.417969 14.023438 109.816406 14.398438 C 109.910156 15.023438 110.007812 15.648438 110.128906 16.457031 L 108.902344 15.6875 L 108.53125 14.632812 L 107.320312 14.859375 L 105.902344 14.140625 L 108.179688 13.386719 C 107.960938 12.804688 107.75 12.21875 107.550781 11.675781 C 105.816406 11.308594 105.453125 10.832031 105.601562 9.144531 C 104.570312 8.253906 103.535156 8.238281 102.523438 9.144531 C 101.394531 10.167969 100.832031 11.519531 100.320312 12.992188 C 100.875 13.183594 101.355469 13.324219 101.828125 13.496094 C 106.894531 15.304688 111.378906 18.023438 114.886719 22.179688 C 115.839844 23.308594 116.617188 24.570312 117.195312 25.925781 C 118.414062 28.808594 117.429688 30.777344 114.492188 31.773438 C 113.292969 33.652344 111.945312 33.339844 110.984375 32 L 109.324219 31.808594 C 108.886719 32.734375 108.535156 33.636719 108.050781 34.457031 C 107.054688 36.148438 105.90625 37.808594 103.691406 37.78125 C 101.535156 37.753906 100.386719 36.148438 99.417969 34.46875 C 98.050781 32.09375 97.410156 29.476562 97.0625 26.785156 C 96.429688 21.941406 96.660156 17.152344 98.335938 12.523438 C 98.8125 11.195312 99.476562 9.941406 100.304688 8.800781 C 102.144531 6.292969 104.234375 6.121094 106.652344 8.132812 Z M 99.375 27.675781 C 99.542969 28.480469 99.671875 29.085938 99.816406 29.757812 C 104.457031 28.246094 108.722656 25.753906 112.320312 22.449219 L 110.6875 21.054688 L 110.6875 23.097656 L 109.480469 24.0625 L 109.480469 19.957031 L 103.316406 16.351562 L 99.128906 18.761719 L 99.128906 26.050781 L 102.492188 28.097656 L 101.070312 28.613281 Z M 108.222656 31.613281 L 104.496094 30.375 L 100.304688 31.917969 C 100.898438 32.949219 101.355469 33.976562 102.023438 34.847656 C 103.285156 36.503906 104.878906 36.539062 106.1875 34.90625 C 106.976562 33.9375 107.53125 32.769531 108.226562 31.613281 Z M 110.964844 30.75 C 112.222656 29.398438 112.800781 29.347656 114.167969 30.417969 C 116.503906 29.363281 116.273438 26.21875 113.714844 24.152344 L 110.417969 26.964844 C 110.175781 28.160156 109.929688 29.367188 109.671875 30.628906 Z M 109.039062 27.886719 L 105.992188 29.65625 L 108.492188 30.398438 C 108.6875 29.527344 108.839844 28.792969 109.042969 27.886719 Z M 99.355469 17.214844 L 101.8125 15.824219 L 99.71875 15.125 C 99.589844 15.859375 99.488281 16.445312 99.355469 17.214844 Z M 99.355469 17.214844 "/>
<path style=" stroke:none;fill-rule:nonzero;fill:rgb(43.137255%,76.078431%,14.117647%);fill-opacity:1;" d="M 96.699219 14.308594 C 95.683594 14.371094 94.8125 14.355469 93.964844 14.480469 C 92.121094 14.753906 91.300781 15.996094 91.761719 17.792969 C 92.128906 19.21875 92.9375 20.398438 93.914062 21.527344 L 95.550781 20.042969 L 95.550781 21.613281 L 94.78125 22.445312 L 95.585938 23.375 C 95.605469 23.785156 95.628906 24.261719 95.660156 24.972656 L 93.910156 23.402344 L 93.058594 24.460938 C 93.605469 26.28125 93.367188 26.804688 91.714844 27.5 C 91.328125 29.710938 92.554688 30.457031 96.761719 30.511719 C 96.976562 31.089844 97.207031 31.703125 97.53125 32.542969 C 96.132812 32.460938 94.871094 32.519531 93.667969 32.28125 C 90.785156 31.703125 89.761719 29.964844 90.398438 26.960938 C 89.585938 25.203125 90.035156 24.289062 91.9375 23.910156 L 93.015625 22.53125 C 92.359375 21.519531 91.632812 20.570312 91.089844 19.53125 C 88.949219 15.480469 90.707031 12.492188 95.261719 12.363281 C 95.898438 12.347656 96.535156 12.363281 97.328125 12.363281 C 97.082031 13.121094 96.882812 13.746094 96.699219 14.308594 Z M 96.699219 14.308594 "/>
<path style=" stroke:none;fill-rule:nonzero;fill:rgb(43.137255%,76.078431%,14.117647%);fill-opacity:1;" d="M 35.855469 20.757812 C 35.886719 22.253906 35.382812 24.296875 34.507812 26.257812 C 32.871094 29.90625 30.476562 33.160156 27.484375 35.804688 C 27.269531 35.996094 27.042969 36.175781 26.8125 36.351562 C 24.277344 38.324219 23.027344 38.34375 20.507812 36.308594 C 17.257812 33.683594 14.8125 30.410156 13.027344 26.640625 C 11.886719 24.246094 11.296875 21.722656 11.554688 19.070312 C 12.054688 13.835938 14.492188 9.84375 19.410156 7.742188 C 25.238281 5.253906 31.886719 8.191406 34.625 14.304688 C 35.441406 16.125 35.84375 18.019531 35.855469 20.757812 Z M 12.769531 20.773438 C 12.226562 25.648438 17.121094 29.824219 22.429688 29.058594 C 23.109375 23.972656 18.425781 19.917969 12.773438 20.773438 Z M 24.863281 29.070312 C 30.445312 29.640625 35.234375 25.527344 34.554688 20.800781 C 29.367188 19.570312 24.578125 23.621094 24.867188 29.078125 Z M 24.863281 29.070312 "/>
<path style=" stroke:none;fill-rule:nonzero;fill:rgb(43.137255%,76.078431%,14.117647%);fill-opacity:1;" d="M 128.089844 5.4375 L 127.625 5.4375 L 127.625 5.117188 L 128.917969 5.117188 L 128.917969 5.4375 L 128.453125 5.4375 L 128.453125 6.753906 L 128.089844 6.753906 Z M 128.089844 5.4375 "/>
<path style=" stroke:none;fill-rule:nonzero;fill:rgb(43.137255%,76.078431%,14.117647%);fill-opacity:1;" d="M 129.101562 5.117188 L 129.652344 5.117188 L 130.039062 6.1875 L 130.421875 5.117188 L 130.964844 5.117188 L 130.964844 6.753906 L 130.605469 6.753906 L 130.605469 5.5 L 130.152344 6.753906 L 129.878906 6.753906 L 129.460938 5.5 L 129.460938 6.753906 L 129.101562 6.753906 Z M 129.101562 5.117188 "/>
</g>
</svg>
