<?xml version="1.0" encoding="UTF-8"?>
<svg xmlns="http://www.w3.org/2000/svg" xmlns:xlink="http://www.w3.org/1999/xlink" width="239px" height="100px" viewBox="0 0 238 100" version="1.1">
<g id="surface1">
<path style=" stroke:none;fill-rule:nonzero;fill:rgb(43.137255%,76.078431%,14.117647%);fill-opacity:1;" d="M 0 77.191406 L 0 3.507812 C 0 1.929688 0.308594 1.359375 0.917969 0.742188 C 1.472656 0.191406 1.96875 0 3.496094 0 L 222.621094 0 C 225.601562 1.476562 226.417969 3.957031 226.40625 7.167969 C 226.328125 29.5 226.367188 51.828125 226.367188 74.15625 C 226.367188 79.195312 224.554688 80.996094 219.503906 80.996094 C 148.644531 80.996094 77.785156 81.011719 6.925781 81.042969 C 3.734375 81.050781 1.398438 80.109375 0 77.191406 Z M 80.527344 73.269531 L 145.765625 73.269531 L 145.765625 7.71875 L 80.527344 7.71875 Z M 218.65625 73.328125 L 218.65625 7.71875 L 153.558594 7.71875 L 153.558594 73.332031 Z M 72.757812 73.328125 L 72.757812 7.648438 L 7.621094 7.648438 L 7.621094 73.332031 Z M 72.757812 73.328125 "/>
<path style=" stroke:none;fill-rule:nonzero;fill:rgb(43.137255%,76.078431%,14.117647%);fill-opacity:1;" d="M 187.003906 99.570312 L 184.878906 99.570312 L 184.878906 89.121094 L 190.929688 94.738281 L 190.929688 89.546875 L 193.152344 89.546875 L 193.152344 99.503906 L 192.804688 99.824219 L 186.988281 94.082031 Z M 187.003906 99.570312 "/>
<path style=" stroke:none;fill-rule:nonzero;fill:rgb(43.137255%,76.078431%,14.117647%);fill-opacity:1;" d="M 50.957031 89.554688 L 50.957031 99.492188 L 50.554688 99.84375 L 44.785156 94.035156 L 44.785156 99.542969 L 42.636719 99.542969 L 42.636719 89.101562 L 48.683594 94.714844 L 48.683594 89.554688 Z M 50.957031 89.554688 "/>
<path style=" stroke:none;fill-rule:nonzero;fill:rgb(43.137255%,76.078431%,14.117647%);fill-opacity:1;" d="M 18.671875 94.628906 C 18.625 97.40625 16.351562 99.628906 13.582031 99.601562 C 10.8125 99.570312 8.582031 97.308594 8.585938 94.527344 C 8.59375 91.746094 10.828125 89.492188 13.597656 89.472656 C 14.953125 89.472656 16.253906 90.015625 17.207031 90.984375 C 18.164062 91.953125 18.691406 93.265625 18.671875 94.628906 Z M 13.757812 91.75 C 12.25 91.734375 10.980469 92.878906 10.835938 94.386719 C 10.761719 95.9375 11.953125 97.25 13.5 97.324219 C 15.042969 97.398438 16.351562 96.199219 16.425781 94.648438 C 16.421875 93.136719 15.261719 91.875 13.757812 91.75 Z M 13.757812 91.75 "/>
<path style=" stroke:none;fill-rule:nonzero;fill:rgb(43.137255%,76.078431%,14.117647%);fill-opacity:1;" d="M 205.722656 94.679688 L 205.722656 98.511719 C 202.925781 100.3125 199.589844 99.914062 197.800781 97.632812 C 196.214844 95.535156 196.503906 92.566406 198.46875 90.820312 C 200.535156 88.972656 203.464844 89.03125 205.65625 91.085938 L 204.496094 92.386719 C 202.046875 91.492188 200.59375 91.578125 199.867188 93.015625 C 199.4375 93.859375 199.3125 95.253906 199.722656 96.046875 C 200.417969 97.402344 201.867188 97.660156 203.636719 97.027344 C 203.636719 96.824219 203.574219 96.253906 203.574219 96.253906 C 203.195312 96.269531 202.8125 96.257812 202.433594 96.21875 L 202.433594 94.679688 Z M 205.722656 94.679688 "/>
<path style=" stroke:none;fill-rule:nonzero;fill:rgb(43.137255%,76.078431%,14.117647%);fill-opacity:1;" d="M 87.945312 95.503906 C 88.566406 96.851562 89.167969 98.152344 89.832031 99.578125 L 87.542969 99.578125 L 85.273438 95.332031 L 84.691406 95.535156 L 84.691406 99.554688 L 82.539062 99.652344 L 82.539062 89.472656 L 86.539062 89.472656 C 88.027344 89.472656 89.171875 90.105469 89.683594 91.503906 C 90.199219 92.90625 89.714844 94.128906 88.492188 95.015625 C 88.320312 95.15625 88.160156 95.316406 87.945312 95.503906 Z M 84.632812 93.785156 C 85.808594 93.402344 87.242188 94.359375 87.777344 92.429688 C 87.015625 91.046875 85.804688 91.582031 84.632812 91.609375 Z M 84.632812 93.785156 "/>
<path style=" stroke:none;fill-rule:nonzero;fill:rgb(43.137255%,76.078431%,14.117647%);fill-opacity:1;" d="M 163.210938 95.878906 L 163.210938 99.546875 L 161.195312 99.671875 L 161.195312 89.597656 L 163.183594 89.597656 L 163.183594 93.601562 L 167.335938 93.601562 L 167.335938 89.558594 L 169.367188 89.558594 L 169.367188 99.527344 L 167.433594 99.527344 C 167.378906 98.335938 167.320312 97.144531 167.261719 95.878906 Z M 163.210938 95.878906 "/>
<path style=" stroke:none;fill-rule:nonzero;fill:rgb(43.137255%,76.078431%,14.117647%);fill-opacity:1;" d="M 71.644531 95.878906 L 71.644531 99.546875 L 69.628906 99.671875 L 69.628906 89.597656 L 71.621094 89.597656 L 71.621094 93.601562 L 75.773438 93.601562 L 75.773438 89.558594 L 77.800781 89.558594 L 77.800781 99.527344 L 75.871094 99.527344 C 75.8125 98.335938 75.753906 97.144531 75.695312 95.878906 Z M 71.644531 95.878906 "/>
<path style=" stroke:none;fill-rule:nonzero;fill:rgb(43.137255%,76.078431%,14.117647%);fill-opacity:1;" d="M 146.414062 99.566406 L 143.90625 99.566406 C 143.363281 98.730469 142.757812 97.808594 142.011719 96.679688 L 140.019531 99.59375 L 137.539062 99.59375 C 138.605469 97.808594 139.574219 96.1875 140.613281 94.441406 C 139.683594 92.90625 138.734375 91.335938 137.675781 89.578125 L 140.234375 89.578125 L 142.007812 92.1875 L 143.714844 89.554688 L 146.3125 89.554688 L 143.351562 94.429688 C 144.3125 96.042969 145.300781 97.707031 146.414062 99.566406 Z M 146.414062 99.566406 "/>
<path style=" stroke:none;fill-rule:nonzero;fill:rgb(43.137255%,76.078431%,14.117647%);fill-opacity:1;" d="M 34.628906 91.535156 L 34.628906 93.613281 L 37.972656 93.613281 L 37.972656 95.742188 L 34.722656 95.742188 L 34.578125 97.53125 L 38.710938 97.53125 L 38.800781 99.527344 L 32.566406 99.527344 L 32.566406 89.570312 L 38.707031 89.570312 L 38.707031 91.535156 Z M 34.628906 91.535156 "/>
<path style=" stroke:none;fill-rule:nonzero;fill:rgb(43.137255%,76.078431%,14.117647%);fill-opacity:1;" d="M 215.902344 89.578125 C 215.933594 90.203125 215.957031 90.761719 215.992188 91.519531 L 211.886719 91.519531 L 211.886719 93.660156 L 215.152344 93.660156 L 215.152344 95.726562 L 211.929688 95.726562 C 211.867188 96.335938 211.816406 96.824219 211.75 97.511719 L 215.882812 97.511719 C 215.925781 98.257812 215.957031 98.8125 215.996094 99.515625 L 209.765625 99.515625 L 209.765625 89.578125 Z M 215.902344 89.578125 "/>
<path style=" stroke:none;fill-rule:nonzero;fill:rgb(43.137255%,76.078431%,14.117647%);fill-opacity:1;" d="M 95.816406 95.695312 L 95.816406 97.542969 L 99.867188 97.542969 L 99.867188 99.535156 L 93.71875 99.535156 L 93.71875 89.5625 L 99.863281 89.5625 C 99.890625 90.15625 99.917969 90.75 99.957031 91.550781 L 95.835938 91.550781 L 95.835938 93.636719 L 99.144531 93.636719 C 99.195312 94.375 99.230469 94.933594 99.277344 95.695312 Z M 95.816406 95.695312 "/>
<path style=" stroke:none;fill-rule:nonzero;fill:rgb(43.137255%,76.078431%,14.117647%);fill-opacity:1;" d="M 130.707031 97.589844 L 134.824219 97.589844 L 134.824219 99.53125 L 128.671875 99.53125 L 128.671875 89.570312 L 134.820312 89.570312 L 134.820312 91.542969 L 130.792969 91.542969 L 130.792969 93.625 L 134.082031 93.625 L 134.082031 95.746094 L 130.820312 95.746094 C 130.777344 96.363281 130.742188 96.84375 130.707031 97.589844 Z M 130.707031 97.589844 "/>
<path style=" stroke:none;fill-rule:nonzero;fill:rgb(43.137255%,76.078431%,14.117647%);fill-opacity:1;" d="M 157.296875 97.976562 C 154.792969 100.191406 151.855469 100.113281 149.910156 98.015625 C 148.023438 96.003906 148.105469 92.839844 150.089844 90.929688 C 152.105469 88.984375 155.03125 88.988281 157.160156 91.011719 C 156.789062 91.425781 156.414062 91.839844 155.984375 92.328125 C 154.371094 91.496094 152.765625 91.027344 151.515625 92.8125 C 150.679688 93.871094 150.75 95.386719 151.675781 96.363281 C 152.871094 97.769531 154.324219 97.53125 156.046875 96.558594 Z M 157.296875 97.976562 "/>
<path style=" stroke:none;fill-rule:nonzero;fill:rgb(43.137255%,76.078431%,14.117647%);fill-opacity:1;" d="M 107.09375 88.984375 L 111.949219 99.539062 L 109.773438 99.539062 L 108.925781 98.308594 L 105.25 98.308594 L 104.402344 99.589844 L 102.222656 99.589844 C 103.824219 96.09375 105.355469 92.757812 107.09375 88.984375 Z M 108.140625 96.21875 L 107.09375 93.789062 L 106.074219 96.21875 Z M 108.140625 96.21875 "/>
<path style=" stroke:none;fill-rule:nonzero;fill:rgb(43.137255%,76.078431%,14.117647%);fill-opacity:1;" d="M 179.636719 99.519531 C 179.390625 99.148438 179.113281 98.71875 178.820312 98.285156 L 175.195312 98.285156 L 174.300781 99.5625 L 172.121094 99.5625 C 173.726562 96.082031 175.265625 92.75 176.988281 88.984375 L 181.839844 99.511719 Z M 178.019531 96.253906 L 177.019531 93.757812 C 176.621094 94.707031 176.320312 95.398438 175.96875 96.253906 Z M 178.019531 96.253906 "/>
<path style=" stroke:none;fill-rule:nonzero;fill:rgb(43.137255%,76.078431%,14.117647%);fill-opacity:1;" d="M 24.425781 95.855469 L 24.425781 99.546875 L 22.398438 99.546875 L 22.398438 89.574219 C 23.796875 89.574219 25.25 89.382812 26.621094 89.628906 C 28.132812 89.902344 28.964844 91.085938 28.988281 92.667969 C 28.957031 94.183594 27.863281 95.460938 26.375 95.726562 C 25.726562 95.804688 25.078125 95.847656 24.425781 95.855469 Z M 24.535156 93.996094 C 25.695312 93.996094 26.59375 93.597656 26.980469 92.886719 C 27.105469 92.625 27.070312 92.3125 26.890625 92.085938 C 26.371094 91.492188 25.679688 91.484375 24.519531 91.484375 Z M 24.535156 93.996094 "/>
<path style=" stroke:none;fill-rule:nonzero;fill:rgb(43.137255%,76.078431%,14.117647%);fill-opacity:1;" d="M 117.960938 99.59375 L 115.738281 99.59375 L 115.738281 91.671875 L 113.53125 91.507812 C 113.5 90.90625 113.46875 90.300781 113.429688 89.582031 L 120.136719 89.582031 L 120.136719 91.445312 L 117.960938 91.699219 Z M 117.960938 99.59375 "/>
<path style=" stroke:none;fill-rule:nonzero;fill:rgb(43.137255%,76.078431%,14.117647%);fill-opacity:1;" d="M 65.964844 89.597656 L 65.964844 91.511719 L 63.8125 91.648438 L 63.8125 99.535156 L 61.589844 99.535156 L 61.589844 91.6875 L 59.351562 91.492188 L 59.351562 89.597656 Z M 65.964844 89.597656 "/>
<path style=" stroke:none;fill-rule:nonzero;fill:rgb(43.137255%,76.078431%,14.117647%);fill-opacity:1;" d="M 113.144531 46.984375 C 113.492188 46.257812 113.746094 45.75 113.976562 45.230469 C 118.261719 35.589844 122.574219 25.960938 126.792969 16.292969 C 127.457031 14.777344 128.324219 14.125 129.964844 14.21875 C 131.878906 14.324219 133.808594 14.21875 135.722656 14.246094 C 138.351562 14.269531 138.972656 15.242188 137.878906 17.640625 C 132.402344 29.625 126.929688 41.601562 121.453125 53.582031 C 119.488281 57.878906 117.53125 62.171875 115.578125 66.46875 C 115.09375 67.542969 114.53125 68.375 113.164062 68.375 C 111.796875 68.375 111.234375 67.625 110.71875 66.519531 C 103.308594 50.242188 95.886719 33.960938 88.449219 17.671875 C 87.355469 15.269531 87.988281 14.273438 90.585938 14.25 C 92.507812 14.25 94.429688 14.328125 96.351562 14.222656 C 97.976562 14.132812 98.871094 14.769531 99.53125 16.285156 C 103.796875 26.058594 108.148438 35.800781 112.460938 45.550781 C 112.652344 45.964844 112.847656 46.351562 113.144531 46.984375 Z M 113.144531 46.984375 "/>
<path style=" stroke:none;fill-rule:nonzero;fill:rgb(43.137255%,76.078431%,14.117647%);fill-opacity:1;" d="M 193.761719 14.789062 C 197.429688 14.84375 198.628906 16.710938 197.257812 20.074219 C 197.742188 21.292969 198.234375 22.535156 198.730469 23.792969 C 201.5 23.792969 204.261719 23.476562 206.921875 23.859375 C 212.828125 24.710938 215.148438 28.835938 213.050781 34.417969 C 212.40625 36.136719 211.402344 37.722656 210.433594 39.625 L 207.984375 36.800781 C 208.78125 35.046875 209.664062 33.511719 210.183594 31.867188 C 211.003906 29.257812 209.882812 27.28125 207.320312 26.328125 C 205.222656 25.558594 202.425781 25.5 199.515625 26.183594 C 199.6875 27.316406 199.863281 28.453125 200.082031 29.921875 L 197.851562 28.519531 L 197.175781 26.601562 L 194.976562 27.015625 L 192.40625 25.710938 L 196.535156 24.335938 C 196.140625 23.285156 195.757812 22.214844 195.394531 21.226562 C 192.25 20.5625 191.589844 19.691406 191.855469 16.625 C 189.980469 15.007812 188.105469 14.980469 186.265625 16.625 C 184.214844 18.484375 183.191406 20.945312 182.265625 23.621094 C 183.265625 23.972656 184.140625 24.226562 185 24.535156 C 194.207031 27.824219 202.355469 32.773438 208.726562 40.328125 C 210.453125 42.375 211.867188 44.671875 212.921875 47.140625 C 215.132812 52.382812 213.347656 55.957031 208.007812 57.773438 C 205.832031 61.191406 203.378906 60.621094 201.632812 58.183594 L 198.621094 57.832031 C 197.824219 59.515625 197.183594 61.15625 196.304688 62.648438 C 194.496094 65.726562 192.410156 68.742188 188.382812 68.695312 C 184.464844 68.644531 182.382812 65.726562 180.625 62.671875 C 178.140625 58.351562 176.976562 53.597656 176.339844 48.703125 C 175.195312 39.890625 175.613281 31.1875 178.652344 22.773438 C 179.523438 20.355469 180.726562 18.078125 182.234375 16 C 185.578125 11.4375 189.371094 11.125 193.761719 14.789062 Z M 180.539062 50.320312 C 180.851562 51.78125 181.085938 52.882812 181.347656 54.105469 C 189.78125 51.359375 197.527344 46.828125 204.066406 40.816406 L 201.097656 38.28125 L 201.097656 41.992188 L 198.90625 43.746094 L 198.90625 36.289062 L 187.703125 29.734375 L 180.09375 34.109375 L 180.09375 47.367188 L 186.210938 51.085938 L 183.625 52.019531 Z M 196.617188 57.480469 L 189.847656 55.226562 L 182.234375 58.035156 C 183.308594 59.90625 184.144531 61.777344 185.351562 63.363281 C 187.644531 66.367188 190.542969 66.429688 192.917969 63.464844 C 194.355469 61.703125 195.363281 59.578125 196.628906 57.480469 Z M 201.597656 55.910156 C 203.886719 53.453125 204.9375 53.363281 207.421875 55.308594 C 211.664062 53.390625 211.242188 47.671875 206.59375 43.914062 L 200.605469 49.023438 C 200.164062 51.199219 199.722656 53.398438 199.253906 55.691406 Z M 198.101562 50.703125 L 192.566406 53.921875 L 197.109375 55.269531 C 197.460938 53.683594 197.742188 52.351562 198.105469 50.703125 Z M 180.507812 31.300781 L 184.96875 28.773438 L 181.167969 27.5 C 180.9375 28.835938 180.75 29.898438 180.507812 31.300781 Z M 180.507812 31.300781 "/>
<path style=" stroke:none;fill-rule:nonzero;fill:rgb(43.137255%,76.078431%,14.117647%);fill-opacity:1;" d="M 175.683594 26.015625 C 173.835938 26.125 172.253906 26.097656 170.71875 26.328125 C 167.367188 26.828125 165.875 29.082031 166.710938 32.351562 C 167.375 34.945312 168.847656 37.085938 170.617188 39.140625 L 173.59375 36.4375 L 173.59375 39.296875 L 172.195312 40.808594 L 173.660156 42.5 C 173.695312 43.25 173.738281 44.113281 173.796875 45.40625 L 170.613281 42.550781 L 169.070312 44.476562 C 170.0625 47.78125 169.625 48.734375 166.625 50.003906 C 165.925781 54.015625 168.152344 55.375 175.796875 55.472656 C 176.191406 56.527344 176.605469 57.640625 177.191406 59.171875 C 174.652344 59.015625 172.363281 59.128906 170.179688 58.691406 C 164.9375 57.636719 163.078125 54.480469 164.238281 49.015625 C 162.761719 45.824219 163.578125 44.164062 167.035156 43.472656 L 168.988281 40.96875 C 167.796875 39.125 166.480469 37.402344 165.492188 35.511719 C 161.597656 28.144531 164.792969 22.710938 173.074219 22.480469 C 174.230469 22.449219 175.382812 22.480469 176.824219 22.480469 C 176.378906 23.859375 176.019531 24.988281 175.683594 26.015625 Z M 175.683594 26.015625 "/>
<path style=" stroke:none;fill-rule:nonzero;fill:rgb(43.137255%,76.078431%,14.117647%);fill-opacity:1;" d="M 65.140625 37.742188 C 65.195312 40.464844 64.285156 44.179688 62.695312 47.742188 C 59.71875 54.371094 55.367188 60.289062 49.933594 65.097656 C 49.542969 65.449219 49.128906 65.773438 48.714844 66.09375 C 44.105469 69.675781 41.832031 69.714844 37.253906 66.015625 C 31.351562 61.242188 26.910156 55.292969 23.667969 48.4375 C 21.59375 44.082031 20.523438 39.496094 20.988281 34.671875 C 21.902344 25.15625 26.328125 17.894531 35.261719 14.078125 C 45.855469 9.554688 57.933594 14.890625 62.902344 26.007812 C 64.390625 29.316406 65.121094 32.765625 65.140625 37.742188 Z M 23.203125 37.769531 C 22.214844 46.636719 31.105469 54.222656 40.746094 52.832031 C 41.988281 43.589844 33.476562 36.21875 23.210938 37.769531 Z M 45.175781 52.855469 C 55.308594 53.890625 64.011719 46.414062 62.78125 37.816406 C 53.351562 35.578125 44.652344 42.949219 45.179688 52.871094 Z M 45.175781 52.855469 "/>
<path style=" stroke:none;fill-rule:nonzero;fill:rgb(43.137255%,76.078431%,14.117647%);fill-opacity:1;" d="M 232.714844 9.882812 L 231.871094 9.882812 L 231.871094 9.300781 L 234.21875 9.300781 L 234.21875 9.882812 L 233.371094 9.882812 L 233.371094 12.28125 L 232.714844 12.28125 Z M 232.714844 9.882812 "/>
<path style=" stroke:none;fill-rule:nonzero;fill:rgb(43.137255%,76.078431%,14.117647%);fill-opacity:1;" d="M 234.550781 9.300781 L 235.554688 9.300781 L 236.253906 11.25 L 236.953125 9.300781 L 237.9375 9.300781 L 237.9375 12.28125 L 237.285156 12.28125 L 237.285156 9.996094 L 236.460938 12.28125 L 235.960938 12.28125 L 235.203125 9.996094 L 235.203125 12.28125 L 234.550781 12.28125 Z M 234.550781 9.300781 "/>
</g>
</svg>
