<?xml version="1.0" encoding="UTF-8"?>
<svg xmlns="http://www.w3.org/2000/svg" xmlns:xlink="http://www.w3.org/1999/xlink" width="577px" height="70px" viewBox="0 0 577 70" version="1.1">
<g id="surface1">
<path style=" stroke:none;fill-rule:evenodd;fill:rgb(1.568628%,1.568628%,1.568628%);fill-opacity:1;" d="M 250.273438 27.0625 L 250.273438 54.125 L 252.4375 54.125 C 254.066406 54.125 254.601562 53.792969 254.601562 52.777344 C 254.601562 51.519531 254.8125 51.539062 257.96875 53.140625 C 262.359375 55.363281 269.257812 55.492188 273.304688 53.425781 C 277.074219 51.503906 280.910156 46.839844 282.105469 42.726562 C 285.511719 30.992188 280.601562 18.839844 271.363281 16.152344 C 266.996094 14.882812 261.824219 15.597656 257.675781 18.046875 L 255.324219 19.4375 L 255.324219 0 L 250.273438 0 L 250.273438 27.0625 M 509.25 2.644531 C 506.613281 4.492188 507.792969 7.9375 511.0625 7.9375 C 513.179688 7.9375 514.507812 6.171875 513.980469 4.0625 C 513.441406 1.925781 511.226562 1.261719 509.25 2.644531 M 92.09375 2.898438 C 88.960938 3.839844 85.0625 7.148438 83.949219 9.8125 C 81.972656 14.550781 82.988281 19.757812 86.769531 24.238281 L 88.648438 26.46875 L 85.472656 28.707031 C 75.234375 35.929688 75.597656 48.6875 86.183594 53.5 C 92.535156 56.386719 102.691406 54.714844 107.65625 49.96875 L 109.644531 48.066406 L 112.730469 51.09375 C 115.777344 54.085938 115.878906 54.125 121.015625 54.125 C 123.878906 54.125 126.21875 53.886719 126.21875 53.597656 C 126.21875 53.308594 123.644531 50.464844 120.503906 47.28125 L 114.785156 41.496094 L 118.761719 34.785156 C 120.949219 31.09375 122.558594 27.605469 122.339844 27.027344 C 121.910156 25.914062 116.433594 25.542969 114.980469 26.53125 C 114.550781 26.824219 113.125 29.09375 111.8125 31.570312 C 110.503906 34.050781 109.230469 36.046875 108.988281 36 C 108.746094 35.957031 106.820312 34.039062 104.710938 31.738281 L 100.875 27.558594 L 104.148438 25.304688 C 112.84375 19.320312 114.207031 11.199219 107.46875 5.527344 C 103.84375 2.472656 97.257812 1.347656 92.09375 2.898438 M 196.128906 3.109375 C 190.996094 4.5625 186.460938 7.589844 183.621094 11.460938 C 175.226562 22.902344 176.695312 40.210938 186.835938 49.324219 C 191.613281 53.613281 196.261719 55.101562 203.617188 54.691406 C 210.28125 54.320312 217.105469 51.886719 217.085938 49.886719 C 217.058594 46.964844 215.96875 46.59375 212.199219 48.21875 C 201.121094 52.984375 190.375 49.609375 185.585938 39.855469 C 183.785156 36.1875 183.5625 34.949219 183.582031 28.867188 C 183.605469 23.265625 183.917969 21.3125 185.304688 18.195312 C 187.394531 13.5 192.136719 9.171875 196.542969 7.9375 C 200.746094 6.761719 208.679688 7.34375 212.296875 9.09375 C 215.011719 10.40625 215.089844 10.40625 216.082031 9.046875 C 217.632812 6.929688 217.390625 6.550781 213.289062 4.671875 C 208.558594 2.503906 200.765625 1.792969 196.128906 3.109375 M 18.507812 3.429688 C 17.664062 4.816406 0 52.25 0 53.125 C 0 53.871094 1.171875 54.125 4.632812 54.125 L 9.265625 54.125 L 10.085938 51.417969 C 10.539062 49.929688 11.402344 47.332031 12.003906 45.644531 L 13.101562 42.578125 L 32.929688 42.578125 L 36.945312 54.125 L 41.992188 54.125 C 46.507812 54.125 46.984375 53.992188 46.53125 52.859375 C 46.257812 52.164062 44.632812 47.863281 42.925781 43.300781 C 37.21875 28.027344 29.519531 7.769531 28.496094 5.316406 C 27.503906 2.941406 27.382812 2.886719 23.160156 2.886719 C 20.78125 2.886719 18.691406 3.128906 18.507812 3.429688 M 39.429688 3.367188 C 39.164062 3.632812 38.949219 5.582031 38.949219 7.699219 L 38.949219 11.546875 L 54.816406 11.546875 L 54.816406 54.125 L 64.191406 54.125 L 64.191406 11.546875 L 80.058594 11.546875 L 80.058594 2.886719 L 59.984375 2.886719 C 48.941406 2.886719 39.691406 3.101562 39.429688 3.367188 M 119.488281 3.367188 C 119.222656 3.632812 119.007812 5.582031 119.007812 7.699219 L 119.007812 11.546875 L 134.851562 11.546875 L 135.042969 32.65625 L 135.234375 53.761719 L 144.25 54.191406 L 144.25 11.546875 L 159.976562 11.546875 L 160.226562 7.933594 C 160.367188 5.945312 160.371094 4 160.238281 3.605469 C 159.96875 2.796875 120.285156 2.566406 119.488281 3.367188 M 524.566406 5.625 C 524.066406 5.941406 523.609375 8.304688 523.484375 11.207031 L 523.265625 16.238281 L 519.839844 16.457031 C 516.746094 16.65625 516.414062 16.847656 516.414062 18.441406 C 516.414062 20.046875 516.703125 20.207031 519.59375 20.207031 L 522.769531 20.207031 L 523.03125 33.738281 C 523.324219 48.792969 523.84375 50.792969 528.171875 53.429688 C 530.984375 55.148438 536.976562 55.3125 540.652344 53.777344 C 542.820312 52.871094 543.132812 52.460938 542.703125 51.070312 C 542.007812 48.804688 542.011719 48.808594 539.425781 49.710938 C 535.410156 51.109375 532.011719 50.726562 530.0625 48.65625 C 528.363281 46.847656 528.308594 46.429688 528.089844 33.5 L 527.867188 20.207031 L 534.761719 20.207031 C 541.636719 20.207031 541.660156 20.199219 541.660156 18.402344 C 541.660156 16.605469 541.636719 16.597656 534.808594 16.597656 L 527.953125 16.597656 L 527.953125 11.261719 C 527.953125 7.0625 527.710938 5.835938 526.8125 5.488281 C 525.441406 4.960938 525.621094 4.953125 524.566406 5.625 M 95.203125 9.894531 C 91.160156 11.382812 90.414062 15.75 93.546875 19.609375 C 94.617188 20.929688 95.582031 22.136719 95.6875 22.289062 C 96 22.738281 99.648438 20.15625 101.460938 18.195312 C 105.527344 13.808594 100.976562 7.769531 95.203125 9.894531 M 19.429688 24.203125 L 16.152344 33.917969 L 22.863281 33.917969 C 26.550781 33.917969 29.570312 33.65625 29.570312 33.339844 C 29.570312 32.421875 23.691406 15.570312 23.175781 15.003906 C 22.917969 14.722656 21.230469 18.863281 19.429688 24.203125 M 299.109375 16.289062 C 295.144531 17.539062 290.933594 21.386719 288.863281 25.640625 C 286.859375 29.757812 286.503906 38.757812 288.171875 43.125 C 289.867188 47.5625 294.363281 52.320312 298.277344 53.816406 C 302.390625 55.386719 312.144531 54.949219 316.085938 53.015625 C 318.996094 51.59375 319.199219 51.179688 318.042969 49.019531 C 317.328125 47.683594 317.191406 47.675781 314.980469 48.828125 C 313.640625 49.527344 310.378906 50.160156 307.253906 50.324219 C 302.890625 50.558594 301.359375 50.34375 299.335938 49.226562 C 295.738281 47.234375 292.78125 43.257812 292.316406 39.792969 L 291.921875 36.835938 L 305.898438 36.640625 L 319.875 36.441406 L 319.792969 32.320312 C 319.554688 20.328125 309.933594 12.875 299.109375 16.289062 M 339.347656 15.640625 C 336.777344 16.207031 333.621094 17.542969 331.648438 18.902344 C 329.730469 20.21875 329.714844 20.214844 329.484375 18.59375 C 329.316406 17.417969 328.691406 16.894531 327.265625 16.730469 L 325.285156 16.503906 L 325.285156 54.125 L 329.609375 54.125 L 329.609375 39.800781 C 329.609375 27.023438 329.75 25.355469 330.886719 24.328125 C 333.226562 22.210938 338.585938 20.238281 342.054688 20.222656 C 345.34375 20.207031 345.480469 20.125 345.480469 18.125 C 345.480469 15.53125 343.496094 14.726562 339.347656 15.640625 M 356.609375 15.832031 C 350.824219 17.21875 347.640625 20.886719 347.640625 26.171875 C 347.640625 31.4375 350.984375 34.453125 359.667969 37.027344 C 363.949219 38.300781 365.8125 39.210938 367.421875 40.820312 C 368.699219 42.097656 368.921875 45.601562 367.851562 47.601562 C 366.207031 50.679688 358.011719 51.4375 351.824219 49.082031 C 347.902344 47.59375 347.203125 47.742188 346.800781 50.15625 C 346.144531 54.097656 361.058594 56.511719 367.324219 53.476562 C 372.660156 50.890625 375.050781 44.578125 372.535156 39.710938 C 371.011719 36.761719 368.121094 34.9375 361.617188 32.816406 C 355.328125 30.765625 354.070312 30.019531 352.75 27.539062 C 352.050781 26.226562 352.039062 25.390625 352.691406 23.8125 C 354.25 20.054688 360.589844 18.984375 367.464844 21.324219 C 370.316406 22.292969 371.027344 22.328125 371.53125 21.53125 C 373.136719 19 371.046875 17.378906 364.375 15.964844 C 360.164062 15.074219 359.808594 15.066406 356.609375 15.832031 M 389.441406 16.121094 C 379.484375 18.855469 374.164062 30.539062 377.546875 42.253906 C 379.097656 47.625 384.089844 52.863281 388.890625 54.164062 C 395.597656 55.976562 408.226562 53.601562 408.226562 50.527344 C 408.226562 48.246094 406.742188 47.613281 404.332031 48.863281 C 403.105469 49.503906 399.808594 50.175781 397.007812 50.355469 C 391.601562 50.707031 387.722656 49.4375 384.996094 46.417969 C 383.445312 44.703125 381.542969 40.207031 381.542969 38.269531 C 381.542969 36.847656 381.949219 36.804688 395.703125 36.804688 L 409.863281 36.804688 L 409.515625 31.933594 C 409.140625 26.707031 407.335938 22.320312 404.511719 19.75 C 400.441406 16.050781 394.714844 14.671875 389.441406 16.121094 M 426.945312 16.109375 C 417.402344 18.765625 412.78125 25.816406 413.429688 36.71875 C 413.921875 44.976562 417.769531 51.019531 424.253906 53.726562 C 427.792969 55.203125 435.824219 55.109375 439.902344 53.542969 C 443.507812 52.15625 444.011719 51.398438 442.597656 49.464844 C 441.65625 48.171875 441.472656 48.167969 438.609375 49.3125 C 435.191406 50.679688 429.488281 50.882812 426.484375 49.746094 C 415.558594 45.601562 415.042969 26.71875 425.707031 21.199219 C 428.480469 19.765625 434.710938 19.800781 438.226562 21.269531 C 440.832031 22.359375 441.078125 22.351562 441.929688 21.183594 C 443.34375 19.25 443.082031 18.785156 439.78125 17.339844 C 435.542969 15.480469 430.828125 15.03125 426.945312 16.109375 M 497.554688 16.15625 C 495.707031 16.652344 493.367188 17.605469 492.351562 18.273438 C 489.917969 19.867188 489.007812 19.804688 489.007812 18.042969 C 489.007812 16.917969 488.527344 16.597656 486.832031 16.597656 L 484.65625 16.597656 L 485.039062 53.761719 L 487.382812 53.988281 L 489.730469 54.214844 L 489.730469 24.597656 L 492.972656 22.695312 C 495.070312 21.464844 497.730469 20.65625 500.488281 20.402344 C 504.054688 20.082031 504.824219 19.765625 505.164062 18.488281 C 505.421875 17.519531 505.128906 16.625 504.363281 16.058594 C 502.90625 14.96875 501.910156 14.980469 497.554688 16.15625 M 213.488281 17.351562 C 213.488281 17.765625 216.707031 26.023438 220.636719 35.703125 L 227.785156 53.304688 L 226.324219 57.265625 C 225.523438 59.445312 223.964844 62.308594 222.863281 63.628906 C 220.992188 65.871094 220.59375 66.019531 216.894531 65.863281 C 213.527344 65.71875 212.875 65.902344 212.574219 67.066406 C 212.003906 69.246094 213.460938 70 218.261719 70 C 225.441406 70 226.464844 68.445312 237.550781 40.757812 C 242.5625 28.230469 246.667969 17.671875 246.667969 17.289062 C 246.667969 16.910156 245.597656 16.597656 244.289062 16.597656 C 241.914062 16.597656 241.902344 16.617188 238.925781 24.714844 C 237.285156 29.183594 234.652344 36.222656 233.078125 40.367188 L 230.210938 47.898438 L 229.199219 45.417969 C 228.644531 44.054688 225.957031 37.011719 223.230469 29.769531 L 218.273438 16.597656 L 215.882812 16.597656 C 214.566406 16.597656 213.488281 16.9375 213.488281 17.351562 M 447.304688 32.0625 C 447.5625 49.269531 447.652344 49.609375 453.011719 53.28125 C 456.46875 55.652344 464.027344 55.3125 469.355469 52.550781 L 473.054688 50.628906 L 473.277344 52.195312 C 473.433594 53.300781 474.089844 53.832031 475.484375 53.992188 L 477.46875 54.21875 L 477.46875 16.597656 L 473.140625 16.597656 L 473.140625 30.917969 C 473.140625 47.019531 473.375 46.285156 467.355469 49.015625 C 461.546875 51.652344 454.929688 50.421875 452.898438 46.332031 C 452.222656 44.972656 451.84375 40.164062 451.648438 30.488281 L 451.371094 16.597656 L 447.074219 16.597656 L 447.304688 32.0625 M 508.480469 35.359375 L 508.480469 54.125 L 513.53125 54.125 L 513.53125 16.597656 L 508.480469 16.597656 L 508.480469 35.359375 M 543.824219 17.054688 C 543.824219 17.304688 547.066406 25.574219 551.035156 35.429688 L 558.246094 53.351562 L 556.722656 57.425781 C 555.882812 59.667969 554.300781 62.507812 553.199219 63.738281 C 551.445312 65.703125 550.734375 65.976562 547.332031 66.003906 C 543.691406 66.03125 543.460938 66.136719 543.460938 67.835938 C 543.460938 69.546875 543.695312 69.648438 548.042969 69.855469 C 553.484375 70.113281 555.21875 69.210938 557.8125 64.773438 C 560.214844 60.667969 576.992188 19.285156 576.996094 17.453125 C 577 16.824219 576.234375 16.582031 574.710938 16.734375 C 572.433594 16.957031 572.382812 17.050781 567.078125 31.03125 C 564.140625 38.769531 561.5 45.707031 561.210938 46.445312 C 560.695312 47.746094 558.96875 43.710938 550.992188 22.550781 C 548.78125 16.695312 548.703125 16.597656 546.285156 16.597656 C 544.929688 16.597656 543.824219 16.804688 543.824219 17.054688 M 301.679688 20.246094 C 297.089844 21.21875 293.382812 25.191406 292.378906 30.210938 L 291.925781 32.472656 L 303.554688 32.472656 C 315.140625 32.472656 315.1875 32.46875 315.171875 30.851562 C 315.144531 28.25 312.582031 23.308594 310.574219 21.996094 C 308.074219 20.351562 304.492188 19.648438 301.679688 20.246094 M 258.730469 22.160156 L 255.289062 24.078125 L 255.484375 35.671875 L 255.683594 47.269531 L 258.902344 48.890625 C 262.429688 50.671875 268.0625 51.058594 270.695312 49.707031 C 276.023438 46.96875 278.820312 40.992188 278.230469 33.617188 C 277.792969 28.199219 275.527344 23.519531 272.421875 21.625 C 268.949219 19.503906 263.085938 19.734375 258.730469 22.160156 M 387.234375 21.917969 C 384.664062 23.703125 382.84375 26.621094 381.878906 30.488281 L 381.382812 32.472656 L 404.621094 32.472656 L 404.621094 30.648438 C 404.621094 28.007812 402.9375 24.445312 400.722656 22.402344 C 399.210938 21.007812 397.855469 20.578125 394.320312 20.371094 C 390.460938 20.148438 389.472656 20.367188 387.234375 21.917969 M 90.195312 34.429688 C 87.738281 36.890625 87.269531 37.824219 87.269531 40.289062 C 87.269531 44.601562 89.59375 47 94.164062 47.414062 C 97.171875 47.683594 98.210938 47.417969 100.792969 45.714844 C 102.480469 44.605469 103.859375 43.355469 103.859375 42.941406 C 103.859375 42.523438 101.441406 39.777344 98.488281 36.84375 L 93.121094 31.503906 L 90.195312 34.429688 "/>
</g>
</svg>
