<?xml version="1.0" encoding="UTF-8"?>
<svg xmlns="http://www.w3.org/2000/svg" xmlns:xlink="http://www.w3.org/1999/xlink" width="87px" height="100px" viewBox="0 0 87 99" version="1.1">
<g id="surface1">
<path style=" stroke:none;fill-rule:evenodd;fill:rgb(23.529412%,28.627452%,16.078432%);fill-opacity:1;" d="M 14.21875 44.277344 L 11.539062 44.480469 L 2.558594 44.140625 L 5.042969 32.507812 Z M 14.21875 44.277344 "/>
<path style=" stroke:none;fill-rule:evenodd;fill:rgb(71.764708%,79.215688%,61.56863%);fill-opacity:1;" d="M 14.21875 55.097656 L 11.539062 54.894531 L 2.558594 55.234375 L 5.042969 66.867188 Z M 14.21875 55.097656 "/>
<path style=" stroke:none;fill-rule:evenodd;fill:rgb(29.411766%,38.039216%,17.254902%);fill-opacity:1;" d="M 5.042969 55.457031 L 2.558594 55.230469 L 2.558594 66.164062 L 5.042969 66.863281 Z M 5.042969 55.457031 "/>
<path style=" stroke:none;fill-rule:evenodd;fill:rgb(45.882353%,61.176473%,24.313726%);fill-opacity:1;" d="M 14.21875 65.746094 L 5.042969 66.863281 L 5.042969 55.46875 L 14.21875 55.097656 Z M 14.21875 65.746094 "/>
<path style=" stroke:none;fill-rule:evenodd;fill:rgb(71.764708%,79.215688%,61.56863%);fill-opacity:1;" d="M 31.035156 55.992188 L 23.65625 55.457031 L 10.757812 56.070312 L 17.664062 76.882812 Z M 31.035156 55.992188 "/>
<path style=" stroke:none;fill-rule:evenodd;fill:rgb(29.411766%,38.039216%,17.254902%);fill-opacity:1;" d="M 5.042969 43.902344 L 2.558594 44.140625 L 2.558594 33.210938 L 5.042969 32.507812 Z M 5.042969 43.902344 "/>
<path style=" stroke:none;fill-rule:evenodd;fill:rgb(45.882353%,61.176473%,24.313726%);fill-opacity:1;" d="M 14.21875 33.628906 L 5.042969 32.507812 L 5.042969 43.890625 L 14.21875 44.277344 Z M 14.21875 33.628906 "/>
<path style=" stroke:none;fill-rule:evenodd;fill:rgb(23.529412%,28.627452%,16.078432%);fill-opacity:1;" d="M 31.035156 43.382812 L 23.65625 43.902344 L 10.757812 43.304688 L 17.664062 22.523438 Z M 31.035156 43.382812 "/>
<path style=" stroke:none;fill-rule:evenodd;fill:rgb(29.411766%,38.039216%,17.254902%);fill-opacity:1;" d="M 10.757812 24.730469 L 17.664062 22.523438 L 17.664062 42.648438 L 10.757812 43.304688 Z M 10.757812 24.730469 "/>
<path style=" stroke:none;fill-rule:evenodd;fill:rgb(45.882353%,61.176473%,24.313726%);fill-opacity:1;" d="M 31.035156 25.25 L 17.664062 22.523438 L 17.664062 42.648438 L 31.035156 43.382812 Z M 31.035156 25.25 "/>
<path style=" stroke:none;fill-rule:evenodd;fill:rgb(29.411766%,38.039216%,17.254902%);fill-opacity:1;" d="M 10.757812 74.484375 L 17.664062 76.882812 L 17.664062 56.722656 L 10.757812 56.066406 Z M 10.757812 74.484375 "/>
<path style=" stroke:none;fill-rule:evenodd;fill:rgb(45.882353%,61.176473%,24.313726%);fill-opacity:1;" d="M 31.035156 74.292969 L 17.664062 76.882812 L 17.664062 56.722656 L 31.035156 55.988281 Z M 31.035156 74.292969 "/>
<path style=" stroke:none;fill-rule:evenodd;fill:rgb(29.411766%,38.039216%,17.254902%);fill-opacity:1;" d="M 26.1875 87.734375 L 43.488281 95.851562 L 84.03125 49.5 L 43.488281 3.148438 L 26.1875 11.265625 Z M 26.1875 87.734375 "/>
<path style=" stroke:none;fill-rule:evenodd;fill:rgb(45.882353%,61.176473%,24.313726%);fill-opacity:1;" d="M 84.441406 76.65625 L 43.488281 95.851562 L 43.488281 3.148438 L 84.441406 22.34375 Z M 84.441406 76.65625 "/>
</g>
</svg>
