<?xml version="1.0" encoding="UTF-8"?>
<svg xmlns="http://www.w3.org/2000/svg" xmlns:xlink="http://www.w3.org/1999/xlink" width="101px" height="100px" viewBox="0 0 101 100" version="1.1">
<g id="surface1">
<path style=" stroke:none;fill-rule:evenodd;fill:rgb(98.039216%,98.039216%,98.039216%);fill-opacity:1;" d="M 7.882812 48.910156 L 7.882812 90.457031 L 90.941406 90.457031 L 90.941406 7.363281 L 7.882812 7.363281 L 7.882812 48.910156 M 10.992188 48.859375 L 10.992188 87.34375 L 87.832031 87.34375 L 87.832031 10.375 L 10.992188 10.375 L 10.992188 48.859375 M 67.296875 72.925781 L 67.296875 81.742188 L 70.617188 81.742188 L 70.617188 79.742188 L 71.226562 80.40625 C 72.207031 81.476562 73.324219 81.949219 74.867188 81.949219 C 76.398438 81.949219 77.625 81.449219 78.785156 80.351562 C 80.164062 79.046875 80.878906 77.089844 80.742188 75.003906 C 80.503906 71.34375 78.285156 68.878906 75.230469 68.878906 C 73.683594 68.878906 72.246094 69.558594 71.5 70.640625 L 71.1875 71.09375 L 71.132812 64.109375 L 67.296875 64.109375 L 67.296875 72.925781 M 57.191406 64.636719 C 53.148438 65.226562 50.085938 68.847656 50.085938 73.039062 C 50.085938 76.804688 52.476562 80.226562 55.976562 81.46875 C 56.828125 81.773438 56.960938 81.789062 58.433594 81.792969 C 60.121094 81.792969 60.773438 81.671875 62.128906 81.113281 C 63.511719 80.542969 64.792969 79.484375 65.359375 78.441406 L 65.648438 77.914062 L 64.164062 77.035156 C 63.347656 76.550781 62.613281 76.125 62.527344 76.09375 C 62.421875 76.054688 62.324219 76.144531 62.226562 76.367188 C 61.992188 76.898438 61.230469 77.582031 60.476562 77.9375 C 59.820312 78.25 59.710938 78.269531 58.589844 78.269531 C 57.46875 78.269531 57.359375 78.25 56.777344 77.957031 C 55.105469 77.113281 54.128906 75.351562 54.132812 73.1875 C 54.132812 71.113281 54.859375 69.601562 56.289062 68.683594 C 57.53125 67.886719 59.527344 67.855469 60.816406 68.617188 C 61.351562 68.929688 62.0625 69.648438 62.226562 70.039062 C 62.300781 70.21875 62.40625 70.320312 62.484375 70.289062 C 62.582031 70.253906 64.792969 68.75 65.417969 68.292969 C 65.527344 68.214844 64.710938 67.152344 64.085938 66.5625 C 62.359375 64.933594 59.894531 64.246094 57.191406 64.636719 M 73.167969 72.265625 C 72.800781 72.378906 72.496094 72.585938 72.074219 73.011719 C 71.214844 73.875 71.136719 74.105469 71.136719 75.699219 C 71.136719 77.03125 71.136719 77.046875 71.449219 77.480469 C 71.8125 77.976562 72.546875 78.480469 73.15625 78.644531 C 74.238281 78.9375 75.648438 78.367188 76.265625 77.390625 C 77.433594 75.542969 76.613281 72.808594 74.726562 72.25 C 74.09375 72.0625 73.824219 72.066406 73.167969 72.265625 "/>
<path style=" stroke:none;fill-rule:evenodd;fill:rgb(1.568627%,1.568627%,1.568627%);fill-opacity:1;" d="M 0 50 L 0 100 L 50.527344 99.972656 L 101.050781 99.949219 L 101.078125 49.972656 L 101.105469 0 L 0 0 L 0 50 M 0.0507812 50.050781 C 0.0507812 77.550781 0.0625 88.785156 0.078125 75.015625 C 0.09375 61.25 0.09375 38.75 0.078125 25.015625 C 0.0625 11.285156 0.0507812 22.550781 0.0507812 50.050781 M 7.882812 48.910156 L 7.882812 90.457031 L 90.941406 90.457031 L 90.941406 7.363281 L 7.882812 7.363281 L 7.882812 48.910156 M 10.992188 48.859375 L 10.992188 87.34375 L 87.832031 87.34375 L 87.832031 10.375 L 10.992188 10.375 L 10.992188 48.859375 M 67.296875 72.925781 L 67.296875 81.742188 L 70.617188 81.742188 L 70.617188 79.742188 L 71.226562 80.40625 C 72.207031 81.476562 73.324219 81.949219 74.867188 81.949219 C 76.398438 81.949219 77.625 81.449219 78.785156 80.351562 C 80.164062 79.046875 80.878906 77.089844 80.742188 75.003906 C 80.503906 71.34375 78.285156 68.878906 75.230469 68.878906 C 73.683594 68.878906 72.246094 69.558594 71.5 70.640625 L 71.1875 71.09375 L 71.132812 64.109375 L 67.296875 64.109375 L 67.296875 72.925781 M 57.191406 64.636719 C 53.148438 65.226562 50.085938 68.847656 50.085938 73.039062 C 50.085938 76.804688 52.476562 80.226562 55.976562 81.46875 C 56.828125 81.773438 56.960938 81.789062 58.433594 81.792969 C 60.121094 81.792969 60.773438 81.671875 62.128906 81.113281 C 63.511719 80.542969 64.792969 79.484375 65.359375 78.441406 L 65.648438 77.914062 L 64.164062 77.035156 C 63.347656 76.550781 62.613281 76.125 62.527344 76.09375 C 62.421875 76.054688 62.324219 76.144531 62.226562 76.367188 C 61.992188 76.898438 61.230469 77.582031 60.476562 77.9375 C 59.820312 78.25 59.710938 78.269531 58.589844 78.269531 C 57.46875 78.269531 57.359375 78.25 56.777344 77.957031 C 55.105469 77.113281 54.128906 75.351562 54.132812 73.1875 C 54.132812 71.113281 54.859375 69.601562 56.289062 68.683594 C 57.53125 67.886719 59.527344 67.855469 60.816406 68.617188 C 61.351562 68.929688 62.0625 69.648438 62.226562 70.039062 C 62.300781 70.21875 62.40625 70.320312 62.484375 70.289062 C 62.582031 70.253906 64.792969 68.75 65.417969 68.292969 C 65.527344 68.214844 64.710938 67.152344 64.085938 66.5625 C 62.359375 64.933594 59.894531 64.246094 57.191406 64.636719 M 73.167969 72.265625 C 72.800781 72.378906 72.496094 72.585938 72.074219 73.011719 C 71.214844 73.875 71.136719 74.105469 71.136719 75.699219 C 71.136719 77.03125 71.136719 77.046875 71.449219 77.480469 C 71.8125 77.976562 72.546875 78.480469 73.15625 78.644531 C 74.238281 78.9375 75.648438 78.367188 76.265625 77.390625 C 77.433594 75.542969 76.613281 72.808594 74.726562 72.25 C 74.09375 72.0625 73.824219 72.066406 73.167969 72.265625 "/>
</g>
</svg>
