<?xml version="1.0" encoding="UTF-8"?>
<svg xmlns="http://www.w3.org/2000/svg" xmlns:xlink="http://www.w3.org/1999/xlink" width="56px" height="55px" viewBox="0 0 55 55" version="1.1">
<g id="surface1">
<path style=" stroke:none;fill-rule:evenodd;fill:rgb(98.039216%,98.039216%,98.039216%);fill-opacity:1;" d="M 4.292969 26.902344 L 4.292969 49.75 L 49.523438 49.75 L 49.523438 4.050781 L 4.292969 4.050781 L 4.292969 26.902344 M 5.984375 26.871094 L 5.984375 48.039062 L 47.828125 48.039062 L 47.828125 5.707031 L 5.984375 5.707031 L 5.984375 26.871094 M 36.648438 40.109375 L 36.648438 44.957031 L 38.453125 44.957031 L 38.453125 43.859375 L 38.789062 44.222656 C 39.320312 44.8125 39.929688 45.074219 40.769531 45.074219 C 41.601562 45.074219 42.273438 44.796875 42.902344 44.191406 C 43.652344 43.476562 44.042969 42.398438 43.96875 41.25 C 43.839844 39.238281 42.632812 37.882812 40.96875 37.882812 C 40.125 37.882812 39.34375 38.257812 38.933594 38.851562 L 38.765625 39.101562 L 38.734375 35.257812 L 36.648438 35.257812 L 36.648438 40.109375 M 31.144531 35.550781 C 28.941406 35.875 27.273438 37.867188 27.273438 40.171875 C 27.273438 42.242188 28.574219 44.125 30.480469 44.808594 C 30.945312 44.976562 31.019531 44.984375 31.820312 44.984375 C 32.738281 44.984375 33.09375 44.921875 33.832031 44.613281 C 34.585938 44.300781 35.285156 43.714844 35.59375 43.140625 L 35.75 42.851562 L 34.941406 42.367188 C 34.496094 42.101562 34.09375 41.871094 34.050781 41.851562 C 33.992188 41.828125 33.9375 41.878906 33.886719 42.003906 C 33.757812 42.292969 33.34375 42.667969 32.933594 42.867188 C 32.574219 43.035156 32.515625 43.046875 31.90625 43.046875 C 31.296875 43.046875 31.234375 43.035156 30.917969 42.875 C 30.007812 42.410156 29.476562 41.445312 29.476562 40.253906 C 29.480469 39.113281 29.875 38.28125 30.652344 37.777344 C 31.328125 37.335938 32.414062 37.320312 33.117188 37.738281 C 33.410156 37.910156 33.796875 38.308594 33.886719 38.523438 C 33.925781 38.621094 33.984375 38.675781 34.027344 38.660156 C 34.078125 38.640625 35.285156 37.8125 35.625 37.5625 C 35.683594 37.519531 35.238281 36.933594 34.898438 36.609375 C 33.957031 35.714844 32.613281 35.335938 31.144531 35.550781 M 39.84375 39.746094 C 39.644531 39.808594 39.476562 39.921875 39.25 40.15625 C 38.78125 40.632812 38.738281 40.757812 38.738281 41.636719 C 38.738281 42.367188 38.738281 42.375 38.910156 42.613281 C 39.105469 42.886719 39.507812 43.164062 39.835938 43.253906 C 40.425781 43.414062 41.195312 43.101562 41.53125 42.566406 C 42.167969 41.546875 41.71875 40.046875 40.691406 39.738281 C 40.347656 39.632812 40.199219 39.636719 39.84375 39.746094 "/>
<path style=" stroke:none;fill-rule:evenodd;fill:rgb(1.568627%,1.568627%,1.568627%);fill-opacity:1;" d="M 0 27.5 L 0 55 L 27.515625 54.984375 L 55.027344 54.972656 L 55.042969 27.484375 L 55.054688 0 L 0 0 L 0 27.5 M 0.0273438 27.527344 C 0.0273438 42.652344 0.0351562 48.832031 0.0429688 41.257812 C 0.0507812 33.6875 0.0507812 21.3125 0.0429688 13.757812 C 0.0351562 6.207031 0.0273438 12.402344 0.0273438 27.527344 M 4.292969 26.902344 L 4.292969 49.75 L 49.523438 49.75 L 49.523438 4.050781 L 4.292969 4.050781 L 4.292969 26.902344 M 5.984375 26.871094 L 5.984375 48.039062 L 47.828125 48.039062 L 47.828125 5.707031 L 5.984375 5.707031 L 5.984375 26.871094 M 36.648438 40.109375 L 36.648438 44.957031 L 38.453125 44.957031 L 38.453125 43.859375 L 38.789062 44.222656 C 39.320312 44.8125 39.929688 45.074219 40.769531 45.074219 C 41.601562 45.074219 42.273438 44.796875 42.902344 44.191406 C 43.652344 43.476562 44.042969 42.398438 43.96875 41.25 C 43.839844 39.238281 42.632812 37.882812 40.96875 37.882812 C 40.125 37.882812 39.34375 38.257812 38.933594 38.851562 L 38.765625 39.101562 L 38.734375 35.257812 L 36.648438 35.257812 L 36.648438 40.109375 M 31.144531 35.550781 C 28.941406 35.875 27.273438 37.867188 27.273438 40.171875 C 27.273438 42.242188 28.574219 44.125 30.480469 44.808594 C 30.945312 44.976562 31.019531 44.984375 31.820312 44.984375 C 32.738281 44.984375 33.09375 44.921875 33.832031 44.613281 C 34.585938 44.300781 35.285156 43.714844 35.59375 43.140625 L 35.75 42.851562 L 34.941406 42.367188 C 34.496094 42.101562 34.09375 41.871094 34.050781 41.851562 C 33.992188 41.828125 33.9375 41.878906 33.886719 42.003906 C 33.757812 42.292969 33.34375 42.667969 32.933594 42.867188 C 32.574219 43.035156 32.515625 43.046875 31.90625 43.046875 C 31.296875 43.046875 31.234375 43.035156 30.917969 42.875 C 30.007812 42.410156 29.476562 41.445312 29.476562 40.253906 C 29.480469 39.113281 29.875 38.28125 30.652344 37.777344 C 31.328125 37.335938 32.414062 37.320312 33.117188 37.738281 C 33.410156 37.910156 33.796875 38.308594 33.886719 38.523438 C 33.925781 38.621094 33.984375 38.675781 34.027344 38.660156 C 34.078125 38.640625 35.285156 37.8125 35.625 37.5625 C 35.683594 37.519531 35.238281 36.933594 34.898438 36.609375 C 33.957031 35.714844 32.613281 35.335938 31.144531 35.550781 M 39.84375 39.746094 C 39.644531 39.808594 39.476562 39.921875 39.25 40.15625 C 38.78125 40.632812 38.738281 40.757812 38.738281 41.636719 C 38.738281 42.367188 38.738281 42.375 38.910156 42.613281 C 39.105469 42.886719 39.507812 43.164062 39.835938 43.253906 C 40.425781 43.414062 41.195312 43.101562 41.53125 42.566406 C 42.167969 41.546875 41.71875 40.046875 40.691406 39.738281 C 40.347656 39.632812 40.199219 39.636719 39.84375 39.746094 "/>
</g>
</svg>
