<?xml version="1.0" encoding="UTF-8"?>
<svg xmlns="http://www.w3.org/2000/svg" xmlns:xlink="http://www.w3.org/1999/xlink" width="545px" height="100px" viewBox="0 0 540 100" version="1.1">
<g id="surface1">
<path style=" stroke:none;fill-rule:evenodd;fill:rgb(98.823529%,0%,0%);fill-opacity:1;" d="M 85.902344 49.273438 L 85.902344 48.3125 L 77.785156 41.320312 L 76.839844 41.320312 C 74.605469 43.789062 71.160156 45.636719 67.304688 45.636719 C 61.289062 45.636719 56.554688 41.042969 56.554688 34.738281 C 56.554688 28.429688 61.289062 23.835938 67.304688 23.835938 C 71.160156 23.835938 74.605469 25.6875 76.839844 28.15625 L 77.785156 28.15625 L 85.902344 21.164062 L 85.902344 20.203125 C 81.640625 14.992188 74.949219 11.632812 67.371094 11.632812 C 53.445312 11.632812 42.898438 21.507812 42.898438 34.738281 C 42.898438 35.25 43.011719 35.722656 43.046875 36.226562 C 48.746094 40.105469 53.777344 43.210938 58.109375 46.054688 C 64.355469 50.011719 69.398438 53.652344 73.550781 57.039062 C 78.722656 55.726562 82.917969 52.886719 85.902344 49.273438 M 47.976562 49.023438 C 51.226562 53.023438 55.820312 55.894531 61.234375 57.117188 C 57.578125 55.058594 54.035156 53.039062 50.734375 50.800781 C 49.765625 50.199219 48.90625 49.617188 47.976562 49.023438 "/>
<path style=" stroke:none;fill-rule:evenodd;fill:rgb(98.823529%,0%,0%);fill-opacity:1;" d="M 132.878906 54.898438 L 130.847656 46.121094 L 130.105469 45.640625 C 129.699219 45.847656 129.363281 46.121094 128.347656 46.121094 C 126.789062 46.121094 125.84375 44.476562 125.035156 43.175781 C 123.683594 41.117188 122.597656 40.019531 121.652344 39.539062 C 126.585938 37.347656 129.902344 33.234375 129.902344 27.335938 C 129.902344 18.21875 123.683594 12.460938 112.121094 12.460938 L 91.96875 12.460938 L 91.96875 57.023438 L 105.355469 57.023438 L 105.355469 41.390625 L 106.574219 41.390625 C 109.546875 41.390625 113.335938 47.835938 115.09375 50.714844 C 118.746094 56.542969 121.652344 57.84375 126.859375 57.84375 C 129.292969 57.84375 131.324219 56.953125 132.539062 55.855469 Z M 116.242188 28.089844 C 116.242188 31.039062 114.082031 32.476562 111.578125 32.476562 L 105.355469 32.476562 L 105.355469 23.429688 L 111.578125 23.429688 C 114.082031 23.429688 116.242188 25.074219 116.242188 28.089844 Z M 116.242188 28.089844 "/>
<path style=" stroke:none;fill-rule:evenodd;fill:rgb(98.823529%,0%,0%);fill-opacity:1;" d="M 184.597656 34.753906 C 184.597656 21.523438 174.050781 11.648438 160.054688 11.648438 C 146.054688 11.648438 135.507812 21.523438 135.507812 34.753906 C 135.507812 47.984375 146.054688 57.855469 160.054688 57.855469 C 174.050781 57.855469 184.597656 47.914062 184.597656 34.753906 M 170.941406 34.753906 C 170.941406 41.128906 166.070312 45.652344 160.054688 45.652344 C 154.039062 45.652344 149.167969 41.128906 149.167969 34.753906 C 149.167969 28.378906 154.039062 23.851562 160.054688 23.851562 C 166.070312 23.851562 170.941406 28.378906 170.941406 34.753906 "/>
<path style=" stroke:none;fill-rule:evenodd;fill:rgb(98.823529%,0%,0%);fill-opacity:1;" d="M 214.4375 12.472656 L 206.105469 37 L 198.207031 12.472656 L 185.410156 12.472656 L 184.816406 13.5 L 201.171875 57.03125 L 209.289062 57.03125 L 218.496094 32.75 L 227.738281 57.03125 L 235.851562 57.03125 L 252.238281 13.5 L 251.613281 12.472656 L 238.847656 12.472656 L 230.921875 37.15625 L 222.554688 12.472656 Z M 214.4375 12.472656 "/>
<path style=" stroke:none;fill-rule:evenodd;fill:rgb(98.823529%,0%,0%);fill-opacity:1;" d="M 301.246094 34.6875 C 301.246094 21.386719 292.386719 12.476562 277.984375 12.476562 L 257.496094 12.476562 L 257.496094 57.039062 L 277.984375 57.039062 C 292.386719 57.039062 301.246094 48.125 301.246094 34.6875 M 287.585938 34.757812 C 287.585938 42.023438 283.324219 46.070312 277.445312 46.070312 L 270.882812 46.070312 L 270.882812 23.445312 L 277.445312 23.445312 C 283.324219 23.445312 287.585938 27.492188 287.585938 34.757812 "/>
<path style=" stroke:none;fill-rule:evenodd;fill:rgb(98.823529%,0%,0%);fill-opacity:1;" d="M 345.539062 23.441406 L 358.648438 23.441406 L 358.648438 57.03125 L 372.070312 57.03125 L 372.070312 23.441406 L 385.492188 23.441406 L 385.492188 12.472656 L 345.539062 12.472656 Z M 345.539062 23.441406 "/>
<path style=" stroke:none;fill-rule:evenodd;fill:rgb(98.823529%,0%,0%);fill-opacity:1;" d="M 428.253906 27.347656 C 428.253906 18.226562 422.035156 12.46875 410.472656 12.46875 L 390.320312 12.46875 L 390.320312 57.03125 L 403.710938 57.03125 L 403.710938 41.398438 L 406.886719 41.398438 L 415.203125 57.03125 L 428.527344 57.03125 L 429.132812 56.003906 L 420.207031 39.480469 C 425.007812 37.21875 428.253906 33.175781 428.253906 27.347656 M 414.59375 28.101562 C 414.59375 31.050781 412.433594 32.488281 409.929688 32.488281 L 403.710938 32.488281 L 403.710938 23.4375 L 409.929688 23.4375 C 412.433594 23.4375 414.59375 25.085938 414.59375 28.101562 "/>
<path style=" stroke:none;fill-rule:evenodd;fill:rgb(98.823529%,0%,0%);fill-opacity:1;" d="M 436.371094 57.03125 L 449.792969 57.03125 L 449.792969 12.472656 L 436.371094 12.472656 Z M 436.371094 57.03125 "/>
<path style=" stroke:none;fill-rule:evenodd;fill:rgb(98.823529%,0%,0%);fill-opacity:1;" d="M 471.640625 28.308594 L 471.640625 12.472656 L 458.21875 12.472656 L 458.21875 57.03125 L 471.640625 57.03125 L 471.640625 43.3125 L 474.140625 40.4375 L 485.375 57.03125 L 499.421875 57.03125 L 500.046875 56 L 483.816406 32.40625 L 498.796875 13.5 L 498.484375 12.472656 L 484.128906 12.472656 Z M 471.640625 28.308594 "/>
<path style=" stroke:none;fill-rule:evenodd;fill:rgb(98.823529%,0%,0%);fill-opacity:1;" d="M 517.214844 46.0625 L 517.214844 39.90625 L 532.507812 39.90625 L 532.507812 29.609375 L 517.214844 29.609375 L 517.214844 23.441406 L 537.191406 23.441406 L 537.191406 12.46875 L 503.792969 12.46875 L 503.792969 57.03125 L 537.503906 57.03125 L 537.503906 46.0625 Z M 517.214844 46.0625 "/>
<path style=" stroke:none;fill-rule:evenodd;fill:rgb(98.823529%,0%,0%);fill-opacity:1;" d="M 324 57.550781 C 333.808594 57.550781 342.320312 52.753906 342.320312 43.503906 C 342.320312 33.425781 333.738281 30.816406 326.167969 28.625 C 323.1875 27.734375 320.140625 26.703125 320.140625 24.507812 C 320.140625 22.929688 321.832031 21.972656 324.40625 21.972656 C 328.804688 21.972656 332.519531 24.714844 334.414062 26.5 L 335.359375 26.5 L 341.644531 18.957031 L 341.644531 18 C 338.332031 14.230469 331.574219 11.351562 324.132812 11.351562 C 313.722656 11.351562 306.492188 16.972656 306.492188 25.128906 C 306.492188 33.90625 314.464844 37.746094 321.226562 39.664062 C 325.625 40.898438 328.605469 41.105469 328.605469 43.503906 C 328.605469 45.222656 326.503906 46.25 323.253906 46.25 C 319.128906 46.25 314.128906 43.574219 311.695312 41.175781 L 310.75 41.175781 L 304.53125 48.988281 L 304.53125 49.949219 C 308.519531 54.402344 315.679688 57.550781 324 57.550781 "/>
<path style=" stroke:none;fill-rule:evenodd;fill:rgb(98.823529%,0%,0%);fill-opacity:1;" d="M 93.078125 98.519531 C 89.835938 91.089844 83.324219 81.554688 57.808594 67.941406 C 46.039062 61.390625 25.9375 51.304688 7.867188 32.128906 C 9.503906 39.046875 17.902344 54.25 54 73.222656 C 64 78.699219 80.914062 83.835938 93.078125 98.496094 "/>
<path style=" stroke:none;fill-rule:evenodd;fill:rgb(98.823529%,0%,0%);fill-opacity:1;" d="M 91.457031 85.800781 C 88.378906 77.019531 82.824219 65.777344 56.464844 49.082031 C 43.632812 40.664062 24.785156 30.09375 0 3.144531 C 1.773438 10.410156 9.609375 29.304688 49.097656 53.832031 C 62.070312 62.632812 78.816406 68.0625 91.457031 85.800781 "/>
</g>
</svg>
