<?xml version="1.0" encoding="UTF-8"?>
<svg xmlns="http://www.w3.org/2000/svg" xmlns:xlink="http://www.w3.org/1999/xlink" width="300px" height="55px" viewBox="0 0 297 55" version="1.1">
<g id="surface1">
<path style=" stroke:none;fill-rule:evenodd;fill:rgb(98.823529%,0%,0%);fill-opacity:1;" d="M 47.246094 27.097656 L 47.246094 26.570312 L 42.78125 22.726562 L 42.261719 22.726562 C 41.035156 24.082031 39.140625 25.101562 37.019531 25.101562 C 33.707031 25.101562 31.105469 22.574219 31.105469 19.105469 C 31.105469 15.636719 33.707031 13.109375 37.019531 13.109375 C 39.140625 13.109375 41.035156 14.128906 42.261719 15.484375 L 42.78125 15.484375 L 47.246094 11.640625 L 47.246094 11.113281 C 44.902344 8.246094 41.222656 6.398438 37.054688 6.398438 C 29.394531 6.398438 23.59375 11.828125 23.59375 19.105469 C 23.59375 19.386719 23.65625 19.648438 23.675781 19.921875 C 26.8125 22.058594 29.578125 23.765625 31.960938 25.332031 C 35.394531 27.507812 38.167969 29.507812 40.453125 31.371094 C 43.296875 30.652344 45.605469 29.089844 47.246094 27.097656 M 26.386719 26.964844 C 28.175781 29.164062 30.699219 30.742188 33.679688 31.414062 C 31.667969 30.28125 29.71875 29.171875 27.902344 27.941406 C 27.371094 27.609375 26.898438 27.289062 26.386719 26.964844 "/>
<path style=" stroke:none;fill-rule:evenodd;fill:rgb(98.823529%,0%,0%);fill-opacity:1;" d="M 73.082031 30.191406 L 71.964844 25.367188 L 71.558594 25.101562 C 71.335938 25.214844 71.148438 25.367188 70.589844 25.367188 C 69.734375 25.367188 69.214844 24.460938 68.769531 23.746094 C 68.023438 22.613281 67.429688 22.011719 66.910156 21.746094 C 69.625 20.539062 71.445312 18.277344 71.445312 15.035156 C 71.445312 10.019531 68.023438 6.851562 61.667969 6.851562 L 50.582031 6.851562 L 50.582031 31.363281 L 57.945312 31.363281 L 57.945312 22.765625 L 58.617188 22.765625 C 60.25 22.765625 62.335938 26.308594 63.300781 27.894531 C 65.3125 31.097656 66.910156 31.8125 69.773438 31.8125 C 71.113281 31.8125 72.226562 31.324219 72.898438 30.722656 Z M 63.933594 15.449219 C 63.933594 17.074219 62.746094 17.863281 61.367188 17.863281 L 57.945312 17.863281 L 57.945312 12.886719 L 61.367188 12.886719 C 62.746094 12.886719 63.933594 13.792969 63.933594 15.449219 Z M 63.933594 15.449219 "/>
<path style=" stroke:none;fill-rule:evenodd;fill:rgb(98.823529%,0%,0%);fill-opacity:1;" d="M 101.53125 19.113281 C 101.53125 11.835938 95.726562 6.40625 88.03125 6.40625 C 80.332031 6.40625 74.53125 11.835938 74.53125 19.113281 C 74.53125 26.390625 80.332031 31.820312 88.03125 31.820312 C 95.726562 31.820312 101.53125 26.355469 101.53125 19.113281 M 94.015625 19.113281 C 94.015625 22.621094 91.339844 25.109375 88.03125 25.109375 C 84.71875 25.109375 82.042969 22.621094 82.042969 19.113281 C 82.042969 15.609375 84.71875 13.121094 88.03125 13.121094 C 91.339844 13.121094 94.015625 15.609375 94.015625 19.113281 "/>
<path style=" stroke:none;fill-rule:evenodd;fill:rgb(98.823529%,0%,0%);fill-opacity:1;" d="M 117.941406 6.859375 L 113.359375 20.351562 L 109.015625 6.859375 L 101.976562 6.859375 L 101.648438 7.425781 L 110.644531 31.367188 L 115.109375 31.367188 L 120.171875 18.011719 L 125.253906 31.367188 L 129.71875 31.367188 L 138.730469 7.425781 L 138.386719 6.859375 L 131.367188 6.859375 L 127.007812 20.4375 L 122.40625 6.859375 Z M 117.941406 6.859375 "/>
<path style=" stroke:none;fill-rule:evenodd;fill:rgb(98.823529%,0%,0%);fill-opacity:1;" d="M 165.683594 19.078125 C 165.683594 11.761719 160.8125 6.859375 152.890625 6.859375 L 141.621094 6.859375 L 141.621094 31.371094 L 152.890625 31.371094 C 160.8125 31.371094 165.683594 26.46875 165.683594 19.078125 M 158.171875 19.117188 C 158.171875 23.113281 155.828125 25.335938 152.59375 25.335938 L 148.984375 25.335938 L 148.984375 12.894531 L 152.59375 12.894531 C 155.828125 12.894531 158.171875 15.121094 158.171875 19.117188 "/>
<path style=" stroke:none;fill-rule:evenodd;fill:rgb(98.823529%,0%,0%);fill-opacity:1;" d="M 190.046875 12.890625 L 197.257812 12.890625 L 197.257812 31.367188 L 204.636719 31.367188 L 204.636719 12.890625 L 212.019531 12.890625 L 212.019531 6.859375 L 190.046875 6.859375 Z M 190.046875 12.890625 "/>
<path style=" stroke:none;fill-rule:evenodd;fill:rgb(98.823529%,0%,0%);fill-opacity:1;" d="M 235.539062 15.039062 C 235.539062 10.027344 232.117188 6.859375 225.757812 6.859375 L 214.675781 6.859375 L 214.675781 31.367188 L 222.039062 31.367188 L 222.039062 22.769531 L 223.789062 22.769531 L 228.363281 31.367188 L 235.6875 31.367188 L 236.023438 30.800781 L 231.113281 21.714844 C 233.753906 20.46875 235.539062 18.246094 235.539062 15.039062 M 228.027344 15.453125 C 228.027344 17.078125 226.835938 17.867188 225.460938 17.867188 L 222.039062 17.867188 L 222.039062 12.890625 L 225.460938 12.890625 C 226.835938 12.890625 228.027344 13.796875 228.027344 15.453125 "/>
<path style=" stroke:none;fill-rule:evenodd;fill:rgb(98.823529%,0%,0%);fill-opacity:1;" d="M 240.003906 31.367188 L 247.386719 31.367188 L 247.386719 6.859375 L 240.003906 6.859375 Z M 240.003906 31.367188 "/>
<path style=" stroke:none;fill-rule:evenodd;fill:rgb(98.823529%,0%,0%);fill-opacity:1;" d="M 259.402344 15.570312 L 259.402344 6.859375 L 252.019531 6.859375 L 252.019531 31.367188 L 259.402344 31.367188 L 259.402344 23.820312 L 260.777344 22.242188 L 266.957031 31.367188 L 274.683594 31.367188 L 275.027344 30.800781 L 266.097656 17.824219 L 274.339844 7.425781 L 274.167969 6.859375 L 266.269531 6.859375 Z M 259.402344 15.570312 "/>
<path style=" stroke:none;fill-rule:evenodd;fill:rgb(98.823529%,0%,0%);fill-opacity:1;" d="M 284.46875 25.335938 L 284.46875 21.949219 L 292.878906 21.949219 L 292.878906 16.285156 L 284.46875 16.285156 L 284.46875 12.890625 L 295.453125 12.890625 L 295.453125 6.859375 L 277.085938 6.859375 L 277.085938 31.367188 L 295.625 31.367188 L 295.625 25.335938 Z M 284.46875 25.335938 "/>
<path style=" stroke:none;fill-rule:evenodd;fill:rgb(98.823529%,0%,0%);fill-opacity:1;" d="M 178.199219 31.652344 C 183.59375 31.652344 188.277344 29.015625 188.277344 23.929688 C 188.277344 18.382812 183.554688 16.949219 179.390625 15.742188 C 177.753906 15.253906 176.078125 14.6875 176.078125 13.480469 C 176.078125 12.613281 177.007812 12.085938 178.421875 12.085938 C 180.84375 12.085938 182.886719 13.59375 183.925781 14.574219 L 184.449219 14.574219 L 187.90625 10.425781 L 187.90625 9.898438 C 186.082031 7.828125 182.367188 6.242188 178.273438 6.242188 C 172.546875 6.242188 168.570312 9.335938 168.570312 13.820312 C 168.570312 18.648438 172.957031 20.761719 176.671875 21.816406 C 179.09375 22.496094 180.730469 22.609375 180.730469 23.929688 C 180.730469 24.871094 179.578125 25.4375 177.789062 25.4375 C 175.519531 25.4375 172.769531 23.964844 171.433594 22.644531 L 170.914062 22.644531 L 167.492188 26.945312 L 167.492188 27.472656 C 169.683594 29.921875 173.625 31.652344 178.199219 31.652344 "/>
<path style=" stroke:none;fill-rule:evenodd;fill:rgb(98.823529%,0%,0%);fill-opacity:1;" d="M 51.195312 54.1875 C 49.410156 50.097656 45.828125 44.855469 31.792969 37.367188 C 25.320312 33.765625 14.265625 28.21875 4.328125 17.671875 C 5.226562 21.476562 9.84375 29.835938 29.699219 40.273438 C 35.199219 43.285156 44.5 46.109375 51.195312 54.171875 "/>
<path style=" stroke:none;fill-rule:evenodd;fill:rgb(98.823529%,0%,0%);fill-opacity:1;" d="M 50.300781 47.191406 C 48.609375 42.363281 45.550781 36.175781 31.054688 26.996094 C 24 22.367188 13.632812 16.550781 0 1.730469 C 0.976562 5.726562 5.285156 16.117188 27.003906 29.609375 C 34.140625 34.449219 43.347656 37.433594 50.300781 47.191406 "/>
</g>
</svg>
