<?xml version="1.0" encoding="UTF-8"?>
<svg xmlns="http://www.w3.org/2000/svg" xmlns:xlink="http://www.w3.org/1999/xlink" width="35px" height="35px" viewBox="0 0 35 35" version="1.1">
<g id="surface1">
<path style=" stroke:none;fill-rule:evenodd;fill:rgb(3.529412%,77.254902%,58.823529%);fill-opacity:1;" d="M 15.386719 3.015625 C 13.398438 3.273438 10.917969 4.011719 9.300781 4.828125 C 8.417969 5.273438 8.109375 5.773438 8.457031 6.195312 C 8.796875 6.605469 9.160156 6.578125 10.160156 6.078125 C 12.214844 5.054688 14.210938 4.546875 16.699219 4.417969 C 19.488281 4.277344 21.5625 4.667969 24.394531 5.871094 C 26.070312 6.582031 26.121094 6.59375 26.40625 6.332031 C 26.589844 6.167969 26.683594 5.925781 26.65625 5.695312 C 26.621094 5.394531 26.410156 5.21875 25.519531 4.777344 C 24.035156 4.035156 21.96875 3.382812 20.28125 3.128906 C 19.003906 2.9375 16.457031 2.878906 15.386719 3.015625 M 15.605469 6.570312 C 11.457031 7.085938 7.878906 8.960938 5.324219 11.957031 C 4.171875 13.3125 4.082031 14.019531 5.058594 14.117188 C 5.421875 14.152344 5.558594 14.066406 5.898438 13.574219 C 6.566406 12.609375 8.625 10.734375 9.742188 10.070312 C 14.050781 7.511719 19.550781 7.25 23.988281 9.402344 C 25.925781 10.339844 27.59375 11.710938 29.273438 13.75 C 29.660156 14.21875 30.042969 14.253906 30.402344 13.859375 C 30.777344 13.445312 30.617188 13.0625 29.535156 11.789062 C 27.4375 9.308594 24.136719 7.441406 20.71875 6.792969 C 19.207031 6.503906 16.933594 6.40625 15.605469 6.570312 M 15.363281 10.121094 C 10.835938 10.988281 7.367188 13.859375 6.015625 17.863281 C 5.648438 18.953125 5.621094 19.199219 5.621094 21.511719 C 5.621094 23.769531 5.65625 24.117188 6.023438 25.445312 C 6.519531 27.226562 6.71875 27.5625 7.289062 27.5625 C 7.976562 27.5625 8.101562 27.144531 7.738281 26.058594 C 7.21875 24.5 7.003906 23.171875 7.003906 21.511719 C 7.003906 18.921875 7.5625 17.253906 9.054688 15.371094 C 13.050781 10.332031 21.183594 10.117188 25.46875 14.933594 C 27.09375 16.757812 27.882812 18.671875 27.910156 20.863281 C 27.925781 22.164062 27.898438 22.300781 27.515625 22.878906 C 26.550781 24.34375 24.300781 24.628906 22.960938 23.449219 C 22.273438 22.847656 22.183594 22.652344 21.949219 21.207031 C 21.722656 19.808594 21.300781 18.960938 20.464844 18.226562 C 18.328125 16.351562 14.894531 16.917969 13.519531 19.375 C 12.382812 21.398438 13.144531 25.207031 15.246094 27.980469 C 16.511719 29.65625 18.519531 31.058594 20.695312 31.789062 C 21.726562 32.132812 22.246094 32.089844 22.386719 31.644531 C 22.574219 31.046875 22.339844 30.820312 21.03125 30.351562 C 19.398438 29.769531 18.226562 28.996094 16.972656 27.671875 C 14.867188 25.460938 13.835938 21.894531 14.777344 20.113281 C 15.753906 18.261719 18.519531 18.042969 19.863281 19.707031 C 20.183594 20.097656 20.320312 20.496094 20.476562 21.457031 C 20.710938 22.902344 21.046875 23.632812 21.824219 24.382812 C 22.695312 25.222656 23.640625 25.585938 24.9375 25.585938 C 26.261719 25.585938 26.910156 25.378906 27.820312 24.660156 C 28.800781 23.882812 29.34375 22.820312 29.425781 21.507812 C 29.695312 17.292969 26.625 12.714844 22.347656 10.953125 C 20.152344 10.046875 17.441406 9.726562 15.363281 10.121094 M 15.3125 13.792969 C 12.664062 14.488281 10.417969 16.574219 9.601562 19.09375 C 9.019531 20.886719 9.238281 23.957031 10.113281 26.28125 C 10.960938 28.535156 13.429688 31.792969 14.289062 31.792969 C 14.445312 31.792969 14.679688 31.632812 14.808594 31.4375 C 15.105469 30.984375 14.972656 30.714844 13.859375 29.519531 C 12.832031 28.414062 11.800781 26.667969 11.3125 25.203125 C 10.851562 23.832031 10.621094 21.769531 10.789062 20.574219 C 11.464844 15.792969 17.25 13.414062 21.421875 16.199219 C 23.113281 17.328125 24.007812 18.84375 24.285156 21.035156 C 24.421875 22.109375 24.9375 22.457031 25.53125 21.867188 C 25.792969 21.601562 25.816406 21.457031 25.730469 20.734375 C 25.3125 17.320312 22.976562 14.664062 19.617188 13.789062 C 18.539062 13.507812 16.386719 13.511719 15.3125 13.792969 M 16.847656 20.945312 C 16.359375 21.433594 16.964844 24 17.910156 25.457031 C 19.015625 27.164062 20.847656 28.460938 22.75 28.875 C 23.199219 28.972656 24.214844 29.027344 25.058594 29 C 26.414062 28.953125 26.59375 28.914062 26.832031 28.621094 C 27.097656 28.292969 27.082031 27.789062 26.796875 27.613281 C 26.71875 27.5625 25.789062 27.515625 24.738281 27.507812 C 22.914062 27.492188 22.777344 27.46875 21.875 27.039062 C 19.882812 26.085938 18.550781 24.308594 18.21875 22.15625 C 18.128906 21.558594 17.984375 20.992188 17.90625 20.890625 C 17.695312 20.632812 17.128906 20.664062 16.847656 20.945312 "/>
</g>
</svg>
