<?xml version="1.0" encoding="UTF-8"?>
<svg xmlns="http://www.w3.org/2000/svg" xmlns:xlink="http://www.w3.org/1999/xlink" width="55px" height="55px" viewBox="0 0 55 55" version="1.1">
<g id="surface1">
<path style=" stroke:none;fill-rule:evenodd;fill:rgb(3.529412%,77.254902%,58.823529%);fill-opacity:1;" d="M 24.175781 4.742188 C 21.050781 5.144531 17.160156 6.304688 14.613281 7.589844 C 13.226562 8.289062 12.742188 9.074219 13.285156 9.734375 C 13.820312 10.378906 14.394531 10.339844 15.96875 9.554688 C 19.195312 7.941406 22.332031 7.144531 26.238281 6.945312 C 30.625 6.71875 33.882812 7.332031 38.335938 9.222656 C 40.96875 10.339844 41.046875 10.359375 41.496094 9.953125 C 41.78125 9.695312 41.933594 9.3125 41.890625 8.949219 C 41.835938 8.472656 41.5 8.203125 40.105469 7.503906 C 37.769531 6.339844 34.519531 5.316406 31.875 4.917969 C 29.863281 4.613281 25.863281 4.523438 24.175781 4.742188 M 24.519531 10.328125 C 18.003906 11.132812 12.378906 14.078125 8.367188 18.792969 C 6.554688 20.921875 6.414062 22.027344 7.949219 22.183594 C 8.519531 22.242188 8.730469 22.105469 9.269531 21.328125 C 10.320312 19.8125 13.550781 16.867188 15.304688 15.824219 C 22.078125 11.800781 30.722656 11.394531 37.699219 14.773438 C 40.742188 16.246094 43.363281 18.402344 46.003906 21.605469 C 46.609375 22.339844 47.210938 22.402344 47.773438 21.78125 C 48.363281 21.128906 48.113281 20.53125 46.414062 18.523438 C 43.117188 14.628906 37.929688 11.691406 32.558594 10.671875 C 30.183594 10.222656 26.609375 10.070312 24.519531 10.328125 M 24.140625 15.90625 C 17.027344 17.265625 11.578125 21.78125 9.453125 28.074219 C 8.875 29.78125 8.832031 30.171875 8.832031 33.800781 C 8.832031 37.351562 8.890625 37.902344 9.46875 39.984375 C 10.242188 42.785156 10.558594 43.3125 11.457031 43.3125 C 12.53125 43.3125 12.726562 42.65625 12.160156 40.949219 C 11.34375 38.5 11.007812 36.410156 11.007812 33.800781 C 11.007812 29.734375 11.882812 27.117188 14.230469 24.152344 C 20.507812 16.238281 33.285156 15.898438 40.023438 23.46875 C 42.574219 26.332031 43.8125 29.34375 43.859375 32.785156 C 43.882812 34.828125 43.839844 35.042969 43.242188 35.953125 C 41.71875 38.257812 38.183594 38.699219 36.078125 36.851562 C 35 35.902344 34.859375 35.59375 34.492188 33.324219 C 34.136719 31.125 33.476562 29.796875 32.160156 28.644531 C 28.800781 25.695312 23.410156 26.585938 21.242188 30.445312 C 19.457031 33.625 20.660156 39.609375 23.957031 43.972656 C 25.945312 46.605469 29.097656 48.804688 32.523438 49.953125 C 34.140625 50.496094 34.957031 50.425781 35.175781 49.730469 C 35.476562 48.785156 35.105469 48.433594 33.050781 47.695312 C 30.480469 46.777344 28.644531 45.566406 26.671875 43.488281 C 23.367188 40.007812 21.738281 34.40625 23.222656 31.605469 C 24.753906 28.699219 29.101562 28.351562 31.214844 30.964844 C 31.714844 31.582031 31.933594 32.210938 32.179688 33.722656 C 32.546875 35.992188 33.074219 37.136719 34.296875 38.316406 C 35.664062 39.632812 37.152344 40.210938 39.1875 40.207031 C 41.265625 40.207031 42.289062 39.878906 43.714844 38.75 C 45.261719 37.53125 46.109375 35.863281 46.242188 33.796875 C 46.667969 27.175781 41.84375 19.984375 35.117188 17.210938 C 31.667969 15.789062 27.410156 15.28125 24.140625 15.90625 M 24.0625 21.675781 C 19.902344 22.769531 16.371094 26.046875 15.089844 30.003906 C 14.175781 32.824219 14.519531 37.644531 15.894531 41.300781 C 17.226562 44.839844 21.105469 49.957031 22.453125 49.957031 C 22.703125 49.957031 23.070312 49.707031 23.269531 49.402344 C 23.738281 48.6875 23.53125 48.265625 21.78125 46.390625 C 20.167969 44.652344 18.542969 41.90625 17.773438 39.605469 C 17.054688 37.449219 16.691406 34.210938 16.957031 32.328125 C 18.015625 24.820312 27.109375 21.082031 33.664062 25.457031 C 36.316406 27.230469 37.726562 29.609375 38.160156 33.054688 C 38.375 34.746094 39.1875 35.289062 40.117188 34.359375 C 40.53125 33.949219 40.570312 33.71875 40.433594 32.585938 C 39.777344 27.214844 36.105469 23.042969 30.824219 21.667969 C 29.136719 21.226562 25.75 21.230469 24.0625 21.675781 M 26.472656 32.914062 C 25.707031 33.679688 26.65625 37.710938 28.144531 40.007812 C 29.882812 42.6875 32.761719 44.722656 35.75 45.375 C 36.453125 45.53125 38.054688 45.617188 39.378906 45.570312 C 41.507812 45.496094 41.792969 45.4375 42.164062 44.976562 C 42.582031 44.460938 42.554688 43.667969 42.109375 43.390625 C 41.984375 43.316406 40.527344 43.238281 38.871094 43.222656 C 36.007812 43.199219 35.792969 43.164062 34.375 42.488281 C 31.242188 40.996094 29.148438 38.203125 28.628906 34.816406 C 28.488281 33.878906 28.265625 32.984375 28.136719 32.828125 C 27.808594 32.425781 26.914062 32.472656 26.472656 32.914062 "/>
</g>
</svg>
