<?xml version="1.0" encoding="UTF-8"?>
<svg xmlns="http://www.w3.org/2000/svg" xmlns:xlink="http://www.w3.org/1999/xlink" width="100px" height="100px" viewBox="0 0 100 100" version="1.1">
<g id="surface1">
<path style=" stroke:none;fill-rule:evenodd;fill:rgb(3.529412%,77.254902%,58.823529%);fill-opacity:1;" d="M 43.957031 8.621094 C 38.277344 9.355469 31.199219 11.464844 26.570312 13.800781 C 24.046875 15.070312 23.164062 16.5 24.15625 17.699219 C 25.128906 18.867188 26.175781 18.796875 29.035156 17.371094 C 34.898438 14.4375 40.601562 12.988281 47.707031 12.625 C 55.679688 12.214844 61.605469 13.332031 69.699219 16.769531 C 74.488281 18.804688 74.628906 18.835938 75.449219 18.09375 C 75.96875 17.625 76.242188 16.929688 76.164062 16.273438 C 76.066406 15.410156 75.453125 14.914062 72.917969 13.644531 C 68.671875 11.523438 62.761719 9.664062 57.953125 8.941406 C 54.296875 8.390625 47.023438 8.222656 43.957031 8.621094 M 44.582031 18.777344 C 32.734375 20.242188 22.511719 25.601562 15.214844 34.167969 C 11.914062 38.039062 11.664062 40.050781 14.449219 40.332031 C 15.492188 40.4375 15.875 40.191406 16.855469 38.78125 C 18.761719 36.027344 24.636719 30.667969 27.828125 28.773438 C 40.144531 21.457031 55.859375 20.71875 68.542969 26.859375 C 74.074219 29.539062 78.84375 33.460938 83.644531 39.28125 C 84.746094 40.621094 85.839844 40.730469 86.859375 39.601562 C 87.933594 38.414062 87.480469 37.328125 84.390625 33.679688 C 78.390625 26.597656 68.964844 21.257812 59.195312 19.40625 C 54.878906 18.585938 48.378906 18.304688 44.582031 18.777344 M 43.890625 28.921875 C 30.960938 31.390625 21.054688 39.597656 17.183594 51.042969 C 16.136719 54.148438 16.058594 54.859375 16.058594 61.457031 C 16.058594 67.914062 16.164062 68.910156 17.214844 72.703125 C 18.625 77.792969 19.195312 78.75 20.828125 78.75 C 22.789062 78.75 23.140625 77.558594 22.109375 74.453125 C 20.625 69.996094 20.015625 66.203125 20.011719 61.457031 C 20.011719 54.0625 21.601562 49.300781 25.875 43.914062 C 37.289062 29.523438 60.519531 28.90625 72.773438 42.671875 C 77.410156 47.878906 79.660156 53.351562 79.742188 59.609375 C 79.789062 63.320312 79.710938 63.714844 78.621094 65.371094 C 75.855469 69.558594 69.425781 70.363281 65.597656 67.003906 C 63.636719 65.28125 63.382812 64.71875 62.714844 60.589844 C 62.066406 56.59375 60.863281 54.179688 58.472656 52.082031 C 52.367188 46.71875 42.5625 48.335938 38.621094 55.355469 C 35.378906 61.140625 37.5625 72.019531 43.558594 79.949219 C 47.175781 84.734375 52.90625 88.738281 59.132812 90.824219 C 62.074219 91.8125 63.554688 91.6875 63.957031 90.414062 C 64.503906 88.703125 63.832031 88.058594 60.09375 86.722656 C 55.421875 85.050781 52.082031 82.847656 48.492188 79.066406 C 42.484375 72.742188 39.527344 62.558594 42.21875 57.460938 C 45.007812 52.179688 52.910156 51.550781 56.753906 56.300781 C 57.660156 57.421875 58.0625 58.566406 58.507812 61.308594 C 59.175781 65.4375 60.132812 67.519531 62.359375 69.667969 C 64.839844 72.058594 67.546875 73.109375 71.25 73.105469 C 75.03125 73.105469 76.886719 72.507812 79.484375 70.453125 C 82.289062 68.234375 83.835938 65.207031 84.078125 61.445312 C 84.847656 49.410156 76.078125 36.332031 63.851562 31.292969 C 57.578125 28.703125 49.835938 27.785156 43.890625 28.921875 M 43.75 39.40625 C 36.183594 41.398438 29.765625 47.355469 27.433594 54.554688 C 25.773438 59.679688 26.398438 68.445312 28.898438 75.089844 C 31.320312 81.527344 38.371094 90.832031 40.824219 90.832031 C 41.277344 90.832031 41.945312 90.378906 42.3125 89.820312 C 43.160156 88.523438 42.78125 87.757812 39.601562 84.34375 C 36.667969 81.1875 33.71875 76.195312 32.320312 72.007812 C 31.007812 68.089844 30.34375 62.199219 30.828125 58.78125 C 32.757812 45.125 49.289062 38.328125 61.210938 46.289062 C 66.03125 49.511719 68.59375 53.839844 69.382812 60.097656 C 69.773438 63.175781 71.253906 64.164062 72.941406 62.472656 C 73.691406 61.722656 73.765625 61.308594 73.515625 59.246094 C 72.324219 49.484375 65.648438 41.894531 56.042969 39.394531 C 52.972656 38.59375 46.816406 38.601562 43.75 39.40625 M 48.132812 59.84375 C 46.742188 61.234375 48.46875 68.566406 51.171875 72.738281 C 54.328125 77.617188 59.566406 81.3125 65 82.5 C 66.28125 82.78125 69.191406 82.9375 71.601562 82.855469 C 75.46875 82.722656 75.984375 82.613281 76.664062 81.773438 C 77.421875 80.835938 77.371094 79.394531 76.566406 78.894531 C 76.335938 78.753906 73.6875 78.617188 70.679688 78.589844 C 65.472656 78.542969 65.078125 78.480469 62.5 77.25 C 56.800781 74.535156 53 69.457031 52.054688 63.300781 C 51.792969 61.601562 51.390625 59.972656 51.15625 59.6875 C 50.558594 58.957031 48.9375 59.039062 48.132812 59.84375 "/>
</g>
</svg>
