<?xml version="1.0" encoding="UTF-8"?>
<svg xmlns="http://www.w3.org/2000/svg" xmlns:xlink="http://www.w3.org/1999/xlink" width="160px" height="40px" viewBox="0 0 160 40" version="1.1">
<g id="surface1">
<path style=" stroke:none;fill-rule:evenodd;fill:rgb(13.72549%,12.156863%,12.54902%);fill-opacity:1;" d="M 50.320312 20.582031 L 50.320312 29.300781 L 53.101562 29.300781 L 53.101562 11.859375 L 50.320312 11.859375 L 50.320312 20.582031 M 57.972656 20.570312 L 57.972656 29.300781 L 60.984375 29.300781 L 60.984375 16.449219 L 65.914062 22.859375 L 70.839844 29.273438 L 72.40625 29.289062 L 73.972656 29.300781 L 73.972656 11.859375 L 71.1875 11.859375 L 71.1875 18.253906 C 71.1875 21.773438 71.109375 24.644531 71.015625 24.636719 C 70.917969 24.628906 68.644531 21.777344 65.964844 18.300781 L 61.085938 11.976562 L 59.527344 11.90625 L 57.972656 11.839844 L 57.972656 20.570312 M 77.449219 13.132812 L 77.449219 14.402344 L 82.667969 14.535156 L 82.726562 21.917969 L 82.789062 29.300781 L 85.566406 29.300781 L 85.566406 14.417969 L 90.898438 14.417969 L 90.898438 11.859375 L 77.449219 11.859375 L 77.449219 13.132812 M 94.144531 20.582031 L 94.144531 29.300781 L 106.667969 29.300781 L 106.667969 26.511719 L 96.925781 26.511719 L 96.925781 21.859375 L 105.273438 21.859375 L 105.273438 19.300781 L 96.910156 19.300781 L 97.042969 14.535156 L 106.433594 14.410156 L 106.433594 11.859375 L 94.144531 11.859375 L 94.144531 20.582031 M 109.679688 13.136719 L 109.679688 14.410156 L 114.574219 14.472656 L 119.464844 14.535156 L 114.339844 20.8125 C 109.261719 27.039062 109.21875 27.101562 109.21875 28.195312 L 109.21875 29.300781 L 123.59375 29.300781 L 123.59375 26.746094 L 118.492188 26.746094 C 115.6875 26.746094 113.390625 26.664062 113.390625 26.566406 C 113.390625 26.46875 115.636719 23.648438 118.375 20.300781 L 123.363281 14.214844 L 123.363281 11.859375 L 109.679688 11.859375 L 109.679688 13.136719 M 127.535156 20.582031 L 127.535156 29.300781 L 139.824219 29.300781 L 139.824219 26.511719 L 130.320312 26.511719 L 130.320312 21.859375 L 138.667969 21.859375 L 138.667969 19.300781 L 130.320312 19.300781 L 130.320312 14.417969 L 139.59375 14.417969 L 139.59375 11.859375 L 127.535156 11.859375 L 127.535156 20.582031 M 143.769531 20.5625 L 143.769531 29.300781 L 146.535156 29.300781 L 146.667969 23.371094 L 150.601562 23.371094 L 154.78125 29.300781 L 156.59375 29.300781 C 157.980469 29.300781 158.363281 29.234375 158.230469 29.011719 C 158.132812 28.851562 157.125 27.433594 155.988281 25.855469 C 154.855469 24.28125 153.960938 22.964844 154.003906 22.933594 C 154.050781 22.898438 154.429688 22.734375 154.851562 22.566406 C 157.035156 21.691406 158.230469 18.394531 157.421875 15.464844 C 157.03125 14.046875 156.34375 13.253906 154.917969 12.585938 C 153.667969 12 153.449219 11.972656 148.695312 11.898438 L 143.769531 11.820312 L 143.769531 20.5625 M 146.550781 17.558594 L 146.550781 20.699219 L 149.457031 20.699219 C 153.753906 20.699219 154.667969 20.113281 154.667969 17.367188 C 154.667969 14.964844 153.675781 14.421875 149.273438 14.421875 L 146.550781 14.417969 L 146.550781 17.558594 "/>
<path style=" stroke:none;fill-rule:evenodd;fill:rgb(18.431373%,54.117647%,100%);fill-opacity:1;" d="M 16.089844 1.4375 C 14.445312 2.195312 12.703125 2.984375 12.21875 3.183594 C 11.730469 3.386719 11.417969 3.636719 11.519531 3.738281 C 11.761719 3.976562 18.792969 7.210938 19.066406 7.210938 C 19.328125 7.210938 26.484375 3.957031 26.742188 3.71875 C 26.847656 3.625 26.640625 3.4375 26.277344 3.304688 C 25.917969 3.171875 24.152344 2.386719 22.351562 1.558594 L 19.078125 0.0546875 L 16.089844 1.4375 M 5.105469 6.417969 C 3.003906 7.378906 1.253906 8.199219 1.21875 8.234375 C 1.074219 8.378906 8.484375 11.710938 8.957031 11.714844 C 9.398438 11.71875 16.078125 8.773438 16.53125 8.375 C 16.667969 8.253906 10.734375 5.339844 9.160156 4.753906 C 9.03125 4.707031 7.207031 5.453125 5.105469 6.417969 M 25.441406 6.371094 C 23.429688 7.308594 21.726562 8.132812 21.652344 8.207031 C 21.582031 8.277344 21.84375 8.503906 22.238281 8.710938 C 22.632812 8.914062 22.957031 9 22.960938 8.902344 C 22.960938 8.800781 23.039062 8.828125 23.132812 8.960938 C 23.226562 9.089844 24.632812 9.8125 26.253906 10.566406 L 29.203125 11.929688 L 32.921875 10.21875 C 34.96875 9.277344 36.609375 8.398438 36.5625 8.265625 C 36.5 8.070312 29.613281 4.703125 29.21875 4.675781 C 29.152344 4.671875 27.453125 5.433594 25.441406 6.371094 M 15.230469 11.035156 C 13.210938 11.976562 11.515625 12.792969 11.457031 12.851562 C 11.398438 12.910156 13.085938 13.761719 15.207031 14.746094 L 19.058594 16.53125 L 22.984375 14.742188 C 25.140625 13.757812 26.871094 12.917969 26.828125 12.875 C 26.679688 12.726562 19.207031 9.300781 19.054688 9.3125 C 18.96875 9.316406 17.246094 10.09375 15.230469 11.035156 M 0.0546875 15.042969 L 0.117188 19.851562 L 4.03125 21.671875 C 6.183594 22.671875 8.039062 23.488281 8.148438 23.488281 C 8.484375 23.488281 8.398438 14.046875 8.058594 13.792969 C 7.613281 13.457031 0.539062 10.234375 0.246094 10.234375 C 0.0664062 10.234375 0.0078125 11.648438 0.0546875 15.042969 M 33.679688 12.050781 L 29.914062 13.820312 L 29.914062 18.523438 C 29.914062 21.113281 29.996094 23.277344 30.09375 23.339844 C 30.191406 23.402344 32.019531 22.648438 34.152344 21.667969 L 38.027344 19.882812 L 38.027344 15.058594 C 38.027344 11.339844 37.960938 10.238281 37.738281 10.253906 C 37.578125 10.269531 35.753906 11.074219 33.679688 12.050781 M 50.195312 11.910156 C 50.132812 12.074219 50.109375 16.082031 50.144531 20.816406 L 50.207031 29.417969 L 50.265625 20.640625 L 50.320312 11.859375 L 53.097656 11.859375 L 53.160156 20.523438 L 53.226562 29.1875 L 53.222656 20.464844 L 53.21875 11.746094 L 51.765625 11.675781 C 50.734375 11.625 50.277344 11.695312 50.195312 11.910156 M 58.605469 11.796875 C 59.015625 11.847656 59.746094 11.847656 60.226562 11.796875 C 60.707031 11.746094 60.371094 11.707031 59.476562 11.703125 C 58.585938 11.703125 58.191406 11.746094 58.605469 11.796875 M 71.820312 11.796875 C 72.234375 11.847656 72.964844 11.847656 73.445312 11.796875 C 73.925781 11.746094 73.589844 11.707031 72.695312 11.703125 C 71.804688 11.703125 71.410156 11.746094 71.820312 11.796875 M 80.753906 11.800781 C 82.632812 11.839844 85.714844 11.839844 87.59375 11.800781 C 89.476562 11.761719 87.9375 11.730469 84.175781 11.730469 C 80.410156 11.730469 78.871094 11.761719 80.753906 11.800781 M 97.230469 11.800781 C 98.992188 11.839844 101.808594 11.839844 103.492188 11.800781 C 105.175781 11.761719 103.734375 11.730469 100.289062 11.730469 C 96.847656 11.730469 95.46875 11.761719 97.230469 11.800781 M 113 11.800781 C 115.015625 11.839844 118.25 11.839844 120.1875 11.800781 C 122.125 11.761719 120.476562 11.730469 116.523438 11.730469 C 112.566406 11.730469 110.984375 11.761719 113 11.800781 M 133.496094 11.800781 L 139.570312 11.867188 L 139.65625 13.203125 L 139.742188 14.535156 L 139.710938 11.746094 L 127.421875 11.730469 L 133.496094 11.800781 M 145.679688 11.800781 C 146.796875 11.84375 148.625 11.84375 149.738281 11.800781 C 150.855469 11.757812 149.941406 11.722656 147.710938 11.722656 C 145.476562 11.722656 144.566406 11.757812 145.679688 11.800781 M 78.558594 14.589844 C 79.363281 14.636719 80.613281 14.636719 81.34375 14.589844 C 82.070312 14.542969 81.414062 14.507812 79.882812 14.507812 C 78.355469 14.507812 77.757812 14.546875 78.558594 14.589844 M 87.015625 14.589844 C 87.746094 14.636719 88.949219 14.636719 89.679688 14.589844 C 90.414062 14.542969 89.816406 14.507812 88.347656 14.507812 C 86.882812 14.507812 86.28125 14.542969 87.015625 14.589844 M 111.824219 14.59375 C 113.195312 14.632812 115.441406 14.632812 116.8125 14.59375 C 118.183594 14.550781 117.0625 14.515625 114.320312 14.515625 C 111.578125 14.515625 110.453125 14.550781 111.824219 14.59375 M 9.972656 19.527344 L 9.972656 24.40625 L 10.992188 24.875 C 11.554688 25.128906 13.320312 25.960938 14.917969 26.71875 C 16.515625 27.472656 17.882812 28.035156 17.953125 27.960938 C 18.027344 27.890625 18.085938 25.71875 18.085938 23.136719 L 18.085938 18.445312 L 14.78125 16.867188 C 12.964844 16 11.140625 15.144531 10.726562 14.964844 L 9.972656 14.644531 L 9.972656 19.527344 M 26.550781 15.359375 C 25.785156 15.726562 24.117188 16.527344 22.839844 17.136719 C 21.566406 17.742188 20.445312 18.347656 20.351562 18.480469 C 20.257812 18.613281 20.179688 20.835938 20.175781 23.425781 L 20.175781 28.128906 L 20.695312 27.925781 C 20.984375 27.816406 22.757812 26.988281 24.636719 26.085938 L 28.058594 24.445312 L 28.058594 19.546875 C 28.058594 16.855469 28.03125 14.660156 28 14.667969 C 27.96875 14.679688 27.316406 14.988281 26.550781 15.359375 M 97.03125 16.917969 L 97.042969 19.1875 L 101.21875 19.195312 L 105.390625 19.203125 L 101.285156 19.128906 L 97.175781 19.058594 L 97.097656 16.855469 L 97.015625 14.648438 L 97.03125 16.917969 M 132.453125 19.242188 C 133.5625 19.285156 135.441406 19.285156 136.625 19.242188 C 137.8125 19.199219 136.90625 19.167969 134.609375 19.164062 C 132.3125 19.164062 131.34375 19.199219 132.453125 19.242188 M 0 26.691406 L 0 31.527344 L 3.304688 33.027344 C 5.121094 33.851562 6.972656 34.703125 7.421875 34.917969 L 8.230469 35.308594 L 8.292969 30.519531 C 8.328125 27.886719 8.277344 25.65625 8.179688 25.5625 C 7.945312 25.339844 0.433594 21.859375 0.1875 21.859375 C 0.0859375 21.859375 0 24.035156 0 26.691406 M 97.011719 24.1875 C 97.011719 25.527344 97.050781 26.078125 97.097656 25.40625 C 97.144531 24.734375 97.144531 23.636719 97.097656 22.964844 C 97.050781 22.292969 97.011719 22.84375 97.011719 24.1875 M 9.972656 31.367188 L 9.972656 36.222656 L 11.074219 36.699219 C 11.679688 36.960938 13.476562 37.796875 15.074219 38.554688 L 17.972656 39.9375 L 18.035156 35.160156 C 18.070312 32.53125 18.015625 30.300781 17.917969 30.207031 C 17.71875 30.007812 10.328125 26.511719 10.109375 26.511719 C 10.035156 26.511719 9.972656 28.695312 9.972656 31.367188 M 23.960938 28.367188 L 20.207031 30.1875 L 20.160156 39.976562 L 23.238281 38.511719 C 24.933594 37.707031 26.710938 36.863281 27.1875 36.636719 L 28.058594 36.226562 L 28.058594 31.367188 C 28.058594 28.699219 27.980469 26.519531 27.882812 26.527344 C 27.789062 26.535156 26.023438 27.363281 23.960938 28.367188 M 123.667969 28.023438 C 123.667969 28.789062 123.710938 29.078125 123.761719 28.660156 C 123.8125 28.242188 123.8125 27.613281 123.761719 27.261719 C 123.707031 26.914062 123.664062 27.253906 123.667969 28.023438 "/>
</g>
</svg>
