<?xml version="1.0" encoding="UTF-8"?>
<svg xmlns="http://www.w3.org/2000/svg" xmlns:xlink="http://www.w3.org/1999/xlink" width="300px" height="150px" viewBox="0 0 300 150" version="1.1">
<g id="surface1">
<path style=" stroke:none;fill-rule:evenodd;fill:rgb(37.64706%,65.490198%,89.411765%);fill-opacity:1;" d="M 52.28125 35.125 C 48.816406 35.761719 46.765625 36.644531 41.914062 39.582031 C 38.222656 41.820312 34.839844 42.976562 28.75 44.078125 C 28.40625 44.140625 28.738281 44.144531 29.488281 44.085938 C 33.496094 43.785156 38.21875 42.140625 42.433594 39.582031 C 47.269531 36.644531 49.753906 35.6875 53.4375 35.328125 L 55 35.179688 L 55 70.5 L 20.257812 70.5 L 20.066406 69.8125 C 19.960938 69.433594 19.875 63.640625 19.875 56.9375 C 19.875 50.234375 19.78125 44.75 19.667969 44.75 C 19.351562 44.75 19.570312 70.167969 19.890625 70.488281 C 20.070312 70.671875 25.613281 70.734375 37.640625 70.6875 L 55.125 70.625 L 55.125 52.75 C 55.125 35.054688 55.121094 34.875 54.625 34.832031 C 54.351562 34.804688 53.296875 34.9375 52.28125 35.125 M 59.75 52.785156 L 59.75 70.816406 L 77.304688 70.644531 C 90.484375 70.515625 94.910156 70.398438 95.050781 70.171875 C 95.300781 69.785156 95.308594 44.75 95.0625 44.75 C 94.960938 44.75 94.902344 50.347656 94.9375 57.1875 C 94.96875 64.027344 94.914062 69.75 94.8125 69.902344 C 94.679688 70.097656 89.589844 70.21875 77.3125 70.3125 L 60 70.441406 L 60 52.722656 C 60 42.972656 60.042969 35 60.09375 35 C 60.144531 35 61.148438 35.167969 62.324219 35.371094 C 65.941406 36.003906 68.144531 36.851562 71.6875 38.96875 C 73.507812 40.058594 75.980469 41.363281 77.1875 41.871094 C 79.546875 42.867188 83.65625 44.015625 84.71875 43.976562 C 85.078125 43.960938 84.644531 43.789062 83.75 43.59375 C 79.171875 42.597656 76.527344 41.535156 72.289062 39.003906 C 70.644531 38.019531 68.488281 36.886719 67.496094 36.480469 C 65.808594 35.796875 61.449219 34.75 60.273438 34.75 L 59.75 34.75 L 59.75 52.785156 M 245.421875 41.84375 C 243.957031 42.253906 242.410156 43.679688 241.878906 45.109375 C 241.671875 45.667969 241.472656 47.082031 241.433594 48.25 L 241.367188 50.375 L 238.5 50.523438 L 238.546875 51.824219 L 238.589844 53.125 L 238.777344 50.773438 L 240.199219 50.699219 L 241.625 50.625 L 241.769531 48.125 C 241.875 46.242188 242.046875 45.363281 242.460938 44.5625 C 243.40625 42.730469 245.925781 41.523438 248.054688 41.882812 C 248.972656 42.039062 249 42.074219 249 43.085938 L 249 44.125 L 247.351562 44.125 C 245.929688 44.125 245.640625 44.203125 245.234375 44.707031 C 244.558594 45.539062 244.253906 46.859375 244.25 48.925781 L 244.25 50.730469 L 246.3125 50.800781 L 248.375 50.875 L 248.375 51.9375 C 248.375 52.523438 248.464844 53 248.578125 53 C 248.6875 53 248.742188 52.464844 248.703125 51.8125 L 248.625 50.625 L 246.5625 50.550781 L 244.5 50.480469 L 244.5 48.800781 C 244.503906 45.28125 245.347656 44.152344 247.871094 44.292969 L 249.375 44.375 L 249.285156 43.125 C 249.238281 42.4375 249.179688 41.855469 249.15625 41.828125 C 248.921875 41.570312 246.371094 41.578125 245.421875 41.84375 M 147.613281 42.863281 C 146.339844 44.140625 147.171875 46.25 148.953125 46.25 C 149.714844 46.25 150.75 45.535156 150.75 45.011719 C 150.75 44.878906 150.472656 45.046875 150.136719 45.386719 C 149.386719 46.136719 148.425781 46.175781 147.734375 45.484375 C 146.566406 44.316406 147.851562 42.164062 149.410156 42.675781 C 149.835938 42.816406 150.304688 43.257812 150.570312 43.769531 C 150.898438 44.402344 150.972656 44.464844 150.863281 44 C 150.65625 43.15625 149.613281 42.25 148.851562 42.25 C 148.507812 42.25 147.953125 42.527344 147.613281 42.863281 M 116.058594 55.9375 L 116.121094 68.375 L 116.1875 56.050781 L 116.253906 43.730469 L 118.140625 43.800781 L 120.027344 43.875 L 121.710938 47.75 C 123.3125 51.441406 123.976562 52.808594 123.992188 52.472656 C 123.996094 52.386719 123.261719 50.644531 122.355469 48.597656 C 121.453125 46.550781 120.597656 44.566406 120.457031 44.1875 C 120.207031 43.511719 120.164062 43.5 118.101562 43.5 L 116 43.5 L 116.058594 55.9375 M 137.265625 44.0625 C 137.144531 44.371094 136.472656 45.910156 135.777344 47.480469 C 135.078125 49.054688 134.542969 50.378906 134.59375 50.425781 C 134.640625 50.472656 135.359375 49.019531 136.191406 47.195312 L 137.703125 43.875 L 141.257812 43.726562 L 141.191406 55.988281 C 141.15625 62.734375 141.210938 68.25 141.3125 68.25 C 141.414062 68.25 141.5 62.679688 141.5 55.875 L 141.5 43.5 L 139.492188 43.5 C 137.644531 43.5 137.46875 43.542969 137.265625 44.0625 M 86.5 44.25 C 87.65625 44.46875 89.664062 44.574219 89.480469 44.40625 C 89.421875 44.351562 88.476562 44.25 87.375 44.171875 C 85.871094 44.070312 85.652344 44.089844 86.5 44.25 M 22.683594 44.679688 C 23.125 44.734375 23.914062 44.738281 24.433594 44.683594 C 24.949219 44.628906 24.585938 44.582031 23.625 44.582031 C 22.664062 44.582031 22.238281 44.625 22.683594 44.679688 M 90.8125 44.683594 C 91.328125 44.734375 92.171875 44.734375 92.6875 44.683594 C 93.203125 44.628906 92.78125 44.585938 91.75 44.585938 C 90.71875 44.585938 90.296875 44.628906 90.8125 44.683594 M 253.6875 45.816406 L 252.25 46.285156 L 252.25 50.5 L 249.25 50.5 L 249.296875 51.8125 L 249.339844 53.125 L 249.527344 50.75 L 252.480469 50.75 L 252.554688 48.570312 L 252.625 46.390625 L 253.875 46.042969 C 255.136719 45.691406 255.417969 45.5625 255.230469 45.425781 C 255.171875 45.382812 254.476562 45.558594 253.6875 45.816406 M 138.347656 47.4375 C 138.171875 48.167969 136.1875 52.824219 133.273438 59.332031 C 132.296875 61.507812 131.503906 63.363281 131.507812 63.457031 C 131.523438 63.765625 132.21875 62.402344 133.269531 60 C 133.839844 58.695312 135.195312 55.648438 136.277344 53.230469 C 137.363281 50.816406 138.25 48.699219 138.25 48.527344 C 138.25 48.359375 138.363281 48.289062 138.5 48.375 C 138.648438 48.46875 138.75 48.167969 138.75 47.640625 C 138.75 46.578125 138.570312 46.488281 138.347656 47.4375 M 118.757812 57.5625 C 118.753906 65.113281 118.828125 68.25 119.023438 68.25 C 119.214844 68.25 119.269531 65.394531 119.210938 58.398438 C 119.164062 52.980469 119.210938 48.675781 119.320312 48.835938 C 119.570312 49.207031 119.25 47.75 118.972656 47.25 C 118.859375 47.042969 118.761719 51.683594 118.757812 57.5625 M 119.507812 49.28125 C 119.5 49.449219 119.875 50.316406 122.132812 55.316406 C 122.925781 57.074219 123.613281 58.46875 123.660156 58.421875 C 123.710938 58.371094 122.917969 56.464844 121.898438 54.183594 C 120.074219 50.097656 119.523438 48.972656 119.507812 49.28125 M 138.304688 58.8125 C 138.273438 64.003906 138.335938 68.25 138.4375 68.25 C 138.609375 68.25 138.605469 60.835938 138.429688 52.625 C 138.390625 50.835938 138.335938 53.621094 138.304688 58.8125 M 160.988281 50.324219 C 158.539062 51.019531 156.203125 53.183594 155.242188 55.636719 C 154.769531 56.847656 154.660156 57.613281 154.652344 59.75 C 154.640625 62.117188 154.710938 62.527344 155.355469 63.9375 C 156.136719 65.652344 157.5625 67.132812 159.289062 68.027344 C 160.113281 68.457031 160.917969 68.617188 162.625 68.691406 C 163.863281 68.746094 165.140625 68.691406 165.464844 68.566406 C 165.859375 68.417969 165.316406 68.378906 163.839844 68.449219 C 161.25 68.570312 160.035156 68.296875 158.414062 67.222656 C 156.027344 65.644531 154.921875 63.273438 154.929688 59.75 C 154.929688 57.035156 155.480469 55.222656 156.84375 53.429688 C 158.882812 50.746094 163.253906 49.601562 166.9375 50.777344 C 167.710938 51.027344 167.75 51.101562 167.75 52.269531 C 167.75 53.605469 167.6875 53.660156 166.75 53.125 C 166.40625 52.929688 165.964844 52.765625 165.769531 52.757812 C 165.574219 52.753906 165.96875 53.03125 166.644531 53.375 C 167.320312 53.71875 167.902344 54 167.9375 54 C 167.972656 54 168 53.28125 168 52.398438 C 168 50.820312 167.988281 50.792969 167.1875 50.5 C 165.960938 50.054688 162.3125 49.949219 160.988281 50.324219 M 177.875 50.355469 C 177.101562 50.703125 175.773438 51.996094 175.289062 52.875 C 175.0625 53.289062 175.015625 53.121094 175.007812 51.9375 L 175 50.5 L 172 50.5 L 172 59.375 C 172 64.257812 172.085938 68.25 172.1875 68.25 C 172.289062 68.25 172.34375 64.3125 172.304688 59.5 L 172.238281 50.75 L 174.75 50.75 L 174.765625 52.4375 C 174.777344 53.839844 174.828125 54.046875 175.078125 53.65625 C 176.160156 51.957031 176.476562 51.578125 177.222656 51.074219 C 178.1875 50.421875 179.476562 50.128906 180.375 50.351562 C 180.933594 50.492188 181 50.636719 181 51.710938 L 181 52.914062 L 180.1875 52.800781 C 179.085938 52.644531 179.390625 52.890625 180.5625 53.101562 L 181.5 53.273438 L 181.5 51.9375 C 181.5 51.203125 181.363281 50.464844 181.199219 50.300781 C 180.800781 49.902344 178.816406 49.933594 177.875 50.355469 M 189.429688 50.273438 C 187.390625 50.753906 185.527344 52.042969 184.472656 53.707031 C 184.074219 54.335938 183.75 54.960938 183.75 55.097656 C 183.75 55.234375 184.070312 54.84375 184.460938 54.226562 C 186.15625 51.554688 188.519531 50.375 192.125 50.394531 C 194.675781 50.40625 196 50.859375 197.589844 52.253906 C 200.039062 54.402344 200.910156 59.289062 199.578125 63.375 C 199.277344 64.289062 198.742188 65.054688 197.582031 66.214844 C 196.453125 67.34375 196.230469 67.65625 196.808594 67.300781 C 197.886719 66.632812 199.398438 64.652344 199.890625 63.25 C 200.425781 61.738281 200.628906 58.410156 200.285156 56.808594 C 199.589844 53.554688 197.75 51.328125 195.085938 50.503906 C 193.367188 49.976562 191.089844 49.882812 189.429688 50.273438 M 207.679688 50.429688 C 206.152344 50.9375 204.371094 52.496094 203.988281 53.660156 C 203.5625 54.953125 203.796875 57.011719 204.476562 57.96875 C 205.003906 58.707031 207.300781 60.246094 207.875 60.246094 C 208.011719 60.246094 207.617188 59.957031 207 59.601562 C 204.835938 58.371094 204 57.175781 204 55.3125 C 204 51.839844 208.203125 49.542969 212.75 50.527344 L 214.375 50.878906 L 214.453125 52.09375 L 214.53125 53.3125 L 213.828125 53.152344 L 213.125 52.996094 L 213.75 53.363281 C 214.09375 53.566406 214.464844 53.734375 214.574219 53.742188 C 214.683594 53.746094 214.742188 53.054688 214.699219 52.203125 L 214.625 50.65625 L 213.375 50.332031 C 211.695312 49.898438 209.140625 49.941406 207.679688 50.429688 M 224.75 50.339844 C 223.21875 50.785156 222.617188 51.132812 221.316406 52.332031 C 219.25 54.234375 218.292969 57.167969 218.589844 60.703125 C 218.886719 64.273438 220.890625 67.113281 223.910156 68.242188 C 225.769531 68.9375 228.738281 68.933594 230.601562 68.238281 C 233.019531 67.332031 235.140625 64.964844 235.625 62.625 C 235.710938 62.210938 235.503906 62.523438 235.167969 63.316406 C 234.285156 65.386719 232.996094 66.84375 231.308594 67.671875 C 230.011719 68.308594 229.621094 68.375 227.25 68.375 C 225.089844 68.375 224.417969 68.28125 223.460938 67.835938 C 220.101562 66.285156 218.246094 62.105469 218.972656 57.71875 C 219.660156 53.550781 221.722656 51.304688 225.597656 50.503906 C 228.484375 49.910156 231.871094 50.78125 233.535156 52.554688 C 234.996094 54.109375 235.585938 55.804688 235.777344 59 L 235.949219 61.875 L 235.894531 58.875 C 235.84375 56.191406 235.769531 55.726562 235.160156 54.460938 C 234.378906 52.824219 232.933594 51.417969 231.28125 50.675781 C 229.855469 50.039062 226.410156 49.859375 224.75 50.339844 M 255.25 50.5625 C 255.25 50.664062 256.199219 50.75 257.359375 50.75 L 259.46875 50.75 L 259.671875 52.375 L 259.710938 51.457031 L 259.75 50.535156 L 257.5 50.457031 C 256.261719 50.410156 255.25 50.460938 255.25 50.5625 M 147.25 59.363281 C 147.25 64.25 147.335938 68.25 147.4375 68.25 C 147.539062 68.25 147.59375 64.3125 147.554688 59.5 L 147.488281 50.75 L 150.261719 50.75 L 150.195312 59.5 C 150.15625 64.3125 150.210938 68.25 150.316406 68.25 C 150.421875 68.25 150.476562 64.285156 150.441406 59.4375 L 150.375 50.625 L 147.25 50.476562 L 147.25 59.363281 M 133.308594 52.9375 C 131.835938 56.082031 129.78125 60.699219 129.304688 61.9375 C 129.078125 62.523438 128.832031 63 128.757812 63 C 128.683594 63 128.414062 62.488281 128.15625 61.863281 C 127.902344 61.238281 127.648438 60.765625 127.601562 60.816406 C 127.46875 60.945312 128.59375 63.75 128.777344 63.75 C 128.863281 63.75 129.132812 63.214844 129.375 62.5625 C 129.617188 61.910156 130.875 59.027344 132.167969 56.152344 C 133.460938 53.28125 134.476562 50.890625 134.425781 50.839844 C 134.375 50.789062 133.871094 51.734375 133.308594 52.9375 M 161.25 52.898438 C 160.769531 53.105469 160.054688 53.582031 159.664062 53.953125 C 158.945312 54.632812 157.875 56.457031 158.074219 56.65625 C 158.132812 56.71875 158.320312 56.429688 158.492188 56.015625 C 158.988281 54.820312 161.039062 53.058594 162.160156 52.871094 C 163.527344 52.640625 163.738281 52.539062 162.875 52.53125 C 162.460938 52.523438 161.730469 52.691406 161.25 52.898438 M 124.136719 53.121094 C 124.378906 53.972656 127.324219 60.511719 127.417969 60.414062 C 127.46875 60.363281 127.109375 59.378906 126.621094 58.222656 C 125.609375 55.84375 123.921875 52.371094 124.136719 53.121094 M 188.746094 53.207031 C 186.097656 54.601562 184.976562 59.492188 186.511719 62.957031 C 187.558594 65.324219 189.179688 66.355469 191.875 66.367188 C 194.351562 66.378906 195.664062 65.589844 196.730469 63.460938 C 197.421875 62.078125 197.5 61.6875 197.5 59.648438 C 197.496094 57.085938 197.25 55.945312 196.429688 54.726562 C 195.859375 53.878906 194.410156 52.75 193.902344 52.75 C 193.75 52.75 194.015625 52.992188 194.496094 53.28125 C 196.253906 54.351562 197.03125 55.933594 197.191406 58.757812 C 197.445312 63.191406 195.96875 65.550781 192.589844 66.113281 C 190.515625 66.457031 187.875 65.214844 186.988281 63.476562 C 186.078125 61.695312 185.941406 58 186.707031 55.984375 C 187.078125 55.015625 188.207031 53.785156 189.21875 53.25 C 189.714844 52.988281 190.011719 52.765625 189.871094 52.761719 C 189.730469 52.753906 189.226562 52.957031 188.746094 53.207031 M 207.363281 53.363281 C 206.898438 53.828125 206.75 54.242188 206.75 55.066406 C 206.75 56.546875 207.46875 57.191406 210.722656 58.601562 C 213.542969 59.824219 214.378906 60.441406 214.90625 61.679688 C 215.902344 64.019531 214.90625 66.515625 212.5 67.699219 C 210.738281 68.566406 207.539062 68.765625 205.398438 68.140625 L 204 67.734375 L 204 65.023438 L 205.296875 65.625 C 208.015625 66.882812 211.355469 66.660156 212.269531 65.15625 C 213.308594 63.457031 212.59375 62.101562 210.050781 60.949219 C 209.167969 60.546875 208.398438 60.269531 208.339844 60.328125 C 208.28125 60.386719 208.855469 60.6875 209.617188 60.996094 C 211.449219 61.742188 212.605469 63.027344 212.398438 64.097656 C 212.058594 65.878906 209.820312 66.617188 206.980469 65.890625 C 206.121094 65.667969 205.050781 65.261719 204.605469 64.988281 C 203.648438 64.398438 203.578125 64.519531 203.746094 66.445312 L 203.875 67.875 L 205.125 68.300781 C 206.558594 68.789062 209.742188 68.886719 211.328125 68.484375 C 212.796875 68.113281 214.707031 66.660156 215.183594 65.546875 C 215.765625 64.199219 215.667969 62.148438 214.972656 61.140625 C 214.238281 60.066406 212.585938 58.976562 210.195312 58 C 207.464844 56.882812 207 56.464844 207 55.128906 C 207 54.226562 207.128906 53.9375 207.769531 53.398438 C 208.191406 53.042969 208.410156 52.75 208.257812 52.75 C 208.101562 52.75 207.703125 53.027344 207.363281 53.363281 M 224.351562 53.222656 C 223.078125 54 221.730469 56.078125 221.761719 57.21875 C 221.765625 57.441406 221.921875 57.199219 222.109375 56.679688 C 222.632812 55.214844 223.53125 54.03125 224.625 53.363281 C 225.175781 53.027344 225.511719 52.753906 225.375 52.753906 C 225.238281 52.753906 224.777344 52.964844 224.351562 53.222656 M 230.003906 53.214844 C 230.484375 53.46875 231.242188 54.152344 231.6875 54.734375 C 232.601562 55.921875 232.761719 55.855469 231.988281 54.605469 C 231.464844 53.761719 230.09375 52.75 229.472656 52.75 C 229.285156 52.75 229.523438 52.957031 230.003906 53.214844 M 176.5625 53.8125 C 175.03125 55.394531 174.898438 56.03125 174.753906 62.4375 C 174.671875 66.234375 174.710938 68.25 174.875 68.25 C 175.035156 68.25 175.125 66.226562 175.128906 62.6875 C 175.132812 56.324219 175.28125 55.542969 176.75 54.027344 C 177.300781 53.460938 177.660156 53 177.546875 53 C 177.4375 53 176.996094 53.367188 176.5625 53.8125 M 241.367188 60.625 C 241.363281 64.820312 241.445312 68.25 241.554688 68.25 C 241.660156 68.25 241.75 64.820312 241.75 60.625 C 241.75 56.429688 241.664062 53 241.5625 53 C 241.460938 53 241.371094 56.433594 241.367188 60.625 M 244.304688 60.6875 C 244.355469 68.394531 244.441406 67.523438 244.5625 58.0625 C 244.597656 55.277344 244.539062 53 244.4375 53 C 244.335938 53 244.273438 56.460938 244.304688 60.6875 M 252.300781 58.75 C 252.269531 62.355469 252.359375 65.011719 252.523438 65.625 C 252.847656 66.808594 253.8125 67.929688 254.929688 68.40625 C 255.863281 68.804688 258.175781 68.859375 259.109375 68.507812 C 259.679688 68.289062 259.75 68.125 259.75 66.988281 C 259.75 65.777344 259.722656 65.726562 259.1875 65.917969 C 258.878906 66.03125 258.199219 66.117188 257.683594 66.109375 C 256.515625 66.097656 255.753906 65.398438 255.472656 64.082031 L 255.265625 63.125 L 255.363281 64.222656 C 255.511719 65.867188 256.152344 66.382812 258.007812 66.347656 L 259.5 66.320312 L 259.5 67.273438 C 259.5 68.167969 259.445312 68.238281 258.613281 68.394531 C 257.1875 68.660156 255.050781 68.386719 254.320312 67.839844 C 253.957031 67.570312 253.425781 66.902344 253.140625 66.359375 C 252.671875 65.464844 252.613281 64.804688 252.484375 59.125 L 252.347656 52.875 L 252.300781 58.75 M 221.585938 59.5 C 221.585938 60.53125 221.628906 60.953125 221.683594 60.4375 C 221.734375 59.921875 221.734375 59.078125 221.683594 58.5625 C 221.628906 58.046875 221.585938 58.46875 221.585938 59.5 M 157.582031 59.625 C 157.582031 60.585938 157.628906 60.949219 157.683594 60.433594 C 157.738281 59.914062 157.734375 59.125 157.679688 58.683594 C 157.625 58.238281 157.582031 58.664062 157.582031 59.625 M 232.964844 59.878906 C 232.6875 63.34375 231.488281 65.199219 229.058594 65.90625 C 226.066406 66.773438 223.230469 65.316406 222.144531 62.351562 C 221.925781 61.761719 221.777344 61.574219 221.769531 61.875 C 221.738281 62.871094 223.191406 64.945312 224.4375 65.675781 C 225.980469 66.585938 228.5625 66.667969 230.125 65.859375 C 232.0625 64.855469 233.382812 61.941406 233.203125 59.078125 C 233.136719 58.074219 233.097656 58.207031 232.964844 59.878906 M 123.757812 58.828125 C 123.746094 59.144531 127.785156 67.992188 128 68.125 C 128.105469 68.191406 127.328125 66.304688 126.269531 63.933594 C 124.332031 59.59375 123.773438 58.453125 123.757812 58.828125 M 157.882812 62.125 C 158.550781 65.667969 162.878906 67.488281 166.4375 65.726562 L 167.75 65.078125 L 167.75 66.257812 C 167.75 67.335938 167.683594 67.464844 166.992188 67.753906 C 166.574219 67.925781 166.285156 68.117188 166.34375 68.175781 C 166.402344 68.238281 166.800781 68.105469 167.226562 67.886719 C 167.949219 67.515625 168 67.394531 168 66.117188 C 168 65.367188 167.925781 64.75 167.835938 64.75 C 167.746094 64.75 167.042969 65.058594 166.273438 65.4375 C 162.910156 67.089844 159.453125 65.769531 158.113281 62.324219 C 157.804688 61.53125 157.765625 61.496094 157.882812 62.125 M 131.179688 64.050781 C 131.105469 64.230469 130.644531 65.246094 130.15625 66.3125 C 129.664062 67.378906 129.347656 68.25 129.453125 68.25 C 129.660156 68.25 131.546875 63.964844 131.402344 63.820312 C 131.351562 63.769531 131.253906 63.875 131.179688 64.050781 M 183.75 63.910156 C 183.75 64.445312 185.664062 66.816406 186.5 67.316406 C 187.308594 67.796875 187.292969 67.761719 186.273438 66.863281 C 185.667969 66.332031 184.851562 65.390625 184.460938 64.773438 C 184.070312 64.15625 183.75 63.765625 183.75 63.910156 M 194.375 68.175781 C 193.671875 68.433594 192.679688 68.511719 191.042969 68.445312 C 189.519531 68.382812 188.914062 68.425781 189.292969 68.570312 C 190.222656 68.925781 194.265625 68.65625 195.125 68.183594 C 196.035156 67.683594 195.726562 67.679688 194.375 68.175781 M 21 75.847656 C 21 76.5 21.976562 79.855469 22.125 79.707031 C 22.175781 79.660156 22 78.835938 21.734375 77.875 C 21.46875 76.917969 21.25 75.992188 21.25 75.820312 C 21.25 75.570312 24.257812 75.492188 35.6875 75.4375 L 50.125 75.371094 L 35.5625 75.308594 L 21 75.25 L 21 75.847656 M 54.78125 94.6875 C 54.730469 105.378906 54.65625 114.160156 54.617188 114.207031 C 54.476562 114.367188 52.8125 113.394531 49.875 111.429688 C 40.875 105.40625 32.554688 97.480469 27.832031 90.433594 C 26.894531 89.03125 25.355469 86.363281 24.417969 84.503906 C 23.476562 82.644531 22.789062 81.40625 22.886719 81.75 C 23.191406 82.808594 25.496094 87.269531 26.832031 89.375 C 31.433594 96.632812 39.695312 104.804688 48.625 110.933594 C 51.597656 112.972656 54.601562 114.746094 54.777344 114.5625 C 55.039062 114.285156 55.355469 75.25 55.09375 75.25 C 54.972656 75.25 54.835938 83.773438 54.78125 94.6875 M 59.8125 91.6875 L 59.871094 108.125 L 59.9375 91.8125 L 60.003906 75.503906 L 76.4375 75.4375 L 92.875 75.371094 L 76.3125 75.3125 L 59.75 75.25 L 59.8125 91.6875 M 163.722656 76.09375 C 162.28125 76.609375 161.402344 77.371094 160.652344 78.742188 C 160.082031 79.792969 159.933594 80.4375 159.816406 82.382812 L 159.675781 84.75 L 156.75 84.75 L 156.835938 86.875 L 157.03125 85 L 158.488281 85 C 160.238281 85 160.25 84.980469 160.25 82.09375 C 160.25 80.484375 160.367188 79.75 160.742188 79.015625 C 161.765625 77.007812 164.273438 75.75 166.492188 76.125 C 167.484375 76.292969 167.5 76.3125 167.5 77.355469 L 167.5 78.417969 L 166.160156 78.304688 C 163.601562 78.09375 162.753906 79.183594 162.75 82.6875 L 162.75 85 L 166.75 85 L 166.75 86.980469 L 164.8125 87.050781 L 162.875 87.125 L 162.742188 102.25 L 160.125 102.25 L 160.195312 94.972656 C 160.246094 89.753906 160.183594 87.597656 159.976562 87.347656 C 159.804688 87.136719 159.28125 87.015625 158.65625 87.042969 L 157.625 87.085938 L 158.6875 87.183594 L 159.75 87.277344 L 159.75 102.5 L 163 102.5 L 163 87.25 L 166.949219 87.25 L 167.039062 86.105469 C 167.089844 85.480469 167.082031 84.917969 167.023438 84.855469 C 166.964844 84.796875 166.035156 84.75 164.957031 84.75 L 163 84.75 L 163 83.03125 C 163 80.71875 163.195312 79.878906 163.925781 79.097656 C 164.496094 78.480469 164.648438 78.441406 166.144531 78.5625 L 167.75 78.691406 L 167.75 77.464844 C 167.75 76.378906 167.675781 76.210938 167.109375 75.992188 C 166.238281 75.664062 164.8125 75.703125 163.722656 76.09375 M 220.25 81.535156 L 220.25 86.816406 L 219.742188 86.175781 C 219.464844 85.820312 218.621094 85.226562 217.863281 84.859375 C 216.640625 84.257812 216.28125 84.199219 214.558594 84.300781 C 210.316406 84.554688 207.652344 87.328125 206.960938 92.203125 C 206.453125 95.792969 207.289062 99.039062 209.210938 100.960938 C 210.867188 102.617188 211.546875 102.875 214.25 102.875 C 216.386719 102.875 216.742188 102.804688 217.785156 102.191406 C 218.425781 101.816406 219.242188 101.160156 219.597656 100.734375 L 220.25 99.960938 L 220.25 101.1875 C 220.25 101.863281 220.296875 102.464844 220.355469 102.519531 C 220.410156 102.578125 221.085938 102.585938 221.855469 102.539062 L 223.25 102.453125 L 223.25 76.25 L 220.25 76.25 L 220.25 81.535156 M 220.5 81.707031 C 220.5 84.574219 220.433594 86.980469 220.355469 87.0625 C 220.273438 87.140625 219.8125 86.765625 219.324219 86.226562 C 217.191406 83.867188 212.265625 84.023438 209.757812 86.53125 C 207.933594 88.355469 206.804688 92.183594 207.152344 95.367188 C 207.738281 100.742188 211.222656 103.511719 216.132812 102.5 C 217.414062 102.238281 217.8125 102.007812 218.9375 100.886719 C 219.65625 100.167969 220.304688 99.636719 220.375 99.707031 C 220.441406 99.777344 220.5 100.378906 220.5 101.042969 L 220.5 102.25 L 223 102.25 L 223 76.5 L 220.5 76.5 L 220.5 81.707031 M 93.148438 78.152344 C 92.898438 78.949219 92.101562 80.984375 91.378906 82.675781 C 90.652344 84.367188 90.113281 85.75 90.171875 85.75 C 90.605469 85.75 93.886719 77.53125 93.6875 76.941406 C 93.644531 76.808594 93.402344 77.351562 93.148438 78.152344 M 116 90.148438 L 116 102.542969 L 121.1875 102.445312 C 124.570312 102.378906 126.59375 102.238281 127 102.039062 L 127.625 101.734375 L 127 101.898438 C 126.65625 101.988281 124.097656 102.117188 121.3125 102.183594 L 116.25 102.300781 L 116.25 78.011719 L 126.125 77.863281 L 121.0625 77.808594 L 116 77.75 L 116 90.148438 M 130.75 79.535156 C 134.351562 81.722656 135.78125 84.632812 135.832031 89.875 C 135.855469 92.308594 135.898438 92.636719 136.058594 91.625 C 136.441406 89.222656 135.828125 85.363281 134.726562 83.203125 C 134.460938 82.6875 133.882812 81.847656 133.4375 81.339844 C 132.621094 80.410156 130.632812 79 130.136719 79 C 129.992188 79 130.269531 79.242188 130.75 79.535156 M 119 90.125 L 119 100 L 121.613281 100 C 123.050781 100 124.820312 99.875 125.550781 99.722656 C 129.734375 98.839844 132.367188 95.976562 132.980469 91.632812 C 133.28125 89.511719 132.964844 86.703125 132.257812 85.195312 C 130.578125 81.628906 127.722656 80.261719 121.9375 80.253906 L 119 80.25 L 119 90.125 M 119.25 90.125 L 119.25 99.824219 L 122.3125 99.679688 C 125.777344 99.515625 127.363281 99.117188 129.101562 97.960938 C 131.5 96.375 132.753906 93.605469 132.746094 89.910156 C 132.738281 85.0625 130.957031 82.269531 127.125 81.101562 C 126.4375 80.890625 124.382812 80.652344 122.5625 80.574219 L 119.25 80.425781 L 119.25 90.125 M 144.550781 84.667969 C 143.957031 84.878906 142.820312 85.65625 142.019531 86.398438 C 140.367188 87.925781 139.53125 89.566406 139.371094 91.578125 L 139.265625 92.875 L 139.488281 91.695312 C 139.78125 90.105469 140.75 88.050781 141.730469 86.9375 C 142.171875 86.433594 143.171875 85.710938 143.945312 85.328125 C 145.105469 84.761719 145.695312 84.636719 147.242188 84.636719 C 149.445312 84.632812 150.71875 85.019531 151.886719 86.042969 C 153.007812 87.027344 153.660156 88.125 154.101562 89.769531 C 154.304688 90.515625 154.472656 90.875 154.484375 90.570312 C 154.519531 89.410156 153.4375 87.171875 152.324219 86.085938 C 150.535156 84.351562 147.183594 83.738281 144.550781 84.667969 M 174.75 84.484375 C 172.628906 85.128906 170.683594 86.824219 169.710938 88.875 C 169.320312 89.699219 169.003906 90.542969 169.007812 90.75 C 169.007812 90.957031 169.277344 90.476562 169.605469 89.683594 C 170.980469 86.339844 173.410156 84.621094 176.75 84.628906 C 179.769531 84.640625 181.34375 85.445312 182.792969 87.730469 C 183.179688 88.34375 183.5 88.734375 183.5 88.597656 C 183.5 88.09375 182.039062 86.0625 181.296875 85.53125 C 179.6875 84.386719 176.660156 83.902344 174.75 84.484375 M 194.699219 84.496094 C 193.871094 84.746094 192.566406 85.652344 191.820312 86.496094 L 191.265625 87.125 L 191.25 84.75 L 188 84.75 L 188 102.5 L 191.25 102.5 L 191.132812 90.625 L 190.992188 102.25 L 188.25 102.25 L 188.25 85 L 191 85 L 191 87.863281 L 191.769531 86.933594 C 193.46875 84.867188 196.40625 84.015625 198.925781 84.851562 C 200.308594 85.308594 201.234375 86.148438 202.003906 87.632812 C 202.3125 88.230469 202.453125 88.375 202.359375 88 C 201.792969 85.757812 199.558594 84.238281 196.875 84.273438 C 196.050781 84.285156 195.070312 84.382812 194.699219 84.496094 M 233.175781 84.597656 C 231.65625 85.160156 230.316406 86.167969 229.382812 87.441406 C 228.902344 88.09375 228.507812 88.726562 228.507812 88.851562 C 228.503906 88.972656 228.816406 88.636719 229.207031 88.101562 C 230.785156 85.921875 232.460938 84.875 234.804688 84.601562 C 239.429688 84.058594 242.28125 86.726562 242.753906 92.039062 L 242.960938 94.375 L 242.902344 92 C 242.835938 89.320312 242.382812 87.988281 240.996094 86.410156 C 239.734375 84.972656 238.460938 84.429688 236.125 84.328125 C 234.820312 84.273438 233.796875 84.363281 233.175781 84.597656 M 252.660156 84.835938 C 252.132812 85.15625 251.371094 85.902344 250.972656 86.496094 L 250.25 87.574219 L 250.25 84.75 L 247.25 84.75 L 247.25 102.5 L 250.210938 102.5 L 250.300781 96.6875 C 250.378906 91.757812 250.460938 90.714844 250.847656 89.816406 C 251.375 88.585938 252.773438 87.257812 253.570312 87.230469 C 253.875 87.21875 253.980469 87.152344 253.800781 87.082031 C 253.214844 86.84375 252.050781 87.527344 251.375 88.5 C 250.1875 90.214844 250 91.371094 250 97.039062 L 250 102.25 L 247.5 102.25 L 247.5 85 L 249.976562 85 L 250.125 88.375 L 250.671875 87.351562 C 251.472656 85.855469 252.773438 84.816406 254.085938 84.617188 C 255.902344 84.347656 256.113281 84.464844 256.203125 85.816406 C 256.273438 86.960938 256.253906 87 255.578125 87.023438 L 254.875 87.042969 L 255.601562 87.261719 C 256.003906 87.378906 256.425781 87.421875 256.539062 87.347656 C 256.78125 87.199219 256.824219 85.234375 256.597656 84.644531 C 256.347656 83.996094 253.851562 84.113281 252.660156 84.835938 M 88.246094 88.6875 C 85.183594 93.726562 79.570312 100.140625 74.25 104.671875 C 71.082031 107.375 64.746094 111.847656 61.4375 113.722656 C 60.054688 114.507812 59.761719 114.75 60.210938 114.75 C 60.550781 114.75 66.707031 110.722656 69.773438 108.492188 C 76.175781 103.839844 82.132812 97.917969 86.339844 92.015625 C 87.988281 89.703125 89.929688 86.5 89.679688 86.5 C 89.625 86.5 88.980469 87.484375 88.246094 88.6875 M 145.125 87.144531 C 144.1875 87.632812 143.527344 88.222656 143.195312 88.871094 C 143.054688 89.152344 143.382812 88.949219 143.9375 88.417969 C 144.484375 87.894531 145.371094 87.308594 145.902344 87.117188 C 146.464844 86.917969 146.664062 86.769531 146.375 86.761719 C 146.101562 86.757812 145.539062 86.929688 145.125 87.144531 M 148.558594 87.027344 C 149.6875 87.355469 150.878906 88.648438 151.234375 89.929688 C 151.769531 91.863281 152.039062 91.75 146.890625 91.75 L 142.285156 91.75 L 142.511719 90.953125 C 142.640625 90.515625 142.695312 90.109375 142.636719 90.050781 C 142.488281 89.902344 142.050781 91.582031 142.175781 91.8125 C 142.234375 91.914062 144.410156 92 147.015625 92 L 151.75 92 L 151.75 91.054688 C 151.75 89.90625 150.855469 88.070312 150 87.453125 C 149.65625 87.207031 148.980469 86.949219 148.5 86.882812 L 147.625 86.757812 L 148.558594 87.027344 M 174.496094 87.207031 C 173.65625 87.648438 171.988281 89.753906 172.011719 90.339844 C 172.015625 90.496094 172.230469 90.230469 172.488281 89.75 C 173.132812 88.542969 174.261719 87.527344 175.410156 87.117188 C 175.984375 86.910156 176.171875 86.765625 175.871094 86.761719 C 175.59375 86.753906 174.976562 86.957031 174.496094 87.207031 M 177.902344 86.988281 C 179.5625 87.382812 180.648438 88.6875 180.910156 90.605469 L 181.066406 91.75 L 176.550781 91.75 C 172.066406 91.75 172.035156 91.746094 171.925781 91.1875 C 171.832031 90.707031 171.8125 90.722656 171.785156 91.3125 L 171.75 92 L 181.25 92 L 181.25 91.054688 C 181.25 89.054688 179.347656 86.714844 177.777344 86.777344 C 177.167969 86.800781 177.175781 86.8125 177.902344 86.988281 M 193.769531 87.1875 C 192.902344 87.628906 191.304688 89.386719 191.546875 89.628906 C 191.617188 89.703125 191.945312 89.363281 192.277344 88.875 C 192.613281 88.378906 193.414062 87.71875 194.113281 87.371094 C 194.792969 87.027344 195.183594 86.75 194.988281 86.75 C 194.789062 86.75 194.238281 86.949219 193.769531 87.1875 M 196.953125 86.996094 C 197.8125 87.199219 198.832031 88.003906 199.335938 88.875 C 199.523438 89.203125 199.667969 91.621094 199.75 95.875 L 199.875 102.375 L 203 102.523438 L 202.882812 89.875 L 202.742188 102.25 L 200.300781 102.25 L 200.207031 96.1875 C 200.117188 90.636719 200.0625 90.027344 199.570312 88.945312 C 198.984375 87.65625 197.789062 86.734375 196.75 86.777344 C 196.226562 86.796875 196.257812 86.832031 196.953125 86.996094 M 212.835938 87.265625 C 212.265625 87.546875 211.507812 88.199219 211.148438 88.714844 C 210.265625 89.992188 210.320312 90.320312 211.214844 89.089844 C 212.03125 87.960938 212.824219 87.386719 214.03125 87.039062 C 214.542969 86.890625 214.679688 86.785156 214.375 86.773438 C 214.101562 86.761719 213.40625 86.980469 212.835938 87.265625 M 216.375 86.980469 C 218.085938 87.394531 219.550781 88.835938 220.019531 90.558594 C 220.429688 92.078125 220.199219 96.140625 219.636719 97.25 C 218.78125 98.941406 217.179688 100.25 215.972656 100.25 C 215.664062 100.25 215.488281 100.320312 215.570312 100.40625 C 215.914062 100.746094 217.5625 100.179688 218.421875 99.425781 C 218.921875 98.984375 219.558594 98.121094 219.828125 97.503906 C 220.453125 96.089844 220.691406 92.335938 220.265625 90.570312 C 219.761719 88.464844 217.867188 86.699219 216.195312 86.777344 C 215.734375 86.796875 215.769531 86.835938 216.375 86.980469 M 232.960938 87.472656 C 231.765625 88.226562 230.5 90.261719 230.5 91.425781 L 230.5 92 L 235.3125 91.941406 L 240.125 91.886719 L 235.4375 91.8125 C 231.9375 91.757812 230.75 91.660156 230.753906 91.433594 C 230.753906 91.261719 231.023438 90.550781 231.351562 89.847656 C 232.003906 88.441406 233.296875 87.292969 234.566406 86.992188 C 235.28125 86.824219 235.300781 86.796875 234.738281 86.777344 C 234.386719 86.761719 233.585938 87.074219 232.960938 87.472656 M 236.125 86.871094 C 236.261719 86.917969 236.679688 87.023438 237.054688 87.105469 C 237.425781 87.1875 238.152344 87.675781 238.667969 88.191406 C 239.308594 88.832031 239.480469 88.929688 239.214844 88.5 C 238.667969 87.628906 237.300781 86.746094 236.527344 86.769531 C 236.167969 86.78125 235.988281 86.828125 236.125 86.871094 M 227.859375 90.644531 C 227.382812 92.28125 227.464844 96.238281 228.003906 97.699219 C 228.457031 98.925781 228.507812 98.5625 228.105469 97.007812 C 227.644531 95.238281 227.652344 92.15625 228.117188 90.613281 C 228.316406 89.945312 228.4375 89.351562 228.378906 89.296875 C 228.324219 89.242188 228.089844 89.847656 227.859375 90.644531 M 154.460938 92.75 C 154.414062 93.574219 154.460938 94.25 154.5625 94.25 C 154.664062 94.25 154.75 93.574219 154.75 92.75 C 154.75 90.8125 154.570312 90.8125 154.460938 92.75 M 209.835938 93.75 C 209.835938 94.78125 209.878906 95.203125 209.933594 94.6875 C 209.984375 94.171875 209.984375 93.328125 209.933594 92.8125 C 209.878906 92.296875 209.835938 92.71875 209.835938 93.75 M 171.5 94.488281 C 171.5 95.402344 172.148438 97.390625 172.769531 98.363281 C 173.546875 99.59375 175.058594 100.507812 176.25 100.46875 C 176.820312 100.449219 176.808594 100.433594 176.125 100.265625 C 173.628906 99.660156 172.054688 97.734375 171.921875 95.132812 C 171.894531 94.648438 171.789062 94.25 171.6875 94.25 C 171.585938 94.25 171.5 94.355469 171.5 94.488281 M 230.402344 95.0625 C 230.96875 98.304688 232.878906 100.523438 235.078125 100.492188 C 235.378906 100.488281 235.035156 100.28125 234.3125 100.03125 C 233.589844 99.78125 232.761719 99.363281 232.472656 99.101562 C 231.683594 98.386719 230.988281 96.863281 230.828125 95.484375 C 230.746094 94.804688 230.585938 94.25 230.472656 94.25 C 230.355469 94.25 230.328125 94.617188 230.402344 95.0625 M 134.601562 95.808594 C 133.898438 97.386719 131.171875 100.015625 129.273438 100.957031 C 128.390625 101.394531 127.804688 101.75 127.96875 101.75 C 128.71875 101.75 131.453125 100.078125 132.601562 98.914062 C 133.78125 97.722656 135.445312 95.109375 135.1875 94.855469 C 135.128906 94.792969 134.863281 95.222656 134.601562 95.808594 M 139.390625 96.125 C 139.527344 97.820312 140.402344 99.839844 141.398438 100.765625 C 141.933594 101.257812 141.863281 101.074219 141.042969 99.796875 C 140.46875 98.902344 139.914062 97.652344 139.765625 96.921875 C 139.316406 94.695312 139.261719 94.582031 139.390625 96.125 M 210.019531 96.195312 C 210.007812 96.371094 210.175781 96.933594 210.386719 97.445312 C 211.082031 99.101562 212.808594 100.53125 214.050781 100.472656 C 214.441406 100.457031 214.3125 100.367188 213.65625 100.191406 C 212.414062 99.863281 210.921875 98.375 210.425781 96.96875 C 210.214844 96.367188 210.03125 96.019531 210.019531 96.195312 M 169.015625 96.875 C 169.007812 97.148438 169.328125 98.0625 169.726562 98.90625 C 171.105469 101.828125 173.789062 103.167969 177.796875 102.9375 C 179.558594 102.839844 180.285156 102.667969 181.4375 102.09375 C 182.867188 101.378906 182.875 101.367188 182.953125 100.15625 C 183.074219 98.242188 182.949219 98.152344 181.5 99.125 C 180.800781 99.597656 179.808594 100.050781 179.300781 100.136719 C 178 100.351562 177.769531 100.457031 178.53125 100.480469 C 179.382812 100.507812 181.089844 99.898438 182.015625 99.238281 L 182.75 98.714844 L 182.75 99.960938 C 182.75 101.179688 182.726562 101.214844 181.671875 101.726562 C 179.378906 102.835938 175.492188 103.023438 173.347656 102.128906 C 171.613281 101.40625 170.015625 99.519531 169.359375 97.417969 C 169.179688 96.84375 169.027344 96.601562 169.015625 96.875 M 142.511719 96.824219 C 142.492188 97.191406 143.445312 98.875 143.921875 99.304688 C 144.550781 99.871094 146.09375 100.503906 146.804688 100.484375 C 147.117188 100.472656 146.835938 100.320312 146.175781 100.144531 C 144.847656 99.785156 143.699219 98.832031 142.988281 97.5 C 142.730469 97.019531 142.515625 96.714844 142.511719 96.824219 M 151.707031 99.277344 C 151.0625 99.6875 150.050781 100.117188 149.457031 100.234375 C 148.734375 100.375 148.589844 100.453125 149.023438 100.472656 C 149.867188 100.507812 151.132812 100.066406 152.3125 99.328125 L 153.25 98.742188 L 153.25 99.972656 C 153.25 101.179688 153.226562 101.21875 152.171875 101.726562 C 149.640625 102.953125 145.707031 103.03125 143.394531 101.902344 L 142.125 101.277344 L 142.863281 101.875 C 143.925781 102.738281 145.703125 103.085938 148.28125 102.9375 C 150.058594 102.835938 150.785156 102.671875 151.9375 102.09375 L 153.375 101.375 L 153.449219 99.9375 C 153.539062 98.246094 153.40625 98.199219 151.707031 99.277344 M 240.089844 99.273438 C 239.382812 99.683594 238.316406 100.121094 237.714844 100.25 L 236.625 100.484375 L 237.648438 100.398438 C 238.492188 100.324219 239.5625 99.933594 241.328125 99.050781 C 241.4375 98.992188 241.496094 99.496094 241.453125 100.160156 L 241.375 101.375 L 239.898438 101.960938 C 238.082031 102.679688 235.355469 102.910156 233.433594 102.511719 C 231.777344 102.167969 230.1875 101.085938 229.269531 99.679688 C 228.9375 99.167969 228.621094 98.796875 228.566406 98.851562 C 228.328125 99.089844 229.6875 100.742188 230.804688 101.570312 C 232.316406 102.6875 234.074219 103.101562 236.664062 102.953125 C 238.695312 102.835938 241.367188 101.890625 241.628906 101.199219 C 241.871094 100.558594 241.871094 98.675781 241.625 98.601562 C 241.488281 98.5625 240.796875 98.863281 240.089844 99.273438 "/>
<path style=" stroke:none;fill-rule:evenodd;fill:rgb(2.352941%,46.27451%,83.529413%);fill-opacity:1;" d="M 60 52.722656 L 60 70.441406 L 77.3125 70.3125 C 89.589844 70.21875 94.679688 70.097656 94.808594 69.902344 C 94.910156 69.75 94.96875 64.054688 94.933594 57.25 L 94.875 44.875 L 91.546875 44.699219 C 82.835938 44.242188 78.324219 42.941406 71.6875 38.96875 C 68.144531 36.851562 65.941406 36.003906 62.324219 35.371094 C 61.148438 35.167969 60.144531 35 60.09375 35 C 60.042969 35 60 42.972656 60 52.722656 M 52.375 35.417969 C 48.078125 36.375 46.910156 36.863281 42.433594 39.582031 C 36.886719 42.949219 31.839844 44.296875 23.25 44.710938 L 19.875 44.875 L 19.875 57 C 19.875 63.667969 19.960938 69.433594 20.066406 69.8125 L 20.257812 70.5 L 55 70.5 L 55 35.25 L 53.9375 35.277344 C 53.351562 35.296875 52.648438 35.359375 52.375 35.417969 M 245.808594 41.996094 C 244.503906 42.304688 243.054688 43.414062 242.460938 44.5625 C 242.046875 45.363281 241.875 46.242188 241.769531 48.125 L 241.625 50.625 L 238.75 50.773438 L 238.75 53 L 241.75 53 L 241.75 68.25 L 244.25 68.25 L 244.25 53.019531 L 246.3125 52.949219 L 248.375 52.875 L 248.375 50.875 L 246.3125 50.800781 L 244.25 50.730469 L 244.25 48.925781 C 244.253906 46.859375 244.558594 45.539062 245.234375 44.707031 C 245.640625 44.203125 245.929688 44.125 247.351562 44.125 L 249 44.125 L 249 43.09375 C 249 42.140625 248.941406 42.050781 248.21875 41.90625 C 247.292969 41.722656 246.898438 41.734375 245.808594 41.996094 M 147.925781 43.003906 C 147.101562 43.652344 147.023438 44.773438 147.75 45.5 C 148.433594 46.183594 149.394531 46.128906 150.160156 45.363281 C 151.640625 43.878906 149.582031 41.703125 147.925781 43.003906 M 116.25 55.988281 L 116.25 68.25 L 118.746094 68.25 L 118.808594 57.5625 C 118.871094 47.242188 118.890625 46.917969 119.289062 48.125 C 119.515625 48.8125 120.792969 51.792969 122.128906 54.75 C 123.464844 57.707031 125.363281 61.925781 126.34375 64.125 C 127.925781 67.667969 128.199219 68.125 128.722656 68.125 C 129.238281 68.125 129.484375 67.761719 130.511719 65.5 C 134.363281 57.03125 138.25 48.09375 138.253906 47.695312 C 138.257812 47.519531 138.339844 47.246094 138.441406 47.085938 C 138.542969 46.925781 138.625 51.597656 138.625 57.460938 L 138.625 68.125 L 141.125 68.125 L 141.191406 55.925781 L 141.253906 43.726562 L 139.480469 43.800781 L 137.703125 43.875 L 135.886719 47.875 C 132.296875 55.785156 129.808594 61.394531 129.375 62.5625 C 128.976562 63.628906 128.5 64.144531 128.5 63.507812 C 128.5 63.265625 127.386719 60.640625 124.621094 54.375 C 123.835938 52.585938 122.480469 49.492188 121.613281 47.5 L 120.035156 43.875 L 118.140625 43.800781 L 116.25 43.730469 L 116.25 55.988281 M 253.625 46.089844 L 252.625 46.390625 L 252.554688 48.570312 L 252.480469 50.75 L 249.5 50.75 L 249.5 53 L 252.460938 53 L 252.542969 59.1875 C 252.617188 64.867188 252.667969 65.457031 253.140625 66.359375 C 253.425781 66.902344 253.957031 67.570312 254.320312 67.839844 C 255.050781 68.386719 257.1875 68.660156 258.613281 68.394531 C 259.445312 68.238281 259.5 68.167969 259.5 67.273438 L 259.5 66.320312 L 258.007812 66.347656 C 256.765625 66.371094 256.421875 66.277344 255.945312 65.804688 C 255.386719 65.25 255.375 65.109375 255.300781 59.117188 L 255.226562 53 L 257.339844 53 C 259.628906 53 259.703125 52.953125 259.542969 51.597656 L 259.445312 50.75 L 255.25 50.75 L 255.25 48.25 C 255.25 45.507812 255.304688 45.582031 253.625 46.089844 M 161.3125 50.59375 C 158.554688 51.296875 156.566406 53.117188 155.484375 55.929688 C 154.785156 57.753906 154.703125 61.535156 155.328125 63.191406 C 156.261719 65.667969 158.335938 67.667969 160.609375 68.28125 C 162.0625 68.671875 165.664062 68.433594 166.8125 67.867188 C 167.695312 67.433594 167.75 67.339844 167.75 66.242188 L 167.75 65.078125 L 166.4375 65.726562 C 163.675781 67.09375 160.183594 66.34375 158.742188 64.074219 C 156.894531 61.160156 157.226562 56.527344 159.449219 54.15625 C 161.21875 52.269531 164.054688 51.984375 167.3125 53.367188 C 167.695312 53.53125 167.75 53.398438 167.75 52.300781 C 167.75 51.113281 167.707031 51.035156 166.9375 50.765625 C 165.640625 50.3125 162.761719 50.226562 161.3125 50.59375 M 178 50.648438 C 176.859375 51.144531 176.074219 51.894531 175.414062 53.125 L 174.875 54.125 L 174.726562 50.75 L 172.242188 50.75 L 172.375 68.125 L 174.625 68.125 L 174.75 62.375 C 174.890625 55.984375 175.070312 55.1875 176.734375 53.625 C 177.460938 52.941406 177.683594 52.875 179.265625 52.875 L 181 52.875 L 181 51.714844 C 181 50.886719 180.886719 50.511719 180.605469 50.402344 C 179.949219 50.152344 178.925781 50.246094 178 50.648438 M 189.851562 50.492188 C 187.277344 51.042969 184.980469 52.855469 183.972656 55.128906 C 182.871094 57.621094 182.945312 61.726562 184.140625 64.175781 C 184.980469 65.894531 186.933594 67.636719 188.570312 68.121094 C 190.261719 68.625 193.121094 68.601562 194.785156 68.074219 C 196.613281 67.492188 198.996094 65.15625 199.578125 63.375 C 200.527344 60.46875 200.335938 56.644531 199.128906 54.253906 C 198.429688 52.878906 197.078125 51.617188 195.597656 50.960938 C 194.382812 50.425781 191.335938 50.175781 189.851562 50.492188 M 208.511719 50.523438 C 204.140625 51.378906 202.484375 56.097656 205.640625 58.699219 C 206.167969 59.132812 207.699219 59.953125 209.050781 60.519531 C 212.566406 62.003906 213.433594 63.253906 212.269531 65.15625 C 211.355469 66.660156 208.015625 66.882812 205.296875 65.625 L 204 65.023438 L 204 67.734375 L 205.398438 68.140625 C 207.539062 68.765625 210.738281 68.566406 212.5 67.699219 C 214.90625 66.515625 215.902344 64.019531 214.90625 61.679688 C 214.378906 60.441406 213.542969 59.824219 210.722656 58.601562 C 207.554688 57.226562 206.75 56.535156 206.75 55.1875 C 206.75 53.894531 207.117188 53.28125 208.136719 52.855469 C 209.242188 52.390625 211.660156 52.402344 213 52.875 C 213.585938 53.082031 214.167969 53.25 214.296875 53.25 C 214.421875 53.25 214.492188 52.714844 214.453125 52.0625 L 214.375 50.875 L 213.125 50.585938 C 211.644531 50.246094 210.046875 50.222656 208.511719 50.523438 M 225.097656 50.585938 C 222.535156 51.242188 220.652344 52.769531 219.714844 54.960938 C 218.070312 58.796875 218.777344 63.777344 221.328125 66.328125 C 222.941406 67.941406 224.195312 68.375 227.25 68.375 C 229.628906 68.375 230.011719 68.308594 231.328125 67.664062 C 233.058594 66.8125 234.464844 65.167969 235.253906 63.0625 C 235.71875 61.832031 235.78125 61.230469 235.703125 58.875 C 235.625 56.546875 235.511719 55.914062 234.957031 54.75 C 234.097656 52.9375 233.050781 51.859375 231.417969 51.113281 C 229.761719 50.355469 226.933594 50.117188 225.097656 50.585938 M 147.558594 59.4375 L 147.625 68.125 L 150.125 68.125 L 150.257812 50.75 L 147.492188 50.75 L 147.558594 59.4375 M 189.625 52.800781 C 188.304688 53.261719 187.308594 54.207031 186.582031 55.683594 C 185.960938 56.945312 185.875 57.402344 185.882812 59.375 C 185.898438 63.917969 187.984375 66.351562 191.875 66.367188 C 194.386719 66.378906 195.679688 65.589844 196.761719 63.386719 C 197.535156 61.820312 197.554688 61.699219 197.453125 59.074219 C 197.3125 55.414062 196.488281 53.847656 194.191406 52.886719 C 193.148438 52.449219 190.757812 52.40625 189.625 52.800781 M 224.863281 52.953125 C 224.308594 53.214844 223.546875 53.796875 223.167969 54.246094 C 221.929688 55.714844 221.65625 56.652344 221.640625 59.5 C 221.625 61.964844 221.671875 62.207031 222.375 63.480469 C 223.675781 65.835938 226.136719 66.898438 228.835938 66.277344 C 229.527344 66.117188 230.457031 65.710938 230.902344 65.371094 C 234.09375 62.933594 233.886719 55.265625 230.574219 53.21875 C 229.296875 52.429688 226.28125 52.289062 224.863281 52.953125 M 35.660156 75.433594 L 21.195312 75.503906 L 21.367188 76.441406 C 21.953125 79.628906 24.890625 86.023438 27.734375 90.285156 C 32.5 97.425781 40.800781 105.355469 49.875 111.429688 C 52.808594 113.390625 54.476562 114.367188 54.617188 114.207031 C 54.65625 114.160156 54.730469 105.40625 54.78125 94.75 L 54.875 75.375 L 52.5 75.367188 C 51.195312 75.367188 43.617188 75.394531 35.660156 75.433594 M 76.4375 75.4375 L 60 75.503906 L 60 114.535156 L 61.4375 113.722656 C 66.167969 111.042969 72.628906 106.257812 76.875 102.292969 C 84.789062 94.898438 89.882812 87.398438 93.015625 78.542969 C 93.875 76.109375 93.957031 75.222656 93.3125 75.3125 C 93.070312 75.34375 85.476562 75.402344 76.4375 75.4375 M 163.933594 76.332031 C 162.652344 76.730469 161.351562 77.820312 160.75 79 C 160.367188 79.75 160.25 80.472656 160.25 82.09375 C 160.25 84.984375 160.242188 85 158.472656 85 L 157 85 L 157 86 C 157 87.070312 157 87.070312 158.644531 87.007812 C 159.269531 86.984375 159.777344 87.105469 159.964844 87.332031 C 160.1875 87.601562 160.246094 89.570312 160.195312 94.972656 L 160.125 102.25 L 162.742188 102.25 L 162.875 87.125 L 164.8125 87.050781 L 166.75 86.980469 L 166.75 85 L 162.75 85 L 162.75 82.6875 C 162.753906 79.183594 163.601562 78.09375 166.160156 78.304688 L 167.5 78.417969 L 167.5 77.363281 C 167.5 76.386719 167.445312 76.300781 166.71875 76.15625 C 165.664062 75.945312 165.050781 75.984375 163.933594 76.332031 M 220.5 81.707031 C 220.5 84.574219 220.433594 86.980469 220.355469 87.0625 C 220.273438 87.140625 219.8125 86.765625 219.324219 86.226562 C 217.191406 83.867188 212.265625 84.023438 209.757812 86.53125 C 207.933594 88.355469 206.804688 92.183594 207.152344 95.367188 C 207.738281 100.742188 211.222656 103.511719 216.132812 102.5 C 217.414062 102.238281 217.8125 102.007812 218.9375 100.886719 C 219.65625 100.167969 220.304688 99.636719 220.375 99.707031 C 220.441406 99.777344 220.5 100.378906 220.5 101.042969 L 220.5 102.25 L 223 102.25 L 223 76.5 L 220.5 76.5 L 220.5 81.707031 M 116.25 90.101562 L 116.25 102.25 L 120.5625 102.246094 C 127.253906 102.238281 129.410156 101.574219 132.441406 98.582031 C 135.746094 95.324219 136.765625 90.476562 135.246094 85.246094 C 134.367188 82.230469 132.078125 79.863281 128.949219 78.738281 C 127.539062 78.230469 126.796875 78.160156 121.8125 78.0625 L 116.25 77.953125 L 116.25 90.101562 M 119 90.125 L 119 100 L 121.613281 100 C 123.050781 100 124.820312 99.875 125.550781 99.722656 C 129.734375 98.839844 132.367188 95.976562 132.980469 91.632812 C 133.28125 89.511719 132.964844 86.703125 132.257812 85.195312 C 130.578125 81.628906 127.722656 80.261719 121.9375 80.253906 L 119 80.25 L 119 90.125 M 145.199219 84.835938 C 141.648438 85.835938 139.464844 89.105469 139.414062 93.5 C 139.382812 96.210938 139.808594 97.878906 141 99.71875 C 141.75 100.882812 142.234375 101.328125 143.3125 101.855469 C 145.71875 103.03125 149.589844 102.976562 152.171875 101.726562 C 153.226562 101.21875 153.25 101.179688 153.25 99.972656 L 153.25 98.742188 L 152.3125 99.328125 C 150.878906 100.226562 149.839844 100.5 147.898438 100.496094 C 146.015625 100.488281 144.488281 99.976562 143.695312 99.089844 C 143.097656 98.414062 142.332031 96.570312 142.128906 95.316406 L 141.957031 94.257812 L 148.167969 94.191406 L 154.375 94.125 L 154.359375 92.25 C 154.351562 91.167969 154.160156 89.828125 153.910156 89.082031 C 153.359375 87.445312 151.816406 85.679688 150.464844 85.140625 C 149.042969 84.570312 146.628906 84.429688 145.199219 84.835938 M 174.582031 84.84375 C 171.464844 85.867188 169.503906 88.4375 168.96875 92.210938 C 168.695312 94.144531 169.019531 96.78125 169.730469 98.390625 C 170.378906 99.851562 171.929688 101.492188 173.195312 102.054688 C 175.382812 103.027344 179.304688 102.875 181.671875 101.726562 C 182.726562 101.214844 182.75 101.179688 182.75 99.960938 L 182.75 98.714844 L 182.015625 99.238281 C 180.828125 100.085938 179.304688 100.5 177.40625 100.496094 C 175.015625 100.488281 173.746094 99.902344 172.769531 98.363281 C 172.148438 97.390625 171.5 95.402344 171.5 94.488281 C 171.5 94.34375 173.964844 94.25 177.75 94.25 L 184 94.25 L 183.996094 92.6875 C 183.988281 89.035156 182.445312 86.183594 179.902344 85.121094 C 178.5625 84.558594 175.871094 84.421875 174.582031 84.84375 M 195.089844 84.738281 C 193.960938 85.007812 192.621094 85.894531 191.753906 86.949219 L 191 87.863281 L 191 85 L 188.25 85 L 188.25 102.25 L 191 102.25 L 191 96.714844 C 191 90.664062 191.136719 89.804688 192.328125 88.359375 C 193.273438 87.214844 194.347656 86.75 196.054688 86.75 C 197.816406 86.753906 198.875 87.410156 199.570312 88.945312 C 200.0625 90.027344 200.117188 90.636719 200.207031 96.1875 L 200.300781 102.25 L 202.785156 102.25 L 202.703125 95.5625 C 202.625 89.1875 202.59375 88.820312 202.050781 87.722656 C 201.738281 87.09375 201.171875 86.28125 200.796875 85.921875 C 199.539062 84.714844 197.214844 84.230469 195.089844 84.738281 M 233.484375 84.839844 C 230.046875 85.769531 227.75 89.328125 227.75 93.722656 C 227.75 97.273438 228.78125 99.765625 230.933594 101.40625 C 232.90625 102.910156 236.875 103.15625 239.898438 101.960938 L 241.375 101.375 L 241.453125 100.160156 C 241.496094 99.496094 241.4375 98.992188 241.328125 99.050781 C 238.625 100.398438 236.542969 100.796875 234.355469 100.386719 C 232.457031 100.03125 230.90625 97.941406 230.402344 95.0625 L 230.261719 94.25 L 242.820312 94.25 L 242.691406 91.992188 C 242.460938 87.980469 240.691406 85.402344 237.726562 84.769531 C 236.148438 84.429688 234.933594 84.449219 233.484375 84.839844 M 253.402344 84.753906 C 252.464844 85.042969 251.34375 86.113281 250.664062 87.375 L 250.125 88.375 L 249.976562 85 L 247.5 85 L 247.5 102.25 L 250 102.25 L 250 97.046875 C 250 91.378906 250.207031 90.082031 251.375 88.503906 C 252.261719 87.296875 252.882812 87.019531 254.703125 87.007812 L 256.277344 87 L 256.203125 85.8125 L 256.125 84.625 L 255.125 84.578125 C 254.574219 84.550781 253.800781 84.632812 253.402344 84.753906 M 145.125 87.128906 C 144.714844 87.351562 144.167969 87.722656 143.910156 87.953125 C 143.332031 88.476562 142.332031 90.421875 142.214844 91.253906 L 142.125 91.875 L 146.9375 91.941406 L 151.75 92.011719 L 151.75 91.058594 C 151.75 89.875 150.851562 88.070312 149.929688 87.398438 C 148.988281 86.710938 146.191406 86.554688 145.125 87.128906 M 174.546875 87.171875 C 173.242188 87.8125 171.75 90.117188 171.75 91.492188 C 171.75 91.984375 171.890625 92 176.5 92 L 181.25 92 L 181.25 91.054688 C 181.25 89.777344 180.3125 88.003906 179.277344 87.316406 C 178.222656 86.617188 175.820312 86.542969 174.546875 87.171875 M 212.835938 87.265625 C 210.789062 88.277344 209.585938 91.15625 209.816406 94.492188 C 210.089844 98.488281 211.824219 100.5 214.996094 100.5 C 217.464844 100.5 218.984375 99.527344 219.894531 97.375 C 220.445312 96.070312 220.65625 92.199219 220.265625 90.570312 C 219.914062 89.097656 218.738281 87.574219 217.589844 87.09375 C 216.347656 86.574219 214.0625 86.65625 212.835938 87.265625 M 232.960938 87.472656 C 231.765625 88.226562 230.5 90.261719 230.5 91.425781 L 230.5 92 L 240 92 L 240 91.054688 C 240 89.777344 239.0625 88.003906 238.027344 87.316406 C 236.722656 86.449219 234.464844 86.515625 232.960938 87.472656 "/>
</g>
</svg>
