<?xml version="1.0" encoding="UTF-8"?>
<svg xmlns="http://www.w3.org/2000/svg" xmlns:xlink="http://www.w3.org/1999/xlink" width="234px" height="25px" viewBox="0 0 238 25" version="1.1">
<g id="surface1">
<path style=" stroke:none;fill-rule:nonzero;fill:rgb(13.725491%,12.156863%,12.54902%);fill-opacity:1;" d="M 21.183594 0.390625 L 15.308594 15.535156 L 9.382812 0.390625 L 4.699219 0.390625 L 0.164062 24.617188 L 4.996094 24.617188 L 7.867188 9.441406 L 13.46875 24.617188 L 17.097656 24.617188 L 22.6875 9.441406 L 25.570312 24.617188 L 30.542969 24.617188 L 25.867188 0.390625 Z M 21.183594 0.390625 "/>
<path style=" stroke:none;fill-rule:nonzero;fill:rgb(13.725491%,12.156863%,12.54902%);fill-opacity:1;" d="M 31.757812 0.390625 L 36.296875 0.390625 L 36.296875 24.617188 L 31.757812 24.617188 Z M 31.757812 0.390625 "/>
<path style=" stroke:none;fill-rule:nonzero;fill:rgb(13.725491%,12.156863%,12.54902%);fill-opacity:1;" d="M 37.777344 4.324219 L 43.09375 4.324219 L 43.09375 24.617188 L 47.597656 24.617188 L 47.597656 4.324219 L 52.921875 4.324219 L 52.921875 0.390625 L 37.777344 0.390625 Z M 37.777344 4.324219 "/>
<path style=" stroke:none;fill-rule:nonzero;fill:rgb(13.725491%,12.156863%,12.54902%);fill-opacity:1;" d="M 66.503906 14.042969 C 67.769531 13.671875 68.917969 12.972656 69.832031 12.015625 C 71.011719 10.761719 71.613281 9.070312 71.496094 7.351562 C 71.605469 5.699219 71.066406 4.070312 69.988281 2.816406 C 69.144531 1.898438 68.078125 1.21875 66.894531 0.832031 C 66.191406 0.601562 65.460938 0.453125 64.722656 0.390625 L 53.953125 0.390625 L 53.953125 24.617188 L 58.488281 24.617188 L 58.488281 4.476562 L 63.78125 4.476562 C 64.625 4.453125 65.445312 4.75 66.078125 5.308594 C 66.636719 5.855469 66.9375 6.609375 66.910156 7.390625 C 66.9375 8.226562 66.5625 9.023438 65.902344 9.535156 C 65.367188 9.964844 64.707031 10.207031 64.023438 10.226562 L 59.28125 10.226562 L 59.28125 14.582031 L 66.652344 24.582031 L 72.101562 24.582031 L 64.054688 14.5 C 64.886719 14.449219 65.707031 14.292969 66.503906 14.042969 Z M 66.503906 14.042969 "/>
<path style=" stroke:none;fill-rule:nonzero;fill:rgb(13.725491%,12.156863%,12.54902%);fill-opacity:1;" d="M 72.703125 24.617188 L 86.699219 24.617188 L 86.699219 20.683594 L 77.238281 20.683594 L 77.238281 14.464844 L 86.617188 14.464844 L 86.617188 10.535156 L 77.238281 10.535156 L 77.238281 4.324219 L 86.699219 4.324219 L 86.699219 0.390625 L 72.703125 0.390625 Z M 72.703125 24.617188 "/>
<path style=" stroke:none;fill-rule:nonzero;fill:rgb(13.725491%,12.156863%,12.54902%);fill-opacity:1;" d="M 125.820312 0.457031 L 115.925781 24.550781 L 120.085938 24.550781 L 122.300781 18.851562 L 132.570312 18.851562 L 134.847656 24.550781 L 139.007812 24.550781 L 129.289062 0.457031 Z M 123.324219 15.757812 L 127.382812 4.925781 L 131.546875 15.757812 Z M 123.324219 15.757812 "/>
<path style=" stroke:none;fill-rule:nonzero;fill:rgb(13.725491%,12.156863%,12.54902%);fill-opacity:1;" d="M 135.753906 3.839844 L 141.28125 3.839844 L 141.28125 24.550781 L 145.117188 24.550781 L 145.117188 3.839844 L 150.644531 3.839844 L 150.644531 0.457031 L 135.753906 0.457031 Z M 135.753906 3.839844 "/>
<path style=" stroke:none;fill-rule:nonzero;fill:rgb(13.725491%,12.156863%,12.54902%);fill-opacity:1;" d="M 166.664062 0.457031 L 151.773438 0.457031 L 151.773438 3.839844 L 157.300781 3.839844 L 157.300781 24.550781 L 161.136719 24.550781 L 161.136719 3.839844 L 166.664062 3.839844 Z M 166.664062 0.457031 "/>
<path style=" stroke:none;fill-rule:nonzero;fill:rgb(13.725491%,12.156863%,12.54902%);fill-opacity:1;" d="M 186.816406 9.933594 L 183.238281 9.933594 L 180.410156 15.5 L 176.25 11.265625 C 178.0625 10.292969 180.535156 8.859375 180.535156 5.632812 C 180.511719 4.101562 179.878906 2.644531 178.773438 1.585938 C 177.671875 0.527344 176.1875 -0.0429688 174.660156 0 C 173.109375 -0.0351562 171.613281 0.550781 170.496094 1.628906 C 169.378906 2.703125 168.734375 4.183594 168.710938 5.734375 C 168.777344 7.816406 169.851562 9.375 171.472656 11.101562 C 169.332031 12.242188 166.144531 14.257812 166.144531 18.132812 C 166.144531 21.785156 169.101562 25 173.851562 25 C 177.722656 25 179.570312 23.050781 180.867188 20.542969 L 185.160156 25 L 187.5 22.714844 L 182.691406 17.800781 Z M 174.660156 2.867188 C 175.390625 2.847656 176.101562 3.125 176.621094 3.644531 C 177.140625 4.160156 177.429688 4.867188 177.414062 5.601562 C 177.414062 7.425781 176.25 8.234375 174.261719 9.339844 C 173.320312 8.332031 172.054688 7.191406 172.054688 5.535156 C 172.035156 4.832031 172.304688 4.152344 172.792969 3.648438 C 173.285156 3.144531 173.957031 2.863281 174.660156 2.867188 Z M 173.976562 21.75 C 172.902344 21.808594 171.847656 21.425781 171.0625 20.6875 C 170.277344 19.949219 169.824219 18.921875 169.816406 17.839844 C 169.816406 16.082031 170.890625 14.550781 173.554688 13.214844 L 178.546875 18.332031 C 177.523438 20.417969 176.382812 21.75 173.976562 21.75 Z M 173.976562 21.75 "/>
<path style=" stroke:none;fill-rule:nonzero;fill:rgb(13.725491%,12.156863%,12.54902%);fill-opacity:1;" d="M 200.714844 3.382812 C 203.851562 3.394531 206.730469 5.132812 208.203125 7.910156 L 212.265625 7.910156 C 210.453125 3.109375 205.839844 -0.0507812 200.714844 0 C 197.382812 -0.0546875 194.167969 1.242188 191.804688 3.597656 C 189.441406 5.953125 188.128906 9.164062 188.164062 12.5 C 188.144531 15.839844 189.46875 19.046875 191.835938 21.398438 C 194.203125 23.75 197.414062 25.046875 200.746094 25 C 205.816406 25.101562 210.398438 21.984375 212.164062 17.226562 L 208.128906 17.226562 C 206.613281 19.90625 203.789062 21.578125 200.714844 21.617188 C 195.648438 21.617188 192 17.449219 192 12.449219 C 192.019531 7.582031 195.597656 3.382812 200.714844 3.382812 Z M 200.714844 3.382812 "/>
<path style=" stroke:none;fill-rule:nonzero;fill:rgb(13.725491%,12.156863%,12.54902%);fill-opacity:1;" d="M 230.804688 0.457031 L 226.738281 0.457031 L 217.933594 11.851562 L 217.933594 0.457031 L 214.097656 0.457031 L 214.097656 24.550781 L 217.933594 24.550781 L 217.933594 13.449219 L 227.035156 24.550781 L 231.746094 24.550781 L 221.445312 12.464844 Z M 230.804688 0.457031 "/>
<path style=" stroke:none;fill-rule:nonzero;fill:rgb(13.725491%,12.156863%,12.54902%);fill-opacity:1;" d="M 100.863281 0.140625 L 101.488281 0.140625 L 101.488281 24.859375 L 100.863281 24.859375 Z M 100.863281 0.140625 "/>
<path style=" stroke:none;fill-rule:nonzero;fill:rgb(13.725491%,12.156863%,12.54902%);fill-opacity:1;" d="M 100.863281 0.140625 L 101.488281 0.140625 L 101.488281 24.859375 L 100.863281 24.859375 Z M 100.863281 0.140625 "/>
<path style=" stroke:none;fill-rule:nonzero;fill:rgb(13.725491%,12.156863%,12.54902%);fill-opacity:1;" d="M 235.183594 0.214844 C 236.660156 0.222656 237.859375 1.425781 237.855469 2.90625 C 237.851562 4.386719 236.652344 5.585938 235.171875 5.582031 C 233.691406 5.582031 232.496094 4.382812 232.496094 2.898438 C 232.492188 2.1875 232.777344 1.5 233.28125 0.996094 C 233.785156 0.492188 234.46875 0.210938 235.183594 0.214844 Z M 235.183594 0.667969 C 234.59375 0.667969 234.03125 0.902344 233.621094 1.324219 C 233.210938 1.742188 232.984375 2.3125 232.996094 2.898438 C 232.996094 4.109375 233.972656 5.089844 235.183594 5.089844 C 236.390625 5.089844 237.371094 4.109375 237.371094 2.898438 C 237.378906 2.3125 237.152344 1.742188 236.738281 1.324219 C 236.328125 0.902344 235.761719 0.667969 235.175781 0.667969 Z M 235.183594 0.667969 "/>
<path style=" stroke:none;fill-rule:nonzero;fill:rgb(13.725491%,12.156863%,12.54902%);fill-opacity:1;" d="M 236.363281 2.242188 C 236.363281 1.625 235.992188 1.351562 235.242188 1.351562 L 234.066406 1.351562 L 234.066406 4.351562 L 234.660156 4.351562 L 234.660156 3.074219 L 235.035156 3.074219 L 235.707031 4.351562 L 236.363281 4.351562 L 235.664062 3.042969 C 235.867188 3.035156 236.058594 2.945312 236.191406 2.792969 C 236.320312 2.644531 236.386719 2.441406 236.363281 2.242188 Z M 235.199219 2.609375 L 234.660156 2.609375 L 234.660156 1.816406 L 235.175781 1.816406 C 235.558594 1.816406 235.757812 1.898438 235.757812 2.191406 C 235.757812 2.484375 235.574219 2.609375 235.199219 2.609375 Z M 235.199219 2.609375 "/>
</g>
</svg>
