<?xml version="1.0" encoding="UTF-8"?>
<svg xmlns="http://www.w3.org/2000/svg" xmlns:xlink="http://www.w3.org/1999/xlink" width="180px" height="100px" viewBox="0 0 180 100" version="1.1">
<g id="surface1">
<path style=" stroke:none;fill-rule:evenodd;fill:rgb(11.764706%,11.764706%,11.764706%);fill-opacity:1;" d="M 30.46875 21.707031 C 30.40625 21.875 30.453125 23.25 30.574219 24.761719 C 30.894531 28.699219 30.890625 28.800781 30.351562 28.804688 C 29.363281 28.808594 29.328125 28.949219 29.578125 31.730469 C 29.707031 33.144531 29.867188 34.726562 29.933594 35.25 L 30.050781 36.199219 L 33.769531 36.199219 L 33.890625 35.148438 C 34.214844 32.324219 34.996094 21.753906 34.890625 21.585938 C 34.828125 21.484375 33.832031 21.398438 32.683594 21.398438 C 30.984375 21.398438 30.566406 21.457031 30.46875 21.707031 M 23 22.925781 C 21.957031 23.304688 21.03125 23.6875 20.945312 23.777344 C 20.855469 23.863281 21.464844 25.402344 22.292969 27.195312 C 23.121094 28.992188 23.800781 30.488281 23.800781 30.527344 C 23.800781 30.5625 23.488281 30.726562 23.105469 30.886719 L 22.410156 31.175781 L 22.882812 32.238281 C 23.144531 32.820312 23.808594 34.21875 24.359375 35.34375 C 24.910156 36.46875 25.394531 37.488281 25.433594 37.605469 C 25.480469 37.742188 25.917969 37.632812 26.605469 37.3125 C 27.207031 37.03125 27.992188 36.746094 28.351562 36.679688 C 28.707031 36.613281 29 36.453125 28.996094 36.328125 C 28.992188 35.914062 25.203125 22.523438 25.050781 22.378906 C 24.96875 22.300781 24.046875 22.546875 23 22.925781 M 40.136719 22.75 C 40.085938 22.832031 39.671875 24.296875 39.210938 26 C 38.753906 27.703125 38.332031 29.257812 38.277344 29.449219 C 38.195312 29.722656 38.089844 29.757812 37.800781 29.601562 C 37.429688 29.402344 36.601562 29.320312 36.601562 29.484375 C 36.601562 29.53125 36.199219 31.078125 35.707031 32.925781 C 35.21875 34.773438 34.835938 36.300781 34.859375 36.320312 C 34.9375 36.394531 37.902344 37.414062 38.160156 37.457031 C 38.328125 37.484375 39.535156 35.078125 41.40625 31 C 43.046875 27.425781 44.390625 24.398438 44.394531 24.273438 C 44.398438 24.148438 43.515625 23.71875 42.433594 23.320312 C 40.296875 22.539062 40.265625 22.53125 40.136719 22.75 M 14.234375 27.832031 L 12.566406 29.25 L 13.53125 30.277344 C 14.0625 30.839844 15.21875 32.046875 16.097656 32.960938 L 17.699219 34.625 L 17.25 34.992188 C 17.003906 35.199219 16.800781 35.492188 16.800781 35.648438 C 16.800781 35.804688 17.925781 37.035156 19.300781 38.386719 L 21.804688 40.839844 L 22.351562 40.265625 C 22.652344 39.953125 23.289062 39.375 23.761719 38.988281 L 24.625 38.28125 L 20.453125 32.40625 C 18.160156 29.171875 16.195312 26.5 16.089844 26.46875 C 15.984375 26.4375 15.148438 27.050781 14.234375 27.832031 M 47.800781 28.640625 C 47.140625 29.554688 46.164062 30.910156 45.628906 31.652344 L 44.660156 33.003906 L 44.148438 32.601562 C 43.867188 32.382812 43.554688 32.199219 43.457031 32.199219 C 43.355469 32.199219 42.359375 33.539062 41.242188 35.179688 L 39.207031 38.160156 L 39.753906 38.511719 C 40.054688 38.703125 40.742188 39.230469 41.28125 39.675781 L 42.265625 40.492188 L 47.328125 35.296875 C 50.113281 32.4375 52.386719 30.011719 52.382812 29.898438 C 52.378906 29.789062 51.78125 29.203125 51.058594 28.601562 C 48.847656 26.753906 49.171875 26.75 47.800781 28.640625 M 108.199219 45.699219 L 108.199219 63.601562 L 113.601562 63.601562 L 113.601562 52 L 115.363281 52 L 124.636719 63.601562 L 131.433594 63.601562 L 130.765625 62.757812 C 130.398438 62.292969 127.75 58.996094 124.875 55.429688 L 119.652344 48.949219 L 123.953125 43.125 C 126.316406 39.921875 128.339844 37.1875 128.449219 37.050781 C 128.605469 36.851562 128.007812 36.800781 125.574219 36.808594 L 122.5 36.820312 L 118.898438 41.90625 L 115.300781 46.992188 L 114.449219 46.996094 L 113.601562 47 L 113.601562 27.800781 L 108.199219 27.800781 L 108.199219 45.699219 M 132.75 41.648438 C 132.722656 49.269531 132.722656 56.214844 132.746094 57.085938 C 132.832031 59.996094 133.617188 61.605469 135.488281 62.703125 C 136.578125 63.34375 138.410156 63.589844 142.050781 63.597656 L 145 63.601562 L 145 58.601562 L 142.429688 58.601562 C 139.730469 58.601562 138.71875 58.398438 138.394531 57.792969 C 138.277344 57.570312 138.199219 54.292969 138.199219 49.511719 L 138.199219 41.601562 L 145 41.601562 L 145 36.601562 L 138.199219 36.601562 L 138.199219 27.800781 L 132.800781 27.800781 L 132.75 41.648438 M 8.761719 33.558594 C 8.601562 33.746094 8.082031 34.566406 7.609375 35.382812 C 7.015625 36.398438 6.800781 36.953125 6.921875 37.140625 C 7.019531 37.292969 8.476562 38.0625 10.164062 38.851562 C 12.886719 40.125 13.210938 40.328125 13.09375 40.691406 C 12.742188 41.796875 12.753906 41.808594 16 43.328125 C 17.703125 44.125 19.167969 44.785156 19.246094 44.789062 C 19.328125 44.796875 19.527344 44.476562 19.695312 44.085938 C 19.859375 43.691406 20.257812 42.976562 20.585938 42.492188 L 21.175781 41.617188 L 20.238281 40.9375 C 19.4375 40.359375 12.921875 35.855469 9.972656 33.847656 C 9.113281 33.257812 9.03125 33.238281 8.761719 33.558594 M 52.753906 36.195312 C 51.144531 37.296875 49.746094 38.199219 49.644531 38.199219 C 49.546875 38.199219 49.363281 37.976562 49.238281 37.699219 C 49.109375 37.425781 48.886719 37.199219 48.738281 37.199219 C 48.507812 37.199219 43.4375 40.683594 42.925781 41.195312 C 42.828125 41.289062 42.972656 41.65625 43.253906 42.03125 C 43.527344 42.398438 43.945312 43.082031 44.179688 43.550781 C 44.414062 44.019531 44.695312 44.398438 44.804688 44.398438 C 45.183594 44.398438 57.851562 38.296875 57.9375 38.074219 C 58.015625 37.867188 56.421875 35.007812 55.910156 34.445312 C 55.726562 34.246094 55.0625 34.617188 52.753906 36.195312 M 88 36.5 C 81.132812 37.886719 76.671875 43.75 77.054688 50.890625 C 77.300781 55.488281 79.496094 59.390625 83.175781 61.769531 C 85.246094 63.105469 88.257812 64 90.699219 64 C 92.03125 64 94.453125 63.523438 95.921875 62.972656 C 99.644531 61.582031 102.816406 58.046875 103.917969 54.066406 C 104.40625 52.3125 104.503906 48.816406 104.121094 47 C 103.695312 44.992188 102.292969 42.175781 101.015625 40.757812 C 97.835938 37.238281 92.6875 35.554688 88 36.5 M 156.699219 36.515625 C 154.449219 37.007812 152.191406 38.238281 150.515625 39.878906 C 148.816406 41.546875 147.828125 43.105469 147.105469 45.269531 C 146.050781 48.40625 146.050781 51.796875 147.105469 54.929688 C 148.632812 59.480469 152.355469 62.792969 156.988281 63.714844 C 160.984375 64.511719 165.167969 63.230469 167.539062 60.488281 L 168.472656 59.40625 L 168.785156 60.304688 C 169.535156 62.453125 170.972656 63.292969 174.296875 63.523438 L 176.199219 63.660156 L 176.199219 58.601562 L 175.3125 58.601562 C 174.660156 58.601562 174.273438 58.472656 173.859375 58.117188 L 173.300781 57.636719 L 173.191406 36.800781 L 168 36.800781 L 168 40.472656 L 167.257812 39.605469 C 165.015625 36.984375 160.535156 35.671875 156.699219 36.515625 M 88.699219 41.683594 C 87.242188 42.042969 86.074219 42.707031 84.992188 43.789062 C 83.335938 45.445312 82.605469 47.378906 82.605469 50.101562 C 82.605469 52.816406 83.292969 54.648438 84.960938 56.359375 C 88.042969 59.523438 93.144531 59.570312 96.335938 56.460938 C 100.480469 52.425781 99.414062 44.765625 94.359375 42.25 C 92.703125 41.425781 90.59375 41.210938 88.699219 41.683594 M 157.804688 41.71875 C 154.179688 42.695312 151.804688 46.011719 151.804688 50.101562 C 151.804688 55.546875 156.082031 59.445312 161.1875 58.65625 C 165.375 58.007812 167.996094 54.714844 167.996094 50.101562 C 167.996094 49.21875 167.871094 48.035156 167.722656 47.46875 C 166.539062 43.035156 162.226562 40.53125 157.804688 41.71875 M 4.40625 43.351562 C 4.28125 43.980469 4.101562 44.902344 4.003906 45.398438 C 3.898438 45.9375 3.902344 46.382812 4.015625 46.519531 C 4.117188 46.640625 5.4375 46.851562 6.949219 46.984375 C 8.460938 47.117188 10.046875 47.277344 10.46875 47.339844 C 11.210938 47.453125 11.230469 47.476562 11.109375 48.113281 C 11.042969 48.472656 11.070312 48.820312 11.171875 48.882812 C 11.308594 48.96875 17.367188 49.582031 18.230469 49.597656 C 18.300781 49.597656 18.425781 49.046875 18.503906 48.367188 C 18.582031 47.6875 18.726562 46.863281 18.820312 46.53125 C 18.914062 46.199219 18.964844 45.898438 18.929688 45.863281 C 18.835938 45.769531 5.132812 42.199219 4.863281 42.199219 C 4.734375 42.199219 4.527344 42.71875 4.40625 43.351562 M 56.300781 43.984375 C 52.074219 45.117188 52.398438 45.066406 52.398438 44.621094 C 52.398438 44 52.183594 43.601562 51.84375 43.601562 C 51.601562 43.601562 47.578125 44.667969 45.386719 45.3125 C 45.105469 45.394531 45.101562 45.539062 45.328125 46.550781 C 45.46875 47.183594 45.636719 48.035156 45.699219 48.445312 C 45.804688 49.121094 45.863281 49.179688 46.359375 49.09375 C 46.65625 49.042969 49.914062 48.722656 53.601562 48.382812 C 57.285156 48.039062 60.351562 47.679688 60.414062 47.578125 C 60.542969 47.371094 59.941406 43.792969 59.71875 43.433594 C 59.527344 43.121094 59.5 43.125 56.300781 43.984375 M 45.628906 51.625 C 45.503906 52.4375 45.351562 53.285156 45.289062 53.511719 C 45.179688 53.902344 45.589844 54.03125 52.238281 55.75 C 56.851562 56.941406 59.371094 57.503906 59.5 57.378906 C 59.75 57.132812 60.40625 53.347656 60.230469 53.164062 C 60.113281 53.042969 54.3125 52.398438 53.339844 52.398438 C 53.003906 52.398438 52.964844 52.300781 53.0625 51.691406 C 53.207031 50.792969 52.996094 50.703125 50.300781 50.519531 C 49.199219 50.445312 47.75 50.332031 47.078125 50.269531 L 45.855469 50.152344 L 45.628906 51.625 M 10.355469 51.28125 C 6.863281 51.628906 3.933594 52 3.839844 52.105469 C 3.742188 52.214844 3.839844 53.203125 4.054688 54.351562 C 4.359375 55.96875 4.507812 56.398438 4.769531 56.398438 C 4.953125 56.398438 6.449219 56.039062 8.101562 55.601562 C 11.640625 54.664062 11.800781 54.648438 11.804688 55.25 C 11.808594 56.242188 11.945312 56.246094 15.511719 55.265625 C 17.375 54.753906 18.925781 54.320312 18.953125 54.296875 C 18.984375 54.277344 18.851562 53.433594 18.664062 52.429688 L 18.316406 50.601562 L 17.507812 50.625 C 17.0625 50.640625 13.84375 50.9375 10.355469 51.28125 M 44.589844 55.425781 C 44.457031 55.75 44.054688 56.496094 43.703125 57.082031 L 43.058594 58.152344 L 48.960938 62.226562 C 52.207031 64.46875 54.972656 66.328125 55.109375 66.359375 C 55.410156 66.433594 57.480469 62.890625 57.339844 62.542969 C 57.289062 62.410156 55.792969 61.632812 54.023438 60.8125 L 50.800781 59.328125 L 51.113281 58.851562 C 51.285156 58.589844 51.398438 58.242188 51.363281 58.078125 C 51.308594 57.820312 49.59375 56.953125 45.867188 55.296875 L 44.832031 54.835938 L 44.589844 55.425781 M 13.03125 58.285156 C 9.484375 59.964844 6.484375 61.433594 6.375 61.546875 C 6.234375 61.6875 6.496094 62.328125 7.195312 63.570312 C 7.757812 64.570312 8.292969 65.433594 8.382812 65.488281 C 8.472656 65.546875 9.03125 65.253906 9.625 64.839844 C 10.214844 64.429688 11.574219 63.488281 12.644531 62.75 L 14.59375 61.40625 L 14.902344 62.003906 C 15.070312 62.332031 15.324219 62.601562 15.460938 62.601562 C 15.664062 62.601562 20.671875 59.148438 21.273438 58.59375 C 21.367188 58.503906 21.21875 58.132812 20.941406 57.765625 C 20.660156 57.398438 20.21875 56.679688 19.960938 56.164062 L 19.488281 55.226562 L 13.03125 58.285156 M 41.398438 59.863281 C 40.90625 60.332031 40.289062 60.863281 40.03125 61.039062 L 39.566406 61.363281 L 43.710938 67.199219 C 45.992188 70.410156 47.980469 73.082031 48.132812 73.140625 C 48.378906 73.234375 50.808594 71.414062 51.417969 70.679688 C 51.632812 70.421875 51.28125 69.984375 49.085938 67.777344 L 46.5 65.175781 L 47.101562 64.691406 L 47.699219 64.207031 L 45.101562 61.601562 C 43.675781 60.171875 42.460938 59.003906 42.402344 59.003906 C 42.347656 59.007812 41.894531 59.394531 41.398438 59.863281 M 16.976562 64.390625 C 14.183594 67.261719 11.898438 69.695312 11.898438 69.796875 C 11.898438 70.015625 14.953125 72.601562 15.207031 72.601562 C 15.300781 72.601562 16.292969 71.316406 17.414062 69.75 C 18.535156 68.183594 19.480469 66.867188 19.515625 66.828125 C 19.550781 66.789062 19.859375 66.957031 20.203125 67.203125 C 20.546875 67.449219 20.902344 67.570312 20.988281 67.472656 C 21.355469 67.0625 25.035156 61.574219 24.972656 61.53125 C 24.34375 61.121094 23.164062 60.210938 22.679688 59.757812 L 22.054688 59.175781 L 16.976562 64.390625 M 38.199219 62.105469 C 37.925781 62.257812 37.136719 62.574219 36.449219 62.808594 C 35.761719 63.042969 35.199219 63.246094 35.203125 63.265625 C 35.214844 63.667969 39.039062 77.117188 39.179688 77.257812 C 39.425781 77.507812 43.40625 76.058594 43.390625 75.726562 C 43.386719 75.601562 42.71875 74.058594 41.90625 72.300781 L 40.433594 69.101562 L 41.054688 68.886719 C 41.394531 68.769531 41.707031 68.582031 41.742188 68.472656 C 41.777344 68.367188 41.109375 66.824219 40.253906 65.050781 L 38.699219 61.824219 L 38.199219 62.105469 M 25.527344 62.851562 C 25.375 63.207031 24.015625 66.1875 22.511719 69.476562 C 21.003906 72.761719 19.84375 75.519531 19.9375 75.601562 C 20.027344 75.683594 20.871094 76.03125 21.8125 76.375 C 23.417969 76.960938 24.199219 77.132812 24.199219 76.902344 C 24.199219 76.761719 26.03125 70.109375 26.085938 70.050781 C 26.113281 70.019531 26.425781 70.097656 26.777344 70.222656 C 27.132812 70.34375 27.46875 70.398438 27.53125 70.335938 C 27.652344 70.214844 29.386719 63.828125 29.394531 63.472656 C 29.398438 63.347656 29.082031 63.183594 28.691406 63.113281 C 28.300781 63.039062 27.574219 62.804688 27.074219 62.589844 C 25.890625 62.082031 25.855469 62.085938 25.527344 62.851562 M 30.484375 63.625 C 30.441406 63.695312 30.136719 66.976562 29.8125 70.921875 C 29.355469 76.4375 29.273438 78.125 29.460938 78.242188 C 29.808594 78.464844 33.484375 78.433594 33.714844 78.207031 C 33.835938 78.082031 33.820312 76.996094 33.667969 75.15625 C 33.535156 73.585938 33.421875 71.960938 33.414062 71.550781 C 33.402344 70.824219 33.421875 70.800781 34.101562 70.800781 C 34.792969 70.800781 34.800781 70.789062 34.792969 69.949219 C 34.789062 69.355469 34.269531 63.644531 34.203125 63.488281 C 34.167969 63.402344 30.542969 63.535156 30.484375 63.625 "/>
</g>
</svg>
