<?xml version="1.0" encoding="UTF-8"?>
<svg xmlns="http://www.w3.org/2000/svg" xmlns:xlink="http://www.w3.org/1999/xlink" width="55px" height="55px" viewBox="0 0 55 54" version="1.1">
<g id="surface1">
<path style=" stroke:none;fill-rule:evenodd;fill:rgb(0%,0%,0%);fill-opacity:1;" d="M 29.914062 3.140625 L 28.894531 15.472656 C 28.414062 15.417969 27.929688 15.390625 27.433594 15.390625 C 26.8125 15.390625 26.210938 15.429688 25.617188 15.527344 L 25.035156 9.550781 C 25.019531 9.359375 25.175781 9.199219 25.367188 9.199219 L 26.398438 9.199219 L 25.90625 3.152344 C 25.890625 2.960938 26.042969 2.800781 26.21875 2.800781 L 29.59375 2.800781 C 29.789062 2.800781 29.9375 2.960938 29.910156 3.152344 L 29.910156 3.140625 Z M 21.398438 3.746094 C 21.34375 3.570312 21.148438 3.464844 20.972656 3.53125 L 17.804688 4.667969 C 17.625 4.738281 17.546875 4.9375 17.625 5.101562 L 20.203125 10.621094 L 19.222656 10.972656 C 19.042969 11.042969 18.964844 11.242188 19.042969 11.40625 L 21.675781 16.828125 C 22.628906 16.3125 23.660156 15.917969 24.75 15.679688 L 21.414062 3.746094 Z M 13.628906 7.183594 L 20.914062 17.269531 C 19.992188 17.863281 19.152344 18.570312 18.4375 19.378906 L 14.070312 15.160156 C 13.929688 15.023438 13.945312 14.808594 14.082031 14.6875 L 14.882812 14.039062 L 10.546875 9.726562 C 10.40625 9.589844 10.421875 9.375 10.574219 9.253906 L 13.152344 7.132812 C 13.300781 7.007812 13.511719 7.039062 13.621094 7.1875 L 13.636719 7.1875 Z M 7.511719 13.023438 C 7.363281 12.917969 7.144531 12.972656 7.042969 13.132812 L 5.363281 16 C 5.269531 16.160156 5.335938 16.363281 5.503906 16.445312 L 11.09375 19.039062 L 10.570312 19.917969 C 10.476562 20.082031 10.542969 20.296875 10.722656 20.363281 L 16.289062 22.867188 C 16.6875 21.851562 17.222656 20.90625 17.886719 20.054688 Z M 3.394531 20.816406 C 3.425781 20.625 3.617188 20.515625 3.796875 20.558594 L 15.988281 23.683594 C 15.671875 24.699219 15.492188 25.769531 15.460938 26.878906 L 9.359375 26.390625 C 9.167969 26.378906 9.03125 26.199219 9.070312 26.011719 L 9.25 25.011719 L 3.09375 24.445312 C 2.898438 24.429688 2.78125 24.253906 2.804688 24.066406 L 3.382812 20.808594 L 3.398438 20.824219 Z M 2.941406 28.90625 C 2.746094 28.917969 2.625 29.09375 2.652344 29.28125 L 3.246094 32.539062 C 3.273438 32.730469 3.464844 32.839844 3.644531 32.796875 L 9.621094 31.265625 L 9.800781 32.265625 C 9.832031 32.457031 10.019531 32.566406 10.199219 32.523438 L 16.097656 30.925781 C 15.753906 29.925781 15.53125 28.859375 15.476562 27.761719 L 2.929688 28.902344 L 2.945312 28.902344 Z M 4.894531 37.480469 C 4.800781 37.316406 4.867188 37.117188 5.035156 37.03125 L 16.410156 31.730469 C 16.835938 32.730469 17.417969 33.664062 18.105469 34.503906 L 13.121094 37.992188 C 12.96875 38.097656 12.75 38.058594 12.648438 37.898438 L 12.125 37.003906 L 7.042969 40.453125 C 6.894531 40.5625 6.671875 40.507812 6.574219 40.34375 L 4.878906 37.480469 Z M 18.683594 35.152344 L 9.824219 43.960938 C 9.683594 44.097656 9.699219 44.3125 9.851562 44.429688 L 12.441406 46.554688 C 12.589844 46.675781 12.800781 46.648438 12.910156 46.5 L 16.492188 41.550781 L 17.292969 42.214844 C 17.441406 42.335938 17.664062 42.308594 17.773438 42.144531 L 21.246094 37.195312 C 20.308594 36.625 19.441406 35.9375 18.695312 35.152344 Z M 16.933594 49.289062 C 16.753906 49.21875 16.671875 49.019531 16.753906 48.855469 L 22 37.601562 C 22.964844 38.089844 24.007812 38.457031 25.097656 38.65625 L 23.554688 44.472656 C 23.515625 44.648438 23.304688 44.753906 23.128906 44.6875 L 22.148438 44.335938 L 20.511719 50.191406 C 20.457031 50.367188 20.261719 50.476562 20.085938 50.40625 L 16.917969 49.269531 L 16.933594 49.285156 Z M 25.96875 38.808594 L 24.949219 51.140625 C 24.933594 51.332031 25.085938 51.496094 25.261719 51.496094 L 28.636719 51.496094 C 28.832031 51.496094 28.980469 51.332031 28.953125 51.140625 L 28.457031 45.097656 L 29.492188 45.097656 C 29.683594 45.097656 29.835938 44.933594 29.820312 44.746094 L 29.242188 38.769531 C 28.648438 38.863281 28.042969 38.90625 27.421875 38.90625 C 26.929688 38.90625 26.445312 38.875 25.964844 38.8125 Z M 38.121094 5.410156 C 38.207031 5.234375 38.121094 5.046875 37.941406 4.980469 L 34.773438 3.839844 C 34.59375 3.773438 34.40625 3.878906 34.347656 4.058594 L 32.710938 9.914062 L 31.730469 9.5625 C 31.550781 9.492188 31.359375 9.601562 31.304688 9.777344 L 29.761719 15.589844 C 30.867188 15.808594 31.894531 16.175781 32.859375 16.644531 L 38.121094 5.40625 Z M 45.039062 10.320312 L 36.179688 19.125 C 35.433594 18.34375 34.582031 17.65625 33.628906 17.085938 L 37.101562 12.136719 C 37.214844 11.988281 37.433594 11.945312 37.582031 12.066406 L 38.382812 12.730469 L 41.964844 7.78125 C 42.074219 7.632812 42.296875 7.601562 42.433594 7.726562 L 45.023438 9.847656 C 45.171875 9.972656 45.171875 10.1875 45.050781 10.320312 Z M 49.828125 17.242188 C 50.007812 17.160156 50.066406 16.960938 49.96875 16.796875 L 48.273438 13.933594 C 48.179688 13.769531 47.960938 13.730469 47.804688 13.824219 L 42.722656 17.273438 L 42.199219 16.394531 C 42.105469 16.230469 41.882812 16.179688 41.730469 16.300781 L 36.742188 19.789062 C 37.433594 20.628906 37.996094 21.558594 38.4375 22.5625 L 49.816406 17.257812 Z M 51.621094 21.734375 L 52.199219 24.992188 C 52.226562 25.183594 52.101562 25.34375 51.910156 25.371094 L 39.363281 26.519531 C 39.308594 25.410156 39.085938 24.355469 38.742188 23.351562 L 44.636719 21.757812 C 44.816406 21.703125 45.007812 21.828125 45.039062 22.015625 L 45.21875 23.015625 L 51.195312 21.484375 C 51.375 21.445312 51.5625 21.554688 51.59375 21.742188 L 51.621094 21.726562 Z M 51.054688 33.703125 C 51.234375 33.742188 51.425781 33.636719 51.453125 33.449219 L 52.035156 30.191406 C 52.0625 30 51.9375 29.835938 51.742188 29.8125 L 45.585938 29.242188 L 45.765625 28.242188 C 45.796875 28.050781 45.671875 27.890625 45.476562 27.863281 L 39.375 27.378906 C 39.347656 28.488281 39.171875 29.554688 38.851562 30.570312 L 51.042969 33.695312 L 51.058594 33.710938 Z M 47.800781 41.140625 C 47.707031 41.304688 47.488281 41.34375 47.332031 41.25 L 36.960938 34.21875 C 37.621094 33.363281 38.160156 32.417969 38.558594 31.40625 L 44.125 33.910156 C 44.304688 33.992188 44.375 34.191406 44.273438 34.355469 L 43.75 35.234375 L 49.34375 37.828125 C 49.507812 37.910156 49.578125 38.113281 49.480469 38.273438 Z M 33.929688 36.988281 L 41.21875 47.078125 C 41.328125 47.226562 41.546875 47.253906 41.6875 47.132812 L 44.265625 45.007812 C 44.414062 44.886719 44.414062 44.667969 44.292969 44.535156 L 39.957031 40.222656 L 40.753906 39.574219 C 40.90625 39.453125 40.90625 39.238281 40.769531 39.101562 L 36.402344 34.882812 C 35.671875 35.695312 34.84375 36.414062 33.925781 36.992188 L 33.9375 36.992188 Z M 33.863281 50.730469 C 33.683594 50.800781 33.492188 50.691406 33.4375 50.515625 L 30.101562 38.589844 C 31.191406 38.34375 32.226562 37.953125 33.175781 37.441406 L 35.808594 42.863281 C 35.894531 43.039062 35.808594 43.238281 35.628906 43.292969 L 34.648438 43.644531 L 37.226562 49.164062 C 37.3125 49.339844 37.226562 49.527344 37.046875 49.597656 L 33.878906 50.734375 L 33.867188 50.734375 Z M 33.863281 50.730469 "/>
</g>
</svg>
