<?xml version="1.0" encoding="UTF-8"?>
<svg xmlns="http://www.w3.org/2000/svg" xmlns:xlink="http://www.w3.org/1999/xlink" width="177px" height="55px" viewBox="0 0 177 55" version="1.1">
<g id="surface1">
<path style=" stroke:none;fill-rule:nonzero;fill:rgb(43.921569%,38.431373%,34.901962%);fill-opacity:1;" d="M 71.445312 23.457031 C 72.730469 23.457031 73.695312 23.617188 74.660156 24.101562 C 75.628906 24.425781 76.433594 25.074219 77.238281 25.71875 C 77.878906 26.367188 78.523438 27.175781 78.84375 28.148438 C 79.167969 29.117188 79.328125 30.089844 79.328125 31.058594 C 79.328125 32.675781 79.007812 34.132812 78.363281 35.265625 C 77.71875 36.398438 76.59375 37.367188 74.984375 38.015625 C 75.789062 38.175781 76.269531 38.5 76.753906 38.984375 C 77.238281 39.46875 77.558594 39.957031 77.878906 40.441406 C 78.203125 41.089844 78.363281 41.574219 78.523438 42.382812 C 78.683594 43.03125 78.683594 43.839844 78.84375 44.484375 C 78.84375 44.96875 78.84375 45.457031 78.84375 45.941406 C 78.84375 46.589844 78.84375 47.074219 79.007812 47.71875 C 79.007812 48.367188 79.167969 48.851562 79.328125 49.5 C 79.488281 49.984375 79.648438 50.46875 79.972656 50.957031 L 74.019531 50.957031 C 73.695312 50.148438 73.535156 49.015625 73.375 47.882812 C 73.375 46.75 73.214844 45.457031 73.050781 44.484375 C 72.890625 43.03125 72.410156 42.058594 71.765625 41.410156 C 71.121094 40.765625 69.996094 40.441406 68.546875 40.441406 L 62.753906 40.441406 L 62.753906 51.117188 L 56.800781 51.117188 L 56.800781 23.457031 Z M 69.191406 35.75 C 70.476562 35.75 71.605469 35.425781 72.25 34.78125 C 72.890625 34.132812 73.214844 33.160156 73.214844 31.707031 C 73.214844 30.410156 72.890625 29.441406 72.25 28.792969 C 71.605469 28.148438 70.476562 27.824219 69.191406 27.824219 L 62.753906 27.824219 L 62.753906 35.589844 L 69.191406 35.589844 Z M 69.191406 35.75 "/>
<path style=" stroke:none;fill-rule:nonzero;fill:rgb(43.921569%,38.431373%,34.901962%);fill-opacity:1;" d="M 83.511719 33.808594 C 83.996094 33 84.800781 32.351562 85.605469 31.867188 C 86.40625 31.382812 87.375 31.058594 88.5 30.734375 C 89.625 30.574219 90.59375 30.410156 91.71875 30.410156 C 92.683594 30.410156 93.648438 30.410156 94.777344 30.574219 C 95.742188 30.734375 96.707031 31.058594 97.511719 31.382812 C 98.316406 31.867188 98.960938 32.351562 99.601562 33.160156 C 100.085938 33.96875 100.40625 34.78125 100.40625 36.074219 L 100.40625 46.425781 C 100.40625 47.398438 100.40625 48.207031 100.566406 49.015625 C 100.730469 49.824219 100.890625 50.46875 101.050781 50.792969 L 95.578125 50.792969 C 95.417969 50.46875 95.417969 50.148438 95.257812 49.824219 C 95.257812 49.5 95.097656 49.175781 95.097656 48.851562 C 94.292969 49.824219 93.167969 50.308594 92.039062 50.792969 C 90.914062 51.117188 89.625 51.28125 88.5 51.28125 C 87.535156 51.28125 86.730469 51.117188 85.925781 50.957031 C 85.121094 50.792969 84.476562 50.308594 83.832031 49.824219 C 83.191406 49.339844 82.707031 48.691406 82.386719 48.042969 C 82.0625 47.234375 81.902344 46.425781 81.902344 45.457031 C 81.902344 44.324219 82.0625 43.351562 82.546875 42.707031 C 82.867188 42.058594 83.511719 41.410156 83.996094 40.925781 C 84.636719 40.441406 85.28125 40.117188 86.085938 39.957031 C 86.890625 39.792969 87.695312 39.632812 88.5 39.46875 C 89.304688 39.308594 90.109375 39.308594 90.914062 39.148438 C 91.71875 39.148438 92.363281 38.984375 93.003906 38.824219 C 93.648438 38.660156 94.132812 38.5 94.453125 38.175781 C 94.777344 37.851562 94.9375 37.53125 94.9375 36.882812 C 94.9375 36.234375 94.777344 35.75 94.613281 35.425781 C 94.453125 35.101562 94.132812 34.78125 93.808594 34.617188 C 93.488281 34.457031 93.167969 34.292969 92.683594 34.292969 C 92.199219 34.292969 91.878906 34.132812 91.394531 34.132812 C 90.269531 34.132812 89.464844 34.292969 88.820312 34.78125 C 88.179688 35.265625 87.855469 35.910156 87.695312 37.042969 L 82.386719 37.042969 C 82.707031 35.75 83.027344 34.617188 83.511719 33.808594 M 94.132812 41.574219 C 93.808594 41.734375 93.488281 41.734375 93.003906 41.898438 C 92.683594 41.898438 92.199219 42.058594 91.71875 42.058594 C 91.234375 42.058594 90.914062 42.21875 90.429688 42.21875 C 89.949219 42.21875 89.625 42.382812 89.304688 42.542969 C 88.984375 42.707031 88.5 42.867188 88.339844 43.03125 C 88.015625 43.191406 87.855469 43.515625 87.695312 43.839844 C 87.535156 44.160156 87.375 44.648438 87.375 45.132812 C 87.375 45.617188 87.535156 46.101562 87.695312 46.425781 C 87.855469 46.75 88.179688 47.074219 88.339844 47.234375 C 88.660156 47.398438 88.984375 47.558594 89.464844 47.558594 C 89.949219 47.558594 90.269531 47.71875 90.753906 47.71875 C 91.878906 47.71875 92.683594 47.558594 93.167969 47.234375 C 93.808594 46.910156 94.132812 46.425781 94.453125 45.941406 C 94.777344 45.457031 94.9375 44.96875 94.9375 44.484375 C 94.9375 44 95.097656 43.515625 95.097656 43.191406 L 95.097656 41.089844 C 94.777344 41.25 94.453125 41.410156 94.132812 41.574219 "/>
<path style=" stroke:none;fill-rule:nonzero;fill:rgb(43.921569%,38.431373%,34.901962%);fill-opacity:1;" d="M 117.625 48.207031 C 116.980469 49.339844 116.175781 49.984375 115.050781 50.46875 C 114.085938 50.957031 112.796875 51.117188 111.511719 51.117188 C 110.0625 51.117188 108.773438 50.792969 107.648438 50.308594 C 106.523438 49.660156 105.554688 49.015625 104.914062 48.042969 C 104.109375 47.074219 103.625 45.941406 103.304688 44.648438 C 102.980469 43.351562 102.820312 42.058594 102.820312 40.601562 C 102.820312 39.308594 102.980469 38.015625 103.304688 36.71875 C 103.625 35.425781 104.269531 34.457031 104.914062 33.484375 C 105.554688 32.515625 106.523438 31.707031 107.648438 31.21875 C 108.773438 30.574219 110.0625 30.410156 111.511719 30.410156 C 112.636719 30.410156 113.761719 30.734375 114.890625 31.21875 C 116.015625 31.707031 116.820312 32.515625 117.300781 33.484375 L 117.300781 23.457031 L 122.773438 23.457031 L 122.773438 50.792969 L 117.625 50.792969 Z M 117.300781 38.5 C 117.140625 37.691406 116.820312 37.042969 116.5 36.558594 C 116.175781 35.910156 115.695312 35.589844 115.050781 35.101562 C 114.40625 34.78125 113.761719 34.617188 112.796875 34.617188 C 111.832031 34.617188 111.1875 34.78125 110.542969 35.101562 C 109.902344 35.425781 109.417969 35.910156 109.097656 36.558594 C 108.773438 37.207031 108.453125 37.851562 108.292969 38.5 C 108.132812 39.308594 107.96875 39.957031 107.96875 40.925781 C 107.96875 41.734375 108.132812 42.382812 108.292969 43.191406 C 108.453125 44 108.773438 44.648438 109.097656 45.292969 C 109.417969 45.941406 110.0625 46.425781 110.542969 46.75 C 111.1875 47.074219 111.832031 47.234375 112.636719 47.234375 C 113.601562 47.234375 114.246094 47.074219 114.890625 46.75 C 115.53125 46.425781 116.015625 45.941406 116.335938 45.292969 C 116.660156 44.648438 116.980469 44 117.140625 43.191406 C 117.300781 42.382812 117.300781 41.574219 117.300781 40.765625 C 117.625 39.957031 117.464844 39.148438 117.300781 38.5 "/>
<path style=" stroke:none;fill-rule:nonzero;fill:rgb(43.921569%,38.431373%,34.901962%);fill-opacity:1;" d="M 126.796875 33.808594 C 127.277344 33 128.082031 32.351562 128.886719 31.867188 C 129.691406 31.382812 130.65625 31.058594 131.785156 30.734375 C 132.910156 30.574219 133.875 30.410156 135.003906 30.410156 C 135.96875 30.410156 136.933594 30.410156 138.058594 30.574219 C 139.027344 30.734375 139.992188 31.058594 140.796875 31.382812 C 141.601562 31.867188 142.242188 32.351562 142.886719 33.160156 C 143.371094 33.96875 143.691406 34.78125 143.691406 36.074219 L 143.691406 46.425781 C 143.691406 47.398438 143.691406 48.207031 143.851562 49.015625 C 144.011719 49.824219 144.175781 50.46875 144.335938 50.792969 L 138.863281 50.792969 C 138.703125 50.46875 138.703125 50.148438 138.542969 49.824219 C 138.542969 49.5 138.382812 49.175781 138.382812 48.851562 C 137.578125 49.824219 136.449219 50.308594 135.324219 50.792969 C 134.199219 51.117188 132.910156 51.28125 131.785156 51.28125 C 130.820312 51.28125 130.015625 51.117188 129.210938 50.957031 C 128.40625 50.792969 127.761719 50.308594 127.117188 49.824219 C 126.472656 49.339844 125.992188 48.691406 125.671875 48.042969 C 125.347656 47.398438 125.1875 46.425781 125.1875 45.457031 C 125.1875 44.324219 125.347656 43.351562 125.832031 42.707031 C 126.152344 42.058594 126.796875 41.410156 127.277344 40.925781 C 127.921875 40.441406 128.566406 40.117188 129.371094 39.957031 C 130.175781 39.792969 130.980469 39.632812 131.785156 39.46875 C 132.589844 39.308594 133.394531 39.308594 134.199219 39.148438 C 135.003906 39.148438 135.644531 38.984375 136.289062 38.824219 C 136.933594 38.660156 137.417969 38.5 137.738281 38.175781 C 138.058594 37.851562 138.222656 37.53125 138.222656 36.882812 C 138.222656 36.234375 138.058594 35.75 137.898438 35.425781 C 137.738281 35.101562 137.417969 34.78125 137.09375 34.617188 C 136.773438 34.457031 136.449219 34.292969 135.96875 34.292969 C 135.484375 34.292969 135.164062 34.132812 134.679688 34.132812 C 133.554688 34.132812 132.75 34.292969 132.105469 34.78125 C 131.460938 35.265625 131.140625 35.910156 130.980469 37.042969 L 125.671875 37.042969 C 125.832031 35.75 126.152344 34.617188 126.796875 33.808594 M 137.417969 41.574219 C 137.09375 41.734375 136.773438 41.734375 136.289062 41.898438 C 135.96875 41.898438 135.484375 42.058594 135.003906 42.058594 C 134.519531 42.058594 134.199219 42.21875 133.714844 42.21875 C 133.234375 42.21875 132.910156 42.382812 132.589844 42.542969 C 132.265625 42.707031 131.785156 42.867188 131.625 43.03125 C 131.300781 43.191406 131.140625 43.515625 130.980469 43.839844 C 130.820312 44.160156 130.65625 44.648438 130.65625 45.132812 C 130.65625 45.617188 130.820312 46.101562 130.980469 46.425781 C 131.140625 46.75 131.460938 47.074219 131.625 47.234375 C 131.945312 47.398438 132.265625 47.558594 132.75 47.558594 C 133.234375 47.558594 133.554688 47.71875 134.039062 47.71875 C 135.164062 47.71875 135.96875 47.558594 136.449219 47.234375 C 137.09375 46.910156 137.417969 46.425781 137.738281 45.941406 C 138.058594 45.457031 138.222656 44.96875 138.222656 44.484375 C 138.222656 44 138.382812 43.515625 138.382812 43.191406 L 138.382812 41.089844 C 138.058594 41.25 137.738281 41.410156 137.417969 41.574219 "/>
<path style=" stroke:none;fill-rule:nonzero;fill:rgb(43.921569%,38.431373%,34.901962%);fill-opacity:1;" d="M 152.058594 31.058594 L 152.058594 34.78125 C 152.382812 34.132812 152.703125 33.648438 153.023438 33 C 153.507812 32.515625 153.988281 32.03125 154.472656 31.707031 C 154.957031 31.382812 155.597656 31.058594 156.242188 30.898438 C 156.886719 30.734375 157.53125 30.574219 158.171875 30.574219 C 158.496094 30.574219 158.976562 30.574219 159.300781 30.734375 L 159.300781 35.75 C 158.976562 35.75 158.816406 35.589844 158.335938 35.589844 C 158.011719 35.589844 157.691406 35.589844 157.367188 35.589844 C 156.402344 35.589844 155.597656 35.75 154.792969 36.074219 C 154.152344 36.398438 153.507812 36.882812 153.183594 37.367188 C 152.703125 38.015625 152.542969 38.660156 152.21875 39.308594 C 152.058594 40.117188 151.898438 40.925781 151.898438 41.734375 L 151.898438 50.632812 L 146.425781 50.632812 L 146.425781 31.058594 Z M 152.058594 31.058594 "/>
<path style=" stroke:none;fill-rule:nonzero;fill:rgb(76.862746%,90.980393%,41.960785%);fill-opacity:1;" d="M 41.355469 46.101562 C 46.984375 41.898438 50.527344 35.101562 50.527344 27.5 C 50.527344 14.558594 40.066406 4.042969 27.195312 4.042969 C 14.480469 4.042969 4.023438 14.558594 4.023438 27.5 C 4.023438 40.117188 14 50.46875 26.550781 50.792969 L 50.527344 50.792969 L 50.527344 46.101562 Z M 9.011719 27.5 C 9.011719 17.308594 17.21875 9.058594 27.355469 9.058594 C 37.492188 9.058594 45.699219 17.308594 45.699219 27.5 C 45.699219 37.691406 37.492188 45.941406 27.355469 45.941406 C 17.21875 45.941406 9.011719 37.691406 9.011719 27.5 "/>
<path style=" stroke:none;fill-rule:nonzero;fill:rgb(76.862746%,90.980393%,41.960785%);fill-opacity:1;" d="M 38.296875 16.175781 C 35.398438 13.265625 31.699219 11.648438 27.515625 11.648438 C 23.492188 11.648438 19.632812 13.265625 16.734375 16.175781 C 10.78125 22.160156 10.78125 32.03125 16.734375 38.175781 L 17.054688 37.851562 C 16.414062 37.207031 13.355469 33.484375 13.355469 27.175781 C 13.355469 20.542969 18.183594 15.207031 25.746094 14.558594 C 26.226562 14.558594 26.871094 14.398438 27.355469 14.398438 C 30.734375 14.398438 33.789062 15.691406 36.203125 18.117188 C 41.03125 23.132812 41.03125 31.382812 36.203125 36.398438 L 38.136719 38.175781 C 44.25 32.03125 44.25 22.160156 38.296875 16.175781 "/>
<path style=" stroke:none;fill-rule:nonzero;fill:rgb(76.862746%,90.980393%,41.960785%);fill-opacity:1;" d="M 35.078125 19.410156 C 33.148438 17.308594 30.410156 16.175781 27.675781 16.175781 C 24.78125 16.175781 22.207031 17.308594 20.273438 19.410156 C 16.25 23.617188 16.25 30.410156 20.273438 34.617188 L 20.757812 34.132812 C 19.148438 32.351562 18.34375 29.925781 18.34375 27.5 C 18.34375 22.484375 22.207031 18.441406 27.195312 18.441406 C 32.664062 18.441406 36.367188 22.648438 36.042969 27.5 C 35.882812 29.117188 35.078125 31.058594 33.628906 32.675781 L 35.398438 34.457031 C 39.101562 30.574219 39.101562 23.617188 35.078125 19.410156 "/>
<path style=" stroke:none;fill-rule:nonzero;fill:rgb(76.862746%,90.980393%,41.960785%);fill-opacity:1;" d="M 31.859375 22.808594 C 30.734375 21.675781 29.285156 21.03125 27.675781 21.03125 C 26.066406 21.03125 24.617188 21.675781 23.492188 22.808594 C 21.238281 25.074219 21.238281 28.957031 23.492188 31.21875 L 23.976562 30.734375 C 23.171875 29.925781 22.527344 28.632812 22.527344 27.175781 C 22.527344 24.589844 24.457031 22.484375 26.710938 22.484375 C 28.640625 22.484375 30.25 23.941406 30.734375 25.71875 C 30.894531 26.042969 30.894531 26.207031 30.894531 26.53125 C 30.894531 26.691406 30.894531 26.851562 30.894531 27.015625 C 30.894531 27.984375 30.734375 28.792969 30.25 29.441406 L 31.699219 30.898438 C 34.113281 28.957031 34.113281 25.234375 31.859375 22.808594 "/>
<path style=" stroke:none;fill-rule:nonzero;fill:rgb(43.921569%,38.431373%,34.901962%);fill-opacity:1;" d="M 169.277344 27.5 L 169.277344 23.292969 L 171.046875 23.292969 C 171.367188 23.292969 171.691406 23.292969 171.851562 23.457031 C 172.011719 23.457031 172.171875 23.617188 172.332031 23.78125 C 172.496094 23.941406 172.496094 24.101562 172.496094 24.425781 C 172.496094 24.75 172.332031 24.910156 172.171875 25.234375 C 172.011719 25.398438 171.691406 25.558594 171.367188 25.558594 C 171.527344 25.558594 171.691406 25.71875 171.691406 25.71875 C 171.851562 25.882812 172.011719 26.042969 172.171875 26.207031 L 172.816406 27.339844 L 172.171875 27.339844 L 171.691406 26.53125 C 171.527344 26.207031 171.367188 26.042969 171.367188 25.882812 C 171.207031 25.71875 171.207031 25.71875 171.046875 25.558594 C 170.886719 25.558594 170.886719 25.398438 170.722656 25.398438 C 170.722656 25.398438 170.5625 25.398438 170.402344 25.398438 L 169.757812 25.398438 L 169.757812 27.5 Z M 169.757812 25.234375 L 170.886719 25.234375 C 171.207031 25.234375 171.367188 25.234375 171.527344 25.234375 C 171.691406 25.234375 171.851562 25.074219 171.851562 24.910156 C 171.851562 24.75 172.011719 24.75 172.011719 24.589844 C 172.011719 24.425781 172.011719 24.265625 171.851562 24.101562 C 171.691406 23.941406 171.527344 23.941406 171.207031 23.941406 L 169.921875 23.941406 L 169.921875 25.234375 Z M 169.757812 25.234375 "/>
<path style=" stroke:none;fill-rule:nonzero;fill:rgb(43.921569%,38.431373%,34.901962%);fill-opacity:1;" d="M 170.722656 29.601562 C 168.472656 29.601562 166.703125 27.824219 166.703125 25.558594 C 166.703125 23.292969 168.472656 21.515625 170.722656 21.515625 C 172.976562 21.515625 174.746094 23.292969 174.746094 25.558594 C 174.746094 27.824219 172.976562 29.601562 170.722656 29.601562 M 170.722656 21.839844 C 168.792969 21.839844 167.183594 23.457031 167.183594 25.398438 C 167.183594 27.339844 168.792969 28.957031 170.722656 28.957031 C 172.65625 28.957031 174.265625 27.339844 174.265625 25.398438 C 174.425781 23.457031 172.65625 21.839844 170.722656 21.839844 "/>
</g>
</svg>
