<?xml version="1.0" encoding="UTF-8"?>
<svg xmlns="http://www.w3.org/2000/svg" xmlns:xlink="http://www.w3.org/1999/xlink" width="326px" height="55px" viewBox="0 0 326 55" version="1.1">
<g id="surface1">
<path style=" stroke:none;fill-rule:evenodd;fill:rgb(1.568628%,1.568628%,1.568628%);fill-opacity:1;" d="M 11.902344 0.457031 C 11.660156 1.148438 0 54.214844 0 54.636719 C 0 54.863281 2.589844 55 6.945312 55 L 13.890625 55 L 14.246094 53.625 C 14.441406 52.867188 15.390625 48.65625 16.351562 44.261719 L 18.101562 36.277344 L 22.074219 36.378906 L 26.050781 36.484375 L 33.871094 55 L 47.964844 55 L 47.644531 54.175781 C 47.464844 53.722656 45.570312 49.324219 43.433594 44.40625 C 41.292969 39.484375 39.589844 35.425781 39.644531 35.382812 C 39.699219 35.34375 40.566406 35.105469 41.574219 34.859375 C 44.445312 34.15625 48.226562 31.964844 50.5 29.6875 C 54.3125 25.875 56.234375 20.667969 55.972656 14.867188 C 55.789062 10.777344 54.730469 8.226562 52.039062 5.375 C 49.769531 2.976562 47.445312 1.675781 43.742188 0.726562 C 41.152344 0.0625 39.65625 0 26.484375 0 C 15.28125 0 12.027344 0.101562 11.902344 0.457031 M 70.507812 27.003906 C 61.847656 41.859375 54.628906 54.234375 54.46875 54.503906 C 54.226562 54.914062 55.414062 55 61.265625 55 L 68.355469 55 L 73.441406 46.21875 L 86.15625 46.207031 L 98.871094 46.199219 L 99.226562 47.574219 C 99.421875 48.332031 99.871094 50.3125 100.21875 51.976562 L 100.855469 55 L 107.960938 55 C 114.558594 55 115.050781 54.953125 114.867188 54.359375 C 114.761719 54.003906 112.105469 42 108.964844 27.683594 C 105.828125 13.363281 103.167969 1.277344 103.054688 0.824219 L 102.847656 0 L 86.257812 0 L 70.507812 27.003906 M 133.191406 0.640625 C 133.089844 0.996094 130.433594 13 127.285156 27.316406 C 124.140625 41.636719 121.476562 53.726562 121.363281 54.183594 L 121.160156 55.015625 L 128.242188 54.917969 L 135.328125 54.816406 L 137.359375 45.648438 L 139.390625 36.484375 L 149.273438 36.273438 C 158.0625 36.089844 159.417969 35.976562 161.535156 35.277344 C 166.949219 33.480469 171.339844 29.769531 173.746094 24.953125 C 175.414062 21.617188 175.9375 18.980469 175.753906 14.832031 C 175.628906 11.960938 175.4375 11.125 174.421875 9.066406 C 173.023438 6.21875 170.175781 3.4375 167.238281 2.042969 C 163.273438 0.167969 161.726562 0.0117188 147 0.00390625 C 134.339844 0 133.367188 0.046875 133.191406 0.640625 M 187.71875 0.457031 C 187.460938 1.175781 175.820312 54.125 175.820312 54.585938 C 175.820312 54.878906 177.855469 55 182.753906 55 C 189.042969 55 189.707031 54.941406 189.878906 54.359375 C 190.101562 53.617188 201.828125 0.425781 201.828125 0.171875 C 201.828125 0.078125 198.691406 0 194.855469 0 C 189.613281 0 187.84375 0.113281 187.71875 0.457031 M 212.292969 0.433594 C 212.066406 1.128906 200.363281 54.410156 200.363281 54.730469 C 200.363281 54.878906 206.519531 55 214.050781 55 C 229.066406 55 231.660156 54.757812 237.257812 52.832031 C 249.90625 48.476562 257.78125 36.269531 257.023438 22.183594 C 256.464844 11.792969 250.25 4.28125 239.546875 1.058594 C 236.996094 0.289062 235.964844 0.222656 224.628906 0.0898438 C 214.757812 -0.0273438 212.417969 0.0390625 212.292969 0.433594 M 23.441406 11.933594 C 23.441406 12.042969 22.867188 14.710938 22.160156 17.859375 C 21.457031 21.011719 20.878906 23.824219 20.878906 24.113281 C 20.878906 24.558594 22.085938 24.617188 28.664062 24.5 C 35.796875 24.371094 36.570312 24.292969 37.957031 23.5625 C 42.855469 20.976562 43.558594 14.574219 39.1875 12.375 C 38.101562 11.832031 36.832031 11.734375 30.675781 11.734375 C 26.699219 11.734375 23.441406 11.824219 23.441406 11.933594 M 143.625 17.324219 C 142.972656 20.402344 142.347656 23.289062 142.238281 23.742188 L 142.042969 24.566406 L 148.105469 24.566406 C 155.554688 24.566406 157.457031 24.207031 159.4375 22.417969 C 161.210938 20.816406 161.902344 19.304688 161.902344 17.027344 C 161.902344 14.835938 161.015625 13.367188 159.136719 12.457031 C 157.820312 11.820312 156.867188 11.734375 151.226562 11.734375 L 144.8125 11.734375 L 143.625 17.324219 M 220.464844 27.375 L 217.007812 43.082031 L 221.945312 43.1875 C 227.5625 43.300781 229.667969 42.964844 232.921875 41.425781 C 237.339844 39.332031 240.253906 36.097656 241.960938 31.382812 C 244.777344 23.617188 242.390625 15.753906 236.304688 12.753906 C 234.824219 12.023438 233.9375 11.902344 229.269531 11.792969 L 223.925781 11.667969 L 220.464844 27.375 M 86.191406 24.464844 L 80.6875 33.917969 L 84.460938 34.019531 C 86.535156 34.078125 90.035156 34.078125 92.234375 34.019531 L 96.230469 33.917969 L 94.226562 24.75 C 93.125 19.707031 92.105469 15.453125 91.960938 15.296875 C 91.816406 15.140625 89.222656 19.265625 86.191406 24.464844 "/>
<path style=" stroke:none;fill-rule:evenodd;fill:rgb(92.156863%,36.078432%,14.117648%);fill-opacity:1;" d="M 259.140625 1.894531 C 264.105469 7.429688 266.734375 14.867188 266.757812 23.464844 C 266.789062 34.570312 262.933594 44.546875 255.652344 52.222656 L 253.015625 55 L 280.050781 55 L 286.269531 39.570312 C 289.6875 31.085938 292.539062 23.992188 292.605469 23.804688 C 292.679688 23.605469 289.496094 23.464844 284.824219 23.464844 C 280.472656 23.464844 276.917969 23.382812 276.917969 23.28125 C 276.917969 23.003906 279.109375 13.121094 279.335938 12.375 C 279.515625 11.777344 280.582031 11.734375 294.890625 11.734375 C 303.820312 11.734375 310.25 11.871094 310.25 12.066406 C 310.25 12.304688 297.433594 46.296875 294.289062 54.394531 C 294.035156 55.046875 294.304688 55.070312 300.214844 54.917969 C 305.890625 54.777344 306.628906 54.675781 309.144531 53.734375 C 315.289062 51.425781 320.03125 47.132812 322.898438 41.28125 C 325.132812 36.71875 325.691406 34.382812 325.902344 28.730469 C 326.039062 25.078125 325.933594 23.171875 325.464844 20.847656 C 323.765625 12.441406 319.039062 5.890625 312.265625 2.550781 C 306.964844 -0.0585938 307.699219 0 281.203125 0 L 257.4375 0 L 259.140625 1.894531 "/>
</g>
</svg>
