<?xml version="1.0" encoding="UTF-8"?>
<svg xmlns="http://www.w3.org/2000/svg" xmlns:xlink="http://www.w3.org/1999/xlink" width="250px" height="30px" viewBox="0 0 249 30" version="1.1">
<g id="surface1">
<path style=" stroke:none;fill-rule:nonzero;fill:rgb(13.333333%,13.333333%,13.333333%);fill-opacity:1;" d="M 38.425781 4.746094 L 46.070312 4.746094 C 50.800781 4.746094 53.304688 7.394531 53.304688 11.304688 C 53.304688 14.09375 51.84375 15.765625 49.410156 16.746094 L 54.066406 25.253906 L 49.894531 25.253906 L 45.308594 16.746094 L 42.109375 16.746094 L 42.109375 25.253906 L 38.425781 25.253906 Z M 45.515625 13.605469 C 48.226562 13.605469 49.476562 12.835938 49.476562 10.746094 C 49.476562 8.929688 48.226562 7.882812 45.445312 7.882812 L 42.039062 7.882812 L 42.039062 13.675781 Z M 45.515625 13.605469 "/>
<path style=" stroke:none;fill-rule:nonzero;fill:rgb(13.333333%,13.333333%,13.333333%);fill-opacity:1;" d="M 69.503906 17.304688 C 69.503906 12.628906 72.355469 9.347656 76.804688 9.347656 C 80.558594 9.347656 83.128906 11.511719 83.410156 14.863281 L 79.933594 14.863281 C 79.722656 13.324219 78.402344 12.207031 76.875 12.277344 C 74.648438 12.277344 73.1875 14.164062 73.1875 17.234375 C 73.1875 20.304688 74.648438 22.253906 76.875 22.253906 C 78.402344 22.324219 79.722656 21.207031 79.933594 19.675781 L 83.410156 19.675781 C 83.128906 22.953125 80.695312 25.253906 76.875 25.253906 C 72.214844 25.253906 69.503906 21.976562 69.503906 17.304688 Z M 69.503906 17.304688 "/>
<path style=" stroke:none;fill-rule:nonzero;fill:rgb(13.333333%,13.333333%,13.333333%);fill-opacity:1;" d="M 84.3125 17.304688 C 84.3125 12.558594 87.164062 9.347656 91.683594 9.347656 C 96.203125 9.347656 99.050781 12.558594 99.050781 17.304688 C 99.050781 22.046875 96.203125 25.253906 91.683594 25.253906 C 87.164062 25.253906 84.3125 22.046875 84.3125 17.304688 Z M 95.300781 17.304688 C 95.300781 14.511719 94.046875 12.207031 91.613281 12.207031 C 89.179688 12.207031 87.925781 14.441406 87.925781 17.304688 C 87.925781 20.164062 89.109375 22.324219 91.613281 22.324219 C 94.117188 22.324219 95.300781 20.164062 95.300781 17.304688 Z M 95.300781 17.304688 "/>
<path style=" stroke:none;fill-rule:nonzero;fill:rgb(13.333333%,13.333333%,13.333333%);fill-opacity:1;" d="M 100.027344 9.835938 L 103.503906 9.835938 L 103.503906 12.417969 L 103.640625 12.417969 C 104.128906 10.746094 105.660156 9.558594 107.394531 9.628906 C 107.8125 9.628906 108.230469 9.695312 108.714844 9.695312 L 108.714844 13.046875 C 108.160156 12.90625 107.605469 12.835938 107.046875 12.835938 C 105.238281 12.695312 103.710938 14.09375 103.574219 15.90625 C 103.574219 15.976562 103.574219 16.046875 103.574219 16.1875 L 103.574219 25.253906 L 99.957031 25.253906 Z M 100.027344 9.835938 "/>
<path style=" stroke:none;fill-rule:nonzero;fill:rgb(13.333333%,13.333333%,13.333333%);fill-opacity:1;" d="M 109.066406 17.582031 C 109.066406 12.417969 111.84375 9.695312 115.390625 9.695312 C 117.269531 9.628906 119.007812 10.675781 119.773438 12.417969 L 119.910156 12.417969 L 119.910156 4.746094 L 123.527344 4.746094 L 123.527344 25.253906 L 119.980469 25.253906 L 119.980469 22.8125 L 119.773438 22.8125 C 119.214844 23.929688 118.035156 25.253906 115.390625 25.253906 C 111.84375 25.253906 109.066406 22.675781 109.066406 17.582031 Z M 120.050781 17.582031 C 120.050781 14.582031 118.796875 12.695312 116.433594 12.695312 C 114.070312 12.695312 112.820312 14.722656 112.820312 17.582031 C 112.820312 20.441406 114.070312 22.605469 116.433594 22.605469 C 118.796875 22.605469 120.050781 20.582031 120.050781 17.582031 Z M 120.050781 17.582031 "/>
<path style=" stroke:none;fill-rule:nonzero;fill:rgb(13.333333%,13.333333%,13.333333%);fill-opacity:1;" d="M 140.628906 17.582031 C 140.628906 12.417969 143.410156 9.695312 146.957031 9.695312 C 148.835938 9.628906 150.574219 10.675781 151.335938 12.417969 L 151.476562 12.417969 L 151.476562 4.746094 L 155.09375 4.746094 L 155.09375 25.253906 L 151.546875 25.253906 L 151.546875 22.8125 L 151.335938 22.8125 C 150.78125 23.929688 149.601562 25.253906 146.957031 25.253906 C 143.339844 25.253906 140.628906 22.675781 140.628906 17.582031 Z M 151.546875 17.582031 C 151.546875 14.582031 150.292969 12.695312 147.929688 12.695312 C 145.566406 12.695312 144.316406 14.722656 144.316406 17.582031 C 144.316406 20.441406 145.566406 22.605469 147.929688 22.605469 C 150.292969 22.605469 151.546875 20.582031 151.546875 17.582031 Z M 151.546875 17.582031 "/>
<path style=" stroke:none;fill-rule:nonzero;fill:rgb(13.333333%,13.333333%,13.333333%);fill-opacity:1;" d="M 163.296875 4.746094 L 176.4375 4.746094 L 176.4375 7.882812 L 167.050781 7.882812 L 167.050781 13.605469 L 175.535156 13.605469 L 175.535156 16.746094 L 166.984375 16.746094 L 166.984375 25.253906 L 163.296875 25.253906 Z M 163.296875 4.746094 "/>
<path style=" stroke:none;fill-rule:nonzero;fill:rgb(13.333333%,13.333333%,13.333333%);fill-opacity:1;" d="M 187.007812 9.835938 L 190.621094 9.835938 L 190.621094 25.1875 L 187.144531 25.1875 L 187.144531 22.464844 L 187.007812 22.464844 C 186.308594 24.207031 184.710938 25.1875 182.417969 25.1875 C 179.425781 25.1875 177.273438 23.304688 177.273438 19.605469 L 177.273438 9.835938 L 180.886719 9.835938 L 180.886719 19.046875 C 180.886719 21 182.070312 22.253906 183.804688 22.253906 C 185.617188 22.253906 187.074219 20.792969 187.074219 18.976562 C 187.074219 18.90625 187.074219 18.835938 187.074219 18.765625 Z M 187.007812 9.835938 "/>
<path style=" stroke:none;fill-rule:nonzero;fill:rgb(13.333333%,13.333333%,13.333333%);fill-opacity:1;" d="M 200.566406 12.695312 L 197.503906 12.695312 L 197.503906 20.652344 C 197.503906 22.117188 198.199219 22.464844 199.171875 22.464844 C 199.523438 22.464844 199.867188 22.394531 200.214844 22.324219 L 200.84375 25.1875 C 200.144531 25.394531 199.453125 25.535156 198.6875 25.535156 C 195.976562 25.605469 193.890625 24.207031 193.890625 21.277344 L 193.890625 12.695312 L 191.734375 12.695312 L 191.734375 9.90625 L 193.890625 9.90625 L 193.890625 6.207031 L 197.503906 6.207031 L 197.503906 9.90625 L 200.566406 9.90625 Z M 200.566406 12.695312 "/>
<path style=" stroke:none;fill-rule:nonzero;fill:rgb(13.333333%,13.333333%,13.333333%);fill-opacity:1;" d="M 211.96875 9.835938 L 215.582031 9.835938 L 215.582031 25.1875 L 212.105469 25.1875 L 212.105469 22.464844 L 211.898438 22.464844 C 211.203125 24.207031 209.601562 25.1875 207.308594 25.1875 C 204.320312 25.1875 202.230469 23.304688 202.230469 19.605469 L 202.230469 9.835938 L 205.847656 9.835938 L 205.847656 19.046875 C 205.847656 21 207.027344 22.253906 208.769531 22.253906 C 210.574219 22.253906 212.035156 20.792969 212.035156 18.976562 C 212.035156 18.90625 212.035156 18.835938 212.035156 18.765625 Z M 211.96875 9.835938 "/>
<path style=" stroke:none;fill-rule:nonzero;fill:rgb(13.333333%,13.333333%,13.333333%);fill-opacity:1;" d="M 217.878906 9.835938 L 221.355469 9.835938 L 221.355469 12.417969 L 221.492188 12.417969 C 221.976562 10.746094 223.507812 9.558594 225.246094 9.628906 C 225.664062 9.628906 226.152344 9.695312 226.566406 9.695312 L 226.566406 13.046875 C 226.011719 12.90625 225.453125 12.835938 224.898438 12.835938 C 223.089844 12.695312 221.5625 14.09375 221.421875 15.90625 C 221.421875 15.976562 221.421875 16.046875 221.421875 16.1875 L 221.421875 25.253906 L 217.808594 25.253906 Z M 217.878906 9.835938 "/>
<path style=" stroke:none;fill-rule:nonzero;fill:rgb(13.333333%,13.333333%,13.333333%);fill-opacity:1;" d="M 241.03125 7.882812 C 241.03125 6 242.558594 4.464844 244.4375 4.464844 C 246.3125 4.464844 247.84375 6 247.84375 7.882812 C 247.84375 9.765625 246.3125 11.304688 244.4375 11.304688 C 242.488281 11.304688 241.03125 9.765625 241.03125 7.882812 Z M 247.148438 7.882812 C 247.148438 6.347656 245.898438 5.09375 244.367188 5.09375 C 242.835938 5.09375 241.585938 6.347656 241.585938 7.882812 C 241.585938 9.417969 242.835938 10.675781 244.367188 10.675781 C 245.898438 10.675781 247.148438 9.417969 247.148438 7.882812 Z M 243.253906 6.277344 L 244.785156 6.277344 C 245.339844 6.277344 245.757812 6.695312 245.757812 7.253906 C 245.757812 7.605469 245.550781 8.023438 245.199219 8.164062 L 245.898438 9.417969 L 245.269531 9.417969 L 244.714844 8.304688 L 243.878906 8.304688 L 243.878906 9.417969 L 243.324219 9.417969 Z M 244.578125 7.8125 C 244.851562 7.8125 245.128906 7.535156 245.128906 7.253906 C 245.128906 7.253906 245.128906 7.253906 245.128906 7.1875 C 245.128906 6.90625 244.921875 6.628906 244.644531 6.628906 C 244.644531 6.628906 244.578125 6.628906 244.578125 6.628906 L 243.808594 6.628906 L 243.808594 7.746094 L 244.578125 7.746094 Z M 244.578125 7.8125 "/>
<path style=" stroke:none;fill-rule:nonzero;fill:rgb(13.333333%,13.333333%,13.333333%);fill-opacity:1;" d="M 226.636719 17.652344 C 226.636719 12.90625 229.488281 9.695312 233.867188 9.695312 C 237.625 9.695312 240.890625 12.070312 240.890625 17.441406 L 240.890625 18.558594 L 230.183594 18.558594 C 230.183594 21.207031 231.78125 22.464844 234.078125 22.464844 C 235.605469 22.464844 236.855469 22.117188 237.34375 20.792969 L 240.890625 20.792969 C 240.265625 23.441406 237.902344 25.324219 234.078125 25.324219 C 229.488281 25.253906 226.636719 22.464844 226.636719 17.652344 Z M 237.414062 16.117188 C 237.484375 14.234375 236.09375 12.628906 234.214844 12.488281 C 234.148438 12.488281 234.078125 12.488281 233.9375 12.488281 C 231.921875 12.488281 230.25 14.09375 230.25 16.117188 Z M 237.414062 16.117188 "/>
<path style=" stroke:none;fill-rule:nonzero;fill:rgb(13.333333%,13.333333%,13.333333%);fill-opacity:1;" d="M 125.125 17.652344 C 125.125 12.90625 127.976562 9.695312 132.359375 9.695312 C 136.109375 9.695312 139.378906 12.070312 139.378906 17.441406 L 139.378906 18.558594 L 128.671875 18.558594 C 128.671875 21.207031 130.269531 22.464844 132.566406 22.464844 C 134.09375 22.464844 135.347656 22.117188 135.832031 20.792969 L 139.378906 20.792969 C 138.753906 23.441406 136.386719 25.324219 132.566406 25.324219 C 127.976562 25.253906 125.125 22.464844 125.125 17.652344 Z M 135.902344 16.117188 C 135.972656 14.234375 134.582031 12.628906 132.703125 12.488281 C 132.632812 12.488281 132.566406 12.488281 132.425781 12.488281 C 130.410156 12.488281 128.742188 14.09375 128.742188 16.117188 Z M 135.902344 16.117188 "/>
<path style=" stroke:none;fill-rule:nonzero;fill:rgb(13.333333%,13.333333%,13.333333%);fill-opacity:1;" d="M 54.207031 17.652344 C 54.207031 12.90625 57.058594 9.695312 61.4375 9.695312 C 65.195312 9.695312 68.460938 12.070312 68.460938 17.441406 L 68.460938 18.558594 L 57.820312 18.558594 C 57.820312 21.207031 59.421875 22.464844 61.71875 22.464844 C 63.246094 22.464844 64.496094 22.117188 64.984375 20.792969 L 68.53125 20.792969 C 67.902344 23.441406 65.539062 25.324219 61.71875 25.324219 C 57.058594 25.253906 54.207031 22.464844 54.207031 17.652344 Z M 65.054688 16.117188 C 65.125 14.234375 63.730469 12.628906 61.855469 12.488281 C 61.785156 12.488281 61.71875 12.488281 61.578125 12.488281 C 59.5625 12.488281 57.890625 14.09375 57.890625 16.117188 Z M 65.054688 16.117188 "/>
<path style=" stroke:none;fill-rule:evenodd;fill:rgb(13.333333%,13.333333%,13.333333%);fill-opacity:1;" d="M 17.21875 12.835938 C 15.964844 12.835938 14.921875 13.882812 14.921875 15.136719 C 14.921875 16.394531 15.964844 17.441406 17.21875 17.441406 C 18.46875 17.441406 19.511719 16.394531 19.511719 15.136719 C 19.511719 13.882812 18.46875 12.835938 17.21875 12.835938 Z M 17.21875 12.835938 "/>
<path style=" stroke:none;fill-rule:evenodd;fill:rgb(13.333333%,13.333333%,13.333333%);fill-opacity:1;" d="M 30.777344 12.835938 C 29.523438 12.835938 28.480469 13.882812 28.480469 15.136719 C 28.480469 16.394531 29.523438 17.441406 30.777344 17.441406 C 32.027344 17.441406 33.070312 16.394531 33.070312 15.136719 C 33.070312 13.882812 32.027344 12.835938 30.777344 12.835938 Z M 30.777344 12.835938 "/>
<path style=" stroke:none;fill-rule:evenodd;fill:rgb(13.333333%,13.333333%,13.333333%);fill-opacity:1;" d="M 3.519531 12.835938 C 2.269531 12.835938 1.226562 13.882812 1.226562 15.136719 C 1.226562 16.394531 2.269531 17.441406 3.519531 17.441406 C 4.773438 17.441406 5.816406 16.394531 5.816406 15.136719 C 5.816406 13.882812 4.773438 12.835938 3.519531 12.835938 Z M 3.519531 12.835938 "/>
<path style=" stroke:none;fill-rule:evenodd;fill:rgb(13.333333%,13.333333%,13.333333%);fill-opacity:1;" d="M 15.273438 28.046875 L 15.273438 21.277344 C 15.273438 20.234375 16.105469 19.394531 17.148438 19.394531 C 18.191406 19.394531 19.027344 20.234375 19.027344 21.277344 L 19.027344 28.046875 C 19.027344 29.09375 18.191406 29.929688 17.148438 29.929688 C 16.105469 30 15.273438 29.164062 15.273438 28.046875 Z M 15.273438 28.046875 "/>
<path style=" stroke:none;fill-rule:evenodd;fill:rgb(13.333333%,13.333333%,13.333333%);fill-opacity:1;" d="M 22.085938 24.628906 L 22.085938 5.652344 C 22.015625 4.605469 22.847656 3.695312 23.890625 3.628906 C 24.9375 3.558594 25.839844 4.394531 25.910156 5.441406 C 25.910156 5.511719 25.910156 5.582031 25.910156 5.652344 L 25.910156 24.628906 C 25.839844 25.675781 24.9375 26.441406 23.890625 26.441406 C 22.917969 26.371094 22.15625 25.605469 22.085938 24.628906 Z M 22.085938 24.628906 "/>
<path style=" stroke:none;fill-rule:evenodd;fill:rgb(13.333333%,13.333333%,13.333333%);fill-opacity:1;" d="M 8.457031 24.628906 L 8.457031 5.652344 C 8.457031 4.605469 9.292969 3.765625 10.332031 3.765625 C 11.375 3.765625 12.210938 4.605469 12.210938 5.652344 L 12.210938 24.628906 C 12.210938 25.675781 11.375 26.511719 10.332031 26.511719 C 9.292969 26.511719 8.457031 25.675781 8.457031 24.628906 Z M 8.457031 24.628906 "/>
<path style=" stroke:none;fill-rule:evenodd;fill:rgb(13.333333%,13.333333%,13.333333%);fill-opacity:1;" d="M 15.273438 8.652344 L 15.273438 1.882812 C 15.273438 0.835938 16.105469 0 17.148438 0 C 18.191406 0 19.027344 0.835938 19.027344 1.882812 L 19.027344 8.722656 C 19.027344 9.765625 18.191406 10.605469 17.148438 10.605469 C 16.105469 10.605469 15.273438 9.765625 15.273438 8.652344 Z M 15.273438 8.652344 "/>
</g>
</svg>
