<?xml version="1.0" encoding="UTF-8"?>
<svg xmlns="http://www.w3.org/2000/svg" xmlns:xlink="http://www.w3.org/1999/xlink" width="458px" height="55px" viewBox="0 0 454 55" version="1.1">
<g id="surface1">
<path style=" stroke:none;fill-rule:nonzero;fill:rgb(13.333333%,13.333333%,13.333333%);fill-opacity:1;" d="M 68.675781 8.699219 L 82.742188 8.699219 C 91.4375 8.699219 96.042969 13.558594 96.042969 20.722656 C 96.042969 25.835938 93.359375 28.90625 88.882812 30.699219 L 97.449219 46.300781 L 89.777344 46.300781 L 81.335938 30.699219 L 75.453125 30.699219 L 75.453125 46.300781 L 68.675781 46.300781 Z M 81.71875 24.941406 C 86.707031 24.941406 89.007812 23.535156 89.007812 19.699219 C 89.007812 16.371094 86.707031 14.453125 81.59375 14.453125 L 75.324219 14.453125 L 75.324219 25.070312 Z M 81.71875 24.941406 "/>
<path style=" stroke:none;fill-rule:nonzero;fill:rgb(13.333333%,13.333333%,13.333333%);fill-opacity:1;" d="M 125.839844 31.722656 C 125.839844 23.152344 131.085938 17.140625 139.269531 17.140625 C 146.175781 17.140625 150.90625 21.105469 151.417969 27.246094 L 145.023438 27.246094 C 144.640625 24.429688 142.210938 22.382812 139.398438 22.511719 C 135.304688 22.511719 132.621094 25.964844 132.621094 31.59375 C 132.621094 37.222656 135.304688 40.800781 139.398438 40.800781 C 142.210938 40.929688 144.640625 38.882812 145.023438 36.070312 L 151.417969 36.070312 C 150.90625 42.082031 146.429688 46.300781 139.398438 46.300781 C 130.828125 46.300781 125.839844 40.289062 125.839844 31.722656 Z M 125.839844 31.722656 "/>
<path style=" stroke:none;fill-rule:nonzero;fill:rgb(13.333333%,13.333333%,13.333333%);fill-opacity:1;" d="M 153.082031 31.722656 C 153.082031 23.023438 158.324219 17.140625 166.636719 17.140625 C 174.949219 17.140625 180.191406 23.023438 180.191406 31.722656 C 180.191406 40.417969 174.949219 46.300781 166.636719 46.300781 C 158.324219 46.300781 153.082031 40.417969 153.082031 31.722656 Z M 173.289062 31.722656 C 173.289062 26.605469 170.984375 22.382812 166.507812 22.382812 C 162.035156 22.382812 159.730469 26.476562 159.730469 31.722656 C 159.730469 36.964844 161.90625 40.929688 166.507812 40.929688 C 171.113281 40.929688 173.289062 36.964844 173.289062 31.722656 Z M 173.289062 31.722656 "/>
<path style=" stroke:none;fill-rule:nonzero;fill:rgb(13.333333%,13.333333%,13.333333%);fill-opacity:1;" d="M 181.984375 18.035156 L 188.378906 18.035156 L 188.378906 22.765625 L 188.632812 22.765625 C 189.527344 19.699219 192.34375 17.523438 195.539062 17.652344 C 196.308594 17.652344 197.074219 17.777344 197.96875 17.777344 L 197.96875 23.917969 C 196.945312 23.664062 195.921875 23.535156 194.898438 23.535156 C 191.574219 23.277344 188.761719 25.835938 188.507812 29.164062 C 188.507812 29.289062 188.507812 29.417969 188.507812 29.675781 L 188.507812 46.300781 L 181.855469 46.300781 Z M 181.984375 18.035156 "/>
<path style=" stroke:none;fill-rule:nonzero;fill:rgb(13.333333%,13.333333%,13.333333%);fill-opacity:1;" d="M 198.609375 32.234375 C 198.609375 22.765625 203.722656 17.777344 210.246094 17.777344 C 213.699219 17.652344 216.898438 19.570312 218.304688 22.765625 L 218.558594 22.765625 L 218.558594 8.699219 L 225.210938 8.699219 L 225.210938 46.300781 L 218.6875 46.300781 L 218.6875 41.824219 L 218.304688 41.824219 C 217.28125 43.871094 215.105469 46.300781 210.246094 46.300781 C 203.722656 46.300781 198.609375 41.570312 198.609375 32.234375 Z M 218.816406 32.234375 C 218.816406 26.734375 216.511719 23.277344 212.164062 23.277344 C 207.816406 23.277344 205.515625 26.988281 205.515625 32.234375 C 205.515625 37.476562 207.816406 41.441406 212.164062 41.441406 C 216.511719 41.441406 218.816406 37.734375 218.816406 32.234375 Z M 218.816406 32.234375 "/>
<path style=" stroke:none;fill-rule:nonzero;fill:rgb(13.333333%,13.333333%,13.333333%);fill-opacity:1;" d="M 256.667969 32.234375 C 256.667969 22.765625 261.785156 17.777344 268.308594 17.777344 C 271.761719 17.652344 274.957031 19.570312 276.363281 22.765625 L 276.621094 22.765625 L 276.621094 8.699219 L 283.269531 8.699219 L 283.269531 46.300781 L 276.75 46.300781 L 276.75 41.824219 L 276.363281 41.824219 C 275.339844 43.871094 273.167969 46.300781 268.308594 46.300781 C 261.65625 46.300781 256.667969 41.570312 256.667969 32.234375 Z M 276.75 32.234375 C 276.75 26.734375 274.445312 23.277344 270.097656 23.277344 C 265.75 23.277344 263.449219 26.988281 263.449219 32.234375 C 263.449219 37.476562 265.75 41.441406 270.097656 41.441406 C 274.445312 41.441406 276.75 37.734375 276.75 32.234375 Z M 276.75 32.234375 "/>
<path style=" stroke:none;fill-rule:nonzero;fill:rgb(13.333333%,13.333333%,13.333333%);fill-opacity:1;" d="M 298.359375 8.699219 L 322.53125 8.699219 L 322.53125 14.453125 L 305.265625 14.453125 L 305.265625 24.941406 L 320.871094 24.941406 L 320.871094 30.699219 L 305.140625 30.699219 L 305.140625 46.300781 L 298.359375 46.300781 Z M 298.359375 8.699219 "/>
<path style=" stroke:none;fill-rule:nonzero;fill:rgb(13.333333%,13.333333%,13.333333%);fill-opacity:1;" d="M 341.972656 18.035156 L 348.621094 18.035156 L 348.621094 46.175781 L 342.226562 46.175781 L 342.226562 41.1875 L 341.972656 41.1875 C 340.691406 44.382812 337.75 46.175781 333.53125 46.175781 C 328.03125 46.175781 324.066406 42.722656 324.066406 35.941406 L 324.066406 18.035156 L 330.714844 18.035156 L 330.714844 34.917969 C 330.714844 38.5 332.890625 40.800781 336.085938 40.800781 C 339.414062 40.800781 342.097656 38.117188 342.097656 34.789062 C 342.097656 34.664062 342.097656 34.535156 342.097656 34.40625 Z M 341.972656 18.035156 "/>
<path style=" stroke:none;fill-rule:nonzero;fill:rgb(13.333333%,13.333333%,13.333333%);fill-opacity:1;" d="M 366.910156 23.277344 L 361.28125 23.277344 L 361.28125 37.859375 C 361.28125 40.546875 362.5625 41.1875 364.351562 41.1875 C 364.992188 41.1875 365.628906 41.058594 366.269531 40.929688 L 367.421875 46.175781 C 366.140625 46.558594 364.863281 46.8125 363.457031 46.8125 C 358.46875 46.941406 354.632812 44.382812 354.632812 39.011719 L 354.632812 23.277344 L 350.667969 23.277344 L 350.667969 18.164062 L 354.632812 18.164062 L 354.632812 11.382812 L 361.28125 11.382812 L 361.28125 18.164062 L 366.910156 18.164062 Z M 366.910156 23.277344 "/>
<path style=" stroke:none;fill-rule:nonzero;fill:rgb(13.333333%,13.333333%,13.333333%);fill-opacity:1;" d="M 387.882812 18.035156 L 394.53125 18.035156 L 394.53125 46.175781 L 388.136719 46.175781 L 388.136719 41.1875 L 387.753906 41.1875 C 386.476562 44.382812 383.535156 46.175781 379.3125 46.175781 C 373.816406 46.175781 369.976562 42.722656 369.976562 35.941406 L 369.976562 18.035156 L 376.628906 18.035156 L 376.628906 34.917969 C 376.628906 38.5 378.800781 40.800781 382 40.800781 C 385.324219 40.800781 388.011719 38.117188 388.011719 34.789062 C 388.011719 34.664062 388.011719 34.535156 388.011719 34.40625 Z M 387.882812 18.035156 "/>
<path style=" stroke:none;fill-rule:nonzero;fill:rgb(13.333333%,13.333333%,13.333333%);fill-opacity:1;" d="M 398.753906 18.035156 L 405.148438 18.035156 L 405.148438 22.765625 L 405.402344 22.765625 C 406.296875 19.699219 409.113281 17.523438 412.308594 17.652344 C 413.074219 17.652344 413.972656 17.777344 414.738281 17.777344 L 414.738281 23.917969 C 413.714844 23.664062 412.691406 23.535156 411.667969 23.535156 C 408.34375 23.277344 405.53125 25.835938 405.273438 29.164062 C 405.273438 29.289062 405.273438 29.417969 405.273438 29.675781 L 405.273438 46.300781 L 398.625 46.300781 Z M 398.753906 18.035156 "/>
<path style=" stroke:none;fill-rule:nonzero;fill:rgb(13.333333%,13.333333%,13.333333%);fill-opacity:1;" d="M 441.339844 14.453125 C 441.339844 11 444.152344 8.1875 447.605469 8.1875 C 451.058594 8.1875 453.871094 11 453.871094 14.453125 C 453.871094 17.90625 451.058594 20.722656 447.605469 20.722656 C 444.023438 20.722656 441.339844 17.90625 441.339844 14.453125 Z M 452.59375 14.453125 C 452.59375 11.640625 450.292969 9.335938 447.476562 9.335938 C 444.664062 9.335938 442.363281 11.640625 442.363281 14.453125 C 442.363281 17.265625 444.664062 19.570312 447.476562 19.570312 C 450.292969 19.570312 452.59375 17.265625 452.59375 14.453125 Z M 445.429688 11.511719 L 448.246094 11.511719 C 449.269531 11.511719 450.035156 12.277344 450.035156 13.300781 C 450.035156 13.941406 449.652344 14.710938 449.011719 14.964844 L 450.292969 17.265625 L 449.140625 17.265625 L 448.117188 15.222656 L 446.582031 15.222656 L 446.582031 17.265625 L 445.558594 17.265625 Z M 447.863281 14.324219 C 448.371094 14.324219 448.882812 13.8125 448.882812 13.300781 C 448.882812 13.300781 448.882812 13.300781 448.882812 13.175781 C 448.882812 12.664062 448.5 12.152344 447.988281 12.152344 C 447.988281 12.152344 447.863281 12.152344 447.863281 12.152344 L 446.453125 12.152344 L 446.453125 14.199219 L 447.863281 14.199219 Z M 447.863281 14.324219 "/>
<path style=" stroke:none;fill-rule:nonzero;fill:rgb(13.333333%,13.333333%,13.333333%);fill-opacity:1;" d="M 414.867188 32.359375 C 414.867188 23.664062 420.109375 17.777344 428.167969 17.777344 C 435.074219 17.777344 441.082031 22.128906 441.082031 31.976562 L 441.082031 34.023438 L 421.390625 34.023438 C 421.390625 38.882812 424.332031 41.1875 428.550781 41.1875 C 431.363281 41.1875 433.664062 40.546875 434.5625 38.117188 L 441.082031 38.117188 C 439.933594 42.976562 435.585938 46.429688 428.550781 46.429688 C 420.109375 46.300781 414.867188 41.1875 414.867188 32.359375 Z M 434.6875 29.546875 C 434.816406 26.09375 432.257812 23.152344 428.804688 22.894531 C 428.679688 22.894531 428.550781 22.894531 428.292969 22.894531 C 424.585938 22.894531 421.515625 25.835938 421.515625 29.546875 Z M 434.6875 29.546875 "/>
<path style=" stroke:none;fill-rule:nonzero;fill:rgb(13.333333%,13.333333%,13.333333%);fill-opacity:1;" d="M 228.152344 32.359375 C 228.152344 23.664062 233.394531 17.777344 241.453125 17.777344 C 248.355469 17.777344 254.367188 22.128906 254.367188 31.976562 L 254.367188 34.023438 L 234.671875 34.023438 C 234.671875 38.882812 237.613281 41.1875 241.835938 41.1875 C 244.648438 41.1875 246.949219 40.546875 247.84375 38.117188 L 254.367188 38.117188 C 253.21875 42.976562 248.867188 46.429688 241.835938 46.429688 C 233.394531 46.300781 228.152344 41.1875 228.152344 32.359375 Z M 247.972656 29.546875 C 248.101562 26.09375 245.542969 23.152344 242.089844 22.894531 C 241.960938 22.894531 241.835938 22.894531 241.578125 22.894531 C 237.871094 22.894531 234.800781 25.835938 234.800781 29.546875 Z M 247.972656 29.546875 "/>
<path style=" stroke:none;fill-rule:nonzero;fill:rgb(13.333333%,13.333333%,13.333333%);fill-opacity:1;" d="M 97.707031 32.359375 C 97.707031 23.664062 102.949219 17.777344 111.007812 17.777344 C 117.914062 17.777344 123.921875 22.128906 123.921875 31.976562 L 123.921875 34.023438 L 104.355469 34.023438 C 104.355469 38.882812 107.296875 41.1875 111.519531 41.1875 C 114.332031 41.1875 116.632812 40.546875 117.527344 38.117188 L 124.050781 38.117188 C 122.898438 42.976562 118.550781 46.429688 111.519531 46.429688 C 102.949219 46.300781 97.707031 41.1875 97.707031 32.359375 Z M 117.65625 29.546875 C 117.785156 26.09375 115.226562 23.152344 111.773438 22.894531 C 111.644531 22.894531 111.519531 22.894531 111.261719 22.894531 C 107.554688 22.894531 104.484375 25.835938 104.484375 29.546875 Z M 117.65625 29.546875 "/>
<path style=" stroke:none;fill-rule:evenodd;fill:rgb(13.333333%,13.333333%,13.333333%);fill-opacity:1;" d="M 29.667969 23.535156 C 27.367188 23.535156 25.449219 25.453125 25.449219 27.753906 C 25.449219 30.058594 27.367188 31.976562 29.667969 31.976562 C 31.972656 31.976562 33.890625 30.058594 33.890625 27.753906 C 33.890625 25.453125 31.972656 23.535156 29.667969 23.535156 Z M 29.667969 23.535156 "/>
<path style=" stroke:none;fill-rule:evenodd;fill:rgb(13.333333%,13.333333%,13.333333%);fill-opacity:1;" d="M 54.609375 23.535156 C 52.304688 23.535156 50.386719 25.453125 50.386719 27.753906 C 50.386719 30.058594 52.304688 31.976562 54.609375 31.976562 C 56.910156 31.976562 58.828125 30.058594 58.828125 27.753906 C 58.828125 25.453125 56.910156 23.535156 54.609375 23.535156 Z M 54.609375 23.535156 "/>
<path style=" stroke:none;fill-rule:evenodd;fill:rgb(13.333333%,13.333333%,13.333333%);fill-opacity:1;" d="M 4.476562 23.535156 C 2.175781 23.535156 0.253906 25.453125 0.253906 27.753906 C 0.253906 30.058594 2.175781 31.976562 4.476562 31.976562 C 6.777344 31.976562 8.695312 30.058594 8.695312 27.753906 C 8.695312 25.453125 6.777344 23.535156 4.476562 23.535156 Z M 4.476562 23.535156 "/>
<path style=" stroke:none;fill-rule:evenodd;fill:rgb(13.333333%,13.333333%,13.333333%);fill-opacity:1;" d="M 26.089844 51.417969 L 26.089844 39.011719 C 26.089844 37.09375 27.625 35.558594 29.542969 35.558594 C 31.460938 35.558594 32.996094 37.09375 32.996094 39.011719 L 32.996094 51.417969 C 32.996094 53.335938 31.460938 54.871094 29.542969 54.871094 C 27.625 55 26.089844 53.464844 26.089844 51.417969 Z M 26.089844 51.417969 "/>
<path style=" stroke:none;fill-rule:evenodd;fill:rgb(13.333333%,13.333333%,13.333333%);fill-opacity:1;" d="M 38.621094 45.152344 L 38.621094 10.359375 C 38.492188 8.441406 40.027344 6.777344 41.945312 6.652344 C 43.867188 6.523438 45.527344 8.058594 45.65625 9.976562 C 45.65625 10.105469 45.65625 10.234375 45.65625 10.359375 L 45.65625 45.152344 C 45.527344 47.070312 43.867188 48.476562 41.945312 48.476562 C 40.15625 48.347656 38.75 46.941406 38.621094 45.152344 Z M 38.621094 45.152344 "/>
<path style=" stroke:none;fill-rule:evenodd;fill:rgb(13.333333%,13.333333%,13.333333%);fill-opacity:1;" d="M 13.554688 45.152344 L 13.554688 10.359375 C 13.554688 8.441406 15.089844 6.90625 17.007812 6.90625 C 18.925781 6.90625 20.460938 8.441406 20.460938 10.359375 L 20.460938 45.152344 C 20.460938 47.070312 18.925781 48.605469 17.007812 48.605469 C 15.089844 48.605469 13.554688 47.070312 13.554688 45.152344 Z M 13.554688 45.152344 "/>
<path style=" stroke:none;fill-rule:evenodd;fill:rgb(13.333333%,13.333333%,13.333333%);fill-opacity:1;" d="M 26.089844 15.859375 L 26.089844 3.453125 C 26.089844 1.535156 27.625 0 29.542969 0 C 31.460938 0 32.996094 1.535156 32.996094 3.453125 L 32.996094 15.988281 C 32.996094 17.90625 31.460938 19.441406 29.542969 19.441406 C 27.625 19.441406 26.089844 17.90625 26.089844 15.859375 Z M 26.089844 15.859375 "/>
</g>
</svg>
