<?xml version="1.0" encoding="UTF-8"?>
<svg xmlns="http://www.w3.org/2000/svg" xmlns:xlink="http://www.w3.org/1999/xlink" width="833px" height="100px" viewBox="0 0 825 100" version="1.1">
<g id="surface1">
<path style=" stroke:none;fill-rule:nonzero;fill:rgb(13.333333%,13.333333%,13.333333%);fill-opacity:1;" d="M 124.796875 15.8125 L 150.359375 15.8125 C 166.160156 15.8125 174.527344 24.652344 174.527344 37.675781 C 174.527344 46.976562 169.648438 52.558594 161.515625 55.8125 L 177.085938 84.1875 L 163.140625 84.1875 L 147.804688 55.8125 L 137.113281 55.8125 L 137.113281 84.1875 L 124.796875 84.1875 Z M 148.5 45.347656 C 157.5625 45.347656 161.746094 42.789062 161.746094 35.8125 C 161.746094 29.765625 157.5625 26.277344 148.269531 26.277344 L 136.878906 26.277344 L 136.878906 45.582031 Z M 148.5 45.347656 "/>
<path style=" stroke:none;fill-rule:nonzero;fill:rgb(13.333333%,13.333333%,13.333333%);fill-opacity:1;" d="M 228.675781 57.675781 C 228.675781 42.09375 238.203125 31.164062 253.078125 31.164062 C 265.625 31.164062 274.226562 38.371094 275.15625 49.535156 L 263.535156 49.535156 C 262.839844 44.417969 258.421875 40.699219 253.308594 40.929688 C 245.875 40.929688 240.992188 47.210938 240.992188 57.441406 C 240.992188 67.675781 245.875 74.1875 253.308594 74.1875 C 258.421875 74.417969 262.839844 70.699219 263.535156 65.582031 L 275.15625 65.582031 C 274.226562 76.511719 266.089844 84.1875 253.308594 84.1875 C 237.738281 84.1875 228.675781 73.253906 228.675781 57.675781 Z M 228.675781 57.675781 "/>
<path style=" stroke:none;fill-rule:nonzero;fill:rgb(13.333333%,13.333333%,13.333333%);fill-opacity:1;" d="M 278.175781 57.675781 C 278.175781 41.859375 287.703125 31.164062 302.808594 31.164062 C 317.914062 31.164062 327.445312 41.859375 327.445312 57.675781 C 327.445312 73.488281 317.914062 84.1875 302.808594 84.1875 C 287.703125 84.1875 278.175781 73.488281 278.175781 57.675781 Z M 314.894531 57.675781 C 314.894531 48.371094 310.710938 40.699219 302.578125 40.699219 C 294.445312 40.699219 290.261719 48.140625 290.261719 57.675781 C 290.261719 67.210938 294.210938 74.417969 302.578125 74.417969 C 310.945312 74.417969 314.894531 67.210938 314.894531 57.675781 Z M 314.894531 57.675781 "/>
<path style=" stroke:none;fill-rule:nonzero;fill:rgb(13.333333%,13.333333%,13.333333%);fill-opacity:1;" d="M 330.695312 32.789062 L 342.316406 32.789062 L 342.316406 41.394531 L 342.78125 41.394531 C 344.410156 35.8125 349.519531 31.859375 355.332031 32.09375 C 356.726562 32.09375 358.121094 32.324219 359.746094 32.324219 L 359.746094 43.488281 C 357.886719 43.023438 356.027344 42.789062 354.167969 42.789062 C 348.125 42.324219 343.015625 46.976562 342.550781 53.023438 C 342.550781 53.253906 342.550781 53.488281 342.550781 53.953125 L 342.550781 84.1875 L 330.464844 84.1875 Z M 330.695312 32.789062 "/>
<path style=" stroke:none;fill-rule:nonzero;fill:rgb(13.333333%,13.333333%,13.333333%);fill-opacity:1;" d="M 360.910156 58.605469 C 360.910156 41.394531 370.203125 32.324219 382.054688 32.324219 C 388.332031 32.09375 394.140625 35.582031 396.695312 41.394531 L 397.160156 41.394531 L 397.160156 15.8125 L 409.246094 15.8125 L 409.246094 84.1875 L 397.394531 84.1875 L 397.394531 76.046875 L 396.695312 76.046875 C 394.839844 79.765625 390.886719 84.1875 382.054688 84.1875 C 370.203125 84.1875 360.910156 75.582031 360.910156 58.605469 Z M 397.625 58.605469 C 397.625 48.605469 393.445312 42.324219 385.542969 42.324219 C 377.640625 42.324219 373.457031 49.070312 373.457031 58.605469 C 373.457031 68.140625 377.640625 75.347656 385.542969 75.347656 C 393.445312 75.347656 397.625 68.605469 397.625 58.605469 Z M 397.625 58.605469 "/>
<path style=" stroke:none;fill-rule:nonzero;fill:rgb(13.333333%,13.333333%,13.333333%);fill-opacity:1;" d="M 466.414062 58.605469 C 466.414062 41.394531 475.710938 32.324219 487.5625 32.324219 C 493.839844 32.09375 499.648438 35.582031 502.203125 41.394531 L 502.667969 41.394531 L 502.667969 15.8125 L 514.753906 15.8125 L 514.753906 84.1875 L 502.902344 84.1875 L 502.902344 76.046875 L 502.203125 76.046875 C 500.34375 79.765625 496.394531 84.1875 487.5625 84.1875 C 475.480469 84.1875 466.414062 75.582031 466.414062 58.605469 Z M 502.902344 58.605469 C 502.902344 48.605469 498.71875 42.324219 490.816406 42.324219 C 482.914062 42.324219 478.730469 49.070312 478.730469 58.605469 C 478.730469 68.140625 482.914062 75.347656 490.816406 75.347656 C 498.71875 75.347656 502.902344 68.605469 502.902344 58.605469 Z M 502.902344 58.605469 "/>
<path style=" stroke:none;fill-rule:nonzero;fill:rgb(13.333333%,13.333333%,13.333333%);fill-opacity:1;" d="M 542.175781 15.8125 L 586.097656 15.8125 L 586.097656 26.277344 L 554.726562 26.277344 L 554.726562 45.347656 L 583.078125 45.347656 L 583.078125 55.8125 L 554.492188 55.8125 L 554.492188 84.1875 L 542.175781 84.1875 Z M 542.175781 15.8125 "/>
<path style=" stroke:none;fill-rule:nonzero;fill:rgb(13.333333%,13.333333%,13.333333%);fill-opacity:1;" d="M 621.421875 32.789062 L 633.507812 32.789062 L 633.507812 83.953125 L 621.886719 83.953125 L 621.886719 74.882812 L 621.421875 74.882812 C 619.097656 80.699219 613.753906 83.953125 606.085938 83.953125 C 596.089844 83.953125 588.886719 77.675781 588.886719 65.347656 L 588.886719 32.789062 L 600.972656 32.789062 L 600.972656 63.488281 C 600.972656 70 604.921875 74.1875 610.730469 74.1875 C 616.773438 74.1875 621.65625 69.300781 621.65625 63.253906 C 621.65625 63.023438 621.65625 62.789062 621.65625 62.558594 Z M 621.421875 32.789062 "/>
<path style=" stroke:none;fill-rule:nonzero;fill:rgb(13.333333%,13.333333%,13.333333%);fill-opacity:1;" d="M 666.738281 42.324219 L 656.515625 42.324219 L 656.515625 68.835938 C 656.515625 73.722656 658.839844 74.882812 662.089844 74.882812 C 663.253906 74.882812 664.414062 74.652344 665.578125 74.417969 L 667.667969 83.953125 C 665.34375 84.652344 663.019531 85.117188 660.464844 85.117188 C 651.402344 85.347656 644.429688 80.699219 644.429688 70.929688 L 644.429688 42.324219 L 637.226562 42.324219 L 637.226562 33.023438 L 644.429688 33.023438 L 644.429688 20.699219 L 656.515625 20.699219 L 656.515625 33.023438 L 666.738281 33.023438 Z M 666.738281 42.324219 "/>
<path style=" stroke:none;fill-rule:nonzero;fill:rgb(13.333333%,13.333333%,13.333333%);fill-opacity:1;" d="M 704.851562 32.789062 L 716.9375 32.789062 L 716.9375 83.953125 L 705.316406 83.953125 L 705.316406 74.882812 L 704.621094 74.882812 C 702.296875 80.699219 696.949219 83.953125 689.28125 83.953125 C 679.289062 83.953125 672.316406 77.675781 672.316406 65.347656 L 672.316406 32.789062 L 684.402344 32.789062 L 684.402344 63.488281 C 684.402344 70 688.351562 74.1875 694.160156 74.1875 C 700.203125 74.1875 705.085938 69.300781 705.085938 63.253906 C 705.085938 63.023438 705.085938 62.789062 705.085938 62.558594 Z M 704.851562 32.789062 "/>
<path style=" stroke:none;fill-rule:nonzero;fill:rgb(13.333333%,13.333333%,13.333333%);fill-opacity:1;" d="M 724.605469 32.789062 L 736.226562 32.789062 L 736.226562 41.394531 L 736.691406 41.394531 C 738.316406 35.8125 743.429688 31.859375 749.238281 32.09375 C 750.632812 32.09375 752.261719 32.324219 753.65625 32.324219 L 753.65625 43.488281 C 751.796875 43.023438 749.9375 42.789062 748.078125 42.789062 C 742.035156 42.324219 736.921875 46.976562 736.457031 53.023438 C 736.457031 53.253906 736.457031 53.488281 736.457031 53.953125 L 736.457031 84.1875 L 724.375 84.1875 Z M 724.605469 32.789062 "/>
<path style=" stroke:none;fill-rule:nonzero;fill:rgb(13.333333%,13.333333%,13.333333%);fill-opacity:1;" d="M 801.992188 26.277344 C 801.992188 20 807.105469 14.882812 813.378906 14.882812 C 819.65625 14.882812 824.769531 20 824.769531 26.277344 C 824.769531 32.558594 819.65625 37.675781 813.378906 37.675781 C 806.875 37.675781 801.992188 32.558594 801.992188 26.277344 Z M 822.445312 26.277344 C 822.445312 21.164062 818.261719 16.976562 813.148438 16.976562 C 808.035156 16.976562 803.851562 21.164062 803.851562 26.277344 C 803.851562 31.394531 808.035156 35.582031 813.148438 35.582031 C 818.261719 35.582031 822.445312 31.394531 822.445312 26.277344 Z M 809.429688 20.929688 L 814.542969 20.929688 C 816.402344 20.929688 817.796875 22.324219 817.796875 24.1875 C 817.796875 25.347656 817.097656 26.746094 815.9375 27.210938 L 818.261719 31.394531 L 816.167969 31.394531 L 814.308594 27.675781 L 811.519531 27.675781 L 811.519531 31.394531 L 809.660156 31.394531 Z M 813.84375 26.046875 C 814.773438 26.046875 815.703125 25.117188 815.703125 24.1875 C 815.703125 24.1875 815.703125 24.1875 815.703125 23.953125 C 815.703125 23.023438 815.007812 22.09375 814.078125 22.09375 C 814.078125 22.09375 813.84375 22.09375 813.84375 22.09375 L 811.289062 22.09375 L 811.289062 25.8125 L 813.84375 25.8125 Z M 813.84375 26.046875 "/>
<path style=" stroke:none;fill-rule:nonzero;fill:rgb(13.333333%,13.333333%,13.333333%);fill-opacity:1;" d="M 753.886719 58.835938 C 753.886719 43.023438 763.414062 32.324219 778.054688 32.324219 C 790.605469 32.324219 801.527344 40.234375 801.527344 58.140625 L 801.527344 61.859375 L 765.738281 61.859375 C 765.738281 70.699219 771.085938 74.882812 778.753906 74.882812 C 783.867188 74.882812 788.050781 73.722656 789.675781 69.300781 L 801.527344 69.300781 C 799.4375 78.140625 791.535156 84.417969 778.753906 84.417969 C 763.414062 84.1875 753.886719 74.882812 753.886719 58.835938 Z M 789.910156 53.722656 C 790.140625 47.441406 785.492188 42.09375 779.21875 41.628906 C 778.984375 41.628906 778.753906 41.628906 778.289062 41.628906 C 771.550781 41.628906 765.972656 46.976562 765.972656 53.722656 Z M 789.910156 53.722656 "/>
<path style=" stroke:none;fill-rule:nonzero;fill:rgb(13.333333%,13.333333%,13.333333%);fill-opacity:1;" d="M 414.589844 58.835938 C 414.589844 43.023438 424.121094 32.324219 438.761719 32.324219 C 451.308594 32.324219 462.230469 40.234375 462.230469 58.140625 L 462.230469 61.859375 L 426.445312 61.859375 C 426.445312 70.699219 431.789062 74.882812 439.457031 74.882812 C 444.570312 74.882812 448.753906 73.722656 450.378906 69.300781 L 462.230469 69.300781 C 460.140625 78.140625 452.238281 84.417969 439.457031 84.417969 C 424.121094 84.1875 414.589844 74.882812 414.589844 58.835938 Z M 450.613281 53.722656 C 450.84375 47.441406 446.195312 42.09375 439.921875 41.628906 C 439.691406 41.628906 439.457031 41.628906 438.992188 41.628906 C 432.253906 41.628906 426.675781 46.976562 426.675781 53.722656 Z M 450.613281 53.722656 "/>
<path style=" stroke:none;fill-rule:nonzero;fill:rgb(13.333333%,13.333333%,13.333333%);fill-opacity:1;" d="M 177.550781 58.835938 C 177.550781 43.023438 187.078125 32.324219 201.71875 32.324219 C 214.269531 32.324219 225.191406 40.234375 225.191406 58.140625 L 225.191406 61.859375 L 189.632812 61.859375 C 189.632812 70.699219 194.980469 74.882812 202.648438 74.882812 C 207.761719 74.882812 211.945312 73.722656 213.570312 69.300781 L 225.421875 69.300781 C 223.332031 78.140625 215.429688 84.417969 202.648438 84.417969 C 187.078125 84.1875 177.550781 74.882812 177.550781 58.835938 Z M 213.804688 53.722656 C 214.035156 47.441406 209.386719 42.09375 203.113281 41.628906 C 202.878906 41.628906 202.648438 41.628906 202.183594 41.628906 C 195.445312 41.628906 189.867188 46.976562 189.867188 53.722656 Z M 213.804688 53.722656 "/>
<path style=" stroke:none;fill-rule:evenodd;fill:rgb(13.333333%,13.333333%,13.333333%);fill-opacity:1;" d="M 53.914062 42.789062 C 49.730469 42.789062 46.246094 46.277344 46.246094 50.464844 C 46.246094 54.652344 49.730469 58.140625 53.914062 58.140625 C 58.097656 58.140625 61.585938 54.652344 61.585938 50.464844 C 61.585938 46.277344 58.097656 42.789062 53.914062 42.789062 Z M 53.914062 42.789062 "/>
<path style=" stroke:none;fill-rule:evenodd;fill:rgb(13.333333%,13.333333%,13.333333%);fill-opacity:1;" d="M 99.230469 42.789062 C 95.050781 42.789062 91.5625 46.277344 91.5625 50.464844 C 91.5625 54.652344 95.050781 58.140625 99.230469 58.140625 C 103.414062 58.140625 106.902344 54.652344 106.902344 50.464844 C 106.902344 46.277344 103.414062 42.789062 99.230469 42.789062 Z M 99.230469 42.789062 "/>
<path style=" stroke:none;fill-rule:evenodd;fill:rgb(13.333333%,13.333333%,13.333333%);fill-opacity:1;" d="M 8.132812 42.789062 C 3.949219 42.789062 0.464844 46.277344 0.464844 50.464844 C 0.464844 54.652344 3.949219 58.140625 8.132812 58.140625 C 12.316406 58.140625 15.804688 54.652344 15.804688 50.464844 C 15.804688 46.277344 12.316406 42.789062 8.132812 42.789062 Z M 8.132812 42.789062 "/>
<path style=" stroke:none;fill-rule:evenodd;fill:rgb(13.333333%,13.333333%,13.333333%);fill-opacity:1;" d="M 47.410156 93.488281 L 47.410156 70.929688 C 47.410156 67.441406 50.195312 64.652344 53.683594 64.652344 C 57.167969 64.652344 59.957031 67.441406 59.957031 70.929688 L 59.957031 93.488281 C 59.957031 96.976562 57.167969 99.765625 53.683594 99.765625 C 50.195312 100 47.410156 97.210938 47.410156 93.488281 Z M 47.410156 93.488281 "/>
<path style=" stroke:none;fill-rule:evenodd;fill:rgb(13.333333%,13.333333%,13.333333%);fill-opacity:1;" d="M 70.183594 82.09375 L 70.183594 18.835938 C 69.949219 15.347656 72.738281 12.324219 76.226562 12.09375 C 79.710938 11.859375 82.730469 14.652344 82.964844 18.140625 C 82.964844 18.371094 82.964844 18.605469 82.964844 18.835938 L 82.964844 82.09375 C 82.730469 85.582031 79.710938 88.140625 76.226562 88.140625 C 72.972656 87.90625 70.414062 85.347656 70.183594 82.09375 Z M 70.183594 82.09375 "/>
<path style=" stroke:none;fill-rule:evenodd;fill:rgb(13.333333%,13.333333%,13.333333%);fill-opacity:1;" d="M 24.632812 82.09375 L 24.632812 18.835938 C 24.632812 15.347656 27.421875 12.558594 30.910156 12.558594 C 34.394531 12.558594 37.183594 15.347656 37.183594 18.835938 L 37.183594 82.09375 C 37.183594 85.582031 34.394531 88.371094 30.910156 88.371094 C 27.421875 88.371094 24.632812 85.582031 24.632812 82.09375 Z M 24.632812 82.09375 "/>
<path style=" stroke:none;fill-rule:evenodd;fill:rgb(13.333333%,13.333333%,13.333333%);fill-opacity:1;" d="M 47.410156 28.835938 L 47.410156 6.277344 C 47.410156 2.789062 50.195312 0 53.683594 0 C 57.167969 0 59.957031 2.789062 59.957031 6.277344 L 59.957031 29.070312 C 59.957031 32.558594 57.167969 35.347656 53.683594 35.347656 C 50.195312 35.347656 47.410156 32.558594 47.410156 28.835938 Z M 47.410156 28.835938 "/>
</g>
</svg>
