<?xml version="1.0" encoding="UTF-8"?>
<svg xmlns="http://www.w3.org/2000/svg" xmlns:xlink="http://www.w3.org/1999/xlink" width="324px" height="55px" viewBox="0 0 324 55" version="1.1">
<g id="surface1">
<path style=" stroke:none;fill-rule:nonzero;fill:rgb(41.960784%,3.921569%,91.764706%);fill-opacity:1;" d="M 18.324219 0.046875 L 25.703125 0.046875 L 25.703125 44.285156 L 18.324219 44.285156 Z M 18.324219 0.046875 "/>
<path style=" stroke:none;fill-rule:evenodd;fill:rgb(41.960784%,3.921569%,91.764706%);fill-opacity:1;" d="M 27.492188 54.953125 L 34.867188 50.371094 L 34.867188 12.070312 C 32.679688 10.445312 30.160156 9.328125 27.492188 8.796875 Z M 27.492188 54.953125 "/>
<path style=" stroke:none;fill-rule:evenodd;fill:rgb(41.960784%,3.921569%,91.764706%);fill-opacity:1;" d="M 9.140625 50.394531 L 16.519531 54.976562 L 16.519531 8.820312 C 13.847656 9.34375 11.328125 10.453125 9.140625 12.070312 Z M 9.140625 50.394531 "/>
<path style=" stroke:none;fill-rule:evenodd;fill:rgb(41.960784%,3.921569%,91.764706%);fill-opacity:1;" d="M 36.652344 2.148438 L 36.652344 49.570312 L 40.082031 47.441406 C 42.574219 45.796875 44.058594 42.988281 44.015625 39.996094 L 44.015625 17.597656 C 44.03125 11.140625 36.652344 2.148438 36.652344 2.148438 Z M 36.652344 2.148438 "/>
<path style=" stroke:none;fill-rule:evenodd;fill:rgb(41.960784%,3.921569%,91.764706%);fill-opacity:1;" d="M 0 39.980469 C -0.046875 42.972656 1.4375 45.78125 3.933594 47.421875 L 7.363281 49.554688 L 7.363281 2.148438 C 7.363281 2.148438 0 11.140625 0 17.597656 Z M 0 39.980469 "/>
<path style=" stroke:none;fill-rule:evenodd;fill:rgb(1.568627%,1.568627%,1.568627%);fill-opacity:1;" d="M 220.867188 44.804688 L 220.867188 9.917969 L 226.191406 7.675781 L 226.191406 44.804688 Z M 212.480469 30.191406 C 212.535156 28.289062 211.769531 26.453125 210.375 25.15625 C 209.007812 23.910156 207.214844 23.238281 205.363281 23.28125 C 203.535156 23.226562 201.757812 23.902344 200.421875 25.15625 C 199.058594 26.488281 198.242188 28.285156 198.140625 30.191406 Z M 205.261719 45.222656 C 201.519531 45.222656 198.472656 44.019531 196.121094 41.605469 C 193.773438 39.191406 192.605469 35.992188 192.621094 32 C 192.621094 28.015625 193.808594 24.820312 196.179688 22.421875 C 198.550781 20.019531 201.621094 18.820312 205.382812 18.828125 C 209.148438 18.828125 212.195312 19.976562 214.519531 22.265625 C 216.847656 24.554688 218.019531 27.566406 218.035156 31.292969 C 218.039062 32.128906 217.976562 32.964844 217.84375 33.792969 L 198.082031 33.792969 C 198.113281 35.707031 198.894531 37.535156 200.257812 38.875 C 201.609375 40.132812 203.402344 40.808594 205.246094 40.75 C 208.148438 40.75 210.195312 39.558594 211.378906 37.179688 L 217.140625 37.179688 C 216.390625 39.523438 214.902344 41.566406 212.898438 42.996094 C 210.65625 44.542969 207.980469 45.324219 205.261719 45.222656 Z M 171.773438 19.246094 L 171.773438 23.257812 C 173.488281 20.289062 176.234375 18.808594 180.015625 18.808594 C 182.703125 18.71875 185.308594 19.753906 187.199219 21.671875 C 189.105469 23.578125 190.058594 26.25 190.058594 29.6875 L 190.058594 44.804688 L 184.765625 44.804688 L 184.765625 30.519531 C 184.765625 28.226562 184.195312 26.472656 183.054688 25.253906 C 181.8125 23.996094 180.089844 23.328125 178.324219 23.421875 C 176.539062 23.316406 174.792969 23.980469 173.527344 25.242188 C 172.359375 26.460938 171.773438 28.214844 171.773438 30.507812 L 171.773438 44.804688 L 166.433594 44.804688 L 166.433594 19.246094 Z M 156.503906 44.804688 L 156.503906 19.246094 L 161.847656 19.246094 L 161.847656 44.804688 Z M 152.636719 23.558594 L 146.355469 23.558594 L 146.355469 37.703125 C 146.28125 38.460938 146.53125 39.210938 147.035156 39.773438 C 147.484375 40.191406 148.257812 40.398438 149.355469 40.398438 L 152.632812 40.398438 L 152.632812 44.804688 L 148.417969 44.804688 C 143.46875 44.804688 140.992188 42.4375 140.992188 37.703125 L 140.992188 15.128906 L 146.378906 12.890625 L 146.378906 19.246094 L 152.660156 19.246094 Z M 120.257812 19.246094 L 120.257812 23.257812 C 121.957031 20.304688 124.710938 18.828125 128.515625 18.828125 C 131.207031 18.742188 133.808594 19.78125 135.707031 21.691406 C 137.613281 23.601562 138.5625 26.273438 138.5625 29.710938 L 138.5625 44.804688 L 133.269531 44.804688 L 133.269531 30.519531 C 133.269531 28.226562 132.699219 26.472656 131.554688 25.253906 C 130.3125 23.996094 128.589844 23.328125 126.828125 23.421875 C 125.035156 23.3125 123.277344 23.972656 122.003906 25.242188 C 120.835938 26.460938 120.25 28.214844 120.246094 30.507812 L 120.246094 44.804688 L 114.910156 44.804688 L 114.910156 19.246094 Z M 106.550781 30.191406 C 106.605469 28.289062 105.835938 26.453125 104.441406 25.15625 C 103.0625 23.898438 101.25 23.226562 99.386719 23.28125 C 97.558594 23.226562 95.78125 23.902344 94.445312 25.15625 C 93.078125 26.484375 92.261719 28.285156 92.160156 30.191406 Z M 99.304688 45.222656 C 95.558594 45.222656 92.511719 44.019531 90.167969 41.605469 C 87.820312 39.191406 86.652344 35.992188 86.660156 32 C 86.660156 28.015625 87.847656 24.820312 90.21875 22.421875 C 92.589844 20.019531 95.660156 18.820312 99.421875 18.828125 C 103.183594 18.828125 106.230469 19.976562 108.558594 22.265625 C 110.890625 24.554688 112.0625 27.566406 112.074219 31.292969 C 112.078125 32.128906 112.015625 32.964844 111.882812 33.792969 L 92.121094 33.792969 C 92.148438 35.710938 92.933594 37.535156 94.304688 38.875 C 95.652344 40.136719 97.445312 40.8125 99.289062 40.75 C 102.191406 40.75 104.234375 39.558594 105.425781 37.179688 L 111.179688 37.179688 C 110.429688 39.523438 108.941406 41.566406 106.9375 42.996094 C 104.699219 44.542969 102.023438 45.324219 99.304688 45.222656 Z M 72.695312 16.464844 C 71.300781 16.402344 69.925781 16.828125 68.8125 17.667969 C 67.785156 18.53125 67.226562 19.832031 67.308594 21.171875 C 67.246094 22.578125 67.933594 23.910156 69.113281 24.671875 C 70.425781 25.527344 71.886719 26.125 73.421875 26.433594 C 75.101562 26.816406 76.789062 27.242188 78.476562 27.710938 C 80.128906 28.183594 81.617188 29.113281 82.765625 30.398438 C 83.945312 31.691406 84.539062 33.53125 84.542969 35.917969 C 84.546875 38.304688 83.53125 40.4375 81.496094 42.316406 C 79.46875 44.203125 76.753906 45.160156 73.351562 45.179688 C 69.953125 45.199219 67.1875 44.40625 65.0625 42.808594 C 62.972656 41.304688 61.777344 38.847656 61.875 36.269531 L 67.589844 36.269531 C 67.652344 37.5625 68.226562 38.78125 69.183594 39.65625 C 70.117188 40.488281 71.492188 40.90625 73.304688 40.90625 C 74.855469 40.992188 76.386719 40.496094 77.589844 39.515625 C 79.414062 37.917969 79.679688 35.171875 78.195312 33.253906 C 77.519531 32.519531 76.664062 31.964844 75.714844 31.652344 C 74.617188 31.273438 73.5 30.957031 72.371094 30.703125 C 71.152344 30.425781 69.925781 30.101562 68.691406 29.726562 C 67.515625 29.382812 66.382812 28.898438 65.320312 28.289062 C 64.273438 27.671875 63.414062 26.78125 62.835938 25.714844 C 62.160156 24.4375 61.832031 23.007812 61.875 21.566406 C 61.789062 18.945312 62.921875 16.433594 64.945312 14.769531 C 66.988281 13.050781 69.644531 12.191406 72.90625 12.191406 C 76.167969 12.191406 78.777344 12.914062 80.726562 14.363281 C 82.679688 15.847656 83.765625 17.996094 83.980469 20.8125 L 78.082031 20.8125 C 77.972656 19.605469 77.402344 18.492188 76.488281 17.703125 C 75.421875 16.828125 74.070312 16.386719 72.695312 16.464844 Z M 72.695312 16.464844 "/>
<path style=" stroke:none;fill-rule:evenodd;fill:rgb(1.568627%,1.568627%,1.568627%);fill-opacity:1;" d="M 304.363281 20.703125 C 302.613281 20.679688 300.882812 21.074219 299.3125 21.847656 C 297.765625 22.628906 296.472656 23.84375 295.59375 25.339844 C 294.59375 27.105469 294.085938 29.105469 294.121094 31.136719 L 314.152344 31.136719 C 314.332031 29.125 313.925781 27.101562 312.980469 25.316406 C 312.148438 23.808594 310.875 22.589844 309.332031 21.824219 C 307.785156 21.070312 306.082031 20.6875 304.363281 20.703125 Z M 304.269531 42.871094 C 306.574219 42.949219 308.835938 42.277344 310.726562 40.957031 C 312.449219 39.726562 313.597656 37.839844 313.90625 35.742188 L 316.105469 35.742188 C 315.703125 38.296875 314.339844 40.601562 312.289062 42.175781 C 310.21875 43.804688 307.578125 44.617188 304.363281 44.617188 C 302.140625 44.660156 299.941406 44.128906 297.984375 43.078125 C 296.121094 42.054688 294.597656 40.511719 293.589844 38.636719 C 292.484375 36.523438 291.9375 34.15625 292.003906 31.765625 C 291.945312 29.40625 292.492188 27.070312 293.589844 24.980469 C 294.59375 23.109375 296.113281 21.570312 297.964844 20.542969 C 299.925781 19.488281 302.121094 18.960938 304.34375 19 C 306.570312 18.945312 308.769531 19.476562 310.726562 20.542969 C 312.433594 21.484375 313.839844 22.886719 314.792969 24.589844 C 315.703125 26.226562 316.179688 28.070312 316.175781 29.945312 C 316.167969 30.765625 316.089844 31.582031 315.941406 32.386719 L 294.121094 32.386719 C 294.082031 34.4375 294.59375 36.460938 295.59375 38.25 C 296.460938 39.75 297.746094 40.960938 299.289062 41.742188 C 300.839844 42.503906 302.546875 42.886719 304.269531 42.871094 Z M 278.253906 18.816406 C 281.246094 18.816406 283.679688 19.738281 285.554688 21.578125 C 287.425781 23.417969 288.363281 26.132812 288.359375 29.714844 L 288.359375 44.296875 L 286.257812 44.296875 L 286.257812 29.824219 C 286.257812 26.824219 285.492188 24.527344 283.972656 22.953125 C 282.453125 21.378906 280.355469 20.582031 277.6875 20.582031 C 275.207031 20.476562 272.796875 21.4375 271.066406 23.226562 C 269.398438 24.992188 268.566406 27.589844 268.566406 31.023438 L 268.566406 44.296875 L 266.464844 44.296875 L 266.464844 19.320312 L 268.566406 19.320312 L 268.566406 25.902344 C 269.066406 23.753906 270.34375 21.871094 272.148438 20.609375 C 273.953125 19.402344 276.082031 18.773438 278.253906 18.816406 Z M 246.582031 14.042969 C 244.132812 14.007812 241.71875 14.628906 239.589844 15.839844 C 237.503906 17.042969 235.800781 18.8125 234.679688 20.941406 C 233.433594 23.328125 232.816406 25.988281 232.878906 28.679688 C 232.816406 31.367188 233.4375 34.023438 234.679688 36.40625 C 235.804688 38.535156 237.507812 40.304688 239.589844 41.507812 C 243.9375 43.898438 249.203125 43.898438 253.550781 41.507812 C 255.644531 40.308594 257.355469 38.539062 258.484375 36.40625 C 259.726562 34.023438 260.34375 31.367188 260.285156 28.679688 C 260.34375 25.992188 259.726562 23.335938 258.484375 20.953125 C 257.355469 18.816406 255.644531 17.046875 253.550781 15.851562 C 251.425781 14.640625 249.023438 14.015625 246.582031 14.042969 Z M 246.582031 12.15625 C 249.441406 12.113281 252.261719 12.835938 254.75 14.253906 C 257.144531 15.625 259.105469 17.648438 260.402344 20.089844 C 261.792969 22.734375 262.492188 25.691406 262.4375 28.679688 C 262.484375 31.65625 261.785156 34.601562 260.402344 37.234375 C 259.101562 39.683594 257.144531 41.714844 254.75 43.105469 C 249.671875 45.929688 243.5 45.929688 238.425781 43.105469 C 236.011719 41.714844 234.035156 39.679688 232.714844 37.222656 C 231.324219 34.59375 230.625 31.65625 230.679688 28.679688 C 230.621094 25.6875 231.332031 22.730469 232.734375 20.089844 C 234.050781 17.636719 236.03125 15.605469 238.449219 14.230469 C 240.925781 12.828125 243.734375 12.113281 246.582031 12.15625 Z M 246.582031 12.15625 "/>
<path style=" stroke:none;fill-rule:nonzero;fill:rgb(1.568627%,1.568627%,1.568627%);fill-opacity:1;" d="M 321.847656 22.695312 L 321.277344 21.832031 L 320.808594 21.832031 L 320.808594 22.695312 L 320.234375 22.695312 L 320.234375 19.988281 L 321.46875 19.988281 C 322.109375 19.988281 322.492188 20.324219 322.492188 20.878906 C 322.507812 21.253906 322.277344 21.597656 321.921875 21.714844 L 322.582031 22.683594 Z M 321.847656 20.914062 C 321.847656 20.65625 321.667969 20.523438 321.378906 20.523438 L 320.808594 20.523438 L 320.808594 21.304688 L 321.40625 21.304688 C 321.699219 21.304688 321.863281 21.148438 321.863281 20.921875 Z M 321.847656 20.914062 "/>
<path style=" stroke:none;fill-rule:nonzero;fill:rgb(1.568627%,1.568627%,1.568627%);fill-opacity:1;" d="M 321.234375 24.191406 C 320.113281 24.191406 319.101562 23.515625 318.671875 22.476562 C 318.242188 21.441406 318.476562 20.242188 319.269531 19.449219 C 320.0625 18.652344 321.257812 18.417969 322.292969 18.847656 C 323.328125 19.277344 324.003906 20.292969 324 21.417969 C 323.996094 22.949219 322.761719 24.1875 321.234375 24.191406 Z M 321.234375 19.246094 C 320.039062 19.246094 319.070312 20.21875 319.070312 21.417969 C 319.070312 22.617188 320.039062 23.589844 321.234375 23.589844 C 322.429688 23.589844 323.398438 22.617188 323.398438 21.417969 C 323.398438 20.21875 322.429688 19.246094 321.234375 19.246094 Z M 321.234375 19.246094 "/>
</g>
</svg>
