<?xml version="1.0" encoding="UTF-8"?>
<svg xmlns="http://www.w3.org/2000/svg" xmlns:xlink="http://www.w3.org/1999/xlink" width="588px" height="100px" viewBox="0 0 590 100" version="1.1">
<g id="surface1">
<path style=" stroke:none;fill-rule:nonzero;fill:rgb(41.960784%,3.921569%,91.764706%);fill-opacity:1;" d="M 33.367188 0.0820312 L 46.804688 0.0820312 L 46.804688 80.519531 L 33.367188 80.519531 Z M 33.367188 0.0820312 "/>
<path style=" stroke:none;fill-rule:evenodd;fill:rgb(41.960784%,3.921569%,91.764706%);fill-opacity:1;" d="M 50.0625 99.917969 L 63.488281 91.585938 L 63.488281 21.949219 C 59.507812 18.996094 54.921875 16.960938 50.0625 15.992188 Z M 50.0625 99.917969 "/>
<path style=" stroke:none;fill-rule:evenodd;fill:rgb(41.960784%,3.921569%,91.764706%);fill-opacity:1;" d="M 16.640625 91.628906 L 30.082031 99.957031 L 30.082031 16.035156 C 25.21875 16.988281 20.628906 19.007812 16.640625 21.949219 Z M 16.640625 91.628906 "/>
<path style=" stroke:none;fill-rule:evenodd;fill:rgb(41.960784%,3.921569%,91.764706%);fill-opacity:1;" d="M 66.746094 3.90625 L 66.746094 90.128906 L 72.984375 86.253906 C 77.527344 83.265625 80.230469 78.160156 80.152344 72.71875 L 80.152344 31.996094 C 80.183594 20.253906 66.746094 3.90625 66.746094 3.90625 Z M 66.746094 3.90625 "/>
<path style=" stroke:none;fill-rule:evenodd;fill:rgb(41.960784%,3.921569%,91.764706%);fill-opacity:1;" d="M 0 72.6875 C -0.0820312 78.128906 2.621094 83.238281 7.167969 86.222656 L 13.40625 90.097656 L 13.40625 3.90625 C 13.40625 3.90625 0 20.253906 0 31.996094 Z M 0 72.6875 "/>
<path style=" stroke:none;fill-rule:evenodd;fill:rgb(1.568627%,1.568627%,1.568627%);fill-opacity:1;" d="M 402.195312 81.464844 L 402.195312 18.035156 L 411.890625 13.953125 L 411.890625 81.464844 Z M 386.925781 54.894531 C 387.027344 51.429688 385.628906 48.09375 383.089844 45.742188 C 380.597656 43.472656 377.332031 42.25 373.964844 42.324219 C 370.636719 42.234375 367.402344 43.460938 364.96875 45.742188 C 362.480469 48.160156 360.996094 51.425781 360.808594 54.894531 Z M 373.777344 82.226562 C 366.960938 82.226562 361.414062 80.03125 357.136719 75.644531 C 352.859375 71.257812 350.734375 65.4375 350.761719 58.183594 C 350.761719 50.9375 352.921875 45.128906 357.242188 40.765625 C 361.5625 36.398438 367.144531 34.222656 373.996094 34.234375 C 380.855469 34.234375 386.402344 36.316406 390.640625 40.484375 C 394.875 44.648438 397.007812 50.117188 397.035156 56.894531 C 397.042969 58.417969 396.929688 59.9375 396.691406 61.441406 L 360.703125 61.441406 C 360.757812 64.921875 362.183594 68.242188 364.667969 70.679688 C 367.125 72.972656 370.390625 74.199219 373.746094 74.09375 C 379.039062 74.09375 382.761719 71.929688 384.917969 67.597656 L 395.414062 67.597656 C 394.042969 71.863281 391.332031 75.574219 387.683594 78.175781 C 383.605469 80.988281 378.730469 82.40625 373.777344 82.226562 Z M 312.796875 34.996094 L 312.796875 42.285156 C 315.917969 36.890625 320.917969 34.195312 327.804688 34.195312 C 332.699219 34.03125 337.441406 35.917969 340.890625 39.398438 C 344.355469 42.871094 346.089844 47.730469 346.089844 53.976562 L 346.089844 81.464844 L 336.460938 81.464844 L 336.460938 55.488281 C 336.460938 51.324219 335.417969 48.132812 333.339844 45.917969 C 331.074219 43.625 327.941406 42.414062 324.726562 42.585938 C 321.476562 42.394531 318.296875 43.601562 315.988281 45.898438 C 313.859375 48.113281 312.796875 51.300781 312.796875 55.464844 L 312.796875 81.464844 L 303.070312 81.464844 L 303.070312 34.996094 Z M 284.992188 81.464844 L 284.992188 34.996094 L 294.71875 34.996094 L 294.71875 81.464844 Z M 277.953125 42.835938 L 266.511719 42.835938 L 266.511719 68.554688 C 266.378906 69.925781 266.828125 71.289062 267.75 72.3125 C 268.570312 73.074219 269.976562 73.449219 271.972656 73.449219 L 277.941406 73.449219 L 277.941406 81.464844 L 270.265625 81.464844 C 261.25 81.464844 256.746094 77.164062 256.746094 68.554688 L 256.746094 27.507812 L 266.550781 23.4375 L 266.550781 34.996094 L 277.992188 34.996094 Z M 218.988281 34.996094 L 218.988281 42.285156 C 222.082031 36.917969 227.09375 34.234375 234.027344 34.234375 C 238.925781 34.082031 243.667969 35.964844 247.125 39.441406 C 250.589844 42.914062 252.324219 47.773438 252.324219 54.019531 L 252.324219 81.464844 L 242.683594 81.464844 L 242.683594 55.488281 C 242.683594 51.324219 241.640625 48.132812 239.5625 45.917969 C 237.296875 43.625 234.164062 42.414062 230.949219 42.585938 C 227.683594 42.382812 224.488281 43.589844 222.171875 45.898438 C 220.042969 48.113281 218.972656 51.300781 218.96875 55.464844 L 218.96875 81.464844 L 209.253906 81.464844 L 209.253906 34.996094 Z M 194.023438 54.894531 C 194.125 51.429688 192.726562 48.09375 190.1875 45.742188 C 187.675781 43.449219 184.375 42.226562 180.980469 42.324219 C 177.648438 42.234375 174.417969 43.460938 171.984375 45.742188 C 169.492188 48.15625 168.003906 51.425781 167.824219 54.894531 Z M 180.835938 82.226562 C 174.011719 82.226562 168.464844 80.03125 164.195312 75.644531 C 159.921875 71.257812 157.792969 65.4375 157.808594 58.183594 C 157.808594 50.9375 159.96875 45.128906 164.289062 40.765625 C 168.609375 36.398438 174.191406 34.222656 181.042969 34.234375 C 187.894531 34.234375 193.441406 36.316406 197.6875 40.484375 C 201.929688 44.648438 204.0625 50.117188 204.082031 56.894531 C 204.089844 58.417969 203.976562 59.9375 203.738281 61.441406 L 167.75 61.441406 C 167.804688 64.925781 169.234375 68.246094 171.722656 70.679688 C 174.179688 72.976562 177.445312 74.203125 180.804688 74.09375 C 186.089844 74.09375 189.8125 71.929688 191.976562 67.597656 L 202.460938 67.597656 C 201.089844 71.863281 198.378906 75.574219 194.730469 78.175781 C 190.65625 80.984375 185.78125 82.40625 180.835938 82.226562 Z M 132.375 29.9375 C 129.835938 29.820312 127.335938 30.59375 125.304688 32.121094 C 123.433594 33.691406 122.417969 36.054688 122.566406 38.496094 C 122.457031 41.050781 123.707031 43.472656 125.855469 44.855469 C 128.242188 46.414062 130.902344 47.503906 133.699219 48.0625 C 136.761719 48.757812 139.832031 49.53125 142.902344 50.386719 C 145.914062 51.242188 148.625 52.933594 150.714844 55.269531 C 152.863281 57.621094 153.941406 60.96875 153.949219 65.304688 C 153.957031 69.644531 152.109375 73.519531 148.40625 76.9375 C 144.710938 80.371094 139.765625 82.109375 133.574219 82.144531 C 127.378906 82.175781 122.351562 80.742188 118.480469 77.832031 C 114.671875 75.097656 112.492188 70.628906 112.675781 65.941406 L 123.078125 65.941406 C 123.195312 68.296875 124.238281 70.515625 125.980469 72.105469 C 127.6875 73.617188 130.1875 74.375 133.488281 74.375 C 136.3125 74.535156 139.097656 73.632812 141.289062 71.84375 C 144.613281 68.941406 145.09375 63.953125 142.394531 60.464844 C 141.160156 59.125 139.605469 58.121094 137.878906 57.550781 C 135.878906 56.863281 133.84375 56.285156 131.785156 55.820312 C 129.566406 55.320312 127.332031 54.730469 125.085938 54.050781 C 122.945312 53.421875 120.886719 52.542969 118.949219 51.4375 C 117.042969 50.316406 115.480469 48.695312 114.425781 46.75 C 113.195312 44.433594 112.59375 41.835938 112.675781 39.214844 C 112.515625 34.449219 114.582031 29.878906 118.261719 26.855469 C 121.984375 23.730469 126.820312 22.167969 132.761719 22.167969 C 138.703125 22.167969 143.449219 23.484375 147 26.113281 C 150.558594 28.816406 152.535156 32.722656 152.929688 37.839844 L 142.183594 37.839844 C 141.988281 35.648438 140.945312 33.621094 139.28125 32.183594 C 137.34375 30.59375 134.878906 29.792969 132.375 29.9375 Z M 132.375 29.9375 "/>
<path style=" stroke:none;fill-rule:evenodd;fill:rgb(1.568627%,1.568627%,1.568627%);fill-opacity:1;" d="M 554.242188 37.640625 C 551.054688 37.601562 547.902344 38.3125 545.046875 39.722656 C 542.226562 41.144531 539.875 43.351562 538.273438 46.074219 C 536.453125 49.28125 535.527344 52.921875 535.589844 56.613281 L 572.066406 56.613281 C 572.398438 52.953125 571.65625 49.277344 569.9375 46.03125 C 568.417969 43.285156 566.101562 41.070312 563.289062 39.679688 C 560.472656 38.308594 557.375 37.609375 554.242188 37.640625 Z M 554.074219 77.945312 C 558.265625 78.089844 562.386719 76.867188 565.828125 74.46875 C 568.96875 72.226562 571.058594 68.800781 571.621094 64.984375 L 575.625 64.984375 C 574.894531 69.632812 572.40625 73.820312 568.675781 76.6875 C 564.90625 79.644531 560.09375 81.121094 554.242188 81.121094 C 550.191406 81.199219 546.191406 80.234375 542.621094 78.320312 C 539.234375 76.460938 536.457031 73.65625 534.625 70.25 C 532.609375 66.402344 531.613281 62.101562 531.730469 57.757812 C 531.628906 53.464844 532.625 49.21875 534.625 45.417969 C 536.449219 42.019531 539.214844 39.21875 542.589844 37.347656 C 546.160156 35.433594 550.160156 34.472656 554.210938 34.546875 C 558.261719 34.445312 562.269531 35.410156 565.828125 37.347656 C 568.933594 39.0625 571.5 41.613281 573.234375 44.710938 C 574.894531 47.683594 575.761719 51.039062 575.75 54.445312 C 575.738281 55.933594 575.597656 57.417969 575.324219 58.882812 L 535.589844 58.882812 C 535.523438 62.613281 536.449219 66.292969 538.273438 69.542969 C 539.855469 72.269531 542.191406 74.476562 545.003906 75.894531 C 547.828125 77.277344 550.933594 77.980469 554.074219 77.945312 Z M 506.695312 34.214844 C 512.148438 34.214844 516.578125 35.886719 519.988281 39.234375 C 523.402344 42.578125 525.101562 47.511719 525.097656 54.03125 L 525.097656 80.539062 L 521.269531 80.539062 L 521.269531 54.226562 C 521.269531 48.769531 519.875 44.597656 517.109375 41.734375 C 514.339844 38.871094 510.523438 37.421875 505.667969 37.421875 C 501.148438 37.230469 496.761719 38.980469 493.613281 42.234375 C 490.574219 45.4375 489.054688 50.164062 489.054688 56.402344 L 489.054688 80.539062 L 485.226562 80.539062 L 485.226562 35.132812 L 489.054688 35.132812 L 489.054688 47.09375 C 489.964844 43.191406 492.289062 39.761719 495.578125 37.472656 C 498.863281 35.273438 502.746094 34.136719 506.695312 34.214844 Z M 449.023438 25.53125 C 444.5625 25.46875 440.167969 26.597656 436.289062 28.800781 C 432.492188 30.984375 429.394531 34.203125 427.34375 38.078125 C 425.082031 42.414062 423.953125 47.253906 424.070312 52.144531 C 423.957031 57.027344 425.085938 61.863281 427.34375 66.191406 C 429.394531 70.066406 432.496094 73.28125 436.289062 75.46875 C 444.207031 79.8125 453.792969 79.8125 461.710938 75.46875 C 465.523438 73.289062 468.640625 70.074219 470.699219 66.191406 C 472.957031 61.863281 474.085938 57.027344 473.972656 52.144531 C 474.085938 47.261719 472.957031 42.429688 470.699219 38.097656 C 468.644531 34.214844 465.527344 30.996094 461.710938 28.820312 C 457.847656 26.621094 453.46875 25.484375 449.023438 25.53125 Z M 449.023438 22.105469 C 454.230469 22.027344 459.367188 23.339844 463.894531 25.917969 C 468.257812 28.410156 471.828125 32.089844 474.191406 36.527344 C 476.722656 41.335938 477.996094 46.710938 477.894531 52.144531 C 477.984375 57.558594 476.710938 62.910156 474.191406 67.699219 C 471.820312 72.148438 468.253906 75.84375 463.894531 78.375 C 454.652344 83.507812 443.414062 83.507812 434.167969 78.375 C 429.777344 75.847656 426.175781 72.144531 423.765625 67.679688 C 421.238281 62.898438 419.960938 57.554688 420.066406 52.144531 C 419.960938 46.703125 421.25 41.328125 423.808594 36.527344 C 426.207031 32.066406 429.8125 28.375 434.210938 25.875 C 438.726562 23.324219 443.835938 22.023438 449.023438 22.105469 Z M 449.023438 22.105469 "/>
<path style=" stroke:none;fill-rule:nonzero;fill:rgb(1.568627%,1.568627%,1.568627%);fill-opacity:1;" d="M 586.078125 41.265625 L 585.039062 39.691406 L 584.1875 39.691406 L 584.1875 41.265625 L 583.144531 41.265625 L 583.144531 36.339844 L 585.390625 36.339844 C 586.558594 36.339844 587.253906 36.953125 587.253906 37.964844 C 587.285156 38.644531 586.859375 39.265625 586.214844 39.484375 L 587.421875 41.242188 Z M 586.078125 38.027344 C 586.078125 37.558594 585.757812 37.316406 585.226562 37.316406 L 584.1875 37.316406 L 584.1875 38.734375 L 585.277344 38.734375 C 585.808594 38.734375 586.109375 38.453125 586.109375 38.035156 Z M 586.078125 38.027344 "/>
<path style=" stroke:none;fill-rule:nonzero;fill:rgb(1.568627%,1.568627%,1.568627%);fill-opacity:1;" d="M 584.964844 43.980469 C 582.921875 43.984375 581.082031 42.757812 580.296875 40.867188 C 579.511719 38.980469 579.945312 36.804688 581.386719 35.359375 C 582.832031 33.914062 585.003906 33.484375 586.890625 34.269531 C 588.777344 35.050781 590.003906 36.898438 590 38.941406 C 589.996094 41.722656 587.742188 43.976562 584.964844 43.980469 Z M 584.964844 34.996094 C 582.789062 34.996094 581.023438 36.761719 581.023438 38.941406 C 581.023438 41.121094 582.789062 42.886719 584.964844 42.886719 C 587.144531 42.886719 588.90625 41.121094 588.90625 38.941406 C 588.90625 36.761719 587.144531 34.996094 584.964844 34.996094 Z M 584.964844 34.996094 "/>
</g>
</svg>
