<?xml version="1.0" encoding="UTF-8"?>
<svg xmlns="http://www.w3.org/2000/svg" xmlns:xlink="http://www.w3.org/1999/xlink" width="185px" height="55px" viewBox="0 0 186 55" version="1.1">
<g id="surface1">
<path style=" stroke:none;fill-rule:nonzero;fill:rgb(4.705882%,9.019608%,14.117648%);fill-opacity:1;" d="M 19.714844 33.304688 C 19.714844 34.53125 19.453125 35.667969 18.9375 36.722656 C 18.421875 37.757812 17.6875 38.652344 16.769531 39.375 C 15.832031 40.109375 14.726562 40.671875 13.449219 41.074219 C 12.171875 41.476562 10.761719 41.679688 9.238281 41.679688 C 7.414062 41.679688 5.777344 41.433594 4.339844 40.929688 C 2.902344 40.441406 1.453125 39.605469 0 38.449219 L 2.402344 34.542969 C 3.550781 35.511719 4.585938 36.214844 5.519531 36.664062 C 6.4375 37.109375 7.386719 37.328125 8.363281 37.328125 C 9.554688 37.328125 10.503906 37.023438 11.238281 36.402344 C 11.972656 35.785156 12.316406 34.960938 12.316406 33.910156 C 12.316406 33.464844 12.242188 33.046875 12.113281 32.65625 C 11.984375 32.265625 11.742188 31.863281 11.394531 31.445312 C 11.050781 31.042969 10.5625 30.582031 9.945312 30.105469 C 9.339844 29.628906 8.550781 29.023438 7.574219 28.316406 C 6.839844 27.800781 6.109375 27.25 5.40625 26.703125 C 4.699219 26.140625 4.070312 25.550781 3.480469 24.914062 C 2.90625 24.28125 2.445312 23.574219 2.085938 22.78125 C 1.742188 22.003906 1.554688 21.097656 1.554688 20.101562 C 1.554688 18.949219 1.796875 17.882812 2.273438 16.929688 C 2.746094 15.976562 3.40625 15.171875 4.242188 14.496094 C 5.074219 13.816406 6.066406 13.296875 7.242188 12.925781 C 8.40625 12.550781 9.671875 12.363281 11.050781 12.363281 C 12.5 12.363281 13.894531 12.550781 15.242188 12.9375 C 16.59375 13.328125 17.84375 13.890625 19.007812 14.640625 L 16.839844 18.15625 C 15.359375 17.117188 13.792969 16.585938 12.15625 16.585938 C 11.164062 16.585938 10.332031 16.84375 9.683594 17.363281 C 9.039062 17.882812 8.707031 18.53125 8.707031 19.324219 C 8.707031 20.074219 8.996094 20.75 9.570312 21.34375 C 10.144531 21.949219 11.132812 22.769531 12.542969 23.863281 C 13.964844 24.902344 15.144531 25.824219 16.0625 26.601562 C 16.996094 27.378906 17.730469 28.128906 18.277344 28.820312 C 18.820312 29.515625 19.179688 30.207031 19.394531 30.925781 C 19.613281 31.660156 19.710938 32.4375 19.710938 33.304688 Z M 44.351562 26.71875 C 44.351562 27.800781 44.234375 28.96875 44.003906 30.222656 C 43.789062 31.476562 43.402344 32.628906 42.855469 33.695312 C 42.308594 34.761719 41.605469 35.640625 40.730469 36.316406 C 39.851562 37.011719 38.730469 37.355469 37.398438 37.355469 C 35.15625 37.355469 33.390625 36.460938 32.097656 34.660156 C 30.804688 32.875 30.15625 30.410156 30.15625 27.28125 C 30.15625 24.066406 30.804688 21.53125 32.125 19.644531 C 33.433594 17.753906 35.214844 16.816406 37.453125 16.816406 C 39.582031 16.816406 41.261719 17.710938 42.496094 19.46875 C 43.730469 21.242188 44.351562 23.664062 44.351562 26.71875 Z M 52.136719 26.445312 C 52.136719 24.355469 51.835938 22.453125 51.246094 20.753906 C 50.640625 19.039062 49.808594 17.566406 48.703125 16.328125 C 47.597656 15.089844 46.304688 14.136719 44.796875 13.445312 C 43.289062 12.753906 41.621094 12.40625 39.796875 12.40625 C 37.785156 12.40625 36.019531 12.796875 34.496094 13.546875 C 32.972656 14.308594 31.550781 15.507812 30.257812 17.148438 L 30.214844 13.070312 L 23.046875 13.070312 L 23.046875 54.992188 L 30.199219 54.992188 L 30.199219 37.285156 C 30.902344 38.105469 31.578125 38.796875 32.238281 39.359375 C 32.886719 39.921875 33.546875 40.382812 34.222656 40.730469 C 34.898438 41.074219 35.601562 41.335938 36.347656 41.480469 C 37.09375 41.621094 37.898438 41.695312 38.746094 41.695312 C 40.644531 41.695312 42.425781 41.304688 44.0625 40.554688 C 45.699219 39.792969 47.121094 38.726562 48.3125 37.339844 C 49.507812 35.957031 50.441406 34.34375 51.117188 32.515625 C 51.804688 30.667969 52.136719 28.636719 52.136719 26.445312 Z M 55.324219 41.015625 L 62.679688 41.015625 L 62.679688 -0.00390625 L 55.324219 -0.00390625 Z M 94.050781 41.03125 L 94.050781 13.042969 L 86.695312 13.042969 L 86.695312 28.105469 C 86.695312 29.445312 86.636719 30.480469 86.523438 31.21875 C 86.410156 31.953125 86.222656 32.601562 85.964844 33.207031 C 84.929688 35.511719 83.019531 36.679688 80.246094 36.679688 C 78.078125 36.679688 76.570312 35.902344 75.707031 34.332031 C 75.359375 33.738281 75.132812 33.0625 75 32.3125 C 74.871094 31.5625 74.800781 30.480469 74.800781 29.054688 L 74.800781 13.042969 L 67.445312 13.042969 L 67.445312 28.949219 C 67.445312 30.03125 67.460938 30.953125 67.476562 31.6875 C 67.488281 32.421875 67.546875 33.097656 67.617188 33.675781 C 67.691406 34.253906 67.777344 34.769531 67.878906 35.21875 C 67.964844 35.664062 68.105469 36.097656 68.292969 36.5 C 68.96875 38.21875 70.046875 39.515625 71.554688 40.390625 C 73.0625 41.273438 74.917969 41.703125 77.101562 41.703125 C 79.066406 41.703125 80.804688 41.359375 82.300781 40.667969 C 83.792969 39.972656 85.246094 38.851562 86.652344 37.277344 L 86.667969 41.027344 L 94.050781 41.042969 Z M 125.746094 41.015625 L 125.746094 25.144531 C 125.746094 24.0625 125.730469 23.140625 125.71875 22.375 C 125.703125 21.613281 125.660156 20.949219 125.574219 20.386719 C 125.503906 19.824219 125.402344 19.335938 125.300781 18.917969 C 125.1875 18.484375 125.058594 18.066406 124.914062 17.664062 C 124.238281 15.992188 123.160156 14.695312 121.652344 13.785156 C 120.144531 12.878906 118.289062 12.417969 116.09375 12.417969 C 114.125 12.417969 112.386719 12.761719 110.890625 13.453125 C 109.398438 14.144531 107.945312 15.285156 106.539062 16.839844 L 106.523438 13.09375 L 99.125 13.09375 L 99.125 41.023438 L 106.539062 41.023438 L 106.539062 25.945312 C 106.539062 24.648438 106.582031 23.625 106.683594 22.902344 C 106.769531 22.183594 106.957031 21.503906 107.214844 20.855469 C 107.6875 19.730469 108.433594 18.894531 109.425781 18.320312 C 110.417969 17.746094 111.59375 17.457031 112.972656 17.457031 C 115.144531 17.457031 116.652344 18.234375 117.515625 19.804688 C 117.84375 20.394531 118.074219 21.074219 118.203125 21.808594 C 118.332031 22.542969 118.40625 23.640625 118.40625 25.050781 L 118.40625 40.988281 L 125.746094 41 Z M 156.175781 39.171875 L 144.972656 25.203125 L 154.441406 15.03125 L 148.867188 12.625 L 139.011719 24.082031 L 138.234375 24.082031 L 138.234375 0.00390625 L 130.824219 0.00390625 L 130.824219 41.023438 L 138.234375 41.023438 L 138.234375 26.164062 L 149.324219 41.582031 Z M 184.824219 29.140625 L 184.824219 24.570312 L 162.535156 13.355469 L 162.535156 18.386719 L 179.808594 26.816406 L 162.535156 35.363281 L 162.535156 40.28125 Z M 164.699219 6.101562 C 163.335938 6.101562 162.230469 7.226562 162.230469 8.609375 C 162.230469 10.023438 163.335938 11.132812 164.699219 11.132812 C 166.078125 11.132812 167.171875 10.023438 167.171875 8.609375 C 167.171875 7.210938 166.078125 6.101562 164.699219 6.101562 Z M 164.714844 6.492188 C 165.820312 6.492188 166.710938 7.441406 166.710938 8.625 C 166.710938 9.804688 165.820312 10.757812 164.714844 10.742188 C 163.59375 10.742188 162.703125 9.804688 162.703125 8.609375 C 162.703125 7.441406 163.59375 6.492188 164.714844 6.492188 Z M 164.242188 8.871094 L 164.542969 8.871094 C 164.902344 8.871094 165.074219 9 165.144531 9.359375 C 165.203125 9.734375 165.273438 9.980469 165.332031 10.066406 L 165.808594 10.066406 C 165.761719 9.980469 165.691406 9.804688 165.632812 9.375 C 165.578125 8.957031 165.417969 8.738281 165.160156 8.695312 L 165.160156 8.667969 C 165.460938 8.582031 165.707031 8.351562 165.707031 7.992188 C 165.707031 7.730469 165.621094 7.527344 165.445312 7.414062 C 165.273438 7.285156 165 7.199219 164.585938 7.199219 C 164.253906 7.199219 164.023438 7.226562 163.796875 7.269531 L 163.796875 10.066406 L 164.242188 10.066406 Z M 164.242188 7.570312 C 164.3125 7.558594 164.414062 7.542969 164.554688 7.542969 C 165.058594 7.542969 165.230469 7.789062 165.230469 8.035156 C 165.230469 8.378906 164.914062 8.507812 164.554688 8.507812 L 164.242188 8.507812 Z M 164.242188 7.570312 "/>
</g>
</svg>
