<?xml version="1.0" encoding="UTF-8"?>
<svg xmlns="http://www.w3.org/2000/svg" xmlns:xlink="http://www.w3.org/1999/xlink" width="450px" height="100px" viewBox="0 0 449 100" version="1.1">
<g id="surface1">
<path style=" stroke:none;fill-rule:evenodd;fill:rgb(26.666668%,32.941177%,39.215687%);fill-opacity:1;" d="M 312.097656 46 L 312.097656 82.34375 L 326.007812 82.34375 L 326.007812 75.707031 L 326.84375 76.679688 C 328.957031 79.132812 332.214844 81.335938 335.390625 82.457031 C 337.839844 83.324219 339.128906 83.519531 342.328125 83.511719 C 344.921875 83.503906 345.398438 83.464844 346.957031 83.132812 C 351.445312 82.179688 354.972656 80.25 358.070312 77.046875 C 361.761719 73.230469 364.007812 68.324219 365.007812 61.902344 C 365.273438 60.207031 365.316406 59.382812 365.316406 56 C 365.316406 51.648438 365.117188 49.816406 364.304688 46.597656 C 361.300781 34.738281 352.046875 27.652344 340.566406 28.429688 C 335.210938 28.792969 330.394531 31.175781 326.882812 35.203125 L 326.074219 36.128906 L 326.039062 22.890625 L 326.003906 9.65625 L 312.097656 9.65625 L 312.097656 46 M 369.941406 46 L 369.941406 82.34375 L 383.855469 82.34375 L 383.855469 9.65625 L 369.941406 9.65625 L 369.941406 46 M 117.484375 22.484375 L 117.484375 29.65625 L 108.808594 29.65625 L 108.808594 41.792969 L 117.46875 41.792969 L 117.523438 56.722656 C 117.570312 69.824219 117.605469 71.792969 117.800781 72.761719 C 118.625 76.839844 120.253906 79.457031 123.121094 81.3125 C 125.71875 82.996094 128.9375 83.695312 133.390625 83.542969 C 136.542969 83.4375 138.347656 83.101562 140.671875 82.179688 C 141.703125 81.769531 143.652344 80.613281 143.851562 80.289062 C 143.902344 80.207031 143.289062 77.78125 142.488281 74.898438 C 141.691406 72.015625 141.035156 69.628906 141.035156 69.597656 C 141.035156 69.5625 140.71875 69.75 140.332031 70.011719 C 139.238281 70.75 137.917969 71.105469 136.285156 71.101562 C 135.125 71.101562 134.804688 71.050781 134.265625 70.78125 C 133.058594 70.183594 132.164062 69.039062 131.714844 67.515625 C 131.492188 66.757812 131.46875 65.65625 131.425781 54.242188 L 131.382812 41.792969 L 142.136719 41.792969 L 142.136719 29.65625 L 131.394531 29.65625 L 131.394531 15.308594 L 117.484375 15.308594 L 117.484375 22.484375 M 443.402344 22.484375 C 441.960938 22.777344 440.5625 23.972656 440.042969 25.351562 C 439.625 26.457031 439.707031 28.183594 440.21875 29.171875 C 442.082031 32.769531 447.273438 32.453125 448.675781 28.65625 C 448.804688 28.316406 448.894531 27.628906 448.898438 27.019531 C 448.898438 25.78125 448.523438 24.800781 447.691406 23.882812 C 446.722656 22.808594 444.839844 22.195312 443.402344 22.484375 M 443.097656 23.636719 C 442.425781 23.878906 441.605469 24.621094 441.265625 25.28125 C 441.105469 25.597656 440.945312 26.238281 440.90625 26.71875 C 440.773438 28.351562 441.378906 29.5625 442.675781 30.269531 C 443.292969 30.605469 443.574219 30.675781 444.316406 30.667969 C 446.410156 30.644531 447.753906 29.257812 447.757812 27.101562 C 447.761719 24.929688 446.304688 23.425781 444.230469 23.457031 C 443.863281 23.464844 443.351562 23.542969 443.097656 23.636719 M 442.664062 26.945312 L 442.664062 29.515625 L 443.765625 29.515625 L 443.765625 28.550781 C 443.765625 28.019531 443.824219 27.585938 443.898438 27.585938 C 443.96875 27.585938 444.28125 28.019531 444.59375 28.550781 L 445.15625 29.515625 L 446.523438 29.515625 L 446.160156 28.929688 C 445.957031 28.609375 445.671875 28.167969 445.519531 27.953125 L 445.246094 27.5625 L 445.726562 27.164062 C 446.304688 26.691406 446.460938 26.105469 446.1875 25.449219 C 445.910156 24.785156 445.3125 24.527344 443.875 24.445312 L 442.664062 24.375 L 442.664062 26.945312 M 443.765625 26.070312 C 443.765625 26.730469 443.78125 26.757812 444.148438 26.757812 C 444.359375 26.757812 444.667969 26.660156 444.835938 26.542969 C 445.449219 26.117188 445.070312 25.378906 444.238281 25.378906 L 443.765625 25.378906 L 443.765625 26.070312 M 170.292969 28.429688 C 167.011719 28.621094 163.203125 29.601562 160.25 31.019531 C 157.527344 32.324219 155.613281 33.679688 153.3125 35.921875 C 148.835938 40.292969 146.117188 45.894531 145.3125 52.410156 C 145.097656 54.132812 145.132812 58.214844 145.378906 60.097656 C 146.023438 65.074219 147.804688 69.574219 150.585938 73.242188 C 151.40625 74.328125 153.476562 76.453125 154.601562 77.371094 C 159.375 81.269531 165.257812 83.34375 172.09375 83.546875 C 177.042969 83.691406 181.765625 82.984375 186.003906 81.457031 C 188.941406 80.398438 192.539062 78.378906 194.164062 76.875 L 194.882812 76.207031 L 191.773438 71.632812 L 188.660156 67.058594 L 187.402344 68.015625 C 185.195312 69.699219 181.960938 71.074219 178.625 71.75 C 176.4375 72.191406 172.578125 72.199219 170.703125 71.761719 C 166.085938 70.6875 162.882812 68.285156 160.957031 64.453125 C 160.46875 63.484375 159.765625 61.332031 159.765625 60.8125 C 159.765625 60.558594 160.242188 60.550781 179.203125 60.550781 L 198.636719 60.550781 L 198.570312 56.722656 C 198.496094 52.527344 198.300781 50.910156 197.492188 47.863281 C 196.066406 42.488281 193.210938 37.710938 189.488281 34.480469 C 184.339844 30.011719 177.929688 27.992188 170.292969 28.429688 M 234.070312 28.425781 C 228.320312 28.796875 222.949219 31.140625 218.707031 35.136719 L 217.613281 36.167969 L 217.613281 29.65625 L 203.703125 29.65625 L 203.703125 82.34375 L 217.613281 82.34375 L 217.613281 46.703125 L 219.105469 45.246094 C 221.417969 42.988281 223.8125 41.671875 226.6875 41.074219 C 227.792969 40.847656 228.367188 40.8125 230.148438 40.871094 C 231.535156 40.914062 232.570312 41.019531 233.109375 41.171875 C 235.410156 41.816406 237.097656 43.148438 237.992188 45.023438 C 239.082031 47.3125 239.011719 45.996094 239.0625 65.207031 L 239.109375 82.34375 L 253.148438 82.34375 L 253.148438 63.257812 C 253.148438 43.71875 253.121094 42.519531 252.601562 40.125 C 251.554688 35.304688 248.636719 31.671875 244.363281 29.867188 C 241.59375 28.695312 237.90625 28.179688 234.070312 28.425781 M 281.796875 28.375 C 274.242188 28.613281 267.101562 31.132812 261.578125 35.519531 C 260.949219 36.015625 260.402344 36.507812 260.363281 36.609375 C 260.289062 36.808594 265.535156 46.332031 265.726562 46.339844 C 265.789062 46.34375 266.246094 46 266.742188 45.578125 C 269.53125 43.207031 273.027344 41.460938 276.578125 40.664062 C 277.835938 40.382812 278.355469 40.347656 280.902344 40.355469 C 283.414062 40.363281 283.933594 40.402344 284.859375 40.660156 C 287.152344 41.292969 288.65625 42.085938 289.925781 43.328125 C 290.820312 44.207031 291.324219 45 291.832031 46.328125 C 292.171875 47.21875 292.183594 47.347656 292.234375 51.304688 L 292.285156 55.367188 L 291.230469 54.363281 C 288.851562 52.101562 285.578125 50.5 281.742188 49.726562 C 274.042969 48.171875 267.019531 49.671875 262.414062 53.855469 C 260.644531 55.46875 258.898438 58.324219 258.246094 60.691406 C 257.371094 63.851562 257.320312 67.746094 258.113281 70.855469 C 259.964844 78.101562 266.734375 83.214844 274.917969 83.542969 C 281.3125 83.800781 287.1875 81.816406 291.058594 78.085938 L 292.261719 76.925781 L 292.261719 82.34375 L 306.3125 82.34375 L 306.308594 64.585938 C 306.308594 53.933594 306.253906 46.304688 306.171875 45.515625 C 305.242188 36.535156 299.9375 30.921875 290.609375 29.046875 C 288.027344 28.53125 284.785156 28.28125 281.796875 28.375 M 414.074219 28.429688 C 410.792969 28.621094 406.984375 29.601562 404.03125 31.019531 C 401.308594 32.324219 399.394531 33.679688 397.09375 35.921875 C 392.617188 40.292969 389.898438 45.894531 389.09375 52.410156 C 388.882812 54.132812 388.917969 58.214844 389.160156 60.097656 C 389.804688 65.074219 391.589844 69.574219 394.367188 73.242188 C 395.1875 74.328125 397.257812 76.453125 398.382812 77.371094 C 403.160156 81.269531 409.039062 83.34375 415.875 83.546875 C 420.824219 83.691406 425.546875 82.984375 429.785156 81.457031 C 432.722656 80.398438 436.328125 78.375 437.945312 76.875 L 438.664062 76.207031 L 435.554688 71.632812 L 432.441406 67.058594 L 431.183594 68.015625 C 428.980469 69.699219 425.742188 71.074219 422.40625 71.75 C 420.21875 72.191406 416.359375 72.199219 414.484375 71.761719 C 409.867188 70.6875 406.664062 68.285156 404.738281 64.453125 C 404.25 63.484375 403.550781 61.332031 403.550781 60.8125 C 403.550781 60.558594 404.023438 60.550781 422.984375 60.550781 L 442.421875 60.550781 L 442.351562 56.722656 C 442.277344 52.527344 442.082031 50.910156 441.273438 47.863281 C 438.921875 38.992188 433.027344 32.421875 425.03125 29.75 C 421.667969 28.628906 418.113281 28.199219 414.074219 28.429688 M 170.84375 39.871094 C 166.277344 40.234375 162.730469 42.605469 160.859375 46.550781 C 160.246094 47.847656 159.628906 49.863281 159.628906 50.578125 L 159.628906 50.898438 L 172.4375 50.898438 C 185.011719 50.898438 185.246094 50.890625 185.246094 50.628906 C 185.246094 50.484375 185.15625 49.9375 185.046875 49.414062 C 183.6875 42.945312 178.238281 39.28125 170.84375 39.871094 M 414.628906 39.871094 C 410.058594 40.234375 406.511719 42.605469 404.640625 46.550781 C 404.027344 47.847656 403.410156 49.863281 403.410156 50.578125 L 403.410156 50.898438 L 429.066406 50.898438 L 428.976562 50.230469 C 428.65625 47.808594 427.496094 45.332031 425.820312 43.496094 C 424.902344 42.496094 422.941406 41.21875 421.523438 40.707031 C 419.5 39.972656 417.058594 39.675781 414.628906 39.871094 M 335.234375 41.042969 C 331.914062 41.792969 328.535156 43.730469 326.710938 45.925781 L 326.007812 46.773438 L 326.007812 65.355469 L 326.5625 66.058594 C 328.121094 68.035156 331.460938 69.988281 334.660156 70.792969 C 336.355469 71.222656 339.621094 71.214844 341.226562 70.78125 C 346.347656 69.390625 349.832031 65.179688 350.824219 59.171875 C 351.082031 57.625 351.039062 53.851562 350.75 52.34375 C 349.644531 46.585938 346.476562 42.757812 341.613281 41.292969 C 340.574219 40.980469 340.09375 40.921875 338.265625 40.882812 C 336.742188 40.851562 335.875 40.898438 335.234375 41.042969 M 279.246094 58.636719 C 275.296875 59.207031 272.273438 61.648438 271.617188 64.800781 C 270.769531 68.878906 273.167969 72.355469 277.753906 73.6875 C 278.722656 73.96875 279.113281 74 281.519531 73.988281 C 283.945312 73.976562 284.332031 73.941406 285.523438 73.625 C 288.191406 72.90625 290.371094 71.730469 291.632812 70.328125 L 292.261719 69.625 L 292.261719 63.132812 L 291.78125 62.542969 C 289.496094 59.75 283.8125 57.976562 279.246094 58.636719 "/>
<path style=" stroke:none;fill-rule:evenodd;fill:rgb(1.568628%,64.313728%,70.588237%);fill-opacity:1;" d="M 36.40625 0.199219 C 36.089844 0.296875 35.625 0.507812 35.371094 0.664062 C 35.121094 0.824219 27.214844 8.667969 17.808594 18.097656 C 3.398438 32.539062 0.652344 35.351562 0.398438 35.929688 C -0.046875 36.945312 -0.0898438 38.171875 0.273438 39.585938 C 2.085938 46.65625 12.335938 84.648438 12.570312 85.164062 C 12.957031 86.015625 13.929688 87.027344 14.738281 87.414062 C 15.078125 87.574219 23.601562 89.917969 33.675781 92.621094 C 43.75 95.324219 54.058594 98.089844 56.578125 98.769531 C 61.71875 100.148438 62.417969 100.238281 63.867188 99.707031 C 64.632812 99.429688 65.375 98.707031 81.851562 82.226562 C 95.5 68.574219 99.105469 64.890625 99.375 64.34375 C 99.828125 63.425781 100.019531 62.308594 99.875 61.449219 C 99.65625 60.167969 87.570312 15.246094 87.296875 14.710938 C 86.878906 13.894531 85.988281 13.007812 85.207031 12.632812 C 84.816406 12.445312 74.1875 9.527344 61.582031 6.144531 C 37.203125 -0.394531 37.824219 -0.246094 36.40625 0.199219 M 36.980469 2.5625 C 36.546875 2.71875 35.207031 3.984375 30.78125 8.421875 L 25.136719 14.082031 L 26.925781 12.960938 C 34.109375 8.464844 43.03125 6.066406 51.375 6.386719 C 52.472656 6.429688 53.308594 6.4375 53.234375 6.410156 C 52.683594 6.203125 38.015625 2.347656 37.804688 2.355469 C 37.652344 2.363281 37.28125 2.453125 36.980469 2.5625 M 44.140625 9.105469 C 34.652344 10.558594 26.089844 15.054688 19.726562 21.929688 C 18.605469 23.140625 16.226562 26.089844 16.308594 26.171875 C 16.363281 26.226562 45.953125 9.175781 46.203125 8.949219 C 46.378906 8.785156 46.09375 8.804688 44.140625 9.105469 M 53.578125 8.863281 C 53.613281 8.902344 60.277344 12.765625 68.382812 17.449219 C 76.488281 22.132812 83.332031 26.089844 83.585938 26.246094 C 83.84375 26.402344 84.03125 26.460938 84 26.378906 C 83.96875 26.292969 83.359375 25.460938 82.636719 24.527344 C 81.070312 22.496094 78.019531 19.390625 76.027344 17.792969 C 71.5625 14.226562 65.886719 11.367188 60.535156 10 C 58.191406 9.398438 53.332031 8.605469 53.578125 8.863281 M 39.914062 14.933594 C 34.785156 17.902344 30.609375 20.355469 30.632812 20.378906 C 30.667969 20.414062 54.300781 14.121094 56.578125 13.46875 L 57.167969 13.296875 L 53.894531 11.40625 C 50.847656 9.652344 50.570312 9.519531 49.929688 9.527344 C 49.277344 9.535156 48.722656 9.832031 39.914062 14.933594 M 70.3125 11.425781 C 77.847656 15.390625 84.058594 21.546875 88.351562 29.308594 C 88.855469 30.21875 89.234375 30.839844 89.195312 30.691406 C 88.402344 27.660156 85.460938 16.726562 85.3125 16.265625 C 85.203125 15.917969 84.902344 15.429688 84.644531 15.179688 C 84.203125 14.753906 83.742188 14.609375 76.554688 12.675781 C 72.363281 11.546875 68.902344 10.625 68.863281 10.625 C 68.828125 10.625 69.476562 10.984375 70.3125 11.425781 M 54.136719 15.988281 L 49.671875 17.199219 L 51.382812 17.296875 C 56.253906 17.574219 60.324219 18.648438 64.59375 20.789062 L 66.585938 21.789062 L 63.351562 18.535156 C 60.304688 15.46875 59.4375 14.75 58.8125 14.773438 C 58.695312 14.777344 56.59375 15.324219 54.136719 15.988281 M 75.269531 27.984375 C 80.722656 33.457031 85.199219 37.929688 85.21875 37.929688 C 85.238281 37.929688 85.253906 36.171875 85.253906 34.019531 C 85.253906 30.175781 85.25 30.101562 84.941406 29.640625 C 84.6875 29.265625 82.753906 28.089844 75.265625 23.753906 C 70.117188 20.773438 65.78125 18.269531 65.628906 18.1875 C 65.476562 18.105469 69.816406 22.515625 75.269531 27.984375 M 44.832031 19.460938 C 38.617188 20.554688 33.195312 23.347656 28.675781 27.777344 C 27.238281 29.1875 25.546875 31.125 25.171875 31.789062 C 25.101562 31.917969 43.132812 21.585938 46.964844 19.304688 C 47.296875 19.105469 46.523438 19.164062 44.832031 19.460938 M 52.957031 19.273438 C 53.054688 19.367188 70.597656 29.527344 75.121094 32.109375 C 75.191406 32.152344 74.851562 31.660156 74.371094 31.023438 C 73.257812 29.554688 70.78125 26.996094 69.347656 25.835938 C 65.5 22.722656 60.914062 20.566406 56.054688 19.59375 C 54.355469 19.25 52.765625 19.085938 52.957031 19.273438 M 36.980469 26.835938 C 30.085938 30.820312 24.308594 34.238281 24.136719 34.429688 L 23.828125 34.773438 L 23.828125 64.398438 L 24.136719 64.75 C 24.308594 64.945312 30.085938 68.363281 36.976562 72.347656 C 46.652344 77.9375 49.609375 79.585938 49.964844 79.585938 C 50.316406 79.585938 53.304688 77.917969 63.105469 72.25 C 74.503906 65.660156 75.804688 64.871094 75.976562 64.464844 C 76.132812 64.085938 76.164062 61.515625 76.164062 49.578125 C 76.164062 36.878906 76.140625 35.089844 75.953125 34.699219 C 75.769531 34.308594 74.121094 33.316406 63.113281 26.953125 C 53.941406 21.65625 50.351562 19.648438 50 19.621094 C 49.578125 19.589844 47.8125 20.570312 36.980469 26.835938 M 29.128906 22.707031 C 25.511719 23.691406 24.804688 23.925781 24.488281 24.246094 C 24.175781 24.5625 23.9375 25.300781 22.941406 29.027344 C 22.292969 31.449219 21.726562 33.5625 21.683594 33.71875 C 21.640625 33.871094 21.742188 33.78125 21.914062 33.515625 C 23.988281 30.25 25.167969 28.71875 27.128906 26.753906 C 28.679688 25.203125 30.554688 23.671875 32.367188 22.488281 C 33.085938 22.015625 33.699219 21.605469 33.734375 21.574219 C 33.875 21.429688 33.121094 21.617188 29.128906 22.707031 M 8.3125 30.929688 C 2.878906 36.390625 2.644531 36.648438 2.492188 37.308594 C 2.335938 37.984375 2.382812 38.183594 4.339844 45.515625 C 5.445312 49.652344 6.367188 53.097656 6.386719 53.171875 C 6.410156 53.25 6.429688 51.914062 6.429688 50.207031 C 6.433594 46.160156 6.726562 43.519531 7.574219 39.929688 C 8.703125 35.152344 10.515625 30.851562 13.230469 26.515625 C 13.671875 25.816406 14.015625 25.242188 14 25.242188 C 13.984375 25.242188 11.425781 27.800781 8.3125 30.929688 M 18.523438 27.296875 C 15.632812 28.972656 15.179688 29.28125 14.910156 29.761719 L 14.597656 30.308594 L 14.632812 41.625 L 14.667969 52.9375 L 18.304688 39.332031 C 20.304688 31.847656 21.972656 25.648438 22.003906 25.550781 C 22.039062 25.457031 22.011719 25.378906 21.949219 25.382812 C 21.882812 25.382812 20.34375 26.246094 18.523438 27.296875 M 87.339844 50 L 87.34375 67.929688 L 87.8125 66.921875 C 88.878906 64.640625 89.917969 61.390625 90.535156 58.414062 C 91.167969 55.378906 91.359375 53.414062 91.359375 50 C 91.359375 46.582031 91.164062 44.605469 90.535156 41.59375 C 89.90625 38.578125 88.878906 35.417969 87.6875 32.828125 L 87.335938 32.070312 L 87.339844 50 M 11.949219 33.898438 C 10.074219 38.332031 9.015625 42.796875 8.671875 47.722656 C 8.226562 54.140625 9.613281 61.710938 12.277344 67.378906 L 12.601562 68.070312 L 12.613281 50.242188 C 12.617188 40.4375 12.609375 32.414062 12.597656 32.414062 C 12.585938 32.414062 12.292969 33.082031 11.949219 33.898438 M 78.570312 34.628906 C 80.847656 39.058594 82.015625 43.472656 82.207031 48.390625 L 82.292969 50.644531 L 83.585938 45.8125 C 84.625 41.917969 84.855469 40.878906 84.78125 40.457031 C 84.695312 40 84.210938 39.457031 81.179688 36.414062 L 77.679688 32.898438 L 78.570312 34.628906 M 77.683594 49.597656 C 77.6875 58.335938 77.734375 62.613281 77.824219 62.453125 C 78.148438 61.902344 79.089844 59.339844 79.472656 57.96875 C 81.058594 52.332031 81 46.253906 79.304688 40.621094 C 79.023438 39.691406 77.871094 36.695312 77.742188 36.570312 C 77.707031 36.535156 77.683594 42.398438 77.683594 49.597656 M 21.65625 38.101562 C 20.535156 40.964844 20.019531 42.890625 19.617188 45.722656 C 19.339844 47.675781 19.300781 51.621094 19.542969 53.378906 C 19.960938 56.417969 20.835938 59.660156 21.839844 61.917969 L 22.304688 62.964844 L 22.308594 49.828125 C 22.308594 42.601562 22.289062 36.691406 22.261719 36.691406 C 22.234375 36.691406 21.964844 37.324219 21.65625 38.101562 M 93.449219 50.035156 C 93.449219 53.890625 93.320312 55.328125 92.691406 58.484375 C 91.578125 64.0625 89.46875 69.28125 86.480469 73.84375 C 86.042969 74.507812 87.121094 73.496094 91.527344 69.101562 C 94.675781 65.964844 97.210938 63.324219 97.320312 63.074219 C 97.425781 62.828125 97.511719 62.429688 97.511719 62.1875 C 97.511719 61.941406 96.609375 58.355469 95.507812 54.214844 C 94.40625 50.078125 93.492188 46.644531 93.476562 46.585938 C 93.460938 46.53125 93.449219 48.082031 93.449219 50.035156 M 81.445312 60.792969 C 79.398438 68.4375 77.742188 74.714844 77.765625 74.742188 C 77.789062 74.769531 79.339844 73.902344 81.214844 72.8125 C 83.777344 71.320312 84.703125 70.710938 84.941406 70.359375 L 85.253906 69.890625 L 85.253906 58.394531 C 85.253906 52.070312 85.234375 46.898438 85.210938 46.898438 C 85.1875 46.898438 83.492188 53.148438 81.445312 60.792969 M 16.292969 53.84375 C 15.222656 57.859375 15.046875 58.664062 15.15625 59.054688 C 15.25 59.398438 16.234375 60.46875 18.941406 63.171875 L 22.597656 66.828125 L 21.882812 65.585938 C 20.117188 62.511719 18.734375 58.597656 18.113281 54.898438 C 17.992188 54.175781 17.816406 52.574219 17.726562 51.339844 L 17.5625 49.09375 L 16.292969 53.84375 M 14.601562 65.621094 C 14.605469 69.613281 14.613281 69.738281 14.910156 70.261719 C 15.191406 70.746094 16.125 71.320312 24.859375 76.371094 C 30.164062 79.4375 34.78125 82.105469 35.121094 82.300781 C 35.542969 82.539062 32.375 79.273438 25.203125 72.085938 C 19.410156 66.273438 14.652344 61.515625 14.632812 61.515625 C 14.613281 61.515625 14.601562 63.363281 14.601562 65.621094 M 78.171875 65.347656 C 77.347656 67.078125 75.191406 69.941406 73.074219 72.117188 C 70.730469 74.527344 68.710938 76.113281 66.046875 77.636719 C 65.367188 78.027344 64.84375 78.34375 64.875 78.34375 C 64.910156 78.34375 67.226562 77.726562 70.023438 76.972656 C 74.1875 75.851562 75.167969 75.542969 75.449219 75.261719 C 75.730469 74.980469 76.035156 74.007812 77.136719 69.90625 C 77.878906 67.152344 78.46875 64.882812 78.449219 64.863281 C 78.433594 64.847656 78.308594 65.0625 78.171875 65.347656 M 24.988281 67.53125 C 30.242188 74.613281 37.1875 78.839844 45.613281 80.078125 C 46.429688 80.199219 47.195312 80.277344 47.308594 80.25 C 47.472656 80.21875 27.351562 68.453125 25.085938 67.257812 L 24.589844 66.996094 L 24.988281 67.53125 M 63.800781 73.613281 C 57.566406 77.222656 52.496094 80.207031 52.53125 80.242188 C 52.636719 80.34375 54.882812 80.007812 56.582031 79.632812 C 63 78.226562 69.136719 74.511719 73.339844 69.5 C 74.21875 68.453125 75.285156 67.019531 75.171875 67.042969 C 75.148438 67.046875 70.03125 70.003906 63.800781 73.613281 M 10.742188 69.304688 C 10.742188 69.605469 14.644531 83.960938 14.820312 84.304688 C 15.257812 85.148438 15.578125 85.265625 23.207031 87.304688 C 27.222656 88.378906 30.632812 89.289062 30.78125 89.328125 C 30.933594 89.367188 30.425781 89.054688 29.648438 88.632812 C 21.878906 84.425781 15.839844 78.457031 11.652344 70.828125 C 11.152344 69.917969 10.742188 69.230469 10.742188 69.304688 M 15.703125 73.476562 C 15.703125 73.667969 18.179688 76.804688 19.382812 78.136719 C 25.019531 84.382812 32.839844 88.882812 41.179688 90.675781 C 43.074219 91.085938 45.859375 91.480469 46.402344 91.421875 C 46.710938 91.386719 43.675781 89.578125 31.246094 82.394531 C 22.695312 77.453125 15.703125 73.4375 15.703125 73.476562 M 68.550781 82.457031 C 60.082031 87.363281 53.222656 91.398438 53.308594 91.425781 C 53.574219 91.515625 56.03125 91.175781 58.128906 90.757812 C 68.261719 88.738281 77.324219 82.882812 83.582031 74.308594 C 83.902344 73.875 84.113281 73.523438 84.054688 73.527344 C 83.996094 73.535156 77.015625 77.550781 68.550781 82.457031 M 36.5 80.75 C 39.253906 83.523438 40.269531 84.457031 40.640625 84.570312 C 41.082031 84.703125 41.660156 84.578125 46.21875 83.359375 L 51.304688 82 L 50.066406 81.96875 C 46.320312 81.878906 42.90625 81.3125 39.773438 80.269531 C 37.839844 79.625 35.230469 78.457031 33.605469 77.515625 C 32.957031 77.140625 33.378906 77.609375 36.5 80.75 M 56.710938 82.394531 C 48.777344 84.53125 42.285156 86.316406 42.285156 86.363281 C 42.285156 86.410156 43.875 87.367188 45.820312 88.492188 C 48.992188 90.324219 49.425781 90.535156 49.988281 90.53125 C 50.558594 90.523438 51.519531 90 60.738281 84.664062 C 66.308594 81.441406 70.984375 78.734375 71.136719 78.648438 C 71.289062 78.5625 71.351562 78.496094 71.273438 78.503906 C 71.199219 78.511719 64.644531 80.261719 56.710938 82.394531 M 73.960938 86.429688 C 71.265625 88.375 66.300781 90.691406 62.335938 91.855469 C 58.027344 93.113281 54.824219 93.566406 50.058594 93.578125 L 46.605469 93.585938 L 54.1875 95.621094 C 58.359375 96.738281 61.890625 97.65625 62.03125 97.65625 C 62.972656 97.65625 63.242188 97.425781 68.949219 91.707031 C 72.046875 88.605469 74.550781 86.070312 74.511719 86.074219 C 74.472656 86.078125 74.226562 86.238281 73.960938 86.429688 "/>
</g>
</svg>
