<?xml version="1.0" encoding="UTF-8"?>
<svg xmlns="http://www.w3.org/2000/svg" xmlns:xlink="http://www.w3.org/1999/xlink" width="100px" height="100px" viewBox="0 0 100 100" version="1.1">
<g id="surface1">
<path style=" stroke:none;fill-rule:nonzero;fill:rgb(26.666667%,32.941176%,39.215686%);fill-opacity:1;" d="M 27.46875 53.175781 L 27.46875 47.59375 L 25.675781 47.59375 L 25.675781 45.121094 L 27.453125 45.121094 L 27.453125 42.179688 L 30.277344 42.179688 L 30.277344 45.121094 L 32.453125 45.121094 L 32.453125 47.59375 L 30.292969 47.59375 L 30.292969 52.421875 C 30.292969 53.113281 30.644531 53.621094 31.273438 53.621094 C 31.625 53.636719 31.980469 53.511719 32.253906 53.28125 L 32.851562 55.445312 C 32.421875 55.828125 31.671875 56.136719 30.492188 56.136719 C 28.511719 56.136719 27.46875 55.105469 27.46875 53.175781 Z M 33.113281 50.476562 C 33.113281 47.363281 35.429688 44.832031 38.679688 44.832031 C 41.933594 44.832031 44.0625 47.238281 44.0625 50.734375 L 44.0625 51.410156 L 36.074219 51.410156 C 36.273438 52.730469 37.347656 53.820312 39.1875 53.820312 C 40.09375 53.820312 41.351562 53.4375 42.039062 52.777344 L 43.3125 54.648438 C 42.238281 55.628906 40.550781 56.136719 38.878906 56.136719 C 35.597656 56.136719 33.113281 53.925781 33.113281 50.476562 Z M 38.679688 47.164062 C 36.917969 47.164062 36.164062 48.390625 36.058594 49.464844 L 41.351562 49.464844 C 41.273438 48.4375 40.550781 47.164062 38.679688 47.164062 Z M 52.394531 55.859375 L 52.394531 49.371094 C 52.394531 47.882812 51.609375 47.363281 50.414062 47.363281 C 49.449219 47.378906 48.542969 47.835938 47.960938 48.605469 L 47.960938 55.859375 L 45.136719 55.859375 L 45.136719 45.105469 L 47.960938 45.105469 L 47.960938 46.488281 C 48.925781 45.429688 50.292969 44.832031 51.71875 44.832031 C 54.09375 44.832031 55.230469 46.164062 55.230469 48.265625 L 55.230469 55.859375 Z M 63.296875 55.859375 L 63.296875 54.722656 C 62.5625 55.613281 61.289062 56.136719 59.894531 56.136719 C 58.175781 56.136719 56.179688 54.984375 56.179688 52.578125 C 56.179688 50.03125 58.191406 49.109375 59.894531 49.109375 C 61.335938 49.109375 62.59375 49.585938 63.296875 50.429688 L 63.296875 49.0625 C 63.296875 47.976562 62.363281 47.269531 60.9375 47.269531 C 59.769531 47.285156 58.664062 47.730469 57.820312 48.542969 L 56.703125 46.5625 C 58.007812 45.445312 59.679688 44.832031 61.394531 44.878906 C 63.863281 44.878906 66.121094 45.859375 66.121094 48.957031 L 66.121094 55.90625 L 63.296875 55.90625 Z M 63.296875 53.28125 L 63.296875 51.949219 C 62.835938 51.320312 61.949219 50.996094 61.042969 50.996094 C 59.921875 50.996094 59.019531 51.59375 59.019531 52.621094 C 59.019531 53.648438 59.921875 54.21875 61.042969 54.21875 C 61.933594 54.21875 62.820312 53.910156 63.296875 53.28125 Z M 67.347656 55.859375 L 67.347656 41.011719 L 70.167969 41.011719 L 70.167969 46.488281 C 70.949219 45.445312 72.179688 44.832031 73.480469 44.832031 C 76.226562 44.832031 78.25 46.964844 78.25 50.476562 C 78.25 54.078125 76.210938 56.121094 73.480469 56.121094 C 72.179688 56.121094 70.949219 55.507812 70.167969 54.480469 L 70.167969 55.859375 Z M 72.636719 53.605469 C 74.265625 53.605469 75.351562 52.332031 75.351562 50.460938 C 75.351562 48.589844 74.265625 47.347656 72.636719 47.347656 C 71.671875 47.363281 70.765625 47.820312 70.183594 48.589844 L 70.183594 52.394531 C 70.78125 53.160156 71.671875 53.605469 72.636719 53.605469 Z M 79.21875 55.859375 L 79.21875 41.011719 L 82.039062 41.011719 L 82.039062 55.859375 Z M 83.113281 50.476562 C 83.113281 47.363281 85.429688 44.832031 88.679688 44.832031 C 91.933594 44.832031 94.0625 47.238281 94.0625 50.734375 L 94.0625 51.410156 L 86.074219 51.410156 C 86.273438 52.730469 87.347656 53.820312 89.1875 53.820312 C 90.09375 53.820312 91.351562 53.4375 92.039062 52.777344 L 93.3125 54.648438 C 92.238281 55.628906 90.550781 56.136719 88.878906 56.136719 C 85.582031 56.136719 83.113281 53.925781 83.113281 50.476562 Z M 88.664062 47.164062 C 86.902344 47.164062 86.148438 48.390625 86.042969 49.464844 L 91.335938 49.464844 C 91.257812 48.4375 90.535156 47.164062 88.664062 47.164062 Z M 94.921875 43.757812 C 95.0625 43.835938 95.183594 43.957031 95.261719 44.09375 C 95.335938 44.234375 95.382812 44.402344 95.382812 44.570312 C 95.382812 44.738281 95.335938 44.894531 95.261719 45.046875 C 95.183594 45.183594 95.0625 45.308594 94.921875 45.382812 C 94.785156 45.460938 94.617188 45.507812 94.449219 45.507812 C 94.109375 45.507812 93.804688 45.335938 93.648438 45.046875 C 93.574219 44.90625 93.527344 44.738281 93.527344 44.570312 C 93.527344 44.402344 93.574219 44.234375 93.648438 44.09375 C 93.726562 43.957031 93.851562 43.835938 93.988281 43.757812 C 94.125 43.664062 94.292969 43.636719 94.449219 43.636719 C 94.617188 43.636719 94.785156 43.679688 94.921875 43.757812 Z M 94.832031 45.230469 C 94.9375 45.167969 95.03125 45.0625 95.09375 44.953125 C 95.214844 44.707031 95.214844 44.417969 95.09375 44.171875 C 95.03125 44.050781 94.9375 43.957031 94.832031 43.894531 C 94.722656 43.835938 94.585938 43.789062 94.449219 43.804688 C 94.308594 43.804688 94.1875 43.835938 94.078125 43.894531 C 93.972656 43.957031 93.878906 44.0625 93.820312 44.171875 C 93.695312 44.417969 93.695312 44.707031 93.820312 44.953125 C 93.878906 45.078125 93.972656 45.167969 94.078125 45.230469 C 94.1875 45.292969 94.324219 45.335938 94.449219 45.320312 C 94.585938 45.335938 94.722656 45.292969 94.832031 45.230469 Z M 94.785156 44.539062 C 94.738281 44.585938 94.679688 44.632812 94.617188 44.648438 L 94.894531 45.0625 L 94.648438 45.0625 L 94.417969 44.679688 L 94.324219 44.679688 L 94.324219 45.0625 L 94.109375 45.0625 L 94.109375 44.035156 L 94.386719 44.035156 C 94.691406 44.035156 94.832031 44.140625 94.832031 44.339844 C 94.847656 44.433594 94.832031 44.492188 94.785156 44.539062 Z M 94.324219 44.507812 L 94.433594 44.507812 C 94.570312 44.507812 94.632812 44.464844 94.632812 44.355469 C 94.632812 44.308594 94.617188 44.265625 94.585938 44.25 C 94.539062 44.21875 94.480469 44.21875 94.433594 44.21875 L 94.324219 44.21875 Z M 94.324219 44.507812 "/>
<path style=" stroke:none;fill-rule:nonzero;fill:rgb(0%,65.098039%,70.588235%);fill-opacity:1;" d="M 21.304688 42.207031 C 21.363281 42.421875 21.5625 43.207031 21.765625 43.941406 L 23.328125 49.785156 C 23.527344 50.519531 23.742188 51.304688 23.789062 51.519531 C 23.863281 51.839844 23.773438 52.179688 23.542969 52.40625 L 22.269531 53.679688 L 18.007812 57.945312 C 17.46875 58.511719 16.917969 59.078125 16.734375 59.21875 C 16.488281 59.433594 16.148438 59.523438 15.84375 59.464844 L 14.109375 59.003906 L 8.265625 57.4375 L 6.535156 56.980469 C 6.378906 56.933594 6.242188 56.855469 6.121094 56.734375 C 5.996094 56.625 5.921875 56.472656 5.875 56.320312 C 5.8125 56.105469 5.613281 55.320312 5.414062 54.585938 L 3.851562 48.742188 L 3.390625 47.007812 L 3.621094 46.933594 L 3.851562 46.871094 C 3.910156 47.085938 4.109375 47.867188 4.308594 48.605469 L 5.875 54.464844 C 6.074219 55.199219 6.289062 55.980469 6.335938 56.195312 C 6.363281 56.273438 6.410156 56.335938 6.457031 56.394531 C 6.519531 56.457031 6.578125 56.503906 6.65625 56.519531 L 8.390625 56.980469 L 14.234375 58.542969 L 15.964844 59.003906 C 16.121094 59.035156 16.289062 58.988281 16.410156 58.878906 L 17.683594 57.605469 L 21.964844 53.328125 L 23.234375 52.054688 C 23.34375 51.933594 23.375 51.765625 23.359375 51.609375 C 23.296875 51.394531 23.097656 50.613281 22.898438 49.878906 L 21.320312 44.0625 C 21.121094 43.328125 20.90625 42.546875 20.859375 42.332031 C 20.828125 42.253906 20.78125 42.191406 20.734375 42.132812 C 20.675781 42.070312 20.613281 42.023438 20.535156 42.007812 L 18.804688 41.535156 L 12.976562 39.96875 L 11.226562 39.507812 C 11.074219 39.480469 10.90625 39.523438 10.78125 39.632812 L 3.957031 46.457031 C 3.851562 46.578125 3.804688 46.75 3.835938 46.902344 L 3.605469 46.949219 L 3.375 47.007812 C 3.296875 46.6875 3.390625 46.351562 3.621094 46.121094 L 4.894531 44.847656 L 9.171875 40.582031 L 10.445312 39.308594 C 10.691406 39.078125 11.027344 39.003906 11.335938 39.0625 L 13.066406 39.523438 L 18.910156 41.089844 L 20.644531 41.550781 C 20.796875 41.59375 20.9375 41.6875 21.058594 41.792969 C 21.179688 41.917969 21.257812 42.054688 21.304688 42.207031 Z M 21.304688 42.207031 "/>
<path style=" stroke:none;fill-rule:nonzero;fill:rgb(0%,65.098039%,70.588235%);fill-opacity:1;" d="M 13.972656 40.660156 L 15.246094 41.394531 L 19.570312 43.894531 L 20.859375 44.632812 C 21.089844 44.769531 21.226562 45.015625 21.242188 45.292969 L 21.242188 53.234375 C 21.226562 53.511719 21.089844 53.757812 20.859375 53.894531 L 19.585938 54.632812 L 15.246094 57.132812 L 13.972656 57.867188 C 13.851562 57.929688 13.726562 57.960938 13.589844 57.960938 C 13.449219 57.960938 13.328125 57.929688 13.207031 57.867188 L 11.933594 57.132812 L 7.59375 54.632812 L 6.320312 53.894531 L 6.410156 53.726562 L 6.503906 53.558594 L 7.777344 54.292969 L 12.101562 56.792969 L 13.390625 57.53125 C 13.449219 57.5625 13.511719 57.578125 13.574219 57.578125 C 13.636719 57.578125 13.710938 57.5625 13.773438 57.53125 L 15.046875 56.792969 L 19.371094 54.292969 L 20.644531 53.558594 C 20.75 53.480469 20.828125 53.359375 20.859375 53.222656 L 20.859375 45.277344 C 20.84375 45.136719 20.765625 45.015625 20.660156 44.953125 L 19.386719 44.21875 L 15.0625 41.71875 L 13.789062 40.980469 C 13.726562 40.949219 13.664062 40.9375 13.589844 40.9375 C 13.527344 40.9375 13.449219 40.949219 13.40625 40.980469 L 12.117188 41.71875 L 7.792969 44.21875 L 6.519531 44.953125 C 6.410156 45.03125 6.335938 45.152344 6.320312 45.292969 L 6.320312 53.234375 C 6.335938 53.375 6.394531 53.480469 6.519531 53.574219 L 6.425781 53.742188 L 6.335938 53.910156 C 6.105469 53.773438 5.964844 53.527344 5.949219 53.25 C 5.949219 53.066406 5.949219 52.40625 5.949219 51.777344 L 5.949219 45.308594 C 5.964844 45.03125 6.105469 44.785156 6.335938 44.648438 L 7.605469 43.910156 L 11.949219 41.410156 L 13.222656 40.675781 C 13.34375 40.613281 13.464844 40.582031 13.605469 40.582031 C 13.726562 40.566406 13.863281 40.597656 13.972656 40.660156 Z M 13.972656 40.660156 "/>
<path style=" stroke:none;fill-rule:nonzero;fill:rgb(0%,65.098039%,70.588235%);fill-opacity:1;" d="M 8.421875 43.558594 L 9.691406 43.222656 L 13.988281 42.070312 L 15.261719 41.734375 C 15.492188 41.6875 15.734375 41.75 15.921875 41.917969 L 20.9375 46.933594 C 21.105469 47.101562 21.164062 47.363281 21.105469 47.59375 C 21.058594 47.746094 20.90625 48.328125 20.765625 48.863281 L 19.617188 53.160156 C 19.464844 53.695312 19.308594 54.292969 19.277344 54.433594 C 19.25 54.539062 19.1875 54.648438 19.09375 54.738281 C 19.019531 54.832031 18.910156 54.894531 18.789062 54.921875 L 17.515625 55.261719 L 13.222656 56.410156 L 11.949219 56.75 L 11.902344 56.59375 L 11.855469 56.425781 L 13.128906 56.089844 L 17.421875 54.9375 L 18.695312 54.601562 C 18.757812 54.585938 18.804688 54.554688 18.851562 54.507812 C 18.894531 54.464844 18.925781 54.417969 18.941406 54.355469 L 19.277344 53.082031 L 20.429688 48.789062 C 20.582031 48.25 20.734375 47.667969 20.765625 47.515625 C 20.78125 47.394531 20.75 47.285156 20.675781 47.191406 L 19.753906 46.257812 L 15.675781 42.179688 C 15.582031 42.101562 15.460938 42.070312 15.351562 42.085938 L 14.078125 42.421875 L 9.785156 43.589844 L 8.511719 43.925781 C 8.449219 43.941406 8.40625 43.972656 8.359375 44.019531 C 8.3125 44.0625 8.28125 44.109375 8.265625 44.171875 C 8.222656 44.324219 8.066406 44.90625 7.929688 45.445312 L 6.777344 49.722656 C 6.640625 50.261719 6.488281 50.84375 6.441406 50.996094 C 6.425781 51.121094 6.457031 51.226562 6.535156 51.320312 L 11.550781 56.335938 C 11.640625 56.410156 11.765625 56.441406 11.871094 56.425781 L 11.917969 56.59375 L 11.964844 56.765625 C 11.734375 56.808594 11.488281 56.75 11.304688 56.578125 L 10.367188 55.644531 L 7.207031 52.453125 L 6.273438 51.519531 C 6.105469 51.351562 6.042969 51.105469 6.089844 50.859375 C 6.136719 50.707031 6.289062 50.121094 6.425781 49.585938 L 7.578125 45.292969 L 7.914062 44.019531 C 7.945312 43.910156 8.007812 43.804688 8.097656 43.710938 C 8.207031 43.648438 8.3125 43.589844 8.421875 43.558594 Z M 8.421875 43.558594 "/>
<path style=" stroke:none;fill-rule:nonzero;fill:rgb(0%,65.098039%,70.588235%);fill-opacity:1;" d="M 7.285156 55.582031 C 3.804688 52.101562 3.804688 46.457031 7.285156 42.960938 C 10.765625 39.464844 16.410156 39.480469 19.90625 42.960938 C 23.40625 46.441406 23.390625 52.085938 19.90625 55.582031 C 16.425781 59.0625 10.78125 59.0625 7.285156 55.582031 Z M 19.617188 55.292969 C 22.929688 51.964844 22.914062 46.578125 19.585938 43.28125 C 16.257812 39.96875 10.875 39.984375 7.578125 43.3125 C 4.277344 46.625 4.277344 51.992188 7.59375 55.308594 C 10.90625 58.636719 16.289062 58.621094 19.617188 55.292969 C 19.617188 55.308594 19.617188 55.308594 19.617188 55.292969 Z M 19.617188 55.292969 "/>
<path style=" stroke:none;fill-rule:nonzero;fill:rgb(0%,65.098039%,70.588235%);fill-opacity:1;" d="M 13.878906 42.808594 L 14.832031 43.359375 L 18.035156 45.199219 L 18.988281 45.75 C 19.15625 45.859375 19.265625 46.042969 19.265625 46.242188 L 19.265625 52.132812 C 19.25 52.332031 19.15625 52.515625 18.988281 52.621094 L 18.035156 53.160156 L 14.832031 55.015625 L 13.878906 55.566406 C 13.789062 55.613281 13.695312 55.644531 13.605469 55.644531 C 13.511719 55.644531 13.40625 55.613281 13.328125 55.566406 L 12.378906 55.015625 L 9.171875 53.160156 L 8.222656 52.605469 L 8.296875 52.484375 L 8.375 52.363281 L 9.308594 52.914062 L 12.515625 54.769531 L 13.464844 55.320312 C 13.511719 55.351562 13.558594 55.351562 13.605469 55.351562 C 13.648438 55.351562 13.695312 55.351562 13.742188 55.320312 L 14.691406 54.769531 L 17.898438 52.914062 L 18.851562 52.363281 C 18.925781 52.300781 18.988281 52.222656 18.988281 52.117188 L 18.988281 46.226562 C 18.972656 46.136719 18.925781 46.042969 18.851562 45.980469 L 17.898438 45.429688 L 14.707031 43.589844 L 13.757812 43.035156 C 13.710938 43.019531 13.664062 43.007812 13.621094 43.007812 C 13.574219 43.007812 13.527344 43.019531 13.480469 43.035156 L 12.53125 43.589844 L 9.324219 45.429688 L 8.375 45.980469 C 8.296875 46.042969 8.234375 46.136719 8.234375 46.226562 L 8.234375 52.117188 C 8.25 52.207031 8.296875 52.300781 8.375 52.363281 L 8.296875 52.484375 L 8.222656 52.605469 C 8.050781 52.5 7.945312 52.316406 7.945312 52.117188 L 7.945312 46.210938 C 7.945312 46.011719 8.050781 45.828125 8.222656 45.722656 L 9.171875 45.167969 L 12.378906 43.328125 L 13.328125 42.777344 C 13.421875 42.730469 13.511719 42.699219 13.605469 42.699219 C 13.695312 42.746094 13.789062 42.761719 13.878906 42.808594 Z M 13.878906 42.808594 "/>
<path style=" stroke:none;fill-rule:nonzero;fill:rgb(0%,65.098039%,70.588235%);fill-opacity:1;" d="M 8.925781 53.851562 C 6.351562 51.273438 6.351562 47.085938 8.925781 44.507812 C 11.503906 41.933594 15.691406 41.933594 18.265625 44.507812 C 20.84375 47.085938 20.84375 51.273438 18.265625 53.851562 C 15.691406 56.441406 11.503906 56.441406 8.925781 53.851562 Z M 18.050781 53.648438 C 20.507812 51.195312 20.492188 47.207031 18.035156 44.753906 C 15.582031 42.300781 11.59375 42.316406 9.140625 44.769531 C 6.703125 47.222656 6.703125 51.195312 9.140625 53.648438 C 11.59375 56.105469 15.582031 56.121094 18.050781 53.648438 C 18.035156 53.648438 18.050781 53.648438 18.050781 53.648438 Z M 18.050781 53.648438 "/>
</g>
</svg>
