<?xml version="1.0" encoding="UTF-8"?>
<svg xmlns="http://www.w3.org/2000/svg" xmlns:xlink="http://www.w3.org/1999/xlink" width="20px" height="20px" viewBox="0 0 20 20" version="1.1">
<g id="surface1">
<path style=" stroke:none;fill-rule:evenodd;fill:rgb(95.686275%,78.039216%,32.941176%);fill-opacity:1;" d="M 9.015625 0.0351562 C 8.886719 0.046875 8.691406 0.0703125 8.578125 0.078125 C 8.160156 0.121094 7.441406 0.234375 7.050781 0.320312 C 6.921875 0.347656 6.777344 0.378906 6.734375 0.386719 C 6.613281 0.410156 6.0625 0.558594 5.734375 0.65625 C 4.515625 1.019531 3.34375 1.523438 2.28125 2.140625 C 1.25 2.742188 1.25 2.742188 1.25 3.484375 C 1.25 4.085938 1.289062 5.105469 1.335938 5.632812 C 1.351562 5.84375 1.375 6.105469 1.382812 6.214844 C 1.460938 7.097656 1.546875 7.769531 1.71875 8.785156 C 1.835938 9.476562 2.054688 10.453125 2.105469 10.519531 C 2.121094 10.539062 2.125 10.5625 2.117188 10.570312 C 2.109375 10.578125 2.140625 10.71875 2.1875 10.886719 C 2.355469 11.472656 2.429688 11.71875 2.484375 11.898438 C 2.558594 12.140625 2.902344 13.074219 2.929688 13.117188 C 2.945312 13.136719 2.984375 13.226562 3.015625 13.316406 C 3.105469 13.558594 3.628906 14.644531 3.671875 14.667969 C 3.691406 14.679688 3.703125 14.699219 3.703125 14.710938 C 3.699219 14.746094 3.882812 15.101562 3.980469 15.242188 C 4.027344 15.3125 4.066406 15.378906 4.066406 15.386719 C 4.066406 15.421875 4.734375 16.398438 4.816406 16.476562 C 4.835938 16.5 4.917969 16.601562 4.992188 16.707031 C 5.070312 16.8125 5.195312 16.960938 5.265625 17.039062 C 5.339844 17.113281 5.398438 17.1875 5.398438 17.199219 C 5.398438 17.230469 6.300781 18.109375 6.484375 18.253906 C 6.574219 18.324219 6.679688 18.410156 6.714844 18.445312 C 6.839844 18.558594 7.414062 18.957031 7.734375 19.152344 C 8.398438 19.554688 9.355469 19.953125 9.753906 19.988281 C 9.917969 20.003906 10.011719 19.988281 10.269531 19.90625 C 10.613281 19.796875 11.1875 19.558594 11.449219 19.414062 C 11.542969 19.363281 11.671875 19.296875 11.734375 19.261719 C 11.886719 19.1875 12.667969 18.664062 12.878906 18.496094 C 13.390625 18.089844 14.144531 17.351562 14.488281 16.921875 C 14.59375 16.789062 14.734375 16.617188 14.800781 16.535156 C 14.867188 16.449219 14.988281 16.285156 15.070312 16.167969 C 15.148438 16.046875 15.226562 15.941406 15.234375 15.933594 C 15.261719 15.90625 15.5 15.539062 15.5 15.523438 C 15.5 15.515625 15.558594 15.417969 15.628906 15.3125 C 15.773438 15.09375 16.089844 14.519531 16.230469 14.214844 C 16.28125 14.105469 16.382812 13.890625 16.457031 13.734375 C 17.078125 12.421875 17.71875 10.234375 17.980469 8.515625 C 17.988281 8.460938 18.007812 8.320312 18.027344 8.199219 C 18.046875 8.082031 18.074219 7.910156 18.085938 7.816406 C 18.09375 7.726562 18.109375 7.628906 18.117188 7.601562 C 18.144531 7.507812 18.285156 6.121094 18.316406 5.683594 C 18.382812 4.65625 18.398438 4.320312 18.402344 3.609375 C 18.410156 2.753906 18.40625 2.753906 17.617188 2.285156 C 17.070312 1.964844 16.886719 1.863281 16.367188 1.613281 C 16.082031 1.476562 15.820312 1.347656 15.78125 1.328125 C 15.746094 1.3125 15.691406 1.292969 15.664062 1.285156 C 15.636719 1.28125 15.542969 1.242188 15.449219 1.203125 C 15.359375 1.160156 15.238281 1.109375 15.183594 1.082031 C 14.980469 0.996094 13.984375 0.664062 13.621094 0.566406 C 13.207031 0.453125 12.28125 0.242188 12.101562 0.222656 C 12.035156 0.214844 11.929688 0.195312 11.867188 0.183594 C 11.800781 0.171875 11.691406 0.15625 11.617188 0.148438 C 11.542969 0.144531 11.378906 0.121094 11.25 0.101562 C 11.121094 0.0820312 10.941406 0.0585938 10.851562 0.0507812 C 10.5625 0.015625 9.261719 0.0078125 9.015625 0.0351562 M 9.132812 1.300781 C 7.890625 1.421875 6.980469 1.605469 5.683594 2 C 5.351562 2.097656 4.765625 2.320312 4.25 2.542969 C 4.007812 2.648438 2.914062 3.203125 2.695312 3.332031 L 2.511719 3.441406 L 2.519531 3.613281 C 2.523438 3.707031 2.539062 4.097656 2.546875 4.484375 C 2.558594 4.867188 2.574219 5.226562 2.582031 5.285156 C 2.589844 5.339844 2.605469 5.519531 2.613281 5.683594 C 2.660156 6.441406 2.839844 7.941406 2.949219 8.5 C 3.019531 8.867188 3.03125 8.925781 3.082031 9.199219 C 3.160156 9.628906 3.265625 10.046875 3.46875 10.765625 C 3.699219 11.574219 3.785156 11.839844 3.902344 12.117188 C 3.933594 12.191406 3.96875 12.289062 3.984375 12.332031 C 4.019531 12.464844 4.4375 13.441406 4.488281 13.519531 C 4.511719 13.558594 4.523438 13.597656 4.511719 13.609375 C 4.5 13.625 4.503906 13.632812 4.523438 13.632812 C 4.539062 13.632812 4.589844 13.710938 4.636719 13.808594 C 4.816406 14.199219 5.296875 14.988281 5.679688 15.515625 C 6.15625 16.179688 7.078125 17.152344 7.550781 17.488281 C 8.316406 18.039062 8.988281 18.421875 9.53125 18.617188 C 9.824219 18.722656 9.902344 18.714844 10.292969 18.550781 C 11.855469 17.890625 13.203125 16.710938 14.292969 15.050781 C 14.425781 14.847656 14.550781 14.664062 14.566406 14.644531 C 14.585938 14.621094 14.601562 14.59375 14.601562 14.582031 C 14.601562 14.570312 14.652344 14.472656 14.71875 14.367188 C 14.875 14.109375 15.261719 13.328125 15.433594 12.917969 C 16.023438 11.527344 16.378906 10.265625 16.730469 8.316406 C 16.800781 7.925781 16.882812 7.363281 16.875 7.332031 C 16.871094 7.320312 16.886719 7.207031 16.902344 7.082031 C 16.941406 6.820312 16.953125 6.6875 16.980469 6.351562 C 16.992188 6.222656 17.007812 6.058594 17.015625 5.984375 C 17.03125 5.835938 17.066406 5.390625 17.082031 5.101562 C 17.085938 5 17.105469 4.585938 17.117188 4.179688 L 17.144531 3.445312 L 16.828125 3.265625 C 16.414062 3.023438 15.148438 2.398438 15.070312 2.398438 C 15.054688 2.398438 14.996094 2.375 14.933594 2.347656 C 14.75 2.253906 13.585938 1.875 13.121094 1.753906 C 12.460938 1.582031 11.734375 1.441406 11.148438 1.367188 C 11.003906 1.351562 10.824219 1.328125 10.75 1.316406 C 10.5 1.285156 9.417969 1.273438 9.132812 1.300781 M 8.734375 7.484375 L 8.734375 8.734375 L 7.484375 8.742188 L 6.238281 8.75 L 8.097656 11.230469 C 9.125 12.597656 9.976562 13.71875 9.996094 13.726562 C 10.011719 13.730469 10.871094 12.613281 11.898438 11.242188 L 13.769531 8.75 L 12.519531 8.742188 L 11.265625 8.734375 L 11.265625 6.234375 L 8.734375 6.234375 L 8.734375 7.484375 "/>
</g>
</svg>
