<?xml version="1.0" encoding="UTF-8"?>
<svg xmlns="http://www.w3.org/2000/svg" xmlns:xlink="http://www.w3.org/1999/xlink" width="20px" height="20px" viewBox="0 0 20 20" version="1.1">
<g id="surface1">
<path style=" stroke:none;fill-rule:evenodd;fill:rgb(95.686275%,54.901961%,26.666667%);fill-opacity:1;" d="M 9.117188 0.0195312 C 7.910156 0.144531 7.328125 0.242188 6.476562 0.449219 C 5.808594 0.613281 4.996094 0.875 4.382812 1.117188 C 3.398438 1.503906 1.65625 2.445312 1.414062 2.71875 C 1.226562 2.925781 1.214844 3.023438 1.261719 4.199219 C 1.335938 6.207031 1.503906 7.753906 1.820312 9.332031 C 2.714844 13.8125 4.640625 17.117188 7.445312 18.96875 C 8.207031 19.476562 9.410156 20 9.816406 20 C 10.015625 20 10.421875 19.878906 10.894531 19.679688 C 12.671875 18.925781 14.339844 17.410156 15.542969 15.464844 C 17.058594 13.007812 17.980469 9.816406 18.296875 5.933594 C 18.359375 5.167969 18.398438 4.324219 18.402344 3.65625 C 18.410156 2.714844 18.433594 2.753906 17.367188 2.136719 C 15.121094 0.832031 12.402344 0.0507812 10 0.015625 C 9.585938 0.0117188 9.191406 0.0117188 9.117188 0.0195312 M 9.332031 1.289062 C 7.386719 1.464844 5.824219 1.855469 4.199219 2.574219 C 3.734375 2.777344 3.015625 3.144531 2.699219 3.339844 L 2.515625 3.449219 L 2.539062 4.199219 C 2.707031 9.902344 4.203125 14.304688 6.84375 16.855469 C 7.675781 17.660156 8.710938 18.335938 9.542969 18.617188 L 9.832031 18.714844 L 10.074219 18.632812 C 10.953125 18.335938 12.078125 17.589844 12.917969 16.75 C 15.507812 14.164062 16.925781 9.894531 17.121094 4.113281 L 17.144531 3.445312 L 16.878906 3.292969 C 14.820312 2.105469 12.191406 1.339844 10 1.285156 C 9.714844 1.277344 9.414062 1.28125 9.332031 1.289062 M 8.109375 7.5 L 6.234375 10 L 8.734375 10 L 8.734375 12.5 L 11.265625 12.5 L 11.265625 10 L 13.765625 10 L 11.898438 7.507812 C 10.871094 6.136719 10.019531 5.011719 10.007812 5.007812 C 9.992188 5.003906 9.140625 6.125 8.109375 7.5 "/>
</g>
</svg>
