<?xml version="1.0" encoding="UTF-8"?>
<svg xmlns="http://www.w3.org/2000/svg" xmlns:xlink="http://www.w3.org/1999/xlink" width="25px" height="25px" viewBox="0 0 25 25" version="1.1">
<g id="surface1">
<path style=" stroke:none;fill-rule:evenodd;fill:rgb(58.039216%,14.117647%,23.529412%);fill-opacity:1;" d="M 11.394531 0.0273438 C 9.890625 0.183594 9.164062 0.300781 8.097656 0.5625 C 7.261719 0.769531 6.246094 1.09375 5.480469 1.394531 C 4.246094 1.882812 2.070312 3.054688 1.765625 3.398438 C 1.53125 3.660156 1.519531 3.777344 1.578125 5.246094 C 1.671875 7.757812 1.882812 9.695312 2.277344 11.667969 C 3.394531 17.269531 5.804688 21.394531 9.304688 23.710938 C 10.261719 24.34375 11.765625 24.996094 12.269531 25 C 12.519531 25 13.027344 24.847656 13.617188 24.597656 C 15.839844 23.65625 17.921875 21.765625 19.425781 19.332031 C 21.324219 16.261719 22.476562 12.269531 22.871094 7.417969 C 22.949219 6.460938 23 5.402344 23.003906 4.570312 C 23.011719 3.394531 23.042969 3.441406 21.707031 2.667969 C 18.898438 1.042969 15.5 0.0625 12.5 0.0234375 C 11.984375 0.015625 11.488281 0.015625 11.394531 0.0273438 M 11.667969 1.609375 C 9.234375 1.832031 7.28125 2.320312 5.25 3.214844 C 4.667969 3.472656 3.765625 3.933594 3.371094 4.171875 L 3.144531 4.3125 L 3.171875 5.25 C 3.382812 12.378906 5.253906 17.878906 8.550781 21.066406 C 9.59375 22.074219 10.886719 22.917969 11.929688 23.269531 L 12.289062 23.394531 L 12.59375 23.292969 C 13.691406 22.917969 15.097656 21.988281 16.148438 20.941406 C 19.382812 17.707031 21.160156 12.367188 21.402344 5.140625 L 21.429688 4.304688 L 21.101562 4.117188 C 18.523438 2.632812 15.242188 1.675781 12.5 1.609375 C 12.144531 1.597656 11.769531 1.597656 11.667969 1.609375 M 10.132812 7.824219 L 7.796875 10.9375 L 9.355469 10.949219 L 10.917969 10.960938 L 10.917969 15.625 L 14.082031 15.625 L 14.082031 10.960938 L 15.648438 10.949219 L 17.210938 10.9375 L 14.878906 7.824219 C 13.59375 6.109375 12.523438 4.707031 12.503906 4.707031 C 12.484375 4.707031 11.417969 6.109375 10.132812 7.824219 M 10.917969 17.957031 L 10.917969 18.75 L 14.082031 18.75 L 14.082031 17.167969 L 10.917969 17.167969 L 10.917969 17.957031 "/>
</g>
</svg>
