<?xml version="1.0" encoding="UTF-8"?>
<svg xmlns="http://www.w3.org/2000/svg" xmlns:xlink="http://www.w3.org/1999/xlink" width="20px" height="20px" viewBox="0 0 20 20" version="1.1">
<g id="surface1">
<path style=" stroke:none;fill-rule:evenodd;fill:rgb(86.27451%,29.803922%,32.941176%);fill-opacity:1;" d="M 9.261719 0.015625 C 9.25 0.0273438 9.03125 0.0507812 8.617188 0.0820312 C 8.542969 0.0859375 8.421875 0.101562 8.351562 0.113281 C 8.277344 0.125 8.164062 0.140625 8.101562 0.144531 C 7.777344 0.179688 7.578125 0.210938 7.546875 0.238281 C 7.527344 0.253906 7.503906 0.257812 7.496094 0.25 C 7.480469 0.238281 7.195312 0.289062 6.917969 0.355469 C 6.878906 0.363281 6.804688 0.378906 6.75 0.386719 C 6.667969 0.402344 6.511719 0.441406 6.351562 0.488281 C 6.332031 0.492188 6.265625 0.507812 6.199219 0.519531 C 6.136719 0.53125 6.078125 0.554688 6.070312 0.570312 C 6.066406 0.585938 6.050781 0.59375 6.035156 0.585938 C 6.007812 0.566406 5.800781 0.617188 5.648438 0.679688 C 5.59375 0.703125 5.414062 0.765625 5.25 0.8125 C 5.085938 0.863281 4.90625 0.925781 4.851562 0.949219 C 4.796875 0.972656 4.613281 1.042969 4.449219 1.101562 C 4.285156 1.160156 4.121094 1.230469 4.082031 1.253906 C 4.046875 1.277344 4.007812 1.292969 3.996094 1.289062 C 3.988281 1.285156 3.925781 1.308594 3.863281 1.339844 C 3.800781 1.371094 3.613281 1.457031 3.449219 1.535156 C 3.285156 1.613281 3.140625 1.691406 3.128906 1.707031 C 3.117188 1.726562 3.097656 1.738281 3.078125 1.738281 C 3.023438 1.730469 2.933594 1.773438 2.933594 1.800781 C 2.933594 1.820312 2.921875 1.828125 2.90625 1.824219 C 2.871094 1.8125 2.433594 2.042969 2.433594 2.074219 C 2.433594 2.089844 2.40625 2.101562 2.375 2.101562 C 2.34375 2.101562 2.273438 2.136719 2.226562 2.183594 C 2.175781 2.230469 2.132812 2.261719 2.132812 2.253906 C 2.132812 2.242188 2.089844 2.261719 2.035156 2.292969 C 1.984375 2.324219 1.859375 2.398438 1.761719 2.457031 C 1.300781 2.726562 1.230469 2.898438 1.25 3.667969 C 1.277344 4.628906 1.324219 5.574219 1.351562 5.851562 C 1.367188 5.960938 1.378906 6.09375 1.382812 6.148438 C 1.410156 6.492188 1.441406 6.820312 1.46875 7.066406 C 1.488281 7.222656 1.511719 7.417969 1.519531 7.5 C 1.527344 7.582031 1.566406 7.835938 1.601562 8.066406 C 1.640625 8.296875 1.679688 8.550781 1.6875 8.632812 C 1.699219 8.714844 1.722656 8.800781 1.738281 8.824219 C 1.757812 8.84375 1.765625 8.878906 1.753906 8.894531 C 1.742188 8.910156 1.75 8.976562 1.769531 9.035156 C 1.789062 9.097656 1.8125 9.203125 1.816406 9.265625 C 1.832031 9.382812 1.855469 9.515625 1.867188 9.515625 C 1.871094 9.515625 1.875 9.546875 1.882812 9.582031 C 1.894531 9.671875 1.921875 9.789062 1.964844 9.964844 C 1.988281 10.050781 2.019531 10.191406 2.035156 10.28125 C 2.082031 10.539062 2.4375 11.796875 2.550781 12.101562 C 2.574219 12.164062 2.664062 12.410156 2.75 12.648438 C 2.835938 12.886719 2.925781 13.121094 2.953125 13.167969 C 2.976562 13.210938 3.050781 13.386719 3.121094 13.550781 C 3.238281 13.835938 3.597656 14.5625 3.796875 14.917969 C 4.054688 15.375 4.089844 15.433594 4.113281 15.410156 C 4.128906 15.394531 4.132812 15.402344 4.128906 15.421875 C 4.113281 15.46875 4.269531 15.734375 4.308594 15.734375 C 4.324219 15.734375 4.359375 15.792969 4.386719 15.863281 C 4.414062 15.9375 4.460938 16.003906 4.488281 16.015625 C 4.515625 16.023438 4.527344 16.046875 4.519531 16.0625 C 4.507812 16.082031 4.519531 16.109375 4.542969 16.121094 C 4.566406 16.136719 4.621094 16.207031 4.664062 16.273438 C 4.703125 16.34375 4.753906 16.398438 4.769531 16.398438 C 4.785156 16.398438 4.800781 16.421875 4.800781 16.445312 C 4.800781 16.46875 4.851562 16.542969 4.917969 16.605469 C 4.980469 16.664062 5.03125 16.730469 5.03125 16.75 C 5.035156 16.769531 5.074219 16.828125 5.125 16.882812 C 5.175781 16.941406 5.28125 17.054688 5.355469 17.140625 C 5.433594 17.222656 5.503906 17.285156 5.515625 17.273438 C 5.523438 17.265625 5.535156 17.277344 5.535156 17.300781 C 5.535156 17.363281 6.390625 18.199219 6.453125 18.199219 C 6.480469 18.199219 6.496094 18.214844 6.484375 18.234375 C 6.472656 18.25 6.476562 18.265625 6.492188 18.265625 C 6.511719 18.265625 6.5625 18.300781 6.605469 18.339844 C 6.78125 18.5 6.867188 18.566406 6.898438 18.566406 C 6.914062 18.566406 6.933594 18.589844 6.945312 18.617188 C 6.957031 18.648438 6.980469 18.664062 6.996094 18.652344 C 7.011719 18.644531 7.066406 18.679688 7.121094 18.734375 C 7.171875 18.789062 7.230469 18.832031 7.25 18.832031 C 7.269531 18.832031 7.359375 18.890625 7.449219 18.960938 C 7.660156 19.117188 7.832031 19.21875 8.285156 19.445312 C 8.753906 19.679688 8.953125 19.765625 9.007812 19.765625 C 9.03125 19.765625 9.070312 19.785156 9.09375 19.808594 C 9.117188 19.828125 9.132812 19.835938 9.132812 19.820312 C 9.132812 19.804688 9.15625 19.808594 9.183594 19.832031 C 9.210938 19.855469 9.234375 19.863281 9.234375 19.851562 C 9.234375 19.839844 9.28125 19.855469 9.335938 19.886719 C 9.394531 19.914062 9.449219 19.929688 9.457031 19.921875 C 9.46875 19.910156 9.515625 19.921875 9.5625 19.945312 C 9.710938 20.023438 9.976562 20.007812 10.265625 19.90625 C 10.332031 19.882812 10.332031 19.882812 10.457031 19.855469 C 10.519531 19.839844 10.566406 19.816406 10.566406 19.804688 C 10.566406 19.792969 10.59375 19.777344 10.625 19.777344 C 10.660156 19.773438 10.789062 19.726562 10.910156 19.667969 C 11.03125 19.613281 11.136719 19.570312 11.140625 19.574219 C 11.148438 19.582031 11.316406 19.488281 11.632812 19.304688 C 11.699219 19.269531 11.808594 19.207031 11.882812 19.164062 C 11.957031 19.125 12.097656 19.039062 12.195312 18.972656 C 12.292969 18.90625 12.402344 18.832031 12.4375 18.8125 C 12.476562 18.792969 12.542969 18.738281 12.59375 18.695312 C 12.644531 18.652344 12.695312 18.621094 12.710938 18.625 C 12.722656 18.628906 12.742188 18.609375 12.753906 18.582031 C 12.765625 18.554688 12.792969 18.535156 12.820312 18.535156 C 12.84375 18.535156 12.875 18.515625 12.890625 18.492188 C 12.90625 18.46875 12.984375 18.398438 13.066406 18.335938 C 13.265625 18.179688 13.40625 18.054688 13.832031 17.632812 C 14.160156 17.308594 14.273438 17.183594 14.609375 16.769531 C 14.675781 16.6875 14.765625 16.578125 14.804688 16.535156 C 14.84375 16.488281 14.929688 16.371094 14.996094 16.269531 C 15.0625 16.171875 15.152344 16.042969 15.191406 15.988281 C 15.324219 15.808594 15.417969 15.652344 15.410156 15.625 C 15.402344 15.609375 15.414062 15.601562 15.433594 15.601562 C 15.46875 15.601562 15.585938 15.398438 15.574219 15.359375 C 15.570312 15.34375 15.582031 15.332031 15.601562 15.332031 C 15.617188 15.332031 15.632812 15.3125 15.632812 15.289062 C 15.632812 15.265625 15.664062 15.214844 15.699219 15.183594 C 15.738281 15.148438 15.765625 15.109375 15.765625 15.089844 C 15.765625 15.074219 15.796875 15.015625 15.835938 14.964844 C 15.875 14.910156 15.894531 14.867188 15.878906 14.867188 C 15.867188 14.867188 15.878906 14.839844 15.90625 14.808594 C 15.992188 14.703125 16.132812 14.410156 16.109375 14.382812 C 16.09375 14.367188 16.097656 14.363281 16.117188 14.375 C 16.136719 14.386719 16.175781 14.34375 16.207031 14.28125 C 16.234375 14.214844 16.242188 14.175781 16.21875 14.191406 C 16.199219 14.203125 16.210938 14.183594 16.242188 14.144531 C 16.308594 14.066406 16.566406 13.527344 16.566406 13.460938 C 16.566406 13.433594 16.582031 13.398438 16.597656 13.382812 C 16.648438 13.328125 16.859375 12.773438 16.839844 12.75 C 16.828125 12.738281 16.832031 12.71875 16.851562 12.707031 C 16.929688 12.652344 17.417969 11.191406 17.449219 10.933594 C 17.449219 10.90625 17.460938 10.867188 17.472656 10.847656 C 17.488281 10.820312 17.511719 10.742188 17.554688 10.558594 C 17.5625 10.527344 17.574219 10.472656 17.582031 10.441406 C 17.660156 10.109375 17.734375 9.800781 17.746094 9.726562 C 17.753906 9.675781 17.769531 9.621094 17.777344 9.609375 C 17.789062 9.59375 17.804688 9.519531 17.8125 9.449219 C 17.824219 9.375 17.839844 9.277344 17.847656 9.230469 C 17.859375 9.183594 17.871094 9.101562 17.878906 9.046875 C 17.886719 8.992188 17.902344 8.921875 17.914062 8.890625 C 17.929688 8.859375 17.933594 8.8125 17.921875 8.785156 C 17.910156 8.757812 17.917969 8.726562 17.933594 8.71875 C 17.949219 8.707031 17.960938 8.671875 17.960938 8.640625 C 17.960938 8.609375 17.96875 8.546875 17.980469 8.5 C 17.992188 8.453125 18.007812 8.355469 18.015625 8.28125 C 18.023438 8.210938 18.046875 8.066406 18.0625 7.964844 C 18.082031 7.867188 18.101562 7.699219 18.113281 7.601562 C 18.121094 7.5 18.136719 7.386719 18.144531 7.351562 C 18.152344 7.3125 18.167969 7.191406 18.179688 7.082031 C 18.191406 6.972656 18.210938 6.832031 18.21875 6.765625 C 18.234375 6.648438 18.257812 6.359375 18.285156 5.984375 C 18.292969 5.875 18.308594 5.722656 18.316406 5.648438 C 18.347656 5.378906 18.375 4.5625 18.378906 3.75 L 18.382812 2.917969 L 18.289062 2.78125 C 18.238281 2.703125 18.15625 2.621094 18.105469 2.597656 C 18.058594 2.570312 17.996094 2.53125 17.972656 2.507812 C 17.949219 2.484375 17.910156 2.476562 17.890625 2.488281 C 17.867188 2.5 17.859375 2.5 17.875 2.484375 C 17.886719 2.46875 17.8125 2.40625 17.707031 2.34375 C 17.601562 2.285156 17.496094 2.21875 17.464844 2.199219 C 17.4375 2.179688 17.378906 2.148438 17.332031 2.125 C 17.289062 2.105469 17.207031 2.058594 17.160156 2.023438 C 17.109375 1.988281 17.066406 1.972656 17.066406 1.988281 C 17.066406 2.003906 17.054688 2 17.042969 1.980469 C 17.007812 1.929688 16.644531 1.734375 16.582031 1.734375 C 16.554688 1.734375 16.535156 1.71875 16.535156 1.699219 C 16.535156 1.679688 16.519531 1.671875 16.503906 1.679688 C 16.488281 1.691406 16.457031 1.675781 16.433594 1.648438 C 16.410156 1.621094 16.378906 1.609375 16.363281 1.617188 C 16.347656 1.628906 16.332031 1.621094 16.332031 1.601562 C 16.332031 1.578125 16.320312 1.570312 16.300781 1.582031 C 16.285156 1.59375 16.25 1.578125 16.21875 1.546875 C 16.191406 1.519531 16.136719 1.492188 16.097656 1.484375 C 16.058594 1.476562 15.957031 1.429688 15.871094 1.378906 C 15.785156 1.328125 15.710938 1.289062 15.699219 1.289062 C 15.691406 1.289062 15.652344 1.28125 15.617188 1.265625 C 15.375 1.171875 15.3125 1.152344 15.292969 1.160156 C 15.277344 1.164062 15.265625 1.152344 15.265625 1.132812 C 15.265625 1.105469 15.011719 1.015625 14.957031 1.027344 C 14.945312 1.03125 14.933594 1.019531 14.933594 1.003906 C 14.933594 0.988281 14.882812 0.964844 14.824219 0.949219 C 14.707031 0.921875 14.675781 0.914062 14.648438 0.898438 C 14.640625 0.894531 14.617188 0.886719 14.601562 0.882812 C 14.582031 0.878906 14.558594 0.871094 14.550781 0.867188 C 14.539062 0.863281 14.519531 0.855469 14.5 0.851562 C 14.480469 0.84375 14.457031 0.839844 14.441406 0.832031 C 14.429688 0.828125 14.40625 0.828125 14.390625 0.828125 C 14.378906 0.832031 14.367188 0.816406 14.367188 0.796875 C 14.367188 0.777344 14.34375 0.769531 14.316406 0.777344 C 14.289062 0.789062 14.261719 0.785156 14.25 0.765625 C 14.242188 0.75 14.144531 0.71875 14.042969 0.695312 C 13.9375 0.675781 13.824219 0.640625 13.789062 0.625 C 13.757812 0.609375 13.703125 0.589844 13.671875 0.582031 C 13.640625 0.574219 13.476562 0.53125 13.300781 0.484375 C 13.128906 0.441406 12.949219 0.398438 12.902344 0.390625 C 12.855469 0.382812 12.792969 0.367188 12.765625 0.355469 C 12.714844 0.335938 12.355469 0.269531 12.199219 0.25 C 12.152344 0.246094 12.117188 0.238281 12.117188 0.234375 C 12.117188 0.230469 12.085938 0.222656 12.050781 0.214844 C 11.976562 0.207031 11.796875 0.175781 11.667969 0.148438 C 11.621094 0.140625 11.492188 0.125 11.382812 0.113281 C 11.273438 0.101562 11.136719 0.0898438 11.082031 0.0820312 C 11.027344 0.0742188 10.871094 0.0625 10.730469 0.0546875 C 10.589844 0.046875 10.460938 0.0351562 10.445312 0.0273438 C 10.414062 0.0078125 9.277344 0 9.261719 0.015625 M 9.160156 1.285156 C 9.152344 1.289062 9.058594 1.304688 8.949219 1.316406 C 8.839844 1.328125 8.683594 1.34375 8.601562 1.355469 C 8.515625 1.363281 8.398438 1.375 8.332031 1.382812 C 8.269531 1.386719 8.214844 1.394531 8.214844 1.398438 C 8.214844 1.410156 8.191406 1.414062 7.933594 1.445312 C 7.722656 1.476562 7.308594 1.554688 7.148438 1.597656 C 7.078125 1.617188 6.964844 1.640625 6.90625 1.652344 C 6.84375 1.660156 6.777344 1.675781 6.761719 1.6875 C 6.746094 1.695312 6.699219 1.710938 6.65625 1.71875 C 6.617188 1.726562 6.546875 1.742188 6.5 1.75 C 6.453125 1.761719 6.402344 1.773438 6.382812 1.777344 C 6.363281 1.78125 6.304688 1.800781 6.25 1.820312 C 6.039062 1.898438 5.910156 1.933594 5.839844 1.933594 C 5.800781 1.933594 5.761719 1.949219 5.75 1.96875 C 5.738281 1.988281 5.710938 2 5.6875 1.992188 C 5.667969 1.988281 5.617188 2.003906 5.578125 2.027344 C 5.539062 2.046875 5.476562 2.070312 5.445312 2.078125 C 5.410156 2.082031 5.324219 2.113281 5.25 2.144531 C 5.175781 2.179688 5.070312 2.214844 5.015625 2.222656 C 4.960938 2.234375 4.886719 2.261719 4.851562 2.285156 C 4.796875 2.320312 4.445312 2.464844 4.367188 2.484375 C 4.359375 2.488281 4.292969 2.515625 4.226562 2.542969 C 4.15625 2.574219 4.085938 2.601562 4.066406 2.601562 C 4.046875 2.601562 4.035156 2.613281 4.035156 2.632812 C 4.035156 2.648438 4 2.671875 3.957031 2.683594 C 3.859375 2.714844 3.1875 3.039062 3.167969 3.066406 C 3.15625 3.078125 3.039062 3.148438 2.898438 3.21875 C 2.761719 3.292969 2.628906 3.367188 2.605469 3.390625 C 2.582031 3.414062 2.550781 3.425781 2.539062 3.417969 C 2.511719 3.402344 2.519531 4.203125 2.546875 4.699219 C 2.558594 4.875 2.574219 5.160156 2.585938 5.332031 C 2.59375 5.507812 2.609375 5.710938 2.617188 5.785156 C 2.632812 5.941406 2.660156 6.265625 2.683594 6.550781 C 2.710938 6.84375 2.722656 6.964844 2.761719 7.238281 C 2.78125 7.371094 2.808594 7.550781 2.816406 7.632812 C 2.84375 7.824219 2.847656 7.859375 2.933594 8.382812 C 3.003906 8.800781 3.03125 8.945312 3.097656 9.265625 C 3.113281 9.347656 3.121094 9.429688 3.109375 9.441406 C 3.101562 9.457031 3.109375 9.488281 3.128906 9.511719 C 3.144531 9.53125 3.167969 9.59375 3.179688 9.648438 C 3.199219 9.753906 3.265625 10.046875 3.332031 10.300781 C 3.355469 10.382812 3.378906 10.472656 3.386719 10.5 C 3.390625 10.527344 3.414062 10.609375 3.433594 10.683594 C 3.453125 10.757812 3.476562 10.84375 3.484375 10.875 C 3.496094 10.929688 3.550781 11.105469 3.59375 11.234375 C 3.601562 11.261719 3.617188 11.320312 3.625 11.367188 C 3.632812 11.410156 3.648438 11.464844 3.664062 11.484375 C 3.679688 11.5 3.742188 11.667969 3.800781 11.851562 C 3.859375 12.035156 3.941406 12.257812 3.984375 12.351562 C 4.046875 12.488281 4.097656 12.617188 4.117188 12.699219 C 4.121094 12.710938 4.15625 12.785156 4.195312 12.867188 C 4.234375 12.949219 4.265625 13.042969 4.265625 13.074219 C 4.265625 13.105469 4.28125 13.132812 4.300781 13.132812 C 4.316406 13.132812 4.332031 13.148438 4.332031 13.167969 C 4.332031 13.222656 4.800781 14.144531 4.957031 14.398438 C 5.027344 14.519531 5.097656 14.640625 5.109375 14.667969 C 5.144531 14.742188 5.265625 14.9375 5.441406 15.191406 C 5.527344 15.316406 5.601562 15.429688 5.601562 15.441406 C 5.601562 15.453125 5.632812 15.5 5.675781 15.546875 C 5.796875 15.675781 5.980469 15.90625 6 15.945312 C 6.046875 16.050781 7.070312 17.132812 7.125 17.132812 C 7.132812 17.132812 7.191406 17.183594 7.253906 17.242188 C 7.414062 17.398438 7.519531 17.480469 7.765625 17.652344 C 8.421875 18.105469 8.753906 18.300781 9.183594 18.484375 C 9.417969 18.582031 9.445312 18.59375 9.632812 18.65625 C 9.839844 18.722656 9.902344 18.730469 9.949219 18.695312 C 9.988281 18.667969 10.347656 18.53125 10.390625 18.527344 C 10.40625 18.527344 10.542969 18.460938 10.691406 18.378906 C 10.84375 18.300781 10.992188 18.234375 11.019531 18.234375 C 11.042969 18.234375 11.066406 18.214844 11.066406 18.195312 C 11.066406 18.171875 11.078125 18.164062 11.089844 18.175781 C 11.101562 18.1875 11.125 18.179688 11.148438 18.152344 C 11.167969 18.125 11.257812 18.0625 11.351562 18.015625 C 11.441406 17.964844 11.523438 17.914062 11.535156 17.902344 C 11.574219 17.855469 11.824219 17.699219 11.863281 17.699219 C 11.886719 17.699219 11.894531 17.683594 11.882812 17.667969 C 11.871094 17.648438 11.875 17.632812 11.894531 17.632812 C 11.910156 17.632812 11.953125 17.605469 11.992188 17.574219 C 12.074219 17.503906 12.128906 17.460938 12.347656 17.285156 C 12.535156 17.132812 12.550781 17.117188 12.941406 16.742188 C 13.097656 16.589844 13.21875 16.464844 13.210938 16.464844 C 13.203125 16.464844 13.246094 16.417969 13.308594 16.355469 C 13.367188 16.296875 13.449219 16.199219 13.492188 16.144531 C 13.617188 15.980469 13.746094 15.824219 13.820312 15.746094 C 13.859375 15.703125 13.886719 15.664062 13.878906 15.65625 C 13.871094 15.648438 13.917969 15.585938 13.980469 15.515625 C 14.046875 15.445312 14.101562 15.378906 14.101562 15.367188 C 14.101562 15.355469 14.125 15.3125 14.160156 15.273438 C 14.191406 15.234375 14.261719 15.128906 14.316406 15.035156 C 14.371094 14.945312 14.425781 14.867188 14.433594 14.867188 C 14.445312 14.867188 14.496094 14.777344 14.550781 14.667969 C 14.605469 14.550781 14.660156 14.476562 14.679688 14.488281 C 14.699219 14.5 14.707031 14.5 14.691406 14.484375 C 14.671875 14.460938 14.75 14.269531 14.800781 14.234375 C 14.8125 14.222656 14.863281 14.132812 14.910156 14.035156 C 14.960938 13.933594 15.019531 13.8125 15.046875 13.765625 C 15.074219 13.722656 15.140625 13.582031 15.195312 13.460938 C 15.25 13.339844 15.3125 13.230469 15.332031 13.21875 C 15.347656 13.207031 15.355469 13.179688 15.347656 13.152344 C 15.335938 13.128906 15.355469 13.085938 15.382812 13.054688 C 15.414062 13.023438 15.425781 13 15.414062 13 C 15.398438 13 15.40625 12.980469 15.425781 12.960938 C 15.449219 12.9375 15.464844 12.894531 15.464844 12.859375 C 15.464844 12.828125 15.476562 12.800781 15.492188 12.800781 C 15.507812 12.800781 15.519531 12.773438 15.523438 12.742188 C 15.527344 12.710938 15.5625 12.609375 15.601562 12.515625 C 15.644531 12.425781 15.679688 12.34375 15.679688 12.332031 C 15.683594 12.324219 15.695312 12.296875 15.710938 12.273438 C 15.726562 12.253906 15.726562 12.234375 15.710938 12.234375 C 15.695312 12.234375 15.699219 12.222656 15.722656 12.207031 C 15.746094 12.191406 15.769531 12.144531 15.777344 12.097656 C 15.785156 12.054688 15.824219 11.925781 15.863281 11.816406 C 15.902344 11.707031 15.941406 11.59375 15.949219 11.566406 C 15.996094 11.394531 16.132812 10.960938 16.148438 10.9375 C 16.15625 10.925781 16.171875 10.875 16.179688 10.832031 C 16.1875 10.785156 16.230469 10.613281 16.277344 10.449219 C 16.371094 10.105469 16.53125 9.457031 16.550781 9.332031 C 16.554688 9.289062 16.570312 9.183594 16.582031 9.101562 C 16.59375 9.019531 16.617188 8.933594 16.636719 8.914062 C 16.652344 8.894531 16.660156 8.871094 16.648438 8.859375 C 16.640625 8.851562 16.660156 8.703125 16.695312 8.53125 C 16.765625 8.199219 16.796875 8.019531 16.816406 7.832031 C 16.84375 7.539062 16.871094 7.308594 16.886719 7.234375 C 16.933594 6.984375 16.984375 6.488281 17.015625 6.015625 C 17.023438 5.851562 17.039062 5.65625 17.046875 5.582031 C 17.101562 5.136719 17.167969 3.484375 17.132812 3.433594 C 17.125 3.421875 17.035156 3.367188 16.933594 3.3125 C 16.832031 3.261719 16.742188 3.207031 16.734375 3.195312 C 16.722656 3.183594 16.609375 3.125 16.476562 3.058594 C 16.34375 2.996094 16.242188 2.933594 16.253906 2.921875 C 16.273438 2.902344 16.191406 2.886719 16.125 2.894531 C 16.109375 2.898438 16.101562 2.882812 16.101562 2.859375 C 16.101562 2.839844 16.089844 2.832031 16.078125 2.84375 C 16.066406 2.855469 16.03125 2.84375 16.003906 2.820312 C 15.972656 2.792969 15.933594 2.769531 15.917969 2.765625 C 15.847656 2.75 15.78125 2.71875 15.765625 2.691406 C 15.753906 2.679688 15.714844 2.660156 15.679688 2.652344 C 15.585938 2.632812 15.304688 2.503906 15.285156 2.46875 C 15.273438 2.449219 15.242188 2.445312 15.214844 2.453125 C 15.1875 2.464844 15.167969 2.453125 15.167969 2.429688 C 15.167969 2.40625 15.15625 2.398438 15.144531 2.410156 C 15.132812 2.421875 15.09375 2.414062 15.054688 2.390625 C 15.015625 2.371094 14.976562 2.351562 14.964844 2.351562 C 14.925781 2.34375 14.675781 2.253906 14.566406 2.207031 C 14.503906 2.175781 14.4375 2.15625 14.425781 2.160156 C 14.410156 2.164062 14.398438 2.152344 14.398438 2.140625 C 14.398438 2.125 14.378906 2.109375 14.355469 2.109375 C 14.285156 2.109375 13.816406 1.953125 13.804688 1.925781 C 13.800781 1.910156 13.75 1.898438 13.699219 1.898438 C 13.648438 1.898438 13.59375 1.886719 13.585938 1.867188 C 13.574219 1.851562 13.539062 1.839844 13.507812 1.839844 C 13.476562 1.839844 13.300781 1.800781 13.117188 1.75 C 12.933594 1.699219 12.753906 1.65625 12.714844 1.648438 C 12.679688 1.640625 12.550781 1.609375 12.433594 1.582031 C 12.3125 1.554688 12.175781 1.523438 12.128906 1.519531 C 12.082031 1.511719 12.011719 1.496094 11.976562 1.484375 C 11.9375 1.472656 11.851562 1.457031 11.777344 1.449219 C 11.707031 1.445312 11.601562 1.429688 11.542969 1.417969 C 11.484375 1.40625 11.363281 1.390625 11.277344 1.382812 C 11.058594 1.363281 10.804688 1.332031 10.683594 1.3125 C 10.570312 1.292969 9.175781 1.269531 9.160156 1.285156 M 8.9375 5.148438 C 8.367188 5.910156 7.910156 6.535156 7.921875 6.535156 C 7.929688 6.535156 7.910156 6.558594 7.875 6.589844 C 7.789062 6.664062 6.492188 8.398438 6.519531 8.398438 C 6.53125 8.398438 6.511719 8.425781 6.476562 8.457031 C 6.4375 8.492188 6.367188 8.574219 6.316406 8.640625 L 6.222656 8.769531 L 7.488281 8.757812 L 8.75 8.75 L 8.75 13.75 L 11.25 13.75 L 11.25 8.75 L 12.511719 8.757812 L 13.777344 8.769531 L 13.683594 8.640625 C 13.632812 8.574219 13.5625 8.492188 13.523438 8.457031 C 13.488281 8.425781 13.46875 8.398438 13.480469 8.398438 C 13.507812 8.398438 12.210938 6.664062 12.125 6.589844 C 12.089844 6.558594 12.070312 6.535156 12.078125 6.535156 C 12.089844 6.535156 11.632812 5.910156 11.0625 5.148438 C 10.492188 4.390625 10.015625 3.765625 10 3.765625 C 9.984375 3.765625 9.507812 4.390625 8.9375 5.148438 "/>
</g>
</svg>
