<?xml version="1.0" encoding="UTF-8"?>
<svg xmlns="http://www.w3.org/2000/svg" xmlns:xlink="http://www.w3.org/1999/xlink" width="55px" height="55px" viewBox="0 0 55 55" version="1.1">
<g id="surface1">
<path style=" stroke:none;fill-rule:nonzero;fill:rgb(26.666667%,32.941176%,39.215686%);fill-opacity:1;" d="M 15.109375 29.246094 L 15.109375 26.175781 L 14.121094 26.175781 L 14.121094 24.816406 L 15.101562 24.816406 L 15.101562 23.199219 L 16.652344 23.199219 L 16.652344 24.816406 L 17.851562 24.816406 L 17.851562 26.175781 L 16.660156 26.175781 L 16.660156 28.832031 C 16.660156 29.210938 16.855469 29.492188 17.199219 29.492188 C 17.394531 29.5 17.589844 29.433594 17.738281 29.304688 L 18.070312 30.496094 C 17.832031 30.707031 17.417969 30.875 16.769531 30.875 C 15.683594 30.875 15.109375 30.308594 15.109375 29.246094 Z M 18.210938 27.761719 C 18.210938 26.050781 19.484375 24.65625 21.273438 24.65625 C 23.0625 24.65625 24.234375 25.980469 24.234375 27.90625 L 24.234375 28.277344 L 19.839844 28.277344 C 19.949219 29 20.539062 29.601562 21.554688 29.601562 C 22.050781 29.601562 22.742188 29.390625 23.121094 29.027344 L 23.820312 30.054688 C 23.230469 30.597656 22.304688 30.875 21.382812 30.875 C 19.578125 30.875 18.210938 29.660156 18.210938 27.761719 Z M 21.273438 25.9375 C 20.304688 25.9375 19.890625 26.613281 19.832031 27.203125 L 22.742188 27.203125 C 22.699219 26.640625 22.304688 25.9375 21.273438 25.9375 Z M 28.816406 30.722656 L 28.816406 27.152344 C 28.816406 26.335938 28.386719 26.050781 27.726562 26.050781 C 27.195312 26.058594 26.699219 26.3125 26.378906 26.730469 L 26.378906 30.722656 L 24.824219 30.722656 L 24.824219 24.808594 L 26.378906 24.808594 L 26.378906 25.566406 C 26.910156 24.984375 27.660156 24.65625 28.445312 24.65625 C 29.753906 24.65625 30.375 25.390625 30.375 26.546875 L 30.375 30.722656 Z M 34.8125 30.722656 L 34.8125 30.097656 C 34.410156 30.585938 33.707031 30.875 32.941406 30.875 C 31.996094 30.875 30.898438 30.242188 30.898438 28.917969 C 30.898438 27.515625 32.003906 27.011719 32.941406 27.011719 C 33.734375 27.011719 34.425781 27.273438 34.8125 27.734375 L 34.8125 26.984375 C 34.8125 26.386719 34.300781 26 33.515625 26 C 32.875 26.007812 32.265625 26.25 31.800781 26.699219 L 31.1875 25.609375 C 31.902344 24.996094 32.824219 24.65625 33.769531 24.683594 C 35.125 24.683594 36.367188 25.222656 36.367188 26.925781 L 36.367188 30.746094 L 34.8125 30.746094 Z M 34.8125 29.304688 L 34.8125 28.570312 C 34.5625 28.226562 34.070312 28.046875 33.574219 28.046875 C 32.957031 28.046875 32.460938 28.378906 32.460938 28.941406 C 32.460938 29.507812 32.957031 29.820312 33.574219 29.820312 C 34.0625 29.820312 34.550781 29.652344 34.8125 29.304688 Z M 37.039062 30.722656 L 37.039062 22.558594 L 38.59375 22.558594 L 38.59375 25.566406 C 39.023438 24.996094 39.699219 24.65625 40.414062 24.65625 C 41.925781 24.65625 43.039062 25.828125 43.039062 27.761719 C 43.039062 29.742188 41.917969 30.867188 40.414062 30.867188 C 39.699219 30.867188 39.023438 30.527344 38.59375 29.964844 L 38.59375 30.722656 Z M 39.949219 29.480469 C 40.84375 29.480469 41.445312 28.78125 41.445312 27.753906 C 41.445312 26.722656 40.84375 26.039062 39.949219 26.039062 C 39.417969 26.050781 38.921875 26.300781 38.601562 26.722656 L 38.601562 28.816406 C 38.929688 29.238281 39.417969 29.480469 39.949219 29.480469 Z M 43.570312 30.722656 L 43.570312 22.558594 L 45.121094 22.558594 L 45.121094 30.722656 Z M 45.710938 27.761719 C 45.710938 26.050781 46.984375 24.65625 48.773438 24.65625 C 50.5625 24.65625 51.734375 25.980469 51.734375 27.90625 L 51.734375 28.277344 L 47.339844 28.277344 C 47.449219 29 48.039062 29.601562 49.054688 29.601562 C 49.550781 29.601562 50.242188 29.390625 50.621094 29.027344 L 51.320312 30.054688 C 50.730469 30.597656 49.804688 30.875 48.882812 30.875 C 47.070312 30.875 45.710938 29.660156 45.710938 27.761719 Z M 48.765625 25.9375 C 47.796875 25.9375 47.382812 26.613281 47.324219 27.203125 L 50.234375 27.203125 C 50.191406 26.640625 49.796875 25.9375 48.765625 25.9375 Z M 52.207031 24.066406 C 52.285156 24.109375 52.351562 24.175781 52.394531 24.253906 C 52.4375 24.328125 52.460938 24.421875 52.460938 24.515625 C 52.460938 24.605469 52.4375 24.691406 52.394531 24.773438 C 52.351562 24.851562 52.285156 24.917969 52.207031 24.960938 C 52.132812 25.003906 52.039062 25.027344 51.945312 25.027344 C 51.761719 25.027344 51.59375 24.9375 51.507812 24.773438 C 51.464844 24.699219 51.441406 24.605469 51.441406 24.515625 C 51.441406 24.421875 51.464844 24.328125 51.507812 24.253906 C 51.550781 24.175781 51.617188 24.109375 51.691406 24.066406 C 51.769531 24.015625 51.863281 24 51.945312 24 C 52.039062 24 52.132812 24.023438 52.207031 24.066406 Z M 52.15625 24.875 C 52.214844 24.84375 52.265625 24.785156 52.300781 24.726562 C 52.367188 24.589844 52.367188 24.429688 52.300781 24.292969 C 52.265625 24.226562 52.214844 24.175781 52.15625 24.144531 C 52.097656 24.109375 52.023438 24.082031 51.945312 24.09375 C 51.871094 24.09375 51.804688 24.109375 51.742188 24.144531 C 51.683594 24.175781 51.632812 24.234375 51.601562 24.292969 C 51.53125 24.429688 51.53125 24.589844 51.601562 24.726562 C 51.632812 24.792969 51.683594 24.84375 51.742188 24.875 C 51.804688 24.910156 51.878906 24.9375 51.945312 24.925781 C 52.023438 24.9375 52.097656 24.910156 52.15625 24.875 Z M 52.132812 24.496094 C 52.105469 24.523438 52.074219 24.546875 52.039062 24.554688 L 52.191406 24.785156 L 52.054688 24.785156 L 51.929688 24.574219 L 51.878906 24.574219 L 51.878906 24.785156 L 51.761719 24.785156 L 51.761719 24.21875 L 51.914062 24.21875 C 52.082031 24.21875 52.15625 24.277344 52.15625 24.386719 C 52.164062 24.4375 52.15625 24.472656 52.132812 24.496094 Z M 51.878906 24.480469 L 51.9375 24.480469 C 52.015625 24.480469 52.046875 24.453125 52.046875 24.394531 C 52.046875 24.371094 52.039062 24.34375 52.023438 24.335938 C 51.996094 24.320312 51.964844 24.320312 51.9375 24.320312 L 51.878906 24.320312 Z M 51.878906 24.480469 "/>
<path style=" stroke:none;fill-rule:nonzero;fill:rgb(0%,65.098039%,70.588235%);fill-opacity:1;" d="M 11.71875 23.214844 C 11.75 23.332031 11.859375 23.761719 11.96875 24.167969 L 12.832031 27.382812 C 12.941406 27.785156 13.058594 28.21875 13.082031 28.335938 C 13.125 28.511719 13.074219 28.699219 12.949219 28.824219 L 9.902344 31.871094 C 9.609375 32.183594 9.304688 32.492188 9.203125 32.570312 C 9.066406 32.6875 8.882812 32.738281 8.714844 32.703125 L 7.761719 32.453125 L 4.546875 31.589844 L 3.59375 31.339844 C 3.507812 31.3125 3.433594 31.269531 3.367188 31.203125 C 3.296875 31.144531 3.257812 31.058594 3.230469 30.976562 C 3.195312 30.855469 3.085938 30.425781 2.976562 30.023438 L 2.117188 26.808594 L 1.863281 25.855469 L 1.992188 25.8125 L 2.117188 25.777344 C 2.152344 25.898438 2.261719 26.328125 2.371094 26.730469 L 3.230469 29.953125 C 3.339844 30.359375 3.457031 30.789062 3.484375 30.90625 C 3.5 30.949219 3.527344 30.984375 3.550781 31.019531 C 3.585938 31.050781 3.617188 31.078125 3.660156 31.085938 L 4.613281 31.339844 L 7.828125 32.199219 L 8.78125 32.453125 C 8.867188 32.46875 8.957031 32.441406 9.027344 32.382812 L 12.78125 28.628906 C 12.839844 28.5625 12.855469 28.46875 12.847656 28.386719 C 12.8125 28.269531 12.703125 27.835938 12.59375 27.433594 L 11.726562 24.234375 C 11.617188 23.832031 11.496094 23.398438 11.472656 23.28125 C 11.457031 23.238281 11.429688 23.207031 11.40625 23.171875 C 11.371094 23.140625 11.335938 23.113281 11.296875 23.105469 L 10.34375 22.84375 L 7.136719 21.984375 L 6.175781 21.730469 C 6.089844 21.714844 5.996094 21.738281 5.929688 21.796875 L 2.175781 25.550781 C 2.117188 25.617188 2.09375 25.710938 2.109375 25.796875 L 1.980469 25.820312 L 1.855469 25.855469 C 1.8125 25.679688 1.863281 25.492188 1.992188 25.367188 L 2.691406 24.664062 L 5.042969 22.320312 L 5.746094 21.621094 C 5.878906 21.492188 6.066406 21.453125 6.234375 21.484375 L 7.1875 21.738281 L 10.402344 22.597656 L 11.355469 22.851562 C 11.4375 22.878906 11.515625 22.929688 11.582031 22.988281 C 11.648438 23.054688 11.691406 23.128906 11.71875 23.214844 Z M 11.71875 23.214844 "/>
<path style=" stroke:none;fill-rule:nonzero;fill:rgb(0%,65.098039%,70.588235%);fill-opacity:1;" d="M 7.683594 22.363281 L 8.386719 22.769531 L 10.765625 24.144531 L 11.472656 24.546875 C 11.597656 24.625 11.675781 24.757812 11.683594 24.910156 L 11.683594 29.28125 C 11.675781 29.433594 11.597656 29.566406 11.472656 29.644531 L 10.773438 30.046875 L 8.386719 31.421875 L 7.683594 31.828125 C 7.617188 31.859375 7.550781 31.878906 7.472656 31.878906 C 7.398438 31.878906 7.332031 31.859375 7.261719 31.828125 L 6.5625 31.421875 L 4.175781 30.046875 L 3.476562 29.644531 L 3.578125 29.457031 L 4.277344 29.863281 L 6.65625 31.238281 L 7.363281 31.640625 C 7.398438 31.660156 7.433594 31.667969 7.464844 31.667969 C 7.5 31.667969 7.542969 31.660156 7.574219 31.640625 L 8.273438 31.238281 L 10.652344 29.863281 L 11.355469 29.457031 C 11.414062 29.414062 11.457031 29.347656 11.472656 29.269531 L 11.472656 24.902344 C 11.464844 24.824219 11.421875 24.757812 11.363281 24.726562 L 10.664062 24.320312 L 8.285156 22.945312 L 7.582031 22.539062 C 7.550781 22.523438 7.515625 22.515625 7.472656 22.515625 C 7.441406 22.515625 7.398438 22.523438 7.371094 22.539062 L 6.664062 22.945312 L 4.285156 24.320312 L 3.585938 24.726562 C 3.527344 24.765625 3.484375 24.835938 3.476562 24.910156 L 3.476562 29.28125 C 3.484375 29.355469 3.519531 29.414062 3.585938 29.464844 L 3.484375 29.652344 C 3.355469 29.574219 3.28125 29.441406 3.273438 29.289062 C 3.273438 29.1875 3.273438 28.824219 3.273438 28.480469 L 3.273438 24.917969 C 3.28125 24.765625 3.355469 24.632812 3.484375 24.554688 L 4.183594 24.152344 L 6.570312 22.777344 L 7.269531 22.371094 C 7.339844 22.335938 7.40625 22.320312 7.480469 22.320312 C 7.550781 22.3125 7.625 22.328125 7.683594 22.363281 Z M 7.683594 22.363281 "/>
<path style=" stroke:none;fill-rule:nonzero;fill:rgb(0%,65.098039%,70.588235%);fill-opacity:1;" d="M 4.632812 23.957031 L 5.332031 23.769531 L 7.691406 23.140625 L 8.394531 22.953125 C 8.519531 22.929688 8.65625 22.960938 8.757812 23.054688 L 9.269531 23.570312 L 11 25.296875 L 11.515625 25.8125 C 11.605469 25.90625 11.640625 26.050781 11.605469 26.175781 C 11.582031 26.261719 11.496094 26.582031 11.421875 26.875 L 10.789062 29.238281 C 10.703125 29.53125 10.621094 29.863281 10.605469 29.9375 C 10.585938 29.996094 10.554688 30.054688 10.503906 30.105469 C 10.460938 30.15625 10.402344 30.191406 10.332031 30.207031 L 9.632812 30.394531 L 7.269531 31.027344 L 6.570312 31.210938 L 6.546875 31.128906 L 6.519531 31.035156 L 7.222656 30.847656 L 9.582031 30.214844 L 10.28125 30.03125 C 10.316406 30.023438 10.34375 30.003906 10.367188 29.980469 C 10.394531 29.953125 10.410156 29.929688 10.417969 29.894531 L 10.605469 29.195312 L 11.234375 26.832031 C 11.320312 26.539062 11.40625 26.21875 11.421875 26.132812 C 11.429688 26.066406 11.414062 26.007812 11.371094 25.957031 L 10.863281 25.441406 L 9.136719 23.710938 L 8.621094 23.199219 C 8.570312 23.15625 8.503906 23.140625 8.445312 23.148438 L 7.742188 23.332031 L 5.382812 23.972656 L 4.683594 24.160156 C 4.648438 24.167969 4.621094 24.183594 4.597656 24.210938 C 4.570312 24.234375 4.554688 24.261719 4.546875 24.292969 C 4.519531 24.378906 4.4375 24.699219 4.359375 24.996094 L 3.730469 27.347656 C 3.652344 27.644531 3.566406 27.964844 3.542969 28.046875 C 3.535156 28.117188 3.550781 28.175781 3.59375 28.226562 L 4.109375 28.738281 L 5.835938 30.46875 L 6.351562 30.984375 C 6.402344 31.027344 6.46875 31.042969 6.527344 31.035156 L 6.554688 31.128906 L 6.578125 31.21875 C 6.453125 31.246094 6.316406 31.210938 6.21875 31.117188 L 5.703125 30.605469 L 3.964844 28.851562 L 3.449219 28.335938 C 3.355469 28.242188 3.324219 28.105469 3.347656 27.972656 C 3.375 27.886719 3.457031 27.566406 3.535156 27.273438 L 4.167969 24.910156 L 4.351562 24.210938 C 4.371094 24.152344 4.402344 24.09375 4.453125 24.042969 C 4.511719 24.007812 4.570312 23.972656 4.632812 23.957031 Z M 4.632812 23.957031 "/>
<path style=" stroke:none;fill-rule:nonzero;fill:rgb(0%,65.098039%,70.588235%);fill-opacity:1;" d="M 4.007812 30.570312 C 2.09375 28.65625 2.09375 25.550781 4.007812 23.628906 C 5.921875 21.703125 9.027344 21.714844 10.949219 23.628906 C 12.871094 25.542969 12.863281 28.648438 10.949219 30.570312 C 9.035156 32.484375 5.929688 32.484375 4.007812 30.570312 Z M 10.789062 30.410156 C 12.609375 28.578125 12.601562 25.617188 10.773438 23.804688 C 8.941406 21.984375 5.980469 21.992188 4.167969 23.820312 C 2.355469 25.644531 2.355469 28.597656 4.175781 30.417969 C 5.996094 32.25 8.957031 32.242188 10.789062 30.410156 C 10.789062 30.417969 10.789062 30.417969 10.789062 30.410156 Z M 10.789062 30.410156 "/>
<path style=" stroke:none;fill-rule:nonzero;fill:rgb(0%,65.098039%,70.588235%);fill-opacity:1;" d="M 7.632812 23.542969 L 8.15625 23.847656 L 9.921875 24.859375 L 10.441406 25.164062 C 10.535156 25.222656 10.59375 25.324219 10.59375 25.433594 L 10.59375 28.671875 C 10.585938 28.78125 10.535156 28.882812 10.441406 28.941406 L 9.921875 29.238281 L 8.15625 30.257812 L 7.632812 30.5625 C 7.582031 30.585938 7.53125 30.605469 7.480469 30.605469 C 7.433594 30.605469 7.371094 30.585938 7.332031 30.5625 L 6.808594 30.257812 L 5.042969 29.238281 L 4.519531 28.933594 L 4.605469 28.800781 L 5.121094 29.101562 L 6.882812 30.125 L 7.40625 30.425781 C 7.433594 30.445312 7.457031 30.445312 7.480469 30.445312 C 7.507812 30.445312 7.53125 30.445312 7.558594 30.425781 L 8.082031 30.125 L 9.84375 29.101562 L 10.367188 28.800781 C 10.410156 28.765625 10.441406 28.722656 10.441406 28.664062 L 10.441406 25.425781 C 10.433594 25.375 10.410156 25.324219 10.367188 25.289062 L 9.84375 24.984375 L 8.089844 23.972656 L 7.566406 23.671875 C 7.542969 23.660156 7.515625 23.652344 7.492188 23.652344 C 7.464844 23.652344 7.441406 23.660156 7.414062 23.671875 L 6.890625 23.972656 L 5.128906 24.984375 L 4.605469 25.289062 C 4.5625 25.324219 4.53125 25.375 4.53125 25.425781 L 4.53125 28.664062 C 4.539062 28.714844 4.5625 28.765625 4.605469 28.800781 L 4.519531 28.933594 C 4.429688 28.875 4.371094 28.773438 4.371094 28.664062 L 4.371094 25.417969 C 4.371094 25.308594 4.429688 25.207031 4.519531 25.144531 L 5.042969 24.84375 L 6.808594 23.832031 L 7.332031 23.527344 C 7.382812 23.5 7.433594 23.484375 7.480469 23.484375 C 7.53125 23.511719 7.582031 23.519531 7.632812 23.542969 Z M 7.632812 23.542969 "/>
<path style=" stroke:none;fill-rule:nonzero;fill:rgb(0%,65.098039%,70.588235%);fill-opacity:1;" d="M 4.910156 29.617188 C 3.492188 28.199219 3.492188 25.898438 4.910156 24.480469 C 6.328125 23.0625 8.628906 23.0625 10.046875 24.480469 C 11.464844 25.898438 11.464844 28.199219 10.046875 29.617188 C 8.628906 31.042969 6.328125 31.042969 4.910156 29.617188 Z M 9.929688 29.507812 C 11.277344 28.15625 11.269531 25.964844 9.921875 24.613281 C 8.570312 23.265625 6.378906 23.273438 5.027344 24.625 C 3.6875 25.972656 3.6875 28.15625 5.027344 29.507812 C 6.378906 30.855469 8.570312 30.867188 9.929688 29.507812 C 9.921875 29.507812 9.929688 29.507812 9.929688 29.507812 Z M 9.929688 29.507812 "/>
</g>
</svg>
