<?xml version="1.0" encoding="UTF-8"?>
<svg xmlns="http://www.w3.org/2000/svg" xmlns:xlink="http://www.w3.org/1999/xlink" width="20px" height="20px" viewBox="0 0 20 20" version="1.1">
<g id="surface1">
<path style=" stroke:none;fill-rule:evenodd;fill:rgb(1.568627%,1.568627%,1.568627%);fill-opacity:1;" d="M 9.601562 0.148438 C 7.585938 0.34375 5.953125 0.738281 4.359375 1.417969 C 3.371094 1.839844 2.097656 2.535156 1.808594 2.8125 C 1.59375 3.019531 1.585938 3.105469 1.636719 4.324219 C 1.8125 8.457031 2.492188 11.59375 3.800781 14.261719 C 5.15625 17.027344 7.234375 19.0625 9.535156 19.875 C 10.175781 20.101562 10.585938 20.039062 11.578125 19.5625 C 12.5 19.125 13.203125 18.625 14.011719 17.839844 C 15.082031 16.808594 15.832031 15.75 16.578125 14.238281 C 17.914062 11.527344 18.644531 8.085938 18.746094 4.019531 L 18.769531 3.058594 L 18.652344 2.84375 C 18.550781 2.644531 18.5 2.601562 18.078125 2.347656 C 15.722656 0.914062 12.898438 0.101562 10.359375 0.125 C 10.019531 0.128906 9.675781 0.140625 9.601562 0.148438 M 9.5 1.308594 C 8.304688 1.414062 6.9375 1.707031 5.71875 2.117188 C 4.851562 2.410156 4.320312 2.632812 3.507812 3.050781 L 2.878906 3.378906 L 2.902344 3.839844 C 2.960938 5.058594 3.007812 5.75 3.0625 6.320312 C 3.363281 9.339844 4.019531 11.859375 5.023438 13.839844 C 5.402344 14.59375 5.707031 15.082031 6.277344 15.839844 C 6.96875 16.765625 7.648438 17.402344 8.421875 17.847656 C 8.574219 17.9375 8.816406 18.082031 8.960938 18.164062 C 9.3125 18.371094 9.863281 18.625 10.085938 18.683594 C 10.25 18.730469 10.296875 18.726562 10.523438 18.640625 C 10.882812 18.511719 11.789062 18.035156 12.238281 17.738281 C 12.449219 17.601562 12.808594 17.316406 13.039062 17.109375 C 15.234375 15.132812 16.714844 11.925781 17.296875 7.875 C 17.480469 6.605469 17.601562 5.050781 17.601562 3.941406 L 17.601562 3.375 L 16.96875 3.070312 C 14.949219 2.09375 13 1.535156 10.886719 1.320312 C 10.496094 1.28125 9.855469 1.277344 9.5 1.308594 M 9.84375 4.761719 C 9.421875 4.847656 9.0625 5.148438 8.9375 5.523438 C 8.902344 5.632812 8.871094 5.847656 8.871094 6 C 8.871094 6.152344 8.902344 6.367188 8.9375 6.476562 C 9.214844 7.300781 10.421875 7.542969 11.046875 6.894531 C 11.285156 6.648438 11.375 6.398438 11.375 6 C 11.375 5.601562 11.285156 5.351562 11.046875 5.105469 C 10.867188 4.921875 10.6875 4.824219 10.40625 4.765625 C 10.167969 4.714844 10.09375 4.714844 9.84375 4.761719 M 9.441406 8.570312 C 9.101562 8.742188 9.121094 8.574219 9.121094 11.644531 L 9.121094 14.347656 L 9.210938 14.484375 C 9.363281 14.710938 9.511719 14.761719 10.058594 14.761719 C 10.609375 14.761719 10.757812 14.710938 10.910156 14.484375 L 11 14.347656 L 11 11.625 C 11 8.964844 10.996094 8.898438 10.917969 8.769531 C 10.789062 8.550781 10.574219 8.480469 10.058594 8.480469 C 9.679688 8.480469 9.59375 8.492188 9.441406 8.570312 "/>
</g>
</svg>
