<?xml version="1.0" encoding="UTF-8"?>
<svg xmlns="http://www.w3.org/2000/svg" xmlns:xlink="http://www.w3.org/1999/xlink" width="247px" height="55px" viewBox="0 0 247 55" version="1.1">
<g id="surface1">
<path style=" stroke:none;fill-rule:evenodd;fill:rgb(26.666667%,32.941176%,39.215686%);fill-opacity:1;" d="M 171.6875 25.300781 L 171.6875 45.289062 L 179.339844 45.289062 L 179.339844 41.640625 L 179.800781 42.171875 C 180.964844 43.523438 182.753906 44.734375 184.5 45.351562 C 185.847656 45.828125 186.558594 45.933594 188.320312 45.929688 C 189.746094 45.925781 190.007812 45.90625 190.863281 45.722656 C 193.335938 45.199219 195.273438 44.136719 196.976562 42.375 C 199.007812 40.277344 200.246094 37.578125 200.796875 34.046875 C 200.941406 33.113281 200.964844 32.660156 200.964844 30.800781 C 200.964844 28.40625 200.855469 27.398438 200.40625 25.628906 C 198.757812 19.105469 193.664062 15.210938 187.347656 15.636719 C 184.402344 15.835938 181.753906 17.148438 179.824219 19.359375 L 179.378906 19.871094 L 179.339844 5.308594 L 171.6875 5.308594 L 171.6875 25.300781 M 203.511719 25.300781 L 203.511719 45.289062 L 211.164062 45.289062 L 211.164062 5.308594 L 203.511719 5.308594 L 203.511719 25.300781 M 64.628906 12.367188 L 64.628906 16.308594 L 59.855469 16.308594 L 59.855469 22.984375 L 64.621094 22.984375 L 64.652344 31.199219 C 64.675781 38.402344 64.695312 39.484375 64.804688 40.019531 C 65.257812 42.261719 66.152344 43.699219 67.730469 44.722656 C 69.160156 45.648438 70.929688 46.03125 73.378906 45.949219 C 75.113281 45.890625 76.105469 45.703125 77.386719 45.199219 C 77.953125 44.972656 79.023438 44.335938 79.132812 44.160156 C 79.160156 44.113281 78.824219 42.78125 78.386719 41.195312 C 77.945312 39.609375 77.585938 38.296875 77.585938 38.277344 C 77.585938 38.257812 77.410156 38.363281 77.199219 38.503906 C 76.597656 38.910156 75.871094 39.105469 74.972656 39.105469 C 74.335938 39.105469 74.15625 39.078125 73.863281 38.929688 C 73.195312 38.601562 72.703125 37.972656 72.457031 37.132812 C 72.335938 36.71875 72.324219 36.113281 72.300781 29.832031 L 72.273438 22.984375 L 78.191406 22.984375 L 78.191406 16.308594 L 72.28125 16.308594 L 72.28125 8.421875 L 64.628906 8.421875 L 64.628906 12.367188 M 243.917969 12.367188 C 243.128906 12.527344 242.359375 13.183594 242.070312 13.945312 C 241.84375 14.550781 241.886719 15.5 242.167969 16.042969 C 243.195312 18.023438 246.050781 17.851562 246.824219 15.761719 C 246.890625 15.574219 246.941406 15.195312 246.941406 14.859375 C 246.945312 14.179688 246.738281 13.640625 246.28125 13.132812 C 245.746094 12.542969 244.710938 12.207031 243.917969 12.367188 M 243.753906 13 C 243.382812 13.132812 242.929688 13.539062 242.746094 13.90625 C 242.65625 14.078125 242.570312 14.429688 242.546875 14.695312 C 242.476562 15.59375 242.808594 16.257812 243.519531 16.648438 C 243.859375 16.832031 244.015625 16.871094 244.425781 16.867188 C 245.578125 16.855469 246.3125 16.089844 246.316406 14.90625 C 246.316406 13.710938 245.515625 12.882812 244.378906 12.902344 C 244.171875 12.90625 243.890625 12.949219 243.753906 13 M 243.515625 14.820312 L 243.515625 16.234375 L 244.121094 16.234375 L 244.121094 15.703125 C 244.121094 15.410156 244.152344 15.171875 244.191406 15.171875 C 244.234375 15.171875 244.40625 15.410156 244.574219 15.703125 L 244.886719 16.234375 L 245.636719 16.234375 L 245.4375 15.910156 C 245.328125 15.734375 245.167969 15.492188 245.085938 15.375 L 244.933594 15.160156 L 245.199219 14.941406 C 245.515625 14.679688 245.601562 14.359375 245.453125 13.996094 C 245.300781 13.632812 244.972656 13.488281 244.179688 13.445312 L 243.515625 13.40625 L 243.515625 14.820312 M 244.121094 14.339844 C 244.121094 14.703125 244.128906 14.71875 244.332031 14.71875 C 244.445312 14.71875 244.617188 14.664062 244.710938 14.597656 C 245.046875 14.363281 244.839844 13.957031 244.378906 13.957031 L 244.121094 13.957031 L 244.121094 14.339844 M 93.679688 15.636719 C 91.875 15.742188 89.78125 16.28125 88.15625 17.058594 C 86.65625 17.777344 85.605469 18.523438 84.339844 19.757812 C 81.875 22.160156 80.378906 25.242188 79.9375 28.824219 C 79.820312 29.773438 79.839844 32.019531 79.972656 33.054688 C 80.328125 35.789062 81.308594 38.265625 82.839844 40.28125 C 83.289062 40.878906 84.429688 42.050781 85.046875 42.554688 C 87.675781 44.699219 90.910156 45.839844 94.671875 45.949219 C 97.390625 46.03125 99.992188 45.640625 102.324219 44.800781 C 103.9375 44.21875 105.917969 43.109375 106.8125 42.28125 L 107.207031 41.914062 L 103.785156 36.882812 L 103.09375 37.410156 C 101.878906 38.332031 100.097656 39.089844 98.265625 39.460938 C 97.058594 39.707031 94.9375 39.710938 93.90625 39.46875 C 91.363281 38.878906 89.601562 37.554688 88.542969 35.449219 C 88.277344 34.914062 87.890625 33.734375 87.890625 33.445312 C 87.890625 33.308594 88.152344 33.304688 98.582031 33.304688 L 109.273438 33.304688 L 109.234375 31.199219 C 109.195312 28.890625 109.085938 28 108.640625 26.324219 C 107.859375 23.367188 106.285156 20.742188 104.238281 18.964844 C 101.410156 16.507812 97.882812 15.394531 93.679688 15.636719 M 128.765625 15.636719 C 125.601562 15.835938 122.644531 17.128906 120.3125 19.324219 L 119.710938 19.890625 L 119.710938 16.308594 L 112.058594 16.308594 L 112.058594 45.289062 L 119.710938 45.289062 L 119.710938 25.6875 L 120.53125 24.886719 C 121.804688 23.644531 123.121094 22.917969 124.703125 22.59375 C 125.3125 22.464844 125.625 22.449219 126.605469 22.480469 C 127.371094 22.503906 127.941406 22.5625 128.234375 22.644531 C 129.503906 23 130.429688 23.730469 130.921875 24.761719 C 131.523438 26.019531 131.484375 25.296875 131.511719 35.863281 L 131.535156 45.289062 L 139.257812 45.289062 L 139.257812 34.789062 C 139.257812 24.042969 139.242188 23.386719 138.957031 22.070312 C 138.382812 19.417969 136.777344 17.417969 134.425781 16.425781 C 132.902344 15.785156 130.875 15.5 128.765625 15.636719 M 155.019531 15.605469 C 150.863281 15.738281 146.9375 17.125 143.898438 19.535156 C 143.550781 19.808594 143.25 20.078125 143.230469 20.136719 C 143.1875 20.242188 146.074219 25.484375 146.179688 25.488281 C 146.214844 25.488281 146.464844 25.300781 146.738281 25.066406 C 148.273438 23.765625 150.195312 22.804688 152.148438 22.367188 C 152.839844 22.210938 153.125 22.191406 154.527344 22.195312 C 155.910156 22.199219 156.195312 22.222656 156.703125 22.363281 C 157.964844 22.710938 158.792969 23.148438 159.492188 23.832031 C 159.984375 24.3125 160.261719 24.75 160.539062 25.480469 C 160.726562 25.96875 160.734375 26.042969 160.761719 28.21875 L 160.789062 30.453125 L 160.210938 29.898438 C 158.902344 28.65625 157.101562 27.777344 154.988281 27.347656 C 150.753906 26.492188 146.890625 27.320312 144.359375 29.621094 C 143.382812 30.507812 142.421875 32.078125 142.0625 33.378906 C 141.582031 35.117188 141.554688 37.261719 141.992188 38.96875 C 143.007812 42.957031 146.734375 45.769531 151.234375 45.949219 C 154.753906 46.089844 157.984375 45 160.113281 42.949219 L 160.777344 42.308594 L 160.777344 45.289062 L 168.503906 45.289062 L 168.503906 35.523438 C 168.503906 29.664062 168.472656 25.46875 168.429688 25.035156 C 167.917969 20.09375 165 17.007812 159.867188 15.976562 C 158.449219 15.691406 156.664062 15.554688 155.019531 15.605469 M 227.789062 15.636719 C 225.980469 15.742188 223.886719 16.28125 222.261719 17.058594 C 220.765625 17.777344 219.710938 18.523438 218.445312 19.757812 C 215.984375 22.160156 214.488281 25.242188 214.046875 28.824219 C 213.929688 29.773438 213.949219 32.019531 214.082031 33.054688 C 214.4375 35.789062 215.417969 38.265625 216.945312 40.28125 C 217.398438 40.878906 218.535156 42.050781 219.15625 42.554688 C 221.78125 44.699219 225.015625 45.839844 228.777344 45.949219 C 231.5 46.03125 234.097656 45.640625 236.429688 44.800781 C 238.046875 44.21875 240.027344 43.105469 240.917969 42.28125 L 241.3125 41.914062 L 237.890625 36.882812 L 237.199219 37.410156 C 235.984375 38.332031 234.207031 39.089844 232.371094 39.460938 C 231.167969 39.707031 229.042969 39.710938 228.011719 39.46875 C 225.472656 38.878906 223.710938 37.554688 222.652344 35.449219 C 222.382812 34.914062 221.996094 33.734375 221.996094 33.445312 C 221.996094 33.308594 222.257812 33.304688 232.6875 33.304688 L 243.378906 33.304688 L 243.34375 31.199219 C 243.300781 28.890625 243.195312 28 242.75 26.324219 C 241.457031 21.445312 238.214844 17.832031 233.8125 16.363281 C 231.964844 15.746094 230.007812 15.507812 227.789062 15.636719 M 93.984375 21.929688 C 91.46875 22.128906 89.519531 23.433594 88.492188 25.601562 C 88.152344 26.316406 87.8125 27.425781 87.8125 27.816406 L 87.8125 27.992188 L 94.859375 27.992188 C 101.777344 27.992188 101.90625 27.992188 101.90625 27.847656 C 101.90625 27.765625 101.855469 27.464844 101.796875 27.179688 C 101.050781 23.617188 98.050781 21.605469 93.984375 21.929688 M 228.089844 21.929688 C 225.578125 22.128906 223.625 23.433594 222.597656 25.601562 C 222.261719 26.316406 221.921875 27.425781 221.921875 27.816406 L 221.921875 27.992188 L 236.035156 27.992188 L 235.984375 27.625 C 235.808594 26.292969 235.171875 24.933594 234.246094 23.921875 C 233.746094 23.371094 232.664062 22.671875 231.886719 22.386719 C 230.769531 21.984375 229.429688 21.820312 228.089844 21.929688 M 184.417969 22.574219 C 182.589844 22.988281 180.730469 24.050781 179.726562 25.261719 L 179.339844 25.726562 L 179.339844 35.945312 L 179.644531 36.332031 C 180.503906 37.417969 182.339844 38.492188 184.101562 38.9375 C 185.035156 39.171875 186.828125 39.167969 187.710938 38.929688 C 190.53125 38.164062 192.445312 35.847656 192.992188 32.542969 C 193.132812 31.695312 193.109375 29.617188 192.953125 28.789062 C 192.34375 25.621094 190.601562 23.515625 187.925781 22.710938 C 187.355469 22.539062 187.089844 22.507812 186.082031 22.484375 C 185.246094 22.46875 184.769531 22.492188 184.417969 22.574219 M 153.617188 32.25 C 151.441406 32.5625 149.78125 33.90625 149.421875 35.640625 C 148.953125 37.882812 150.273438 39.796875 152.796875 40.527344 C 153.328125 40.683594 153.542969 40.699219 154.867188 40.695312 C 156.203125 40.6875 156.414062 40.667969 157.070312 40.492188 C 158.539062 40.097656 159.738281 39.453125 160.429688 38.679688 L 160.777344 38.292969 L 160.777344 34.722656 L 160.511719 34.398438 C 159.253906 32.863281 156.128906 31.886719 153.617188 32.25 "/>
<path style=" stroke:none;fill-rule:evenodd;fill:rgb(1.568627%,64.313725%,70.588235%);fill-opacity:1;" d="M 20.027344 0.109375 C 19.851562 0.164062 19.597656 0.28125 19.457031 0.367188 C 19.320312 0.453125 14.972656 4.765625 9.796875 9.953125 C 1.867188 17.894531 0.359375 19.441406 0.21875 19.761719 C -0.0273438 20.320312 -0.0507812 20.996094 0.148438 21.773438 C 1.148438 25.660156 6.789062 46.558594 6.914062 46.839844 C 7.128906 47.308594 7.660156 47.863281 8.105469 48.078125 C 8.292969 48.167969 12.984375 49.457031 18.523438 50.941406 C 24.066406 52.429688 29.738281 53.949219 31.125 54.320312 C 33.953125 55.082031 34.335938 55.132812 35.132812 54.839844 C 35.554688 54.6875 35.964844 54.289062 45.027344 45.222656 C 52.535156 37.714844 54.519531 35.691406 54.667969 35.390625 C 54.914062 34.882812 55.019531 34.269531 54.941406 33.796875 C 54.824219 33.09375 48.171875 8.386719 48.023438 8.089844 C 47.792969 7.640625 47.304688 7.152344 46.871094 6.949219 C 46.660156 6.84375 40.808594 5.238281 33.878906 3.378906 C 20.464844 -0.214844 20.808594 -0.136719 20.027344 0.109375 M 20.34375 1.410156 C 20.105469 1.496094 19.367188 2.191406 16.933594 4.632812 L 13.828125 7.746094 L 14.8125 7.128906 C 18.765625 4.65625 23.671875 3.335938 28.261719 3.511719 C 28.867188 3.535156 29.324219 3.542969 29.285156 3.527344 C 28.984375 3.410156 20.914062 1.289062 20.796875 1.296875 C 20.714844 1.300781 20.511719 1.351562 20.34375 1.410156 M 24.285156 5.007812 C 19.0625 5.808594 14.351562 8.28125 10.851562 12.0625 C 10.234375 12.726562 8.925781 14.351562 8.972656 14.394531 C 9 14.421875 25.277344 5.046875 25.414062 4.921875 C 25.511719 4.832031 25.355469 4.84375 24.285156 5.007812 M 29.472656 4.875 C 29.496094 4.894531 33.160156 7.019531 37.617188 9.597656 C 42.078125 12.171875 45.839844 14.347656 45.980469 14.433594 C 46.125 14.519531 46.226562 14.554688 46.210938 14.507812 C 46.191406 14.460938 45.855469 14.003906 45.460938 13.492188 C 44.597656 12.371094 42.921875 10.664062 41.824219 9.789062 C 39.367188 7.824219 36.246094 6.253906 33.300781 5.5 C 32.011719 5.171875 29.339844 4.734375 29.472656 4.875 M 21.957031 8.214844 C 19.136719 9.847656 16.839844 11.195312 16.851562 11.207031 C 16.871094 11.230469 29.871094 7.765625 31.125 7.40625 L 31.449219 7.3125 L 29.648438 6.273438 C 27.972656 5.308594 27.820312 5.234375 27.464844 5.238281 C 27.109375 5.242188 26.800781 5.40625 21.957031 8.214844 M 38.679688 6.285156 C 42.824219 8.464844 46.242188 11.851562 48.601562 16.121094 C 48.878906 16.621094 49.089844 16.960938 49.066406 16.878906 C 48.632812 15.210938 47.015625 9.199219 46.933594 8.945312 C 46.871094 8.753906 46.703125 8.488281 46.5625 8.351562 C 46.320312 8.113281 46.066406 8.035156 42.113281 6.972656 C 39.808594 6.351562 37.902344 5.84375 37.882812 5.84375 C 37.863281 5.84375 38.21875 6.042969 38.679688 6.285156 M 29.78125 8.792969 L 27.324219 9.460938 L 28.265625 9.511719 C 30.945312 9.664062 33.1875 10.257812 35.53125 11.433594 L 36.628906 11.984375 L 34.851562 10.195312 C 33.175781 8.507812 32.695312 8.113281 32.351562 8.125 C 32.289062 8.128906 31.132812 8.429688 29.78125 8.792969 M 41.40625 15.390625 C 44.40625 18.402344 46.871094 20.863281 46.878906 20.863281 C 46.890625 20.863281 46.898438 19.894531 46.898438 18.710938 C 46.898438 16.597656 46.898438 16.554688 46.726562 16.300781 C 46.589844 16.097656 45.523438 15.449219 41.402344 13.0625 C 38.570312 11.425781 36.1875 10.046875 36.101562 10.003906 C 36.019531 9.957031 38.40625 12.382812 41.40625 15.390625 M 24.664062 10.703125 C 21.242188 11.304688 18.261719 12.839844 15.773438 15.277344 C 14.984375 16.050781 14.054688 17.117188 13.847656 17.484375 C 13.808594 17.554688 23.726562 11.871094 25.835938 10.617188 C 26.019531 10.507812 25.59375 10.539062 24.664062 10.703125 M 29.132812 10.597656 C 29.183594 10.652344 38.835938 16.242188 41.324219 17.660156 C 41.363281 17.683594 41.175781 17.414062 40.910156 17.0625 C 40.300781 16.253906 38.9375 14.847656 38.148438 14.210938 C 36.03125 12.496094 33.511719 11.3125 30.835938 10.777344 C 29.902344 10.589844 29.027344 10.496094 29.132812 10.597656 M 20.34375 14.757812 C 16.550781 16.953125 13.371094 18.832031 13.277344 18.9375 L 13.109375 19.125 L 13.109375 35.417969 L 13.277344 35.613281 C 13.371094 35.71875 16.550781 37.601562 20.339844 39.789062 C 25.664062 42.867188 27.292969 43.773438 27.484375 43.773438 C 27.679688 43.773438 29.324219 42.855469 34.714844 39.738281 C 40.984375 36.113281 41.699219 35.679688 41.792969 35.453125 C 41.882812 35.246094 41.898438 33.832031 41.898438 27.265625 C 41.898438 20.285156 41.886719 19.300781 41.78125 19.085938 C 41.679688 18.871094 40.773438 18.324219 34.71875 14.824219 C 29.675781 11.910156 27.699219 10.804688 27.503906 10.792969 C 27.273438 10.773438 26.300781 11.3125 20.34375 14.757812 M 16.023438 12.488281 C 14.035156 13.03125 13.644531 13.160156 13.472656 13.335938 C 13.300781 13.507812 13.167969 13.917969 12.621094 15.964844 C 12.261719 17.296875 11.953125 18.457031 11.929688 18.542969 C 11.90625 18.628906 11.960938 18.582031 12.054688 18.433594 C 13.195312 16.636719 13.84375 15.796875 14.925781 14.714844 C 15.777344 13.859375 16.808594 13.019531 17.804688 12.367188 C 18.199219 12.109375 18.539062 11.882812 18.554688 11.867188 C 18.636719 11.789062 18.21875 11.890625 16.023438 12.488281 M 4.570312 17.011719 C 1.582031 20.015625 1.453125 20.15625 1.371094 20.519531 C 1.285156 20.890625 1.308594 21.003906 2.386719 25.035156 C 2.996094 27.308594 3.503906 29.203125 3.515625 29.246094 C 3.527344 29.285156 3.535156 28.550781 3.539062 27.613281 C 3.539062 25.386719 3.703125 23.9375 4.167969 21.960938 C 4.785156 19.332031 5.785156 16.96875 7.277344 14.585938 C 7.519531 14.199219 7.710938 13.882812 7.703125 13.882812 C 7.695312 13.882812 6.285156 15.289062 4.570312 17.011719 M 10.191406 15.015625 C 8.597656 15.9375 8.351562 16.105469 8.203125 16.367188 L 8.03125 16.671875 L 8.070312 29.117188 L 10.070312 21.632812 C 11.171875 17.515625 12.085938 14.105469 12.105469 14.054688 C 12.125 14 12.109375 13.960938 12.074219 13.960938 C 12.039062 13.960938 11.191406 14.433594 10.191406 15.015625 M 48.046875 27.5 L 48.046875 37.363281 L 48.308594 36.808594 C 48.894531 35.550781 49.464844 33.765625 49.804688 32.128906 C 50.152344 30.457031 50.257812 29.378906 50.257812 27.5 C 50.257812 25.621094 50.152344 24.53125 49.804688 22.878906 C 49.457031 21.21875 48.894531 19.480469 48.238281 18.054688 L 48.042969 17.636719 L 48.046875 27.5 M 6.574219 18.644531 C 5.542969 21.082031 4.960938 23.539062 4.769531 26.25 C 4.523438 29.777344 5.289062 33.941406 6.753906 37.058594 L 6.933594 37.4375 L 6.9375 27.632812 C 6.941406 22.238281 6.9375 17.828125 6.929688 17.828125 C 6.921875 17.828125 6.761719 18.195312 6.574219 18.644531 M 43.222656 19.046875 C 44.476562 21.480469 45.117188 23.910156 45.222656 26.617188 L 45.269531 27.855469 L 45.980469 25.195312 C 46.554688 23.054688 46.679688 22.484375 46.636719 22.25 C 46.59375 22 46.328125 21.703125 44.660156 20.027344 L 42.730469 18.09375 L 43.222656 19.046875 M 42.734375 27.277344 C 42.738281 32.082031 42.761719 34.4375 42.8125 34.351562 C 42.988281 34.046875 43.507812 32.636719 43.71875 31.882812 C 44.589844 28.78125 44.558594 25.4375 43.625 22.339844 C 43.472656 21.828125 42.835938 20.183594 42.765625 20.113281 C 42.746094 20.09375 42.734375 23.320312 42.734375 27.277344 M 11.914062 20.957031 C 11.296875 22.53125 11.011719 23.589844 10.792969 25.148438 C 10.636719 26.222656 10.617188 28.390625 10.75 29.359375 C 10.980469 31.03125 11.460938 32.8125 12.011719 34.054688 L 12.269531 34.632812 L 12.273438 27.40625 C 12.273438 23.429688 12.261719 20.179688 12.246094 20.179688 C 12.230469 20.179688 12.082031 20.527344 11.914062 20.957031 M 51.40625 27.519531 C 51.40625 29.640625 51.335938 30.429688 50.992188 32.164062 C 50.378906 35.234375 49.21875 38.105469 47.574219 40.613281 C 47.332031 40.980469 47.925781 40.421875 50.347656 38.007812 C 52.082031 36.28125 53.476562 34.828125 53.535156 34.691406 C 53.59375 34.554688 53.644531 34.335938 53.644531 34.203125 C 53.644531 34.070312 53.148438 32.097656 52.539062 29.820312 C 51.933594 27.542969 51.429688 25.652344 51.421875 25.621094 C 51.414062 25.589844 51.40625 26.445312 51.40625 27.519531 M 44.804688 33.4375 C 43.675781 37.640625 42.765625 41.09375 42.777344 41.109375 C 42.792969 41.125 43.644531 40.644531 44.679688 40.046875 C 46.085938 39.226562 46.597656 38.890625 46.726562 38.699219 L 46.898438 38.441406 L 46.898438 32.117188 C 46.898438 28.636719 46.890625 25.792969 46.875 25.792969 C 46.863281 25.792969 45.929688 29.234375 44.804688 33.4375 M 8.964844 29.613281 C 8.375 31.820312 8.277344 32.265625 8.335938 32.480469 C 8.390625 32.667969 8.929688 33.257812 10.417969 34.746094 L 12.433594 36.753906 L 12.039062 36.074219 C 11.066406 34.382812 10.304688 32.226562 9.964844 30.191406 C 9.898438 29.796875 9.800781 28.917969 9.75 28.238281 L 9.660156 27 L 8.964844 29.613281 M 8.03125 36.089844 C 8.035156 38.289062 8.039062 38.355469 8.203125 38.644531 C 8.355469 38.910156 8.871094 39.226562 13.675781 42.003906 C 16.59375 43.691406 19.132812 45.15625 19.320312 45.265625 C 19.550781 45.398438 17.808594 43.601562 13.867188 39.648438 C 10.679688 36.449219 8.0625 33.835938 8.050781 33.835938 C 8.039062 33.835938 8.03125 34.851562 8.03125 36.089844 M 43.003906 35.941406 C 42.550781 36.894531 41.363281 38.46875 40.199219 39.664062 C 38.910156 40.988281 37.796875 41.863281 36.332031 42.699219 C 35.960938 42.914062 35.671875 43.089844 35.6875 43.089844 C 35.707031 43.089844 36.980469 42.75 38.519531 42.335938 C 40.8125 41.71875 41.351562 41.550781 41.503906 41.394531 C 41.660156 41.238281 41.828125 40.707031 42.433594 38.449219 C 42.839844 36.933594 43.167969 35.683594 43.15625 35.675781 C 43.148438 35.664062 43.078125 35.785156 43.003906 35.941406 M 13.746094 37.144531 C 16.636719 41.039062 20.457031 43.363281 25.09375 44.042969 C 25.542969 44.109375 25.960938 44.152344 26.023438 44.136719 C 26.113281 44.121094 15.046875 37.648438 13.800781 36.992188 L 13.527344 36.847656 L 13.746094 37.144531 M 35.097656 40.488281 C 31.667969 42.472656 28.878906 44.113281 28.898438 44.132812 C 28.957031 44.191406 30.191406 44.003906 31.125 43.800781 C 34.65625 43.023438 38.035156 40.980469 40.34375 38.226562 C 40.828125 37.648438 41.417969 36.859375 41.351562 36.875 C 41.339844 36.875 38.527344 38.503906 35.097656 40.488281 M 5.910156 38.117188 C 5.910156 38.285156 8.058594 46.179688 8.152344 46.367188 C 8.394531 46.832031 8.570312 46.894531 12.765625 48.019531 C 14.976562 48.609375 16.851562 49.109375 16.933594 49.128906 C 17.015625 49.152344 16.738281 48.980469 16.308594 48.75 C 12.035156 46.433594 8.714844 43.152344 6.410156 38.957031 C 6.136719 38.453125 5.910156 38.078125 5.910156 38.117188 M 8.636719 40.414062 C 8.636719 40.515625 10 42.242188 10.664062 42.976562 C 13.765625 46.410156 18.066406 48.882812 22.652344 49.871094 C 23.695312 50.097656 25.226562 50.316406 25.527344 50.28125 C 25.695312 50.261719 24.027344 49.269531 17.1875 45.316406 C 12.484375 42.597656 8.636719 40.390625 8.636719 40.414062 M 37.710938 45.351562 C 33.050781 48.050781 29.277344 50.269531 29.324219 50.285156 C 29.472656 50.332031 30.824219 50.144531 31.976562 49.914062 C 37.550781 48.804688 42.535156 45.585938 45.980469 40.871094 C 46.15625 40.628906 46.273438 40.4375 46.238281 40.441406 C 46.207031 40.445312 42.367188 42.652344 37.710938 45.351562 M 20.078125 44.410156 C 21.59375 45.9375 22.152344 46.453125 22.355469 46.511719 C 22.601562 46.585938 22.917969 46.519531 25.425781 45.847656 L 28.222656 45.101562 L 27.542969 45.082031 C 25.480469 45.03125 23.601562 44.722656 21.878906 44.148438 C 20.816406 43.792969 19.378906 43.152344 18.488281 42.632812 C 18.132812 42.425781 18.363281 42.683594 20.078125 44.410156 M 31.199219 45.316406 C 26.832031 46.492188 23.261719 47.472656 23.261719 47.5 C 23.261719 47.523438 24.136719 48.050781 25.207031 48.671875 C 26.953125 49.675781 27.191406 49.792969 27.5 49.792969 C 27.8125 49.789062 28.339844 49.5 33.414062 46.566406 C 36.476562 44.792969 39.050781 43.304688 39.132812 43.257812 C 39.21875 43.207031 39.25 43.171875 39.210938 43.175781 C 39.167969 43.179688 35.5625 44.144531 31.199219 45.316406 M 40.6875 47.535156 C 39.203125 48.605469 36.472656 49.882812 34.292969 50.519531 C 31.921875 51.214844 30.160156 51.460938 27.535156 51.46875 L 25.636719 51.472656 L 29.808594 52.589844 C 32.105469 53.207031 34.046875 53.710938 34.125 53.710938 C 34.644531 53.710938 34.789062 53.585938 37.929688 50.4375 C 39.632812 48.734375 41.011719 47.339844 40.988281 47.339844 C 40.96875 47.34375 40.832031 47.429688 40.6875 47.535156 "/>
</g>
</svg>
