<?xml version="1.0" encoding="UTF-8"?>
<svg xmlns="http://www.w3.org/2000/svg" xmlns:xlink="http://www.w3.org/1999/xlink" width="15px" height="15px" viewBox="0 0 15 15" version="1.1">
<g id="surface1">
<path style=" stroke:none;fill-rule:evenodd;fill:rgb(58.039216%,14.117647%,23.529412%);fill-opacity:1;" d="M 6.835938 0.015625 C 5.933594 0.109375 5.496094 0.179688 4.859375 0.339844 C 4.355469 0.460938 3.746094 0.65625 3.289062 0.835938 C 2.546875 1.128906 1.242188 1.832031 1.058594 2.039062 C 0.917969 2.195312 0.914062 2.265625 0.945312 3.148438 C 1.003906 4.65625 1.128906 5.816406 1.367188 7 C 2.035156 10.359375 3.480469 12.835938 5.582031 14.226562 C 6.15625 14.605469 7.058594 15 7.359375 15 C 7.511719 15 7.816406 14.910156 8.171875 14.757812 C 9.503906 14.191406 10.753906 13.058594 11.65625 11.597656 C 12.792969 9.757812 13.488281 7.363281 13.722656 4.449219 C 13.769531 3.875 13.800781 3.242188 13.800781 2.742188 C 13.804688 2.039062 13.824219 2.066406 13.023438 1.601562 C 11.339844 0.625 9.300781 0.0390625 7.5 0.0117188 C 7.191406 0.0078125 6.890625 0.0078125 6.835938 0.015625 M 7 0.964844 C 5.539062 1.097656 4.367188 1.390625 3.148438 1.929688 C 2.800781 2.082031 2.261719 2.359375 2.023438 2.503906 L 1.886719 2.585938 L 1.902344 3.148438 C 2.027344 7.425781 3.152344 10.726562 5.132812 12.640625 C 5.757812 13.246094 6.53125 13.75 7.15625 13.960938 L 7.375 14.035156 L 7.554688 13.976562 C 8.214844 13.75 9.058594 13.191406 9.6875 12.5625 C 11.628906 10.625 12.695312 7.417969 12.839844 3.085938 L 12.855469 2.582031 L 12.660156 2.46875 C 11.113281 1.578125 9.144531 1.003906 7.5 0.964844 C 7.285156 0.960938 7.0625 0.960938 7 0.964844 M 6.078125 4.695312 L 4.679688 6.5625 L 5.613281 6.570312 L 6.550781 6.574219 L 6.550781 9.375 L 8.449219 9.375 L 8.449219 6.574219 L 9.390625 6.570312 L 10.328125 6.5625 L 8.925781 4.695312 C 8.15625 3.664062 7.515625 2.824219 7.503906 2.824219 C 7.492188 2.824219 6.851562 3.664062 6.078125 4.695312 M 6.550781 10.773438 L 6.550781 11.25 L 8.449219 11.25 L 8.449219 10.300781 L 6.550781 10.300781 L 6.550781 10.773438 "/>
</g>
</svg>
