<?xml version="1.0" encoding="UTF-8"?>
<svg xmlns="http://www.w3.org/2000/svg" xmlns:xlink="http://www.w3.org/1999/xlink" width="58px" height="35px" viewBox="0 0 58 35" version="1.1">
<g id="surface1">
<path style=" stroke:none;fill-rule:nonzero;fill:rgb(40.784314%,69.01961%,26.666668%);fill-opacity:1;" d="M 32.703125 2.613281 L 31.78125 6.300781 C 33.085938 3.6875 35.195312 1.730469 37.613281 0 C 35.847656 2.035156 34.238281 4.074219 33.277344 6.148438 C 34.929688 3.804688 37.152344 2.535156 39.648438 1.652344 C 36.308594 4.609375 33.660156 7.835938 31.667969 11.027344 L 30.054688 10.335938 C 30.324219 7.761719 31.28125 5.148438 32.703125 2.613281 Z M 32.703125 2.613281 "/>
<path style=" stroke:none;fill-rule:nonzero;fill:rgb(96.078432%,97.254902%,87.058824%);fill-opacity:1;" d="M 28.445312 9.644531 L 31.476562 10.910156 C 31.476562 11.679688 31.398438 14.0625 31.898438 14.753906 C 36.960938 21.285156 36.117188 34.421875 30.859375 34.730469 C 22.878906 34.730469 19.8125 29.3125 19.8125 24.320312 C 19.8125 19.746094 25.257812 16.75 28.519531 14.0625 C 29.402344 13.332031 29.25 11.71875 28.445312 9.644531 Z M 28.445312 9.644531 "/>
<path style=" stroke:none;fill-rule:nonzero;fill:rgb(49.411765%,27.843139%,59.607846%);fill-opacity:1;" d="M 31.476562 10.871094 L 32.585938 11.449219 C 32.472656 12.179688 32.625 13.792969 33.355469 14.175781 C 36.578125 16.175781 39.570312 18.324219 40.761719 20.515625 C 44.980469 28.160156 37.804688 35.269531 31.550781 34.578125 C 34.929688 32.082031 35.925781 26.933594 34.660156 21.285156 C 34.160156 19.09375 33.355469 17.097656 31.933594 14.828125 C 31.320312 13.792969 31.550781 12.410156 31.476562 10.871094 Z M 31.476562 10.871094 "/>
<path style=" stroke:none;fill-rule:nonzero;fill:rgb(0.392157%,0.392157%,0.392157%);fill-opacity:1;" d="M 30.246094 14.523438 C 30.015625 15.714844 29.75 17.863281 28.710938 18.671875 C 28.289062 18.980469 27.828125 19.285156 27.371094 19.59375 C 25.488281 20.863281 23.648438 22.054688 22.804688 25.089844 C 22.613281 25.742188 22.765625 26.433594 22.917969 27.085938 C 23.378906 28.96875 24.683594 30.964844 25.71875 32.15625 C 25.71875 32.195312 25.910156 32.347656 25.910156 32.386719 C 26.753906 33.386719 27.023438 33.695312 30.246094 34.421875 L 30.171875 34.769531 C 28.214844 34.269531 26.640625 33.769531 25.605469 32.617188 C 25.605469 32.578125 25.414062 32.425781 25.414062 32.425781 C 24.339844 31.195312 22.996094 29.121094 22.535156 27.164062 C 22.34375 26.394531 22.191406 25.78125 22.417969 24.972656 C 23.300781 21.820312 25.222656 20.554688 27.140625 19.25 C 27.5625 18.980469 28.097656 18.710938 28.519531 18.363281 C 29.402344 17.789062 29.824219 15.984375 30.246094 14.523438 Z M 30.246094 14.523438 "/>
<path style=" stroke:none;fill-rule:nonzero;fill:rgb(0.392157%,0.392157%,0.392157%);fill-opacity:1;" d="M 31.089844 19.515625 C 31.128906 20.863281 30.976562 21.554688 31.320312 22.515625 C 31.511719 23.089844 32.242188 23.859375 32.433594 24.625 C 32.703125 25.625 33.007812 26.738281 33.007812 27.429688 C 33.007812 28.199219 32.972656 29.660156 32.625 31.195312 C 32.355469 32.464844 31.78125 33.578125 30.785156 34.191406 C 29.75 34 28.558594 33.617188 27.867188 33.003906 C 26.488281 31.8125 25.296875 29.8125 25.144531 28.085938 C 25.027344 26.664062 26.332031 24.550781 28.175781 23.511719 C 29.710938 22.589844 30.09375 21.589844 30.4375 19.902344 C 29.976562 21.359375 29.519531 22.550781 28.023438 23.359375 C 25.835938 24.511719 24.722656 26.394531 24.835938 28.238281 C 24.992188 30.582031 25.910156 32.15625 27.753906 33.425781 C 28.519531 33.960938 29.976562 34.539062 30.898438 34.691406 L 30.898438 34.578125 C 31.589844 34.460938 32.472656 33.308594 32.933594 31.8125 C 33.316406 30.429688 33.46875 28.699219 33.429688 27.585938 C 33.394531 26.933594 33.125 25.550781 32.585938 24.28125 C 32.320312 23.589844 31.859375 22.898438 31.589844 22.398438 C 31.246094 21.820312 31.246094 20.746094 31.089844 19.515625 Z M 31.089844 19.515625 "/>
<path style=" stroke:none;fill-rule:nonzero;fill:rgb(0.392157%,0.392157%,0.392157%);fill-opacity:1;" d="M 30.859375 24.78125 C 30.898438 25.703125 31.246094 26.855469 31.398438 28.046875 C 31.511719 28.929688 31.476562 29.8125 31.4375 30.582031 C 31.398438 31.464844 31.128906 33.078125 30.707031 33.886719 C 30.324219 33.695312 30.171875 33.5 29.902344 33.195312 C 29.59375 32.773438 29.363281 32.3125 29.171875 31.8125 C 29.019531 31.425781 28.828125 30.964844 28.75 30.464844 C 28.636719 29.699219 28.675781 28.46875 29.554688 27.238281 C 30.246094 26.242188 30.402344 26.164062 30.628906 25.050781 C 30.324219 26.046875 30.09375 26.164062 29.363281 27.007812 C 28.558594 27.929688 28.445312 29.3125 28.445312 30.429688 C 28.445312 30.890625 28.636719 31.425781 28.828125 31.886719 C 29.019531 32.386719 29.210938 32.925781 29.480469 33.308594 C 29.902344 33.925781 30.4375 34.308594 30.707031 34.347656 L 30.707031 34.308594 C 31.207031 33.730469 31.511719 33.195312 31.628906 32.617188 C 31.742188 31.925781 31.78125 31.273438 31.859375 30.464844 C 31.933594 29.773438 31.898438 28.890625 31.703125 27.96875 C 31.476562 26.816406 31.050781 25.625 30.859375 24.78125 Z M 30.859375 24.78125 "/>
<path style=" stroke:none;fill-rule:nonzero;fill:rgb(0.392157%,0.392157%,0.392157%);fill-opacity:1;" d="M 31.015625 13.445312 C 31.050781 14.792969 31.128906 17.289062 31.511719 18.289062 C 31.628906 18.632812 32.585938 20.09375 33.238281 21.898438 C 33.699219 23.128906 33.816406 24.28125 33.890625 24.625 C 34.199219 26.085938 33.816406 28.585938 33.316406 30.925781 C 33.046875 32.195312 32.164062 33.769531 31.167969 34.386719 L 30.976562 34.730469 C 31.550781 34.691406 32.933594 33.347656 33.429688 31.621094 C 34.277344 28.738281 34.582031 27.394531 34.199219 24.164062 C 34.160156 23.859375 34.007812 22.78125 33.507812 21.667969 C 32.777344 19.941406 31.742188 18.289062 31.628906 17.941406 C 31.359375 17.402344 31.050781 15.023438 31.015625 13.445312 Z M 31.015625 13.445312 "/>
<path style=" stroke:none;fill-rule:nonzero;fill:rgb(0.392157%,0.392157%,0.392157%);fill-opacity:1;" d="M 31.476562 10.988281 C 31.398438 12.371094 31.398438 13.445312 31.628906 14.484375 C 31.898438 15.597656 33.355469 17.210938 33.96875 19.054688 C 35.121094 22.589844 34.8125 27.199219 34.007812 30.773438 C 33.699219 32.042969 32.242188 33.886719 30.746094 34.460938 L 31.820312 34.730469 C 32.394531 34.691406 33.929688 33.269531 34.542969 31.65625 C 35.503906 29.082031 35.695312 26.046875 35.3125 22.820312 C 35.273438 22.515625 34.773438 19.746094 34.277344 18.59375 C 33.585938 16.867188 32.472656 15.636719 32.089844 14.5625 C 31.78125 13.753906 31.667969 11.601562 31.859375 11.179688 Z M 31.476562 10.988281 "/>
<path style=" stroke:none;fill-rule:nonzero;fill:rgb(49.411765%,27.843139%,59.607846%);fill-opacity:1;" d="M 1.585938 3.382812 L 22.34375 3.382812 C 23.109375 3.382812 23.800781 4.035156 23.800781 4.839844 L 23.800781 10.988281 C 23.800781 11.792969 23.109375 12.449219 22.34375 12.449219 L 18.085938 12.449219 C 17.125 12.449219 16.703125 12.984375 16.703125 13.601562 L 16.703125 33.695312 C 16.703125 34.386719 16.164062 34.882812 15.511719 34.882812 L 8.453125 34.882812 C 7.800781 34.882812 7.300781 34.386719 7.300781 33.695312 L 7.300781 13.410156 C 7.300781 12.792969 6.726562 12.410156 6.304688 12.410156 L 1.585938 12.410156 C 0.78125 12.410156 0.128906 11.757812 0.128906 10.949219 L 0.128906 4.800781 C 0.128906 4.035156 0.78125 3.382812 1.585938 3.382812 Z M 1.585938 3.382812 "/>
<path style=" stroke:none;fill-rule:nonzero;fill:rgb(49.411765%,27.843139%,59.607846%);fill-opacity:1;" d="M 54.839844 11.527344 L 56.683594 11.527344 C 57.375 11.527344 57.910156 12.0625 57.910156 12.714844 L 57.910156 19.285156 C 57.910156 20.132812 57.949219 20.476562 56.914062 20.476562 C 54.878906 20.476562 53.957031 21.554688 53.957031 22.746094 L 53.957031 33.847656 C 53.957031 34.347656 53.460938 34.808594 52.882812 34.808594 L 46.285156 34.808594 C 45.710938 34.808594 45.210938 34.386719 45.210938 33.847656 L 45.210938 21.207031 C 45.210938 20.976562 45.210938 20.667969 45.25 20.476562 C 45.59375 15.789062 49.277344 12.0625 53.921875 11.5625 C 54.035156 11.5625 54.574219 11.527344 54.839844 11.527344 Z M 54.839844 11.527344 "/>
<path style=" stroke:none;fill-rule:nonzero;fill:rgb(0.392157%,0.392157%,0.392157%);fill-opacity:1;" d="M 39.148438 17.789062 C 38.035156 16.789062 36.65625 15.945312 35.195312 15.136719 C 34.542969 14.792969 32.550781 13.214844 33.238281 10.988281 L 28.214844 8.914062 L 27.867188 9.183594 C 29.554688 12.21875 28.675781 13.832031 27.828125 14.367188 C 26.140625 15.519531 23.6875 16.980469 22.496094 18.25 C 20.15625 20.667969 19.464844 22.976562 19.695312 25.972656 C 19.925781 29.851562 22.726562 33.078125 26.523438 34.347656 C 28.175781 34.882812 29.710938 34.960938 31.398438 34.960938 C 34.121094 34.960938 36.960938 34.230469 38.996094 32.542969 C 41.183594 30.734375 42.449219 28.007812 42.449219 25.203125 C 42.449219 22.398438 41.257812 19.710938 39.148438 17.789062 Z M 38.417969 31.964844 C 36.539062 33.5 33.164062 34.578125 31.359375 34.5 C 29.363281 34.386719 27.40625 34.078125 25.679688 33.234375 C 22.648438 31.773438 20.65625 28.582031 20.5 26.011719 C 20.234375 20.746094 22.765625 19.25 25.105469 17.328125 C 26.410156 16.25 28.25 15.714844 29.289062 13.792969 C 29.480469 13.371094 29.59375 12.449219 29.363281 11.488281 C 29.25 11.140625 28.789062 9.988281 28.597656 9.71875 L 32.355469 11.371094 C 31.898438 13.101562 33.316406 14.90625 34.46875 15.558594 C 35.617188 16.214844 37.421875 17.441406 38.535156 18.441406 C 40.492188 20.171875 41.488281 22.628906 41.488281 25.203125 C 41.488281 27.777344 40.414062 30.3125 38.417969 31.964844 Z M 38.417969 31.964844 "/>
</g>
</svg>
