<svg xmlns="http://www.w3.org/2000/svg" width="494" height="98" viewBox="0 0 494 98" version="1.1"><path d="M 36 30.500 L 56.482 51 36 71.500 L 15.518 92 60.759 92 L 106 92 106 51 L 106 10 60.759 10 L 15.518 10 36 30.500 M 52.500 35 L 68.477 51 52.500 67 L 36.523 83 66.762 83 L 97 83 97 51 L 97 19 66.762 19 L 36.523 19 52.500 35 M 282.270 31.421 C 277.843 33.430, 274.764 38.560, 275.406 42.856 C 276.244 48.457, 278.416 50.605, 286.204 53.538 C 290.217 55.050, 294.063 56.727, 294.750 57.266 C 296.488 58.627, 296.312 62.545, 294.429 64.429 C 292.595 66.262, 283.655 66.580, 279.402 64.963 C 276.465 63.846, 275.576 64.331, 274.597 67.587 C 274.068 69.345, 274.580 69.857, 277.850 70.837 C 283.156 72.427, 292.349 72.299, 296.466 70.579 C 300.532 68.880, 303 64.567, 303 59.160 C 303 53.697, 300.809 51.514, 291.500 47.703 C 284.084 44.667, 283.477 44.198, 283.192 41.280 C 282.755 36.826, 285.499 35.584, 294.173 36.311 C 300.808 36.868, 301.008 36.816, 301.616 34.395 C 301.959 33.026, 301.962 31.628, 301.621 31.288 C 300.204 29.871, 285.463 29.972, 282.270 31.421 M 353.500 31.476 C 346.902 34.550, 343.443 39.491, 342.360 47.387 C 341.071 56.798, 346.293 67.553, 353.643 70.624 C 358.442 72.629, 366.387 72.353, 370.956 70.023 C 377.567 66.650, 381.011 60.012, 380.978 50.703 C 380.944 41.082, 376.716 33.731, 369.685 31.067 C 365.769 29.583, 357.092 29.802, 353.500 31.476 M 135 31.801 C 135 32.308, 138.073 41.448, 141.829 52.111 L 148.658 71.500 152.264 71.806 C 154.943 72.034, 156.121 71.643, 156.849 70.283 C 158.158 67.836, 171 32.875, 171 31.757 C 171 31.274, 169.367 31.019, 167.370 31.190 L 163.741 31.500 159.861 42.500 C 157.728 48.550, 155.234 55.518, 154.319 57.983 L 152.656 62.467 147.501 46.983 L 142.345 31.500 138.672 31.190 C 136.653 31.019, 135 31.294, 135 31.801 M 179 51.563 L 179 72.127 182.250 71.813 L 185.500 71.500 185.771 51.250 L 186.041 31 182.521 31 L 179 31 179 51.563 M 197 51.392 L 197 72 200.500 72 L 204 72 204 63.440 L 204 54.879 207.742 55.190 C 211.306 55.485, 211.696 55.889, 215.992 63.738 C 220.394 71.783, 220.588 71.977, 224.250 71.988 C 226.313 71.995, 228 71.775, 228 71.501 C 228 71.226, 225.794 67.341, 223.098 62.867 L 218.196 54.733 222.098 51.021 C 225.540 47.747, 226 46.763, 226 42.671 C 226 38.961, 225.417 37.379, 223.091 34.776 L 220.182 31.520 208.591 31.152 L 197 30.784 197 51.392 M 234.200 46.750 C 234.711 64.067, 235.755 67.819, 240.767 70.342 C 248.077 74.022, 258.838 72.864, 263.614 67.883 L 266.500 64.874 266.816 47.937 L 267.132 31 264.066 31 L 261 31 260.976 43.250 C 260.950 56.921, 259.956 62.828, 257.364 64.723 C 255.087 66.388, 246.884 66.367, 244.592 64.691 C 242.119 62.883, 241.095 56.549, 241.044 42.750 L 241 31 237.368 31 L 233.736 31 234.200 46.750 M 310 34 C 310 36.999, 310.003 37, 315.976 37 L 321.953 37 322.226 54.250 L 322.500 71.500 326 71.500 L 329.500 71.500 329.774 54.250 L 330.047 37 336.024 37 C 341.997 37, 342 36.999, 342 34 L 342 31 326 31 L 310 31 310 34 M 383 34 C 383 36.999, 383.003 37, 388.976 37 L 394.953 37 395.226 54.250 L 395.500 71.500 398.726 71.812 L 401.952 72.123 402.226 54.812 L 402.500 37.500 408.750 37.202 C 414.938 36.908, 415 36.875, 415 33.952 L 415 31 399 31 L 383 31 383 34 M 426.296 36.704 C 424.300 42.119, 415.044 66.360, 413.487 70.250 C 412.896 71.726, 413.360 72, 416.448 72 C 419.925 72, 420.233 71.723, 422.542 66.500 L 424.975 61 432.744 61 L 440.514 61 442.536 66.250 C 444.445 71.206, 444.774 71.518, 448.414 71.818 C 453.007 72.198, 453.466 74.573, 444.190 50 L 437.206 31.500 432.819 31.204 L 428.432 30.908 426.296 36.704 M 459 51.528 L 459 72.056 472.750 71.778 L 486.500 71.500 486.813 68.250 L 487.127 65 476.563 65 L 466 65 466 48 L 466 31 462.500 31 L 459 31 459 51.528 M 354.770 37.966 C 350.965 40.960, 349.721 45.056, 350.175 53.099 C 350.545 59.643, 350.846 60.473, 353.805 63.117 C 356.464 65.493, 357.925 66, 362.115 66 C 366.475 66, 367.597 65.573, 370.006 62.994 C 375.231 57.401, 375.203 44.049, 369.956 38.802 C 367.642 36.489, 366.292 36, 362.212 36 C 358.812 36, 356.490 36.614, 354.770 37.966 M 204 43 L 204 49 209.066 49 C 211.852 49, 214.950 48.562, 215.951 48.026 C 218.612 46.602, 219.402 42.262, 217.523 39.394 C 216.157 37.311, 215.178 37, 209.977 37 L 204 37 204 43 M 429.639 46.996 C 428.187 50.911, 427 54.314, 427 54.557 C 427 54.801, 429.475 55, 432.500 55 C 435.525 55, 438 54.567, 438 54.038 C 438 52.653, 433.892 41.653, 433.015 40.689 C 432.609 40.242, 431.090 43.081, 429.639 46.996" stroke="none" fill="#4151f0" fill-rule="evenodd"/><path d="M 0 49.002 L 0 98.004 247.250 97.752 L 494.500 97.500 494.760 48.750 L 495.019 0 247.510 0 L 0 0 0 49.002 M 0.463 49.500 C 0.463 76.450, 0.592 87.331, 0.749 73.681 C 0.907 60.030, 0.906 37.980, 0.749 24.681 C 0.592 11.381, 0.463 22.550, 0.463 49.500 M 36 30.500 L 56.482 51 36 71.500 L 15.518 92 60.759 92 L 106 92 106 51 L 106 10 60.759 10 L 15.518 10 36 30.500 M 52.500 35 L 68.477 51 52.500 67 L 36.523 83 66.762 83 L 97 83 97 51 L 97 19 66.762 19 L 36.523 19 52.500 35 M 282.270 31.421 C 277.843 33.430, 274.764 38.560, 275.406 42.856 C 276.244 48.457, 278.416 50.605, 286.204 53.538 C 290.217 55.050, 294.063 56.727, 294.750 57.266 C 296.488 58.627, 296.312 62.545, 294.429 64.429 C 292.595 66.262, 283.655 66.580, 279.402 64.963 C 276.465 63.846, 275.576 64.331, 274.597 67.587 C 274.068 69.345, 274.580 69.857, 277.850 70.837 C 283.156 72.427, 292.349 72.299, 296.466 70.579 C 300.532 68.880, 303 64.567, 303 59.160 C 303 53.697, 300.809 51.514, 291.500 47.703 C 284.084 44.667, 283.477 44.198, 283.192 41.280 C 282.755 36.826, 285.499 35.584, 294.173 36.311 C 300.808 36.868, 301.008 36.816, 301.616 34.395 C 301.959 33.026, 301.962 31.628, 301.621 31.288 C 300.204 29.871, 285.463 29.972, 282.270 31.421 M 353.500 31.476 C 346.902 34.550, 343.443 39.491, 342.360 47.387 C 341.071 56.798, 346.293 67.553, 353.643 70.624 C 358.442 72.629, 366.387 72.353, 370.956 70.023 C 377.567 66.650, 381.011 60.012, 380.978 50.703 C 380.944 41.082, 376.716 33.731, 369.685 31.067 C 365.769 29.583, 357.092 29.802, 353.500 31.476 M 135 31.801 C 135 32.308, 138.073 41.448, 141.829 52.111 L 148.658 71.500 152.264 71.806 C 154.943 72.034, 156.121 71.643, 156.849 70.283 C 158.158 67.836, 171 32.875, 171 31.757 C 171 31.274, 169.367 31.019, 167.370 31.190 L 163.741 31.500 159.861 42.500 C 157.728 48.550, 155.234 55.518, 154.319 57.983 L 152.656 62.467 147.501 46.983 L 142.345 31.500 138.672 31.190 C 136.653 31.019, 135 31.294, 135 31.801 M 179 51.563 L 179 72.127 182.250 71.813 L 185.500 71.500 185.771 51.250 L 186.041 31 182.521 31 L 179 31 179 51.563 M 197 51.392 L 197 72 200.500 72 L 204 72 204 63.440 L 204 54.879 207.742 55.190 C 211.306 55.485, 211.696 55.889, 215.992 63.738 C 220.394 71.783, 220.588 71.977, 224.250 71.988 C 226.313 71.995, 228 71.775, 228 71.501 C 228 71.226, 225.794 67.341, 223.098 62.867 L 218.196 54.733 222.098 51.021 C 225.540 47.747, 226 46.763, 226 42.671 C 226 38.961, 225.417 37.379, 223.091 34.776 L 220.182 31.520 208.591 31.152 L 197 30.784 197 51.392 M 234.200 46.750 C 234.711 64.067, 235.755 67.819, 240.767 70.342 C 248.077 74.022, 258.838 72.864, 263.614 67.883 L 266.500 64.874 266.816 47.937 L 267.132 31 264.066 31 L 261 31 260.976 43.250 C 260.950 56.921, 259.956 62.828, 257.364 64.723 C 255.087 66.388, 246.884 66.367, 244.592 64.691 C 242.119 62.883, 241.095 56.549, 241.044 42.750 L 241 31 237.368 31 L 233.736 31 234.200 46.750 M 310 34 C 310 36.999, 310.003 37, 315.976 37 L 321.953 37 322.226 54.250 L 322.500 71.500 326 71.500 L 329.500 71.500 329.774 54.250 L 330.047 37 336.024 37 C 341.997 37, 342 36.999, 342 34 L 342 31 326 31 L 310 31 310 34 M 383 34 C 383 36.999, 383.003 37, 388.976 37 L 394.953 37 395.226 54.250 L 395.500 71.500 398.726 71.812 L 401.952 72.123 402.226 54.812 L 402.500 37.500 408.750 37.202 C 414.938 36.908, 415 36.875, 415 33.952 L 415 31 399 31 L 383 31 383 34 M 426.296 36.704 C 424.300 42.119, 415.044 66.360, 413.487 70.250 C 412.896 71.726, 413.360 72, 416.448 72 C 419.925 72, 420.233 71.723, 422.542 66.500 L 424.975 61 432.744 61 L 440.514 61 442.536 66.250 C 444.445 71.206, 444.774 71.518, 448.414 71.818 C 453.007 72.198, 453.466 74.573, 444.190 50 L 437.206 31.500 432.819 31.204 L 428.432 30.908 426.296 36.704 M 459 51.528 L 459 72.056 472.750 71.778 L 486.500 71.500 486.813 68.250 L 487.127 65 476.563 65 L 466 65 466 48 L 466 31 462.500 31 L 459 31 459 51.528 M 354.770 37.966 C 350.965 40.960, 349.721 45.056, 350.175 53.099 C 350.545 59.643, 350.846 60.473, 353.805 63.117 C 356.464 65.493, 357.925 66, 362.115 66 C 366.475 66, 367.597 65.573, 370.006 62.994 C 375.231 57.401, 375.203 44.049, 369.956 38.802 C 367.642 36.489, 366.292 36, 362.212 36 C 358.812 36, 356.490 36.614, 354.770 37.966 M 204 43 L 204 49 209.066 49 C 211.852 49, 214.950 48.562, 215.951 48.026 C 218.612 46.602, 219.402 42.262, 217.523 39.394 C 216.157 37.311, 215.178 37, 209.977 37 L 204 37 204 43 M 429.639 46.996 C 428.187 50.911, 427 54.314, 427 54.557 C 427 54.801, 429.475 55, 432.500 55 C 435.525 55, 438 54.567, 438 54.038 C 438 52.653, 433.892 41.653, 433.015 40.689 C 432.609 40.242, 431.090 43.081, 429.639 46.996" stroke="none" fill="#f8f9fb" fill-rule="evenodd"/></svg>