<?xml version="1.0" encoding="UTF-8"?>
<svg xmlns="http://www.w3.org/2000/svg" xmlns:xlink="http://www.w3.org/1999/xlink" width="517px" height="100px" viewBox="0 0 517 100" version="1.1">
<g id="surface1">
<path style=" stroke:none;fill-rule:nonzero;fill:rgb(22.352941%,30.588235%,100%);fill-opacity:1;" d="M 145.382812 72.203125 L 129.707031 27.613281 L 137.867188 27.613281 L 149.785156 63.027344 C 150.699219 59.816406 152.167969 55.503906 162.160156 27.613281 L 170.316406 27.613281 L 153.910156 72.203125 Z M 178.015625 72.203125 L 178.015625 27.707031 L 185.625 27.707031 L 185.625 72.203125 Z M 274.632812 53.484375 C 274.632812 59.542969 274.082031 63.394531 272.433594 66.238281 C 269.867188 70.734375 264.457031 73.210938 256.574219 73.210938 C 249.148438 73.210938 243.648438 71.007812 241.082031 66.054688 C 239.523438 63.210938 238.976562 58.992188 238.976562 53.945312 L 238.976562 27.707031 L 246.582031 27.707031 L 246.582031 53.761719 C 246.582031 57.429688 246.859375 60 247.5 61.652344 C 248.601562 64.496094 251.351562 66.695312 256.941406 66.695312 C 261.800781 66.695312 264.734375 65.046875 266.199219 62.019531 C 266.933594 60.457031 267.667969 57.523438 267.667969 53.851562 L 267.667969 27.707031 L 274.632812 27.707031 Z M 284.257812 63.667969 C 287.648438 65.230469 292.050781 66.695312 297.183594 66.695312 C 303.234375 66.695312 306.351562 64.496094 306.351562 60.550781 C 306.351562 57.523438 305.25 55.871094 299.382812 53.851562 L 293.148438 51.742188 C 286.640625 49.542969 283.617188 45.6875 283.617188 39.359375 C 283.617188 32.570312 288.933594 26.605469 300.390625 26.605469 C 304.882812 26.605469 309.285156 27.339844 312.859375 28.625 L 311.207031 34.953125 C 307.542969 33.761719 303.140625 32.9375 299.476562 32.9375 C 293.332031 32.9375 291.589844 36.148438 291.589844 38.808594 C 291.589844 41.46875 292.417969 43.304688 297.550781 44.953125 L 303.785156 47.15625 C 311.390625 49.726562 314.050781 53.761719 314.050781 59.542969 C 314.050781 66.605469 309.191406 72.9375 297.183594 72.9375 C 291.589844 72.9375 286.183594 71.652344 282.332031 69.816406 Z M 335.042969 72.203125 L 335.042969 34.679688 L 321.75 34.679688 L 321.75 27.707031 L 356.035156 27.707031 L 356.035156 34.679688 L 342.742188 34.679688 L 342.742188 72.203125 Z M 414.515625 72.203125 L 414.515625 34.679688 L 401.226562 34.679688 L 401.226562 27.707031 L 435.507812 27.707031 L 435.507812 34.679688 L 422.214844 34.679688 L 422.214844 72.203125 Z M 377.667969 73.121094 C 364.742188 73.121094 356.582031 62.292969 356.582031 49.449219 C 356.582031 35.320312 364.832031 26.695312 378.765625 26.695312 C 392.148438 26.695312 399.117188 37.0625 399.207031 49.449219 C 399.300781 62.203125 391.234375 73.121094 377.667969 73.121094 Z M 378.214844 33.121094 C 369.417969 33.121094 364.648438 38.625 364.648438 49.542969 C 364.648438 62.84375 370.425781 66.695312 378.035156 66.695312 C 385.917969 66.695312 391.234375 61.835938 391.234375 49.910156 C 391.417969 39.359375 388.390625 33.121094 378.214844 33.121094 Z M 433.949219 72.203125 L 451.089844 27.613281 L 459.890625 27.613281 L 476.574219 72.203125 L 468.417969 72.203125 L 463.925781 60.550781 L 446.601562 60.550781 L 442.015625 72.292969 L 433.949219 72.292969 Z M 461.910156 54.035156 L 455.492188 35.78125 C 454.484375 38.808594 453.292969 42.292969 448.707031 54.035156 Z M 483.910156 72.203125 L 483.910156 27.707031 L 492.160156 27.707031 L 492.160156 65.503906 L 514.339844 65.230469 L 514.433594 72.203125 Z M 0 5.414062 L 44.640625 50 L 0 94.496094 L 98.542969 94.496094 L 98.542969 5.414062 Z M 89.007812 84.953125 L 22.457031 84.953125 L 57.660156 50 L 22.457031 14.953125 L 89.007812 14.953125 Z M 220.734375 52.9375 C 227.332031 50.734375 229.898438 46.054688 229.898438 40.367188 C 229.898438 34.21875 226.691406 30.367188 222.015625 28.898438 C 219.265625 28.074219 215.324219 27.707031 211.476562 27.707031 L 197.726562 27.707031 L 197.726562 72.292969 L 205.332031 72.292969 L 205.332031 54.035156 L 207.898438 53.851562 C 211.292969 53.851562 212.941406 54.21875 213.675781 54.128906 L 223.667969 72.203125 L 232.101562 72.203125 Z M 218.714844 46.878906 C 216.882812 47.890625 214.226562 48.164062 211.015625 48.164062 L 205.332031 48.164062 L 205.332031 34.035156 L 211.109375 34.035156 C 214.132812 34.035156 216.425781 34.128906 218.167969 34.769531 C 220.550781 35.6875 221.832031 37.796875 221.832031 40.824219 C 221.742188 43.578125 220.734375 45.78125 218.714844 46.878906 Z M 218.714844 46.878906 "/>
</g>
</svg>
