<?xml version="1.0" encoding="UTF-8"?>
<svg xmlns="http://www.w3.org/2000/svg" xmlns:xlink="http://www.w3.org/1999/xlink" width="252px" height="50px" viewBox="0 0 252 50" version="1.1">
<g id="surface1">
<path style=" stroke:none;fill-rule:evenodd;fill:rgb(25.490196%,31.764706%,94.117647%);fill-opacity:1;" d="M 18.363281 15.5625 L 28.8125 26.019531 L 18.363281 36.480469 L 7.917969 46.9375 L 54.074219 46.9375 L 54.074219 5.101562 L 7.917969 5.101562 L 18.363281 15.5625 M 26.78125 17.855469 L 34.929688 26.019531 L 18.632812 42.347656 L 49.480469 42.347656 L 49.480469 9.695312 L 18.632812 9.695312 L 26.78125 17.855469 M 143.992188 16.03125 C 141.734375 17.054688 140.164062 19.671875 140.492188 21.867188 C 140.917969 24.722656 142.027344 25.820312 146 27.316406 C 148.046875 28.085938 150.007812 28.941406 150.359375 29.21875 C 151.246094 29.910156 151.15625 31.910156 150.195312 32.871094 C 149.257812 33.808594 144.699219 33.96875 142.527344 33.144531 C 141.03125 32.574219 140.578125 32.820312 140.078125 34.484375 C 139.808594 35.378906 140.070312 35.640625 141.738281 36.140625 C 144.445312 36.953125 149.132812 36.886719 151.234375 36.007812 C 153.308594 35.144531 154.566406 32.941406 154.566406 30.183594 C 154.566406 27.394531 153.449219 26.28125 148.699219 24.339844 C 144.917969 22.789062 144.609375 22.550781 144.460938 21.0625 C 144.238281 18.789062 145.640625 18.15625 150.0625 18.527344 C 153.449219 18.808594 153.550781 18.785156 153.859375 17.546875 C 154.035156 16.851562 154.039062 16.136719 153.863281 15.964844 C 153.140625 15.242188 145.621094 15.292969 143.992188 16.03125 M 180.328125 16.058594 C 176.960938 17.628906 175.199219 20.148438 174.644531 24.175781 C 173.988281 28.980469 176.652344 34.464844 180.402344 36.03125 C 182.847656 37.054688 186.902344 36.914062 189.234375 35.726562 C 192.605469 34.003906 194.363281 30.617188 194.34375 25.867188 C 194.328125 20.960938 192.171875 17.210938 188.585938 15.851562 C 186.585938 15.09375 182.160156 15.207031 180.328125 16.058594 M 68.867188 16.226562 C 68.867188 16.484375 70.433594 21.148438 72.351562 26.585938 L 75.832031 36.480469 L 77.671875 36.636719 C 79.039062 36.753906 79.640625 36.550781 80.011719 35.859375 C 80.679688 34.609375 87.230469 16.773438 87.230469 16.203125 C 87.230469 15.957031 86.398438 15.824219 85.378906 15.914062 L 83.527344 16.070312 L 81.546875 21.683594 C 80.460938 24.769531 79.1875 28.324219 78.722656 29.582031 L 77.875 31.871094 L 75.242188 23.972656 L 72.613281 16.070312 L 70.738281 15.914062 C 69.710938 15.824219 68.867188 15.964844 68.867188 16.226562 M 91.3125 26.308594 L 91.3125 36.800781 L 92.96875 36.640625 L 94.628906 36.480469 L 94.902344 15.816406 L 91.3125 15.816406 L 91.3125 26.308594 M 100.492188 26.21875 L 100.492188 36.734375 L 104.066406 36.734375 L 104.066406 28 L 105.972656 28.15625 C 107.792969 28.308594 107.992188 28.515625 110.183594 32.519531 C 112.425781 36.625 112.527344 36.722656 114.394531 36.730469 C 115.445312 36.730469 116.308594 36.621094 116.308594 36.480469 C 116.308594 36.339844 115.183594 34.359375 113.808594 32.074219 L 111.304688 27.925781 L 113.296875 26.03125 C 115.054688 24.359375 115.289062 23.859375 115.289062 21.769531 C 115.289062 19.878906 114.988281 19.070312 113.804688 17.742188 L 112.320312 16.082031 L 100.492188 15.707031 L 100.492188 26.21875 M 119.46875 23.851562 C 119.730469 32.6875 120.265625 34.601562 122.820312 35.890625 C 126.550781 37.765625 132.039062 37.175781 134.476562 34.632812 L 135.949219 33.097656 L 136.269531 15.816406 L 133.140625 15.816406 L 133.128906 22.066406 C 133.117188 29.042969 132.609375 32.054688 131.285156 33.023438 C 130.125 33.871094 125.941406 33.859375 124.773438 33.003906 C 123.511719 32.082031 122.988281 28.851562 122.960938 21.8125 L 122.9375 15.816406 L 119.234375 15.816406 L 119.46875 23.851562 M 158.136719 17.347656 C 158.136719 18.878906 158.140625 18.878906 161.1875 18.878906 L 164.234375 18.878906 L 164.515625 36.480469 L 168.085938 36.480469 L 168.226562 27.679688 L 168.363281 18.878906 L 171.414062 18.878906 C 174.460938 18.878906 174.460938 18.878906 174.460938 17.347656 L 174.460938 15.816406 L 158.136719 15.816406 L 158.136719 17.347656 M 195.375 17.347656 C 195.375 18.878906 195.378906 18.878906 198.425781 18.878906 L 201.472656 18.878906 L 201.753906 36.480469 L 203.398438 36.640625 L 205.042969 36.796875 L 205.324219 19.132812 L 208.511719 18.980469 C 211.667969 18.832031 211.699219 18.8125 211.699219 17.324219 L 211.699219 15.816406 L 195.375 15.816406 L 195.375 17.347656 M 217.460938 18.726562 C 216.445312 21.488281 211.722656 33.855469 210.929688 35.84375 C 210.628906 36.59375 210.863281 36.734375 212.4375 36.734375 C 214.210938 36.734375 214.371094 36.59375 215.546875 33.929688 L 216.789062 31.121094 L 224.714844 31.121094 L 225.746094 33.800781 C 226.722656 36.328125 226.890625 36.488281 228.746094 36.640625 C 231.089844 36.835938 231.324219 38.046875 226.589844 25.511719 L 223.027344 16.070312 L 220.789062 15.921875 L 218.550781 15.769531 L 217.460938 18.726562 M 234.144531 26.289062 L 234.144531 36.761719 L 248.175781 36.480469 L 248.332031 34.820312 L 248.492188 33.164062 L 237.714844 33.164062 L 237.714844 15.816406 L 234.144531 15.816406 L 234.144531 26.289062 M 180.976562 19.371094 C 179.035156 20.898438 178.398438 22.988281 178.632812 27.089844 C 178.820312 30.429688 178.972656 30.855469 180.484375 32.203125 C 181.839844 33.414062 182.585938 33.671875 184.722656 33.671875 C 186.945312 33.671875 187.519531 33.457031 188.746094 32.140625 C 191.414062 29.285156 191.398438 22.472656 188.722656 19.796875 C 187.542969 18.617188 186.851562 18.367188 184.773438 18.367188 C 183.039062 18.367188 181.851562 18.679688 180.976562 19.371094 M 104.066406 21.9375 L 104.066406 25 L 106.648438 25 C 108.070312 25 109.652344 24.777344 110.160156 24.503906 C 111.519531 23.777344 111.921875 21.5625 110.964844 20.097656 C 110.265625 19.035156 109.765625 18.878906 107.113281 18.878906 L 104.066406 18.878906 L 104.066406 21.9375 M 219.167969 23.976562 C 218.425781 25.976562 217.820312 27.710938 217.820312 27.835938 C 217.820312 27.960938 219.085938 28.0625 220.628906 28.0625 C 222.171875 28.0625 223.433594 27.839844 223.433594 27.570312 C 223.433594 26.863281 221.335938 21.25 220.890625 20.757812 C 220.683594 20.53125 219.910156 21.980469 219.167969 23.976562 "/>
</g>
</svg>
