<?xml version="1.0" encoding="UTF-8"?>
<svg xmlns="http://www.w3.org/2000/svg" xmlns:xlink="http://www.w3.org/1999/xlink" width="299px" height="100px" viewBox="0 0 298 100" version="1.1">
<g id="surface1">
<path style=" stroke:none;fill-rule:evenodd;fill:rgb(20.392157%,51.764709%,98.823529%);fill-opacity:1;" d="M 269.660156 63.617188 C 266.199219 64.558594 264.15625 68.269531 265.144531 71.816406 C 265.636719 73.59375 267.742188 75.707031 269.511719 76.199219 C 272.230469 76.960938 275.199219 75.890625 276.832031 73.5625 C 277.496094 72.613281 277.660156 72.078125 277.746094 70.554688 C 277.875 68.277344 277.484375 67.015625 276.230469 65.621094 C 274.5 63.699219 272.074219 62.960938 269.660156 63.617188 "/>
<path style=" stroke:none;fill-rule:evenodd;fill:rgb(1.568628%,1.568628%,1.568628%);fill-opacity:1;" d="M 219.59375 49.730469 L 219.59375 75.675781 L 227.945312 75.675781 L 227.945312 63.699219 C 227.945312 50.871094 228.046875 49.609375 229.273438 46.890625 C 230.292969 44.632812 231.457031 43.40625 233.554688 42.371094 C 235.21875 41.546875 235.535156 41.488281 238.042969 41.492188 C 240.273438 41.496094 240.980469 41.605469 242.089844 42.113281 C 245.035156 43.457031 246.96875 46.46875 247.738281 50.914062 C 248.066406 52.816406 248.152344 55.632812 248.152344 64.496094 L 248.152344 75.675781 L 256.507812 75.675781 L 256.496094 64.527344 C 256.484375 49.289062 256.195312 46.554688 254.097656 42.015625 C 252.253906 38.03125 248.964844 35.222656 244.890625 34.148438 C 242.617188 33.554688 237.875 33.554688 235.386719 34.15625 C 232.980469 34.738281 230.132812 36.25 228.316406 37.917969 L 226.867188 39.242188 L 226.867188 23.785156 L 219.59375 23.785156 L 219.59375 49.730469 M 95.53125 33.941406 C 88.867188 35.433594 83.351562 40.242188 80.863281 46.71875 C 79.78125 49.53125 79.398438 51.753906 79.390625 55.269531 C 79.367188 63.015625 82.867188 69.84375 88.855469 73.722656 C 95.847656 78.257812 105.621094 78.035156 112.007812 73.199219 L 113.679688 71.929688 L 113.757812 74.003906 L 113.839844 76.082031 L 117.945312 76.15625 L 122.054688 76.230469 L 122.054688 34.324219 L 113.703125 34.324219 L 113.703125 38.753906 L 112.828125 37.910156 C 111.476562 36.601562 108.9375 35.1875 106.5625 34.417969 C 103.789062 33.515625 98.460938 33.289062 95.53125 33.941406 M 171.96875 48.3125 C 172.078125 63.847656 172.054688 63.613281 173.96875 67.566406 C 174.695312 69.066406 175.484375 70.125 176.996094 71.628906 C 179.335938 73.960938 181.210938 75.046875 184.707031 76.101562 C 186.8125 76.738281 187.617188 76.835938 190.898438 76.855469 C 193.730469 76.871094 195.140625 76.753906 196.554688 76.386719 C 201.917969 74.988281 206.042969 71.808594 208.152344 67.445312 C 210.050781 63.519531 210.164062 62.382812 210.164062 47.261719 L 210.164062 34.324219 L 201.828125 34.324219 L 201.753906 47.90625 L 201.675781 61.488281 L 201.03125 63.09375 C 199.851562 66.03125 197.316406 68.140625 194.027344 68.917969 C 192.011719 69.394531 188.355469 69.136719 186.316406 68.375 C 184.171875 67.574219 181.9375 65.335938 181.035156 63.089844 L 180.390625 61.488281 L 180.3125 47.90625 L 180.230469 34.324219 L 171.867188 34.324219 L 171.96875 48.3125 M 20.207031 34.78125 C 20.207031 34.925781 29.226562 64.648438 32.0625 73.859375 L 32.628906 75.691406 L 35.90625 75.617188 L 39.183594 75.539062 L 43.773438 61.285156 C 46.296875 53.441406 48.433594 47.027344 48.519531 47.027344 C 48.605469 47.027344 50.734375 53.441406 53.25 61.285156 L 57.828125 75.539062 L 61.085938 75.617188 L 64.347656 75.691406 L 64.898438 73.996094 C 65.605469 71.824219 76.472656 36.09375 76.6875 35.238281 L 76.847656 34.59375 L 72.929688 34.59375 C 70.773438 34.59375 68.949219 34.691406 68.878906 34.804688 C 68.804688 34.921875 66.976562 40.851562 64.808594 47.980469 C 62.644531 55.113281 60.78125 61.238281 60.667969 61.59375 C 60.46875 62.21875 60.101562 61.085938 52.625 36.6875 L 51.980469 34.59375 L 45.078125 34.59375 L 40.964844 48.039062 C 38.703125 55.4375 36.765625 61.578125 36.664062 61.691406 C 36.558594 61.804688 34.609375 55.757812 32.332031 48.246094 L 28.1875 34.59375 L 24.199219 34.59375 C 22.003906 34.59375 20.207031 34.679688 20.207031 34.78125 M 131.605469 34.949219 C 131.53125 35.140625 131.503906 36.8125 131.546875 38.664062 L 131.621094 42.027344 L 141.882812 42.164062 L 152.144531 42.296875 L 140.738281 58.347656 C 133.4375 68.617188 129.332031 74.628906 129.332031 75.035156 L 129.332031 75.675781 L 164.089844 75.675781 L 164.089844 68.378906 L 153.3125 68.378906 C 147.382812 68.378906 142.535156 68.320312 142.535156 68.253906 C 142.535156 68.183594 147.625 60.957031 153.851562 52.199219 C 162.902344 39.457031 165.167969 36.101562 165.167969 35.429688 L 165.167969 34.59375 L 148.453125 34.59375 C 134.953125 34.59375 131.714844 34.664062 131.605469 34.949219 M 96.8125 41.910156 C 89.492188 44.238281 85.804688 52.632812 88.601562 60.617188 C 90.445312 65.875 95.289062 69.1875 101.132812 69.1875 C 107.300781 69.1875 112.550781 64.851562 113.855469 58.679688 C 115.503906 50.875 111.472656 43.605469 104.453125 41.730469 C 102.421875 41.1875 98.820312 41.273438 96.8125 41.910156 "/>
</g>
</svg>
