<?xml version="1.0" ?>
<!-- Uploaded to: SVG Repo, www.svgrepo.com, Generator: SVG Repo Mixer Tools -->
<svg width="800px" height="800px" viewBox="0 0 512 512" id="Layer_1" version="1.1" xml:space="preserve" xmlns="http://www.w3.org/2000/svg" xmlns:xlink="http://www.w3.org/1999/xlink">
<style type="text/css">
	.st0{fill:#2B79C2;}
	.st1{fill:#3B4652;}
	.st2{fill:#333333;}
</style>
<g>
<g>
<path class="st1" d="M487.1,251c-1.1-1.3-26.2-32.8-67.2-64.7c-54.7-42.6-111.3-65-163.9-65s-109.3,22.5-163.9,65    c-41,31.9-66.2,63.4-67.2,64.7c-2.3,2.9-2.3,7,0,10c1.1,1.3,26.2,32.8,67.2,64.7c54.7,42.6,111.3,65,163.9,65s109.3-22.5,163.9-65    c41-31.9,66.2-63.4,67.2-64.7C489.4,258.1,489.4,253.9,487.1,251z M317.4,318.2c0,7.4-6,13.5-13.5,13.5h-95.8    c-7.5,0-13.5-6-13.5-13.5v-78.7c0-7.3,5.7-13.2,12.9-13.5V179c0-1.7,0.2-3.4,0.5-5.1c2.4-12.4,13.4-21.5,26.1-21.5h43.8    c14.6,0,26.6,11.9,26.6,26.6v47.1c7.2,0.3,12.9,6.2,12.9,13.5V318.2z M41.6,256c8.7-10,30.4-33.8,60.6-57.3    c21.5-16.7,50.1-35.3,82.7-47.6c-33.6,22.8-55.6,61.3-55.6,104.9s22.1,82.1,55.6,104.9c-32.6-12.3-61.2-30.9-82.7-47.6    C72,289.8,50.3,266,41.6,256z M409.8,313.3c-21.5,16.7-50.1,35.3-82.7,47.6c33.6-22.8,55.6-61.3,55.6-104.9s-22.1-82.1-55.6-104.9    c32.6,12.3,61.2,30.9,82.7,47.6c30.2,23.5,51.9,47.2,60.6,57.3C461.7,266,440,289.8,409.8,313.3z"/>
<path class="st1" d="M277.9,168.4h-43.8c-5,0-9.4,3.6-10.4,8.5c-0.1,0.7-0.2,1.4-0.2,2v47.1h64.9V179    C288.5,173.1,283.7,168.4,277.9,168.4z"/>
<path class="st0" d="M256,254.2c-10.2,0-18.5,8.3-18.5,18.6c0,0.5,0,1,0.1,1.4c0,0.2,0,0.3,0,0.5c0,0.3,0.1,0.6,0.1,1    c1,6.1,4.9,11.2,10.3,13.8v14.2c0,4.4,3.6,8,8,8s8-3.6,8-8v-14.2c5.7-2.7,9.8-8.2,10.5-14.8c0-0.2,0-0.3,0-0.5    c0.1-0.5,0.1-1,0.1-1.4C274.6,262.4,266.3,254.2,256,254.2z"/>
</g>
<g>
<g>
<g>
<path class="st0" d="M256,89.7c-4.4,0-8-3.6-8-8V42.4c0-4.4,3.6-8,8-8s8,3.6,8,8v39.3C264,86.1,260.4,89.7,256,89.7z"/>
</g>
<g>
<g>
<path class="st0" d="M104,135.6c-2,0-4.1-0.8-5.7-2.3L67,102c-3.1-3.1-3.1-8.2,0-11.3c3.1-3.1,8.2-3.1,11.3,0l31.3,31.3       c3.1,3.1,3.1,8.2,0,11.3C108.1,134.9,106,135.6,104,135.6z"/>
</g>
<g>
<path class="st0" d="M408,135.6c-2,0-4.1-0.8-5.7-2.3c-3.1-3.1-3.1-8.2,0-11.3l31.3-31.3c3.1-3.1,8.2-3.1,11.3,0       c3.1,3.1,3.1,8.2,0,11.3l-31.3,31.3C412.1,134.9,410,135.6,408,135.6z"/>
</g>
</g>
</g>
<g>
<g>
<path class="st0" d="M256,477.6c-4.4,0-8-3.6-8-8v-39.3c0-4.4,3.6-8,8-8s8,3.6,8,8v39.3C264,474.1,260.4,477.6,256,477.6z"/>
</g>
<g>
<g>
<path class="st0" d="M72.7,423.7c-2,0-4.1-0.8-5.7-2.3c-3.1-3.1-3.1-8.2,0-11.3l31.3-31.3c3.1-3.1,8.2-3.1,11.3,0       c3.1,3.1,3.1,8.2,0,11.3l-31.3,31.3C76.8,422.9,74.7,423.7,72.7,423.7z"/>
</g>
<g>
<path class="st0" d="M439.3,423.7c-2,0-4.1-0.8-5.7-2.3L402.3,390c-3.1-3.1-3.1-8.2,0-11.3c3.1-3.1,8.2-3.1,11.3,0L445,410       c3.1,3.1,3.1,8.2,0,11.3C443.4,422.9,441.4,423.7,439.3,423.7z"/>
</g>
</g>
</g>
</g>
</g>
</svg>