<?xml version="1.0" ?>
<!-- Uploaded to: SVG Repo, www.svgrepo.com, Generator: SVG Repo Mixer Tools -->
<svg width="800px" height="800px" viewBox="0 0 512 512" id="Layer_1" version="1.1" xml:space="preserve" xmlns="http://www.w3.org/2000/svg" xmlns:xlink="http://www.w3.org/1999/xlink">
<style type="text/css">
	.st0{fill:#2B79C2;}
	.st1{fill:#3B4652;}
	.st2{fill:#333333;}
</style>
<g>
<path class="st2" d="M164.6,188.8v112.3l7.6,4.2l90.3,50l78.4-50l6.6-4.2V188.8H164.6z M325.8,230.8c-0.9,14.1-12.4,25.5-26.5,26.3   c-13.5,0.8-25.1-8-28.7-20.2h-29.1c-3.6,12.2-15.2,21-28.7,20.2c-14.1-0.8-25.6-12.2-26.5-26.3c-1-16.4,12-30.1,28.2-30.1   c12.8,0,23.6,8.5,27.1,20.2h29.1c3.5-11.7,14.3-20.2,27.1-20.2C313.8,200.8,326.9,214.4,325.8,230.8z"/>
<path class="st2" d="M148.6,219.3v70H84v-48c0-12.1,9.8-22,22-22H148.6z"/>
<path class="st2" d="M428,241.3v48h-64.6v-70H406C418.2,219.3,428,229.2,428,241.3z"/>
<path class="st2" d="M148.6,219.3v70H84v-48c0-12.1,9.8-22,22-22H148.6z"/>
<path class="st0" d="M148.6,219.3v70H84v-48c0-12.1,9.8-22,22-22H148.6z"/>
<path class="st2" d="M428,241.3v48h-64.6v-70H406C418.2,219.3,428,229.2,428,241.3z"/>
<path class="st0" d="M428,241.3v48h-64.6v-70H406C418.2,219.3,428,229.2,428,241.3z"/>
<path class="st1" d="M377,156.8h-20.5L300.3,47.1c-1.2-2.4-3.6-4-6.3-4.3c-2.7-0.3-5.4,0.9-7.1,3l-34.1,42.9L218,42.8   c-1.7-2.3-4.5-3.5-7.3-3.1c-2.8,0.3-5.3,2.2-6.4,4.8l-48.6,112.4H135c-4.4,0-8,3.6-8,8s3.6,8,8,8h25.9c0,0,0,0,0,0c0,0,0,0,0,0   h190.6c0,0,0,0,0,0c0,0,0,0,0,0H377c4.4,0,8-3.6,8-8S381.4,156.8,377,156.8z"/>
<path class="st0" d="M164.6,188.8v112.3l7.6,4.2l90.3,50l78.4-50l6.6-4.2V188.8H164.6z M325.8,230.8c-0.9,14.1-12.4,25.5-26.5,26.3   c-13.5,0.8-25.1-8-28.7-20.2h-29.1c-3.6,12.2-15.2,21-28.7,20.2c-14.1-0.8-25.6-12.2-26.5-26.3c-1-16.4,12-30.1,28.2-30.1   c12.8,0,23.6,8.5,27.1,20.2h29.1c3.5-11.7,14.3-20.2,27.1-20.2C313.8,200.8,326.9,214.4,325.8,230.8z"/>
<path class="st1" d="M363.4,305.3v4.6l-100.4,64l-114.5-63.4v-5.2H84v145c0,12.1,9.8,22,22,22h300c12.2,0,22-9.9,22-22v-145H363.4z    M353.1,411.3H158.9c-4.4,0-8-3.6-8-8s3.6-8,8-8h194.1c4.4,0,8,3.6,8,8S357.5,411.3,353.1,411.3z"/>
</g>
</svg>