<?xml version="1.0" ?>
<!-- Uploaded to: SVG Repo, www.svgrepo.com, Generator: SVG Repo Mixer Tools -->
<svg width="800px" height="800px" viewBox="0 0 512 512" id="Layer_1" version="1.1" xml:space="preserve" xmlns="http://www.w3.org/2000/svg" xmlns:xlink="http://www.w3.org/1999/xlink">
<style type="text/css">
	.st0{fill:#2B79C2;}
	.st1{fill:#3B4652;}
	.st2{fill:#333333;}
</style>
<g>
<path class="st1" d="M183.8,250v-50.8H86.2V250c-33,17.5-55.5,52.2-55.5,92.2c0,57.6,46.7,104.3,104.3,104.3   c57.6,0,104.3-46.7,104.3-104.3C239.3,302.3,216.8,267.6,183.8,250z M135,400.6c-32.2,0-58.3-26.1-58.3-58.3   c0-32.2,26.1-58.3,58.3-58.3c32.2,0,58.3,26.1,58.3,58.3C193.3,374.5,167.2,400.6,135,400.6z"/>
<path class="st1" d="M425.8,250v-50.8h-97.7V250c-33,17.5-55.5,52.2-55.5,92.2c0,57.6,46.7,104.3,104.3,104.3   c57.6,0,104.3-46.7,104.3-104.3C481.3,302.3,458.8,267.6,425.8,250z M377,400.6c-32.2,0-58.3-26.1-58.3-58.3   c0-32.2,26.1-58.3,58.3-58.3c32.2,0,58.3,26.1,58.3,58.3C435.3,374.5,409.2,400.6,377,400.6z"/>
<path class="st0" d="M167,166.6h-23.8c2.8-48.2,43.1-85.2,94-85.2h37.7c50.9,0,91.2,37,94,85.2H345v16.7h64v-16.7h-24v0   c0-0.7-0.1-1.4-0.3-2c-3.8-56.2-50.7-99.1-109.9-99.1h-37.7c-59.2,0-106.1,43-109.9,99.1c-0.2,0.6-0.3,1.3-0.3,2v0h-24v16.7h64   V166.6z"/>
</g>
</svg>