<?xml version="1.0" ?>
<!-- Uploaded to: SVG Repo, www.svgrepo.com, Generator: SVG Repo Mixer Tools -->
<svg width="800px" height="800px" viewBox="0 0 512 512" id="Layer_1" version="1.1" xml:space="preserve" xmlns="http://www.w3.org/2000/svg" xmlns:xlink="http://www.w3.org/1999/xlink">
<style type="text/css">
	.st0{fill:#2B79C2;}
	.st1{fill:#3B4652;}
	.st2{fill:#333333;}
</style>
<g>
<path class="st1" d="M471.9,249.3l-61.7-61.7l-5.7-5.7V84.6c0-4.9-4-9-9-9h-40.9c-4.9,0-9,4-9,9v38.5L261.7,39   c-3.1-3.1-8.2-3.1-11.3,0L101.7,187.6l-61.7,61.7c-3.1,3.1-3.1,8.2,0,11.3c1.6,1.6,3.6,2.3,5.7,2.3s4.1-0.8,5.7-2.3l48-48v254.8   c0,4.4,3.6,8,8,8h297.2c4.4,0,8-3.6,8-8V212.5l48,48c1.6,1.6,3.6,2.3,5.7,2.3s4.1-0.8,5.7-2.3C475.1,257.4,475.1,252.4,471.9,249.3   z M363.6,426.4H148.4V210.2L256,102.6l107.6,107.6V426.4z"/>
<path class="st0" d="M217.4,242.9v34.3h-8.1c-3.8,0-6.9,3.1-6.9,6.9v67c0,2.5,1.4,4.8,3.6,6l46.7,26c2.1,1.2,4.7,1.2,6.7,0l46.7-26   c2.2-1.2,3.6-3.5,3.6-6v-67c0-3.8-3.1-6.9-6.9-6.9h-8.1v-34.3c0-21.3-17.3-38.6-38.6-38.6S217.4,221.6,217.4,242.9z M264,336.8   c0,4.4-3.6,8-8,8s-8-3.6-8-8v-22.7c0-4.4,3.6-8,8-8s8,3.6,8,8V336.8z M278.6,242.9v34.3h-45.2v-34.3c0-12.5,10.1-22.6,22.6-22.6   S278.6,230.4,278.6,242.9z"/>
</g>
</svg>