<?xml version="1.0" ?>
<!-- Uploaded to: SVG Repo, www.svgrepo.com, Generator: SVG Repo Mixer Tools -->
<svg width="800px" height="800px" viewBox="0 0 512 512" id="Layer_1" version="1.1" xml:space="preserve" xmlns="http://www.w3.org/2000/svg" xmlns:xlink="http://www.w3.org/1999/xlink">
<style type="text/css">
	.st0{fill:#2B79C2;}
	.st1{fill:#3B4652;}
	.st2{fill:#333333;}
</style>
<g>
<path class="st1" d="M414,139.6c-2.5,0.3-5,0.5-7.6,0.5c-24.5,0-45.6-14.9-54.6-36.1c-3.1-7.1-4.8-15-4.8-23.3c0-2,0.1-3.9,0.3-5.8   H164.7c0.2,1.9,0.3,3.8,0.3,5.8c0,8.3-1.7,16.1-4.8,23.3c-9.1,21.2-30.1,36.1-54.6,36.1c-2.6,0-5.1-0.2-7.6-0.5   c1,28.1-18.2,199.6,158,255.5C432.2,339.2,413,167.7,414,139.6z M347.9,251.4c-16.5,41.8-46.7,71-91.9,88.9   c-45.3-17.9-75.4-47.1-91.9-88.9c-9.5-24.1-13-48.9-14.1-69c24.7-10.8,45.2-30.4,56.7-55.9h98.7c11.5,25.5,32,45.1,56.7,55.9   C360.9,202.6,357.4,227.3,347.9,251.4z"/>
<path class="st0" d="M306.6,205.9l-31.4-4.6c-1-0.1-1.9-0.8-2.3-1.7l-14-28.5c-1.1-2.3-4.4-2.3-5.5,0l-14,28.5   c-0.5,0.9-1.3,1.5-2.3,1.7l-31.4,4.6c-2.5,0.4-3.6,3.5-1.7,5.3l22.7,22.2c0.7,0.7,1.1,1.7,0.9,2.7l-5.4,31.3   c-0.4,2.5,2.2,4.5,4.5,3.3l28.1-14.8c0.9-0.5,2-0.5,2.9,0l28.1,14.8c2.3,1.2,4.9-0.7,4.5-3.3l-5.4-31.3c-0.2-1,0.2-2,0.9-2.7   l22.7-22.2C310.1,209.4,309.1,206.3,306.6,205.9z"/>
<path class="st0" d="M490.1,251.5c-4.3-1.1-8.6,1.6-9.7,5.8l-3.2,12.8l-23.3-23.3l35.9-32.9c3.3-3,3.5-8,0.5-11.3   c-3-3.3-8-3.5-11.3-0.5L437,240.8c-1.6,1.5-2.5,3.5-2.6,5.7s0.8,4.3,2.3,5.8l28.4,28.4l-10.8,1.9c-4.3,0.8-7.2,4.9-6.5,9.3   c0.7,3.9,4.1,6.6,7.9,6.6c0.5,0,0.9,0,1.4-0.1l25.9-4.6c0,0,0,0,0,0c0.3-0.1,0.7-0.1,1-0.3c0.1,0,0.2-0.1,0.2-0.1   c0.3-0.1,0.5-0.2,0.8-0.3c0.1,0,0.1,0,0.2-0.1c0.3-0.2,0.6-0.3,0.9-0.5c0.1-0.1,0.2-0.1,0.2-0.2c0.2-0.1,0.4-0.3,0.6-0.5   c0.1-0.1,0.2-0.1,0.2-0.2c0,0,0.1-0.1,0.1-0.1c0.2-0.2,0.4-0.4,0.6-0.6c0-0.1,0.1-0.1,0.1-0.2c0.2-0.2,0.3-0.4,0.5-0.7   c0.1-0.1,0.1-0.2,0.2-0.3c0.2-0.3,0.3-0.5,0.4-0.8c0,0,0-0.1,0-0.1c0.1-0.3,0.2-0.6,0.3-1c0,0,0-0.1,0-0.1l6.6-26.6   C497,256.9,494.3,252.6,490.1,251.5z"/>
<path class="st0" d="M417.5,390.1c-4.3-1.1-8.6,1.6-9.7,5.8l-3.2,12.8l-23.3-23.3l35.9-32.9c3.3-3,3.5-8,0.5-11.3   c-3-3.3-8-3.5-11.3-0.5l-42.1,38.6c-1.6,1.5-2.5,3.5-2.6,5.7s0.8,4.3,2.3,5.8l28.4,28.4l-10.8,1.9c-4.3,0.8-7.2,4.9-6.5,9.3   c0.7,3.9,4.1,6.6,7.9,6.6c0.5,0,0.9,0,1.4-0.1l25.9-4.6c0,0,0,0,0,0c0.3-0.1,0.7-0.1,1-0.3c0.1,0,0.2-0.1,0.2-0.1   c0.3-0.1,0.5-0.2,0.8-0.3c0.1,0,0.1,0,0.2-0.1c0.3-0.2,0.6-0.3,0.9-0.5c0.1-0.1,0.2-0.1,0.2-0.2c0.2-0.1,0.4-0.3,0.6-0.5   c0.1-0.1,0.2-0.1,0.2-0.2c0,0,0.1-0.1,0.1-0.1c0.2-0.2,0.4-0.4,0.6-0.6c0-0.1,0.1-0.1,0.1-0.2c0.2-0.2,0.3-0.4,0.5-0.7   c0.1-0.1,0.1-0.2,0.2-0.3c0.2-0.3,0.3-0.5,0.4-0.8c0,0,0-0.1,0-0.1c0.1-0.3,0.2-0.6,0.3-1c0,0,0-0.1,0-0.1l6.6-26.6   C424.4,395.5,421.8,391.2,417.5,390.1z"/>
<path class="st0" d="M33,202.2c-3.3-3-8.3-2.8-11.3,0.5c-3,3.3-2.8,8.3,0.5,11.3l35.9,32.9l-23.3,23.3l-3.2-12.8   c-1.1-4.3-5.4-6.9-9.7-5.8c-4.3,1.1-6.9,5.4-5.8,9.7l6.6,26.6c0,0,0,0.1,0,0.1c0.1,0.3,0.2,0.6,0.3,1c0,0,0,0.1,0,0.1   c0.1,0.3,0.3,0.5,0.4,0.8c0.1,0.1,0.1,0.2,0.2,0.3c0.1,0.2,0.3,0.5,0.5,0.7c0,0.1,0.1,0.1,0.1,0.2c0.2,0.2,0.4,0.4,0.6,0.6   c0,0,0.1,0.1,0.1,0.1c0.1,0.1,0.2,0.2,0.2,0.2c0.2,0.2,0.4,0.3,0.6,0.5c0.1,0.1,0.2,0.1,0.2,0.2c0.3,0.2,0.6,0.4,0.9,0.5   c0.1,0,0.1,0,0.2,0.1c0.3,0.1,0.5,0.2,0.8,0.3c0.1,0,0.2,0.1,0.2,0.1c0.3,0.1,0.7,0.2,1,0.3c0,0,0,0,0,0l25.9,4.6   c0.5,0.1,1,0.1,1.4,0.1c3.8,0,7.2-2.7,7.9-6.6c0.8-4.3-2.1-8.5-6.5-9.3l-10.8-1.9l28.4-28.4c1.5-1.5,2.4-3.6,2.3-5.8   s-1-4.2-2.6-5.7L33,202.2z"/>
<path class="st0" d="M105.5,340.8c-3.3-3-8.3-2.8-11.3,0.5s-2.8,8.3,0.5,11.3l35.9,32.9l-23.3,23.3l-3.2-12.8   c-1.1-4.3-5.4-6.9-9.7-5.8c-4.3,1.1-6.9,5.4-5.8,9.7l6.6,26.6c0,0,0,0.1,0,0.1c0.1,0.3,0.2,0.6,0.3,1c0,0,0,0.1,0,0.1   c0.1,0.3,0.3,0.5,0.4,0.8c0.1,0.1,0.1,0.2,0.2,0.3c0.1,0.2,0.3,0.5,0.5,0.7c0,0.1,0.1,0.1,0.1,0.2c0.2,0.2,0.4,0.4,0.6,0.6   c0,0,0.1,0.1,0.1,0.1c0.1,0.1,0.2,0.2,0.2,0.2c0.2,0.2,0.4,0.3,0.6,0.5c0.1,0.1,0.2,0.1,0.2,0.2c0.3,0.2,0.6,0.4,0.9,0.5   c0.1,0,0.1,0,0.2,0.1c0.3,0.1,0.5,0.2,0.8,0.3c0.1,0,0.2,0.1,0.2,0.1c0.3,0.1,0.7,0.2,1,0.3c0,0,0,0,0,0l25.9,4.6   c0.5,0.1,1,0.1,1.4,0.1c3.8,0,7.2-2.7,7.9-6.6c0.8-4.3-2.1-8.5-6.5-9.3l-10.8-1.9l28.4-28.4c1.5-1.5,2.4-3.6,2.3-5.8   s-1-4.2-2.6-5.7L105.5,340.8z"/>
</g>
</svg>