<?xml version="1.0" ?>
<!-- Uploaded to: SVG Repo, www.svgrepo.com, Generator: SVG Repo Mixer Tools -->
<svg width="800px" height="800px" viewBox="0 0 512 512" id="Layer_1" version="1.1" xml:space="preserve" xmlns="http://www.w3.org/2000/svg" xmlns:xlink="http://www.w3.org/1999/xlink">
<style type="text/css">
	.st0{fill:#2B79C2;}
	.st1{fill:#3B4652;}
	.st2{fill:#333333;}
</style>
<g>
<path class="st0" d="M183,151.5v78.7c0,7.6,6.1,13.7,13.7,13.7H452c7.6,0,13.7-6.1,13.7-13.7v-78.7c0-7.6-6.1-13.7-13.7-13.7H196.7   C189.1,137.8,183,143.9,183,151.5z M238.8,192.4c-0.1,0.5-0.3,1-0.5,1.5s-0.4,0.9-0.7,1.4c-0.3,0.4-0.6,0.9-1,1.2   c-0.4,0.4-0.8,0.7-1.2,1c-0.4,0.3-0.9,0.5-1.4,0.7c-0.5,0.2-1,0.4-1.5,0.5c-0.5,0.1-1,0.1-1.6,0.1c-0.5,0-1,0-1.6-0.1   c-0.5-0.1-1-0.3-1.5-0.5c-0.5-0.2-0.9-0.5-1.4-0.7c-0.4-0.3-0.8-0.6-1.2-1c-1.5-1.5-2.3-3.6-2.3-5.7c0-0.5,0-1,0.1-1.6   c0.1-0.5,0.3-1,0.5-1.5c0.2-0.5,0.5-0.9,0.7-1.4s0.6-0.8,1-1.2s0.8-0.7,1.2-1c0.4-0.3,0.9-0.5,1.4-0.7c0.5-0.2,1-0.4,1.5-0.5   c1-0.2,2.1-0.2,3.1,0c0.5,0.1,1,0.3,1.5,0.5c0.5,0.2,0.9,0.4,1.4,0.7c0.4,0.3,0.8,0.6,1.2,1c0.4,0.4,0.7,0.8,1,1.2s0.5,0.9,0.7,1.4   c0.2,0.5,0.4,1,0.5,1.5c0.1,0.5,0.2,1,0.2,1.6S238.9,191.9,238.8,192.4z M283.3,196.5c-1.5,1.5-3.5,2.3-5.6,2.3   c-0.5,0-1.1,0-1.6-0.1c-0.5-0.1-1-0.3-1.5-0.5c-0.5-0.2-1-0.5-1.4-0.7c-0.4-0.3-0.8-0.6-1.2-1c-1.5-1.5-2.3-3.6-2.3-5.7   c0-0.5,0-1,0.1-1.6c0.1-0.5,0.3-1,0.5-1.5c0.2-0.5,0.5-0.9,0.7-1.4s0.6-0.9,1-1.2c0.4-0.4,0.8-0.7,1.2-1c0.4-0.3,0.9-0.5,1.4-0.7   c0.5-0.2,1-0.4,1.5-0.5c2.6-0.5,5.4,0.3,7.2,2.2c0.4,0.4,0.7,0.8,1,1.2s0.5,0.9,0.7,1.4c0.2,0.5,0.3,1,0.5,1.5   c0.1,0.5,0.2,1,0.2,1.6C285.6,192.9,284.8,195,283.3,196.5z M332.2,192.4c-0.1,0.5-0.3,1-0.5,1.5c-0.2,0.5-0.5,0.9-0.7,1.4   c-0.3,0.4-0.6,0.9-1,1.2c-0.4,0.4-0.8,0.7-1.2,1c-0.4,0.3-0.9,0.5-1.4,0.7c-0.5,0.2-1,0.4-1.5,0.5c-0.5,0.1-1,0.1-1.6,0.1   c-2.1,0-4.2-0.9-5.7-2.3c-0.4-0.4-0.7-0.8-1-1.2c-0.3-0.4-0.5-0.9-0.7-1.4c-0.2-0.5-0.3-1-0.5-1.5c-0.1-0.5-0.2-1-0.2-1.6   s0.1-1,0.2-1.6c0.1-0.5,0.3-1,0.5-1.5c0.2-0.5,0.5-0.9,0.7-1.4s0.6-0.9,1-1.2c1.9-1.9,4.6-2.7,7.2-2.2c0.5,0.1,1,0.3,1.5,0.5   c0.5,0.2,1,0.4,1.4,0.7c0.4,0.3,0.8,0.6,1.2,1c0.4,0.4,0.7,0.8,1,1.2s0.5,0.9,0.7,1.4c0.2,0.5,0.3,1,0.5,1.5c0.1,0.5,0.2,1,0.2,1.6   S332.3,191.9,332.2,192.4z M378.9,192.4c-0.1,0.5-0.3,1-0.5,1.5c-0.2,0.5-0.5,0.9-0.7,1.4c-0.3,0.4-0.6,0.9-1,1.2   c-0.4,0.4-0.8,0.7-1.2,1c-0.4,0.3-0.9,0.5-1.4,0.7c-0.5,0.2-1,0.4-1.5,0.5c-0.5,0.1-1,0.1-1.6,0.1c-0.5,0-1,0-1.6-0.1   c-0.5-0.1-1-0.3-1.5-0.5c-0.5-0.2-0.9-0.5-1.4-0.7c-0.4-0.3-0.9-0.6-1.2-1c-0.4-0.4-0.7-0.8-1-1.2c-0.3-0.4-0.5-0.9-0.7-1.4   c-0.2-0.5-0.4-1-0.5-1.5c-0.1-0.5-0.2-1-0.2-1.6s0.1-1,0.2-1.6c0.1-0.5,0.3-1,0.5-1.5c0.2-0.5,0.4-0.9,0.7-1.4s0.6-0.8,1-1.2   c0.4-0.4,0.8-0.7,1.2-1c0.4-0.3,0.9-0.5,1.4-0.7c0.5-0.2,1-0.4,1.5-0.5c1-0.2,2.1-0.2,3.1,0c0.5,0.1,1,0.3,1.5,0.5   c0.5,0.2,0.9,0.4,1.4,0.7c0.4,0.3,0.8,0.6,1.2,1s0.7,0.8,1,1.2s0.5,0.9,0.7,1.4c0.2,0.5,0.3,1,0.5,1.5c0.1,0.5,0.1,1,0.1,1.6   S379,191.9,378.9,192.4z M425.6,192.4c-0.1,0.5-0.3,1-0.5,1.5c-0.2,0.5-0.4,0.9-0.7,1.4c-0.3,0.4-0.6,0.9-1,1.2   c-0.4,0.4-0.8,0.7-1.2,1c-0.4,0.3-0.9,0.5-1.4,0.7c-0.5,0.2-1,0.4-1.5,0.5c-0.5,0.1-1,0.1-1.6,0.1c-0.5,0-1,0-1.6-0.1   c-0.5-0.1-1-0.3-1.5-0.5c-0.5-0.2-0.9-0.5-1.4-0.7c-0.4-0.3-0.8-0.6-1.2-1c-0.4-0.4-0.7-0.8-1-1.2c-0.3-0.4-0.5-0.9-0.7-1.4   c-0.2-0.5-0.4-1-0.5-1.5c-0.1-0.5-0.2-1-0.2-1.6s0.1-1,0.2-1.6c0.1-0.5,0.3-1,0.5-1.5c0.2-0.5,0.5-0.9,0.7-1.4   c0.3-0.4,0.6-0.9,1-1.2c0.4-0.4,0.8-0.7,1.2-1c0.4-0.3,0.9-0.5,1.4-0.7c0.5-0.2,1-0.4,1.5-0.5c1-0.2,2.1-0.2,3.1,0   c0.5,0.1,1,0.3,1.5,0.5c0.5,0.2,0.9,0.4,1.4,0.7c0.4,0.3,0.8,0.6,1.2,1c0.4,0.4,0.7,0.8,1,1.2c0.3,0.4,0.5,0.9,0.7,1.4   c0.2,0.5,0.4,1,0.5,1.5c0.1,0.5,0.2,1,0.2,1.6S425.7,191.9,425.6,192.4z"/>
<path class="st1" d="M167,259.9V121.8h160.6c-5.8-11.6-13.4-22.2-22.5-31.3c-22-22-58.6-37.9-106.7-35.1   c-65.8,3.9-118.5,55.5-118.5,121.4V232l-31.7,31.7c-4,4-1.2,10.9,4.5,10.9h27.2v59.7c0,28,22.7,50.6,50.6,50.6h73.5v56.5   c0,8.5,6.9,15.5,15.5,15.5h99.3c8.5,0,15.5-6.9,15.5-15.5V259.9H167z M282.6,288.8H183c-4.4,0-8-3.6-8-8s3.6-8,8-8h99.6   c4.4,0,8,3.6,8,8S287,288.8,282.6,288.8z"/>
</g>
</svg>