<?xml version="1.0" ?>
<!-- Uploaded to: SVG Repo, www.svgrepo.com, Generator: SVG Repo Mixer Tools -->
<svg width="800px" height="800px" viewBox="0 0 512 512" id="Layer_1" version="1.1" xml:space="preserve" xmlns="http://www.w3.org/2000/svg" xmlns:xlink="http://www.w3.org/1999/xlink">
<style type="text/css">
	.st0{fill:#2B79C2;}
	.st1{fill:#3B4652;}
	.st2{fill:#333333;}
</style>
<g>
<path class="st1" d="M178,242.4l-76-63.3c1.7,21.8,5.6,42.9,11.5,63c4.2,14.3,9.4,28.1,15.5,41.2L178,242.4z"/>
<path class="st1" d="M242.4,273l-73,73c22.8,26.4,50.3,47.4,81,61.1c27.3-12.2,52.1-30.1,73.4-52.6l-0.7-0.7L242.4,273z"/>
<path class="st1" d="M269.6,239l87.4-87.4c-11.1-10.2-18-24.8-18-41.1c0-1.8,0.1-3.7,0.3-5.4H164.2c0.2,1.8,0.3,3.6,0.3,5.4   c0,6.9-1.3,13.6-3.6,19.7L269.6,239z"/>
<path class="st1" d="M392.8,220.5L334,269.6l31.5,26.2C377.7,272.8,387,247.5,392.8,220.5z"/>
<path class="st0" d="M397,196.1l39-32.6l31.8,31.8l8.6-110.9l-110.9,8.6l36.4,36.4L261.6,269.6l72.8,72.8l74.8,74.8   c5.7,5.7,14.8,5.7,20.5,0l14.5-14.5c6-6,5.6-15.9-1-21.4L357.5,310L309,269.6L397,196.1L397,196.1z"/>
<path class="st0" d="M250.4,242.4l-97.6-97.7l-50-50c-5.7-5.7-14.8-5.7-20.5,0l-14.5,14.5c-6,6-5.6,15.9,1,21.4l42.9,35.7l91.3,76   L136.4,298L76,348.4l-31.8-31.8l-8.6,110.9l110.9-8.6l-36.4-36.4l49.1-49.1L250.4,242.4z"/>
</g>
</svg>