<?xml version="1.0" ?>
<!-- Uploaded to: SVG Repo, www.svgrepo.com, Generator: SVG Repo Mixer Tools -->
<svg width="800px" height="800px" viewBox="0 0 512 512" id="Layer_1" version="1.1" xml:space="preserve" xmlns="http://www.w3.org/2000/svg" xmlns:xlink="http://www.w3.org/1999/xlink">
<style type="text/css">
	.st0{fill:#2B79C2;}
	.st1{fill:#3B4652;}
	.st2{fill:#333333;}
</style>
<g>
<path class="st0" d="M239.5,125.3c-85.3,7.4-152.6,71.3-157.1,150.4c15.7-23,58-24.6,76.6-6.4c0.4-58.6,23.7-95.4,44.2-116.5   C216.4,139.2,229.8,130.5,239.5,125.3z"/>
<path class="st0" d="M309.1,152.7c20.8,21.3,44.5,59,44.2,119.2c18.4-20.5,60.4-19.9,76.3,0.1c-6.2-77.4-72.8-139.5-156.9-146.8   C282.5,130.5,295.9,139.2,309.1,152.7z"/>
<path class="st1" d="M337.3,268.9c-0.3-42.6-13.4-77.7-39.1-104.4c-17.3-18-35.5-26.6-42-29.4c-6.6,2.7-24.7,11.4-42,29.4   c-26.2,27.3-39.4,63.3-39.1,107.2c17.8-19.2,56.5-19.5,73.8-2v147.2h-5.5V442c0,5.1-3.9,9.6-9,9.9c-4.5,0.3-8.3-2.5-9.7-6.4   c-0.7-1.9-2.5-3.2-4.6-3.2h-17.7c-3,0-5.3,2.6-4.8,5.6c2.7,17.6,17.9,31,36.2,31c19.8,0,36-15.8,36.6-35.4h0v-1.2v-25.5h-5.5V271.1   C282.5,252.7,319.9,252.3,337.3,268.9z"/>
<rect class="st0" height="23.2" width="26" x="361.6" y="358"/>
<path class="st1" d="M428,358h-19.4c-2.7,0-5,2.2-5,5v21.3c0,7.2-5.8,13-13,13h-32.1c-7.2,0-13-5.8-13-13V363c0-2.7-2.2-5-5-5   h-19.4c-2.7,0-5,2.2-5,5v106.8c0,2.7,2.2,5,5,5H428c2.7,0,5-2.2,5-5V363C432.9,360.2,430.7,358,428,358z"/>
<path class="st1" d="M256,87.4c4.4,0,8-3.6,8-8V41.1c0-4.4-3.6-8-8-8s-8,3.6-8,8v38.3C248,83.8,251.6,87.4,256,87.4z"/>
<path class="st1" d="M357.2,111.8c1.2,0.7,2.6,1,3.9,1c2.8,0,5.5-1.5,7-4.1l18.6-33.5c2.1-3.9,0.7-8.7-3.1-10.9   c-3.9-2.1-8.7-0.7-10.9,3.1L354,100.9C351.9,104.8,353.3,109.6,357.2,111.8z"/>
<path class="st1" d="M475.1,150.7c-2.3-3.7-7.3-4.9-11-2.5l-32.5,20.3c-3.7,2.3-4.9,7.3-2.5,11c1.5,2.4,4.1,3.8,6.8,3.8   c1.4,0,2.9-0.4,4.2-1.2l32.5-20.3C476.3,159.4,477.5,154.5,475.1,150.7z"/>
<path class="st1" d="M144,108.7c1.5,2.6,4.2,4.1,7,4.1c1.3,0,2.6-0.3,3.9-1c3.9-2.1,5.3-7,3.1-10.9l-18.6-33.5   c-2.1-3.9-7-5.3-10.9-3.1c-3.9,2.1-5.3,7-3.1,10.9L144,108.7z"/>
<path class="st1" d="M80.4,168.5l-32.5-20.3c-3.7-2.3-8.7-1.2-11,2.5c-2.3,3.7-1.2,8.7,2.5,11L71.9,182c1.3,0.8,2.8,1.2,4.2,1.2   c2.7,0,5.3-1.3,6.8-3.8C85.3,175.7,84.2,170.8,80.4,168.5z"/>
</g>
</svg>