<?xml version="1.0" ?>
<!-- Uploaded to: SVG Repo, www.svgrepo.com, Generator: SVG Repo Mixer Tools -->
<svg width="800px" height="800px" viewBox="0 0 512 512" id="Layer_1" version="1.1" xml:space="preserve" xmlns="http://www.w3.org/2000/svg" xmlns:xlink="http://www.w3.org/1999/xlink">
<style type="text/css">
	.st0{fill:#2B79C2;}
	.st1{fill:#3B4652;}
	.st2{fill:#333333;}
</style>
<g>
<path class="st0" d="M72.7,206.1c0.7,0.1,1.4,0.2,2.2,0.2c0.6,0.1,1.2,0.1,1.8,0.1h0c0.7,0,1.4,0,2.1,0c0.6,0,1.2,0,1.8,0   c0,0,0,0,0,0c0.6,0,1.2-0.1,1.8-0.1c0.7,0,1.4-0.1,2.1-0.2c0.5-0.1,1-0.1,1.6-0.2c23.2-3.5,42.9-23.2,45.5-47   c-2.9,26.2,16.1,47.5,42.3,47.5s47.5-21.3,47.5-47.5c0,26.2,21.3,47.5,47.5,47.5s45.2-21.3,42.3-47.5c2.6,23.8,22.3,43.5,45.5,47   c2.4,0.4,4.8,0.5,7.3,0.5c1.9,0,3.7-0.1,5.5-0.3c7.7-0.9,14.4-3.8,19.7-8.1c10.5-8.6,15.4-22.9,11.8-39.1L372.1,41.4h-75.4h-75.4   H146H70.6L41.7,159c-3.3,15.1,0.7,28.5,9.7,37.2C56.8,201.4,64.1,205,72.7,206.1z M359.5,57.4l25.9,105.2   c2.1,9.7-0.2,18.1-6.4,23.1c-3.1,2.5-6.9,4-11.5,4.6c-1.1,0.1-2.4,0.2-3.6,0.2c-1.6,0-3.3-0.1-4.9-0.4   c-16.4-2.5-30.1-16.6-31.9-32.9l-12.3-99.9H359.5z M237.4,57.4h45.2l12.7,103.5c0.9,8.1-1.4,15.7-6.4,21.2c-4.9,5.5-12,8.5-20,8.5   c-17.4,0-31.5-14.1-31.5-31.5V57.4z M147.4,160.8l12.7-103.5h45.2V159c0,17.4-14.1,31.5-31.5,31.5c-8,0-15.1-3-20-8.5   C148.8,176.5,146.6,169,147.4,160.8z M57.3,162.6L83.2,57.4h44.7l-12.3,99.9c-1.8,16.3-15.5,30.4-31.8,32.9l-0.1,0   c-0.3,0-0.7,0.1-1,0.1l-0.1,0c-0.4,0.1-0.8,0.1-1.2,0.1l-0.2,0c-0.3,0-0.7,0-1,0.1l-0.2,0c-0.4,0-0.8,0-1.2,0c-0.4,0-0.8,0-1.2,0   l-0.4,0H77c-0.2,0-0.4,0-0.6,0l-0.3,0c-0.5,0-0.9-0.1-1.3-0.1c-4.9-0.7-9.2-2.6-12.3-5.6C57.3,179.7,55.4,171.6,57.3,162.6z"/>
<path class="st1" d="M244.1,349.1h-32.2v-80.8h64.5c1.6-1.9,2.9-4,3.8-6.3c1.3-3.1,2-6.5,2-9.9c0-0.9,0-1.7-0.1-2.4l-1.7-17.6   h109.7v-15.6c-5.7,2.9-12,4.8-18.7,5.6c-2.4,0.3-4.9,0.4-7.4,0.4c-3.2,0-6.4-0.2-9.6-0.7c-15.4-2.3-29.2-9.8-39.7-20.6   c-0.6,0.7-1.2,1.5-1.9,2.2c-11.1,12.3-26.6,19.1-43.9,19.1c-18.9,0-35.9-8.3-47.5-21.4c-11.7,13.1-28.6,21.4-47.5,21.4   c-17.2,0-32.8-6.8-43.9-19.1c-0.6-0.7-1.3-1.4-1.9-2.2c-10.5,10.8-24.3,18.3-39.7,20.6l-0.4,0c-0.6,0.1-1.1,0.2-1.7,0.2   c-1,0.1-1.9,0.2-2.8,0.3c-0.8,0.1-1.6,0.1-2.4,0.1l-0.3,0c-0.7,0-1.4,0-2.1,0c-1,0-1.8,0-2.7-0.1l-0.1,0c-0.9,0-1.8-0.1-2.6-0.2   c-1-0.1-2-0.2-2.9-0.3c-7.4-1-14.2-3.3-20.3-6.8v179.9c0,6.7,5.5,12.2,12.2,12.2h34.8v-139h69.5v139h102.1   c-10-16.6-17.9-34.6-23.6-53.7C244.9,352.1,244.5,350.6,244.1,349.1z"/>
<path class="st0" d="M468.2,293.4c-22.8,0-41.3-18.5-41.3-41.3c0-1.4,0.1-2.7,0.2-4H298c0.1,1.3,0.2,2.7,0.2,4   c0,5.7-1.2,11.2-3.3,16.2c-6.3,14.7-20.9,25.1-38,25.1c-1.8,0-3.6-0.1-5.3-0.3c0.7,19.5,3.8,38.4,9,56.1   c6.3,21.3,15.5,40.9,27.2,58.2c19,28.2,44.4,50.3,73.7,63.3c62.2-27.7,106.9-96.3,109.9-177.4C470.4,293.3,469.3,293.4,468.2,293.4   z"/>
</g>
</svg>