<?xml version="1.0" ?>
<!-- Uploaded to: SVG Repo, www.svgrepo.com, Generator: SVG Repo Mixer Tools -->
<svg width="800px" height="800px" viewBox="0 0 512 512" id="Layer_1" version="1.1" xml:space="preserve" xmlns="http://www.w3.org/2000/svg" xmlns:xlink="http://www.w3.org/1999/xlink">
<style type="text/css">
	.st0{fill:#2B79C2;}
	.st1{fill:#3B4652;}
	.st2{fill:#333333;}
</style>
<g>
<path class="st2" d="M454.4,72.1H57.6c-9,0-16.2,7.3-16.2,16.2v86.1h429.2V88.4C470.6,79.4,463.3,72.1,454.4,72.1z M99.6,144.9   c-12,0-21.7-9.7-21.7-21.7c0-12,9.7-21.7,21.7-21.7c12,0,21.7,9.7,21.7,21.7C121.3,135.2,111.6,144.9,99.6,144.9z M168.3,144.9   c-12,0-21.7-9.7-21.7-21.7c0-12,9.7-21.7,21.7-21.7c12,0,21.7,9.7,21.7,21.7C189.9,135.2,180.2,144.9,168.3,144.9z"/>
<path class="st2" d="M454.4,72.1H57.6c-9,0-16.2,7.3-16.2,16.2v86.1h429.2V88.4C470.6,79.4,463.3,72.1,454.4,72.1z M99.6,144.9   c-12,0-21.7-9.7-21.7-21.7c0-12,9.7-21.7,21.7-21.7c12,0,21.7,9.7,21.7,21.7C121.3,135.2,111.6,144.9,99.6,144.9z M168.3,144.9   c-12,0-21.7-9.7-21.7-21.7c0-12,9.7-21.7,21.7-21.7c12,0,21.7,9.7,21.7,21.7C189.9,135.2,180.2,144.9,168.3,144.9z"/>
<path class="st0" d="M454.4,72.1H57.6c-9,0-16.2,7.3-16.2,16.2v86.1h429.2V88.4C470.6,79.4,463.3,72.1,454.4,72.1z M99.6,144.9   c-12,0-21.7-9.7-21.7-21.7c0-12,9.7-21.7,21.7-21.7c12,0,21.7,9.7,21.7,21.7C121.3,135.2,111.6,144.9,99.6,144.9z M168.3,144.9   c-12,0-21.7-9.7-21.7-21.7c0-12,9.7-21.7,21.7-21.7c12,0,21.7,9.7,21.7,21.7C189.9,135.2,180.2,144.9,168.3,144.9z"/>
<path class="st1" d="M41.4,190.4v233.2c0,9,7.3,16.2,16.2,16.2h396.8c9,0,16.2-7.3,16.2-16.2V190.4H41.4z M375.9,338.8   c-1.6,1.6-3.6,2.3-5.7,2.3c-2.1,0-4.1-0.8-5.7-2.3l-15-15.1l-34.2,3.1c-0.2,12.4-1.9,23.4-5,32.9l36,14.5c2.1,0.9,3.8,2.6,4.5,4.7   l9.5,26.5c1.5,4.2-0.7,8.7-4.8,10.2c-0.9,0.3-1.8,0.5-2.7,0.5c-3.3,0-6.4-2-7.5-5.3l-8.3-23.1l-33.1-13.4c-1.6,2.8-3.4,5.4-5.4,7.9   c-10.4,12.7-25.1,19.4-42.5,19.4s-32.1-6.7-42.5-19.4c-2-2.4-3.8-5.1-5.4-7.9l-33.1,13.4l-8.3,23.1c-1.2,3.3-4.2,5.3-7.5,5.3   c-0.9,0-1.8-0.2-2.7-0.5c-4.2-1.5-6.3-6.1-4.8-10.2l9.5-26.5c0.8-2.1,2.4-3.9,4.5-4.7l36-14.5c-3.1-9.5-4.7-20.5-5-32.9l-34.2-3.1   l-15,15.1c-1.6,1.6-3.6,2.3-5.7,2.3c-2,0-4.1-0.8-5.7-2.3c-3.1-3.1-3.1-8.2,0-11.3l17.7-17.7c1.7-1.7,4-2.5,6.4-2.3l37.5,3.4   c2-13,7-25.2,13.1-36l-32.4-14.6l-19.1,12c-3.7,2.3-8.7,1.2-11-2.5c-2.3-3.7-1.2-8.7,2.5-11l22.8-14.3c2.3-1.4,5.1-1.6,7.5-0.5   l38.4,17.3c6.7-9.3,13.7-17.1,19.3-22.6l-17.2-17.2c-3.1-3.1-3.1-8.2,0-11.3c3.1-3.1,8.2-3.1,11.3,0l19.4,19.4c2.5-0.5,5-0.5,7.4,0   l19.4-19.4c3.1-3.1,8.2-3.1,11.3,0c3.1,3.1,3.1,8.2,0,11.3l-17.2,17.2c5.6,5.6,12.6,13.3,19.3,22.6l38.4-17.3   c2.4-1.1,5.3-0.9,7.5,0.5l22.8,14.3c3.7,2.3,4.9,7.3,2.5,11c-2.3,3.7-7.3,4.9-11,2.5l-19.1-12l-32.4,14.6c6.1,10.8,11.1,23,13.1,36   l37.5-3.4c2.4-0.2,4.7,0.6,6.4,2.3l17.7,17.7C379,330.6,379,335.7,375.9,338.8z"/>
</g>
</svg>