<?xml version="1.0" ?>
<!-- Uploaded to: SVG Repo, www.svgrepo.com, Generator: SVG Repo Mixer Tools -->
<svg width="800px" height="800px" viewBox="0 0 512 512" id="Layer_1" version="1.1" xml:space="preserve" xmlns="http://www.w3.org/2000/svg" xmlns:xlink="http://www.w3.org/1999/xlink">
<style type="text/css">
	.st0{fill:#2B79C2;}
	.st1{fill:#3B4652;}
	.st2{fill:#333333;}
</style>
<g>
<path class="st1" d="M130.9,233.9h46c4.4,0,8-3.6,8-8v-46c0-4.4-3.6-8-8-8h-46c-4.4,0-8,3.6-8,8v46   C122.8,230.3,126.4,233.9,130.9,233.9z"/>
<path class="st0" d="M349.3,329.2h-0.8c-5.5,0-10-4.5-10-10v-5.8c0-5.5-4.5-10-10-10h-3.3c-2.6,0-5-1-6.8-2.7   c-2-1.8-3.2-4.4-3.2-7.3c0-2.8-1.1-5.3-2.9-7.1c-1.8-1.8-4.3-2.9-7.1-2.9h-10.2c-9.6,0-17.3-7.8-17.3-17.3v-59.8   c0-15.5-12.5-28-28-28c-7.7,0-14.7,3.1-19.8,8.2c-5.1,5.1-8.2,12.1-8.2,19.8v111.5c0,2.9-3.8,3.9-5.2,1.5   c-5.8-9.5-1.7-41.8-19-41.8c-5.7,0-10.8,2.3-14.6,6c-3.7,3.7-6,8.9-6,14.6v70.2c0,17.9,8.2,34.9,22.3,46l22.6,25.8v45h93.5v-40.9   l24-20.9c12.8-11.1,20.2-27.3,20.2-44.2v-40C359.4,333.7,354.9,329.2,349.3,329.2z"/>
<path class="st1" d="M122.8,308.6v46c0,4.4,3.6,8,8,8h29.9v-62.1h-29.9C126.4,300.6,122.8,304.2,122.8,308.6z"/>
<path class="st1" d="M335.1,233.9h46c4.4,0,8-3.6,8-8v-46c0-4.4-3.6-8-8-8h-46c-4.4,0-8,3.6-8,8v46   C327.1,230.3,330.7,233.9,335.1,233.9z"/>
<path class="st1" d="M381.2,300.6h-30c2.1,3.8,3.3,8.1,3.3,12.7v0.4c11.9,2.4,20.8,12.9,20.8,25.5v23.5h5.8c4.4,0,8-3.6,8-8v-46   C389.2,304.2,385.6,300.6,381.2,300.6z"/>
<path class="st1" d="M422.2,26.9H89.8c-5.7,0-10.3,4.6-10.3,10.3v79.5c0,5.7,4.6,10.3,10.3,10.3h332.3c5.7,0,10.3-4.6,10.3-10.3   V37.2C432.5,31.5,427.9,26.9,422.2,26.9z M155.2,84.9h-8.6v8.6c0,4.4-3.6,8-8,8s-8-3.6-8-8v-8.6h-8.6c-4.4,0-8-3.6-8-8s3.6-8,8-8   h8.6v-8.6c0-4.4,3.6-8,8-8s8,3.6,8,8v8.6h8.6c4.4,0,8,3.6,8,8S159.6,84.9,155.2,84.9z M233.4,84.9h-8.6v8.6c0,4.4-3.6,8-8,8   s-8-3.6-8-8v-8.6h-8.6c-4.4,0-8-3.6-8-8s3.6-8,8-8h8.6v-8.6c0-4.4,3.6-8,8-8s8,3.6,8,8v8.6h8.6c4.4,0,8,3.6,8,8   S237.8,84.9,233.4,84.9z M311.7,84.9h-8.6v8.6c0,4.4-3.6,8-8,8s-8-3.6-8-8v-8.6h-8.6c-4.4,0-8-3.6-8-8s3.6-8,8-8h8.6v-8.6   c0-4.4,3.6-8,8-8s8,3.6,8,8v8.6h8.6c4.4,0,8,3.6,8,8S316.1,84.9,311.7,84.9z M389.9,84.9h-8.6v8.6c0,4.4-3.6,8-8,8s-8-3.6-8-8v-8.6   h-8.6c-4.4,0-8-3.6-8-8s3.6-8,8-8h8.6v-8.6c0-4.4,3.6-8,8-8s8,3.6,8,8v8.6h8.6c4.4,0,8,3.6,8,8S394.3,84.9,389.9,84.9z"/>
</g>
</svg>