<?xml version="1.0" ?>
<!-- Uploaded to: SVG Repo, www.svgrepo.com, Generator: SVG Repo Mixer Tools -->
<svg width="800px" height="800px" viewBox="0 0 512 512" id="Layer_1" version="1.1" xml:space="preserve" xmlns="http://www.w3.org/2000/svg" xmlns:xlink="http://www.w3.org/1999/xlink">
<style type="text/css">
	.st0{fill:#2B79C2;}
	.st1{fill:#3B4652;}
	.st2{fill:#333333;}
</style>
<g>
<path class="st1" d="M408.8,258.1c8.4,0,16.8,1.1,24.8,3.3V129.5c0-6.5-7.5-10.1-12.5-6.1L228.7,276L36.2,123.4   c-5.1-4-12.5-0.4-12.5,6.1v217.9c0,9.5,7.7,17.3,17.3,17.3H314c-0.4-3.6-0.7-7.3-0.7-11C313.4,300.9,356.2,258.1,408.8,258.1z"/>
<path class="st1" d="M33.4,100.8l195.3,154.8l195.3-154.8c9-7.1,4.2-21.7-7.2-21.9c-0.1,0-0.2,0-0.3,0H40.9c-0.1,0-0.2,0-0.3,0   C29.2,79.1,24.5,93.7,33.4,100.8z"/>
<path class="st0" d="M433.7,278.1c-7.8-2.6-16.2-4-24.9-4c-43.9,0-79.5,35.6-79.5,79.5c0,3.7,0.3,7.4,0.8,11   c5.4,38.7,38.6,68.4,78.7,68.4c43.9,0,79.5-35.6,79.5-79.5C488.3,318.4,465.4,288.5,433.7,278.1z M416.7,388.9   c-0.1,0.5-0.3,1-0.5,1.5c-0.2,0.5-0.4,1-0.7,1.4c-0.3,0.4-0.6,0.9-1,1.2c-0.4,0.4-0.8,0.7-1.2,1c-0.4,0.3-0.9,0.5-1.4,0.7   c-0.5,0.2-1,0.3-1.5,0.5c-0.5,0.1-1,0.2-1.6,0.2c-0.5,0-1,0-1.6-0.2c-0.5-0.1-1-0.3-1.5-0.5c-0.5-0.2-1-0.5-1.4-0.7   c-0.4-0.3-0.8-0.6-1.2-1c-0.4-0.4-0.7-0.8-1-1.2c-0.3-0.4-0.5-0.9-0.7-1.4c-0.2-0.5-0.4-1-0.5-1.5c-0.1-0.5-0.2-1-0.2-1.6   c0-0.5,0-1,0.2-1.6c0.1-0.5,0.3-1,0.5-1.5c0.2-0.5,0.4-1,0.7-1.4c0.3-0.4,0.6-0.8,1-1.2c1.9-1.9,4.6-2.7,7.2-2.2   c0.5,0.1,1,0.3,1.5,0.4c0.5,0.2,1,0.5,1.4,0.7c0.4,0.3,0.8,0.6,1.2,1s0.7,0.8,1,1.2c0.3,0.4,0.5,0.9,0.7,1.4c0.2,0.5,0.4,1,0.5,1.5   c0.1,0.5,0.2,1,0.2,1.6C416.8,387.8,416.8,388.4,416.7,388.9z M416.8,363.3c0,4.4-3.6,8-8,8s-8-3.6-8-8v-43.5c0-4.4,3.6-8,8-8   s8,3.6,8,8V363.3z"/>
</g>
</svg>